<svg width="766" height="938" viewBox="0 0 766 938" fill="none" xmlns="http://www.w3.org/2000/svg">
<path d="M760.035 402.864C760.566 405.86 761.062 408.868 761.523 411.888L761.031 411.964C761.489 414.955 761.911 417.958 762.3 420.972L762.794 420.907C763.183 423.924 763.536 426.951 763.855 429.989L763.361 430.041C763.678 433.051 763.959 436.072 764.206 439.103L764.704 439.062V439.061C764.951 442.09 765.161 445.129 765.338 448.178L764.841 448.207C765.016 451.23 765.157 454.262 765.263 457.304L765.76 457.286C765.865 460.321 765.936 463.364 765.972 466.416L765.474 466.422C765.491 467.946 765.5 469.472 765.5 471C765.5 472.528 765.491 474.054 765.474 475.578L765.972 475.583C765.936 478.635 765.865 481.678 765.76 484.713L765.263 484.696C765.157 487.738 765.016 490.77 764.841 493.793L765.338 493.82C765.161 496.869 764.951 499.909 764.704 502.938L764.206 502.897C763.959 505.928 763.678 508.949 763.361 511.959L763.855 512.01C763.536 515.047 763.183 518.075 762.794 521.091L762.3 521.028C761.911 524.042 761.489 527.045 761.031 530.036L761.523 530.111C761.062 533.131 760.566 536.139 760.035 539.135L759.544 539.049C759.014 542.041 758.449 545.021 757.851 547.988L758.339 548.087C757.735 551.08 757.097 554.06 756.425 557.027L755.939 556.918C755.268 559.883 754.563 562.834 753.824 565.772L754.307 565.894C753.562 568.853 752.784 571.798 751.973 574.729L751.493 574.597C750.682 577.527 749.836 580.443 748.958 583.345L749.436 583.488C748.552 586.407 747.635 589.311 746.686 592.199L746.212 592.044C745.262 594.933 744.279 597.807 743.264 600.665L743.733 600.831C742.713 603.703 741.658 606.559 740.572 609.399L740.107 609.222C739.021 612.062 737.903 614.887 736.752 617.694L737.213 617.883C736.058 620.702 734.87 623.504 733.65 626.289L733.194 626.09C731.975 628.876 730.723 631.644 729.439 634.395L729.891 634.604C728.603 637.365 727.284 640.108 725.934 642.832L725.487 642.611C724.137 645.336 722.755 648.042 721.343 650.729L721.783 650.961C720.366 653.656 718.919 656.333 717.441 658.99L717.006 658.748C715.528 661.405 714.019 664.043 712.48 666.661L712.911 666.914C711.368 669.539 709.796 672.144 708.193 674.729L707.77 674.466C706.167 677.05 704.536 679.614 702.875 682.156L703.293 682.43C701.628 684.978 699.934 687.506 698.211 690.012L697.8 689.729C696.077 692.234 694.325 694.718 692.546 697.18L692.95 697.472C691.167 699.938 689.355 702.383 687.516 704.805L687.119 704.503C685.28 706.924 683.414 709.322 681.52 711.697L681.908 712.009C680.011 714.388 678.087 716.745 676.135 719.077L675.752 718.757C673.801 721.088 671.824 723.396 669.819 725.679L670.193 726.008C668.186 728.295 666.151 730.557 664.091 732.795L663.725 732.458C661.666 734.694 659.582 736.906 657.472 739.092L657.83 739.438C655.717 741.627 653.577 743.79 651.413 745.929L651.063 745.575C648.902 747.711 646.714 749.821 644.503 751.905L644.845 752.269C642.631 754.355 640.391 756.415 638.128 758.448L637.796 758.078C635.536 760.109 633.251 762.114 630.943 764.091L631.267 764.469C628.956 766.448 626.622 768.401 624.265 770.325L623.95 769.939C621.597 771.861 619.22 773.755 616.82 775.62L617.126 776.013C614.724 777.88 612.3 779.72 609.854 781.53L609.558 781.13C607.116 782.937 604.652 784.715 602.166 786.465L602.452 786.872C599.965 788.623 597.456 790.345 594.926 792.037L594.649 791.623C592.125 793.311 589.578 794.97 587.012 796.599L587.279 797.019C584.711 798.649 582.122 800.249 579.513 801.818L579.257 801.392C576.655 802.957 574.032 804.492 571.391 805.996L571.638 806.429C568.995 807.934 566.332 809.409 563.65 810.852L563.414 810.413C560.741 811.852 558.048 813.259 555.337 814.635L555.562 815.079C552.85 816.455 550.12 817.8 547.371 819.112L547.156 818.663C544.418 819.971 541.661 821.247 538.887 822.49L539.092 822.946C536.316 824.191 533.523 825.401 530.713 826.58L530.521 826.12C527.723 827.294 524.908 828.436 522.077 829.544L522.259 830.008C519.427 831.116 516.578 832.191 513.714 833.233L513.544 832.766C510.694 833.802 507.827 834.806 504.946 835.776L505.105 836.248C502.223 837.219 499.324 838.155 496.411 839.058L496.265 838.582C493.369 839.479 490.459 840.343 487.534 841.172L487.67 841.65C484.743 842.48 481.802 843.276 478.847 844.037L478.724 843.555C475.79 844.31 472.842 845.031 469.882 845.718L469.993 846.204C467.029 846.891 464.052 847.544 461.062 848.161L460.961 847.673C457.996 848.285 455.019 848.862 452.029 849.404L452.118 849.895C449.125 850.438 446.119 850.945 443.102 851.417L443.025 850.926C440.035 851.394 437.033 851.827 434.02 852.225L434.084 852.718C431.069 853.116 428.044 853.48 425.008 853.807L424.955 853.311C421.945 853.634 418.925 853.923 415.895 854.176L415.936 854.673C412.907 854.925 409.868 855.141 406.82 855.322L406.792 854.825C403.769 855.005 400.737 855.149 397.695 855.257L397.712 855.754C394.678 855.862 391.635 855.936 388.583 855.972L388.578 855.473C387.054 855.491 385.528 855.5 384 855.5C382.472 855.5 380.946 855.491 379.422 855.473L379.416 855.972C376.364 855.936 373.321 855.862 370.287 855.754L370.305 855.257C367.263 855.149 364.231 855.005 361.208 854.825L361.179 855.322C358.131 855.141 355.093 854.925 352.064 854.673L352.105 854.176C349.075 853.923 346.055 853.634 343.045 853.311L342.991 853.807C339.955 853.48 336.93 853.116 333.915 852.718L333.98 852.225C330.967 851.827 327.965 851.394 324.975 850.926L324.897 851.417C321.88 850.945 318.875 850.438 315.882 849.895L315.971 849.404C312.981 848.862 310.004 848.285 307.039 847.673L306.938 848.161C303.947 847.544 300.97 846.891 298.006 846.204L298.118 845.718C295.158 845.031 292.211 844.311 289.277 843.556L289.152 844.037C286.197 843.276 283.256 842.48 280.329 841.65L280.466 841.172C277.541 840.343 274.631 839.479 271.735 838.582L271.588 839.058C268.675 838.155 265.776 837.219 262.894 836.248L263.054 835.776C260.173 834.806 257.307 833.802 254.457 832.766L254.286 833.234C251.421 832.192 248.573 831.117 245.74 830.008L245.923 829.544C243.092 828.436 240.277 827.294 237.479 826.12L237.286 826.58C234.476 825.401 231.683 824.191 228.907 822.946L229.113 822.49C226.339 821.247 223.582 819.971 220.844 818.663L220.628 819.112C217.879 817.8 215.149 816.455 212.437 815.079L212.663 814.635C209.952 813.259 207.259 811.852 204.586 810.413L204.35 810.853C201.667 809.409 199.005 807.934 196.361 806.429L196.609 805.996C193.968 804.492 191.345 802.957 188.743 801.392L188.486 801.818C185.877 800.249 183.288 798.649 180.72 797.019L180.988 796.599C178.422 794.97 175.875 793.311 173.351 791.623L173.073 792.037C170.543 790.345 168.034 788.623 165.547 786.872L165.834 786.465C163.348 784.715 160.884 782.937 158.442 781.13L158.146 781.53C155.699 779.72 153.275 777.88 150.873 776.013L151.18 775.62C148.78 773.755 146.403 771.861 144.05 769.939L143.734 770.325C141.377 768.401 139.043 766.448 136.732 764.469L137.057 764.091C134.749 762.114 132.464 760.109 130.204 758.078L129.871 758.448C127.608 756.415 125.368 754.355 123.154 752.269L123.497 751.905C121.286 749.821 119.098 747.711 116.937 745.575L116.586 745.929C114.422 743.79 112.282 741.627 110.169 739.438L110.528 739.092C108.418 736.906 106.334 734.694 104.275 732.458L103.908 732.795C101.848 730.557 99.8133 728.295 97.8057 726.008L98.1807 725.679C96.1764 723.396 94.1988 721.088 92.248 718.757L91.8643 719.077C89.9124 716.745 87.9882 714.388 86.0908 712.009L86.4805 711.697C84.5865 709.322 82.7195 706.924 80.8809 704.503L80.4834 704.805C78.6439 702.383 76.832 699.938 75.0488 697.472L75.4541 697.18C73.6746 694.718 71.9226 692.234 70.2002 689.729L69.7891 690.012H69.7881C68.0652 687.506 66.3709 684.978 64.7061 682.43L65.125 682.156C63.4641 679.614 61.8326 677.05 60.2305 674.466L59.8057 674.729C58.2034 672.144 56.6305 669.539 55.0879 666.914L55.5195 666.661C53.9811 664.043 52.4723 661.405 50.9941 658.748L50.5576 658.99C49.0797 656.333 47.6326 653.656 46.2158 650.961L46.6572 650.729C45.2449 648.042 43.8632 645.336 42.5127 642.611L42.0654 642.832C40.7153 640.108 39.3969 637.366 38.1094 634.605L38.5605 634.395C37.2775 631.644 36.0255 628.876 34.8057 626.09L34.3486 626.289C33.1292 623.504 31.9415 620.702 30.7861 617.883L31.248 617.694C30.0974 614.887 28.9787 612.062 27.8926 609.222L27.4268 609.399C26.3408 606.559 25.2862 603.703 24.2656 600.831L24.7363 600.665C23.7208 597.807 22.738 594.933 21.7881 592.044L21.3135 592.199C20.3637 589.311 19.4468 586.407 18.5635 583.488L19.042 583.345C18.1638 580.443 17.3183 577.527 16.5068 574.597L16.0264 574.729C15.2146 571.798 14.4366 568.853 13.6924 565.894L14.1758 565.772C13.4368 562.834 12.7319 559.883 12.0605 556.918L11.5742 557.027C10.9022 554.06 10.2637 551.08 9.66016 548.087L10.1494 547.989C9.55097 545.022 8.98624 542.041 8.45605 539.049L7.96387 539.135C7.43303 536.139 6.93723 533.131 6.47559 530.111L6.96875 530.036C6.51141 527.045 6.08871 524.042 5.7002 521.028L5.20508 521.092C4.8162 518.075 4.46273 515.048 4.14355 512.01L4.63867 511.959C4.32242 508.949 4.04087 505.928 3.79395 502.897L3.29492 502.938C3.0481 499.909 2.83796 496.87 2.66113 493.821L3.15918 493.793C2.98384 490.77 2.84295 487.738 2.7373 484.696L2.23926 484.713C2.13386 481.678 2.06267 478.635 2.02734 475.583L2.52637 475.578C2.50873 474.054 2.5 472.528 2.5 471C2.5 469.472 2.50873 467.946 2.52637 466.422L2.02734 466.416C2.06267 463.364 2.13385 460.321 2.23926 457.286L2.7373 457.304C2.84295 454.262 2.98384 451.23 3.15918 448.207L2.66113 448.179C2.83798 445.13 3.04807 442.09 3.29492 439.061L3.2959 439.062L3.79395 439.103C4.04087 436.072 4.32242 433.051 4.63867 430.041L4.14355 429.989C4.4627 426.952 4.81624 423.924 5.20508 420.908L5.7002 420.972C6.08871 417.958 6.5114 414.955 6.96875 411.964L6.47559 411.888C6.81633 409.659 7.17521 407.437 7.55371 405.221L7.96387 402.864L8.45605 402.951C8.98621 399.959 9.55101 396.979 10.1494 394.012L9.66016 393.912C10.2637 390.919 10.9022 387.939 11.5742 384.972L12.0605 385.082C12.7319 382.117 13.4368 379.166 14.1758 376.228L13.6924 376.105C14.4366 373.146 15.2146 370.201 16.0264 367.27L16.5068 367.403C17.3183 364.473 18.1638 361.557 19.042 358.655L18.5635 358.511C19.2224 356.334 19.8997 354.164 20.5957 352.004L21.3135 349.8L21.7881 349.956C22.738 347.067 23.7208 344.193 24.7363 341.335L24.2656 341.168C25.2863 338.296 26.3408 335.44 27.4268 332.6L27.8926 332.778C28.9787 329.938 30.0974 327.113 31.248 324.306L30.7861 324.116C31.9415 321.297 33.1292 318.495 34.3486 315.71L34.8057 315.91C36.0255 313.124 37.2775 310.356 38.5605 307.605L38.1084 307.395C39.3961 304.634 40.7151 301.891 42.0654 299.167L42.5127 299.389C43.8632 296.664 45.2449 293.958 46.6572 291.271L46.2158 291.038C47.6326 288.343 49.0797 285.666 50.5576 283.009L50.9941 283.252C52.4723 280.595 53.9811 277.957 55.5195 275.339L55.0879 275.085C56.6027 272.507 58.1464 269.949 59.7188 267.41L59.8057 267.271L60.2305 267.534C61.8326 264.95 63.4641 262.386 65.125 259.844L64.707 259.57L64.7061 259.569C66.3709 257.021 68.0652 254.493 69.7881 251.987L69.7891 251.988L70.2002 252.271C71.9226 249.766 73.6746 247.282 75.4541 244.82L75.0488 244.527C76.832 242.061 78.6439 239.616 80.4834 237.194L80.8809 237.497C82.7195 235.076 84.5865 232.678 86.4805 230.303L86.0908 229.99C87.9882 227.611 89.9124 225.254 91.8643 222.922L92.248 223.243C94.1988 220.912 96.1764 218.604 98.1807 216.321L97.8057 215.991C99.8133 213.704 101.848 211.442 103.908 209.204L104.275 209.542C106.334 207.306 108.418 205.094 110.528 202.908L110.169 202.562C112.282 200.372 114.422 198.209 116.586 196.07L116.937 196.425C119.098 194.289 121.286 192.179 123.497 190.095L123.154 189.73C125.368 187.644 127.608 185.584 129.871 183.551L130.204 183.922C132.464 181.891 134.749 179.886 137.057 177.909L136.732 177.53C139.043 175.551 141.377 173.598 143.734 171.674L144.05 172.061C146.403 170.139 148.78 168.245 151.18 166.38L150.873 165.986C153.275 164.119 155.699 162.279 158.146 160.469L158.442 160.87C160.884 159.063 163.348 157.285 165.834 155.535L165.547 155.127C168.034 153.376 170.543 151.654 173.073 149.962L173.351 150.377C175.875 148.689 178.422 147.03 180.988 145.401L180.72 144.98C183.288 143.35 185.877 141.75 188.486 140.181L188.743 140.608C191.345 139.043 193.968 137.508 196.609 136.004L196.361 135.57C199.004 134.065 201.667 132.59 204.349 131.147L204.586 131.587C207.259 130.148 209.952 128.741 212.663 127.365L212.437 126.92C215.149 125.544 217.879 124.199 220.628 122.887L220.844 123.337C223.582 122.029 226.339 120.753 229.113 119.51L228.908 119.054L228.907 119.053C231.683 117.809 234.476 116.598 237.286 115.419L237.479 115.88C240.277 114.706 243.092 113.564 245.923 112.456L245.74 111.991C248.572 110.883 251.421 109.808 254.285 108.766L254.456 109.234C257.306 108.198 260.173 107.194 263.054 106.224L262.894 105.751C265.776 104.78 268.675 103.844 271.588 102.941L271.735 103.418C274.631 102.521 277.541 101.657 280.466 100.828L280.329 100.349C283.256 99.5187 286.197 98.7228 289.152 97.9619L289.276 98.4453C292.21 97.6899 295.158 96.9686 298.118 96.2822L298.006 95.7949C300.97 95.1076 303.947 94.4552 306.938 93.8379L307.039 94.3271C310.004 93.7151 312.981 93.138 315.971 92.5957L315.881 92.1045C318.874 91.5614 321.88 91.0544 324.897 90.582L324.975 91.0742C327.965 90.6061 330.967 90.1731 333.98 89.7754L333.915 89.2812C336.93 88.8834 339.955 88.519 342.991 88.1924L343.045 88.6895C346.055 88.3657 349.075 88.077 352.105 87.8242L352.063 87.3262C355.092 87.0735 358.131 86.8578 361.179 86.6768L361.208 87.1748C364.231 86.9953 367.263 86.8513 370.305 86.7432L370.287 86.2451C373.321 86.1372 376.364 86.0635 379.416 86.0273L379.422 86.5273C380.946 86.5093 382.472 86.5 384 86.5C385.528 86.5 387.054 86.5093 388.578 86.5273L388.583 86.0273C391.635 86.0635 394.678 86.1372 397.712 86.2451L397.695 86.7432C400.737 86.8513 403.769 86.9953 406.792 87.1748L406.82 86.6768C409.868 86.8577 412.906 87.0736 415.935 87.3262L415.895 87.8242C418.925 88.077 421.945 88.3657 424.955 88.6895L425.008 88.1924C428.044 88.519 431.069 88.8834 434.084 89.2812L434.02 89.7754C437.033 90.1731 440.035 90.6061 443.025 91.0742L443.102 90.582C446.119 91.0543 449.124 91.5615 452.117 92.1045L452.029 92.5957C455.019 93.138 457.996 93.7151 460.961 94.3271L461.062 93.8379C464.052 94.4552 467.029 95.1076 469.993 95.7949L469.882 96.2822C472.842 96.9686 475.789 97.689 478.723 98.4443L478.847 97.9619C481.802 98.7228 484.743 99.5187 487.67 100.349L487.534 100.828C490.459 101.657 493.369 102.521 496.265 103.418L496.411 102.941C499.324 103.844 502.223 104.78 505.105 105.751L504.946 106.224C507.827 107.194 510.693 108.198 513.543 109.234L513.713 108.765C516.578 109.807 519.426 110.882 522.259 111.991L522.077 112.456C524.908 113.564 527.723 114.706 530.521 115.88L530.713 115.419C533.523 116.598 536.316 117.809 539.092 119.053V119.054L538.887 119.51C541.661 120.753 544.418 122.029 547.156 123.337L547.371 122.887C550.12 124.199 552.85 125.544 555.562 126.92L555.337 127.365C558.048 128.741 560.741 130.148 563.414 131.587L563.649 131.146C566.332 132.59 568.994 134.065 571.638 135.57L571.391 136.004C574.032 137.508 576.655 139.043 579.257 140.608L579.513 140.181C582.122 141.75 584.711 143.35 587.279 144.98L587.012 145.401C589.578 147.03 592.125 148.689 594.649 150.377L594.926 149.962C597.456 151.654 599.965 153.376 602.452 155.127L602.166 155.535C604.652 157.285 607.116 159.063 609.558 160.87L609.854 160.469C612.3 162.279 614.724 164.119 617.126 165.986L616.82 166.38C619.22 168.245 621.597 170.139 623.95 172.061L624.265 171.674C626.622 173.598 628.956 175.551 631.267 177.53L630.943 177.909C633.251 179.886 635.536 181.891 637.796 183.922L638.128 183.551C640.391 185.584 642.631 187.644 644.845 189.73L644.503 190.095C646.714 192.179 648.902 194.289 651.063 196.425L651.413 196.07C653.577 198.209 655.717 200.372 657.83 202.562L657.472 202.908C659.582 205.094 661.666 207.306 663.725 209.542L664.091 209.204C666.151 211.442 668.186 213.704 670.193 215.991L669.819 216.321C671.824 218.604 673.801 220.912 675.752 223.243L676.135 222.922C678.087 225.254 680.011 227.611 681.908 229.99L681.52 230.303C683.414 232.678 685.28 235.076 687.119 237.497L687.516 237.194C689.355 239.616 691.167 242.061 692.95 244.527L692.546 244.82C694.325 247.282 696.077 249.766 697.8 252.271L698.211 251.988V251.987C699.934 254.493 701.628 257.021 703.293 259.569V259.57L702.875 259.844C704.536 262.386 706.167 264.95 707.77 267.534L708.193 267.271C709.796 269.855 711.368 272.46 712.911 275.085L712.48 275.339C714.019 277.957 715.528 280.595 717.006 283.252L717.441 283.009C718.919 285.666 720.366 288.343 721.783 291.038L721.343 291.271C722.755 293.958 724.137 296.664 725.487 299.389L725.934 299.167C727.284 301.891 728.602 304.633 729.89 307.394L729.439 307.605C730.722 310.356 731.975 313.124 733.194 315.91L733.65 315.71C734.87 318.495 736.057 321.297 737.213 324.116L736.752 324.306C737.903 327.113 739.021 329.938 740.107 332.778L740.572 332.6C741.658 335.44 742.713 338.296 743.733 341.168L743.264 341.335C744.279 344.193 745.262 347.067 746.212 349.956L746.686 349.8C747.635 352.688 748.552 355.592 749.436 358.511L748.958 358.655C749.836 361.557 750.682 364.473 751.493 367.403L751.973 367.27C752.784 370.201 753.562 373.146 754.307 376.105L753.824 376.228C754.563 379.166 755.268 382.117 755.939 385.082L756.425 384.972C757.097 387.939 757.735 390.919 758.339 393.912L757.851 394.011C758.449 396.978 759.014 399.959 759.544 402.951L760.035 402.864Z" stroke="#FF0000" stroke-dasharray="9 9"/>
<path d="M636.407 186.149C638.366 188.854 639.717 191.616 640.424 194.424L639.941 194.546C640.312 196.02 640.5 197.505 640.5 199C640.5 200.495 640.312 201.981 639.941 203.454L640.424 203.575C639.717 206.383 638.366 209.145 636.407 211.85L636.004 211.558C634.363 213.823 632.284 216.055 629.785 218.248L630.113 218.622C627.957 220.515 625.496 222.371 622.747 224.19L622.474 223.776C620.051 225.379 617.401 226.953 614.533 228.495L614.769 228.933C612.181 230.324 609.42 231.69 606.49 233.025L606.283 232.572C603.583 233.804 600.738 235.012 597.757 236.193L597.94 236.655C595.162 237.757 592.265 238.836 589.254 239.891L589.089 239.421C586.269 240.409 583.349 241.376 580.332 242.321L580.48 242.797C577.609 243.696 574.652 244.576 571.61 245.435L571.476 244.955C568.574 245.774 565.596 246.575 562.545 247.355L562.668 247.838C559.735 248.588 556.734 249.321 553.669 250.034L553.557 249.549C550.605 250.236 547.593 250.905 544.522 251.557L544.625 252.045C541.65 252.676 538.622 253.29 535.541 253.886L535.447 253.396C532.459 253.974 529.422 254.536 526.337 255.08L526.423 255.57C523.419 256.101 520.371 256.616 517.28 257.113L517.202 256.62C514.199 257.103 511.155 257.57 508.073 258.021L508.145 258.515C505.127 258.956 502.073 259.382 498.983 259.792L498.919 259.299C495.893 259.7 492.832 260.086 489.739 260.457L489.798 260.953C486.759 261.317 483.688 261.666 480.588 262L480.535 261.504C477.488 261.832 474.412 262.144 471.309 262.441L471.355 262.938C468.311 263.23 465.239 263.507 462.143 263.769L462.102 263.271C459.054 263.529 455.982 263.773 452.887 264.001L452.922 264.498C449.864 264.724 446.783 264.935 443.68 265.131L443.648 264.634C440.584 264.828 437.498 265.007 434.392 265.172L434.417 265.669C431.356 265.831 428.275 265.979 425.176 266.112L425.155 265.614C422.093 265.746 419.012 265.863 415.914 265.966L415.93 266.465C412.858 266.567 409.769 266.654 406.665 266.728L406.654 266.229C403.581 266.301 400.491 266.359 397.388 266.402L397.394 266.901C394.326 266.944 391.244 266.973 388.148 266.987L388.146 266.489C386.601 266.496 385.052 266.5 383.5 266.5C381.948 266.5 380.399 266.496 378.854 266.489L378.852 266.987C375.756 266.973 372.674 266.944 369.605 266.901L369.612 266.402C366.509 266.359 363.419 266.301 360.346 266.229L360.334 266.728C357.23 266.654 354.141 266.567 351.069 266.465L351.086 265.966C347.988 265.863 344.907 265.746 341.845 265.614L341.823 266.112C338.724 265.979 335.643 265.831 332.582 265.669L332.608 265.172C329.502 265.007 326.416 264.828 323.352 264.634L323.319 265.131C320.216 264.935 317.135 264.724 314.077 264.498L314.114 264.001C311.018 263.773 307.946 263.529 304.898 263.271L304.856 263.769C301.76 263.507 298.688 263.23 295.644 262.938L295.691 262.441C292.588 262.144 289.512 261.832 286.465 261.504L286.411 262C283.311 261.666 280.24 261.317 277.201 260.953L277.261 260.457C274.168 260.086 271.107 259.7 268.081 259.299L268.016 259.792C264.926 259.382 261.872 258.956 258.854 258.515L258.927 258.021C255.845 257.57 252.801 257.103 249.798 256.62L249.719 257.113C246.628 256.616 243.58 256.101 240.576 255.57L240.663 255.08C237.579 254.536 234.541 253.974 231.553 253.396L231.458 253.886C228.377 253.29 225.349 252.676 222.374 252.045L222.478 251.557C219.407 250.905 216.395 250.236 213.443 249.549L213.33 250.034C210.265 249.321 207.264 248.588 204.331 247.838L204.455 247.355C201.404 246.575 198.427 245.774 195.525 244.955L195.389 245.435C192.347 244.576 189.39 243.696 186.519 242.797L186.668 242.321C183.651 241.376 180.731 240.409 177.911 239.421L177.746 239.891C174.735 238.836 171.838 237.757 169.059 236.655L169.243 236.193C166.262 235.012 163.417 233.804 160.717 232.572L160.51 233.025C157.58 231.689 154.818 230.324 152.23 228.933L152.467 228.495C149.599 226.953 146.949 225.379 144.526 223.776L144.252 224.19C141.503 222.371 139.042 220.515 136.886 218.622L137.215 218.248C134.717 216.056 132.638 213.823 130.997 211.558L130.592 211.85C128.633 209.145 127.282 206.383 126.575 203.575L127.059 203.454C126.688 201.98 126.5 200.495 126.5 199C126.5 197.505 126.688 196.019 127.059 194.546L126.575 194.424C127.247 191.753 128.502 189.123 130.31 186.545L130.592 186.149L130.996 186.442C132.637 184.177 134.716 181.945 137.215 179.752L136.886 179.377C139.042 177.484 141.503 175.628 144.252 173.809L144.526 174.224C146.949 172.621 149.599 171.047 152.467 169.505L152.23 169.066C154.818 167.675 157.579 166.309 160.509 164.974L160.717 165.428C163.417 164.196 166.262 162.988 169.243 161.807L169.059 161.344C171.837 160.242 174.734 159.163 177.745 158.108L177.911 158.579C180.731 157.591 183.651 156.624 186.668 155.679L186.519 155.202C189.39 154.303 192.348 153.423 195.389 152.564L195.524 153.045C198.426 152.226 201.404 151.425 204.455 150.645L204.331 150.161C207.264 149.411 210.265 148.678 213.33 147.965L213.443 148.451C216.395 147.764 219.407 147.095 222.478 146.443L222.374 145.954C225.349 145.323 228.377 144.709 231.458 144.113L231.553 144.604C234.541 144.026 237.578 143.464 240.663 142.92L240.576 142.429C243.58 141.898 246.628 141.383 249.719 140.886L249.798 141.38C252.801 140.897 255.845 140.43 258.927 139.979L258.854 139.484C261.872 139.043 264.926 138.617 268.016 138.207L268.081 138.701C271.107 138.3 274.168 137.914 277.261 137.543L277.201 137.046C280.24 136.682 283.311 136.333 286.411 135.999L286.465 136.496C289.512 136.168 292.588 135.856 295.691 135.559L295.644 135.061C298.688 134.769 301.76 134.492 304.856 134.23L304.898 134.729C307.946 134.471 311.018 134.227 314.113 133.999L314.077 133.501C317.135 133.275 320.216 133.064 323.319 132.868L323.352 133.366C326.416 133.172 329.502 132.993 332.608 132.828L332.582 132.33C335.643 132.168 338.724 132.02 341.823 131.887L341.845 132.386C344.907 132.254 347.988 132.137 351.086 132.034L351.069 131.534C354.141 131.432 357.23 131.345 360.334 131.271L360.346 131.771C363.419 131.699 366.509 131.641 369.612 131.598L369.605 131.098C372.673 131.055 375.755 131.026 378.851 131.012L378.854 131.511C380.399 131.504 381.948 131.5 383.5 131.5C385.052 131.5 386.601 131.504 388.146 131.511L388.147 131.012C391.243 131.026 394.325 131.055 397.394 131.098L397.388 131.598C400.491 131.641 403.581 131.699 406.654 131.771L406.665 131.271C409.769 131.345 412.858 131.432 415.93 131.534L415.914 132.034C419.012 132.137 422.093 132.254 425.155 132.386L425.176 131.887C428.275 132.02 431.356 132.168 434.417 132.33L434.392 132.828C437.498 132.993 440.584 133.172 443.648 133.366L443.68 132.868C446.783 133.064 449.864 133.275 452.922 133.501L452.886 133.999C455.982 134.227 459.054 134.471 462.102 134.729L462.143 134.23C465.239 134.492 468.311 134.769 471.355 135.061L471.309 135.559C474.412 135.856 477.488 136.168 480.535 136.496L480.588 135.999C483.688 136.333 486.759 136.682 489.798 137.046L489.739 137.543C492.832 137.914 495.893 138.3 498.919 138.701L498.983 138.207C502.073 138.617 505.127 139.043 508.145 139.484L508.073 139.979C511.155 140.43 514.199 140.897 517.202 141.38L517.28 140.886C520.371 141.383 523.419 141.898 526.423 142.429L526.337 142.92C529.421 143.464 532.459 144.026 535.447 144.604L535.541 144.113C538.622 144.709 541.65 145.323 544.625 145.954L544.522 146.443C547.593 147.095 550.605 147.764 553.557 148.451L553.669 147.965C556.734 148.678 559.735 149.411 562.668 150.161L562.545 150.645C565.596 151.425 568.573 152.226 571.475 153.045L571.61 152.564C574.652 153.423 577.609 154.303 580.48 155.202L580.332 155.679C583.349 156.624 586.269 157.591 589.089 158.579L589.253 158.108C592.264 159.163 595.161 160.242 597.94 161.344L597.757 161.807C600.738 162.988 603.583 164.196 606.283 165.428L606.489 164.974C609.419 166.31 612.181 167.675 614.769 169.066L614.533 169.505C617.401 171.047 620.051 172.621 622.474 174.224L622.747 173.809C625.496 175.628 627.957 177.484 630.113 179.377L629.785 179.752C632.283 181.944 634.362 184.177 636.003 186.442L636.407 186.149Z" stroke="#FF0000" stroke-dasharray="9 9"/>
<path d="M388.445 267.005C391.405 267.012 394.355 267.026 397.297 267.047L397.295 267.547C400.253 267.568 403.202 267.595 406.141 267.63L406.146 267.13C409.107 267.165 412.059 267.207 415 267.256L414.992 267.756C417.95 267.805 420.898 267.861 423.834 267.924L423.844 267.424C426.807 267.487 429.759 267.558 432.699 267.636L432.688 268.135C435.645 268.212 438.591 268.297 441.525 268.389L441.54 267.89C444.503 267.982 447.454 268.081 450.393 268.188L450.376 268.687C453.335 268.794 456.281 268.908 459.213 269.029L459.232 268.53C462.195 268.653 465.144 268.782 468.079 268.919L468.057 269.418C471.017 269.556 473.963 269.701 476.894 269.853L476.92 269.354V269.353C479.88 269.506 482.826 269.667 485.755 269.835L485.727 270.334C488.689 270.503 491.637 270.68 494.566 270.864L494.597 270.365C497.553 270.551 500.493 270.743 503.415 270.943L503.382 271.441C506.348 271.644 509.297 271.855 512.227 272.072L512.263 271.575C515.213 271.794 518.144 272.02 521.056 272.254L521.017 272.751C523.988 272.989 526.94 273.236 529.87 273.489L529.912 272.991C532.859 273.246 535.784 273.509 538.688 273.778L538.643 274.275C541.614 274.551 544.563 274.836 547.487 275.127L547.536 274.631C550.491 274.925 553.422 275.227 556.327 275.536L556.275 276.032C559.233 276.347 562.164 276.67 565.068 277.001L565.124 276.505C568.088 276.842 571.025 277.189 573.933 277.542L573.873 278.037C576.811 278.394 579.721 278.76 582.6 279.133L582.663 278.637C585.637 279.022 588.578 279.416 591.486 279.818L591.419 280.312C594.371 280.72 597.289 281.138 600.172 281.562L600.243 281.068C603.185 281.502 606.091 281.944 608.959 282.395L608.882 282.888C611.848 283.354 614.774 283.828 617.658 284.312L617.74 283.82C620.689 284.315 623.594 284.817 626.455 285.33L626.368 285.822C629.296 286.347 632.177 286.881 635.011 287.424L635.104 286.933C638.067 287.501 640.978 288.078 643.835 288.666H643.836L643.735 289.155C646.682 289.761 649.572 290.379 652.402 291.005L652.51 290.517V290.516C655.445 291.165 658.318 291.827 661.125 292.498L661.01 292.983C663.931 293.681 666.782 294.39 669.56 295.11L669.685 294.628C672.604 295.385 675.445 296.152 678.202 296.933L678.066 297.414C680.992 298.242 683.825 299.082 686.561 299.936L686.708 299.46C689.622 300.369 692.427 301.291 695.121 302.228L694.958 302.698C697.846 303.702 700.605 304.721 703.229 305.755L703.412 305.292C706.289 306.425 709.007 307.574 711.56 308.741L711.353 309.194C714.206 310.499 716.851 311.823 719.278 313.165L719.519 312.729C722.295 314.264 724.792 315.822 726.999 317.404L726.709 317.811C729.344 319.7 731.552 321.615 733.317 323.551L733.686 323.214C735.913 325.655 737.46 328.141 738.289 330.664L737.814 330.82C738.27 332.206 738.5 333.599 738.5 335C738.5 336.401 738.27 337.794 737.814 339.18L738.289 339.335C737.46 341.858 735.913 344.344 733.686 346.785L733.317 346.449C731.552 348.385 729.344 350.3 726.709 352.189L726.999 352.595C724.792 354.177 722.295 355.735 719.519 357.27L719.278 356.835C716.851 358.177 714.206 359.501 711.353 360.806L711.56 361.258C709.007 362.425 706.289 363.574 703.412 364.707L703.229 364.245C700.605 365.279 697.846 366.298 694.958 367.302L695.121 367.771C692.427 368.708 689.622 369.63 686.708 370.539L686.561 370.064C683.825 370.918 680.992 371.758 678.066 372.586L678.202 373.066C675.445 373.847 672.604 374.614 669.685 375.371L669.56 374.89C666.782 375.61 663.931 376.319 661.01 377.017L661.125 377.501C658.318 378.172 655.445 378.834 652.51 379.483L652.402 378.995C649.572 379.621 646.682 380.239 643.735 380.845L643.835 381.333C640.978 381.921 638.067 382.499 635.104 383.066L635.011 382.576C632.177 383.119 629.296 383.653 626.368 384.178L626.455 384.669C623.594 385.182 620.689 385.684 617.74 386.179L617.658 385.688C614.774 386.172 611.848 386.646 608.882 387.112L608.959 387.604C606.091 388.055 603.185 388.497 600.243 388.931L600.172 388.438C597.289 388.862 594.371 389.28 591.419 389.688L591.486 390.181C588.578 390.583 585.637 390.977 582.663 391.362L582.6 390.867C579.721 391.24 576.811 391.606 573.873 391.963L573.933 392.457C571.025 392.81 568.088 393.157 565.124 393.494L565.068 392.999C562.164 393.33 559.232 393.653 556.274 393.968L556.327 394.463C553.422 394.772 550.491 395.074 547.536 395.368L547.487 394.873C544.563 395.164 541.614 395.449 538.643 395.725L538.688 396.221C535.784 396.49 532.859 396.753 529.912 397.008L529.87 396.511C526.94 396.764 523.988 397.011 521.017 397.249L521.056 397.745C518.144 397.979 515.213 398.205 512.263 398.424L512.227 397.928C509.297 398.145 506.348 398.356 503.382 398.559L503.415 399.056C500.493 399.256 497.553 399.448 494.597 399.634L494.566 399.136C491.637 399.32 488.689 399.497 485.727 399.666L485.755 400.164C482.826 400.332 479.88 400.493 476.92 400.646L476.894 400.147C473.963 400.299 471.017 400.444 468.057 400.582L468.079 401.08C465.144 401.217 462.195 401.346 459.232 401.469L459.213 400.971C456.281 401.092 453.335 401.206 450.376 401.313L450.393 401.812C447.454 401.918 444.503 402.017 441.54 402.109L441.525 401.611C438.591 401.703 435.644 401.788 432.687 401.865L432.699 402.363C429.759 402.441 426.807 402.512 423.844 402.575L423.834 402.076C420.898 402.139 417.95 402.195 414.992 402.244L415 402.743C412.059 402.792 409.107 402.834 406.146 402.869L406.141 402.37C403.202 402.405 400.253 402.432 397.295 402.453L397.297 402.952C394.355 402.973 391.405 402.987 388.445 402.994L388.444 402.495C386.965 402.499 385.484 402.5 384 402.5C382.516 402.5 381.035 402.499 379.556 402.495L379.554 402.994C376.594 402.987 373.644 402.973 370.702 402.952L370.705 402.453C367.747 402.432 364.798 402.405 361.859 402.37L361.854 402.869C358.892 402.834 355.94 402.792 352.999 402.743L353.008 402.244C350.05 402.195 347.102 402.139 344.166 402.076L344.155 402.575C341.192 402.512 338.24 402.441 335.3 402.363L335.312 401.865C332.355 401.788 329.409 401.703 326.475 401.611L326.459 402.109C323.496 402.017 320.545 401.918 317.606 401.812L317.624 401.313C314.665 401.206 311.719 401.092 308.787 400.971L308.767 401.469C305.804 401.346 302.855 401.217 299.92 401.08L299.943 400.582C296.983 400.444 294.037 400.299 291.106 400.147L291.08 400.646H291.079C288.119 400.493 285.173 400.332 282.244 400.164L282.273 399.666C279.311 399.497 276.363 399.32 273.434 399.136L273.402 399.634C270.446 399.448 267.506 399.256 264.584 399.056L264.618 398.559C261.652 398.356 258.703 398.145 255.773 397.928L255.736 398.424C252.786 398.205 249.855 397.979 246.943 397.745L246.983 397.249C244.012 397.011 241.06 396.764 238.13 396.511L238.087 397.008C235.14 396.753 232.215 396.49 229.312 396.221L229.357 395.725C226.386 395.449 223.437 395.164 220.513 394.873L220.463 395.368C217.508 395.074 214.577 394.772 211.672 394.463L211.725 393.968C208.767 393.653 205.836 393.33 202.932 392.999L202.875 393.494C199.911 393.157 196.974 392.81 194.066 392.457L194.127 391.963C191.189 391.606 188.279 391.24 185.4 390.867L185.336 391.362C182.362 390.977 179.421 390.583 176.513 390.181L176.581 389.688C173.629 389.28 170.711 388.862 167.828 388.438L167.756 388.931C164.814 388.497 161.908 388.055 159.04 387.604L159.118 387.112C156.152 386.646 153.226 386.172 150.342 385.688L150.259 386.179C147.31 385.684 144.405 385.182 141.544 384.669L141.632 384.178C138.704 383.653 135.823 383.119 132.989 382.576L132.895 383.066C129.932 382.499 127.021 381.921 124.164 381.333L124.265 380.845C121.318 380.239 118.428 379.621 115.598 378.995L115.49 379.483H115.489C112.554 378.834 109.682 378.172 106.874 377.501L106.99 377.017C104.069 376.319 101.218 375.61 98.4404 374.89L98.3145 375.371C95.3946 374.614 92.5543 373.847 89.7969 373.066L89.9336 372.586C87.0082 371.758 84.1755 370.918 81.4395 370.064L81.291 370.539C78.3771 369.63 75.5716 368.708 72.8779 367.771L73.042 367.302C70.1539 366.298 67.3952 365.279 64.7705 364.245L64.5869 364.707C61.7099 363.574 58.9921 362.425 56.4395 361.258L56.6475 360.806C53.794 359.501 51.1495 358.177 48.7217 356.835L48.4805 357.27C45.7045 355.735 43.2066 354.177 41 352.595L41.291 352.189C38.6562 350.3 36.4484 348.385 34.6826 346.449L34.3135 346.785C32.0864 344.344 30.5387 341.858 29.71 339.335L30.1855 339.18C29.7303 337.794 29.5 336.401 29.5 335C29.5 333.599 29.7303 332.206 30.1855 330.82L29.71 330.664C30.5389 328.141 32.0864 325.655 34.3135 323.214L34.6826 323.551C36.4484 321.615 38.6563 319.7 41.291 317.811L41 317.404C43.2066 315.822 45.7045 314.264 48.4805 312.729L48.7217 313.165C51.1495 311.823 53.794 310.499 56.6475 309.194L56.4395 308.741C58.9921 307.574 61.7099 306.425 64.5869 305.292L64.7705 305.755C67.3952 304.721 70.1539 303.702 73.042 302.698L72.8779 302.228C75.5716 301.291 78.3771 300.369 81.291 299.46L81.4395 299.936C84.1755 299.082 87.0082 298.242 89.9336 297.414L89.7969 296.933C92.5543 296.152 95.3946 295.385 98.3145 294.628L98.4404 295.11C101.218 294.39 104.069 293.681 106.99 292.983L106.874 292.498C109.682 291.827 112.554 291.165 115.489 290.516L115.49 290.517L115.598 291.005C118.428 290.379 121.318 289.761 124.265 289.155L124.164 288.666C127.021 288.078 129.932 287.501 132.895 286.933L132.989 287.424C135.823 286.881 138.704 286.347 141.632 285.822L141.544 285.33C144.405 284.817 147.31 284.315 150.259 283.82L150.342 284.312C153.226 283.828 156.152 283.354 159.118 282.888L159.04 282.395C161.908 281.944 164.814 281.502 167.756 281.068L167.828 281.562C170.711 281.138 173.629 280.72 176.581 280.312L176.513 279.818C179.421 279.416 182.362 279.022 185.336 278.637L185.4 279.133C188.279 278.76 191.189 278.394 194.127 278.037L194.066 277.542C196.974 277.189 199.911 276.842 202.875 276.505L202.932 277.001C205.836 276.67 208.768 276.347 211.726 276.032L211.672 275.536C214.577 275.227 217.508 274.925 220.463 274.631L220.513 275.127C223.437 274.836 226.386 274.551 229.357 274.275L229.312 273.778C232.215 273.509 235.14 273.246 238.087 272.991L238.13 273.489C241.06 273.236 244.012 272.989 246.983 272.751L246.943 272.254C249.855 272.02 252.786 271.794 255.736 271.575L255.773 272.072C258.703 271.855 261.652 271.644 264.618 271.441L264.584 270.943C267.506 270.743 270.446 270.551 273.402 270.365L273.434 270.864C276.363 270.68 279.311 270.503 282.273 270.334L282.244 269.835C285.173 269.667 288.119 269.506 291.079 269.353L291.08 269.354L291.106 269.853C294.037 269.701 296.983 269.556 299.943 269.418L299.92 268.919C302.855 268.782 305.804 268.653 308.767 268.53L308.787 269.029C311.719 268.908 314.665 268.794 317.624 268.687L317.606 268.188C320.545 268.081 323.496 267.982 326.459 267.89L326.475 268.389C329.409 268.297 332.356 268.212 335.313 268.135L335.3 267.636C338.24 267.558 341.192 267.487 344.155 267.424L344.166 267.924C347.102 267.861 350.05 267.805 353.008 267.756L352.999 267.256C355.94 267.207 358.892 267.165 361.854 267.13L361.859 267.63C364.798 267.595 367.747 267.568 370.705 267.547L370.702 267.047C373.644 267.026 376.594 267.012 379.554 267.005L379.556 267.505C381.035 267.501 382.516 267.5 384 267.5C385.484 267.5 386.965 267.501 388.444 267.505L388.445 267.005Z" stroke="#FF0000" stroke-dasharray="9 9"/>
<path d="M388.044 401.005C391.07 401.011 394.087 401.025 397.096 401.044L397.093 401.543C400.113 401.562 403.125 401.588 406.128 401.62L406.133 401.121C409.162 401.153 412.182 401.192 415.192 401.237L415.187 401.736C418.204 401.782 421.212 401.834 424.209 401.892L424.218 401.392C427.252 401.45 430.275 401.515 433.287 401.587L433.275 402.086C436.29 402.158 439.295 402.236 442.287 402.32L442.3 401.82C445.337 401.906 448.363 401.998 451.376 402.097L451.36 402.597C454.373 402.695 457.373 402.8 460.36 402.911L460.379 402.412V402.411C463.419 402.524 466.446 402.644 469.46 402.771V402.771L469.439 403.271C472.452 403.397 475.451 403.531 478.437 403.67L478.459 403.171C481.499 403.313 484.525 403.461 487.535 403.616L487.511 404.115C490.523 404.27 493.521 404.432 496.502 404.601L496.528 404.102C499.569 404.273 502.594 404.451 505.603 404.636L505.573 405.135C508.583 405.32 511.577 405.512 514.553 405.71L514.586 405.212V405.211C517.629 405.414 520.654 405.623 523.66 405.84V405.841L523.624 406.339C526.635 406.556 529.628 406.78 532.601 407.01L532.638 406.512C535.679 406.747 538.699 406.99 541.699 407.239L541.659 407.737C544.674 407.988 547.667 408.245 550.639 408.51L550.683 408.012C553.718 408.282 556.73 408.56 559.72 408.844L559.674 409.341C562.694 409.628 565.69 409.921 568.662 410.223L568.712 409.726C571.737 410.032 574.738 410.346 577.712 410.667L577.659 411.164C580.687 411.491 583.688 411.825 586.661 412.167L586.717 411.671C589.727 412.017 592.709 412.37 595.662 412.73L595.603 413.227C598.64 413.597 601.647 413.976 604.621 414.362L604.685 413.866C607.695 414.257 610.673 414.657 613.617 415.063L613.55 415.558C616.576 415.975 619.568 416.401 622.522 416.834L622.596 416.34V416.339C625.62 416.783 628.607 417.237 631.555 417.697L631.479 418.189C634.476 418.657 637.433 419.133 640.349 419.617L640.43 419.124C643.464 419.628 646.454 420.142 649.397 420.663L649.311 421.154C652.327 421.689 655.296 422.232 658.215 422.784L658.307 422.294C661.305 422.861 664.251 423.437 667.143 424.022L667.045 424.512C670.057 425.121 673.011 425.741 675.904 426.37L676.01 425.883C679.028 426.539 681.982 427.205 684.868 427.882L684.755 428.367C687.756 429.07 690.685 429.784 693.538 430.509L693.66 430.025C696.653 430.785 699.564 431.554 702.391 432.336V432.337L702.257 432.819C705.237 433.644 708.123 434.481 710.912 435.329L711.057 434.853C714.035 435.759 716.903 436.678 719.657 437.61L719.498 438.083C722.465 439.087 725.3 440.106 727.998 441.139L728.175 440.674C731.138 441.808 733.938 442.959 736.568 444.126L736.366 444.582C739.29 445.88 742.003 447.197 744.495 448.53L744.73 448.09C747.583 449.616 750.153 451.165 752.428 452.737V452.738L752.144 453.149C754.883 455.043 757.182 456.963 759.025 458.901L759.388 458.557C761.731 461.021 763.36 463.531 764.238 466.077L763.768 466.24C764.255 467.653 764.5 469.073 764.5 470.5C764.5 471.927 764.255 473.347 763.768 474.76L764.238 474.922C763.36 477.469 761.73 479.977 759.387 482.442L759.025 482.099C757.182 484.037 754.883 485.957 752.144 487.851L752.428 488.262C750.153 489.834 747.583 491.383 744.73 492.909L744.495 492.47C742.003 493.803 739.29 495.12 736.366 496.418L736.568 496.873C733.938 498.04 731.138 499.191 728.175 500.325L727.998 499.861C725.3 500.894 722.465 501.913 719.498 502.917L719.657 503.389C716.903 504.321 714.035 505.24 711.057 506.146L710.912 505.671C708.123 506.519 705.237 507.356 702.257 508.181L702.391 508.663C699.564 509.445 696.653 510.214 693.66 510.974L693.538 510.491C690.685 511.216 687.756 511.93 684.755 512.633L684.868 513.117C681.982 513.794 679.028 514.46 676.01 515.116L675.904 514.63C673.011 515.259 670.057 515.879 667.045 516.488L667.143 516.977C664.251 517.562 661.305 518.138 658.307 518.705L658.215 518.216C655.296 518.768 652.327 519.311 649.311 519.846L649.397 520.336C646.454 520.857 643.464 521.371 640.43 521.875L640.349 521.383C637.433 521.867 634.476 522.343 631.479 522.811L631.555 523.302C628.607 523.762 625.62 524.216 622.596 524.66L622.522 524.166C619.568 524.599 616.576 525.025 613.55 525.442L613.617 525.936C610.673 526.342 607.695 526.742 604.685 527.133L604.621 526.638C601.647 527.024 598.64 527.403 595.603 527.773L595.662 528.269C592.709 528.629 589.727 528.982 586.717 529.328L586.66 528.833C583.687 529.175 580.687 529.509 577.659 529.836L577.712 530.332C574.737 530.653 571.737 530.967 568.711 531.273L568.662 530.777C565.69 531.079 562.694 531.372 559.674 531.659L559.72 532.155C556.73 532.439 553.718 532.717 550.683 532.987L550.639 532.49C547.667 532.755 544.674 533.012 541.659 533.263L541.699 533.76C538.699 534.009 535.679 534.252 532.638 534.487L532.6 533.99C529.627 534.22 526.635 534.444 523.624 534.661L523.66 535.159C520.654 535.376 517.629 535.585 514.586 535.788L514.553 535.29C511.577 535.488 508.583 535.68 505.573 535.865L505.603 536.363C502.594 536.548 499.569 536.726 496.528 536.897L496.502 536.399C493.521 536.568 490.523 536.73 487.511 536.885L487.535 537.383C484.525 537.538 481.499 537.686 478.459 537.828L478.437 537.33C475.451 537.469 472.452 537.603 469.439 537.729L469.46 538.229C466.446 538.355 463.419 538.475 460.379 538.588L460.36 538.089C457.373 538.2 454.373 538.305 451.36 538.403L451.376 538.902C448.363 539.001 445.337 539.093 442.3 539.179L442.287 538.68C439.295 538.764 436.29 538.842 433.275 538.914L433.286 539.412C430.274 539.484 427.251 539.549 424.218 539.607L424.209 539.108C421.212 539.166 418.204 539.218 415.187 539.264L415.192 539.762C412.182 539.807 409.162 539.846 406.133 539.878L406.128 539.38C403.125 539.412 400.113 539.438 397.093 539.457L397.095 539.955C394.087 539.974 391.069 539.988 388.044 539.994V539.495C386.531 539.498 385.017 539.5 383.5 539.5C381.983 539.5 380.469 539.498 378.956 539.495L378.955 539.994C375.929 539.988 372.912 539.974 369.903 539.955L369.907 539.457C366.887 539.438 363.875 539.412 360.872 539.38L360.866 539.878C357.837 539.846 354.817 539.807 351.807 539.762L351.813 539.264C348.796 539.218 345.788 539.166 342.791 539.108L342.781 539.607C339.747 539.549 336.724 539.484 333.712 539.412L333.725 538.914C330.71 538.842 327.705 538.764 324.713 538.68L324.699 539.179C321.662 539.093 318.636 539.001 315.623 538.902L315.64 538.403C312.627 538.305 309.627 538.2 306.64 538.089L306.621 538.588C303.58 538.475 300.553 538.355 297.539 538.229H297.54L297.561 537.729C294.548 537.603 291.549 537.469 288.563 537.33L288.54 537.828C285.5 537.686 282.474 537.538 279.464 537.383L279.489 536.885C276.477 536.73 273.479 536.568 270.498 536.399L270.471 536.897C267.43 536.726 264.405 536.548 261.396 536.363L261.427 535.865C258.417 535.68 255.423 535.488 252.447 535.29L252.414 535.788H252.413C249.37 535.585 246.345 535.376 243.339 535.159H243.34L243.376 534.661C240.365 534.444 237.372 534.22 234.399 533.99L234.361 534.487C231.32 534.252 228.3 534.009 225.3 533.76L225.341 533.263C222.326 533.012 219.333 532.755 216.361 532.49L216.316 532.987C213.281 532.717 210.269 532.439 207.279 532.155L207.326 531.659C204.306 531.372 201.31 531.079 198.338 530.777L198.287 531.273C195.262 530.967 192.261 530.653 189.287 530.332L189.341 529.836C186.313 529.509 183.312 529.175 180.339 528.833L180.282 529.328C177.272 528.982 174.29 528.629 171.337 528.269L171.397 527.773C168.36 527.403 165.353 527.024 162.379 526.638L162.314 527.133C159.304 526.742 156.326 526.342 153.382 525.936L153.45 525.442C150.424 525.025 147.432 524.599 144.478 524.166L144.404 524.66H144.403C141.379 524.216 138.392 523.762 135.444 523.302L135.521 522.811C132.524 522.343 129.567 521.867 126.651 521.383L126.569 521.875C123.535 521.371 120.545 520.857 117.602 520.336L117.689 519.846C114.673 519.311 111.704 518.768 108.785 518.216L108.692 518.705C105.694 518.138 102.748 517.562 99.8564 516.977L99.9551 516.488C96.9428 515.879 93.9892 515.259 91.0957 514.63L90.9893 515.116C87.9705 514.46 85.0172 513.794 82.1309 513.117L82.2451 512.633C79.2439 511.93 76.3154 511.216 73.4619 510.491L73.3389 510.974C70.3461 510.214 67.4347 509.445 64.6084 508.663L64.7432 508.181C61.7631 507.356 58.8766 506.519 56.0879 505.671L55.9424 506.146C52.9643 505.24 50.0963 504.321 47.3418 503.389L47.502 502.917C44.5346 501.913 41.6998 500.894 39.002 499.861L38.8242 500.325C35.8608 499.191 33.0609 498.04 30.4307 496.873L30.6338 496.418C27.7096 495.12 24.9974 493.803 22.5049 492.47L22.2686 492.909C19.4159 491.383 16.8458 489.834 14.5713 488.262L14.8564 487.851C12.1167 485.957 9.81782 484.037 7.97461 482.099L7.61133 482.442C5.26823 479.978 3.63844 477.468 2.76074 474.922L3.23242 474.76C2.74536 473.347 2.5 471.927 2.5 470.5C2.5 469.073 2.74536 467.653 3.23242 466.24L2.76074 466.077C3.63036 463.555 5.23795 461.068 7.5459 458.626L7.6123 458.557L7.97461 458.901C9.81784 456.963 12.1166 455.043 14.8564 453.149L14.5723 452.738L14.5713 452.737C16.8458 451.165 19.416 449.616 22.2686 448.09L22.5049 448.53C24.9974 447.197 27.7096 445.88 30.6338 444.582L30.4307 444.126C33.0609 442.959 35.8608 441.808 38.8242 440.674L39.002 441.139C41.6998 440.106 44.5346 439.087 47.502 438.083L47.3418 437.61C50.0963 436.678 52.9643 435.759 55.9424 434.853L56.0879 435.329C58.8766 434.481 61.7631 433.644 64.7432 432.819L64.6094 432.337L64.6084 432.336C67.4347 431.554 70.3461 430.785 73.3389 430.025L73.4619 430.509C76.3154 429.784 79.2439 429.07 82.2451 428.367L82.1309 427.882C85.0172 427.205 87.9706 426.539 90.9893 425.883L91.0957 426.37C93.9892 425.741 96.9428 425.121 99.9551 424.512L99.8564 424.022C102.748 423.437 105.694 422.861 108.692 422.294L108.785 422.784C111.704 422.232 114.673 421.689 117.689 421.154L117.602 420.663C120.545 420.142 123.535 419.628 126.569 419.124L126.651 419.617C129.567 419.133 132.524 418.657 135.521 418.189L135.444 417.697C138.392 417.237 141.379 416.783 144.403 416.339L144.404 416.34L144.478 416.834C147.432 416.401 150.424 415.975 153.45 415.558L153.382 415.063C156.326 414.657 159.304 414.257 162.314 413.866L162.379 414.362C165.353 413.976 168.36 413.597 171.397 413.227L171.337 412.73C174.29 412.37 177.272 412.017 180.282 411.671L180.34 412.167C183.313 411.825 186.313 411.491 189.341 411.164L189.287 410.667C192.262 410.346 195.262 410.032 198.288 409.726L198.338 410.223C201.31 409.921 204.306 409.628 207.326 409.341L207.279 408.844C210.269 408.56 213.281 408.282 216.316 408.012L216.361 408.51C219.333 408.245 222.326 407.988 225.341 407.737L225.3 407.239C228.3 406.99 231.32 406.747 234.361 406.512L234.4 407.01C237.373 406.78 240.365 406.556 243.376 406.339L243.34 405.841L243.339 405.84C246.345 405.623 249.37 405.414 252.413 405.211L252.414 405.212L252.447 405.71C255.423 405.512 258.417 405.32 261.427 405.135L261.396 404.636C264.405 404.451 267.43 404.273 270.471 404.102L270.498 404.601C273.479 404.432 276.477 404.27 279.489 404.115L279.464 403.616C282.474 403.461 285.5 403.313 288.54 403.171L288.563 403.67C291.549 403.531 294.548 403.397 297.561 403.271L297.54 402.771L297.539 402.771C300.553 402.644 303.58 402.524 306.62 402.411L306.621 402.412L306.64 402.911C309.627 402.8 312.627 402.695 315.64 402.597L315.623 402.097C318.636 401.998 321.662 401.906 324.699 401.82L324.713 402.32C327.705 402.236 330.71 402.158 333.725 402.086L333.713 401.587C336.725 401.515 339.748 401.45 342.781 401.392L342.791 401.892C345.788 401.834 348.796 401.782 351.813 401.736L351.807 401.237C354.817 401.192 357.837 401.153 360.866 401.121L360.872 401.62C363.875 401.588 366.887 401.562 369.907 401.543L369.904 401.044C372.912 401.025 375.93 401.011 378.955 401.005L378.956 401.505C380.469 401.502 381.983 401.5 383.5 401.5C385.017 401.5 386.531 401.502 388.044 401.505V401.005Z" stroke="#FF0000" stroke-dasharray="9 9"/>
<path d="M388.442 540.005C391.4 540.012 394.35 540.026 397.29 540.047L397.288 540.547C400.244 540.568 403.192 540.595 406.129 540.629L406.134 540.129C409.094 540.164 412.044 540.206 414.983 540.254L414.977 540.754C417.933 540.803 420.879 540.858 423.813 540.92L423.822 540.421C426.784 540.484 429.735 540.553 432.674 540.63L432.661 541.129C435.617 541.206 438.563 541.29 441.495 541.381L441.51 540.882C444.471 540.974 447.421 541.072 450.357 541.178L450.341 541.677C453.298 541.783 456.242 541.896 459.173 542.017L459.192 541.518C462.154 541.639 465.102 541.767 468.035 541.902L468.013 542.402C470.971 542.539 473.916 542.682 476.845 542.833L476.869 542.333C479.829 542.485 482.773 542.644 485.701 542.811L485.674 543.31C488.635 543.478 491.58 543.654 494.508 543.836L494.538 543.337C497.494 543.521 500.432 543.712 503.353 543.91L503.32 544.408C506.285 544.609 509.232 544.819 512.16 545.034L512.195 544.536C515.145 544.753 518.075 544.978 520.985 545.21L520.946 545.707C523.916 545.943 526.866 546.187 529.795 546.438L529.836 545.94C532.781 546.193 535.705 546.453 538.607 546.721L538.562 547.219C541.533 547.492 544.481 547.774 547.404 548.062L547.452 547.566C550.405 547.858 553.334 548.157 556.238 548.464L556.187 548.96C559.143 549.272 562.074 549.593 564.978 549.921L565.032 549.425C567.995 549.759 570.93 550.102 573.837 550.452L573.778 550.948C576.715 551.302 579.622 551.664 582.499 552.034L582.562 551.538C585.535 551.92 588.476 552.311 591.384 552.71L591.317 553.205C594.268 553.61 597.184 554.022 600.065 554.443L600.137 553.948C603.079 554.378 605.984 554.818 608.852 555.265L608.775 555.758C611.74 556.22 614.665 556.69 617.548 557.17L617.629 556.678C620.576 557.168 623.48 557.667 626.34 558.175L626.253 558.667C629.18 559.187 632.061 559.716 634.894 560.255L634.986 559.764C637.949 560.327 640.86 560.9 643.718 561.482L643.619 561.973C646.565 562.573 649.453 563.185 652.282 563.806L652.39 563.317V563.316C655.324 563.96 658.195 564.616 661.002 565.281L660.888 565.767C663.808 566.459 666.659 567.162 669.437 567.876L669.56 567.393C672.482 568.143 675.324 568.905 678.084 569.68L677.95 570.161C680.876 570.982 683.708 571.815 686.444 572.661L686.591 572.186C689.506 573.087 692.313 574.001 695.008 574.93L694.846 575.4C697.735 576.396 700.495 577.407 703.122 578.432L703.303 577.968C706.179 579.09 708.897 580.228 711.45 581.384L711.244 581.839C714.102 583.133 716.752 584.446 719.185 585.777L719.423 585.341C722.206 586.864 724.711 588.41 726.925 589.98L726.637 590.389C729.281 592.264 731.497 594.166 733.271 596.088L733.638 595.75C735.882 598.181 737.443 600.656 738.28 603.169L737.807 603.327C738.267 604.711 738.5 606.102 738.5 607.5C738.5 608.898 738.267 610.289 737.807 611.673L738.28 611.83C737.443 614.344 735.882 616.819 733.638 619.25L733.271 618.912C731.497 620.834 729.281 622.736 726.637 624.611L726.925 625.019C724.711 626.589 722.206 628.135 719.423 629.658L719.185 629.223C716.752 630.554 714.102 631.867 711.244 633.161L711.449 633.615C708.896 634.771 706.179 635.909 703.303 637.031L703.122 636.568C700.495 637.593 697.735 638.604 694.846 639.6L695.007 640.07C692.312 640.999 689.505 641.913 686.591 642.813L686.444 642.339C683.708 643.185 680.875 644.018 677.949 644.839L678.084 645.319C675.324 646.094 672.482 646.856 669.56 647.606L669.437 647.124C666.659 647.838 663.808 648.541 660.888 649.233L661.002 649.718C658.195 650.383 655.324 651.039 652.39 651.683L652.282 651.194C649.453 651.815 646.564 652.427 643.618 653.027L643.718 653.517C640.86 654.099 637.949 654.672 634.986 655.235L634.894 654.745C632.061 655.284 629.18 655.813 626.253 656.333L626.34 656.824C623.48 657.332 620.576 657.831 617.629 658.321L617.548 657.83C614.665 658.31 611.74 658.78 608.775 659.242L608.851 659.734C605.983 660.181 603.078 660.621 600.137 661.051L600.065 660.557C597.184 660.978 594.268 661.39 591.317 661.795L591.384 662.289C588.476 662.688 585.535 663.079 582.562 663.461L582.499 662.966C579.622 663.336 576.715 663.698 573.778 664.052L573.837 664.547C570.93 664.897 567.995 665.24 565.032 665.574L564.978 665.079C562.074 665.407 559.143 665.728 556.187 666.04L556.238 666.535C553.334 666.842 550.405 667.141 547.452 667.433L547.404 666.938C544.481 667.226 541.533 667.508 538.562 667.781L538.607 668.278C535.705 668.546 532.781 668.806 529.836 669.059L529.795 668.562C526.866 668.813 523.916 669.057 520.946 669.293L520.984 669.79C518.074 670.022 515.144 670.246 512.195 670.463L512.16 669.966C509.232 670.181 506.285 670.391 503.32 670.592L503.353 671.089C500.432 671.287 497.494 671.478 494.538 671.662L494.508 671.164C491.58 671.346 488.635 671.522 485.674 671.69L485.701 672.188C482.773 672.355 479.829 672.514 476.869 672.666L476.845 672.167C473.916 672.318 470.971 672.461 468.013 672.598L468.034 673.097C465.101 673.232 462.154 673.36 459.192 673.481L459.173 672.983C456.242 673.104 453.298 673.217 450.341 673.323L450.357 673.821C447.421 673.927 444.471 674.025 441.509 674.117L441.495 673.619C438.563 673.71 435.617 673.794 432.661 673.871L432.673 674.369C429.734 674.446 426.784 674.515 423.822 674.578L423.812 674.08C420.878 674.142 417.932 674.197 414.977 674.246L414.983 674.745C412.043 674.793 409.093 674.835 406.133 674.87L406.128 674.371C403.191 674.405 400.244 674.432 397.288 674.453L397.29 674.952C394.35 674.973 391.4 674.987 388.442 674.994V674.495C386.964 674.499 385.483 674.5 384 674.5C382.517 674.5 381.036 674.499 379.558 674.495L379.557 674.994C376.599 674.987 373.649 674.973 370.709 674.952L370.712 674.453C367.756 674.432 364.808 674.405 361.871 674.371L361.865 674.87C358.905 674.835 355.955 674.793 353.016 674.745L353.023 674.246C350.067 674.197 347.121 674.142 344.187 674.08L344.177 674.578C341.215 674.515 338.264 674.446 335.325 674.369L335.339 673.871C332.383 673.794 329.437 673.71 326.505 673.619L326.489 674.117C323.528 674.025 320.578 673.927 317.642 673.821L317.659 673.323C314.702 673.217 311.758 673.104 308.827 672.983L308.807 673.481C305.845 673.36 302.897 673.232 299.964 673.097L299.987 672.598C297.029 672.461 294.084 672.318 291.155 672.167L291.13 672.666C288.17 672.514 285.226 672.355 282.298 672.188L282.326 671.69C279.365 671.522 276.42 671.346 273.492 671.164L273.461 671.662C270.506 671.478 267.567 671.287 264.646 671.089L264.68 670.592C261.715 670.391 258.768 670.181 255.84 669.966L255.804 670.463C252.854 670.246 249.924 670.021 247.014 669.789L247.054 669.293C244.084 669.057 241.134 668.813 238.205 668.562L238.163 669.059C235.218 668.806 232.294 668.546 229.392 668.278L229.438 667.781C226.467 667.508 223.519 667.226 220.596 666.938L220.547 667.433C217.594 667.141 214.665 666.842 211.761 666.535L211.813 666.04C208.857 665.728 205.926 665.407 203.022 665.079L202.967 665.574C200.004 665.24 197.069 664.897 194.162 664.547L194.222 664.052C191.285 663.698 188.378 663.336 185.501 662.966L185.437 663.461C182.464 663.079 179.523 662.688 176.615 662.289L176.683 661.795C173.732 661.39 170.816 660.978 167.935 660.557L167.862 661.051C164.921 660.621 162.015 660.181 159.147 659.734L159.225 659.242C156.26 658.78 153.335 658.31 150.452 657.83L150.37 658.321C147.423 657.831 144.519 657.332 141.659 656.824L141.747 656.333C138.82 655.813 135.939 655.284 133.106 654.745L133.013 655.235C130.05 654.672 127.139 654.099 124.281 653.517L124.381 653.027C121.435 652.427 118.547 651.815 115.718 651.194L115.61 651.683H115.609C112.675 651.039 109.804 650.383 106.997 649.718L107.112 649.233C104.192 648.541 101.341 647.838 98.5635 647.124L98.4395 647.606C95.5173 646.856 92.6749 646.094 89.915 645.319L90.0498 644.839C87.1244 644.018 84.2921 643.185 81.5557 642.339L81.4082 642.813C78.4932 641.912 75.6864 640.998 72.9912 640.069L73.1543 639.6C70.2647 638.604 67.5046 637.593 64.8779 636.568L64.6963 637.031C61.82 635.909 59.1019 634.771 56.5488 633.615L56.7559 633.161C53.8979 631.867 51.2482 630.554 48.8154 629.223L48.5762 629.658C45.7931 628.135 43.2879 626.589 41.0742 625.019L41.3633 624.611C38.7193 622.736 36.5029 620.834 34.7285 618.912L34.3613 619.249C32.117 616.818 30.5556 614.343 29.7188 611.83L30.1934 611.673C29.7326 610.289 29.5 608.898 29.5 607.5C29.5 606.102 29.7326 604.711 30.1934 603.327L29.7188 603.169C30.5558 600.656 32.1167 598.18 34.3613 595.749L34.7285 596.088C36.5029 594.166 38.7193 592.264 41.3633 590.389L41.0742 589.98C43.2879 588.41 45.7931 586.864 48.5762 585.341L48.8154 585.777C51.2483 584.446 53.8978 583.133 56.7559 581.839L56.5498 581.384C59.1027 580.228 61.8203 579.09 64.6963 577.968L64.8779 578.432C67.5046 577.407 70.2647 576.396 73.1543 575.4L72.9922 574.929C75.687 574 78.4936 573.086 81.4082 572.186L81.5557 572.661C84.2923 571.815 87.1252 570.982 90.0508 570.161L89.915 569.68C92.6749 568.905 95.5173 568.144 98.4395 567.393L98.5635 567.876C101.341 567.162 104.192 566.459 107.112 565.767L106.997 565.281C109.804 564.616 112.675 563.96 115.609 563.316L115.61 563.317L115.718 563.806C118.547 563.185 121.436 562.573 124.382 561.973L124.281 561.482C127.139 560.9 130.05 560.327 133.013 559.764L133.106 560.255C135.939 559.716 138.82 559.187 141.747 558.667L141.659 558.175C144.519 557.667 147.423 557.168 150.37 556.678L150.452 557.17C153.335 556.69 156.26 556.22 159.225 555.758L159.148 555.265C162.016 554.818 164.921 554.378 167.862 553.948L167.935 554.443C170.816 554.022 173.732 553.61 176.683 553.205L176.615 552.71C179.523 552.311 182.464 551.92 185.438 551.538L185.501 552.034C188.378 551.664 191.285 551.302 194.222 550.948L194.162 550.452C197.069 550.102 200.004 549.759 202.967 549.425L203.022 549.921C205.926 549.593 208.857 549.272 211.813 548.96L211.761 548.464C214.665 548.157 217.594 547.858 220.547 547.566L220.596 548.062C223.519 547.774 226.467 547.492 229.438 547.219L229.392 546.721C232.294 546.453 235.218 546.193 238.163 545.94L238.205 546.438C241.134 546.187 244.084 545.943 247.054 545.707L247.015 545.209C249.925 544.977 252.855 544.753 255.804 544.536L255.84 545.034C258.768 544.819 261.715 544.609 264.68 544.408L264.646 543.91C267.567 543.712 270.506 543.521 273.461 543.337L273.492 543.836C276.42 543.654 279.365 543.478 282.326 543.31L282.298 542.811C285.226 542.644 288.17 542.485 291.13 542.333L291.155 542.833C294.084 542.682 297.029 542.539 299.987 542.402L299.965 541.902C302.898 541.767 305.845 541.639 308.807 541.518L308.827 542.017C311.758 541.896 314.702 541.783 317.659 541.677L317.642 541.178C320.579 541.072 323.528 540.974 326.49 540.882L326.505 541.381C329.437 541.29 332.383 541.206 335.339 541.129L335.326 540.63C338.265 540.553 341.215 540.484 344.177 540.421L344.188 540.92C347.122 540.858 350.068 540.803 353.023 540.754L353.016 540.254C355.956 540.206 358.906 540.164 361.866 540.129L361.872 540.629C364.809 540.595 367.756 540.568 370.712 540.547L370.709 540.047C373.649 540.026 376.599 540.012 379.557 540.005L379.558 540.505C381.036 540.501 382.517 540.5 384 540.5C385.483 540.5 386.964 540.501 388.442 540.505V540.005Z" stroke="#FF0000" stroke-dasharray="9 9"/>
<path d="M389.144 675.012C392.237 675.027 395.316 675.056 398.382 675.101L398.376 675.6C401.477 675.644 404.563 675.705 407.634 675.779L407.645 675.279C410.746 675.354 413.832 675.445 416.901 675.55L416.886 676.049C419.981 676.155 423.059 676.276 426.118 676.411L426.14 675.911C429.236 676.048 432.313 676.2 435.371 676.367L435.345 676.866C438.448 677.035 441.532 677.22 444.594 677.419L444.625 676.92C447.725 677.122 450.804 677.339 453.859 677.571L453.822 678.069C456.915 678.304 459.985 678.554 463.029 678.819L463.072 678.321C466.164 678.591 469.231 678.876 472.271 679.176H472.271L472.223 679.673C475.323 679.979 478.396 680.301 481.439 680.638L481.493 680.141C484.59 680.484 487.657 680.843 490.692 681.218L490.633 681.714C493.722 682.095 496.779 682.492 499.801 682.905L499.868 682.411C502.954 682.833 506.005 683.27 509.018 683.725L508.944 684.219C512.023 684.683 515.062 685.163 518.061 685.66L518.142 685.167C521.224 685.678 524.264 686.206 527.259 686.751L527.17 687.242C530.249 687.802 533.281 688.38 536.264 688.975L536.36 688.485C539.435 689.098 542.458 689.728 545.426 690.377L545.32 690.865C548.384 691.535 551.389 692.223 554.334 692.93L554.449 692.444C557.507 693.178 560.5 693.93 563.425 694.702L563.298 695.186C566.34 695.988 569.308 696.81 572.2 697.652L572.339 697.173C575.369 698.056 578.316 698.96 581.176 699.885L581.023 700.359C584.027 701.331 586.935 702.325 589.741 703.34L589.91 702.869C592.914 703.956 595.803 705.068 598.573 706.202L598.385 706.664C601.347 707.877 604.171 709.117 606.851 710.381L607.063 709.929C609.968 711.299 612.704 712.699 615.267 714.126L615.025 714.561C617.87 716.144 620.496 717.761 622.894 719.406L623.176 718.994V718.993C625.89 720.856 628.314 722.76 630.437 724.697L630.101 725.066C632.544 727.297 634.573 729.569 636.171 731.874L636.581 731.589C638.471 734.314 639.773 737.095 640.451 739.923H640.452L639.967 740.039C640.321 741.515 640.5 743.002 640.5 744.5C640.5 745.998 640.321 747.485 639.967 748.961L640.451 749.076C639.773 751.904 638.471 754.685 636.581 757.41L636.171 757.127C634.573 759.432 632.543 761.703 630.1 763.934L630.437 764.302C628.314 766.24 625.89 768.143 623.176 770.006L622.893 769.594C620.496 771.239 617.87 772.856 615.025 774.439L615.267 774.873C612.704 776.3 609.968 777.7 607.063 779.07L606.851 778.619C604.171 779.883 601.347 781.123 598.385 782.336L598.573 782.797C595.803 783.931 592.914 785.043 589.91 786.13L589.741 785.66C586.935 786.675 584.027 787.669 581.023 788.641L581.176 789.114C578.316 790.039 575.369 790.944 572.339 791.826L572.2 791.348C569.308 792.19 566.34 793.012 563.298 793.814L563.425 794.297C560.5 795.069 557.507 795.821 554.449 796.555L554.334 796.07C551.389 796.777 548.384 797.465 545.32 798.135L545.426 798.622C542.458 799.271 539.435 799.901 536.36 800.514L536.264 800.025C533.281 800.62 530.249 801.198 527.17 801.758L527.259 802.248C524.264 802.793 521.224 803.321 518.142 803.832L518.061 803.34C515.062 803.837 512.023 804.317 508.944 804.781L509.018 805.274C506.005 805.729 502.954 806.166 499.868 806.588L499.802 806.095C496.779 806.508 493.722 806.905 490.633 807.286L490.692 807.781C487.657 808.156 484.59 808.515 481.493 808.858L481.439 808.362C478.396 808.699 475.323 809.021 472.223 809.327L472.271 809.823C469.231 810.123 466.164 810.408 463.072 810.678L463.029 810.181C459.985 810.446 456.915 810.696 453.822 810.931L453.859 811.428C450.804 811.66 447.725 811.877 444.625 812.079L444.594 811.581C441.532 811.78 438.448 811.965 435.345 812.134L435.371 812.632C432.313 812.799 429.236 812.951 426.14 813.088L426.119 812.589C423.059 812.724 419.981 812.845 416.886 812.951L416.901 813.449C413.832 813.554 410.746 813.645 407.645 813.72L407.634 813.221C404.563 813.295 401.477 813.356 398.376 813.4L398.382 813.898C395.316 813.943 392.237 813.972 389.144 813.987L389.143 813.489C387.598 813.497 386.051 813.5 384.5 813.5C382.949 813.5 381.402 813.497 379.857 813.489L379.855 813.987C376.762 813.972 373.683 813.943 370.617 813.898L370.624 813.4C367.523 813.356 364.437 813.295 361.366 813.221L361.354 813.72C358.253 813.645 355.167 813.554 352.098 813.449L352.114 812.951C349.019 812.845 345.941 812.724 342.882 812.589L342.859 813.088C339.763 812.951 336.686 812.799 333.628 812.632L333.655 812.134C330.552 811.965 327.468 811.78 324.406 811.581L324.374 812.079C321.274 811.877 318.195 811.66 315.14 811.428L315.178 810.931C312.085 810.696 309.015 810.446 305.971 810.181L305.927 810.678C302.835 810.408 299.768 810.123 296.729 809.823L296.777 809.327C293.677 809.021 290.604 808.699 287.561 808.362L287.506 808.858C284.409 808.515 281.342 808.156 278.307 807.781L278.367 807.286C275.278 806.905 272.221 806.508 269.199 806.095L269.131 806.588C266.045 806.166 262.994 805.729 259.981 805.274L260.056 804.781C256.977 804.317 253.938 803.837 250.939 803.34L250.857 803.832C247.775 803.321 244.735 802.793 241.74 802.248L241.83 801.758C238.751 801.198 235.719 800.62 232.736 800.025L232.639 800.514C229.564 799.901 226.541 799.271 223.573 798.622L223.68 798.135C220.616 797.465 217.611 796.777 214.666 796.07L214.55 796.555C211.492 795.821 208.499 795.069 205.574 794.297L205.702 793.814C202.66 793.012 199.692 792.19 196.8 791.348L196.66 791.826C193.63 790.943 190.683 790.039 187.823 789.114L187.977 788.641C184.973 787.669 182.065 786.675 179.259 785.66L179.089 786.13C176.085 785.043 173.196 783.931 170.426 782.797L170.615 782.336C167.653 781.123 164.829 779.883 162.149 778.619L161.936 779.07C159.031 777.7 156.295 776.3 153.732 774.873L153.975 774.439C151.13 772.856 148.504 771.239 146.106 769.594L145.823 770.006C143.109 768.143 140.685 766.24 138.562 764.302L138.899 763.934C136.456 761.703 134.427 759.431 132.829 757.126L132.418 757.41C130.528 754.685 129.226 751.904 128.548 749.076L129.033 748.961C128.679 747.485 128.5 745.998 128.5 744.5C128.5 743.002 128.679 741.515 129.033 740.039L128.548 739.923C129.226 737.095 130.528 734.314 132.418 731.589L132.829 731.873C134.427 729.568 136.457 727.297 138.9 725.066L138.562 724.697C140.685 722.76 143.109 720.856 145.823 718.993L145.824 718.994L146.107 719.406C148.504 717.761 151.13 716.144 153.975 714.561L153.732 714.126C156.295 712.699 159.031 711.299 161.936 709.929L162.149 710.381C164.829 709.117 167.653 707.877 170.615 706.664L170.426 706.202C173.196 705.068 176.085 703.956 179.089 702.869L179.259 703.34C182.065 702.325 184.973 701.331 187.977 700.359L187.823 699.885C190.683 698.96 193.63 698.056 196.66 697.173L196.8 697.652C199.692 696.81 202.66 695.988 205.702 695.186L205.574 694.702C208.499 693.93 211.492 693.178 214.55 692.444L214.666 692.93C217.611 692.223 220.616 691.535 223.68 690.865L223.573 690.377C226.541 689.728 229.564 689.098 232.639 688.485L232.736 688.975C235.719 688.38 238.751 687.802 241.83 687.242L241.74 686.751C244.735 686.206 247.775 685.678 250.857 685.167L250.939 685.66C253.938 685.163 256.977 684.683 260.056 684.219L259.981 683.725C262.994 683.27 266.045 682.833 269.131 682.411L269.198 682.905C272.221 682.492 275.278 682.095 278.367 681.714L278.307 681.218C281.342 680.843 284.409 680.484 287.506 680.141L287.561 680.638C290.604 680.301 293.677 679.979 296.777 679.673L296.729 679.176C299.768 678.876 302.835 678.591 305.927 678.321L305.971 678.819C309.015 678.554 312.085 678.304 315.178 678.069L315.14 677.571C318.195 677.339 321.274 677.122 324.374 676.92L324.406 677.419C327.468 677.22 330.552 677.035 333.655 676.866L333.628 676.367C336.686 676.2 339.763 676.048 342.859 675.911L342.881 676.411C345.941 676.276 349.019 676.155 352.114 676.049L352.098 675.55C355.167 675.445 358.253 675.354 361.354 675.279L361.366 675.779C364.437 675.705 367.523 675.644 370.624 675.6L370.617 675.101C373.683 675.056 376.762 675.027 379.855 675.012L379.857 675.511C381.402 675.503 382.949 675.5 384.5 675.5C386.051 675.5 387.598 675.503 389.143 675.511L389.144 675.012Z" stroke="#FF0000" stroke-dasharray="9 9"/>
</svg>
