<svg width="766" height="938" viewBox="0 0 766 938" fill="none" xmlns="http://www.w3.org/2000/svg">
<path d="M295.764 200.78V199.62H298.024C298.464 199.62 298.851 199.547 299.184 199.4C299.518 199.253 299.778 199.047 299.964 198.78C300.151 198.5 300.244 198.167 300.244 197.78C300.244 197.193 300.038 196.74 299.624 196.42C299.211 196.1 298.678 195.94 298.024 195.94H296.324V206.06H298.284C298.818 206.06 299.291 205.973 299.704 205.8C300.118 205.627 300.444 205.367 300.684 205.02C300.924 204.673 301.044 204.24 301.044 203.72C301.044 203.347 300.971 203.02 300.824 202.74C300.691 202.447 300.498 202.207 300.244 202.02C300.004 201.82 299.718 201.68 299.384 201.6C299.051 201.507 298.684 201.46 298.284 201.46H295.764V200.16H298.424C299.104 200.16 299.744 200.233 300.344 200.38C300.944 200.527 301.478 200.753 301.944 201.06C302.424 201.367 302.798 201.76 303.064 202.24C303.331 202.72 303.464 203.293 303.464 203.96C303.464 204.88 303.244 205.64 302.804 206.24C302.378 206.84 301.784 207.287 301.024 207.58C300.278 207.86 299.411 208 298.424 208H293.964V194H298.184C299.064 194 299.838 194.127 300.504 194.38C301.184 194.633 301.711 195.02 302.084 195.54C302.471 196.06 302.664 196.72 302.664 197.52C302.664 198.213 302.471 198.807 302.084 199.3C301.711 199.78 301.184 200.147 300.504 200.4C299.838 200.653 299.064 200.78 298.184 200.78H295.764ZM307.216 203.4C307.216 203.987 307.343 204.5 307.596 204.94C307.85 205.367 308.19 205.707 308.616 205.96C309.056 206.213 309.543 206.34 310.076 206.34C310.516 206.34 310.936 206.273 311.336 206.14C311.736 206.007 312.09 205.82 312.396 205.58C312.703 205.34 312.93 205.073 313.076 204.78V207.16C312.756 207.48 312.323 207.733 311.776 207.92C311.23 208.107 310.63 208.2 309.976 208.2C309.03 208.2 308.176 208 307.416 207.6C306.67 207.187 306.076 206.62 305.636 205.9C305.21 205.167 304.996 204.333 304.996 203.4C304.996 202.453 305.21 201.62 305.636 200.9C306.076 200.18 306.67 199.62 307.416 199.22C308.176 198.807 309.03 198.6 309.976 198.6C310.63 198.6 311.23 198.693 311.776 198.88C312.323 199.067 312.756 199.32 313.076 199.64V202.02C312.93 201.713 312.696 201.447 312.376 201.22C312.07 200.98 311.716 200.793 311.316 200.66C310.916 200.527 310.503 200.46 310.076 200.46C309.543 200.46 309.056 200.587 308.616 200.84C308.19 201.093 307.85 201.44 307.596 201.88C307.343 202.32 307.216 202.827 307.216 203.4ZM314.184 198.8H320.004V200.7H314.184V198.8ZM316.044 199.2H318.164V208H316.044V199.2ZM323.58 212.4H321.4V198.8H323.58V212.4ZM331.2 203.4C331.2 204.413 330.993 205.287 330.58 206.02C330.166 206.74 329.62 207.293 328.94 207.68C328.26 208.053 327.52 208.24 326.72 208.24C325.933 208.24 325.246 208.047 324.66 207.66C324.086 207.26 323.64 206.7 323.32 205.98C323.013 205.247 322.86 204.387 322.86 203.4C322.86 202.4 323.013 201.54 323.32 200.82C323.64 200.1 324.086 199.547 324.66 199.16C325.246 198.76 325.933 198.56 326.72 198.56C327.52 198.56 328.26 198.753 328.94 199.14C329.62 199.513 330.166 200.06 330.58 200.78C330.993 201.5 331.2 202.373 331.2 203.4ZM328.96 203.4C328.96 202.787 328.833 202.267 328.58 201.84C328.326 201.4 327.986 201.073 327.56 200.86C327.146 200.633 326.686 200.52 326.18 200.52C325.766 200.52 325.36 200.633 324.96 200.86C324.56 201.073 324.226 201.393 323.96 201.82C323.706 202.247 323.58 202.773 323.58 203.4C323.58 204.027 323.706 204.553 323.96 204.98C324.226 205.407 324.56 205.733 324.96 205.96C325.36 206.173 325.766 206.28 326.18 206.28C326.686 206.28 327.146 206.173 327.56 205.96C327.986 205.733 328.326 205.407 328.58 204.98C328.833 204.54 328.96 204.013 328.96 203.4ZM333.837 203.9V202.42H339.617C339.564 201.98 339.444 201.6 339.257 201.28C339.084 200.947 338.837 200.693 338.517 200.52C338.197 200.333 337.804 200.24 337.337 200.24C336.857 200.24 336.424 200.347 336.037 200.56C335.65 200.76 335.344 201.06 335.117 201.46C334.89 201.847 334.777 202.307 334.777 202.84L334.737 203.4C334.737 204.08 334.844 204.647 335.057 205.1C335.284 205.54 335.59 205.873 335.977 206.1C336.377 206.313 336.837 206.42 337.357 206.42C337.784 206.42 338.157 206.36 338.477 206.24C338.81 206.12 339.104 205.953 339.357 205.74C339.61 205.513 339.824 205.253 339.997 204.96L341.857 205.72C341.55 206.213 341.197 206.647 340.797 207.02C340.41 207.393 339.93 207.687 339.357 207.9C338.797 208.1 338.097 208.2 337.257 208.2C336.31 208.2 335.484 207.993 334.777 207.58C334.07 207.167 333.524 206.6 333.137 205.88C332.75 205.147 332.557 204.32 332.557 203.4C332.557 203.227 332.564 203.06 332.577 202.9C332.59 202.74 332.61 202.58 332.637 202.42C332.77 201.66 333.037 200.993 333.437 200.42C333.85 199.847 334.39 199.4 335.057 199.08C335.724 198.76 336.49 198.6 337.357 198.6C338.304 198.6 339.117 198.793 339.797 199.18C340.49 199.553 341.024 200.093 341.397 200.8C341.77 201.493 341.957 202.327 341.957 203.3C341.957 203.38 341.957 203.473 341.957 203.58C341.957 203.673 341.944 203.78 341.917 203.9H333.837ZM347.258 205.4L347.598 203.5H350.398V205.4H347.258ZM349.258 198.8H351.438V208H349.258V198.8ZM345.838 198.8V201.54C345.838 202.007 345.892 202.387 345.998 202.68C346.105 202.96 346.285 203.167 346.538 203.3C346.805 203.433 347.158 203.5 347.598 203.5L347.258 205.4C346.338 205.4 345.612 205.26 345.078 204.98C344.558 204.687 344.192 204.247 343.978 203.66C343.765 203.073 343.658 202.333 343.658 201.44V198.8H345.838ZM355.594 205.28C355.594 205.56 355.667 205.793 355.814 205.98C355.974 206.167 356.18 206.313 356.434 206.42C356.687 206.513 356.974 206.56 357.294 206.56C357.76 206.56 358.18 206.487 358.554 206.34C358.927 206.193 359.22 205.96 359.434 205.64C359.647 205.32 359.754 204.893 359.754 204.36L360.074 205.4C360.074 205.987 359.92 206.493 359.614 206.92C359.307 207.333 358.894 207.653 358.374 207.88C357.854 208.093 357.274 208.2 356.634 208.2C356.034 208.2 355.487 208.093 354.994 207.88C354.514 207.667 354.127 207.353 353.834 206.94C353.554 206.513 353.414 205.987 353.414 205.36C353.414 204.733 353.574 204.193 353.894 203.74C354.214 203.287 354.667 202.94 355.254 202.7C355.854 202.46 356.554 202.34 357.354 202.34C357.887 202.34 358.36 202.407 358.774 202.54C359.2 202.673 359.554 202.827 359.834 203C360.114 203.173 360.307 203.327 360.414 203.46V204.6C360 204.293 359.58 204.073 359.154 203.94C358.727 203.793 358.234 203.72 357.674 203.72C357.22 203.72 356.834 203.787 356.514 203.92C356.207 204.04 355.974 204.22 355.814 204.46C355.667 204.687 355.594 204.96 355.594 205.28ZM355.114 201.22L354.254 199.68C354.667 199.427 355.194 199.18 355.834 198.94C356.474 198.7 357.207 198.58 358.034 198.58C358.794 198.58 359.46 198.693 360.034 198.92C360.607 199.147 361.054 199.473 361.374 199.9C361.707 200.313 361.874 200.827 361.874 201.44V208H359.754V201.68C359.754 201.253 359.574 200.927 359.214 200.7C358.867 200.46 358.44 200.34 357.934 200.34C357.494 200.34 357.087 200.393 356.714 200.5C356.34 200.607 356.014 200.733 355.734 200.88C355.467 201.013 355.26 201.127 355.114 201.22ZM371.845 203.4C371.845 203.987 371.972 204.5 372.225 204.94C372.479 205.367 372.819 205.707 373.245 205.96C373.685 206.213 374.172 206.34 374.705 206.34C375.145 206.34 375.565 206.273 375.965 206.14C376.365 206.007 376.719 205.82 377.025 205.58C377.332 205.34 377.559 205.073 377.705 204.78V207.16C377.385 207.48 376.952 207.733 376.405 207.92C375.859 208.107 375.259 208.2 374.605 208.2C373.659 208.2 372.805 208 372.045 207.6C371.299 207.187 370.705 206.62 370.265 205.9C369.839 205.167 369.625 204.333 369.625 203.4C369.625 202.453 369.839 201.62 370.265 200.9C370.705 200.18 371.299 199.62 372.045 199.22C372.805 198.807 373.659 198.6 374.605 198.6C375.259 198.6 375.859 198.693 376.405 198.88C376.952 199.067 377.385 199.32 377.705 199.64V202.02C377.559 201.713 377.325 201.447 377.005 201.22C376.699 200.98 376.345 200.793 375.945 200.66C375.545 200.527 375.132 200.46 374.705 200.46C374.172 200.46 373.685 200.587 373.245 200.84C372.819 201.093 372.479 201.44 372.225 201.88C371.972 202.32 371.845 202.827 371.845 203.4ZM386.009 198.8H388.129V208H386.009V198.8ZM391.509 198.8H394.149L390.189 202.6L394.549 208H391.929L387.529 202.6L391.509 198.8ZM404.691 198.8V208H402.571V200.8H398.391V204.8C398.391 205.52 398.271 206.12 398.031 206.6C397.791 207.067 397.405 207.42 396.871 207.66C396.351 207.887 395.665 208 394.811 208V206.04C395.211 206.04 395.551 205.933 395.831 205.72C396.125 205.507 396.271 205.1 396.271 204.5V198.8H404.691ZM416.011 200.8L407.751 208.7L407.851 206L416.111 198.1L416.011 200.8ZM409.871 198.8V206.26L407.751 208.7V198.8H409.871ZM416.111 198.1V208H413.991V200.54L416.111 198.1ZM419.54 203.9V202.42H425.32C425.267 201.98 425.147 201.6 424.96 201.28C424.787 200.947 424.54 200.693 424.22 200.52C423.9 200.333 423.507 200.24 423.04 200.24C422.56 200.24 422.127 200.347 421.74 200.56C421.353 200.76 421.047 201.06 420.82 201.46C420.593 201.847 420.48 202.307 420.48 202.84L420.44 203.4C420.44 204.08 420.547 204.647 420.76 205.1C420.987 205.54 421.293 205.873 421.68 206.1C422.08 206.313 422.54 206.42 423.06 206.42C423.487 206.42 423.86 206.36 424.18 206.24C424.513 206.12 424.807 205.953 425.06 205.74C425.313 205.513 425.527 205.253 425.7 204.96L427.56 205.72C427.253 206.213 426.9 206.647 426.5 207.02C426.113 207.393 425.633 207.687 425.06 207.9C424.5 208.1 423.8 208.2 422.96 208.2C422.013 208.2 421.187 207.993 420.48 207.58C419.773 207.167 419.227 206.6 418.84 205.88C418.453 205.147 418.26 204.32 418.26 203.4C418.26 203.227 418.267 203.06 418.28 202.9C418.293 202.74 418.313 202.58 418.34 202.42C418.473 201.66 418.74 200.993 419.14 200.42C419.553 199.847 420.093 199.4 420.76 199.08C421.427 198.76 422.193 198.6 423.06 198.6C424.007 198.6 424.82 198.793 425.5 199.18C426.193 199.553 426.727 200.093 427.1 200.8C427.473 201.493 427.66 202.327 427.66 203.3C427.66 203.38 427.66 203.473 427.66 203.58C427.66 203.673 427.647 203.78 427.62 203.9H419.54ZM430.681 204.04V202.26H437.721V204.04H430.681ZM436.561 198.8H438.681V208H436.561V198.8ZM429.741 198.8H431.861V208H429.741V198.8ZM440.161 198.8H445.981V200.7H440.161V198.8ZM442.021 199.2H444.141V208H442.021V199.2ZM446.463 203.4C446.463 202.453 446.677 201.62 447.103 200.9C447.543 200.18 448.137 199.62 448.883 199.22C449.63 198.807 450.477 198.6 451.423 198.6C452.37 198.6 453.21 198.807 453.943 199.22C454.69 199.62 455.283 200.18 455.723 200.9C456.163 201.62 456.383 202.453 456.383 203.4C456.383 204.333 456.163 205.167 455.723 205.9C455.283 206.62 454.69 207.187 453.943 207.6C453.21 208 452.37 208.2 451.423 208.2C450.477 208.2 449.63 208 448.883 207.6C448.137 207.187 447.543 206.62 447.103 205.9C446.677 205.167 446.463 204.333 446.463 203.4ZM448.683 203.4C448.683 203.973 448.803 204.48 449.043 204.92C449.283 205.347 449.61 205.687 450.023 205.94C450.437 206.18 450.903 206.3 451.423 206.3C451.93 206.3 452.39 206.18 452.803 205.94C453.23 205.687 453.563 205.347 453.803 204.92C454.043 204.48 454.163 203.973 454.163 203.4C454.163 202.827 454.043 202.32 453.803 201.88C453.563 201.44 453.23 201.1 452.803 200.86C452.39 200.62 451.93 200.5 451.423 200.5C450.903 200.5 450.437 200.62 450.023 200.86C449.61 201.1 449.283 201.44 449.043 201.88C448.803 202.32 448.683 202.827 448.683 203.4ZM467.193 208L465.793 201.1L466.933 198.1L469.493 208H467.193ZM462.693 206.12L466.933 198.1L467.133 201.64L463.293 208.62L462.693 206.12ZM463.293 208.62L459.493 201.64L459.693 198.1L463.893 206.12L463.293 208.62ZM457.153 208L459.693 198.1L460.853 201.1L459.453 208H457.153Z" fill="white"/>
<path d="M285.469 333.78V332.62H287.729C288.169 332.62 288.556 332.547 288.889 332.4C289.223 332.253 289.483 332.047 289.669 331.78C289.856 331.5 289.949 331.167 289.949 330.78C289.949 330.193 289.743 329.74 289.329 329.42C288.916 329.1 288.383 328.94 287.729 328.94H286.029V339.06H287.989C288.523 339.06 288.996 338.973 289.409 338.8C289.823 338.627 290.149 338.367 290.389 338.02C290.629 337.673 290.749 337.24 290.749 336.72C290.749 336.347 290.676 336.02 290.529 335.74C290.396 335.447 290.203 335.207 289.949 335.02C289.709 334.82 289.423 334.68 289.089 334.6C288.756 334.507 288.389 334.46 287.989 334.46H285.469V333.16H288.129C288.809 333.16 289.449 333.233 290.049 333.38C290.649 333.527 291.183 333.753 291.649 334.06C292.129 334.367 292.503 334.76 292.769 335.24C293.036 335.72 293.169 336.293 293.169 336.96C293.169 337.88 292.949 338.64 292.509 339.24C292.083 339.84 291.489 340.287 290.729 340.58C289.983 340.86 289.116 341 288.129 341H283.669V327H287.889C288.769 327 289.543 327.127 290.209 327.38C290.889 327.633 291.416 328.02 291.789 328.54C292.176 329.06 292.369 329.72 292.369 330.52C292.369 331.213 292.176 331.807 291.789 332.3C291.416 332.78 290.889 333.147 290.209 333.4C289.543 333.653 288.769 333.78 287.889 333.78H285.469ZM303.822 333.8L295.562 341.7L295.662 339L303.922 331.1L303.822 333.8ZM297.682 331.8V339.26L295.562 341.7V331.8H297.682ZM303.922 331.1V341H301.802V333.54L303.922 331.1ZM310.431 336.4V335.44C310.964 335.44 311.344 335.34 311.571 335.14C311.811 334.927 311.931 334.667 311.931 334.36C311.931 334.053 311.811 333.807 311.571 333.62C311.344 333.433 311.031 333.34 310.631 333.34C310.297 333.34 310.017 333.407 309.791 333.54C309.564 333.66 309.391 333.82 309.271 334.02C309.164 334.207 309.111 334.407 309.111 334.62H307.031C307.031 334.047 307.184 333.533 307.491 333.08C307.797 332.627 308.217 332.267 308.751 332C309.297 331.733 309.917 331.6 310.611 331.6C311.264 331.6 311.851 331.713 312.371 331.94C312.891 332.167 313.297 332.473 313.591 332.86C313.884 333.247 314.031 333.673 314.031 334.14C314.031 334.807 313.724 335.36 313.111 335.8C312.497 336.227 311.604 336.427 310.431 336.4ZM310.571 341.2C309.397 341.2 308.464 340.907 307.771 340.32C307.091 339.72 306.697 338.947 306.591 338H308.711C308.804 338.427 308.991 338.787 309.271 339.08C309.564 339.36 309.997 339.5 310.571 339.5C310.944 339.5 311.264 339.447 311.531 339.34C311.797 339.233 311.997 339.087 312.131 338.9C312.277 338.7 312.351 338.467 312.351 338.2C312.351 337.92 312.277 337.68 312.131 337.48C311.984 337.28 311.764 337.127 311.471 337.02C311.191 336.913 310.844 336.86 310.431 336.86V335.8C311.671 335.773 312.644 335.973 313.351 336.4C314.071 336.813 314.431 337.447 314.431 338.3C314.431 338.9 314.257 339.42 313.911 339.86C313.577 340.287 313.117 340.62 312.531 340.86C311.944 341.087 311.291 341.2 310.571 341.2ZM324.754 331.8L318.754 345.4H316.454L318.854 339.92L315.154 331.8H317.634L320.574 339.08L319.554 339.02L322.434 331.8H324.754ZM327.408 338.28C327.408 338.56 327.481 338.793 327.628 338.98C327.788 339.167 327.995 339.313 328.248 339.42C328.501 339.513 328.788 339.56 329.108 339.56C329.575 339.56 329.995 339.487 330.368 339.34C330.741 339.193 331.035 338.96 331.248 338.64C331.461 338.32 331.568 337.893 331.568 337.36L331.888 338.4C331.888 338.987 331.735 339.493 331.428 339.92C331.121 340.333 330.708 340.653 330.188 340.88C329.668 341.093 329.088 341.2 328.448 341.2C327.848 341.2 327.301 341.093 326.808 340.88C326.328 340.667 325.941 340.353 325.648 339.94C325.368 339.513 325.228 338.987 325.228 338.36C325.228 337.733 325.388 337.193 325.708 336.74C326.028 336.287 326.481 335.94 327.068 335.7C327.668 335.46 328.368 335.34 329.168 335.34C329.701 335.34 330.175 335.407 330.588 335.54C331.015 335.673 331.368 335.827 331.648 336C331.928 336.173 332.121 336.327 332.228 336.46V337.6C331.815 337.293 331.395 337.073 330.968 336.94C330.541 336.793 330.048 336.72 329.488 336.72C329.035 336.72 328.648 336.787 328.328 336.92C328.021 337.04 327.788 337.22 327.628 337.46C327.481 337.687 327.408 337.96 327.408 338.28ZM326.928 334.22L326.068 332.68C326.481 332.427 327.008 332.18 327.648 331.94C328.288 331.7 329.021 331.58 329.848 331.58C330.608 331.58 331.275 331.693 331.848 331.92C332.421 332.147 332.868 332.473 333.188 332.9C333.521 333.313 333.688 333.827 333.688 334.44V341H331.568V334.68C331.568 334.253 331.388 333.927 331.028 333.7C330.681 333.46 330.255 333.34 329.748 333.34C329.308 333.34 328.901 333.393 328.528 333.5C328.155 333.607 327.828 333.733 327.548 333.88C327.281 334.013 327.075 334.127 326.928 334.22ZM344.924 331.8V341H342.804V333.8H338.624V337.8C338.624 338.52 338.504 339.12 338.264 339.6C338.024 340.067 337.637 340.42 337.104 340.66C336.584 340.887 335.897 341 335.044 341V339.04C335.444 339.04 335.784 338.933 336.064 338.72C336.357 338.507 336.504 338.1 336.504 337.5V331.8H344.924ZM347.943 331.8H350.123V341H347.943V331.8ZM349.463 336.76V335.14H352.323C353.27 335.14 354.063 335.373 354.703 335.84C355.357 336.293 355.683 337.013 355.683 338C355.683 338.653 355.537 339.207 355.243 339.66C354.95 340.1 354.55 340.433 354.043 340.66C353.537 340.887 352.963 341 352.323 341H349.463V339.22H352.103C352.423 339.22 352.69 339.173 352.903 339.08C353.13 338.987 353.297 338.847 353.403 338.66C353.523 338.473 353.583 338.253 353.583 338C353.583 337.6 353.457 337.293 353.203 337.08C352.963 336.867 352.597 336.76 352.103 336.76H349.463ZM359 337.04V335.26H366.04V337.04H359ZM364.88 331.8H367V341H364.88V331.8ZM358.06 331.8H360.18V341H358.06V331.8ZM371.119 338.28C371.119 338.56 371.192 338.793 371.339 338.98C371.499 339.167 371.706 339.313 371.959 339.42C372.212 339.513 372.499 339.56 372.819 339.56C373.286 339.56 373.706 339.487 374.079 339.34C374.452 339.193 374.746 338.96 374.959 338.64C375.172 338.32 375.279 337.893 375.279 337.36L375.599 338.4C375.599 338.987 375.446 339.493 375.139 339.92C374.832 340.333 374.419 340.653 373.899 340.88C373.379 341.093 372.799 341.2 372.159 341.2C371.559 341.2 371.012 341.093 370.519 340.88C370.039 340.667 369.652 340.353 369.359 339.94C369.079 339.513 368.939 338.987 368.939 338.36C368.939 337.733 369.099 337.193 369.419 336.74C369.739 336.287 370.192 335.94 370.779 335.7C371.379 335.46 372.079 335.34 372.879 335.34C373.412 335.34 373.886 335.407 374.299 335.54C374.726 335.673 375.079 335.827 375.359 336C375.639 336.173 375.832 336.327 375.939 336.46V337.6C375.526 337.293 375.106 337.073 374.679 336.94C374.252 336.793 373.759 336.72 373.199 336.72C372.746 336.72 372.359 336.787 372.039 336.92C371.732 337.04 371.499 337.22 371.339 337.46C371.192 337.687 371.119 337.96 371.119 338.28ZM370.639 334.22L369.779 332.68C370.192 332.427 370.719 332.18 371.359 331.94C371.999 331.7 372.732 331.58 373.559 331.58C374.319 331.58 374.986 331.693 375.559 331.92C376.132 332.147 376.579 332.473 376.899 332.9C377.232 333.313 377.399 333.827 377.399 334.44V341H375.279V334.68C375.279 334.253 375.099 333.927 374.739 333.7C374.392 333.46 373.966 333.34 373.459 333.34C373.019 333.34 372.612 333.393 372.239 333.5C371.866 333.607 371.539 333.733 371.259 333.88C370.992 334.013 370.786 334.127 370.639 334.22ZM381.815 341H379.515L382.675 336.44H384.875L381.815 341ZM387.795 341H385.615V331.8H387.795V341ZM386.415 335.82V337.46H383.555C382.928 337.46 382.348 337.367 381.815 337.18C381.281 336.98 380.855 336.673 380.535 336.26C380.215 335.833 380.055 335.28 380.055 334.6C380.055 333.92 380.215 333.38 380.535 332.98C380.855 332.567 381.281 332.267 381.815 332.08C382.348 331.893 382.928 331.8 383.555 331.8H386.415V333.6H383.735C383.401 333.6 383.121 333.64 382.895 333.72C382.668 333.8 382.495 333.92 382.375 334.08C382.255 334.24 382.195 334.447 382.195 334.7C382.195 334.967 382.255 335.18 382.375 335.34C382.495 335.5 382.668 335.62 382.895 335.7C383.121 335.78 383.401 335.82 383.735 335.82H386.415ZM396.007 331.8H398.127V341H396.007V331.8ZM401.507 331.8H404.147L400.187 335.6L404.547 341H401.927L397.527 335.6L401.507 331.8ZM404.996 336.4C404.996 335.453 405.21 334.62 405.636 333.9C406.076 333.18 406.67 332.62 407.416 332.22C408.163 331.807 409.01 331.6 409.956 331.6C410.903 331.6 411.743 331.807 412.476 332.22C413.223 332.62 413.816 333.18 414.256 333.9C414.696 334.62 414.916 335.453 414.916 336.4C414.916 337.333 414.696 338.167 414.256 338.9C413.816 339.62 413.223 340.187 412.476 340.6C411.743 341 410.903 341.2 409.956 341.2C409.01 341.2 408.163 341 407.416 340.6C406.67 340.187 406.076 339.62 405.636 338.9C405.21 338.167 404.996 337.333 404.996 336.4ZM407.216 336.4C407.216 336.973 407.336 337.48 407.576 337.92C407.816 338.347 408.143 338.687 408.556 338.94C408.97 339.18 409.436 339.3 409.956 339.3C410.463 339.3 410.923 339.18 411.336 338.94C411.763 338.687 412.096 338.347 412.336 337.92C412.576 337.48 412.696 336.973 412.696 336.4C412.696 335.827 412.576 335.32 412.336 334.88C412.096 334.44 411.763 334.1 411.336 333.86C410.923 333.62 410.463 333.5 409.956 333.5C409.436 333.5 408.97 333.62 408.556 333.86C408.143 334.1 407.816 334.44 407.576 334.88C407.336 335.32 407.216 335.827 407.216 336.4ZM417.906 337.04V335.26H424.946V337.04H417.906ZM423.786 331.8H425.906V341H423.786V331.8ZM416.966 331.8H419.086V341H416.966V331.8ZM436.865 339.1H438.465V342.9H436.485V341H428.665V331.8H430.825V339.1H434.685V331.8H436.865V339.1ZM440.983 336.9V335.42H446.763C446.71 334.98 446.59 334.6 446.403 334.28C446.23 333.947 445.983 333.693 445.663 333.52C445.343 333.333 444.95 333.24 444.483 333.24C444.003 333.24 443.57 333.347 443.183 333.56C442.797 333.76 442.49 334.06 442.263 334.46C442.037 334.847 441.923 335.307 441.923 335.84L441.883 336.4C441.883 337.08 441.99 337.647 442.203 338.1C442.43 338.54 442.737 338.873 443.123 339.1C443.523 339.313 443.983 339.42 444.503 339.42C444.93 339.42 445.303 339.36 445.623 339.24C445.957 339.12 446.25 338.953 446.503 338.74C446.757 338.513 446.97 338.253 447.143 337.96L449.003 338.72C448.697 339.213 448.343 339.647 447.943 340.02C447.557 340.393 447.077 340.687 446.503 340.9C445.943 341.1 445.243 341.2 444.403 341.2C443.457 341.2 442.63 340.993 441.923 340.58C441.217 340.167 440.67 339.6 440.283 338.88C439.897 338.147 439.703 337.32 439.703 336.4C439.703 336.227 439.71 336.06 439.723 335.9C439.737 335.74 439.757 335.58 439.783 335.42C439.917 334.66 440.183 333.993 440.583 333.42C440.997 332.847 441.537 332.4 442.203 332.08C442.87 331.76 443.637 331.6 444.503 331.6C445.45 331.6 446.263 331.793 446.943 332.18C447.637 332.553 448.17 333.093 448.543 333.8C448.917 334.493 449.103 335.327 449.103 336.3C449.103 336.38 449.103 336.473 449.103 336.58C449.103 336.673 449.09 336.78 449.063 336.9H440.983ZM459.325 331.8V341H457.205V333.74H453.305V341H451.185V331.8H459.325ZM470.283 339.1H471.883V342.9H469.903V341H462.083V331.8H464.243V339.1H468.103V331.8H470.283V339.1ZM482.161 333.8L473.901 341.7L474.001 339L482.261 331.1L482.161 333.8ZM476.021 331.8V339.26L473.901 341.7V331.8H476.021ZM482.261 331.1V341H480.141V333.54L482.261 331.1ZM486.99 341H484.69L487.85 336.44H490.05L486.99 341ZM492.97 341H490.79V331.8H492.97V341ZM491.59 335.82V337.46H488.73C488.104 337.46 487.524 337.367 486.99 337.18C486.457 336.98 486.03 336.673 485.71 336.26C485.39 335.833 485.23 335.28 485.23 334.6C485.23 333.92 485.39 333.38 485.71 332.98C486.03 332.567 486.457 332.267 486.99 332.08C487.524 331.893 488.104 331.8 488.73 331.8H491.59V333.6H488.91C488.577 333.6 488.297 333.64 488.07 333.72C487.844 333.8 487.67 333.92 487.55 334.08C487.43 334.24 487.37 334.447 487.37 334.7C487.37 334.967 487.43 335.18 487.55 335.34C487.67 335.5 487.844 335.62 488.07 335.7C488.297 335.78 488.577 335.82 488.91 335.82H491.59Z" fill="white"/>
<path d="M353.74 467.06L350.24 476.4H347.6L353.76 462.3L359.9 476.4H357.26L353.74 467.06ZM358.96 477H348.54V479.2H346.3V474.88H361.2V479.2H358.96V477ZM371.822 469.8L363.562 477.7L363.662 475L371.922 467.1L371.822 469.8ZM365.682 467.8V475.26L363.562 477.7V467.8H365.682ZM371.922 467.1V477H369.802V469.54L371.922 467.1ZM378.431 472.4V471.44C378.964 471.44 379.344 471.34 379.571 471.14C379.811 470.927 379.931 470.667 379.931 470.36C379.931 470.053 379.811 469.807 379.571 469.62C379.344 469.433 379.031 469.34 378.631 469.34C378.297 469.34 378.017 469.407 377.791 469.54C377.564 469.66 377.391 469.82 377.271 470.02C377.164 470.207 377.111 470.407 377.111 470.62H375.031C375.031 470.047 375.184 469.533 375.491 469.08C375.797 468.627 376.217 468.267 376.751 468C377.297 467.733 377.917 467.6 378.611 467.6C379.264 467.6 379.851 467.713 380.371 467.94C380.891 468.167 381.297 468.473 381.591 468.86C381.884 469.247 382.031 469.673 382.031 470.14C382.031 470.807 381.724 471.36 381.111 471.8C380.497 472.227 379.604 472.427 378.431 472.4ZM378.571 477.2C377.397 477.2 376.464 476.907 375.771 476.32C375.091 475.72 374.697 474.947 374.591 474H376.711C376.804 474.427 376.991 474.787 377.271 475.08C377.564 475.36 377.997 475.5 378.571 475.5C378.944 475.5 379.264 475.447 379.531 475.34C379.797 475.233 379.997 475.087 380.131 474.9C380.277 474.7 380.351 474.467 380.351 474.2C380.351 473.92 380.277 473.68 380.131 473.48C379.984 473.28 379.764 473.127 379.471 473.02C379.191 472.913 378.844 472.86 378.431 472.86V471.8C379.671 471.773 380.644 471.973 381.351 472.4C382.071 472.813 382.431 473.447 382.431 474.3C382.431 474.9 382.257 475.42 381.911 475.86C381.577 476.287 381.117 476.62 380.531 476.86C379.944 477.087 379.291 477.2 378.571 477.2ZM386.072 474.28C386.072 474.56 386.145 474.793 386.292 474.98C386.452 475.167 386.659 475.313 386.912 475.42C387.165 475.513 387.452 475.56 387.772 475.56C388.239 475.56 388.659 475.487 389.032 475.34C389.405 475.193 389.699 474.96 389.912 474.64C390.125 474.32 390.232 473.893 390.232 473.36L390.552 474.4C390.552 474.987 390.399 475.493 390.092 475.92C389.785 476.333 389.372 476.653 388.852 476.88C388.332 477.093 387.752 477.2 387.112 477.2C386.512 477.2 385.965 477.093 385.472 476.88C384.992 476.667 384.605 476.353 384.312 475.94C384.032 475.513 383.892 474.987 383.892 474.36C383.892 473.733 384.052 473.193 384.372 472.74C384.692 472.287 385.145 471.94 385.732 471.7C386.332 471.46 387.032 471.34 387.832 471.34C388.365 471.34 388.839 471.407 389.252 471.54C389.679 471.673 390.032 471.827 390.312 472C390.592 472.173 390.785 472.327 390.892 472.46V473.6C390.479 473.293 390.059 473.073 389.632 472.94C389.205 472.793 388.712 472.72 388.152 472.72C387.699 472.72 387.312 472.787 386.992 472.92C386.685 473.04 386.452 473.22 386.292 473.46C386.145 473.687 386.072 473.96 386.072 474.28ZM385.592 470.22L384.732 468.68C385.145 468.427 385.672 468.18 386.312 467.94C386.952 467.7 387.685 467.58 388.512 467.58C389.272 467.58 389.939 467.693 390.512 467.92C391.085 468.147 391.532 468.473 391.852 468.9C392.185 469.313 392.352 469.827 392.352 470.44V477H390.232V470.68C390.232 470.253 390.052 469.927 389.692 469.7C389.345 469.46 388.919 469.34 388.412 469.34C387.972 469.34 387.565 469.393 387.192 469.5C386.819 469.607 386.492 469.733 386.212 469.88C385.945 470.013 385.739 470.127 385.592 470.22ZM403.228 469.8L394.968 477.7L395.068 475L403.328 467.1L403.228 469.8ZM397.088 467.8V475.26L394.968 477.7V467.8H397.088ZM403.328 467.1V477H401.208V469.54L403.328 467.1ZM396.028 463.1H397.668C397.668 463.3 397.714 463.507 397.808 463.72C397.914 463.933 398.081 464.113 398.308 464.26C398.534 464.407 398.841 464.48 399.228 464.48C399.614 464.48 399.921 464.407 400.148 464.26C400.374 464.113 400.534 463.933 400.628 463.72C400.734 463.507 400.788 463.3 400.788 463.1H402.448C402.448 463.58 402.321 464.04 402.068 464.48C401.828 464.92 401.468 465.273 400.988 465.54C400.521 465.807 399.934 465.94 399.228 465.94C398.534 465.94 397.948 465.807 397.468 465.54C396.988 465.273 396.628 464.92 396.388 464.48C396.148 464.04 396.028 463.58 396.028 463.1ZM407.117 473.04V471.26H414.157V473.04H407.117ZM412.997 467.8H415.117V477H412.997V467.8ZM406.177 467.8H408.297V477H406.177V467.8Z" fill="white"/>
<path d="M307.973 587.18H301.213V599H298.813V585H310.353V599H307.973V587.18ZM315.439 603.4H313.259V589.8H315.439V603.4ZM323.059 594.4C323.059 595.413 322.852 596.287 322.439 597.02C322.026 597.74 321.479 598.293 320.799 598.68C320.119 599.053 319.379 599.24 318.579 599.24C317.792 599.24 317.106 599.047 316.519 598.66C315.946 598.26 315.499 597.7 315.179 596.98C314.872 596.247 314.719 595.387 314.719 594.4C314.719 593.4 314.872 592.54 315.179 591.82C315.499 591.1 315.946 590.547 316.519 590.16C317.106 589.76 317.792 589.56 318.579 589.56C319.379 589.56 320.119 589.753 320.799 590.14C321.479 590.513 322.026 591.06 322.439 591.78C322.852 592.5 323.059 593.373 323.059 594.4ZM320.819 594.4C320.819 593.787 320.692 593.267 320.439 592.84C320.186 592.4 319.846 592.073 319.419 591.86C319.006 591.633 318.546 591.52 318.039 591.52C317.626 591.52 317.219 591.633 316.819 591.86C316.419 592.073 316.086 592.393 315.819 592.82C315.566 593.247 315.439 593.773 315.439 594.4C315.439 595.027 315.566 595.553 315.819 595.98C316.086 596.407 316.419 596.733 316.819 596.96C317.219 597.173 317.626 597.28 318.039 597.28C318.546 597.28 319.006 597.173 319.419 596.96C319.846 596.733 320.186 596.407 320.439 595.98C320.692 595.54 320.819 595.013 320.819 594.4ZM324.416 594.4C324.416 593.453 324.63 592.62 325.056 591.9C325.496 591.18 326.09 590.62 326.836 590.22C327.583 589.807 328.43 589.6 329.376 589.6C330.323 589.6 331.163 589.807 331.896 590.22C332.643 590.62 333.236 591.18 333.676 591.9C334.116 592.62 334.336 593.453 334.336 594.4C334.336 595.333 334.116 596.167 333.676 596.9C333.236 597.62 332.643 598.187 331.896 598.6C331.163 599 330.323 599.2 329.376 599.2C328.43 599.2 327.583 599 326.836 598.6C326.09 598.187 325.496 597.62 325.056 596.9C324.63 596.167 324.416 595.333 324.416 594.4ZM326.636 594.4C326.636 594.973 326.756 595.48 326.996 595.92C327.236 596.347 327.563 596.687 327.976 596.94C328.39 597.18 328.856 597.3 329.376 597.3C329.883 597.3 330.343 597.18 330.756 596.94C331.183 596.687 331.516 596.347 331.756 595.92C331.996 595.48 332.116 594.973 332.116 594.4C332.116 593.827 331.996 593.32 331.756 592.88C331.516 592.44 331.183 592.1 330.756 591.86C330.343 591.62 329.883 591.5 329.376 591.5C328.856 591.5 328.39 591.62 327.976 591.86C327.563 592.1 327.236 592.44 326.996 592.88C326.756 593.32 326.636 593.827 326.636 594.4ZM336.466 589.8H341.746V591.7H338.606V599H336.466V589.8ZM345.302 603.4H343.122V589.8H345.302V603.4ZM352.922 594.4C352.922 595.413 352.716 596.287 352.302 597.02C351.889 597.74 351.342 598.293 350.662 598.68C349.982 599.053 349.242 599.24 348.442 599.24C347.656 599.24 346.969 599.047 346.382 598.66C345.809 598.26 345.362 597.7 345.042 596.98C344.736 596.247 344.582 595.387 344.582 594.4C344.582 593.4 344.736 592.54 345.042 591.82C345.362 591.1 345.809 590.547 346.382 590.16C346.969 589.76 347.656 589.56 348.442 589.56C349.242 589.56 349.982 589.753 350.662 590.14C351.342 590.513 351.889 591.06 352.302 591.78C352.716 592.5 352.922 593.373 352.922 594.4ZM350.682 594.4C350.682 593.787 350.556 593.267 350.302 592.84C350.049 592.4 349.709 592.073 349.282 591.86C348.869 591.633 348.409 591.52 347.902 591.52C347.489 591.52 347.082 591.633 346.682 591.86C346.282 592.073 345.949 592.393 345.682 592.82C345.429 593.247 345.302 593.773 345.302 594.4C345.302 595.027 345.429 595.553 345.682 595.98C345.949 596.407 346.282 596.733 346.682 596.96C347.082 597.173 347.489 597.28 347.902 597.28C348.409 597.28 348.869 597.173 349.282 596.96C349.709 596.733 350.049 596.407 350.302 595.98C350.556 595.54 350.682 595.013 350.682 594.4ZM356.34 596.28C356.34 596.56 356.413 596.793 356.56 596.98C356.72 597.167 356.926 597.313 357.18 597.42C357.433 597.513 357.72 597.56 358.04 597.56C358.506 597.56 358.926 597.487 359.3 597.34C359.673 597.193 359.966 596.96 360.18 596.64C360.393 596.32 360.5 595.893 360.5 595.36L360.82 596.4C360.82 596.987 360.666 597.493 360.36 597.92C360.053 598.333 359.64 598.653 359.12 598.88C358.6 599.093 358.02 599.2 357.38 599.2C356.78 599.2 356.233 599.093 355.74 598.88C355.26 598.667 354.873 598.353 354.58 597.94C354.3 597.513 354.16 596.987 354.16 596.36C354.16 595.733 354.32 595.193 354.64 594.74C354.96 594.287 355.413 593.94 356 593.7C356.6 593.46 357.3 593.34 358.1 593.34C358.633 593.34 359.106 593.407 359.52 593.54C359.946 593.673 360.3 593.827 360.58 594C360.86 594.173 361.053 594.327 361.16 594.46V595.6C360.746 595.293 360.326 595.073 359.9 594.94C359.473 594.793 358.98 594.72 358.42 594.72C357.966 594.72 357.58 594.787 357.26 594.92C356.953 595.04 356.72 595.22 356.56 595.46C356.413 595.687 356.34 595.96 356.34 596.28ZM355.86 592.22L355 590.68C355.413 590.427 355.94 590.18 356.58 589.94C357.22 589.7 357.953 589.58 358.78 589.58C359.54 589.58 360.206 589.693 360.78 589.92C361.353 590.147 361.8 590.473 362.12 590.9C362.453 591.313 362.62 591.827 362.62 592.44V599H360.5V592.68C360.5 592.253 360.32 591.927 359.96 591.7C359.613 591.46 359.186 591.34 358.68 591.34C358.24 591.34 357.833 591.393 357.46 591.5C357.086 591.607 356.76 591.733 356.48 591.88C356.213 592.013 356.006 592.127 355.86 592.22ZM373.915 599L372.515 592.1L373.655 589.1L376.215 599H373.915ZM369.415 597.12L373.655 589.1L373.855 592.64L370.015 599.62L369.415 597.12ZM370.015 599.62L366.215 592.64L366.415 589.1L370.615 597.12L370.015 599.62ZM363.875 599L366.415 589.1L367.575 592.1L366.175 599H363.875ZM386.454 599L385.054 592.1L386.194 589.1L388.754 599H386.454ZM381.954 597.12L386.194 589.1L386.394 592.64L382.554 599.62L381.954 597.12ZM382.554 599.62L378.754 592.64L378.954 589.1L383.154 597.12L382.554 599.62ZM376.414 599L378.954 589.1L380.114 592.1L378.714 599H376.414ZM398.574 591.8L390.314 599.7L390.414 597L398.674 589.1L398.574 591.8ZM392.434 589.8V597.26L390.314 599.7V589.8H392.434ZM398.674 589.1V599H396.554V591.54L398.674 589.1ZM403.623 603.4H401.443V589.8H403.623V603.4ZM411.243 594.4C411.243 595.413 411.036 596.287 410.623 597.02C410.209 597.74 409.663 598.293 408.983 598.68C408.303 599.053 407.563 599.24 406.763 599.24C405.976 599.24 405.289 599.047 404.703 598.66C404.129 598.26 403.683 597.7 403.363 596.98C403.056 596.247 402.903 595.387 402.903 594.4C402.903 593.4 403.056 592.54 403.363 591.82C403.683 591.1 404.129 590.547 404.703 590.16C405.289 589.76 405.976 589.56 406.763 589.56C407.563 589.56 408.303 589.753 408.983 590.14C409.663 590.513 410.209 591.06 410.623 591.78C411.036 592.5 411.243 593.373 411.243 594.4ZM409.003 594.4C409.003 593.787 408.876 593.267 408.623 592.84C408.369 592.4 408.029 592.073 407.603 591.86C407.189 591.633 406.729 591.52 406.223 591.52C405.809 591.52 405.403 591.633 405.003 591.86C404.603 592.073 404.269 592.393 404.003 592.82C403.749 593.247 403.623 593.773 403.623 594.4C403.623 595.027 403.749 595.553 404.003 595.98C404.269 596.407 404.603 596.733 405.003 596.96C405.403 597.173 405.809 597.28 406.223 597.28C406.729 597.28 407.189 597.173 407.603 596.96C408.029 596.733 408.369 596.407 408.623 595.98C408.876 595.54 409.003 595.013 409.003 594.4ZM412.6 594.4C412.6 593.453 412.813 592.62 413.24 591.9C413.68 591.18 414.273 590.62 415.02 590.22C415.767 589.807 416.613 589.6 417.56 589.6C418.507 589.6 419.347 589.807 420.08 590.22C420.827 590.62 421.42 591.18 421.86 591.9C422.3 592.62 422.52 593.453 422.52 594.4C422.52 595.333 422.3 596.167 421.86 596.9C421.42 597.62 420.827 598.187 420.08 598.6C419.347 599 418.507 599.2 417.56 599.2C416.613 599.2 415.767 599 415.02 598.6C414.273 598.187 413.68 597.62 413.24 596.9C412.813 596.167 412.6 595.333 412.6 594.4ZM414.82 594.4C414.82 594.973 414.94 595.48 415.18 595.92C415.42 596.347 415.747 596.687 416.16 596.94C416.573 597.18 417.04 597.3 417.56 597.3C418.067 597.3 418.527 597.18 418.94 596.94C419.367 596.687 419.7 596.347 419.94 595.92C420.18 595.48 420.3 594.973 420.3 594.4C420.3 593.827 420.18 593.32 419.94 592.88C419.7 592.44 419.367 592.1 418.94 591.86C418.527 591.62 418.067 591.5 417.56 591.5C417.04 591.5 416.573 591.62 416.16 591.86C415.747 592.1 415.42 592.44 415.18 592.88C414.94 593.32 414.82 593.827 414.82 594.4ZM425.949 594.2H428.869C429.509 594.2 430.083 594.267 430.589 594.4C431.096 594.533 431.496 594.767 431.789 595.1C432.083 595.433 432.229 595.9 432.229 596.5C432.229 597.193 431.996 597.787 431.529 598.28C431.076 598.76 430.323 599 429.269 599H425.949V597.4H428.609C429.143 597.4 429.529 597.287 429.769 597.06C430.009 596.833 430.129 596.567 430.129 596.26C430.129 596.1 430.096 595.953 430.029 595.82C429.963 595.687 429.869 595.567 429.749 595.46C429.643 595.353 429.489 595.273 429.289 595.22C429.103 595.167 428.876 595.14 428.609 595.14H425.949V594.2ZM425.949 594.6V593.56H428.409C428.609 593.56 428.789 593.533 428.949 593.48C429.123 593.427 429.263 593.347 429.369 593.24C429.476 593.133 429.563 593.013 429.629 592.88C429.696 592.747 429.729 592.607 429.729 592.46C429.729 592.153 429.609 591.9 429.369 591.7C429.143 591.5 428.823 591.4 428.409 591.4H425.949V589.8H428.669C429.243 589.8 429.763 589.887 430.229 590.06C430.709 590.22 431.096 590.487 431.389 590.86C431.683 591.22 431.829 591.7 431.829 592.3C431.829 592.82 431.683 593.253 431.389 593.6C431.096 593.933 430.709 594.187 430.229 594.36C429.763 594.52 429.243 594.6 428.669 594.6H425.949ZM424.689 589.8H426.809V599H424.689V589.8ZM435.578 596.28C435.578 596.56 435.651 596.793 435.798 596.98C435.958 597.167 436.165 597.313 436.418 597.42C436.671 597.513 436.958 597.56 437.278 597.56C437.745 597.56 438.165 597.487 438.538 597.34C438.911 597.193 439.205 596.96 439.418 596.64C439.631 596.32 439.738 595.893 439.738 595.36L440.058 596.4C440.058 596.987 439.905 597.493 439.598 597.92C439.291 598.333 438.878 598.653 438.358 598.88C437.838 599.093 437.258 599.2 436.618 599.2C436.018 599.2 435.471 599.093 434.978 598.88C434.498 598.667 434.111 598.353 433.818 597.94C433.538 597.513 433.398 596.987 433.398 596.36C433.398 595.733 433.558 595.193 433.878 594.74C434.198 594.287 434.651 593.94 435.238 593.7C435.838 593.46 436.538 593.34 437.338 593.34C437.871 593.34 438.345 593.407 438.758 593.54C439.185 593.673 439.538 593.827 439.818 594C440.098 594.173 440.291 594.327 440.398 594.46V595.6C439.985 595.293 439.565 595.073 439.138 594.94C438.711 594.793 438.218 594.72 437.658 594.72C437.205 594.72 436.818 594.787 436.498 594.92C436.191 595.04 435.958 595.22 435.798 595.46C435.651 595.687 435.578 595.96 435.578 596.28ZM435.098 592.22L434.238 590.68C434.651 590.427 435.178 590.18 435.818 589.94C436.458 589.7 437.191 589.58 438.018 589.58C438.778 589.58 439.445 589.693 440.018 589.92C440.591 590.147 441.038 590.473 441.358 590.9C441.691 591.313 441.858 591.827 441.858 592.44V599H439.738V592.68C439.738 592.253 439.558 591.927 439.198 591.7C438.851 591.46 438.425 591.34 437.918 591.34C437.478 591.34 437.071 591.393 436.698 591.5C436.325 591.607 435.998 591.733 435.718 591.88C435.451 592.013 435.245 592.127 435.098 592.22ZM445.334 595.04V593.26H452.374V595.04H445.334ZM451.214 589.8H453.334V599H451.214V589.8ZM444.394 589.8H446.514V599H444.394V589.8ZM464.433 591.8L456.173 599.7L456.273 597L464.533 589.1L464.433 591.8ZM458.293 589.8V597.26L456.173 599.7V589.8H458.293ZM464.533 589.1V599H462.413V591.54L464.533 589.1ZM467.962 594.9V593.42H473.742C473.689 592.98 473.569 592.6 473.382 592.28C473.209 591.947 472.962 591.693 472.642 591.52C472.322 591.333 471.929 591.24 471.462 591.24C470.982 591.24 470.549 591.347 470.162 591.56C469.775 591.76 469.469 592.06 469.242 592.46C469.015 592.847 468.902 593.307 468.902 593.84L468.862 594.4C468.862 595.08 468.969 595.647 469.182 596.1C469.409 596.54 469.715 596.873 470.102 597.1C470.502 597.313 470.962 597.42 471.482 597.42C471.909 597.42 472.282 597.36 472.602 597.24C472.935 597.12 473.229 596.953 473.482 596.74C473.735 596.513 473.949 596.253 474.122 595.96L475.982 596.72C475.675 597.213 475.322 597.647 474.922 598.02C474.535 598.393 474.055 598.687 473.482 598.9C472.922 599.1 472.222 599.2 471.382 599.2C470.435 599.2 469.609 598.993 468.902 598.58C468.195 598.167 467.649 597.6 467.262 596.88C466.875 596.147 466.682 595.32 466.682 594.4C466.682 594.227 466.689 594.06 466.702 593.9C466.715 593.74 466.735 593.58 466.762 593.42C466.895 592.66 467.162 591.993 467.562 591.42C467.975 590.847 468.515 590.4 469.182 590.08C469.849 589.76 470.615 589.6 471.482 589.6C472.429 589.6 473.242 589.793 473.922 590.18C474.615 590.553 475.149 591.093 475.522 591.8C475.895 592.493 476.082 593.327 476.082 594.3C476.082 594.38 476.082 594.473 476.082 594.58C476.082 594.673 476.069 594.78 476.042 594.9H467.962ZM306.838 623.2H309.758C310.398 623.2 310.971 623.267 311.478 623.4C311.985 623.533 312.385 623.767 312.678 624.1C312.971 624.433 313.118 624.9 313.118 625.5C313.118 626.193 312.885 626.787 312.418 627.28C311.965 627.76 311.211 628 310.158 628H306.838V626.4H309.498C310.031 626.4 310.418 626.287 310.658 626.06C310.898 625.833 311.018 625.567 311.018 625.26C311.018 625.1 310.985 624.953 310.918 624.82C310.851 624.687 310.758 624.567 310.638 624.46C310.531 624.353 310.378 624.273 310.178 624.22C309.991 624.167 309.765 624.14 309.498 624.14H306.838V623.2ZM306.838 623.6V622.56H309.298C309.498 622.56 309.678 622.533 309.838 622.48C310.011 622.427 310.151 622.347 310.258 622.24C310.365 622.133 310.451 622.013 310.518 621.88C310.585 621.747 310.618 621.607 310.618 621.46C310.618 621.153 310.498 620.9 310.258 620.7C310.031 620.5 309.711 620.4 309.298 620.4H306.838V618.8H309.558C310.131 618.8 310.651 618.887 311.118 619.06C311.598 619.22 311.985 619.487 312.278 619.86C312.571 620.22 312.718 620.7 312.718 621.3C312.718 621.82 312.571 622.253 312.278 622.6C311.985 622.933 311.598 623.187 311.118 623.36C310.651 623.52 310.131 623.6 309.558 623.6H306.838ZM305.578 618.8H307.698V628H305.578V618.8ZM323.447 620.8L315.187 628.7L315.287 626L323.547 618.1L323.447 620.8ZM317.307 618.8V626.26L315.187 628.7V618.8H317.307ZM323.547 618.1V628H321.427V620.54L323.547 618.1ZM330.056 623.4V622.44C330.589 622.44 330.969 622.34 331.196 622.14C331.436 621.927 331.556 621.667 331.556 621.36C331.556 621.053 331.436 620.807 331.196 620.62C330.969 620.433 330.656 620.34 330.256 620.34C329.922 620.34 329.642 620.407 329.416 620.54C329.189 620.66 329.016 620.82 328.896 621.02C328.789 621.207 328.736 621.407 328.736 621.62H326.656C326.656 621.047 326.809 620.533 327.116 620.08C327.422 619.627 327.842 619.267 328.376 619C328.922 618.733 329.542 618.6 330.236 618.6C330.889 618.6 331.476 618.713 331.996 618.94C332.516 619.167 332.922 619.473 333.216 619.86C333.509 620.247 333.656 620.673 333.656 621.14C333.656 621.807 333.349 622.36 332.736 622.8C332.122 623.227 331.229 623.427 330.056 623.4ZM330.196 628.2C329.022 628.2 328.089 627.907 327.396 627.32C326.716 626.72 326.322 625.947 326.216 625H328.336C328.429 625.427 328.616 625.787 328.896 626.08C329.189 626.36 329.622 626.5 330.196 626.5C330.569 626.5 330.889 626.447 331.156 626.34C331.422 626.233 331.622 626.087 331.756 625.9C331.902 625.7 331.976 625.467 331.976 625.2C331.976 624.92 331.902 624.68 331.756 624.48C331.609 624.28 331.389 624.127 331.096 624.02C330.816 623.913 330.469 623.86 330.056 623.86V622.8C331.296 622.773 332.269 622.973 332.976 623.4C333.696 623.813 334.056 624.447 334.056 625.3C334.056 625.9 333.882 626.42 333.536 626.86C333.202 627.287 332.742 627.62 332.156 627.86C331.569 628.087 330.916 628.2 330.196 628.2ZM344.379 618.8L338.379 632.4H336.079L338.479 626.92L334.779 618.8H337.259L340.199 626.08L339.179 626.02L342.059 618.8H344.379ZM347.033 625.28C347.033 625.56 347.106 625.793 347.253 625.98C347.413 626.167 347.62 626.313 347.873 626.42C348.126 626.513 348.413 626.56 348.733 626.56C349.2 626.56 349.62 626.487 349.993 626.34C350.366 626.193 350.66 625.96 350.873 625.64C351.086 625.32 351.193 624.893 351.193 624.36L351.513 625.4C351.513 625.987 351.36 626.493 351.053 626.92C350.746 627.333 350.333 627.653 349.813 627.88C349.293 628.093 348.713 628.2 348.073 628.2C347.473 628.2 346.926 628.093 346.433 627.88C345.953 627.667 345.566 627.353 345.273 626.94C344.993 626.513 344.853 625.987 344.853 625.36C344.853 624.733 345.013 624.193 345.333 623.74C345.653 623.287 346.106 622.94 346.693 622.7C347.293 622.46 347.993 622.34 348.793 622.34C349.326 622.34 349.8 622.407 350.213 622.54C350.64 622.673 350.993 622.827 351.273 623C351.553 623.173 351.746 623.327 351.853 623.46V624.6C351.44 624.293 351.02 624.073 350.593 623.94C350.166 623.793 349.673 623.72 349.113 623.72C348.66 623.72 348.273 623.787 347.953 623.92C347.646 624.04 347.413 624.22 347.253 624.46C347.106 624.687 347.033 624.96 347.033 625.28ZM346.553 621.22L345.693 619.68C346.106 619.427 346.633 619.18 347.273 618.94C347.913 618.7 348.646 618.58 349.473 618.58C350.233 618.58 350.9 618.693 351.473 618.92C352.046 619.147 352.493 619.473 352.813 619.9C353.146 620.313 353.313 620.827 353.313 621.44V628H351.193V621.68C351.193 621.253 351.013 620.927 350.653 620.7C350.306 620.46 349.88 620.34 349.373 620.34C348.933 620.34 348.526 620.393 348.153 620.5C347.78 620.607 347.453 620.733 347.173 620.88C346.906 621.013 346.7 621.127 346.553 621.22ZM364.549 618.8V628H362.429V620.8H358.249V624.8C358.249 625.52 358.129 626.12 357.889 626.6C357.649 627.067 357.262 627.42 356.729 627.66C356.209 627.887 355.522 628 354.669 628V626.04C355.069 626.04 355.409 625.933 355.689 625.72C355.982 625.507 356.129 625.1 356.129 624.5V618.8H364.549ZM367.568 618.8H369.748V628H367.568V618.8ZM369.088 623.76V622.14H371.948C372.895 622.14 373.688 622.373 374.328 622.84C374.982 623.293 375.308 624.013 375.308 625C375.308 625.653 375.162 626.207 374.868 626.66C374.575 627.1 374.175 627.433 373.668 627.66C373.162 627.887 372.588 628 371.948 628H369.088V626.22H371.728C372.048 626.22 372.315 626.173 372.528 626.08C372.755 625.987 372.922 625.847 373.028 625.66C373.148 625.473 373.208 625.253 373.208 625C373.208 624.6 373.082 624.293 372.828 624.08C372.588 623.867 372.222 623.76 371.728 623.76H369.088ZM378.625 624.04V622.26H385.665V624.04H378.625ZM384.505 618.8H386.625V628H384.505V618.8ZM377.685 618.8H379.805V628H377.685V618.8ZM388.684 623.4C388.684 622.453 388.897 621.62 389.324 620.9C389.764 620.18 390.357 619.62 391.104 619.22C391.851 618.807 392.697 618.6 393.644 618.6C394.591 618.6 395.431 618.807 396.164 619.22C396.911 619.62 397.504 620.18 397.944 620.9C398.384 621.62 398.604 622.453 398.604 623.4C398.604 624.333 398.384 625.167 397.944 625.9C397.504 626.62 396.911 627.187 396.164 627.6C395.431 628 394.591 628.2 393.644 628.2C392.697 628.2 391.851 628 391.104 627.6C390.357 627.187 389.764 626.62 389.324 625.9C388.897 625.167 388.684 624.333 388.684 623.4ZM390.904 623.4C390.904 623.973 391.024 624.48 391.264 624.92C391.504 625.347 391.831 625.687 392.244 625.94C392.657 626.18 393.124 626.3 393.644 626.3C394.151 626.3 394.611 626.18 395.024 625.94C395.451 625.687 395.784 625.347 396.024 624.92C396.264 624.48 396.384 623.973 396.384 623.4C396.384 622.827 396.264 622.32 396.024 621.88C395.784 621.44 395.451 621.1 395.024 620.86C394.611 620.62 394.151 620.5 393.644 620.5C393.124 620.5 392.657 620.62 392.244 620.86C391.831 621.1 391.504 621.44 391.264 621.88C391.024 622.32 390.904 622.827 390.904 623.4ZM408.993 620.8L400.733 628.7L400.833 626L409.093 618.1L408.993 620.8ZM402.853 618.8V626.26L400.733 628.7V618.8H402.853ZM409.093 618.1V628H406.973V620.54L409.093 618.1ZM401.793 614.1H403.433C403.433 614.3 403.48 614.507 403.573 614.72C403.68 614.933 403.847 615.113 404.073 615.26C404.3 615.407 404.607 615.48 404.993 615.48C405.38 615.48 405.687 615.407 405.913 615.26C406.14 615.113 406.3 614.933 406.393 614.72C406.5 614.507 406.553 614.3 406.553 614.1H408.213C408.213 614.58 408.087 615.04 407.833 615.48C407.593 615.92 407.233 616.273 406.753 616.54C406.287 616.807 405.7 616.94 404.993 616.94C404.3 616.94 403.713 616.807 403.233 616.54C402.753 616.273 402.393 615.92 402.153 615.48C401.913 615.04 401.793 614.58 401.793 614.1ZM421.159 625.4L421.499 623.5H424.299V625.4H421.159ZM423.159 618.8H425.339V628H423.159V618.8ZM419.739 618.8V621.54C419.739 622.007 419.792 622.387 419.899 622.68C420.005 622.96 420.185 623.167 420.439 623.3C420.705 623.433 421.059 623.5 421.499 623.5L421.159 625.4C420.239 625.4 419.512 625.26 418.979 624.98C418.459 624.687 418.092 624.247 417.879 623.66C417.665 623.073 417.559 622.333 417.559 621.44V618.8H419.739ZM429.494 625.28C429.494 625.56 429.567 625.793 429.714 625.98C429.874 626.167 430.081 626.313 430.334 626.42C430.587 626.513 430.874 626.56 431.194 626.56C431.661 626.56 432.081 626.487 432.454 626.34C432.827 626.193 433.121 625.96 433.334 625.64C433.547 625.32 433.654 624.893 433.654 624.36L433.974 625.4C433.974 625.987 433.821 626.493 433.514 626.92C433.207 627.333 432.794 627.653 432.274 627.88C431.754 628.093 431.174 628.2 430.534 628.2C429.934 628.2 429.387 628.093 428.894 627.88C428.414 627.667 428.027 627.353 427.734 626.94C427.454 626.513 427.314 625.987 427.314 625.36C427.314 624.733 427.474 624.193 427.794 623.74C428.114 623.287 428.567 622.94 429.154 622.7C429.754 622.46 430.454 622.34 431.254 622.34C431.787 622.34 432.261 622.407 432.674 622.54C433.101 622.673 433.454 622.827 433.734 623C434.014 623.173 434.207 623.327 434.314 623.46V624.6C433.901 624.293 433.481 624.073 433.054 623.94C432.627 623.793 432.134 623.72 431.574 623.72C431.121 623.72 430.734 623.787 430.414 623.92C430.107 624.04 429.874 624.22 429.714 624.46C429.567 624.687 429.494 624.96 429.494 625.28ZM429.014 621.22L428.154 619.68C428.567 619.427 429.094 619.18 429.734 618.94C430.374 618.7 431.107 618.58 431.934 618.58C432.694 618.58 433.361 618.693 433.934 618.92C434.507 619.147 434.954 619.473 435.274 619.9C435.607 620.313 435.774 620.827 435.774 621.44V628H433.654V621.68C433.654 621.253 433.474 620.927 433.114 620.7C432.767 620.46 432.341 620.34 431.834 620.34C431.394 620.34 430.987 620.393 430.614 620.5C430.241 620.607 429.914 620.733 429.634 620.88C429.367 621.013 429.161 621.127 429.014 621.22ZM439.75 623.4C439.75 623.987 439.876 624.5 440.13 624.94C440.383 625.367 440.723 625.707 441.15 625.96C441.59 626.213 442.076 626.34 442.61 626.34C443.05 626.34 443.47 626.273 443.87 626.14C444.27 626.007 444.623 625.82 444.93 625.58C445.236 625.34 445.463 625.073 445.61 624.78V627.16C445.29 627.48 444.856 627.733 444.31 627.92C443.763 628.107 443.163 628.2 442.51 628.2C441.563 628.2 440.71 628 439.95 627.6C439.203 627.187 438.61 626.62 438.17 625.9C437.743 625.167 437.53 624.333 437.53 623.4C437.53 622.453 437.743 621.62 438.17 620.9C438.61 620.18 439.203 619.62 439.95 619.22C440.71 618.807 441.563 618.6 442.51 618.6C443.163 618.6 443.763 618.693 444.31 618.88C444.856 619.067 445.29 619.32 445.61 619.64V622.02C445.463 621.713 445.23 621.447 444.91 621.22C444.603 620.98 444.25 620.793 443.85 620.66C443.45 620.527 443.036 620.46 442.61 620.46C442.076 620.46 441.59 620.587 441.15 620.84C440.723 621.093 440.383 621.44 440.13 621.88C439.876 622.32 439.75 622.827 439.75 623.4ZM446.717 618.8H452.537V620.7H446.717V618.8ZM448.577 619.2H450.697V628H448.577V619.2ZM462.353 620.8L454.093 628.7L454.193 626L462.453 618.1L462.353 620.8ZM456.213 618.8V626.26L454.093 628.7V618.8H456.213ZM462.453 618.1V628H460.333V620.54L462.453 618.1Z" fill="white"/>
<path d="M308.973 733.18H302.213V745H299.813V731H311.353V745H308.973V733.18ZM316.439 749.4H314.259V735.8H316.439V749.4ZM324.059 740.4C324.059 741.413 323.852 742.287 323.439 743.02C323.026 743.74 322.479 744.293 321.799 744.68C321.119 745.053 320.379 745.24 319.579 745.24C318.792 745.24 318.106 745.047 317.519 744.66C316.946 744.26 316.499 743.7 316.179 742.98C315.872 742.247 315.719 741.387 315.719 740.4C315.719 739.4 315.872 738.54 316.179 737.82C316.499 737.1 316.946 736.547 317.519 736.16C318.106 735.76 318.792 735.56 319.579 735.56C320.379 735.56 321.119 735.753 321.799 736.14C322.479 736.513 323.026 737.06 323.439 737.78C323.852 738.5 324.059 739.373 324.059 740.4ZM321.819 740.4C321.819 739.787 321.692 739.267 321.439 738.84C321.186 738.4 320.846 738.073 320.419 737.86C320.006 737.633 319.546 737.52 319.039 737.52C318.626 737.52 318.219 737.633 317.819 737.86C317.419 738.073 317.086 738.393 316.819 738.82C316.566 739.247 316.439 739.773 316.439 740.4C316.439 741.027 316.566 741.553 316.819 741.98C317.086 742.407 317.419 742.733 317.819 742.96C318.219 743.173 318.626 743.28 319.039 743.28C319.546 743.28 320.006 743.173 320.419 742.96C320.846 742.733 321.186 742.407 321.439 741.98C321.692 741.54 321.819 741.013 321.819 740.4ZM325.416 740.4C325.416 739.453 325.63 738.62 326.056 737.9C326.496 737.18 327.09 736.62 327.836 736.22C328.583 735.807 329.43 735.6 330.376 735.6C331.323 735.6 332.163 735.807 332.896 736.22C333.643 736.62 334.236 737.18 334.676 737.9C335.116 738.62 335.336 739.453 335.336 740.4C335.336 741.333 335.116 742.167 334.676 742.9C334.236 743.62 333.643 744.187 332.896 744.6C332.163 745 331.323 745.2 330.376 745.2C329.43 745.2 328.583 745 327.836 744.6C327.09 744.187 326.496 743.62 326.056 742.9C325.63 742.167 325.416 741.333 325.416 740.4ZM327.636 740.4C327.636 740.973 327.756 741.48 327.996 741.92C328.236 742.347 328.563 742.687 328.976 742.94C329.39 743.18 329.856 743.3 330.376 743.3C330.883 743.3 331.343 743.18 331.756 742.94C332.183 742.687 332.516 742.347 332.756 741.92C332.996 741.48 333.116 740.973 333.116 740.4C333.116 739.827 332.996 739.32 332.756 738.88C332.516 738.44 332.183 738.1 331.756 737.86C331.343 737.62 330.883 737.5 330.376 737.5C329.856 737.5 329.39 737.62 328.976 737.86C328.563 738.1 328.236 738.44 327.996 738.88C327.756 739.32 327.636 739.827 327.636 740.4ZM337.466 735.8H342.746V737.7H339.606V745H337.466V735.8ZM346.302 749.4H344.122V735.8H346.302V749.4ZM353.922 740.4C353.922 741.413 353.716 742.287 353.302 743.02C352.889 743.74 352.342 744.293 351.662 744.68C350.982 745.053 350.242 745.24 349.442 745.24C348.656 745.24 347.969 745.047 347.382 744.66C346.809 744.26 346.362 743.7 346.042 742.98C345.736 742.247 345.582 741.387 345.582 740.4C345.582 739.4 345.736 738.54 346.042 737.82C346.362 737.1 346.809 736.547 347.382 736.16C347.969 735.76 348.656 735.56 349.442 735.56C350.242 735.56 350.982 735.753 351.662 736.14C352.342 736.513 352.889 737.06 353.302 737.78C353.716 738.5 353.922 739.373 353.922 740.4ZM351.682 740.4C351.682 739.787 351.556 739.267 351.302 738.84C351.049 738.4 350.709 738.073 350.282 737.86C349.869 737.633 349.409 737.52 348.902 737.52C348.489 737.52 348.082 737.633 347.682 737.86C347.282 738.073 346.949 738.393 346.682 738.82C346.429 739.247 346.302 739.773 346.302 740.4C346.302 741.027 346.429 741.553 346.682 741.98C346.949 742.407 347.282 742.733 347.682 742.96C348.082 743.173 348.489 743.28 348.902 743.28C349.409 743.28 349.869 743.173 350.282 742.96C350.709 742.733 351.049 742.407 351.302 741.98C351.556 741.54 351.682 741.013 351.682 740.4ZM357.34 742.28C357.34 742.56 357.413 742.793 357.56 742.98C357.72 743.167 357.926 743.313 358.18 743.42C358.433 743.513 358.72 743.56 359.04 743.56C359.506 743.56 359.926 743.487 360.3 743.34C360.673 743.193 360.966 742.96 361.18 742.64C361.393 742.32 361.5 741.893 361.5 741.36L361.82 742.4C361.82 742.987 361.666 743.493 361.36 743.92C361.053 744.333 360.64 744.653 360.12 744.88C359.6 745.093 359.02 745.2 358.38 745.2C357.78 745.2 357.233 745.093 356.74 744.88C356.26 744.667 355.873 744.353 355.58 743.94C355.3 743.513 355.16 742.987 355.16 742.36C355.16 741.733 355.32 741.193 355.64 740.74C355.96 740.287 356.413 739.94 357 739.7C357.6 739.46 358.3 739.34 359.1 739.34C359.633 739.34 360.106 739.407 360.52 739.54C360.946 739.673 361.3 739.827 361.58 740C361.86 740.173 362.053 740.327 362.16 740.46V741.6C361.746 741.293 361.326 741.073 360.9 740.94C360.473 740.793 359.98 740.72 359.42 740.72C358.966 740.72 358.58 740.787 358.26 740.92C357.953 741.04 357.72 741.22 357.56 741.46C357.413 741.687 357.34 741.96 357.34 742.28ZM356.86 738.22L356 736.68C356.413 736.427 356.94 736.18 357.58 735.94C358.22 735.7 358.953 735.58 359.78 735.58C360.54 735.58 361.206 735.693 361.78 735.92C362.353 736.147 362.8 736.473 363.12 736.9C363.453 737.313 363.62 737.827 363.62 738.44V745H361.5V738.68C361.5 738.253 361.32 737.927 360.96 737.7C360.613 737.46 360.186 737.34 359.68 737.34C359.24 737.34 358.833 737.393 358.46 737.5C358.086 737.607 357.76 737.733 357.48 737.88C357.213 738.013 357.006 738.127 356.86 738.22ZM374.915 745L373.515 738.1L374.655 735.1L377.215 745H374.915ZM370.415 743.12L374.655 735.1L374.855 738.64L371.015 745.62L370.415 743.12ZM371.015 745.62L367.215 738.64L367.415 735.1L371.615 743.12L371.015 745.62ZM364.875 745L367.415 735.1L368.575 738.1L367.175 745H364.875ZM387.454 745L386.054 738.1L387.194 735.1L389.754 745H387.454ZM382.954 743.12L387.194 735.1L387.394 738.64L383.554 745.62L382.954 743.12ZM383.554 745.62L379.754 738.64L379.954 735.1L384.154 743.12L383.554 745.62ZM377.414 745L379.954 735.1L381.114 738.1L379.714 745H377.414ZM399.574 737.8L391.314 745.7L391.414 743L399.674 735.1L399.574 737.8ZM393.434 735.8V743.26L391.314 745.7V735.8H393.434ZM399.674 735.1V745H397.554V737.54L399.674 735.1ZM404.623 749.4H402.443V735.8H404.623V749.4ZM412.243 740.4C412.243 741.413 412.036 742.287 411.623 743.02C411.209 743.74 410.663 744.293 409.983 744.68C409.303 745.053 408.563 745.24 407.763 745.24C406.976 745.24 406.289 745.047 405.703 744.66C405.129 744.26 404.683 743.7 404.363 742.98C404.056 742.247 403.903 741.387 403.903 740.4C403.903 739.4 404.056 738.54 404.363 737.82C404.683 737.1 405.129 736.547 405.703 736.16C406.289 735.76 406.976 735.56 407.763 735.56C408.563 735.56 409.303 735.753 409.983 736.14C410.663 736.513 411.209 737.06 411.623 737.78C412.036 738.5 412.243 739.373 412.243 740.4ZM410.003 740.4C410.003 739.787 409.876 739.267 409.623 738.84C409.369 738.4 409.029 738.073 408.603 737.86C408.189 737.633 407.729 737.52 407.223 737.52C406.809 737.52 406.403 737.633 406.003 737.86C405.603 738.073 405.269 738.393 405.003 738.82C404.749 739.247 404.623 739.773 404.623 740.4C404.623 741.027 404.749 741.553 405.003 741.98C405.269 742.407 405.603 742.733 406.003 742.96C406.403 743.173 406.809 743.28 407.223 743.28C407.729 743.28 408.189 743.173 408.603 742.96C409.029 742.733 409.369 742.407 409.623 741.98C409.876 741.54 410.003 741.013 410.003 740.4ZM413.6 740.4C413.6 739.453 413.813 738.62 414.24 737.9C414.68 737.18 415.273 736.62 416.02 736.22C416.767 735.807 417.613 735.6 418.56 735.6C419.507 735.6 420.347 735.807 421.08 736.22C421.827 736.62 422.42 737.18 422.86 737.9C423.3 738.62 423.52 739.453 423.52 740.4C423.52 741.333 423.3 742.167 422.86 742.9C422.42 743.62 421.827 744.187 421.08 744.6C420.347 745 419.507 745.2 418.56 745.2C417.613 745.2 416.767 745 416.02 744.6C415.273 744.187 414.68 743.62 414.24 742.9C413.813 742.167 413.6 741.333 413.6 740.4ZM415.82 740.4C415.82 740.973 415.94 741.48 416.18 741.92C416.42 742.347 416.747 742.687 417.16 742.94C417.573 743.18 418.04 743.3 418.56 743.3C419.067 743.3 419.527 743.18 419.94 742.94C420.367 742.687 420.7 742.347 420.94 741.92C421.18 741.48 421.3 740.973 421.3 740.4C421.3 739.827 421.18 739.32 420.94 738.88C420.7 738.44 420.367 738.1 419.94 737.86C419.527 737.62 419.067 737.5 418.56 737.5C418.04 737.5 417.573 737.62 417.16 737.86C416.747 738.1 416.42 738.44 416.18 738.88C415.94 739.32 415.82 739.827 415.82 740.4ZM426.949 740.2H429.869C430.509 740.2 431.083 740.267 431.589 740.4C432.096 740.533 432.496 740.767 432.789 741.1C433.083 741.433 433.229 741.9 433.229 742.5C433.229 743.193 432.996 743.787 432.529 744.28C432.076 744.76 431.323 745 430.269 745H426.949V743.4H429.609C430.143 743.4 430.529 743.287 430.769 743.06C431.009 742.833 431.129 742.567 431.129 742.26C431.129 742.1 431.096 741.953 431.029 741.82C430.963 741.687 430.869 741.567 430.749 741.46C430.643 741.353 430.489 741.273 430.289 741.22C430.103 741.167 429.876 741.14 429.609 741.14H426.949V740.2ZM426.949 740.6V739.56H429.409C429.609 739.56 429.789 739.533 429.949 739.48C430.123 739.427 430.263 739.347 430.369 739.24C430.476 739.133 430.563 739.013 430.629 738.88C430.696 738.747 430.729 738.607 430.729 738.46C430.729 738.153 430.609 737.9 430.369 737.7C430.143 737.5 429.823 737.4 429.409 737.4H426.949V735.8H429.669C430.243 735.8 430.763 735.887 431.229 736.06C431.709 736.22 432.096 736.487 432.389 736.86C432.683 737.22 432.829 737.7 432.829 738.3C432.829 738.82 432.683 739.253 432.389 739.6C432.096 739.933 431.709 740.187 431.229 740.36C430.763 740.52 430.243 740.6 429.669 740.6H426.949ZM425.689 735.8H427.809V745H425.689V735.8ZM436.578 742.28C436.578 742.56 436.651 742.793 436.798 742.98C436.958 743.167 437.165 743.313 437.418 743.42C437.671 743.513 437.958 743.56 438.278 743.56C438.745 743.56 439.165 743.487 439.538 743.34C439.911 743.193 440.205 742.96 440.418 742.64C440.631 742.32 440.738 741.893 440.738 741.36L441.058 742.4C441.058 742.987 440.905 743.493 440.598 743.92C440.291 744.333 439.878 744.653 439.358 744.88C438.838 745.093 438.258 745.2 437.618 745.2C437.018 745.2 436.471 745.093 435.978 744.88C435.498 744.667 435.111 744.353 434.818 743.94C434.538 743.513 434.398 742.987 434.398 742.36C434.398 741.733 434.558 741.193 434.878 740.74C435.198 740.287 435.651 739.94 436.238 739.7C436.838 739.46 437.538 739.34 438.338 739.34C438.871 739.34 439.345 739.407 439.758 739.54C440.185 739.673 440.538 739.827 440.818 740C441.098 740.173 441.291 740.327 441.398 740.46V741.6C440.985 741.293 440.565 741.073 440.138 740.94C439.711 740.793 439.218 740.72 438.658 740.72C438.205 740.72 437.818 740.787 437.498 740.92C437.191 741.04 436.958 741.22 436.798 741.46C436.651 741.687 436.578 741.96 436.578 742.28ZM436.098 738.22L435.238 736.68C435.651 736.427 436.178 736.18 436.818 735.94C437.458 735.7 438.191 735.58 439.018 735.58C439.778 735.58 440.445 735.693 441.018 735.92C441.591 736.147 442.038 736.473 442.358 736.9C442.691 737.313 442.858 737.827 442.858 738.44V745H440.738V738.68C440.738 738.253 440.558 737.927 440.198 737.7C439.851 737.46 439.425 737.34 438.918 737.34C438.478 737.34 438.071 737.393 437.698 737.5C437.325 737.607 436.998 737.733 436.718 737.88C436.451 738.013 436.245 738.127 436.098 738.22ZM446.334 741.04V739.26H453.374V741.04H446.334ZM452.214 735.8H454.334V745H452.214V735.8ZM445.394 735.8H447.514V745H445.394V735.8ZM465.433 737.8L457.173 745.7L457.273 743L465.533 735.1L465.433 737.8ZM459.293 735.8V743.26L457.173 745.7V735.8H459.293ZM465.533 735.1V745H463.413V737.54L465.533 735.1ZM468.962 740.9V739.42H474.742C474.689 738.98 474.569 738.6 474.382 738.28C474.209 737.947 473.962 737.693 473.642 737.52C473.322 737.333 472.929 737.24 472.462 737.24C471.982 737.24 471.549 737.347 471.162 737.56C470.775 737.76 470.469 738.06 470.242 738.46C470.015 738.847 469.902 739.307 469.902 739.84L469.862 740.4C469.862 741.08 469.969 741.647 470.182 742.1C470.409 742.54 470.715 742.873 471.102 743.1C471.502 743.313 471.962 743.42 472.482 743.42C472.909 743.42 473.282 743.36 473.602 743.24C473.935 743.12 474.229 742.953 474.482 742.74C474.735 742.513 474.949 742.253 475.122 741.96L476.982 742.72C476.675 743.213 476.322 743.647 475.922 744.02C475.535 744.393 475.055 744.687 474.482 744.9C473.922 745.1 473.222 745.2 472.382 745.2C471.435 745.2 470.609 744.993 469.902 744.58C469.195 744.167 468.649 743.6 468.262 742.88C467.875 742.147 467.682 741.32 467.682 740.4C467.682 740.227 467.689 740.06 467.702 739.9C467.715 739.74 467.735 739.58 467.762 739.42C467.895 738.66 468.162 737.993 468.562 737.42C468.975 736.847 469.515 736.4 470.182 736.08C470.849 735.76 471.615 735.6 472.482 735.6C473.429 735.6 474.242 735.793 474.922 736.18C475.615 736.553 476.149 737.093 476.522 737.8C476.895 738.493 477.082 739.327 477.082 740.3C477.082 740.38 477.082 740.473 477.082 740.58C477.082 740.673 477.069 740.78 477.042 740.9H468.962ZM308.668 769.2H311.588C312.228 769.2 312.802 769.267 313.308 769.4C313.815 769.533 314.215 769.767 314.508 770.1C314.802 770.433 314.948 770.9 314.948 771.5C314.948 772.193 314.715 772.787 314.248 773.28C313.795 773.76 313.042 774 311.988 774H308.668V772.4H311.328C311.862 772.4 312.248 772.287 312.488 772.06C312.728 771.833 312.848 771.567 312.848 771.26C312.848 771.1 312.815 770.953 312.748 770.82C312.682 770.687 312.588 770.567 312.468 770.46C312.362 770.353 312.208 770.273 312.008 770.22C311.822 770.167 311.595 770.14 311.328 770.14H308.668V769.2ZM308.668 769.6V768.56H311.128C311.328 768.56 311.508 768.533 311.668 768.48C311.842 768.427 311.982 768.347 312.088 768.24C312.195 768.133 312.282 768.013 312.348 767.88C312.415 767.747 312.448 767.607 312.448 767.46C312.448 767.153 312.328 766.9 312.088 766.7C311.862 766.5 311.542 766.4 311.128 766.4H308.668V764.8H311.388C311.962 764.8 312.482 764.887 312.948 765.06C313.428 765.22 313.815 765.487 314.108 765.86C314.402 766.22 314.548 766.7 314.548 767.3C314.548 767.82 314.402 768.253 314.108 768.6C313.815 768.933 313.428 769.187 312.948 769.36C312.482 769.52 311.962 769.6 311.388 769.6H308.668ZM307.408 764.8H309.528V774H307.408V764.8ZM317.877 770.04V768.26H324.917V770.04H317.877ZM323.757 764.8H325.877V774H323.757V764.8ZM316.937 764.8H319.057V774H316.937V764.8ZM336.776 764.8L330.776 778.4H328.476L330.876 772.92L327.176 764.8H329.656L332.596 772.08L331.576 772.02L334.456 764.8H336.776ZM336.789 764.8H342.609V766.7H336.789V764.8ZM338.649 765.2H340.769V774H338.649V765.2ZM346.185 778.4H344.005V764.8H346.185V778.4ZM353.805 769.4C353.805 770.413 353.598 771.287 353.185 772.02C352.772 772.74 352.225 773.293 351.545 773.68C350.865 774.053 350.125 774.24 349.325 774.24C348.538 774.24 347.852 774.047 347.265 773.66C346.692 773.26 346.245 772.7 345.925 771.98C345.618 771.247 345.465 770.387 345.465 769.4C345.465 768.4 345.618 767.54 345.925 766.82C346.245 766.1 346.692 765.547 347.265 765.16C347.852 764.76 348.538 764.56 349.325 764.56C350.125 764.56 350.865 764.753 351.545 765.14C352.225 765.513 352.772 766.06 353.185 766.78C353.598 767.5 353.805 768.373 353.805 769.4ZM351.565 769.4C351.565 768.787 351.438 768.267 351.185 767.84C350.932 767.4 350.592 767.073 350.165 766.86C349.752 766.633 349.292 766.52 348.785 766.52C348.372 766.52 347.965 766.633 347.565 766.86C347.165 767.073 346.832 767.393 346.565 767.82C346.312 768.247 346.185 768.773 346.185 769.4C346.185 770.027 346.312 770.553 346.565 770.98C346.832 771.407 347.165 771.733 347.565 771.96C347.965 772.173 348.372 772.28 348.785 772.28C349.292 772.28 349.752 772.173 350.165 771.96C350.592 771.733 350.932 771.407 351.185 770.98C351.438 770.54 351.565 770.013 351.565 769.4ZM356.442 769.9V768.42H362.222C362.169 767.98 362.049 767.6 361.862 767.28C361.689 766.947 361.442 766.693 361.122 766.52C360.802 766.333 360.409 766.24 359.942 766.24C359.462 766.24 359.029 766.347 358.642 766.56C358.256 766.76 357.949 767.06 357.722 767.46C357.496 767.847 357.382 768.307 357.382 768.84L357.342 769.4C357.342 770.08 357.449 770.647 357.662 771.1C357.889 771.54 358.196 771.873 358.582 772.1C358.982 772.313 359.442 772.42 359.962 772.42C360.389 772.42 360.762 772.36 361.082 772.24C361.416 772.12 361.709 771.953 361.962 771.74C362.216 771.513 362.429 771.253 362.602 770.96L364.462 771.72C364.156 772.213 363.802 772.647 363.402 773.02C363.016 773.393 362.536 773.687 361.962 773.9C361.402 774.1 360.702 774.2 359.862 774.2C358.916 774.2 358.089 773.993 357.382 773.58C356.676 773.167 356.129 772.6 355.742 771.88C355.356 771.147 355.162 770.32 355.162 769.4C355.162 769.227 355.169 769.06 355.182 768.9C355.196 768.74 355.216 768.58 355.242 768.42C355.376 767.66 355.642 766.993 356.042 766.42C356.456 765.847 356.996 765.4 357.662 765.08C358.329 764.76 359.096 764.6 359.962 764.6C360.909 764.6 361.722 764.793 362.402 765.18C363.096 765.553 363.629 766.093 364.002 766.8C364.376 767.493 364.562 768.327 364.562 769.3C364.562 769.38 364.562 769.473 364.562 769.58C364.562 769.673 364.549 769.78 364.522 769.9H356.442ZM367.584 770.04V768.26H374.624V770.04H367.584ZM373.464 764.8H375.584V774H373.464V764.8ZM366.644 764.8H368.764V774H366.644V764.8ZM379.283 770.04V768.26H386.323V770.04H379.283ZM385.163 764.8H387.283V774H385.163V764.8ZM378.343 764.8H380.463V774H378.343V764.8ZM390.622 769.9V768.42H396.402C396.349 767.98 396.229 767.6 396.042 767.28C395.869 766.947 395.622 766.693 395.302 766.52C394.982 766.333 394.589 766.24 394.122 766.24C393.642 766.24 393.209 766.347 392.822 766.56C392.435 766.76 392.129 767.06 391.902 767.46C391.675 767.847 391.562 768.307 391.562 768.84L391.522 769.4C391.522 770.08 391.629 770.647 391.842 771.1C392.069 771.54 392.375 771.873 392.762 772.1C393.162 772.313 393.622 772.42 394.142 772.42C394.569 772.42 394.942 772.36 395.262 772.24C395.595 772.12 395.889 771.953 396.142 771.74C396.395 771.513 396.609 771.253 396.782 770.96L398.642 771.72C398.335 772.213 397.982 772.647 397.582 773.02C397.195 773.393 396.715 773.687 396.142 773.9C395.582 774.1 394.882 774.2 394.042 774.2C393.095 774.2 392.269 773.993 391.562 773.58C390.855 773.167 390.309 772.6 389.922 771.88C389.535 771.147 389.342 770.32 389.342 769.4C389.342 769.227 389.349 769.06 389.362 768.9C389.375 768.74 389.395 768.58 389.422 768.42C389.555 767.66 389.822 766.993 390.222 766.42C390.635 765.847 391.175 765.4 391.842 765.08C392.509 764.76 393.275 764.6 394.142 764.6C395.089 764.6 395.902 764.793 396.582 765.18C397.275 765.553 397.809 766.093 398.182 766.8C398.555 767.493 398.742 768.327 398.742 769.3C398.742 769.38 398.742 769.473 398.742 769.58C398.742 769.673 398.729 769.78 398.702 769.9H390.622ZM409.163 766.8L400.903 774.7L401.003 772L409.263 764.1L409.163 766.8ZM403.023 764.8V772.26L400.903 774.7V764.8H403.023ZM409.263 764.1V774H407.143V766.54L409.263 764.1ZM401.963 760.1H403.603C403.603 760.3 403.65 760.507 403.743 760.72C403.85 760.933 404.017 761.113 404.243 761.26C404.47 761.407 404.777 761.48 405.163 761.48C405.55 761.48 405.857 761.407 406.083 761.26C406.31 761.113 406.47 760.933 406.563 760.72C406.67 760.507 406.723 760.3 406.723 760.1H408.383C408.383 760.58 408.257 761.04 408.003 761.48C407.763 761.92 407.403 762.273 406.923 762.54C406.457 762.807 405.87 762.94 405.163 762.94C404.47 762.94 403.883 762.807 403.403 762.54C402.923 762.273 402.563 761.92 402.323 761.48C402.083 761.04 401.963 760.58 401.963 760.1ZM421.329 771.4L421.669 769.5H424.469V771.4H421.329ZM423.329 764.8H425.509V774H423.329V764.8ZM419.909 764.8V767.54C419.909 768.007 419.962 768.387 420.069 768.68C420.175 768.96 420.355 769.167 420.609 769.3C420.875 769.433 421.229 769.5 421.669 769.5L421.329 771.4C420.409 771.4 419.682 771.26 419.149 770.98C418.629 770.687 418.262 770.247 418.049 769.66C417.835 769.073 417.729 768.333 417.729 767.44V764.8H419.909ZM429.664 771.28C429.664 771.56 429.737 771.793 429.884 771.98C430.044 772.167 430.25 772.313 430.504 772.42C430.757 772.513 431.044 772.56 431.364 772.56C431.83 772.56 432.25 772.487 432.624 772.34C432.997 772.193 433.29 771.96 433.504 771.64C433.717 771.32 433.824 770.893 433.824 770.36L434.144 771.4C434.144 771.987 433.99 772.493 433.684 772.92C433.377 773.333 432.964 773.653 432.444 773.88C431.924 774.093 431.344 774.2 430.704 774.2C430.104 774.2 429.557 774.093 429.064 773.88C428.584 773.667 428.197 773.353 427.904 772.94C427.624 772.513 427.484 771.987 427.484 771.36C427.484 770.733 427.644 770.193 427.964 769.74C428.284 769.287 428.737 768.94 429.324 768.7C429.924 768.46 430.624 768.34 431.424 768.34C431.957 768.34 432.43 768.407 432.844 768.54C433.27 768.673 433.624 768.827 433.904 769C434.184 769.173 434.377 769.327 434.484 769.46V770.6C434.07 770.293 433.65 770.073 433.224 769.94C432.797 769.793 432.304 769.72 431.744 769.72C431.29 769.72 430.904 769.787 430.584 769.92C430.277 770.04 430.044 770.22 429.884 770.46C429.737 770.687 429.664 770.96 429.664 771.28ZM429.184 767.22L428.324 765.68C428.737 765.427 429.264 765.18 429.904 764.94C430.544 764.7 431.277 764.58 432.104 764.58C432.864 764.58 433.53 764.693 434.104 764.92C434.677 765.147 435.124 765.473 435.444 765.9C435.777 766.313 435.944 766.827 435.944 767.44V774H433.824V767.68C433.824 767.253 433.644 766.927 433.284 766.7C432.937 766.46 432.51 766.34 432.004 766.34C431.564 766.34 431.157 766.393 430.784 766.5C430.41 766.607 430.084 766.733 429.804 766.88C429.537 767.013 429.33 767.127 429.184 767.22ZM439.92 769.4C439.92 769.987 440.046 770.5 440.3 770.94C440.553 771.367 440.893 771.707 441.32 771.96C441.76 772.213 442.246 772.34 442.78 772.34C443.22 772.34 443.64 772.273 444.04 772.14C444.44 772.007 444.793 771.82 445.1 771.58C445.406 771.34 445.633 771.073 445.78 770.78V773.16C445.46 773.48 445.026 773.733 444.48 773.92C443.933 774.107 443.333 774.2 442.68 774.2C441.733 774.2 440.88 774 440.12 773.6C439.373 773.187 438.78 772.62 438.34 771.9C437.913 771.167 437.7 770.333 437.7 769.4C437.7 768.453 437.913 767.62 438.34 766.9C438.78 766.18 439.373 765.62 440.12 765.22C440.88 764.807 441.733 764.6 442.68 764.6C443.333 764.6 443.933 764.693 444.48 764.88C445.026 765.067 445.46 765.32 445.78 765.64V768.02C445.633 767.713 445.4 767.447 445.08 767.22C444.773 766.98 444.42 766.793 444.02 766.66C443.62 766.527 443.206 766.46 442.78 766.46C442.246 766.46 441.76 766.587 441.32 766.84C440.893 767.093 440.553 767.44 440.3 767.88C440.046 768.32 439.92 768.827 439.92 769.4ZM446.887 764.8H452.707V766.7H446.887V764.8ZM448.747 765.2H450.867V774H448.747V765.2ZM462.523 766.8L454.263 774.7L454.363 772L462.623 764.1L462.523 766.8ZM456.383 764.8V772.26L454.263 774.7V764.8H456.383ZM462.623 764.1V774H460.503V766.54L462.623 764.1Z" fill="white"/>
<path d="M384 86.5C594.693 86.5 765.5 258.643 765.5 471C765.5 683.357 594.693 855.5 384 855.5C173.307 855.5 2.5 683.357 2.5 471C2.5 258.643 173.307 86.5 384 86.5Z" stroke="#FF0000"/>
<path d="M383.5 131.5C454.576 131.5 518.906 139.109 565.452 151.4C588.729 157.547 607.53 164.857 620.5 172.955C633.496 181.069 640.5 189.884 640.5 199C640.5 208.116 633.496 216.931 620.5 225.045C607.53 233.143 588.729 240.453 565.452 246.6C518.906 258.891 454.576 266.5 383.5 266.5C312.424 266.5 248.094 258.891 201.548 246.6C178.271 240.453 159.47 233.143 146.5 225.045C133.504 216.931 126.5 208.116 126.5 199C126.5 189.884 133.504 181.069 146.5 172.955C159.47 164.857 178.271 157.547 201.548 151.4C248.094 139.109 312.424 131.5 383.5 131.5Z" stroke="#FF0000"/>
<path d="M384 267.5C482.009 267.5 570.726 275.11 634.929 287.408C667.034 293.558 692.985 300.875 710.896 308.986C719.854 313.043 726.773 317.287 731.446 321.661C736.119 326.035 738.5 330.496 738.5 335C738.5 339.504 736.119 343.965 731.446 348.339C726.773 352.713 719.854 356.957 710.896 361.014C692.985 369.125 667.034 376.442 634.929 382.592C570.726 394.89 482.009 402.5 384 402.5C285.991 402.5 197.274 394.89 133.071 382.592C100.966 376.442 75.0152 369.125 57.1035 361.014C48.1462 356.957 41.2266 352.713 36.5537 348.339C31.8808 343.965 29.5 339.504 29.5 335C29.5 330.496 31.8808 326.035 36.5537 321.661C41.2266 317.287 48.1462 313.043 57.1035 308.986C75.0152 300.875 100.966 293.558 133.071 287.408C197.274 275.11 285.991 267.5 384 267.5Z" stroke="#FF0000"/>
<path d="M383.5 401.5C488.828 401.5 584.172 409.277 653.172 421.848C687.676 428.133 715.568 435.613 734.822 443.906C744.451 448.054 751.892 452.393 756.917 456.867C761.944 461.343 764.5 465.902 764.5 470.5C764.5 475.098 761.944 479.657 756.917 484.133C751.892 488.607 744.451 492.946 734.822 497.094C715.568 505.387 687.676 512.867 653.172 519.152C584.172 531.723 488.828 539.5 383.5 539.5C278.172 539.5 182.828 531.723 113.828 519.152C79.324 512.867 51.4319 505.387 32.1777 497.094C22.5487 492.946 15.1083 488.607 10.083 484.133C5.05593 479.657 2.5 475.098 2.5 470.5C2.5 465.902 5.05593 461.343 10.083 456.867C15.1083 452.393 22.5487 448.054 32.1777 443.906C51.4319 435.613 79.324 428.133 113.828 421.848C182.828 409.277 278.172 401.5 383.5 401.5Z" stroke="#FF0000"/>
<path d="M384 540.5C482.009 540.5 570.726 548.054 634.93 560.262C667.035 566.366 692.986 573.629 710.897 581.682C719.855 585.708 726.774 589.921 731.447 594.263C736.121 598.605 738.5 603.032 738.5 607.5C738.5 611.968 736.121 616.395 731.447 620.737C726.774 625.079 719.855 629.292 710.897 633.318C692.986 641.371 667.035 648.634 634.93 654.738C570.726 666.946 482.009 674.5 384 674.5C285.991 674.5 197.274 666.946 133.07 654.738C100.965 648.634 75.0144 641.371 57.1025 633.318C48.145 629.292 41.2255 625.079 36.5527 620.737C31.8794 616.395 29.5 611.968 29.5 607.5C29.5 603.032 31.8794 598.605 36.5527 594.263C41.2255 589.921 48.145 585.708 57.1025 581.682C75.0144 573.629 100.965 566.366 133.07 560.262C197.274 548.054 285.991 540.5 384 540.5Z" stroke="#FF0000"/>
<path d="M384.5 675.5C455.299 675.5 519.378 683.276 565.742 695.839C588.928 702.121 607.655 709.592 620.573 717.868C633.515 726.159 640.5 735.17 640.5 744.5C640.5 753.83 633.515 762.841 620.573 771.132C607.655 779.408 588.928 786.879 565.742 793.161C519.378 805.724 455.299 813.5 384.5 813.5C313.701 813.5 249.622 805.724 203.258 793.161C180.072 786.879 161.345 779.408 148.427 771.132C135.485 762.841 128.5 753.83 128.5 744.5C128.5 735.17 135.485 726.159 148.427 717.868C161.345 709.592 180.072 702.121 203.258 695.839C249.622 683.276 313.701 675.5 384.5 675.5Z" stroke="#FF0000"/>
</svg>
