<svg width="766" height="938" viewBox="0 0 766 938" fill="none" xmlns="http://www.w3.org/2000/svg">
<path d="M285.373 199.48L284.413 208H281.973L283.893 193.3L289.633 202.8L295.393 193.3L297.313 208H294.873L293.893 199.48L289.633 206.7L285.373 199.48ZM303.429 208.2C302.495 208.2 301.669 208 300.949 207.6C300.242 207.2 299.695 206.64 299.309 205.92C298.922 205.2 298.729 204.36 298.729 203.4C298.729 202.427 298.922 201.58 299.309 200.86C299.709 200.14 300.269 199.587 300.989 199.2C301.709 198.8 302.555 198.6 303.529 198.6C304.502 198.6 305.329 198.787 306.009 199.16C306.689 199.533 307.209 200.073 307.569 200.78C307.942 201.473 308.129 202.313 308.129 203.3C308.129 203.407 308.122 203.52 308.109 203.64C308.109 203.76 308.102 203.847 308.089 203.9H300.009V202.42H306.249L305.589 203.34C305.629 203.26 305.669 203.153 305.709 203.02C305.762 202.873 305.789 202.753 305.789 202.66C305.789 202.167 305.689 201.74 305.489 201.38C305.302 201.02 305.035 200.74 304.689 200.54C304.355 200.34 303.962 200.24 303.509 200.24C302.962 200.24 302.495 200.36 302.109 200.6C301.722 200.84 301.429 201.187 301.229 201.64C301.029 202.093 300.922 202.653 300.909 203.32C300.909 203.987 301.009 204.553 301.209 205.02C301.409 205.473 301.702 205.82 302.089 206.06C302.489 206.3 302.969 206.42 303.529 206.42C304.115 206.42 304.629 206.3 305.069 206.06C305.509 205.82 305.875 205.453 306.169 204.96L308.029 205.72C307.549 206.547 306.929 207.167 306.169 207.58C305.409 207.993 304.495 208.2 303.429 208.2ZM314.191 208.2C313.257 208.2 312.431 208 311.711 207.6C311.004 207.2 310.457 206.64 310.071 205.92C309.684 205.2 309.491 204.36 309.491 203.4C309.491 202.427 309.684 201.58 310.071 200.86C310.471 200.14 311.031 199.587 311.751 199.2C312.471 198.8 313.317 198.6 314.291 198.6C315.264 198.6 316.091 198.787 316.771 199.16C317.451 199.533 317.971 200.073 318.331 200.78C318.704 201.473 318.891 202.313 318.891 203.3C318.891 203.407 318.884 203.52 318.871 203.64C318.871 203.76 318.864 203.847 318.851 203.9H310.771V202.42H317.011L316.351 203.34C316.391 203.26 316.431 203.153 316.471 203.02C316.524 202.873 316.551 202.753 316.551 202.66C316.551 202.167 316.451 201.74 316.251 201.38C316.064 201.02 315.797 200.74 315.451 200.54C315.117 200.34 314.724 200.24 314.271 200.24C313.724 200.24 313.257 200.36 312.871 200.6C312.484 200.84 312.191 201.187 311.991 201.64C311.791 202.093 311.684 202.653 311.671 203.32C311.671 203.987 311.771 204.553 311.971 205.02C312.171 205.473 312.464 205.82 312.851 206.06C313.251 206.3 313.731 206.42 314.291 206.42C314.877 206.42 315.391 206.3 315.831 206.06C316.271 205.82 316.637 205.453 316.931 204.96L318.791 205.72C318.311 206.547 317.691 207.167 316.931 207.58C316.171 207.993 315.257 208.2 314.191 208.2ZM319.672 198.8H324.892V200.7H319.672V198.8ZM321.212 195.6H323.352V208H321.212V195.6ZM326.302 195.14C326.302 194.767 326.435 194.453 326.702 194.2C326.982 193.947 327.302 193.82 327.662 193.82C328.049 193.82 328.369 193.947 328.622 194.2C328.889 194.453 329.022 194.767 329.022 195.14C329.022 195.5 328.889 195.813 328.622 196.08C328.369 196.333 328.049 196.46 327.662 196.46C327.302 196.46 326.982 196.333 326.702 196.08C326.435 195.813 326.302 195.5 326.302 195.14ZM326.602 198.8H328.722V208H326.602V198.8ZM337.614 202.4C337.614 201.72 337.474 201.207 337.194 200.86C336.914 200.513 336.481 200.34 335.894 200.34C335.494 200.34 335.141 200.427 334.834 200.6C334.528 200.76 334.288 201 334.114 201.32C333.941 201.627 333.854 201.987 333.854 202.4V208H331.694V198.8H333.854V200.22C334.148 199.673 334.521 199.267 334.974 199C335.441 198.733 335.994 198.6 336.634 198.6C337.674 198.6 338.468 198.92 339.014 199.56C339.561 200.187 339.834 201.053 339.834 202.16V208H337.614V202.4ZM342.073 208.62H344.213C344.226 209.033 344.34 209.407 344.553 209.74C344.78 210.073 345.086 210.333 345.473 210.52C345.86 210.707 346.306 210.8 346.813 210.8C347.266 210.8 347.7 210.693 348.113 210.48C348.526 210.267 348.86 209.94 349.113 209.5C349.38 209.06 349.513 208.493 349.513 207.8V198.8H351.633V207.8C351.633 208.907 351.406 209.82 350.953 210.54C350.513 211.26 349.933 211.793 349.213 212.14C348.493 212.5 347.713 212.68 346.873 212.68C345.873 212.68 345.02 212.507 344.313 212.16C343.606 211.827 343.06 211.353 342.673 210.74C342.3 210.127 342.1 209.42 342.073 208.62ZM341.893 203.36C341.893 202.333 342.1 201.473 342.513 200.78C342.926 200.073 343.473 199.533 344.153 199.16C344.846 198.787 345.586 198.6 346.373 198.6C347.146 198.6 347.82 198.793 348.393 199.18C348.98 199.553 349.44 200.093 349.773 200.8C350.12 201.507 350.293 202.36 350.293 203.36C350.293 204.347 350.12 205.193 349.773 205.9C349.44 206.607 348.98 207.153 348.393 207.54C347.82 207.913 347.146 208.1 346.373 208.1C345.586 208.1 344.846 207.913 344.153 207.54C343.473 207.167 342.926 206.627 342.513 205.92C342.1 205.213 341.893 204.36 341.893 203.36ZM344.133 203.36C344.133 203.973 344.26 204.493 344.513 204.92C344.766 205.347 345.1 205.673 345.513 205.9C345.94 206.113 346.4 206.22 346.893 206.22C347.306 206.22 347.713 206.113 348.113 205.9C348.526 205.687 348.86 205.367 349.113 204.94C349.38 204.5 349.513 203.973 349.513 203.36C349.513 202.88 349.433 202.467 349.273 202.12C349.126 201.76 348.926 201.46 348.673 201.22C348.42 200.967 348.133 200.78 347.813 200.66C347.506 200.54 347.2 200.48 346.893 200.48C346.4 200.48 345.94 200.593 345.513 200.82C345.1 201.033 344.766 201.353 344.513 201.78C344.26 202.207 344.133 202.733 344.133 203.36ZM358.928 198.8H361.268L363.428 204.28L365.968 198.1L368.668 204.3L370.828 198.8H373.168L368.868 208.66L365.988 202.44L363.228 208.66L358.928 198.8ZM374.466 195.14C374.466 194.767 374.599 194.453 374.866 194.2C375.146 193.947 375.466 193.82 375.826 193.82C376.213 193.82 376.533 193.947 376.786 194.2C377.053 194.453 377.186 194.767 377.186 195.14C377.186 195.5 377.053 195.813 376.786 196.08C376.533 196.333 376.213 196.46 375.826 196.46C375.466 196.46 375.146 196.333 374.866 196.08C374.599 195.813 374.466 195.5 374.466 195.14ZM374.766 198.8H376.886V208H374.766V198.8ZM378.579 198.8H383.799V200.7H378.579V198.8ZM380.119 195.6H382.259V208H380.119V195.6ZM387.448 192.4V208H385.288V192.4H387.448ZM391.208 202.4C391.208 201.72 391.068 201.207 390.788 200.86C390.522 200.513 390.088 200.34 389.488 200.34C389.088 200.34 388.735 200.427 388.428 200.6C388.122 200.773 387.882 201.013 387.708 201.32C387.535 201.627 387.448 201.987 387.448 202.4H386.928C386.928 201.667 387.062 201.013 387.328 200.44C387.595 199.867 387.968 199.407 388.448 199.06C388.942 198.713 389.535 198.54 390.228 198.54C390.908 198.54 391.482 198.673 391.948 198.94C392.428 199.207 392.788 199.607 393.028 200.14C393.268 200.66 393.388 201.313 393.388 202.1V208H391.208V202.4ZM400.844 198.8H406.064V200.7H400.844V198.8ZM402.384 195.6H404.524V208H402.384V195.6ZM409.714 192.4V208H407.554V192.4H409.714ZM413.474 202.4C413.474 201.72 413.334 201.207 413.054 200.86C412.787 200.513 412.354 200.34 411.754 200.34C411.354 200.34 411 200.427 410.694 200.6C410.387 200.773 410.147 201.013 409.974 201.32C409.8 201.627 409.714 201.987 409.714 202.4H409.194C409.194 201.667 409.327 201.013 409.594 200.44C409.86 199.867 410.234 199.407 410.714 199.06C411.207 198.713 411.8 198.54 412.494 198.54C413.174 198.54 413.747 198.673 414.214 198.94C414.694 199.207 415.054 199.607 415.294 200.14C415.534 200.66 415.654 201.313 415.654 202.1V208H413.474V202.4ZM422.394 208.2C421.46 208.2 420.634 208 419.914 207.6C419.207 207.2 418.66 206.64 418.274 205.92C417.887 205.2 417.694 204.36 417.694 203.4C417.694 202.427 417.887 201.58 418.274 200.86C418.674 200.14 419.234 199.587 419.954 199.2C420.674 198.8 421.52 198.6 422.494 198.6C423.467 198.6 424.294 198.787 424.974 199.16C425.654 199.533 426.174 200.073 426.534 200.78C426.907 201.473 427.094 202.313 427.094 203.3C427.094 203.407 427.087 203.52 427.074 203.64C427.074 203.76 427.067 203.847 427.054 203.9H418.974V202.42H425.214L424.554 203.34C424.594 203.26 424.634 203.153 424.674 203.02C424.727 202.873 424.754 202.753 424.754 202.66C424.754 202.167 424.654 201.74 424.454 201.38C424.267 201.02 424 200.74 423.654 200.54C423.32 200.34 422.927 200.24 422.474 200.24C421.927 200.24 421.46 200.36 421.074 200.6C420.687 200.84 420.394 201.187 420.194 201.64C419.994 202.093 419.887 202.653 419.874 203.32C419.874 203.987 419.974 204.553 420.174 205.02C420.374 205.473 420.667 205.82 421.054 206.06C421.454 206.3 421.934 206.42 422.494 206.42C423.08 206.42 423.594 206.3 424.034 206.06C424.474 205.82 424.84 205.453 425.134 204.96L426.994 205.72C426.514 206.547 425.894 207.167 425.134 207.58C424.374 207.993 423.46 208.2 422.394 208.2ZM436.591 203.4C436.591 203.987 436.718 204.5 436.971 204.94C437.225 205.367 437.565 205.707 437.991 205.96C438.431 206.213 438.918 206.34 439.451 206.34C439.891 206.34 440.311 206.273 440.711 206.14C441.111 206.007 441.465 205.82 441.771 205.58C442.078 205.34 442.305 205.073 442.451 204.78V207.16C442.131 207.48 441.698 207.733 441.151 207.92C440.605 208.107 440.005 208.2 439.351 208.2C438.405 208.2 437.551 208 436.791 207.6C436.045 207.187 435.451 206.62 435.011 205.9C434.585 205.167 434.371 204.333 434.371 203.4C434.371 202.453 434.585 201.62 435.011 200.9C435.451 200.18 436.045 199.62 436.791 199.22C437.551 198.807 438.405 198.6 439.351 198.6C440.005 198.6 440.605 198.693 441.151 198.88C441.698 199.067 442.131 199.32 442.451 199.64V202.02C442.305 201.713 442.071 201.447 441.751 201.22C441.445 200.98 441.091 200.793 440.691 200.66C440.291 200.527 439.878 200.46 439.451 200.46C438.918 200.46 438.431 200.587 437.991 200.84C437.565 201.093 437.225 201.44 436.971 201.88C436.718 202.32 436.591 202.827 436.591 203.4ZM444.839 192.4H446.999V208H444.839V192.4ZM449.681 195.14C449.681 194.767 449.814 194.453 450.081 194.2C450.361 193.947 450.681 193.82 451.041 193.82C451.428 193.82 451.748 193.947 452.001 194.2C452.268 194.453 452.401 194.767 452.401 195.14C452.401 195.5 452.268 195.813 452.001 196.08C451.748 196.333 451.428 196.46 451.041 196.46C450.681 196.46 450.361 196.333 450.081 196.08C449.814 195.813 449.681 195.5 449.681 195.14ZM449.981 198.8H452.101V208H449.981V198.8ZM459.073 208.2C458.14 208.2 457.313 208 456.593 207.6C455.887 207.2 455.34 206.64 454.953 205.92C454.567 205.2 454.373 204.36 454.373 203.4C454.373 202.427 454.567 201.58 454.953 200.86C455.353 200.14 455.913 199.587 456.633 199.2C457.353 198.8 458.2 198.6 459.173 198.6C460.147 198.6 460.973 198.787 461.653 199.16C462.333 199.533 462.853 200.073 463.213 200.78C463.587 201.473 463.773 202.313 463.773 203.3C463.773 203.407 463.767 203.52 463.753 203.64C463.753 203.76 463.747 203.847 463.733 203.9H455.653V202.42H461.893L461.233 203.34C461.273 203.26 461.313 203.153 461.353 203.02C461.407 202.873 461.433 202.753 461.433 202.66C461.433 202.167 461.333 201.74 461.133 201.38C460.947 201.02 460.68 200.74 460.333 200.54C460 200.34 459.607 200.24 459.153 200.24C458.607 200.24 458.14 200.36 457.753 200.6C457.367 200.84 457.073 201.187 456.873 201.64C456.673 202.093 456.567 202.653 456.553 203.32C456.553 203.987 456.653 204.553 456.853 205.02C457.053 205.473 457.347 205.82 457.733 206.06C458.133 206.3 458.613 206.42 459.173 206.42C459.76 206.42 460.273 206.3 460.713 206.06C461.153 205.82 461.52 205.453 461.813 204.96L463.673 205.72C463.193 206.547 462.573 207.167 461.813 207.58C461.053 207.993 460.14 208.2 459.073 208.2ZM471.755 202.4C471.755 201.72 471.615 201.207 471.335 200.86C471.055 200.513 470.622 200.34 470.035 200.34C469.635 200.34 469.282 200.427 468.975 200.6C468.668 200.76 468.428 201 468.255 201.32C468.082 201.627 467.995 201.987 467.995 202.4V208H465.835V198.8H467.995V200.22C468.288 199.673 468.662 199.267 469.115 199C469.582 198.733 470.135 198.6 470.775 198.6C471.815 198.6 472.608 198.92 473.155 199.56C473.702 200.187 473.975 201.053 473.975 202.16V208H471.755V202.4ZM475.454 198.8H480.674V200.7H475.454V198.8ZM476.994 195.6H479.134V208H476.994V195.6Z" fill="white"/>
<path d="M330.396 336.84L334.516 327H337.236L330.396 341.78L323.556 327H326.276L330.396 336.84ZM338.605 328.14C338.605 327.767 338.738 327.453 339.005 327.2C339.285 326.947 339.605 326.82 339.965 326.82C340.351 326.82 340.671 326.947 340.925 327.2C341.191 327.453 341.325 327.767 341.325 328.14C341.325 328.5 341.191 328.813 340.925 329.08C340.671 329.333 340.351 329.46 339.965 329.46C339.605 329.46 339.285 329.333 339.005 329.08C338.738 328.813 338.605 328.5 338.605 328.14ZM338.905 331.8H341.025V341H338.905V331.8ZM344.417 337.98C344.711 338.3 345.004 338.58 345.297 338.82C345.604 339.047 345.911 339.22 346.217 339.34C346.524 339.447 346.831 339.5 347.137 339.5C347.524 339.5 347.824 339.413 348.037 339.24C348.264 339.067 348.377 338.827 348.377 338.52C348.377 338.253 348.291 338.027 348.117 337.84C347.944 337.64 347.704 337.473 347.397 337.34C347.091 337.193 346.731 337.047 346.317 336.9C345.904 336.74 345.491 336.553 345.077 336.34C344.677 336.113 344.344 335.82 344.077 335.46C343.824 335.1 343.697 334.647 343.697 334.1C343.697 333.54 343.837 333.073 344.117 332.7C344.411 332.327 344.797 332.053 345.277 331.88C345.771 331.693 346.297 331.6 346.857 331.6C347.364 331.6 347.837 331.673 348.277 331.82C348.731 331.967 349.137 332.16 349.497 332.4C349.857 332.64 350.164 332.913 350.417 333.22L349.217 334.5C348.911 334.14 348.544 333.847 348.117 333.62C347.691 333.393 347.251 333.28 346.797 333.28C346.491 333.28 346.237 333.347 346.037 333.48C345.837 333.613 345.737 333.807 345.737 334.06C345.737 334.273 345.824 334.467 345.997 334.64C346.184 334.8 346.424 334.947 346.717 335.08C347.024 335.213 347.364 335.353 347.737 335.5C348.244 335.7 348.711 335.92 349.137 336.16C349.564 336.4 349.904 336.693 350.157 337.04C350.424 337.387 350.557 337.84 350.557 338.4C350.557 339.267 350.257 339.967 349.657 340.5C349.071 341.02 348.271 341.28 347.257 341.28C346.631 341.28 346.051 341.187 345.517 341C344.997 340.8 344.537 340.547 344.137 340.24C343.751 339.92 343.424 339.587 343.157 339.24L344.417 337.98ZM354.694 337.4C354.694 338.053 354.834 338.56 355.114 338.92C355.394 339.28 355.82 339.46 356.394 339.46C356.807 339.46 357.167 339.38 357.474 339.22C357.78 339.047 358.02 338.807 358.194 338.5C358.367 338.18 358.454 337.813 358.454 337.4V331.8H360.614V341H358.454V339.58C358.16 340.113 357.78 340.52 357.314 340.8C356.86 341.067 356.314 341.2 355.674 341.2C354.647 341.2 353.854 340.88 353.294 340.24C352.747 339.6 352.474 338.733 352.474 337.64V331.8H354.694V337.4ZM364.732 338.14C364.732 338.447 364.806 338.713 364.952 338.94C365.099 339.153 365.299 339.313 365.552 339.42C365.819 339.527 366.119 339.58 366.452 339.58C366.879 339.58 367.266 339.493 367.612 339.32C367.972 339.147 368.259 338.893 368.472 338.56C368.699 338.213 368.812 337.813 368.812 337.36L369.132 338.56C369.132 339.147 368.959 339.64 368.612 340.04C368.279 340.427 367.852 340.72 367.332 340.92C366.826 341.107 366.306 341.2 365.772 341.2C365.199 341.2 364.666 341.087 364.172 340.86C363.679 340.633 363.286 340.3 362.992 339.86C362.699 339.42 362.552 338.887 362.552 338.26C362.552 337.367 362.866 336.66 363.492 336.14C364.119 335.607 365.006 335.34 366.152 335.34C366.766 335.34 367.292 335.407 367.732 335.54C368.186 335.673 368.559 335.833 368.852 336.02C369.146 336.193 369.352 336.353 369.472 336.5V337.6C369.059 337.307 368.619 337.093 368.152 336.96C367.686 336.827 367.192 336.76 366.672 336.76C366.219 336.76 365.852 336.82 365.572 336.94C365.292 337.047 365.079 337.2 364.932 337.4C364.799 337.6 364.732 337.847 364.732 338.14ZM364.052 334.2L363.172 332.68C363.586 332.427 364.119 332.18 364.772 331.94C365.439 331.7 366.199 331.58 367.052 331.58C367.812 331.58 368.479 331.693 369.052 331.92C369.639 332.147 370.099 332.473 370.432 332.9C370.766 333.313 370.932 333.827 370.932 334.44V341H368.812V334.86C368.812 334.567 368.759 334.327 368.652 334.14C368.559 333.953 368.426 333.8 368.252 333.68C368.079 333.56 367.872 333.473 367.632 333.42C367.392 333.367 367.132 333.34 366.852 333.34C366.426 333.34 366.019 333.393 365.632 333.5C365.259 333.593 364.932 333.713 364.652 333.86C364.386 333.993 364.186 334.107 364.052 334.2ZM373.45 325.4H375.61V341H373.45V325.4ZM385.808 336.4C385.808 336.987 385.935 337.5 386.188 337.94C386.442 338.367 386.782 338.707 387.208 338.96C387.648 339.213 388.135 339.34 388.668 339.34C389.108 339.34 389.528 339.273 389.928 339.14C390.328 339.007 390.682 338.82 390.988 338.58C391.295 338.34 391.522 338.073 391.668 337.78V340.16C391.348 340.48 390.915 340.733 390.368 340.92C389.822 341.107 389.222 341.2 388.568 341.2C387.622 341.2 386.768 341 386.008 340.6C385.262 340.187 384.668 339.62 384.228 338.9C383.802 338.167 383.588 337.333 383.588 336.4C383.588 335.453 383.802 334.62 384.228 333.9C384.668 333.18 385.262 332.62 386.008 332.22C386.768 331.807 387.622 331.6 388.568 331.6C389.222 331.6 389.822 331.693 390.368 331.88C390.915 332.067 391.348 332.32 391.668 332.64V335.02C391.522 334.713 391.288 334.447 390.968 334.22C390.662 333.98 390.308 333.793 389.908 333.66C389.508 333.527 389.095 333.46 388.668 333.46C388.135 333.46 387.648 333.587 387.208 333.84C386.782 334.093 386.442 334.44 386.188 334.88C385.935 335.32 385.808 335.827 385.808 336.4ZM393.356 336.4C393.356 335.453 393.569 334.62 393.996 333.9C394.436 333.18 395.029 332.62 395.776 332.22C396.522 331.807 397.369 331.6 398.316 331.6C399.262 331.6 400.102 331.807 400.836 332.22C401.582 332.62 402.176 333.18 402.616 333.9C403.056 334.62 403.276 335.453 403.276 336.4C403.276 337.333 403.056 338.167 402.616 338.9C402.176 339.62 401.582 340.187 400.836 340.6C400.102 341 399.262 341.2 398.316 341.2C397.369 341.2 396.522 341 395.776 340.6C395.029 340.187 394.436 339.62 393.996 338.9C393.569 338.167 393.356 337.333 393.356 336.4ZM395.576 336.4C395.576 336.973 395.696 337.48 395.936 337.92C396.176 338.347 396.502 338.687 396.916 338.94C397.329 339.18 397.796 339.3 398.316 339.3C398.822 339.3 399.282 339.18 399.696 338.94C400.122 338.687 400.456 338.347 400.696 337.92C400.936 337.48 401.056 336.973 401.056 336.4C401.056 335.827 400.936 335.32 400.696 334.88C400.456 334.44 400.122 334.1 399.696 333.86C399.282 333.62 398.822 333.5 398.316 333.5C397.796 333.5 397.329 333.62 396.916 333.86C396.502 334.1 396.176 334.44 395.936 334.88C395.696 335.32 395.576 335.827 395.576 336.4ZM411.245 335.4C411.245 334.72 411.105 334.207 410.825 333.86C410.545 333.513 410.112 333.34 409.525 333.34C409.125 333.34 408.772 333.427 408.465 333.6C408.159 333.76 407.919 334 407.745 334.32C407.572 334.627 407.485 334.987 407.485 335.4V341H405.325V331.8H407.485V333.22C407.779 332.673 408.152 332.267 408.605 332C409.072 331.733 409.625 331.6 410.265 331.6C411.305 331.6 412.099 331.92 412.645 332.56C413.192 333.187 413.465 334.053 413.465 335.16V341H411.245V335.4ZM417.664 336.4C417.664 336.987 417.79 337.5 418.044 337.94C418.297 338.367 418.637 338.707 419.064 338.96C419.504 339.213 419.99 339.34 420.524 339.34C420.964 339.34 421.384 339.273 421.784 339.14C422.184 339.007 422.537 338.82 422.844 338.58C423.15 338.34 423.377 338.073 423.524 337.78V340.16C423.204 340.48 422.77 340.733 422.224 340.92C421.677 341.107 421.077 341.2 420.424 341.2C419.477 341.2 418.624 341 417.864 340.6C417.117 340.187 416.524 339.62 416.084 338.9C415.657 338.167 415.444 337.333 415.444 336.4C415.444 335.453 415.657 334.62 416.084 333.9C416.524 333.18 417.117 332.62 417.864 332.22C418.624 331.807 419.477 331.6 420.424 331.6C421.077 331.6 421.677 331.693 422.224 331.88C422.77 332.067 423.204 332.32 423.524 332.64V335.02C423.377 334.713 423.144 334.447 422.824 334.22C422.517 333.98 422.164 333.793 421.764 333.66C421.364 333.527 420.95 333.46 420.524 333.46C419.99 333.46 419.504 333.587 419.064 333.84C418.637 334.093 418.297 334.44 418.044 334.88C417.79 335.32 417.664 335.827 417.664 336.4ZM429.911 341.2C428.978 341.2 428.151 341 427.431 340.6C426.725 340.2 426.178 339.64 425.791 338.92C425.405 338.2 425.211 337.36 425.211 336.4C425.211 335.427 425.405 334.58 425.791 333.86C426.191 333.14 426.751 332.587 427.471 332.2C428.191 331.8 429.038 331.6 430.011 331.6C430.985 331.6 431.811 331.787 432.491 332.16C433.171 332.533 433.691 333.073 434.051 333.78C434.425 334.473 434.611 335.313 434.611 336.3C434.611 336.407 434.605 336.52 434.591 336.64C434.591 336.76 434.585 336.847 434.571 336.9H426.491V335.42H432.731L432.071 336.34C432.111 336.26 432.151 336.153 432.191 336.02C432.245 335.873 432.271 335.753 432.271 335.66C432.271 335.167 432.171 334.74 431.971 334.38C431.785 334.02 431.518 333.74 431.171 333.54C430.838 333.34 430.445 333.24 429.991 333.24C429.445 333.24 428.978 333.36 428.591 333.6C428.205 333.84 427.911 334.187 427.711 334.64C427.511 335.093 427.405 335.653 427.391 336.32C427.391 336.987 427.491 337.553 427.691 338.02C427.891 338.473 428.185 338.82 428.571 339.06C428.971 339.3 429.451 339.42 430.011 339.42C430.598 339.42 431.111 339.3 431.551 339.06C431.991 338.82 432.358 338.453 432.651 337.96L434.511 338.72C434.031 339.547 433.411 340.167 432.651 340.58C431.891 340.993 430.978 341.2 429.911 341.2ZM438.773 345.4H436.593V331.8H438.773V345.4ZM446.393 336.4C446.393 337.413 446.186 338.287 445.773 339.02C445.36 339.74 444.813 340.293 444.133 340.68C443.453 341.053 442.713 341.24 441.913 341.24C441.126 341.24 440.44 341.047 439.853 340.66C439.28 340.26 438.833 339.7 438.513 338.98C438.206 338.247 438.053 337.387 438.053 336.4C438.053 335.4 438.206 334.54 438.513 333.82C438.833 333.1 439.28 332.547 439.853 332.16C440.44 331.76 441.126 331.56 441.913 331.56C442.713 331.56 443.453 331.753 444.133 332.14C444.813 332.513 445.36 333.06 445.773 333.78C446.186 334.5 446.393 335.373 446.393 336.4ZM444.153 336.4C444.153 335.787 444.026 335.267 443.773 334.84C443.52 334.4 443.18 334.073 442.753 333.86C442.34 333.633 441.88 333.52 441.373 333.52C440.96 333.52 440.553 333.633 440.153 333.86C439.753 334.073 439.42 334.393 439.153 334.82C438.9 335.247 438.773 335.773 438.773 336.4C438.773 337.027 438.9 337.553 439.153 337.98C439.42 338.407 439.753 338.733 440.153 338.96C440.553 339.173 440.96 339.28 441.373 339.28C441.88 339.28 442.34 339.173 442.753 338.96C443.18 338.733 443.52 338.407 443.773 337.98C444.026 337.54 444.153 337.013 444.153 336.4ZM447.17 331.8H452.39V333.7H447.17V331.8ZM448.71 328.6H450.85V341H448.71V328.6Z" fill="white"/>
<path d="M351.962 463H354.362V477H351.962V463ZM356.482 477H353.422V474.78H356.422C357.116 474.78 357.756 474.68 358.342 474.48C358.929 474.28 359.436 473.98 359.862 473.58C360.302 473.18 360.642 472.68 360.882 472.08C361.136 471.48 361.262 470.787 361.262 470C361.262 469.213 361.136 468.52 360.882 467.92C360.642 467.32 360.302 466.82 359.862 466.42C359.436 466.02 358.929 465.72 358.342 465.52C357.756 465.32 357.116 465.22 356.422 465.22H353.422V463H356.482C357.909 463 359.162 463.293 360.242 463.88C361.322 464.453 362.162 465.267 362.762 466.32C363.376 467.36 363.682 468.587 363.682 470C363.682 471.413 363.376 472.647 362.762 473.7C362.162 474.74 361.322 475.553 360.242 476.14C359.162 476.713 357.909 477 356.482 477ZM369.806 477.2C368.872 477.2 368.046 477 367.326 476.6C366.619 476.2 366.072 475.64 365.686 474.92C365.299 474.2 365.106 473.36 365.106 472.4C365.106 471.427 365.299 470.58 365.686 469.86C366.086 469.14 366.646 468.587 367.366 468.2C368.086 467.8 368.932 467.6 369.906 467.6C370.879 467.6 371.706 467.787 372.386 468.16C373.066 468.533 373.586 469.073 373.946 469.78C374.319 470.473 374.506 471.313 374.506 472.3C374.506 472.407 374.499 472.52 374.486 472.64C374.486 472.76 374.479 472.847 374.466 472.9H366.386V471.42H372.626L371.966 472.34C372.006 472.26 372.046 472.153 372.086 472.02C372.139 471.873 372.166 471.753 372.166 471.66C372.166 471.167 372.066 470.74 371.866 470.38C371.679 470.02 371.412 469.74 371.066 469.54C370.732 469.34 370.339 469.24 369.886 469.24C369.339 469.24 368.872 469.36 368.486 469.6C368.099 469.84 367.806 470.187 367.606 470.64C367.406 471.093 367.299 471.653 367.286 472.32C367.286 472.987 367.386 473.553 367.586 474.02C367.786 474.473 368.079 474.82 368.466 475.06C368.866 475.3 369.346 475.42 369.906 475.42C370.492 475.42 371.006 475.3 371.446 475.06C371.886 474.82 372.252 474.453 372.546 473.96L374.406 474.72C373.926 475.547 373.306 476.167 372.546 476.58C371.786 476.993 370.872 477.2 369.806 477.2ZM376.988 473.98C377.281 474.3 377.574 474.58 377.868 474.82C378.174 475.047 378.481 475.22 378.788 475.34C379.094 475.447 379.401 475.5 379.708 475.5C380.094 475.5 380.394 475.413 380.608 475.24C380.834 475.067 380.948 474.827 380.948 474.52C380.948 474.253 380.861 474.027 380.688 473.84C380.514 473.64 380.274 473.473 379.968 473.34C379.661 473.193 379.301 473.047 378.888 472.9C378.474 472.74 378.061 472.553 377.648 472.34C377.248 472.113 376.914 471.82 376.648 471.46C376.394 471.1 376.268 470.647 376.268 470.1C376.268 469.54 376.408 469.073 376.688 468.7C376.981 468.327 377.368 468.053 377.848 467.88C378.341 467.693 378.868 467.6 379.428 467.6C379.934 467.6 380.408 467.673 380.848 467.82C381.301 467.967 381.708 468.16 382.068 468.4C382.428 468.64 382.734 468.913 382.988 469.22L381.788 470.5C381.481 470.14 381.114 469.847 380.688 469.62C380.261 469.393 379.821 469.28 379.368 469.28C379.061 469.28 378.808 469.347 378.608 469.48C378.408 469.613 378.308 469.807 378.308 470.06C378.308 470.273 378.394 470.467 378.568 470.64C378.754 470.8 378.994 470.947 379.288 471.08C379.594 471.213 379.934 471.353 380.308 471.5C380.814 471.7 381.281 471.92 381.708 472.16C382.134 472.4 382.474 472.693 382.728 473.04C382.994 473.387 383.128 473.84 383.128 474.4C383.128 475.267 382.828 475.967 382.228 476.5C381.641 477.02 380.841 477.28 379.828 477.28C379.201 477.28 378.621 477.187 378.088 477C377.568 476.8 377.108 476.547 376.708 476.24C376.321 475.92 375.994 475.587 375.728 475.24L376.988 473.98ZM384.964 464.14C384.964 463.767 385.097 463.453 385.364 463.2C385.644 462.947 385.964 462.82 386.324 462.82C386.711 462.82 387.031 462.947 387.284 463.2C387.551 463.453 387.684 463.767 387.684 464.14C387.684 464.5 387.551 464.813 387.284 465.08C387.031 465.333 386.711 465.46 386.324 465.46C385.964 465.46 385.644 465.333 385.364 465.08C385.097 464.813 384.964 464.5 384.964 464.14ZM385.264 467.8H387.384V477H385.264V467.8ZM389.837 477.62H391.977C391.99 478.033 392.103 478.407 392.317 478.74C392.543 479.073 392.85 479.333 393.237 479.52C393.623 479.707 394.07 479.8 394.577 479.8C395.03 479.8 395.463 479.693 395.877 479.48C396.29 479.267 396.623 478.94 396.877 478.5C397.143 478.06 397.277 477.493 397.277 476.8V467.8H399.397V476.8C399.397 477.907 399.17 478.82 398.717 479.54C398.277 480.26 397.697 480.793 396.977 481.14C396.257 481.5 395.477 481.68 394.637 481.68C393.637 481.68 392.783 481.507 392.077 481.16C391.37 480.827 390.823 480.353 390.437 479.74C390.063 479.127 389.863 478.42 389.837 477.62ZM389.657 472.36C389.657 471.333 389.863 470.473 390.277 469.78C390.69 469.073 391.237 468.533 391.917 468.16C392.61 467.787 393.35 467.6 394.137 467.6C394.91 467.6 395.583 467.793 396.157 468.18C396.743 468.553 397.203 469.093 397.537 469.8C397.883 470.507 398.057 471.36 398.057 472.36C398.057 473.347 397.883 474.193 397.537 474.9C397.203 475.607 396.743 476.153 396.157 476.54C395.583 476.913 394.91 477.1 394.137 477.1C393.35 477.1 392.61 476.913 391.917 476.54C391.237 476.167 390.69 475.627 390.277 474.92C389.863 474.213 389.657 473.36 389.657 472.36ZM391.897 472.36C391.897 472.973 392.023 473.493 392.277 473.92C392.53 474.347 392.863 474.673 393.277 474.9C393.703 475.113 394.163 475.22 394.657 475.22C395.07 475.22 395.477 475.113 395.877 474.9C396.29 474.687 396.623 474.367 396.877 473.94C397.143 473.5 397.277 472.973 397.277 472.36C397.277 471.88 397.197 471.467 397.037 471.12C396.89 470.76 396.69 470.46 396.437 470.22C396.183 469.967 395.897 469.78 395.577 469.66C395.27 469.54 394.963 469.48 394.657 469.48C394.163 469.48 393.703 469.593 393.277 469.82C392.863 470.033 392.53 470.353 392.277 470.78C392.023 471.207 391.897 471.733 391.897 472.36ZM407.995 471.4C407.995 470.72 407.855 470.207 407.575 469.86C407.295 469.513 406.862 469.34 406.275 469.34C405.875 469.34 405.522 469.427 405.215 469.6C404.909 469.76 404.669 470 404.495 470.32C404.322 470.627 404.235 470.987 404.235 471.4V477H402.075V467.8H404.235V469.22C404.529 468.673 404.902 468.267 405.355 468C405.822 467.733 406.375 467.6 407.015 467.6C408.055 467.6 408.849 467.92 409.395 468.56C409.942 469.187 410.215 470.053 410.215 471.16V477H407.995V471.4Z" fill="white"/>
<path d="M309.789 585H312.149V599H309.789V585ZM311.189 587.08V585H314.009C315.022 585 315.902 585.18 316.649 585.54C317.409 585.887 317.995 586.387 318.409 587.04C318.822 587.68 319.029 588.447 319.029 589.34C319.029 590.233 318.822 591.007 318.409 591.66C317.995 592.313 317.409 592.82 316.649 593.18C315.902 593.527 315.022 593.7 314.009 593.7H311.189V591.62H314.009C314.822 591.62 315.475 591.427 315.969 591.04C316.462 590.653 316.709 590.087 316.709 589.34C316.709 588.593 316.462 588.033 315.969 587.66C315.475 587.273 314.822 587.08 314.009 587.08H311.189ZM322.92 589.8V599H320.78V589.8H322.92ZM325.66 592.1C325.46 591.94 325.274 591.82 325.1 591.74C324.927 591.66 324.707 591.62 324.44 591.62C324.08 591.62 323.787 591.713 323.56 591.9C323.334 592.087 323.167 592.347 323.06 592.68C322.967 593 322.92 593.38 322.92 593.82L322.2 593.4C322.2 592.667 322.334 592.02 322.6 591.46C322.88 590.887 323.234 590.433 323.66 590.1C324.1 589.767 324.554 589.6 325.02 589.6C325.354 589.6 325.667 589.653 325.96 589.76C326.254 589.853 326.5 590.027 326.7 590.28L325.66 592.1ZM327.19 594.4C327.19 593.453 327.403 592.62 327.83 591.9C328.27 591.18 328.863 590.62 329.61 590.22C330.356 589.807 331.203 589.6 332.15 589.6C333.096 589.6 333.936 589.807 334.67 590.22C335.416 590.62 336.01 591.18 336.45 591.9C336.89 592.62 337.11 593.453 337.11 594.4C337.11 595.333 336.89 596.167 336.45 596.9C336.01 597.62 335.416 598.187 334.67 598.6C333.936 599 333.096 599.2 332.15 599.2C331.203 599.2 330.356 599 329.61 598.6C328.863 598.187 328.27 597.62 327.83 596.9C327.403 596.167 327.19 595.333 327.19 594.4ZM329.41 594.4C329.41 594.973 329.53 595.48 329.77 595.92C330.01 596.347 330.336 596.687 330.75 596.94C331.163 597.18 331.63 597.3 332.15 597.3C332.656 597.3 333.116 597.18 333.53 596.94C333.956 596.687 334.29 596.347 334.53 595.92C334.77 595.48 334.89 594.973 334.89 594.4C334.89 593.827 334.77 593.32 334.53 592.88C334.29 592.44 333.956 592.1 333.53 591.86C333.116 591.62 332.656 591.5 332.15 591.5C331.63 591.5 331.163 591.62 330.75 591.86C330.336 592.1 330.01 592.44 329.77 592.88C329.53 593.32 329.41 593.827 329.41 594.4ZM338.639 599.62H340.779C340.793 600.033 340.906 600.407 341.119 600.74C341.346 601.073 341.653 601.333 342.039 601.52C342.426 601.707 342.873 601.8 343.379 601.8C343.833 601.8 344.266 601.693 344.679 601.48C345.093 601.267 345.426 600.94 345.679 600.5C345.946 600.06 346.079 599.493 346.079 598.8V589.8H348.199V598.8C348.199 599.907 347.973 600.82 347.519 601.54C347.079 602.26 346.499 602.793 345.779 603.14C345.059 603.5 344.279 603.68 343.439 603.68C342.439 603.68 341.586 603.507 340.879 603.16C340.173 602.827 339.626 602.353 339.239 601.74C338.866 601.127 338.666 600.42 338.639 599.62ZM338.459 594.36C338.459 593.333 338.666 592.473 339.079 591.78C339.493 591.073 340.039 590.533 340.719 590.16C341.413 589.787 342.153 589.6 342.939 589.6C343.713 589.6 344.386 589.793 344.959 590.18C345.546 590.553 346.006 591.093 346.339 591.8C346.686 592.507 346.859 593.36 346.859 594.36C346.859 595.347 346.686 596.193 346.339 596.9C346.006 597.607 345.546 598.153 344.959 598.54C344.386 598.913 343.713 599.1 342.939 599.1C342.153 599.1 341.413 598.913 340.719 598.54C340.039 598.167 339.493 597.627 339.079 596.92C338.666 596.213 338.459 595.36 338.459 594.36ZM340.699 594.36C340.699 594.973 340.826 595.493 341.079 595.92C341.333 596.347 341.666 596.673 342.079 596.9C342.506 597.113 342.966 597.22 343.459 597.22C343.873 597.22 344.279 597.113 344.679 596.9C345.093 596.687 345.426 596.367 345.679 595.94C345.946 595.5 346.079 594.973 346.079 594.36C346.079 593.88 345.999 593.467 345.839 593.12C345.693 592.76 345.493 592.46 345.239 592.22C344.986 591.967 344.699 591.78 344.379 591.66C344.073 591.54 343.766 591.48 343.459 591.48C342.966 591.48 342.506 591.593 342.079 591.82C341.666 592.033 341.333 592.353 341.079 592.78C340.826 593.207 340.699 593.733 340.699 594.36ZM353.018 589.8V599H350.878V589.8H353.018ZM355.758 592.1C355.558 591.94 355.371 591.82 355.198 591.74C355.025 591.66 354.805 591.62 354.538 591.62C354.178 591.62 353.885 591.713 353.658 591.9C353.431 592.087 353.265 592.347 353.158 592.68C353.065 593 353.018 593.38 353.018 593.82L352.298 593.4C352.298 592.667 352.431 592.02 352.698 591.46C352.978 590.887 353.331 590.433 353.758 590.1C354.198 589.767 354.651 589.6 355.118 589.6C355.451 589.6 355.765 589.653 356.058 589.76C356.351 589.853 356.598 590.027 356.798 590.28L355.758 592.1ZM359.64 596.14C359.64 596.447 359.714 596.713 359.86 596.94C360.007 597.153 360.207 597.313 360.46 597.42C360.727 597.527 361.027 597.58 361.36 597.58C361.787 597.58 362.174 597.493 362.52 597.32C362.88 597.147 363.167 596.893 363.38 596.56C363.607 596.213 363.72 595.813 363.72 595.36L364.04 596.56C364.04 597.147 363.867 597.64 363.52 598.04C363.187 598.427 362.76 598.72 362.24 598.92C361.734 599.107 361.214 599.2 360.68 599.2C360.107 599.2 359.574 599.087 359.08 598.86C358.587 598.633 358.194 598.3 357.9 597.86C357.607 597.42 357.46 596.887 357.46 596.26C357.46 595.367 357.774 594.66 358.4 594.14C359.027 593.607 359.914 593.34 361.06 593.34C361.674 593.34 362.2 593.407 362.64 593.54C363.094 593.673 363.467 593.833 363.76 594.02C364.054 594.193 364.26 594.353 364.38 594.5V595.6C363.967 595.307 363.527 595.093 363.06 594.96C362.594 594.827 362.1 594.76 361.58 594.76C361.127 594.76 360.76 594.82 360.48 594.94C360.2 595.047 359.987 595.2 359.84 595.4C359.707 595.6 359.64 595.847 359.64 596.14ZM358.96 592.2L358.08 590.68C358.494 590.427 359.027 590.18 359.68 589.94C360.347 589.7 361.107 589.58 361.96 589.58C362.72 589.58 363.387 589.693 363.96 589.92C364.547 590.147 365.007 590.473 365.34 590.9C365.674 591.313 365.84 591.827 365.84 592.44V599H363.72V592.86C363.72 592.567 363.667 592.327 363.56 592.14C363.467 591.953 363.334 591.8 363.16 591.68C362.987 591.56 362.78 591.473 362.54 591.42C362.3 591.367 362.04 591.34 361.76 591.34C361.334 591.34 360.927 591.393 360.54 591.5C360.167 591.593 359.84 591.713 359.56 591.86C359.294 591.993 359.094 592.107 358.96 592.2ZM381.519 593.16V599H379.359V593.4C379.359 592.707 379.232 592.193 378.979 591.86C378.739 591.513 378.352 591.34 377.819 591.34C377.459 591.34 377.139 591.42 376.859 591.58C376.592 591.74 376.379 591.973 376.219 592.28C376.072 592.587 375.999 592.96 375.999 593.4V599H373.839V593.4C373.839 592.707 373.712 592.193 373.459 591.86C373.219 591.513 372.832 591.34 372.299 591.34C371.925 591.34 371.599 591.42 371.319 591.58C371.052 591.74 370.845 591.973 370.699 592.28C370.552 592.587 370.479 592.96 370.479 593.4V599H368.359V589.8H370.479V591.14C370.745 590.633 371.092 590.253 371.519 590C371.959 589.733 372.472 589.6 373.059 589.6C373.739 589.6 374.299 589.74 374.739 590.02C375.192 590.3 375.519 590.707 375.719 591.24C376.039 590.707 376.439 590.3 376.919 590.02C377.412 589.74 377.972 589.6 378.599 589.6C379.252 589.6 379.792 589.74 380.219 590.02C380.659 590.287 380.985 590.687 381.199 591.22C381.412 591.753 381.519 592.4 381.519 593.16ZM397.436 593.16V599H395.276V593.4C395.276 592.707 395.15 592.193 394.896 591.86C394.656 591.513 394.27 591.34 393.736 591.34C393.376 591.34 393.056 591.42 392.776 591.58C392.51 591.74 392.296 591.973 392.136 592.28C391.99 592.587 391.916 592.96 391.916 593.4V599H389.756V593.4C389.756 592.707 389.63 592.193 389.376 591.86C389.136 591.513 388.75 591.34 388.216 591.34C387.843 591.34 387.516 591.42 387.236 591.58C386.97 591.74 386.763 591.973 386.616 592.28C386.47 592.587 386.396 592.96 386.396 593.4V599H384.276V589.8H386.396V591.14C386.663 590.633 387.01 590.253 387.436 590C387.876 589.733 388.39 589.6 388.976 589.6C389.656 589.6 390.216 589.74 390.656 590.02C391.11 590.3 391.436 590.707 391.636 591.24C391.956 590.707 392.356 590.3 392.836 590.02C393.33 589.74 393.89 589.6 394.516 589.6C395.17 589.6 395.71 589.74 396.136 590.02C396.576 590.287 396.903 590.687 397.116 591.22C397.33 591.753 397.436 592.4 397.436 593.16ZM400.114 586.14C400.114 585.767 400.248 585.453 400.514 585.2C400.794 584.947 401.114 584.82 401.474 584.82C401.861 584.82 402.181 584.947 402.434 585.2C402.701 585.453 402.834 585.767 402.834 586.14C402.834 586.5 402.701 586.813 402.434 587.08C402.181 587.333 401.861 587.46 401.474 587.46C401.114 587.46 400.794 587.333 400.514 587.08C400.248 586.813 400.114 586.5 400.114 586.14ZM400.414 589.8H402.534V599H400.414V589.8ZM411.427 593.4C411.427 592.72 411.287 592.207 411.007 591.86C410.727 591.513 410.294 591.34 409.707 591.34C409.307 591.34 408.954 591.427 408.647 591.6C408.34 591.76 408.1 592 407.927 592.32C407.754 592.627 407.667 592.987 407.667 593.4V599H405.507V589.8H407.667V591.22C407.96 590.673 408.334 590.267 408.787 590C409.254 589.733 409.807 589.6 410.447 589.6C411.487 589.6 412.28 589.92 412.827 590.56C413.374 591.187 413.647 592.053 413.647 593.16V599H411.427V593.4ZM415.885 599.62H418.025C418.039 600.033 418.152 600.407 418.365 600.74C418.592 601.073 418.899 601.333 419.285 601.52C419.672 601.707 420.119 601.8 420.625 601.8C421.079 601.8 421.512 601.693 421.925 601.48C422.339 601.267 422.672 600.94 422.925 600.5C423.192 600.06 423.325 599.493 423.325 598.8V589.8H425.445V598.8C425.445 599.907 425.219 600.82 424.765 601.54C424.325 602.26 423.745 602.793 423.025 603.14C422.305 603.5 421.525 603.68 420.685 603.68C419.685 603.68 418.832 603.507 418.125 603.16C417.419 602.827 416.872 602.353 416.485 601.74C416.112 601.127 415.912 600.42 415.885 599.62ZM415.705 594.36C415.705 593.333 415.912 592.473 416.325 591.78C416.739 591.073 417.285 590.533 417.965 590.16C418.659 589.787 419.399 589.6 420.185 589.6C420.959 589.6 421.632 589.793 422.205 590.18C422.792 590.553 423.252 591.093 423.585 591.8C423.932 592.507 424.105 593.36 424.105 594.36C424.105 595.347 423.932 596.193 423.585 596.9C423.252 597.607 422.792 598.153 422.205 598.54C421.632 598.913 420.959 599.1 420.185 599.1C419.399 599.1 418.659 598.913 417.965 598.54C417.285 598.167 416.739 597.627 416.325 596.92C415.912 596.213 415.705 595.36 415.705 594.36ZM417.945 594.36C417.945 594.973 418.072 595.493 418.325 595.92C418.579 596.347 418.912 596.673 419.325 596.9C419.752 597.113 420.212 597.22 420.705 597.22C421.119 597.22 421.525 597.113 421.925 596.9C422.339 596.687 422.672 596.367 422.925 595.94C423.192 595.5 423.325 594.973 423.325 594.36C423.325 593.88 423.245 593.467 423.085 593.12C422.939 592.76 422.739 592.46 422.485 592.22C422.232 591.967 421.945 591.78 421.625 591.66C421.319 591.54 421.012 591.48 420.705 591.48C420.212 591.48 419.752 591.593 419.325 591.82C418.912 592.033 418.579 592.353 418.325 592.78C418.072 593.207 417.945 593.733 417.945 594.36ZM432.84 589.8H438.06V591.7H432.84V589.8ZM434.38 586.6H436.52V599H434.38V586.6ZM441.71 583.4V599H439.55V583.4H441.71ZM445.47 593.4C445.47 592.72 445.33 592.207 445.05 591.86C444.783 591.513 444.35 591.34 443.75 591.34C443.35 591.34 442.997 591.427 442.69 591.6C442.383 591.773 442.143 592.013 441.97 592.32C441.797 592.627 441.71 592.987 441.71 593.4H441.19C441.19 592.667 441.323 592.013 441.59 591.44C441.857 590.867 442.23 590.407 442.71 590.06C443.203 589.713 443.797 589.54 444.49 589.54C445.17 589.54 445.743 589.673 446.21 589.94C446.69 590.207 447.05 590.607 447.29 591.14C447.53 591.66 447.65 592.313 447.65 593.1V599H445.47V593.4ZM454.39 599.2C453.456 599.2 452.63 599 451.91 598.6C451.203 598.2 450.656 597.64 450.27 596.92C449.883 596.2 449.69 595.36 449.69 594.4C449.69 593.427 449.883 592.58 450.27 591.86C450.67 591.14 451.23 590.587 451.95 590.2C452.67 589.8 453.516 589.6 454.49 589.6C455.463 589.6 456.29 589.787 456.97 590.16C457.65 590.533 458.17 591.073 458.53 591.78C458.903 592.473 459.09 593.313 459.09 594.3C459.09 594.407 459.083 594.52 459.07 594.64C459.07 594.76 459.063 594.847 459.05 594.9H450.97V593.42H457.21L456.55 594.34C456.59 594.26 456.63 594.153 456.67 594.02C456.723 593.873 456.75 593.753 456.75 593.66C456.75 593.167 456.65 592.74 456.45 592.38C456.263 592.02 455.996 591.74 455.65 591.54C455.316 591.34 454.923 591.24 454.47 591.24C453.923 591.24 453.456 591.36 453.07 591.6C452.683 591.84 452.39 592.187 452.19 592.64C451.99 593.093 451.883 593.653 451.87 594.32C451.87 594.987 451.97 595.553 452.17 596.02C452.37 596.473 452.663 596.82 453.05 597.06C453.45 597.3 453.93 597.42 454.49 597.42C455.076 597.42 455.59 597.3 456.03 597.06C456.47 596.82 456.836 596.453 457.13 595.96L458.99 596.72C458.51 597.547 457.89 598.167 457.13 598.58C456.37 598.993 455.456 599.2 454.39 599.2ZM342.046 618.8H344.406L346.806 624.74L349.206 618.8H351.586L346.806 628.84L342.046 618.8ZM352.859 615.14C352.859 614.767 352.992 614.453 353.259 614.2C353.539 613.947 353.859 613.82 354.219 613.82C354.605 613.82 354.925 613.947 355.179 614.2C355.445 614.453 355.579 614.767 355.579 615.14C355.579 615.5 355.445 615.813 355.179 616.08C354.925 616.333 354.605 616.46 354.219 616.46C353.859 616.46 353.539 616.333 353.259 616.08C352.992 615.813 352.859 615.5 352.859 615.14ZM353.159 618.8H355.279V628H353.159V618.8ZM358.671 624.98C358.964 625.3 359.258 625.58 359.551 625.82C359.858 626.047 360.164 626.22 360.471 626.34C360.778 626.447 361.084 626.5 361.391 626.5C361.778 626.5 362.078 626.413 362.291 626.24C362.518 626.067 362.631 625.827 362.631 625.52C362.631 625.253 362.544 625.027 362.371 624.84C362.198 624.64 361.958 624.473 361.651 624.34C361.344 624.193 360.984 624.047 360.571 623.9C360.158 623.74 359.744 623.553 359.331 623.34C358.931 623.113 358.598 622.82 358.331 622.46C358.078 622.1 357.951 621.647 357.951 621.1C357.951 620.54 358.091 620.073 358.371 619.7C358.664 619.327 359.051 619.053 359.531 618.88C360.024 618.693 360.551 618.6 361.111 618.6C361.618 618.6 362.091 618.673 362.531 618.82C362.984 618.967 363.391 619.16 363.751 619.4C364.111 619.64 364.418 619.913 364.671 620.22L363.471 621.5C363.164 621.14 362.798 620.847 362.371 620.62C361.944 620.393 361.504 620.28 361.051 620.28C360.744 620.28 360.491 620.347 360.291 620.48C360.091 620.613 359.991 620.807 359.991 621.06C359.991 621.273 360.078 621.467 360.251 621.64C360.438 621.8 360.678 621.947 360.971 622.08C361.278 622.213 361.618 622.353 361.991 622.5C362.498 622.7 362.964 622.92 363.391 623.16C363.818 623.4 364.158 623.693 364.411 624.04C364.678 624.387 364.811 624.84 364.811 625.4C364.811 626.267 364.511 626.967 363.911 627.5C363.324 628.02 362.524 628.28 361.511 628.28C360.884 628.28 360.304 628.187 359.771 628C359.251 627.8 358.791 627.547 358.391 627.24C358.004 626.92 357.678 626.587 357.411 626.24L358.671 624.98ZM368.948 624.4C368.948 625.053 369.088 625.56 369.368 625.92C369.648 626.28 370.074 626.46 370.648 626.46C371.061 626.46 371.421 626.38 371.728 626.22C372.034 626.047 372.274 625.807 372.448 625.5C372.621 625.18 372.708 624.813 372.708 624.4V618.8H374.868V628H372.708V626.58C372.414 627.113 372.034 627.52 371.568 627.8C371.114 628.067 370.568 628.2 369.928 628.2C368.901 628.2 368.108 627.88 367.548 627.24C367.001 626.6 366.728 625.733 366.728 624.64V618.8H368.948V624.4ZM378.986 625.14C378.986 625.447 379.059 625.713 379.206 625.94C379.353 626.153 379.553 626.313 379.806 626.42C380.073 626.527 380.373 626.58 380.706 626.58C381.133 626.58 381.519 626.493 381.866 626.32C382.226 626.147 382.513 625.893 382.726 625.56C382.953 625.213 383.066 624.813 383.066 624.36L383.386 625.56C383.386 626.147 383.213 626.64 382.866 627.04C382.533 627.427 382.106 627.72 381.586 627.92C381.079 628.107 380.559 628.2 380.026 628.2C379.453 628.2 378.919 628.087 378.426 627.86C377.933 627.633 377.539 627.3 377.246 626.86C376.953 626.42 376.806 625.887 376.806 625.26C376.806 624.367 377.119 623.66 377.746 623.14C378.373 622.607 379.259 622.34 380.406 622.34C381.019 622.34 381.546 622.407 381.986 622.54C382.439 622.673 382.813 622.833 383.106 623.02C383.399 623.193 383.606 623.353 383.726 623.5V624.6C383.313 624.307 382.873 624.093 382.406 623.96C381.939 623.827 381.446 623.76 380.926 623.76C380.473 623.76 380.106 623.82 379.826 623.94C379.546 624.047 379.333 624.2 379.186 624.4C379.053 624.6 378.986 624.847 378.986 625.14ZM378.306 621.2L377.426 619.68C377.839 619.427 378.373 619.18 379.026 618.94C379.693 618.7 380.453 618.58 381.306 618.58C382.066 618.58 382.733 618.693 383.306 618.92C383.893 619.147 384.353 619.473 384.686 619.9C385.019 620.313 385.186 620.827 385.186 621.44V628H383.066V621.86C383.066 621.567 383.013 621.327 382.906 621.14C382.813 620.953 382.679 620.8 382.506 620.68C382.333 620.56 382.126 620.473 381.886 620.42C381.646 620.367 381.386 620.34 381.106 620.34C380.679 620.34 380.273 620.393 379.886 620.5C379.513 620.593 379.186 620.713 378.906 620.86C378.639 620.993 378.439 621.107 378.306 621.2ZM387.704 612.4H389.864V628H387.704V612.4ZM400.722 632.4H398.542V618.8H400.722V632.4ZM408.342 623.4C408.342 624.413 408.136 625.287 407.722 626.02C407.309 626.74 406.762 627.293 406.082 627.68C405.402 628.053 404.662 628.24 403.862 628.24C403.076 628.24 402.389 628.047 401.802 627.66C401.229 627.26 400.782 626.7 400.462 625.98C400.156 625.247 400.002 624.387 400.002 623.4C400.002 622.4 400.156 621.54 400.462 620.82C400.782 620.1 401.229 619.547 401.802 619.16C402.389 618.76 403.076 618.56 403.862 618.56C404.662 618.56 405.402 618.753 406.082 619.14C406.762 619.513 407.309 620.06 407.722 620.78C408.136 621.5 408.342 622.373 408.342 623.4ZM406.102 623.4C406.102 622.787 405.976 622.267 405.722 621.84C405.469 621.4 405.129 621.073 404.702 620.86C404.289 620.633 403.829 620.52 403.322 620.52C402.909 620.52 402.502 620.633 402.102 620.86C401.702 621.073 401.369 621.393 401.102 621.82C400.849 622.247 400.722 622.773 400.722 623.4C400.722 624.027 400.849 624.553 401.102 624.98C401.369 625.407 401.702 625.733 402.102 625.96C402.502 626.173 402.909 626.28 403.322 626.28C403.829 626.28 404.289 626.173 404.702 625.96C405.129 625.733 405.469 625.407 405.722 624.98C405.976 624.54 406.102 624.013 406.102 623.4ZM411.76 625.14C411.76 625.447 411.833 625.713 411.98 625.94C412.126 626.153 412.326 626.313 412.58 626.42C412.846 626.527 413.146 626.58 413.48 626.58C413.906 626.58 414.293 626.493 414.64 626.32C415 626.147 415.286 625.893 415.5 625.56C415.726 625.213 415.84 624.813 415.84 624.36L416.16 625.56C416.16 626.147 415.986 626.64 415.64 627.04C415.306 627.427 414.88 627.72 414.36 627.92C413.853 628.107 413.333 628.2 412.8 628.2C412.226 628.2 411.693 628.087 411.2 627.86C410.706 627.633 410.313 627.3 410.02 626.86C409.726 626.42 409.58 625.887 409.58 625.26C409.58 624.367 409.893 623.66 410.52 623.14C411.146 622.607 412.033 622.34 413.18 622.34C413.793 622.34 414.32 622.407 414.76 622.54C415.213 622.673 415.586 622.833 415.88 623.02C416.173 623.193 416.38 623.353 416.5 623.5V624.6C416.086 624.307 415.646 624.093 415.18 623.96C414.713 623.827 414.22 623.76 413.7 623.76C413.246 623.76 412.88 623.82 412.6 623.94C412.32 624.047 412.106 624.2 411.96 624.4C411.826 624.6 411.76 624.847 411.76 625.14ZM411.08 621.2L410.2 619.68C410.613 619.427 411.146 619.18 411.8 618.94C412.466 618.7 413.226 618.58 414.08 618.58C414.84 618.58 415.506 618.693 416.08 618.92C416.666 619.147 417.126 619.473 417.46 619.9C417.793 620.313 417.96 620.827 417.96 621.44V628H415.84V621.86C415.84 621.567 415.786 621.327 415.68 621.14C415.586 620.953 415.453 620.8 415.28 620.68C415.106 620.56 414.9 620.473 414.66 620.42C414.42 620.367 414.16 620.34 413.88 620.34C413.453 620.34 413.046 620.393 412.66 620.5C412.286 620.593 411.96 620.713 411.68 620.86C411.413 620.993 411.213 621.107 411.08 621.2ZM422.618 618.8V628H420.478V618.8H422.618ZM425.358 621.1C425.158 620.94 424.971 620.82 424.798 620.74C424.624 620.66 424.404 620.62 424.138 620.62C423.778 620.62 423.484 620.713 423.258 620.9C423.031 621.087 422.864 621.347 422.758 621.68C422.664 622 422.618 622.38 422.618 622.82L421.898 622.4C421.898 621.667 422.031 621.02 422.298 620.46C422.578 619.887 422.931 619.433 423.358 619.1C423.798 618.767 424.251 618.6 424.718 618.6C425.051 618.6 425.364 618.653 425.658 618.76C425.951 618.853 426.198 619.027 426.398 619.28L425.358 621.1ZM426.6 618.8H431.82V620.7H426.6V618.8ZM428.14 615.6H430.28V628H428.14V615.6Z" fill="white"/>
<path d="M307.79 731H310.15V745H307.79V731ZM309.19 733.08V731H312.01C313.024 731 313.904 731.18 314.65 731.54C315.41 731.887 315.997 732.387 316.41 733.04C316.824 733.68 317.03 734.447 317.03 735.34C317.03 736.233 316.824 737.007 316.41 737.66C315.997 738.313 315.41 738.82 314.65 739.18C313.904 739.527 313.024 739.7 312.01 739.7H309.19V737.62H312.01C312.824 737.62 313.477 737.427 313.97 737.04C314.464 736.653 314.71 736.087 314.71 735.34C314.71 734.593 314.464 734.033 313.97 733.66C313.477 733.273 312.824 733.08 312.01 733.08H309.19ZM320.922 735.8V745H318.782V735.8H320.922ZM323.662 738.1C323.462 737.94 323.276 737.82 323.102 737.74C322.929 737.66 322.709 737.62 322.442 737.62C322.082 737.62 321.789 737.713 321.562 737.9C321.336 738.087 321.169 738.347 321.062 738.68C320.969 739 320.922 739.38 320.922 739.82L320.202 739.4C320.202 738.667 320.336 738.02 320.602 737.46C320.882 736.887 321.236 736.433 321.662 736.1C322.102 735.767 322.556 735.6 323.022 735.6C323.356 735.6 323.669 735.653 323.962 735.76C324.256 735.853 324.502 736.027 324.702 736.28L323.662 738.1ZM325.192 740.4C325.192 739.453 325.405 738.62 325.832 737.9C326.272 737.18 326.865 736.62 327.612 736.22C328.358 735.807 329.205 735.6 330.152 735.6C331.098 735.6 331.938 735.807 332.672 736.22C333.418 736.62 334.012 737.18 334.452 737.9C334.892 738.62 335.112 739.453 335.112 740.4C335.112 741.333 334.892 742.167 334.452 742.9C334.012 743.62 333.418 744.187 332.672 744.6C331.938 745 331.098 745.2 330.152 745.2C329.205 745.2 328.358 745 327.612 744.6C326.865 744.187 326.272 743.62 325.832 742.9C325.405 742.167 325.192 741.333 325.192 740.4ZM327.412 740.4C327.412 740.973 327.532 741.48 327.772 741.92C328.012 742.347 328.338 742.687 328.752 742.94C329.165 743.18 329.632 743.3 330.152 743.3C330.658 743.3 331.118 743.18 331.532 742.94C331.958 742.687 332.292 742.347 332.532 741.92C332.772 741.48 332.892 740.973 332.892 740.4C332.892 739.827 332.772 739.32 332.532 738.88C332.292 738.44 331.958 738.1 331.532 737.86C331.118 737.62 330.658 737.5 330.152 737.5C329.632 737.5 329.165 737.62 328.752 737.86C328.338 738.1 328.012 738.44 327.772 738.88C327.532 739.32 327.412 739.827 327.412 740.4ZM336.641 745.62H338.781C338.795 746.033 338.908 746.407 339.121 746.74C339.348 747.073 339.655 747.333 340.041 747.52C340.428 747.707 340.875 747.8 341.381 747.8C341.835 747.8 342.268 747.693 342.681 747.48C343.095 747.267 343.428 746.94 343.681 746.5C343.948 746.06 344.081 745.493 344.081 744.8V735.8H346.201V744.8C346.201 745.907 345.975 746.82 345.521 747.54C345.081 748.26 344.501 748.793 343.781 749.14C343.061 749.5 342.281 749.68 341.441 749.68C340.441 749.68 339.588 749.507 338.881 749.16C338.175 748.827 337.628 748.353 337.241 747.74C336.868 747.127 336.668 746.42 336.641 745.62ZM336.461 740.36C336.461 739.333 336.668 738.473 337.081 737.78C337.495 737.073 338.041 736.533 338.721 736.16C339.415 735.787 340.155 735.6 340.941 735.6C341.715 735.6 342.388 735.793 342.961 736.18C343.548 736.553 344.008 737.093 344.341 737.8C344.688 738.507 344.861 739.36 344.861 740.36C344.861 741.347 344.688 742.193 344.341 742.9C344.008 743.607 343.548 744.153 342.961 744.54C342.388 744.913 341.715 745.1 340.941 745.1C340.155 745.1 339.415 744.913 338.721 744.54C338.041 744.167 337.495 743.627 337.081 742.92C336.668 742.213 336.461 741.36 336.461 740.36ZM338.701 740.36C338.701 740.973 338.828 741.493 339.081 741.92C339.335 742.347 339.668 742.673 340.081 742.9C340.508 743.113 340.968 743.22 341.461 743.22C341.875 743.22 342.281 743.113 342.681 742.9C343.095 742.687 343.428 742.367 343.681 741.94C343.948 741.5 344.081 740.973 344.081 740.36C344.081 739.88 344.001 739.467 343.841 739.12C343.695 738.76 343.495 738.46 343.241 738.22C342.988 737.967 342.701 737.78 342.381 737.66C342.075 737.54 341.768 737.48 341.461 737.48C340.968 737.48 340.508 737.593 340.081 737.82C339.668 738.033 339.335 738.353 339.081 738.78C338.828 739.207 338.701 739.733 338.701 740.36ZM351.02 735.8V745H348.88V735.8H351.02ZM353.76 738.1C353.56 737.94 353.373 737.82 353.2 737.74C353.027 737.66 352.807 737.62 352.54 737.62C352.18 737.62 351.887 737.713 351.66 737.9C351.433 738.087 351.267 738.347 351.16 738.68C351.067 739 351.02 739.38 351.02 739.82L350.3 739.4C350.3 738.667 350.433 738.02 350.7 737.46C350.98 736.887 351.333 736.433 351.76 736.1C352.2 735.767 352.653 735.6 353.12 735.6C353.453 735.6 353.767 735.653 354.06 735.76C354.353 735.853 354.6 736.027 354.8 736.28L353.76 738.1ZM357.642 742.14C357.642 742.447 357.716 742.713 357.862 742.94C358.009 743.153 358.209 743.313 358.462 743.42C358.729 743.527 359.029 743.58 359.362 743.58C359.789 743.58 360.176 743.493 360.522 743.32C360.882 743.147 361.169 742.893 361.382 742.56C361.609 742.213 361.722 741.813 361.722 741.36L362.042 742.56C362.042 743.147 361.869 743.64 361.522 744.04C361.189 744.427 360.762 744.72 360.242 744.92C359.736 745.107 359.216 745.2 358.682 745.2C358.109 745.2 357.576 745.087 357.082 744.86C356.589 744.633 356.196 744.3 355.902 743.86C355.609 743.42 355.462 742.887 355.462 742.26C355.462 741.367 355.776 740.66 356.402 740.14C357.029 739.607 357.916 739.34 359.062 739.34C359.676 739.34 360.202 739.407 360.642 739.54C361.096 739.673 361.469 739.833 361.762 740.02C362.056 740.193 362.262 740.353 362.382 740.5V741.6C361.969 741.307 361.529 741.093 361.062 740.96C360.596 740.827 360.102 740.76 359.582 740.76C359.129 740.76 358.762 740.82 358.482 740.94C358.202 741.047 357.989 741.2 357.842 741.4C357.709 741.6 357.642 741.847 357.642 742.14ZM356.962 738.2L356.082 736.68C356.496 736.427 357.029 736.18 357.682 735.94C358.349 735.7 359.109 735.58 359.962 735.58C360.722 735.58 361.389 735.693 361.962 735.92C362.549 736.147 363.009 736.473 363.342 736.9C363.676 737.313 363.842 737.827 363.842 738.44V745H361.722V738.86C361.722 738.567 361.669 738.327 361.562 738.14C361.469 737.953 361.336 737.8 361.162 737.68C360.989 737.56 360.782 737.473 360.542 737.42C360.302 737.367 360.042 737.34 359.762 737.34C359.336 737.34 358.929 737.393 358.542 737.5C358.169 737.593 357.842 737.713 357.562 737.86C357.296 737.993 357.096 738.107 356.962 738.2ZM379.52 739.16V745H377.36V739.4C377.36 738.707 377.234 738.193 376.98 737.86C376.74 737.513 376.354 737.34 375.82 737.34C375.46 737.34 375.14 737.42 374.86 737.58C374.594 737.74 374.38 737.973 374.22 738.28C374.074 738.587 374 738.96 374 739.4V745H371.84V739.4C371.84 738.707 371.714 738.193 371.46 737.86C371.22 737.513 370.834 737.34 370.3 737.34C369.927 737.34 369.6 737.42 369.32 737.58C369.054 737.74 368.847 737.973 368.7 738.28C368.554 738.587 368.48 738.96 368.48 739.4V745H366.36V735.8H368.48V737.14C368.747 736.633 369.094 736.253 369.52 736C369.96 735.733 370.474 735.6 371.06 735.6C371.74 735.6 372.3 735.74 372.74 736.02C373.194 736.3 373.52 736.707 373.72 737.24C374.04 736.707 374.44 736.3 374.92 736.02C375.414 735.74 375.974 735.6 376.6 735.6C377.254 735.6 377.794 735.74 378.22 736.02C378.66 736.287 378.987 736.687 379.2 737.22C379.414 737.753 379.52 738.4 379.52 739.16ZM395.438 739.16V745H393.278V739.4C393.278 738.707 393.152 738.193 392.898 737.86C392.658 737.513 392.272 737.34 391.738 737.34C391.378 737.34 391.058 737.42 390.778 737.58C390.512 737.74 390.298 737.973 390.138 738.28C389.992 738.587 389.918 738.96 389.918 739.4V745H387.758V739.4C387.758 738.707 387.632 738.193 387.378 737.86C387.138 737.513 386.752 737.34 386.218 737.34C385.845 737.34 385.518 737.42 385.238 737.58C384.972 737.74 384.765 737.973 384.618 738.28C384.472 738.587 384.398 738.96 384.398 739.4V745H382.278V735.8H384.398V737.14C384.665 736.633 385.012 736.253 385.438 736C385.878 735.733 386.392 735.6 386.978 735.6C387.658 735.6 388.218 735.74 388.658 736.02C389.112 736.3 389.438 736.707 389.638 737.24C389.958 736.707 390.358 736.3 390.838 736.02C391.332 735.74 391.892 735.6 392.518 735.6C393.172 735.6 393.712 735.74 394.138 736.02C394.578 736.287 394.905 736.687 395.118 737.22C395.332 737.753 395.438 738.4 395.438 739.16ZM398.116 732.14C398.116 731.767 398.25 731.453 398.516 731.2C398.796 730.947 399.116 730.82 399.476 730.82C399.863 730.82 400.183 730.947 400.436 731.2C400.703 731.453 400.836 731.767 400.836 732.14C400.836 732.5 400.703 732.813 400.436 733.08C400.183 733.333 399.863 733.46 399.476 733.46C399.116 733.46 398.796 733.333 398.516 733.08C398.25 732.813 398.116 732.5 398.116 732.14ZM398.416 735.8H400.536V745H398.416V735.8ZM409.429 739.4C409.429 738.72 409.289 738.207 409.009 737.86C408.729 737.513 408.296 737.34 407.709 737.34C407.309 737.34 406.956 737.427 406.649 737.6C406.342 737.76 406.102 738 405.929 738.32C405.756 738.627 405.669 738.987 405.669 739.4V745H403.509V735.8H405.669V737.22C405.962 736.673 406.336 736.267 406.789 736C407.256 735.733 407.809 735.6 408.449 735.6C409.489 735.6 410.282 735.92 410.829 736.56C411.376 737.187 411.649 738.053 411.649 739.16V745H409.429V739.4ZM413.887 745.62H416.027C416.041 746.033 416.154 746.407 416.367 746.74C416.594 747.073 416.901 747.333 417.287 747.52C417.674 747.707 418.121 747.8 418.627 747.8C419.081 747.8 419.514 747.693 419.927 747.48C420.341 747.267 420.674 746.94 420.927 746.5C421.194 746.06 421.327 745.493 421.327 744.8V735.8H423.447V744.8C423.447 745.907 423.221 746.82 422.767 747.54C422.327 748.26 421.747 748.793 421.027 749.14C420.307 749.5 419.527 749.68 418.687 749.68C417.687 749.68 416.834 749.507 416.127 749.16C415.421 748.827 414.874 748.353 414.487 747.74C414.114 747.127 413.914 746.42 413.887 745.62ZM413.707 740.36C413.707 739.333 413.914 738.473 414.327 737.78C414.741 737.073 415.287 736.533 415.967 736.16C416.661 735.787 417.401 735.6 418.187 735.6C418.961 735.6 419.634 735.793 420.207 736.18C420.794 736.553 421.254 737.093 421.587 737.8C421.934 738.507 422.107 739.36 422.107 740.36C422.107 741.347 421.934 742.193 421.587 742.9C421.254 743.607 420.794 744.153 420.207 744.54C419.634 744.913 418.961 745.1 418.187 745.1C417.401 745.1 416.661 744.913 415.967 744.54C415.287 744.167 414.741 743.627 414.327 742.92C413.914 742.213 413.707 741.36 413.707 740.36ZM415.947 740.36C415.947 740.973 416.074 741.493 416.327 741.92C416.581 742.347 416.914 742.673 417.327 742.9C417.754 743.113 418.214 743.22 418.707 743.22C419.121 743.22 419.527 743.113 419.927 742.9C420.341 742.687 420.674 742.367 420.927 741.94C421.194 741.5 421.327 740.973 421.327 740.36C421.327 739.88 421.247 739.467 421.087 739.12C420.941 738.76 420.741 738.46 420.487 738.22C420.234 737.967 419.947 737.78 419.627 737.66C419.321 737.54 419.014 737.48 418.707 737.48C418.214 737.48 417.754 737.593 417.327 737.82C416.914 738.033 416.581 738.353 416.327 738.78C416.074 739.207 415.947 739.733 415.947 740.36ZM430.842 735.8H436.062V737.7H430.842V735.8ZM432.382 732.6H434.522V745H432.382V732.6ZM439.712 729.4V745H437.552V729.4H439.712ZM443.472 739.4C443.472 738.72 443.332 738.207 443.052 737.86C442.785 737.513 442.352 737.34 441.752 737.34C441.352 737.34 440.999 737.427 440.692 737.6C440.385 737.773 440.145 738.013 439.972 738.32C439.799 738.627 439.712 738.987 439.712 739.4H439.192C439.192 738.667 439.325 738.013 439.592 737.44C439.859 736.867 440.232 736.407 440.712 736.06C441.205 735.713 441.799 735.54 442.492 735.54C443.172 735.54 443.745 735.673 444.212 735.94C444.692 736.207 445.052 736.607 445.292 737.14C445.532 737.66 445.652 738.313 445.652 739.1V745H443.472V739.4ZM452.392 745.2C451.458 745.2 450.632 745 449.912 744.6C449.205 744.2 448.658 743.64 448.272 742.92C447.885 742.2 447.692 741.36 447.692 740.4C447.692 739.427 447.885 738.58 448.272 737.86C448.672 737.14 449.232 736.587 449.952 736.2C450.672 735.8 451.518 735.6 452.492 735.6C453.465 735.6 454.292 735.787 454.972 736.16C455.652 736.533 456.172 737.073 456.532 737.78C456.905 738.473 457.092 739.313 457.092 740.3C457.092 740.407 457.085 740.52 457.072 740.64C457.072 740.76 457.065 740.847 457.052 740.9H448.972V739.42H455.212L454.552 740.34C454.592 740.26 454.632 740.153 454.672 740.02C454.725 739.873 454.752 739.753 454.752 739.66C454.752 739.167 454.652 738.74 454.452 738.38C454.265 738.02 453.998 737.74 453.652 737.54C453.318 737.34 452.925 737.24 452.472 737.24C451.925 737.24 451.458 737.36 451.072 737.6C450.685 737.84 450.392 738.187 450.192 738.64C449.992 739.093 449.885 739.653 449.872 740.32C449.872 740.987 449.972 741.553 450.172 742.02C450.372 742.473 450.665 742.82 451.052 743.06C451.452 743.3 451.932 743.42 452.492 743.42C453.078 743.42 453.592 743.3 454.032 743.06C454.472 742.82 454.838 742.453 455.132 741.96L456.992 742.72C456.512 743.547 455.892 744.167 455.132 744.58C454.372 744.993 453.458 745.2 452.392 745.2ZM333.107 761.14C333.107 760.767 333.24 760.453 333.507 760.2C333.787 759.947 334.107 759.82 334.467 759.82C334.853 759.82 335.173 759.947 335.427 760.2C335.693 760.453 335.827 760.767 335.827 761.14C335.827 761.5 335.693 761.813 335.427 762.08C335.173 762.333 334.853 762.46 334.467 762.46C334.107 762.46 333.787 762.333 333.507 762.08C333.24 761.813 333.107 761.5 333.107 761.14ZM333.407 764.8H335.527V774H333.407V764.8ZM344.419 768.4C344.419 767.72 344.279 767.207 343.999 766.86C343.719 766.513 343.286 766.34 342.699 766.34C342.299 766.34 341.946 766.427 341.639 766.6C341.332 766.76 341.092 767 340.919 767.32C340.746 767.627 340.659 767.987 340.659 768.4V774H338.499V764.8H340.659V766.22C340.952 765.673 341.326 765.267 341.779 765C342.246 764.733 342.799 764.6 343.439 764.6C344.479 764.6 345.272 764.92 345.819 765.56C346.366 766.187 346.639 767.053 346.639 768.16V774H344.419V768.4ZM348.118 764.8H353.338V766.7H348.118V764.8ZM349.658 761.6H351.798V774H349.658V761.6ZM358.827 774.2C357.894 774.2 357.067 774 356.347 773.6C355.641 773.2 355.094 772.64 354.707 771.92C354.321 771.2 354.127 770.36 354.127 769.4C354.127 768.427 354.321 767.58 354.707 766.86C355.107 766.14 355.667 765.587 356.387 765.2C357.107 764.8 357.954 764.6 358.927 764.6C359.901 764.6 360.727 764.787 361.407 765.16C362.087 765.533 362.607 766.073 362.967 766.78C363.341 767.473 363.527 768.313 363.527 769.3C363.527 769.407 363.521 769.52 363.507 769.64C363.507 769.76 363.501 769.847 363.487 769.9H355.407V768.42H361.647L360.987 769.34C361.027 769.26 361.067 769.153 361.107 769.02C361.161 768.873 361.187 768.753 361.187 768.66C361.187 768.167 361.087 767.74 360.887 767.38C360.701 767.02 360.434 766.74 360.087 766.54C359.754 766.34 359.361 766.24 358.907 766.24C358.361 766.24 357.894 766.36 357.507 766.6C357.121 766.84 356.827 767.187 356.627 767.64C356.427 768.093 356.321 768.653 356.307 769.32C356.307 769.987 356.407 770.553 356.607 771.02C356.807 771.473 357.101 771.82 357.487 772.06C357.887 772.3 358.367 772.42 358.927 772.42C359.514 772.42 360.027 772.3 360.467 772.06C360.907 771.82 361.274 771.453 361.567 770.96L363.427 771.72C362.947 772.547 362.327 773.167 361.567 773.58C360.807 773.993 359.894 774.2 358.827 774.2ZM367.729 764.8V774H365.589V764.8H367.729ZM370.469 767.1C370.269 766.94 370.082 766.82 369.909 766.74C369.736 766.66 369.516 766.62 369.249 766.62C368.889 766.62 368.596 766.713 368.369 766.9C368.142 767.087 367.976 767.347 367.869 767.68C367.776 768 367.729 768.38 367.729 768.82L367.009 768.4C367.009 767.667 367.142 767.02 367.409 766.46C367.689 765.887 368.042 765.433 368.469 765.1C368.909 764.767 369.362 764.6 369.829 764.6C370.162 764.6 370.476 764.653 370.769 764.76C371.062 764.853 371.309 765.027 371.509 765.28L370.469 767.1ZM378.911 768.4C378.911 767.72 378.771 767.207 378.491 766.86C378.211 766.513 377.778 766.34 377.191 766.34C376.791 766.34 376.438 766.427 376.131 766.6C375.825 766.76 375.585 767 375.411 767.32C375.238 767.627 375.151 767.987 375.151 768.4V774H372.991V764.8H375.151V766.22C375.445 765.673 375.818 765.267 376.271 765C376.738 764.733 377.291 764.6 377.931 764.6C378.971 764.6 379.765 764.92 380.311 765.56C380.858 766.187 381.131 767.053 381.131 768.16V774H378.911V768.4ZM385.25 771.14C385.25 771.447 385.323 771.713 385.47 771.94C385.616 772.153 385.816 772.313 386.07 772.42C386.336 772.527 386.636 772.58 386.97 772.58C387.396 772.58 387.783 772.493 388.13 772.32C388.49 772.147 388.776 771.893 388.99 771.56C389.216 771.213 389.33 770.813 389.33 770.36L389.65 771.56C389.65 772.147 389.476 772.64 389.13 773.04C388.796 773.427 388.37 773.72 387.85 773.92C387.343 774.107 386.823 774.2 386.29 774.2C385.716 774.2 385.183 774.087 384.69 773.86C384.196 773.633 383.803 773.3 383.51 772.86C383.216 772.42 383.07 771.887 383.07 771.26C383.07 770.367 383.383 769.66 384.01 769.14C384.636 768.607 385.523 768.34 386.67 768.34C387.283 768.34 387.81 768.407 388.25 768.54C388.703 768.673 389.076 768.833 389.37 769.02C389.663 769.193 389.87 769.353 389.99 769.5V770.6C389.576 770.307 389.136 770.093 388.67 769.96C388.203 769.827 387.71 769.76 387.19 769.76C386.736 769.76 386.37 769.82 386.09 769.94C385.81 770.047 385.596 770.2 385.45 770.4C385.316 770.6 385.25 770.847 385.25 771.14ZM384.57 767.2L383.69 765.68C384.103 765.427 384.636 765.18 385.29 764.94C385.956 764.7 386.716 764.58 387.57 764.58C388.33 764.58 388.996 764.693 389.57 764.92C390.156 765.147 390.616 765.473 390.95 765.9C391.283 766.313 391.45 766.827 391.45 767.44V774H389.33V767.86C389.33 767.567 389.276 767.327 389.17 767.14C389.076 766.953 388.943 766.8 388.77 766.68C388.596 766.56 388.39 766.473 388.15 766.42C387.91 766.367 387.65 766.34 387.37 766.34C386.943 766.34 386.536 766.393 386.15 766.5C385.776 766.593 385.45 766.713 385.17 766.86C384.903 766.993 384.703 767.107 384.57 767.2ZM393.968 758.4H396.128V774H393.968V758.4ZM406.986 778.4H404.806V764.8H406.986V778.4ZM414.606 769.4C414.606 770.413 414.399 771.287 413.986 772.02C413.573 772.74 413.026 773.293 412.346 773.68C411.666 774.053 410.926 774.24 410.126 774.24C409.339 774.24 408.653 774.047 408.066 773.66C407.493 773.26 407.046 772.7 406.726 771.98C406.419 771.247 406.266 770.387 406.266 769.4C406.266 768.4 406.419 767.54 406.726 766.82C407.046 766.1 407.493 765.547 408.066 765.16C408.653 764.76 409.339 764.56 410.126 764.56C410.926 764.56 411.666 764.753 412.346 765.14C413.026 765.513 413.573 766.06 413.986 766.78C414.399 767.5 414.606 768.373 414.606 769.4ZM412.366 769.4C412.366 768.787 412.239 768.267 411.986 767.84C411.733 767.4 411.393 767.073 410.966 766.86C410.553 766.633 410.093 766.52 409.586 766.52C409.173 766.52 408.766 766.633 408.366 766.86C407.966 767.073 407.633 767.393 407.366 767.82C407.113 768.247 406.986 768.773 406.986 769.4C406.986 770.027 407.113 770.553 407.366 770.98C407.633 771.407 407.966 771.733 408.366 771.96C408.766 772.173 409.173 772.28 409.586 772.28C410.093 772.28 410.553 772.173 410.966 771.96C411.393 771.733 411.733 771.407 411.986 770.98C412.239 770.54 412.366 770.013 412.366 769.4ZM418.023 771.14C418.023 771.447 418.097 771.713 418.243 771.94C418.39 772.153 418.59 772.313 418.843 772.42C419.11 772.527 419.41 772.58 419.743 772.58C420.17 772.58 420.557 772.493 420.903 772.32C421.263 772.147 421.55 771.893 421.763 771.56C421.99 771.213 422.103 770.813 422.103 770.36L422.423 771.56C422.423 772.147 422.25 772.64 421.903 773.04C421.57 773.427 421.143 773.72 420.623 773.92C420.117 774.107 419.597 774.2 419.063 774.2C418.49 774.2 417.957 774.087 417.463 773.86C416.97 773.633 416.577 773.3 416.283 772.86C415.99 772.42 415.843 771.887 415.843 771.26C415.843 770.367 416.157 769.66 416.783 769.14C417.41 768.607 418.297 768.34 419.443 768.34C420.057 768.34 420.583 768.407 421.023 768.54C421.477 768.673 421.85 768.833 422.143 769.02C422.437 769.193 422.643 769.353 422.763 769.5V770.6C422.35 770.307 421.91 770.093 421.443 769.96C420.977 769.827 420.483 769.76 419.963 769.76C419.51 769.76 419.143 769.82 418.863 769.94C418.583 770.047 418.37 770.2 418.223 770.4C418.09 770.6 418.023 770.847 418.023 771.14ZM417.343 767.2L416.463 765.68C416.877 765.427 417.41 765.18 418.063 764.94C418.73 764.7 419.49 764.58 420.343 764.58C421.103 764.58 421.77 764.693 422.343 764.92C422.93 765.147 423.39 765.473 423.723 765.9C424.057 766.313 424.223 766.827 424.223 767.44V774H422.103V767.86C422.103 767.567 422.05 767.327 421.943 767.14C421.85 766.953 421.717 766.8 421.543 766.68C421.37 766.56 421.163 766.473 420.923 766.42C420.683 766.367 420.423 766.34 420.143 766.34C419.717 766.34 419.31 766.393 418.923 766.5C418.55 766.593 418.223 766.713 417.943 766.86C417.677 766.993 417.477 767.107 417.343 767.2ZM428.881 764.8V774H426.741V764.8H428.881ZM431.621 767.1C431.421 766.94 431.235 766.82 431.061 766.74C430.888 766.66 430.668 766.62 430.401 766.62C430.041 766.62 429.748 766.713 429.521 766.9C429.295 767.087 429.128 767.347 429.021 767.68C428.928 768 428.881 768.38 428.881 768.82L428.161 768.4C428.161 767.667 428.295 767.02 428.561 766.46C428.841 765.887 429.195 765.433 429.621 765.1C430.061 764.767 430.515 764.6 430.981 764.6C431.315 764.6 431.628 764.653 431.921 764.76C432.215 764.853 432.461 765.027 432.661 765.28L431.621 767.1ZM432.864 764.8H438.084V766.7H432.864V764.8ZM434.404 761.6H436.544V774H434.404V761.6Z" fill="white"/>
<path d="M384 86.5C594.693 86.5 765.5 258.643 765.5 471C765.5 683.357 594.693 855.5 384 855.5C173.307 855.5 2.5 683.357 2.5 471C2.5 258.643 173.307 86.5 384 86.5Z" stroke="#FF0000"/>
<path d="M383.5 131.5C454.576 131.5 518.906 139.109 565.452 151.4C588.729 157.547 607.53 164.857 620.5 172.955C633.496 181.069 640.5 189.884 640.5 199C640.5 208.116 633.496 216.931 620.5 225.045C607.53 233.143 588.729 240.453 565.452 246.6C518.906 258.891 454.576 266.5 383.5 266.5C312.424 266.5 248.094 258.891 201.548 246.6C178.271 240.453 159.47 233.143 146.5 225.045C133.504 216.931 126.5 208.116 126.5 199C126.5 189.884 133.504 181.069 146.5 172.955C159.47 164.857 178.271 157.547 201.548 151.4C248.094 139.109 312.424 131.5 383.5 131.5Z" stroke="#FF0000"/>
<path d="M384 267.5C482.009 267.5 570.726 275.11 634.929 287.408C667.034 293.558 692.985 300.875 710.896 308.986C719.854 313.043 726.773 317.287 731.446 321.661C736.119 326.035 738.5 330.496 738.5 335C738.5 339.504 736.119 343.965 731.446 348.339C726.773 352.713 719.854 356.957 710.896 361.014C692.985 369.125 667.034 376.442 634.929 382.592C570.726 394.89 482.009 402.5 384 402.5C285.991 402.5 197.274 394.89 133.071 382.592C100.966 376.442 75.0152 369.125 57.1035 361.014C48.1462 356.957 41.2266 352.713 36.5537 348.339C31.8808 343.965 29.5 339.504 29.5 335C29.5 330.496 31.8808 326.035 36.5537 321.661C41.2266 317.287 48.1462 313.043 57.1035 308.986C75.0152 300.875 100.966 293.558 133.071 287.408C197.274 275.11 285.991 267.5 384 267.5Z" stroke="#FF0000"/>
<path d="M383.5 401.5C488.828 401.5 584.172 409.277 653.172 421.848C687.676 428.133 715.568 435.613 734.822 443.906C744.451 448.054 751.892 452.393 756.917 456.867C761.944 461.343 764.5 465.902 764.5 470.5C764.5 475.098 761.944 479.657 756.917 484.133C751.892 488.607 744.451 492.946 734.822 497.094C715.568 505.387 687.676 512.867 653.172 519.152C584.172 531.723 488.828 539.5 383.5 539.5C278.172 539.5 182.828 531.723 113.828 519.152C79.324 512.867 51.4319 505.387 32.1777 497.094C22.5487 492.946 15.1083 488.607 10.083 484.133C5.05593 479.657 2.5 475.098 2.5 470.5C2.5 465.902 5.05593 461.343 10.083 456.867C15.1083 452.393 22.5487 448.054 32.1777 443.906C51.4319 435.613 79.324 428.133 113.828 421.848C182.828 409.277 278.172 401.5 383.5 401.5Z" stroke="#FF0000"/>
<path d="M384 540.5C482.009 540.5 570.726 548.054 634.93 560.262C667.035 566.366 692.986 573.629 710.897 581.682C719.855 585.708 726.774 589.921 731.447 594.263C736.121 598.605 738.5 603.032 738.5 607.5C738.5 611.968 736.121 616.395 731.447 620.737C726.774 625.079 719.855 629.292 710.897 633.318C692.986 641.371 667.035 648.634 634.93 654.738C570.726 666.946 482.009 674.5 384 674.5C285.991 674.5 197.274 666.946 133.07 654.738C100.965 648.634 75.0144 641.371 57.1025 633.318C48.145 629.292 41.2255 625.079 36.5527 620.737C31.8794 616.395 29.5 611.968 29.5 607.5C29.5 603.032 31.8794 598.605 36.5527 594.263C41.2255 589.921 48.145 585.708 57.1025 581.682C75.0144 573.629 100.965 566.366 133.07 560.262C197.274 548.054 285.991 540.5 384 540.5Z" stroke="#FF0000"/>
<path d="M384.5 675.5C455.299 675.5 519.378 683.276 565.742 695.839C588.928 702.121 607.655 709.592 620.573 717.868C633.515 726.159 640.5 735.17 640.5 744.5C640.5 753.83 633.515 762.841 620.573 771.132C607.655 779.408 588.928 786.879 565.742 793.161C519.378 805.724 455.299 813.5 384.5 813.5C313.701 813.5 249.622 805.724 203.258 793.161C180.072 786.879 161.345 779.408 148.427 771.132C135.485 762.841 128.5 753.83 128.5 744.5C128.5 735.17 135.485 726.159 148.427 717.868C161.345 709.592 180.072 702.121 203.258 695.839C249.622 683.276 313.701 675.5 384.5 675.5Z" stroke="#FF0000"/>
</svg>
