<svg width="292" height="1349" viewBox="0 0 292 1349" fill="none" xmlns="http://www.w3.org/2000/svg">
<mask id="path-1-outside-1_143_6274" maskUnits="userSpaceOnUse" x="44" y="30.3574" width="201" height="1268" fill="black">
<rect fill="white" x="44" y="30.3574" width="201" height="1268"/>
<path d="M150.25 1256.36H127.75V1228.11C127.75 1223.94 127.167 1220.52 126 1217.86C124.833 1215.19 123.167 1213.19 121 1211.86C118.833 1210.52 116.25 1209.86 113.25 1209.86C108.75 1209.86 105.5 1211.36 103.5 1214.36C101.333 1217.19 100.25 1221.77 100.25 1228.11V1241.86H192.75V1223.11C192.75 1218.94 192.417 1215.11 191.75 1211.61C191.083 1208.11 189.667 1205.27 187.5 1203.11C185.333 1200.94 181.917 1199.86 177.25 1199.86C174.417 1199.86 172.167 1200.52 170.5 1201.86C168.667 1203.02 167.333 1204.69 166.5 1206.86C165.5 1209.02 164.833 1211.52 164.5 1214.36C164.167 1217.02 164 1219.94 164 1223.11V1256.36H134V1215.61C134 1207.11 135 1198.61 137 1190.11C138.833 1181.44 141.833 1173.52 146 1166.36C150.167 1159.19 155.583 1153.44 162.25 1149.11C168.75 1144.61 176.667 1142.36 186 1142.36C197.667 1142.36 207 1145.27 214 1151.11C221 1156.77 226.083 1165.11 229.25 1176.11C232.417 1186.94 234 1200.11 234 1215.61V1296.86H59V1220.61C59 1207.61 60.6667 1196.02 64 1185.86C67.3333 1175.52 72.3333 1167.36 79 1161.36C85.6667 1155.36 94 1152.36 104 1152.36C113.833 1152.36 122.25 1155.36 129.25 1161.36C136.083 1167.36 141.333 1175.52 145 1185.86C148.5 1196.02 150.25 1207.61 150.25 1220.61V1256.36ZM211.5 1084.38H172L172 991.885H211.5L211.5 1084.38ZM138.5 1038.63L186.75 1060.13L199.25 1055.88L234 1074.88V1137.38L46.5 1038.63L234 939.885V1002.38L201 1020.88L186.75 1017.13L138.5 1038.63ZM146.5 880.635C155.5 880.635 163.083 878.635 169.25 874.635C175.25 870.468 179.75 865.051 182.75 858.385C185.75 851.551 187.25 844.051 187.25 835.885C187.25 827.551 186.167 820.385 184 814.385C181.833 808.385 179.167 803.135 176 798.635C172.667 793.968 169.25 789.801 165.75 786.135H222.25C226.917 792.968 230.833 800.468 234 808.635C237.333 816.635 239 827.051 239 839.885C239 855.051 236.833 868.885 232.5 881.385C228.167 893.885 221.917 904.551 213.75 913.385C205.583 922.218 195.833 929.051 184.5 933.885C173.167 938.718 160.5 941.135 146.5 941.135C132.5 941.135 119.833 938.718 108.5 933.885C97.1667 929.051 87.4167 922.218 79.25 913.385C71.0833 904.551 64.8333 893.885 60.5 881.385C56.1667 868.885 54 855.051 54 839.885C54 827.051 55.5833 816.635 58.75 808.635C61.9167 800.468 65.9167 792.968 70.75 786.135H127.25C123.75 789.801 120.333 793.968 117 798.635C113.667 803.135 111 808.385 109 814.385C106.833 820.385 105.75 827.551 105.75 835.885C105.75 844.051 107.25 851.551 110.25 858.385C113.25 865.051 117.833 870.468 124 874.635C130 878.635 137.5 880.635 146.5 880.635ZM59 753.645L59 696.145H234V753.645H59ZM59 642.395V578.395L141 646.645L234 574.645V641.145L142.75 711.895L59 642.395ZM234 520.332H190.25V432.082H234V520.332ZM102.75 520.332H59L59 432.082H102.75V520.332ZM165.25 520.332H122.75V437.082H165.25V520.332ZM59 558.332V505.832H234V558.332H59ZM59 285.891L59 233.391H242.75L154.75 347.141H234V399.641H50.25L138.25 285.891H59ZM59 198.469V141.219H234V198.469H59ZM234 129.719V160.469H186.5L186.5 132.219C186.5 127.385 186.083 122.469 185.25 117.469C184.417 112.469 182.667 107.885 180 103.719C177.333 99.5521 173.333 96.2187 168 93.7187C162.667 91.0521 155.5 89.7188 146.5 89.7188C137.5 89.7188 130.333 91.0521 125 93.7187C119.667 96.2187 115.667 99.5521 113 103.719C110.333 107.885 108.583 112.469 107.75 117.469C106.917 122.469 106.5 127.385 106.5 132.219L106.5 160.469H59V129.719C59 109.385 62.5 91.9687 69.5 77.4687C76.5 62.8021 86.5 51.6354 99.5 43.9687C112.5 36.1354 128.167 32.2187 146.5 32.2187C164.667 32.2187 180.333 36.1354 193.5 43.9687C206.5 51.6354 216.5 62.8021 223.5 77.4687C230.5 91.9687 234 109.385 234 129.719Z"/>
</mask>
<path d="M150.25 1256.36V1257.36H151.25V1256.36H150.25ZM127.75 1256.36H126.75V1257.36H127.75V1256.36ZM121 1211.86L121.524 1211.01L121.524 1211.01L121 1211.86ZM103.5 1214.36L104.294 1214.96L104.314 1214.94L104.332 1214.91L103.5 1214.36ZM100.25 1241.86H99.25V1242.86H100.25V1241.86ZM192.75 1241.86V1242.86H193.75V1241.86H192.75ZM191.75 1211.61L190.768 1211.79L190.768 1211.79L191.75 1211.61ZM187.5 1203.11L188.207 1202.4L188.207 1202.4L187.5 1203.11ZM170.5 1201.86L171.037 1202.7L171.082 1202.67L171.125 1202.64L170.5 1201.86ZM166.5 1206.86L167.408 1207.28L167.422 1207.25L167.433 1207.22L166.5 1206.86ZM164.5 1214.36L165.492 1214.48L165.493 1214.47L164.5 1214.36ZM164 1256.36V1257.36H165V1256.36H164ZM134 1256.36H133V1257.36H134V1256.36ZM137 1190.11L137.973 1190.34L137.976 1190.33L137.978 1190.31L137 1190.11ZM146 1166.36L146.865 1166.86L146.865 1166.86L146 1166.36ZM162.25 1149.11L162.795 1149.95L162.807 1149.94L162.819 1149.93L162.25 1149.11ZM214 1151.11L213.36 1151.88L213.365 1151.88L213.371 1151.88L214 1151.11ZM229.25 1176.11L228.289 1176.38L228.29 1176.39L229.25 1176.11ZM234 1296.86V1297.86H235V1296.86H234ZM59 1296.86H58V1297.86H59V1296.86ZM64 1185.86L64.9502 1186.17L64.9517 1186.16L64 1185.86ZM79 1161.36L78.331 1160.61L78.331 1160.61L79 1161.36ZM129.25 1161.36L129.91 1160.61L129.901 1160.6L129.25 1161.36ZM145 1185.86L145.946 1185.53L145.942 1185.52L145 1185.86ZM150.25 1256.36V1255.36H127.75V1256.36V1257.36H150.25V1256.36ZM127.75 1256.36H128.75V1228.11H127.75H126.75V1256.36H127.75ZM127.75 1228.11H128.75C128.75 1223.86 128.157 1220.29 126.916 1217.46L126 1217.86L125.084 1218.26C126.177 1220.76 126.75 1224.02 126.75 1228.11H127.75ZM126 1217.86L126.916 1217.46C125.68 1214.63 123.889 1212.46 121.524 1211.01L121 1211.86L120.476 1212.71C122.445 1213.92 123.987 1215.75 125.084 1218.26L126 1217.86ZM121 1211.86L121.524 1211.01C119.173 1209.56 116.401 1208.86 113.25 1208.86V1209.86V1210.86C116.099 1210.86 118.493 1211.49 120.476 1212.71L121 1211.86ZM113.25 1209.86V1208.86C108.51 1208.86 104.9 1210.45 102.668 1213.8L103.5 1214.36L104.332 1214.91C106.1 1212.26 108.99 1210.86 113.25 1210.86V1209.86ZM103.5 1214.36L102.706 1213.75C100.336 1216.85 99.25 1221.71 99.25 1228.11H100.25H101.25C101.25 1221.84 102.33 1217.53 104.294 1214.96L103.5 1214.36ZM100.25 1228.11H99.25V1241.86H100.25H101.25V1228.11H100.25ZM100.25 1241.86V1242.86H192.75V1241.86V1240.86H100.25V1241.86ZM192.75 1241.86H193.75V1223.11H192.75H191.75V1241.86H192.75ZM192.75 1223.11H193.75C193.75 1218.89 193.413 1214.99 192.732 1211.42L191.75 1211.61L190.768 1211.79C191.421 1215.22 191.75 1218.99 191.75 1223.11H192.75ZM191.75 1211.61L192.732 1211.42C192.034 1207.76 190.538 1204.73 188.207 1202.4L187.5 1203.11L186.793 1203.81C188.796 1205.82 190.132 1208.46 190.768 1211.79L191.75 1211.61ZM187.5 1203.11L188.207 1202.4C185.775 1199.97 182.046 1198.86 177.25 1198.86V1199.86V1200.86C181.788 1200.86 184.892 1201.91 186.793 1203.81L187.5 1203.11ZM177.25 1199.86V1198.86C174.264 1198.86 171.77 1199.56 169.875 1201.08L170.5 1201.86L171.125 1202.64C172.563 1201.49 174.569 1200.86 177.25 1200.86V1199.86ZM170.5 1201.86L169.963 1201.01C167.936 1202.3 166.471 1204.15 165.567 1206.5L166.5 1206.86L167.433 1207.22C168.195 1205.24 169.397 1203.74 171.037 1202.7L170.5 1201.86ZM166.5 1206.86L165.592 1206.44C164.54 1208.72 163.85 1211.32 163.507 1214.24L164.5 1214.36L165.493 1214.47C165.817 1211.73 166.46 1209.33 167.408 1207.28L166.5 1206.86ZM164.5 1214.36L163.508 1214.23C163.168 1216.95 163 1219.91 163 1223.11H164H165C165 1219.98 165.165 1217.1 165.492 1214.48L164.5 1214.36ZM164 1223.11H163V1256.36H164H165V1223.11H164ZM164 1256.36V1255.36H134V1256.36V1257.36H164V1256.36ZM134 1256.36H135V1215.61H134H133V1256.36H134ZM134 1215.61H135C135 1207.19 135.991 1198.76 137.973 1190.34L137 1190.11L136.027 1189.88C134.009 1198.45 133 1207.03 133 1215.61H134ZM137 1190.11L137.978 1190.31C139.791 1181.74 142.755 1173.93 146.865 1166.86L146 1166.36L145.135 1165.85C140.912 1173.12 137.875 1181.14 136.022 1189.9L137 1190.11ZM146 1166.36L146.865 1166.86C150.956 1159.82 156.265 1154.19 162.795 1149.95L162.25 1149.11L161.705 1148.27C154.901 1152.69 149.377 1158.56 145.135 1165.85L146 1166.36ZM162.25 1149.11L162.819 1149.93C169.123 1145.57 176.832 1143.36 186 1143.36V1142.36V1141.36C176.501 1141.36 168.376 1143.65 161.681 1148.29L162.25 1149.11ZM186 1142.36V1143.36C197.5 1143.36 206.585 1146.23 213.36 1151.88L214 1151.11L214.64 1150.34C207.415 1144.32 197.834 1141.36 186 1141.36V1142.36ZM214 1151.11L213.371 1151.88C220.173 1157.39 225.164 1165.53 228.289 1176.38L229.25 1176.11L230.211 1175.83C227.003 1164.69 221.827 1156.16 214.629 1150.33L214 1151.11ZM229.25 1176.11L228.29 1176.39C231.422 1187.1 233 1200.17 233 1215.61H234H235C235 1200.05 233.411 1186.78 230.21 1175.83L229.25 1176.11ZM234 1215.61H233V1296.86H234H235V1215.61H234ZM234 1296.86V1295.86H59V1296.86V1297.86H234V1296.86ZM59 1296.86H60V1220.61H59H58V1296.86H59ZM59 1220.61H60C60 1207.69 61.6561 1196.22 64.9502 1186.17L64 1185.86L63.0498 1185.55C59.6773 1195.83 58 1207.52 58 1220.61H59ZM64 1185.86L64.9517 1186.16C68.2423 1175.96 73.1584 1167.96 79.669 1162.1L79 1161.36L78.331 1160.61C71.5082 1166.75 66.4244 1175.08 63.0483 1185.55L64 1185.86ZM79 1161.36L79.669 1162.1C86.1305 1156.29 94.2164 1153.36 104 1153.36V1152.36V1151.36C93.7835 1151.36 85.2029 1154.43 78.331 1160.61L79 1161.36ZM104 1152.36V1153.36C113.612 1153.36 121.793 1156.28 128.599 1162.12L129.25 1161.36L129.901 1160.6C122.707 1154.43 114.055 1151.36 104 1151.36V1152.36ZM129.25 1161.36L128.59 1162.11C135.271 1167.98 140.436 1175.99 144.058 1186.19L145 1185.86L145.942 1185.52C142.23 1175.06 136.895 1166.74 129.91 1160.61L129.25 1161.36ZM145 1185.86L144.054 1186.18C147.512 1196.23 149.25 1207.7 149.25 1220.61H150.25H151.25C151.25 1207.52 149.488 1195.82 145.946 1185.53L145 1185.86ZM150.25 1220.61H149.25V1256.36H150.25H151.25V1220.61H150.25ZM211.5 1084.38V1085.38H212.5V1084.38H211.5ZM172 1084.38H171V1085.38H172V1084.38ZM172 991.885V990.885H171V991.885H172ZM211.5 991.885H212.5V990.885H211.5V991.885ZM138.5 1038.63L138.093 1037.72L136.043 1038.63L138.093 1039.55L138.5 1038.63ZM186.75 1060.13L186.343 1061.05L186.701 1061.21L187.072 1061.08L186.75 1060.13ZM199.25 1055.88L199.73 1055.01L199.344 1054.8L198.928 1054.94L199.25 1055.88ZM234 1074.88H235V1074.29L234.48 1074.01L234 1074.88ZM234 1137.38L233.534 1138.27L235 1139.04V1137.38H234ZM46.5 1038.63L46.034 1037.75L44.354 1038.63L46.034 1039.52L46.5 1038.63ZM234 939.885H235V938.228L233.534 939L234 939.885ZM234 1002.38L234.489 1003.26L235 1002.97V1002.38H234ZM201 1020.88L200.746 1021.85L201.136 1021.95L201.489 1021.76L201 1020.88ZM186.75 1017.13L187.004 1016.17L186.664 1016.08L186.343 1016.22L186.75 1017.13ZM211.5 1084.38V1083.38H172V1084.38V1085.38H211.5V1084.38ZM172 1084.38H173L173 991.885H172H171L171 1084.38H172ZM172 991.885V992.885H211.5V991.885V990.885H172V991.885ZM211.5 991.885H210.5L210.5 1084.38H211.5H212.5L212.5 991.885H211.5ZM138.5 1038.63L138.093 1039.55L186.343 1061.05L186.75 1060.13L187.157 1059.22L138.907 1037.72L138.5 1038.63ZM186.75 1060.13L187.072 1061.08L199.572 1056.83L199.25 1055.88L198.928 1054.94L186.428 1059.19L186.75 1060.13ZM199.25 1055.88L198.77 1056.76L233.52 1075.76L234 1074.88L234.48 1074.01L199.73 1055.01L199.25 1055.88ZM234 1074.88H233V1137.38H234H235V1074.88H234ZM234 1137.38L234.466 1136.5L46.966 1037.75L46.5 1038.63L46.034 1039.52L233.534 1138.27L234 1137.38ZM46.5 1038.63L46.966 1039.52L234.466 940.77L234 939.885L233.534 939L46.034 1037.75L46.5 1038.63ZM234 939.885H233V1002.38H234H235V939.885H234ZM234 1002.38L233.511 1001.51L200.511 1020.01L201 1020.88L201.489 1021.76L234.489 1003.26L234 1002.38ZM201 1020.88L201.254 1019.92L187.004 1016.17L186.75 1017.13L186.496 1018.1L200.746 1021.85L201 1020.88ZM186.75 1017.13L186.343 1016.22L138.093 1037.72L138.5 1038.63L138.907 1039.55L187.157 1018.05L186.75 1017.13ZM169.25 874.635L169.794 875.474L169.807 875.465L169.82 875.456L169.25 874.635ZM182.75 858.385L183.662 858.795L183.666 858.787L182.75 858.385ZM184 814.385L183.059 814.724L183.059 814.724L184 814.385ZM176 798.635L176.818 798.059L176.814 798.054L176 798.635ZM165.75 786.135V785.135H163.413L165.027 786.825L165.75 786.135ZM222.25 786.135L223.076 785.571L222.778 785.135H222.25V786.135ZM234 808.635L233.068 808.996L233.072 809.008L233.077 809.019L234 808.635ZM232.5 881.385L231.555 881.057L231.555 881.057L232.5 881.385ZM213.75 913.385L214.484 914.064L214.484 914.064L213.75 913.385ZM184.5 933.885L184.108 932.965L184.108 932.965L184.5 933.885ZM79.25 913.385L79.9843 912.706L79.9843 912.706L79.25 913.385ZM60.5 881.385L61.4448 881.057L61.4448 881.057L60.5 881.385ZM58.75 808.635L59.6798 809.003L59.6824 808.996L58.75 808.635ZM70.75 786.135V785.135H70.2324L69.9336 785.557L70.75 786.135ZM127.25 786.135L127.973 786.825L129.587 785.135H127.25V786.135ZM117 798.635L117.804 799.23L117.809 799.223L117.814 799.216L117 798.635ZM109 814.385L109.941 814.724L109.945 814.713L109.949 814.701L109 814.385ZM110.25 858.385L109.334 858.787L109.338 858.795L110.25 858.385ZM124 874.635L123.44 875.463L123.445 875.467L124 874.635ZM146.5 880.635V881.635C155.65 881.635 163.432 879.6 169.794 875.474L169.25 874.635L168.706 873.796C162.734 877.669 155.35 879.635 146.5 879.635V880.635ZM169.25 874.635L169.82 875.456C175.97 871.186 180.588 865.627 183.662 858.795L182.75 858.385L181.838 857.974C178.912 864.476 174.53 869.75 168.68 873.813L169.25 874.635ZM182.75 858.385L183.666 858.787C186.726 851.815 188.25 844.177 188.25 835.885H187.25H186.25C186.25 843.926 184.774 851.288 181.834 857.983L182.75 858.385ZM187.25 835.885H188.25C188.25 827.469 187.157 820.182 184.941 814.045L184 814.385L183.059 814.724C185.177 820.588 186.25 827.634 186.25 835.885H187.25ZM184 814.385L184.941 814.045C182.748 807.974 180.043 802.643 176.818 798.059L176 798.635L175.182 799.21C178.29 803.627 180.918 808.795 183.059 814.724L184 814.385ZM176 798.635L176.814 798.054C173.456 793.353 170.01 789.149 166.473 785.444L165.75 786.135L165.027 786.825C168.49 790.454 171.877 794.583 175.186 799.216L176 798.635ZM165.75 786.135V787.135H222.25V786.135V785.135H165.75V786.135ZM222.25 786.135L221.424 786.699C226.045 793.465 229.927 800.897 233.068 808.996L234 808.635L234.932 808.273C231.74 800.039 227.788 792.471 223.076 785.571L222.25 786.135ZM234 808.635L233.077 809.019C236.341 816.854 238 827.126 238 839.885H239H240C240 826.977 238.325 816.416 234.923 808.25L234 808.635ZM239 839.885H238C238 854.956 235.847 868.677 231.555 881.057L232.5 881.385L233.445 881.712C237.82 869.093 240 855.147 240 839.885H239ZM232.5 881.385L231.555 881.057C227.262 893.44 221.08 903.984 213.016 912.706L213.75 913.385L214.484 914.064C222.754 905.119 229.071 894.33 233.445 881.712L232.5 881.385ZM213.75 913.385L213.016 912.706C204.947 921.433 195.315 928.186 184.108 932.965L184.5 933.885L184.892 934.805C196.352 929.917 206.22 923.003 214.484 914.064L213.75 913.385ZM184.5 933.885L184.108 932.965C172.914 937.739 160.383 940.135 146.5 940.135V941.135V942.135C160.617 942.135 173.419 939.698 184.892 934.805L184.5 933.885ZM146.5 941.135V940.135C132.617 940.135 120.086 937.739 108.892 932.965L108.5 933.885L108.108 934.805C119.581 939.698 132.383 942.135 146.5 942.135V941.135ZM108.5 933.885L108.892 932.965C97.6854 928.186 88.0528 921.433 79.9843 912.706L79.25 913.385L78.5157 914.064C86.7805 923.003 96.6479 929.917 108.108 934.805L108.5 933.885ZM79.25 913.385L79.9843 912.706C71.9202 903.984 65.7375 893.44 61.4448 881.057L60.5 881.385L59.5552 881.712C63.9291 894.33 70.2464 905.119 78.5157 914.064L79.25 913.385ZM60.5 881.385L61.4448 881.057C57.1529 868.677 55 854.956 55 839.885H54H53C53 855.147 55.1804 869.093 59.5552 881.712L60.5 881.385ZM54 839.885H55C55 827.121 56.5764 816.843 59.6798 809.003L58.75 808.635L57.8202 808.267C54.5902 816.427 53 826.981 53 839.885H54ZM58.75 808.635L59.6824 808.996C62.8207 800.903 66.7826 793.476 71.5664 786.712L70.75 786.135L69.9336 785.557C65.0507 792.461 61.0126 800.034 57.8176 808.273L58.75 808.635ZM70.75 786.135V787.135H127.25V786.135V785.135H70.75V786.135ZM127.25 786.135L126.527 785.444C122.99 789.149 119.544 793.353 116.186 798.054L117 798.635L117.814 799.216C121.123 794.583 124.51 790.454 127.973 786.825L127.25 786.135ZM117 798.635L116.196 798.04C112.793 802.634 110.08 807.981 108.051 814.069L109 814.385L109.949 814.701C111.92 808.788 114.541 803.635 117.804 799.23L117 798.635ZM109 814.385L108.059 814.045C105.843 820.182 104.75 827.469 104.75 835.885H105.75H106.75C106.75 827.634 107.823 820.588 109.941 814.724L109 814.385ZM105.75 835.885H104.75C104.75 844.177 106.274 851.815 109.334 858.787L110.25 858.385L111.166 857.983C108.226 851.288 106.75 843.926 106.75 835.885H105.75ZM110.25 858.385L109.338 858.795C112.416 865.634 117.122 871.195 123.44 875.463L124 874.635L124.56 873.806C118.544 869.742 114.084 864.468 111.162 857.974L110.25 858.385ZM124 874.635L123.445 875.467C129.646 879.601 137.352 881.635 146.5 881.635V880.635V879.635C137.648 879.635 130.354 877.669 124.555 873.803L124 874.635ZM59 753.645H58V754.645H59V753.645ZM59 696.145V695.145H58V696.145H59ZM234 696.145H235V695.145H234V696.145ZM234 753.645V754.645H235V753.645H234ZM59 642.395H58V642.864L58.3614 643.164L59 642.395ZM59 578.395L59.6397 577.626L58 576.261V578.395H59ZM141 646.645L140.36 647.413L140.977 647.927L141.612 647.435L141 646.645ZM234 574.645H235V572.606L233.388 573.854L234 574.645ZM234 641.145L234.613 641.935L235 641.635V641.145H234ZM142.75 711.895L142.111 712.664L142.729 713.176L143.363 712.685L142.75 711.895ZM59 753.645H60L60 696.145H59H58L58 753.645H59ZM59 696.145V697.145H234V696.145V695.145H59V696.145ZM234 696.145H233V753.645H234H235V696.145H234ZM234 753.645V752.645H59V753.645V754.645H234V753.645ZM59 642.395H60V578.395H59H58V642.395H59ZM59 578.395L58.3603 579.163L140.36 647.413L141 646.645L141.64 645.876L59.6397 577.626L59 578.395ZM141 646.645L141.612 647.435L234.612 575.435L234 574.645L233.388 573.854L140.388 645.854L141 646.645ZM234 574.645H233V641.145H234H235V574.645H234ZM234 641.145L233.387 640.354L142.137 711.104L142.75 711.895L143.363 712.685L234.613 641.935L234 641.145ZM142.75 711.895L143.389 711.125L59.6386 641.625L59 642.395L58.3614 643.164L142.111 712.664L142.75 711.895ZM234 520.332V521.332H235V520.332H234ZM190.25 520.332H189.25V521.332H190.25V520.332ZM190.25 432.082V431.082H189.25V432.082H190.25ZM234 432.082H235V431.082H234V432.082ZM102.75 520.332V521.332H103.75V520.332H102.75ZM59 520.332H58V521.332H59V520.332ZM59 432.082V431.082H58V432.082H59ZM102.75 432.082H103.75V431.082H102.75V432.082ZM165.25 520.332V521.332H166.25V520.332H165.25ZM122.75 520.332H121.75V521.332H122.75V520.332ZM122.75 437.082V436.082H121.75V437.082H122.75ZM165.25 437.082H166.25V436.082H165.25V437.082ZM59 558.332H58V559.332H59V558.332ZM59 505.832V504.832H58V505.832H59ZM234 505.832H235V504.832H234V505.832ZM234 558.332V559.332H235V558.332H234ZM234 520.332V519.332H190.25V520.332V521.332H234V520.332ZM190.25 520.332H191.25V432.082H190.25H189.25V520.332H190.25ZM190.25 432.082V433.082H234V432.082V431.082H190.25V432.082ZM234 432.082H233V520.332H234H235V432.082H234ZM102.75 520.332V519.332H59V520.332V521.332H102.75V520.332ZM59 520.332H60L60 432.082H59H58L58 520.332H59ZM59 432.082V433.082H102.75V432.082V431.082H59V432.082ZM102.75 432.082H101.75V520.332H102.75H103.75V432.082H102.75ZM165.25 520.332V519.332H122.75V520.332V521.332H165.25V520.332ZM122.75 520.332H123.75V437.082H122.75H121.75V520.332H122.75ZM122.75 437.082V438.082H165.25V437.082V436.082H122.75V437.082ZM165.25 437.082H164.25V520.332H165.25H166.25V437.082H165.25ZM59 558.332H60V505.832H59H58V558.332H59ZM59 505.832V506.832H234V505.832V504.832H59V505.832ZM234 505.832H233V558.332H234H235V505.832H234ZM234 558.332V557.332H59V558.332V559.332H234V558.332ZM59 285.891H58V286.891H59V285.891ZM59 233.391V232.391H58V233.391H59ZM242.75 233.391L243.541 234.003L244.788 232.391H242.75V233.391ZM154.75 347.141L153.959 346.529L152.712 348.141H154.75V347.141ZM234 347.141H235V346.141H234V347.141ZM234 399.641V400.641H235V399.641H234ZM50.25 399.641L49.4591 399.029L48.2121 400.641H50.25V399.641ZM138.25 285.891L139.041 286.503L140.288 284.891H138.25V285.891ZM59 285.891H60L60 233.391H59H58L58 285.891H59ZM59 233.391V234.391H242.75V233.391V232.391H59V233.391ZM242.75 233.391L241.959 232.779L153.959 346.529L154.75 347.141L155.541 347.753L243.541 234.003L242.75 233.391ZM154.75 347.141V348.141H234V347.141V346.141H154.75V347.141ZM234 347.141H233V399.641H234H235V347.141H234ZM234 399.641V398.641H50.25V399.641V400.641H234V399.641ZM50.25 399.641L51.0409 400.253L139.041 286.503L138.25 285.891L137.459 285.279L49.4591 399.029L50.25 399.641ZM138.25 285.891V284.891H59V285.891V286.891H138.25V285.891ZM59 198.469H58V199.469H59V198.469ZM59 141.219V140.219H58V141.219H59ZM234 141.219H235V140.219H234V141.219ZM234 198.469V199.469H235V198.469H234ZM234 160.469V161.469H235V160.469H234ZM186.5 160.469H185.5V161.469H186.5V160.469ZM168 93.7187L167.553 94.6132L167.564 94.6188L167.576 94.6242L168 93.7187ZM125 93.7187L125.424 94.6242L125.436 94.6188L125.447 94.6132L125 93.7187ZM113 103.719L112.158 103.18L112.158 103.18L113 103.719ZM107.75 117.469L108.736 117.633L108.736 117.633L107.75 117.469ZM106.5 160.469V161.469H107.5V160.469H106.5ZM59 160.469H58V161.469H59V160.469ZM69.5 77.4687L70.4005 77.9035L70.4025 77.8995L69.5 77.4687ZM99.5 43.9687L100.008 44.8301L100.016 44.8253L99.5 43.9687ZM193.5 43.9687L192.989 44.8282L192.992 44.8301L193.5 43.9687ZM223.5 77.4687L222.598 77.8995L222.599 77.9035L223.5 77.4687ZM59 198.469H60V141.219H59H58V198.469H59ZM59 141.219V142.219H234V141.219V140.219H59V141.219ZM234 141.219H233V198.469H234H235V141.219H234ZM234 198.469V197.469H59V198.469V199.469H234V198.469ZM234 129.719H233V160.469H234H235V129.719H234ZM234 160.469V159.469H186.5V160.469V161.469H234V160.469ZM186.5 160.469H187.5L187.5 132.219H186.5H185.5L185.5 160.469H186.5ZM186.5 132.219H187.5C187.5 127.328 187.078 122.356 186.236 117.304L185.25 117.469L184.264 117.633C185.088 122.581 185.5 127.443 185.5 132.219H186.5ZM185.25 117.469L186.236 117.304C185.381 112.174 183.584 107.463 180.842 103.18L180 103.719L179.158 104.258C181.75 108.308 183.452 112.763 184.264 117.633L185.25 117.469ZM180 103.719L180.842 103.18C178.056 98.8257 173.896 95.378 168.424 92.8133L168 93.7187L167.576 94.6242C172.771 97.0595 176.611 100.278 179.158 104.258L180 103.719ZM168 93.7187L168.447 92.8243C162.922 90.0619 155.583 88.7188 146.5 88.7188V89.7188V90.7188C155.417 90.7188 162.411 92.0423 167.553 94.6132L168 93.7187ZM146.5 89.7188V88.7188C137.417 88.7188 130.078 90.0619 124.553 92.8243L125 93.7187L125.447 94.6132C130.589 92.0423 137.583 90.7188 146.5 90.7188V89.7188ZM125 93.7187L124.576 92.8133C119.104 95.378 114.944 98.8257 112.158 103.18L113 103.719L113.842 104.258C116.389 100.278 120.229 97.0595 125.424 94.6242L125 93.7187ZM113 103.719L112.158 103.18C109.416 107.463 107.619 112.174 106.764 117.304L107.75 117.469L108.736 117.633C109.548 112.763 111.25 108.308 113.842 104.258L113 103.719ZM107.75 117.469L106.764 117.304C105.922 122.356 105.5 127.328 105.5 132.219H106.5H107.5C107.5 127.443 107.912 122.581 108.736 117.633L107.75 117.469ZM106.5 132.219H105.5L105.5 160.469H106.5H107.5L107.5 132.219H106.5ZM106.5 160.469V159.469H59V160.469V161.469H106.5V160.469ZM59 160.469H60V129.719H59H58V160.469H59ZM59 129.719H60C60 109.498 63.4809 92.2371 70.4005 77.9035L69.5 77.4687L68.5994 77.034C61.5191 91.7004 58 109.273 58 129.719H59ZM69.5 77.4687L70.4025 77.8995C77.3237 63.3979 87.1927 52.3878 100.008 44.8301L99.5 43.9687L98.992 43.1074C85.8073 50.883 75.6763 62.2062 68.5975 77.038L69.5 77.4687ZM99.5 43.9687L100.016 44.8253C112.831 37.1036 128.311 33.2187 146.5 33.2187V32.2187V31.2187C128.023 31.2187 112.169 35.1672 98.9839 43.1122L99.5 43.9687ZM146.5 32.2187V33.2187C164.52 33.2187 180.003 37.1027 192.989 44.8282L193.5 43.9687L194.011 43.1093C180.663 35.1682 164.813 31.2187 146.5 31.2187V32.2187ZM193.5 43.9687L192.992 44.8301C205.807 52.3878 215.676 63.3979 222.598 77.8995L223.5 77.4687L224.402 77.038C217.324 62.2062 207.193 50.883 194.008 43.1074L193.5 43.9687ZM223.5 77.4687L222.599 77.9035C229.519 92.2371 233 109.498 233 129.719H234H235C235 109.273 231.481 91.7004 224.401 77.034L223.5 77.4687Z" fill="white" fill-opacity="0.2" mask="url(#path-1-outside-1_143_6274)"/>
<mask id="path-3-outside-2_143_6274" maskUnits="userSpaceOnUse" x="64.9675" y="44.623" width="201" height="1268" fill="black">
<rect fill="white" x="64.9675" y="44.623" width="201" height="1268"/>
<path d="M171.218 1270.62H148.718V1242.37C148.718 1238.21 148.134 1234.79 146.968 1232.12C145.801 1229.46 144.134 1227.46 141.968 1226.12C139.801 1224.79 137.218 1224.12 134.218 1224.12C129.718 1224.12 126.468 1225.62 124.468 1228.62C122.301 1231.46 121.218 1236.04 121.218 1242.37V1256.12H213.718V1237.37C213.718 1233.21 213.384 1229.37 212.718 1225.87C212.051 1222.37 210.634 1219.54 208.468 1217.37C206.301 1215.21 202.884 1214.12 198.218 1214.12C195.384 1214.12 193.134 1214.79 191.468 1216.12C189.634 1217.29 188.301 1218.96 187.468 1221.12C186.468 1223.29 185.801 1225.79 185.468 1228.62C185.134 1231.29 184.968 1234.21 184.968 1237.37V1270.62H154.968V1229.87C154.968 1221.37 155.968 1212.87 157.968 1204.37C159.801 1195.71 162.801 1187.79 166.968 1180.62C171.134 1173.46 176.551 1167.71 183.218 1163.37C189.718 1158.87 197.634 1156.62 206.968 1156.62C218.634 1156.62 227.968 1159.54 234.968 1165.37C241.968 1171.04 247.051 1179.37 250.218 1190.37C253.384 1201.21 254.968 1214.37 254.968 1229.87V1311.12H79.9675V1234.87C79.9675 1221.87 81.6342 1210.29 84.9675 1200.12C88.3009 1189.79 93.3009 1181.62 99.9675 1175.62C106.634 1169.62 114.968 1166.62 124.968 1166.62C134.801 1166.62 143.218 1169.62 150.218 1175.62C157.051 1181.62 162.301 1189.79 165.968 1200.12C169.468 1210.29 171.218 1221.87 171.218 1234.87V1270.62ZM232.468 1098.65H192.968L192.968 1006.15H232.468L232.468 1098.65ZM159.468 1052.9L207.718 1074.4L220.218 1070.15L254.968 1089.15V1151.65L67.4675 1052.9L254.968 954.15V1016.65L221.968 1035.15L207.718 1031.4L159.468 1052.9ZM167.468 894.9C176.468 894.9 184.051 892.9 190.218 888.9C196.218 884.734 200.718 879.317 203.718 872.65C206.718 865.817 208.218 858.317 208.218 850.15C208.218 841.817 207.134 834.65 204.968 828.65C202.801 822.65 200.134 817.4 196.968 812.9C193.634 808.234 190.218 804.067 186.718 800.4H243.218C247.884 807.234 251.801 814.734 254.968 822.9C258.301 830.9 259.968 841.317 259.968 854.15C259.968 869.317 257.801 883.15 253.468 895.65C249.134 908.15 242.884 918.817 234.718 927.65C226.551 936.484 216.801 943.317 205.468 948.15C194.134 952.984 181.468 955.4 167.468 955.4C153.468 955.4 140.801 952.984 129.468 948.15C118.134 943.317 108.384 936.484 100.218 927.65C92.0509 918.817 85.8009 908.15 81.4675 895.65C77.1342 883.15 74.9675 869.317 74.9675 854.15C74.9675 841.317 76.5509 830.9 79.7175 822.9C82.8842 814.734 86.8842 807.234 91.7175 800.4H148.218C144.718 804.067 141.301 808.234 137.968 812.9C134.634 817.4 131.968 822.65 129.968 828.65C127.801 834.65 126.718 841.817 126.718 850.15C126.718 858.317 128.218 865.817 131.218 872.65C134.218 879.317 138.801 884.734 144.968 888.9C150.968 892.9 158.468 894.9 167.468 894.9ZM79.9675 767.91L79.9675 710.41H254.968V767.91H79.9675ZM79.9675 656.66V592.66L161.968 660.91L254.968 588.91V655.41L163.718 726.16L79.9675 656.66ZM254.968 534.598H211.218V446.348H254.968V534.598ZM123.718 534.598H79.9675L79.9675 446.348H123.718V534.598ZM186.218 534.598H143.718V451.348H186.218V534.598ZM79.9675 572.598V520.098H254.968V572.598H79.9675ZM79.9675 300.156L79.9675 247.656H263.718L175.718 361.406H254.968V413.906H71.2175L159.218 300.156H79.9675ZM79.9675 212.734V155.484H254.968V212.734H79.9675ZM254.968 143.984V174.734H207.468L207.468 146.484C207.468 141.651 207.051 136.734 206.218 131.734C205.384 126.734 203.634 122.151 200.968 117.984C198.301 113.818 194.301 110.484 188.968 107.984C183.634 105.318 176.468 103.984 167.468 103.984C158.468 103.984 151.301 105.318 145.968 107.984C140.634 110.484 136.634 113.818 133.968 117.984C131.301 122.151 129.551 126.734 128.718 131.734C127.884 136.734 127.468 141.651 127.468 146.484L127.468 174.734H79.9675V143.984C79.9675 123.651 83.4675 106.234 90.4675 91.7344C97.4675 77.0677 107.468 65.901 120.468 58.2344C133.468 50.401 149.134 46.4844 167.468 46.4844C185.634 46.4844 201.301 50.401 214.468 58.2344C227.468 65.901 237.468 77.0677 244.468 91.7344C251.468 106.234 254.968 123.651 254.968 143.984Z"/>
</mask>
<path d="M171.218 1270.62V1271.62H172.218V1270.62H171.218ZM148.718 1270.62H147.718V1271.62H148.718V1270.62ZM141.968 1226.12L142.492 1225.27L142.492 1225.27L141.968 1226.12ZM124.468 1228.62L125.262 1229.23L125.282 1229.2L125.3 1229.18L124.468 1228.62ZM121.218 1256.12H120.218V1257.12H121.218V1256.12ZM213.718 1256.12V1257.12H214.718V1256.12H213.718ZM212.718 1225.87L211.735 1226.06L211.735 1226.06L212.718 1225.87ZM208.468 1217.37L209.175 1216.67L209.175 1216.67L208.468 1217.37ZM191.468 1216.12L192.004 1216.97L192.05 1216.94L192.092 1216.9L191.468 1216.12ZM187.468 1221.12L188.375 1221.54L188.389 1221.51L188.401 1221.48L187.468 1221.12ZM185.468 1228.62L186.46 1228.75L186.461 1228.74L185.468 1228.62ZM184.968 1270.62V1271.62H185.968V1270.62H184.968ZM154.968 1270.62H153.968V1271.62H154.968V1270.62ZM157.968 1204.37L158.941 1204.6L158.944 1204.59L158.946 1204.58L157.968 1204.37ZM166.968 1180.62L167.832 1181.13L167.832 1181.13L166.968 1180.62ZM183.218 1163.37L183.763 1164.21L183.775 1164.2L183.787 1164.2L183.218 1163.37ZM234.968 1165.37L234.327 1166.14L234.333 1166.15L234.338 1166.15L234.968 1165.37ZM250.218 1190.37L249.257 1190.65L249.258 1190.65L250.218 1190.37ZM254.968 1311.12V1312.12H255.968V1311.12H254.968ZM79.9675 1311.12H78.9675V1312.12H79.9675V1311.12ZM84.9675 1200.12L85.9178 1200.43L85.9192 1200.43L84.9675 1200.12ZM99.9675 1175.62L99.2986 1174.88L99.2986 1174.88L99.9675 1175.62ZM150.218 1175.62L150.877 1174.87L150.868 1174.86L150.218 1175.62ZM165.968 1200.12L166.913 1199.8L166.91 1199.79L165.968 1200.12ZM171.218 1270.62V1269.62H148.718V1270.62V1271.62H171.218V1270.62ZM148.718 1270.62H149.718V1242.37H148.718H147.718V1270.62H148.718ZM148.718 1242.37H149.718C149.718 1238.12 149.124 1234.56 147.884 1231.72L146.968 1232.12L146.051 1232.52C147.144 1235.02 147.718 1238.29 147.718 1242.37H148.718ZM146.968 1232.12L147.884 1231.72C146.648 1228.9 144.856 1226.73 142.492 1225.27L141.968 1226.12L141.443 1226.97C143.412 1228.19 144.954 1230.02 146.051 1232.52L146.968 1232.12ZM141.968 1226.12L142.492 1225.27C140.141 1223.82 137.369 1223.12 134.218 1223.12V1224.12V1225.12C137.066 1225.12 139.461 1225.75 141.443 1226.97L141.968 1226.12ZM134.218 1224.12V1223.12C129.477 1223.12 125.868 1224.72 123.635 1228.07L124.468 1228.62L125.3 1229.18C127.067 1226.53 129.958 1225.12 134.218 1225.12V1224.12ZM124.468 1228.62L123.673 1228.02C121.304 1231.11 120.218 1235.97 120.218 1242.37H121.218H122.218C122.218 1236.11 123.298 1231.8 125.262 1229.23L124.468 1228.62ZM121.218 1242.37H120.218V1256.12H121.218H122.218V1242.37H121.218ZM121.218 1256.12V1257.12H213.718V1256.12V1255.12H121.218V1256.12ZM213.718 1256.12H214.718V1237.37H213.718H212.718V1256.12H213.718ZM213.718 1237.37H214.718C214.718 1233.15 214.38 1229.26 213.7 1225.69L212.718 1225.87L211.735 1226.06C212.388 1229.49 212.718 1233.26 212.718 1237.37H213.718ZM212.718 1225.87L213.7 1225.69C213.002 1222.02 211.505 1219 209.175 1216.67L208.468 1217.37L207.76 1218.08C209.763 1220.08 211.1 1222.72 211.735 1226.06L212.718 1225.87ZM208.468 1217.37L209.175 1216.67C206.742 1214.23 203.013 1213.12 198.218 1213.12V1214.12V1215.12C202.755 1215.12 205.86 1216.18 207.76 1218.08L208.468 1217.37ZM198.218 1214.12V1213.12C195.232 1213.12 192.737 1213.83 190.843 1215.34L191.468 1216.12L192.092 1216.9C193.531 1215.75 195.537 1215.12 198.218 1215.12V1214.12ZM191.468 1216.12L190.931 1215.28C188.904 1216.57 187.439 1218.41 186.534 1220.76L187.468 1221.12L188.401 1221.48C189.163 1219.5 190.364 1218.01 192.004 1216.97L191.468 1216.12ZM187.468 1221.12L186.56 1220.7C185.508 1222.98 184.818 1225.59 184.474 1228.51L185.468 1228.62L186.461 1228.74C186.784 1225.99 187.427 1223.6 188.375 1221.54L187.468 1221.12ZM185.468 1228.62L184.475 1228.5C184.136 1231.21 183.968 1234.17 183.968 1237.37H184.968H185.968C185.968 1234.24 186.132 1231.37 186.46 1228.75L185.468 1228.62ZM184.968 1237.37H183.968V1270.62H184.968H185.968V1237.37H184.968ZM184.968 1270.62V1269.62H154.968V1270.62V1271.62H184.968V1270.62ZM154.968 1270.62H155.968V1229.87H154.968H153.968V1270.62H154.968ZM154.968 1229.87H155.968C155.968 1221.45 156.958 1213.03 158.941 1204.6L157.968 1204.37L156.994 1204.14C154.977 1212.72 153.968 1221.29 153.968 1229.87H154.968ZM157.968 1204.37L158.946 1204.58C160.759 1196.01 163.722 1188.19 167.832 1181.13L166.968 1180.62L166.103 1180.12C161.879 1187.39 158.843 1195.4 156.989 1204.17L157.968 1204.37ZM166.968 1180.62L167.832 1181.13C171.923 1174.09 177.233 1168.46 183.763 1164.21L183.218 1163.37L182.673 1162.53C175.869 1166.96 170.345 1172.82 166.103 1180.12L166.968 1180.62ZM183.218 1163.37L183.787 1164.2C190.091 1159.83 197.8 1157.62 206.968 1157.62V1156.62V1155.62C197.468 1155.62 189.344 1157.92 182.648 1162.55L183.218 1163.37ZM206.968 1156.62V1157.62C218.467 1157.62 227.553 1160.5 234.327 1166.14L234.968 1165.37L235.608 1164.6C228.383 1158.58 218.801 1155.62 206.968 1155.62V1156.62ZM234.968 1165.37L234.338 1166.15C241.141 1171.66 246.131 1179.79 249.257 1190.65L250.218 1190.37L251.179 1190.1C247.971 1178.95 242.794 1170.42 235.597 1164.6L234.968 1165.37ZM250.218 1190.37L249.258 1190.65C252.39 1201.37 253.968 1214.44 253.968 1229.87H254.968H255.968C255.968 1214.31 254.379 1201.04 251.177 1190.09L250.218 1190.37ZM254.968 1229.87H253.968V1311.12H254.968H255.968V1229.87H254.968ZM254.968 1311.12V1310.12H79.9675V1311.12V1312.12H254.968V1311.12ZM79.9675 1311.12H80.9675V1234.87H79.9675H78.9675V1311.12H79.9675ZM79.9675 1234.87H80.9675C80.9675 1221.96 82.6236 1210.48 85.9178 1200.43L84.9675 1200.12L84.0173 1199.81C80.6448 1210.1 78.9675 1221.79 78.9675 1234.87H79.9675ZM84.9675 1200.12L85.9192 1200.43C89.2098 1190.23 94.1259 1182.23 100.636 1176.37L99.9675 1175.62L99.2986 1174.88C92.4758 1181.02 87.3919 1189.35 84.0158 1199.82L84.9675 1200.12ZM99.9675 1175.62L100.636 1176.37C107.098 1170.55 115.184 1167.62 124.968 1167.62V1166.62V1165.62C114.751 1165.62 106.17 1168.7 99.2986 1174.88L99.9675 1175.62ZM124.968 1166.62V1167.62C134.579 1167.62 142.761 1170.55 149.567 1176.38L150.218 1175.62L150.868 1174.86C143.674 1168.7 135.022 1165.62 124.968 1165.62V1166.62ZM150.218 1175.62L149.558 1176.37C156.239 1182.24 161.404 1190.25 165.025 1200.46L165.968 1200.12L166.91 1199.79C163.198 1189.33 157.863 1181.01 150.877 1174.87L150.218 1175.62ZM165.968 1200.12L165.022 1200.45C168.479 1210.49 170.218 1221.96 170.218 1234.87H171.218H172.218C172.218 1221.78 170.456 1210.09 166.913 1199.8L165.968 1200.12ZM171.218 1234.87H170.218V1270.62H171.218H172.218V1234.87H171.218ZM232.468 1098.65V1099.65H233.468V1098.65H232.468ZM192.968 1098.65H191.968V1099.65H192.968V1098.65ZM192.968 1006.15V1005.15H191.968V1006.15H192.968ZM232.468 1006.15H233.468V1005.15H232.468V1006.15ZM159.468 1052.9L159.061 1051.99L157.011 1052.9L159.061 1053.81L159.468 1052.9ZM207.718 1074.4L207.311 1075.31L207.668 1075.47L208.039 1075.35L207.718 1074.4ZM220.218 1070.15L220.697 1069.27L220.312 1069.06L219.896 1069.2L220.218 1070.15ZM254.968 1089.15H255.968V1088.56L255.447 1088.27L254.968 1089.15ZM254.968 1151.65L254.502 1152.54L255.968 1153.31V1151.65H254.968ZM67.4675 1052.9L67.0015 1052.02L65.3215 1052.9L67.0015 1053.79L67.4675 1052.9ZM254.968 954.15H255.968V952.494L254.502 953.266L254.968 954.15ZM254.968 1016.65L255.457 1017.52L255.968 1017.24V1016.65H254.968ZM221.968 1035.15L221.713 1036.12L222.104 1036.22L222.457 1036.02L221.968 1035.15ZM207.718 1031.4L207.972 1030.43L207.632 1030.34L207.311 1030.49L207.718 1031.4ZM232.468 1098.65V1097.65H192.968V1098.65V1099.65H232.468V1098.65ZM192.968 1098.65H193.968L193.968 1006.15H192.968H191.968L191.968 1098.65H192.968ZM192.968 1006.15V1007.15H232.468V1006.15V1005.15H192.968V1006.15ZM232.468 1006.15H231.468L231.468 1098.65H232.468H233.468L233.468 1006.15H232.468ZM159.468 1052.9L159.061 1053.81L207.311 1075.31L207.718 1074.4L208.125 1073.49L159.875 1051.99L159.468 1052.9ZM207.718 1074.4L208.039 1075.35L220.539 1071.1L220.218 1070.15L219.896 1069.2L207.396 1073.45L207.718 1074.4ZM220.218 1070.15L219.738 1071.03L254.488 1090.03L254.968 1089.15L255.447 1088.27L220.697 1069.27L220.218 1070.15ZM254.968 1089.15H253.968V1151.65H254.968H255.968V1089.15H254.968ZM254.968 1151.65L255.434 1150.77L67.9335 1052.02L67.4675 1052.9L67.0015 1053.79L254.502 1152.54L254.968 1151.65ZM67.4675 1052.9L67.9335 1053.79L255.434 955.035L254.968 954.15L254.502 953.266L67.0015 1052.02L67.4675 1052.9ZM254.968 954.15H253.968V1016.65H254.968H255.968V954.15H254.968ZM254.968 1016.65L254.479 1015.78L221.479 1034.28L221.968 1035.15L222.457 1036.02L255.457 1017.52L254.968 1016.65ZM221.968 1035.15L222.222 1034.18L207.972 1030.43L207.718 1031.4L207.463 1032.37L221.713 1036.12L221.968 1035.15ZM207.718 1031.4L207.311 1030.49L159.061 1051.99L159.468 1052.9L159.875 1053.81L208.125 1032.31L207.718 1031.4ZM190.218 888.9L190.762 889.739L190.775 889.731L190.788 889.722L190.218 888.9ZM203.718 872.65L204.629 873.061L204.633 873.052L203.718 872.65ZM204.968 828.65L204.027 828.99L204.027 828.99L204.968 828.65ZM196.968 812.9L197.785 812.325L197.781 812.319L196.968 812.9ZM186.718 800.4V799.4H184.381L185.994 801.091L186.718 800.4ZM243.218 800.4L244.043 799.836L243.746 799.4H243.218V800.4ZM254.968 822.9L254.035 823.262L254.04 823.274L254.044 823.285L254.968 822.9ZM253.468 895.65L252.523 895.323L252.523 895.323L253.468 895.65ZM234.718 927.65L235.452 928.329L235.452 928.329L234.718 927.65ZM205.468 948.15L205.075 947.231L205.075 947.231L205.468 948.15ZM100.218 927.65L100.952 926.972L100.952 926.972L100.218 927.65ZM81.4675 895.65L82.4124 895.323L82.4124 895.323L81.4675 895.65ZM79.7175 822.9L80.6473 823.268L80.6499 823.262L79.7175 822.9ZM91.7175 800.4V799.4H91.2L90.9011 799.823L91.7175 800.4ZM148.218 800.4L148.941 801.091L150.555 799.4H148.218V800.4ZM137.968 812.9L138.771 813.496L138.776 813.489L138.781 813.482L137.968 812.9ZM129.968 828.65L130.908 828.99L130.912 828.978L130.916 828.967L129.968 828.65ZM131.218 872.65L130.302 873.052L130.306 873.061L131.218 872.65ZM144.968 888.9L144.408 889.729L144.413 889.732L144.968 888.9ZM167.468 894.9V895.9C176.617 895.9 184.4 893.866 190.762 889.739L190.218 888.9L189.673 888.061C183.702 891.935 176.318 893.9 167.468 893.9V894.9ZM190.218 888.9L190.788 889.722C196.937 885.452 201.555 879.893 204.629 873.061L203.718 872.65L202.806 872.24C199.88 878.741 195.498 884.016 189.647 888.079L190.218 888.9ZM203.718 872.65L204.633 873.052C207.694 866.081 209.218 858.442 209.218 850.15H208.218H207.218C207.218 858.192 205.741 865.553 202.802 872.248L203.718 872.65ZM208.218 850.15H209.218C209.218 841.735 208.124 834.447 205.908 828.311L204.968 828.65L204.027 828.99C206.144 834.853 207.218 841.899 207.218 850.15H208.218ZM204.968 828.65L205.908 828.311C203.716 822.24 201.011 816.908 197.785 812.325L196.968 812.9L196.15 813.476C199.258 817.893 201.886 823.061 204.027 828.99L204.968 828.65ZM196.968 812.9L197.781 812.319C194.424 807.619 190.977 803.415 187.441 799.71L186.718 800.4L185.994 801.091C189.458 804.719 192.844 808.849 196.154 813.482L196.968 812.9ZM186.718 800.4V801.4H243.218V800.4V799.4H186.718V800.4ZM243.218 800.4L242.392 800.964C247.013 807.731 250.895 815.162 254.035 823.262L254.968 822.9L255.9 822.539C252.707 814.305 248.756 806.737 244.043 799.836L243.218 800.4ZM254.968 822.9L254.044 823.285C257.309 831.119 258.968 841.391 258.968 854.15H259.968H260.968C260.968 841.243 259.293 830.682 255.891 822.516L254.968 822.9ZM259.968 854.15H258.968C258.968 869.222 256.815 882.942 252.523 895.323L253.468 895.65L254.412 895.978C258.787 883.358 260.968 869.412 260.968 854.15H259.968ZM253.468 895.65L252.523 895.323C248.23 907.706 242.047 918.249 233.983 926.972L234.718 927.65L235.452 928.329C243.721 919.385 250.038 908.595 254.412 895.978L253.468 895.65ZM234.718 927.65L233.983 926.972C225.915 935.699 216.282 942.451 205.075 947.231L205.468 948.15L205.86 949.07C217.32 944.183 227.187 937.269 235.452 928.329L234.718 927.65ZM205.468 948.15L205.075 947.231C193.882 952.004 181.351 954.4 167.468 954.4V955.4V956.4C181.584 956.4 194.387 953.963 205.86 949.07L205.468 948.15ZM167.468 955.4V954.4C153.584 954.4 141.053 952.004 129.86 947.231L129.468 948.15L129.075 949.07C140.548 953.963 153.351 956.4 167.468 956.4V955.4ZM129.468 948.15L129.86 947.231C118.653 942.451 109.02 935.699 100.952 926.972L100.218 927.65L99.4833 928.329C107.748 937.269 117.615 944.183 129.075 949.07L129.468 948.15ZM100.218 927.65L100.952 926.972C92.8878 918.249 86.705 907.706 82.4124 895.323L81.4675 895.65L80.5227 895.978C84.8967 908.595 91.2139 919.385 99.4833 928.329L100.218 927.65ZM81.4675 895.65L82.4124 895.323C78.1205 882.942 75.9675 869.222 75.9675 854.15H74.9675H73.9675C73.9675 869.412 76.1479 883.358 80.5227 895.978L81.4675 895.65ZM74.9675 854.15H75.9675C75.9675 841.387 77.544 831.108 80.6473 823.268L79.7175 822.9L78.7877 822.532C75.5577 830.692 73.9675 841.247 73.9675 854.15H74.9675ZM79.7175 822.9L80.6499 823.262C83.7883 815.168 87.7501 807.741 92.5339 800.978L91.7175 800.4L90.9011 799.823C86.0183 806.726 81.9801 814.299 78.7852 822.539L79.7175 822.9ZM91.7175 800.4V801.4H148.218V800.4V799.4H91.7175V800.4ZM148.218 800.4L147.494 799.71C143.958 803.415 140.511 807.619 137.154 812.319L137.968 812.9L138.781 813.482C142.091 808.849 145.477 804.719 148.941 801.091L148.218 800.4ZM137.968 812.9L137.164 812.305C133.76 816.9 131.048 822.247 129.019 828.334L129.968 828.65L130.916 828.967C132.887 823.054 135.508 817.901 138.771 813.496L137.968 812.9ZM129.968 828.65L129.027 828.311C126.811 834.447 125.718 841.735 125.718 850.15H126.718H127.718C127.718 841.899 128.791 834.853 130.908 828.99L129.968 828.65ZM126.718 850.15H125.718C125.718 858.442 127.241 866.081 130.302 873.052L131.218 872.65L132.133 872.248C129.194 865.553 127.718 858.192 127.718 850.15H126.718ZM131.218 872.65L130.306 873.061C133.383 879.9 138.09 885.46 144.408 889.729L144.968 888.9L145.527 888.072C139.512 884.007 135.052 878.734 132.129 872.24L131.218 872.65ZM144.968 888.9L144.413 889.732C150.614 893.866 158.319 895.9 167.468 895.9V894.9V893.9C158.616 893.9 151.321 891.934 145.522 888.068L144.968 888.9ZM79.9675 767.91H78.9675V768.91H79.9675V767.91ZM79.9675 710.41V709.41H78.9675V710.41H79.9675ZM254.968 710.41H255.968V709.41H254.968V710.41ZM254.968 767.91V768.91H255.968V767.91H254.968ZM79.9675 656.66H78.9675V657.13L79.3289 657.43L79.9675 656.66ZM79.9675 592.66L80.6072 591.892L78.9675 590.527V592.66H79.9675ZM161.968 660.91L161.328 661.679L161.945 662.192L162.58 661.701L161.968 660.91ZM254.968 588.91H255.968V586.871L254.355 588.119L254.968 588.91ZM254.968 655.41L255.58 656.2L255.968 655.9V655.41H254.968ZM163.718 726.16L163.079 726.93L163.696 727.442L164.33 726.95L163.718 726.16ZM79.9675 767.91H80.9675L80.9675 710.41H79.9675H78.9675L78.9675 767.91H79.9675ZM79.9675 710.41V711.41H254.968V710.41V709.41H79.9675V710.41ZM254.968 710.41H253.968V767.91H254.968H255.968V710.41H254.968ZM254.968 767.91V766.91H79.9675V767.91V768.91H254.968V767.91ZM79.9675 656.66H80.9675V592.66H79.9675H78.9675V656.66H79.9675ZM79.9675 592.66L79.3278 593.429L161.328 661.679L161.968 660.91L162.607 660.142L80.6072 591.892L79.9675 592.66ZM161.968 660.91L162.58 661.701L255.58 589.701L254.968 588.91L254.355 588.119L161.355 660.119L161.968 660.91ZM254.968 588.91H253.968V655.41H254.968H255.968V588.91H254.968ZM254.968 655.41L254.355 654.62L163.105 725.37L163.718 726.16L164.33 726.95L255.58 656.2L254.968 655.41ZM163.718 726.16L164.356 725.391L80.6061 655.891L79.9675 656.66L79.3289 657.43L163.079 726.93L163.718 726.16ZM254.968 534.598V535.598H255.968V534.598H254.968ZM211.218 534.598H210.218V535.598H211.218V534.598ZM211.218 446.348V445.348H210.218V446.348H211.218ZM254.968 446.348H255.968V445.348H254.968V446.348ZM123.718 534.598V535.598H124.718V534.598H123.718ZM79.9675 534.598H78.9675V535.598H79.9675V534.598ZM79.9675 446.348V445.348H78.9675V446.348H79.9675ZM123.718 446.348H124.718V445.348H123.718V446.348ZM186.218 534.598V535.598H187.218V534.598H186.218ZM143.718 534.598H142.718V535.598H143.718V534.598ZM143.718 451.348V450.348H142.718V451.348H143.718ZM186.218 451.348H187.218V450.348H186.218V451.348ZM79.9675 572.598H78.9675V573.598H79.9675V572.598ZM79.9675 520.098V519.098H78.9675V520.098H79.9675ZM254.968 520.098H255.968V519.098H254.968V520.098ZM254.968 572.598V573.598H255.968V572.598H254.968ZM254.968 534.598V533.598H211.218V534.598V535.598H254.968V534.598ZM211.218 534.598H212.218V446.348H211.218H210.218V534.598H211.218ZM211.218 446.348V447.348H254.968V446.348V445.348H211.218V446.348ZM254.968 446.348H253.968V534.598H254.968H255.968V446.348H254.968ZM123.718 534.598V533.598H79.9675V534.598V535.598H123.718V534.598ZM79.9675 534.598H80.9675L80.9675 446.348H79.9675H78.9675L78.9675 534.598H79.9675ZM79.9675 446.348V447.348H123.718V446.348V445.348H79.9675V446.348ZM123.718 446.348H122.718V534.598H123.718H124.718V446.348H123.718ZM186.218 534.598V533.598H143.718V534.598V535.598H186.218V534.598ZM143.718 534.598H144.718V451.348H143.718H142.718V534.598H143.718ZM143.718 451.348V452.348H186.218V451.348V450.348H143.718V451.348ZM186.218 451.348H185.218V534.598H186.218H187.218V451.348H186.218ZM79.9675 572.598H80.9675V520.098H79.9675H78.9675V572.598H79.9675ZM79.9675 520.098V521.098H254.968V520.098V519.098H79.9675V520.098ZM254.968 520.098H253.968V572.598H254.968H255.968V520.098H254.968ZM254.968 572.598V571.598H79.9675V572.598V573.598H254.968V572.598ZM79.9675 300.156H78.9675V301.156H79.9675V300.156ZM79.9675 247.656V246.656H78.9675V247.656H79.9675ZM263.718 247.656L264.508 248.268L265.755 246.656H263.718V247.656ZM175.718 361.406L174.927 360.794L173.68 362.406H175.718V361.406ZM254.968 361.406H255.968V360.406H254.968V361.406ZM254.968 413.906V414.906H255.968V413.906H254.968ZM71.2175 413.906L70.4266 413.294L69.1796 414.906H71.2175V413.906ZM159.218 300.156L160.008 300.768L161.255 299.156H159.218V300.156ZM79.9675 300.156H80.9675L80.9675 247.656H79.9675H78.9675L78.9675 300.156H79.9675ZM79.9675 247.656V248.656H263.718V247.656V246.656H79.9675V247.656ZM263.718 247.656L262.927 247.044L174.927 360.794L175.718 361.406L176.508 362.018L264.508 248.268L263.718 247.656ZM175.718 361.406V362.406H254.968V361.406V360.406H175.718V361.406ZM254.968 361.406H253.968V413.906H254.968H255.968V361.406H254.968ZM254.968 413.906V412.906H71.2175V413.906V414.906H254.968V413.906ZM71.2175 413.906L72.0085 414.518L160.008 300.768L159.218 300.156L158.427 299.544L70.4266 413.294L71.2175 413.906ZM159.218 300.156V299.156H79.9675V300.156V301.156H159.218V300.156ZM79.9675 212.734H78.9675V213.734H79.9675V212.734ZM79.9675 155.484V154.484H78.9675V155.484H79.9675ZM254.968 155.484H255.968V154.484H254.968V155.484ZM254.968 212.734V213.734H255.968V212.734H254.968ZM254.968 174.734V175.734H255.968V174.734H254.968ZM207.468 174.734H206.468V175.734H207.468V174.734ZM188.968 107.984L188.52 108.879L188.532 108.884L188.543 108.89L188.968 107.984ZM145.968 107.984L146.392 108.89L146.403 108.884L146.415 108.879L145.968 107.984ZM133.968 117.984L133.125 117.445L133.125 117.445L133.968 117.984ZM128.718 131.734L129.704 131.899L129.704 131.899L128.718 131.734ZM127.468 174.734V175.734H128.468V174.734H127.468ZM79.9675 174.734H78.9675V175.734H79.9675V174.734ZM90.4675 91.7344L91.3681 92.1691L91.37 92.1651L90.4675 91.7344ZM120.468 58.2344L120.976 59.0958L120.984 59.0909L120.468 58.2344ZM214.468 58.2344L213.956 59.0938L213.96 59.0957L214.468 58.2344ZM244.468 91.7344L243.565 92.1651L243.567 92.1691L244.468 91.7344ZM79.9675 212.734H80.9675V155.484H79.9675H78.9675V212.734H79.9675ZM79.9675 155.484V156.484H254.968V155.484V154.484H79.9675V155.484ZM254.968 155.484H253.968V212.734H254.968H255.968V155.484H254.968ZM254.968 212.734V211.734H79.9675V212.734V213.734H254.968V212.734ZM254.968 143.984H253.968V174.734H254.968H255.968V143.984H254.968ZM254.968 174.734V173.734H207.468V174.734V175.734H254.968V174.734ZM207.468 174.734H208.468L208.468 146.484H207.468H206.468L206.468 174.734H207.468ZM207.468 146.484H208.468C208.468 141.593 208.046 136.622 207.204 131.57L206.218 131.734L205.231 131.899C206.056 136.847 206.468 141.709 206.468 146.484H207.468ZM206.218 131.734L207.204 131.57C206.349 126.44 204.551 121.729 201.81 117.445L200.968 117.984L200.125 118.523C202.717 122.573 204.419 127.029 205.231 131.899L206.218 131.734ZM200.968 117.984L201.81 117.445C199.023 113.091 194.863 109.644 189.392 107.079L188.968 107.984L188.543 108.89C193.738 111.325 197.578 114.544 200.125 118.523L200.968 117.984ZM188.968 107.984L189.415 107.09C183.89 104.328 176.551 102.984 167.468 102.984V103.984V104.984C176.385 104.984 183.379 106.308 188.52 108.879L188.968 107.984ZM167.468 103.984V102.984C158.385 102.984 151.045 104.328 145.52 107.09L145.968 107.984L146.415 108.879C151.557 106.308 158.551 104.984 167.468 104.984V103.984ZM145.968 107.984L145.543 107.079C140.072 109.644 135.912 113.091 133.125 117.445L133.968 117.984L134.81 118.523C137.357 114.544 141.197 111.325 146.392 108.89L145.968 107.984ZM133.968 117.984L133.125 117.445C130.384 121.729 128.586 126.44 127.731 131.57L128.718 131.734L129.704 131.899C130.516 127.029 132.218 122.573 134.81 118.523L133.968 117.984ZM128.718 131.734L127.731 131.57C126.889 136.622 126.468 141.593 126.468 146.484H127.468H128.468C128.468 141.709 128.879 136.847 129.704 131.899L128.718 131.734ZM127.468 146.484H126.468L126.468 174.734H127.468H128.468L128.468 146.484H127.468ZM127.468 174.734V173.734H79.9675V174.734V175.734H127.468V174.734ZM79.9675 174.734H80.9675V143.984H79.9675H78.9675V174.734H79.9675ZM79.9675 143.984H80.9675C80.9675 123.763 84.4484 106.503 91.3681 92.1691L90.4675 91.7344L89.567 91.2996C82.4866 105.966 78.9675 123.539 78.9675 143.984H79.9675ZM90.4675 91.7344L91.37 92.1651C98.2912 77.6636 108.16 66.6535 120.976 59.0957L120.468 58.2344L119.96 57.373C106.775 65.1486 96.6438 76.4718 89.565 91.3036L90.4675 91.7344ZM120.468 58.2344L120.984 59.0909C133.798 51.3692 149.278 47.4844 167.468 47.4844V46.4844V45.4844C148.99 45.4844 133.137 49.4328 119.951 57.3778L120.468 58.2344ZM167.468 46.4844V47.4844C185.488 47.4844 200.971 51.3683 213.956 59.0938L214.468 58.2344L214.979 57.375C201.631 49.4338 185.78 45.4844 167.468 45.4844V46.4844ZM214.468 58.2344L213.96 59.0957C226.775 66.6535 236.644 77.6636 243.565 92.1651L244.468 91.7344L245.37 91.3036C238.291 76.4718 228.16 65.1486 214.976 57.373L214.468 58.2344ZM244.468 91.7344L243.567 92.1691C250.487 106.503 253.968 123.763 253.968 143.984H254.968H255.968C255.968 123.539 252.448 105.966 245.368 91.2996L244.468 91.7344Z" fill="white" fill-opacity="0.1" mask="url(#path-3-outside-2_143_6274)"/>
<mask id="path-5-outside-3_143_6274" maskUnits="userSpaceOnUse" x="90.5215" y="65" width="201" height="1268" fill="black">
<rect fill="white" x="90.5215" y="65" width="201" height="1268"/>
<path d="M196.771 1291H174.271V1262.75C174.271 1258.58 173.688 1255.17 172.521 1252.5C171.355 1249.83 169.688 1247.83 167.521 1246.5C165.355 1245.17 162.771 1244.5 159.771 1244.5C155.271 1244.5 152.021 1246 150.021 1249C147.855 1251.83 146.771 1256.42 146.771 1262.75V1276.5H239.271V1257.75C239.271 1253.58 238.938 1249.75 238.271 1246.25C237.605 1242.75 236.188 1239.92 234.021 1237.75C231.855 1235.58 228.438 1234.5 223.771 1234.5C220.938 1234.5 218.688 1235.17 217.021 1236.5C215.188 1237.67 213.855 1239.33 213.021 1241.5C212.021 1243.67 211.355 1246.17 211.021 1249C210.688 1251.67 210.521 1254.58 210.521 1257.75V1291H180.521V1250.25C180.521 1241.75 181.521 1233.25 183.521 1224.75C185.355 1216.08 188.355 1208.17 192.521 1201C196.688 1193.83 202.105 1188.08 208.771 1183.75C215.271 1179.25 223.188 1177 232.521 1177C244.188 1177 253.521 1179.92 260.521 1185.75C267.521 1191.42 272.605 1199.75 275.771 1210.75C278.938 1221.58 280.521 1234.75 280.521 1250.25V1331.5H105.521V1255.25C105.521 1242.25 107.188 1230.67 110.521 1220.5C113.855 1210.17 118.855 1202 125.521 1196C132.188 1190 140.521 1187 150.521 1187C160.355 1187 168.771 1190 175.771 1196C182.605 1202 187.855 1210.17 191.521 1220.5C195.021 1230.67 196.771 1242.25 196.771 1255.25V1291ZM258.021 1119.03H218.521L218.521 1026.53H258.021V1119.03ZM185.021 1073.28L233.271 1094.78L245.771 1090.53L280.521 1109.53V1172.03L93.0215 1073.28L280.521 974.527V1037.03L247.521 1055.53L233.271 1051.78L185.021 1073.28ZM193.021 915.277C202.021 915.277 209.605 913.277 215.771 909.277C221.771 905.111 226.271 899.694 229.271 893.027C232.271 886.194 233.771 878.694 233.771 870.527C233.771 862.194 232.688 855.027 230.521 849.027C228.355 843.027 225.688 837.777 222.521 833.277C219.188 828.611 215.771 824.444 212.271 820.777H268.771C273.438 827.611 277.355 835.111 280.521 843.277C283.855 851.277 285.521 861.694 285.521 874.527C285.521 889.694 283.355 903.527 279.021 916.027C274.688 928.527 268.438 939.194 260.271 948.027C252.105 956.861 242.355 963.694 231.021 968.527C219.688 973.361 207.021 975.777 193.021 975.777C179.021 975.777 166.355 973.361 155.021 968.527C143.688 963.694 133.938 956.861 125.771 948.027C117.605 939.194 111.355 928.527 107.021 916.027C102.688 903.527 100.521 889.694 100.521 874.527C100.521 861.694 102.105 851.277 105.271 843.277C108.438 835.111 112.438 827.611 117.271 820.777H173.771C170.271 824.444 166.855 828.611 163.521 833.277C160.188 837.777 157.521 843.027 155.521 849.027C153.355 855.027 152.271 862.194 152.271 870.527C152.271 878.694 153.771 886.194 156.771 893.027C159.771 899.694 164.355 905.111 170.521 909.277C176.521 913.277 184.021 915.277 193.021 915.277ZM105.521 788.287L105.521 730.787H280.521V788.287H105.521ZM105.521 677.037V613.037L187.521 681.287L280.521 609.287V675.787L189.271 746.537L105.521 677.037ZM280.521 554.975H236.771V466.725H280.521V554.975ZM149.271 554.975H105.521L105.521 466.725H149.271V554.975ZM211.771 554.975H169.271V471.725H211.771V554.975ZM105.521 592.975V540.475H280.521V592.975H105.521ZM105.521 320.533L105.521 268.033H289.271L201.271 381.783H280.521V434.283H96.7715L184.771 320.533H105.521ZM105.521 233.111V175.861H280.521V233.111H105.521ZM280.521 164.361V195.111H233.021L233.021 166.861C233.021 162.028 232.605 157.111 231.771 152.111C230.938 147.111 229.188 142.528 226.521 138.361C223.855 134.195 219.855 130.861 214.521 128.361C209.188 125.695 202.021 124.361 193.021 124.361C184.021 124.361 176.855 125.695 171.521 128.361C166.188 130.861 162.188 134.195 159.521 138.361C156.855 142.528 155.105 147.111 154.271 152.111C153.438 157.111 153.021 162.028 153.021 166.861L153.021 195.111H105.521V164.361C105.521 144.028 109.021 126.611 116.021 112.111C123.021 97.4447 133.021 86.278 146.021 78.6113C159.021 70.778 174.688 66.8613 193.021 66.8613C211.188 66.8613 226.855 70.778 240.021 78.6113C253.021 86.278 263.021 97.4447 270.021 112.111C277.021 126.611 280.521 144.028 280.521 164.361Z"/>
</mask>
<path d="M196.771 1291V1292H197.771V1291H196.771ZM174.271 1291H173.271V1292H174.271V1291ZM167.521 1246.5L168.046 1245.65L168.046 1245.65L167.521 1246.5ZM150.021 1249L150.816 1249.61L150.836 1249.58L150.854 1249.55L150.021 1249ZM146.771 1276.5H145.771V1277.5H146.771V1276.5ZM239.271 1276.5V1277.5H240.271V1276.5H239.271ZM238.271 1246.25L237.289 1246.44L237.289 1246.44L238.271 1246.25ZM234.021 1237.75L234.729 1237.04L234.729 1237.04L234.021 1237.75ZM217.021 1236.5L217.558 1237.34L217.604 1237.31L217.646 1237.28L217.021 1236.5ZM213.021 1241.5L213.929 1241.92L213.943 1241.89L213.955 1241.86L213.021 1241.5ZM211.021 1249L212.014 1249.12L212.015 1249.12L211.021 1249ZM210.521 1291V1292H211.521V1291H210.521ZM180.521 1291H179.521V1292H180.521V1291ZM183.521 1224.75L184.495 1224.98L184.497 1224.97L184.5 1224.96L183.521 1224.75ZM192.521 1201L193.386 1201.5L193.386 1201.5L192.521 1201ZM208.771 1183.75L209.316 1184.59L209.329 1184.58L209.341 1184.57L208.771 1183.75ZM260.521 1185.75L259.881 1186.52L259.887 1186.52L259.892 1186.53L260.521 1185.75ZM275.771 1210.75L274.811 1211.03L274.812 1211.03L275.771 1210.75ZM280.521 1331.5V1332.5H281.521V1331.5H280.521ZM105.521 1331.5H104.521V1332.5H105.521V1331.5ZM110.521 1220.5L111.472 1220.81L111.473 1220.81L110.521 1220.5ZM125.521 1196L124.853 1195.26L124.853 1195.26L125.521 1196ZM175.771 1196L176.431 1195.25L176.422 1195.24L175.771 1196ZM191.521 1220.5L192.467 1220.17L192.464 1220.17L191.521 1220.5ZM196.771 1291V1290H174.271V1291V1292H196.771V1291ZM174.271 1291H175.271V1262.75H174.271H173.271V1291H174.271ZM174.271 1262.75H175.271C175.271 1258.5 174.678 1254.93 173.438 1252.1L172.521 1252.5L171.605 1252.9C172.698 1255.4 173.271 1258.67 173.271 1262.75H174.271ZM172.521 1252.5L173.438 1252.1C172.201 1249.27 170.41 1247.1 168.046 1245.65L167.521 1246.5L166.997 1247.35C168.966 1248.56 170.508 1250.39 171.605 1252.9L172.521 1252.5ZM167.521 1246.5L168.046 1245.65C165.695 1244.2 162.923 1243.5 159.771 1243.5V1244.5V1245.5C162.62 1245.5 165.015 1246.13 166.997 1247.35L167.521 1246.5ZM159.771 1244.5V1243.5C155.031 1243.5 151.422 1245.1 149.189 1248.45L150.021 1249L150.854 1249.55C152.621 1246.9 155.512 1245.5 159.771 1245.5V1244.5ZM150.021 1249L149.227 1248.39C146.858 1251.49 145.771 1256.35 145.771 1262.75H146.771H147.771C147.771 1256.49 148.852 1252.18 150.816 1249.61L150.021 1249ZM146.771 1262.75H145.771V1276.5H146.771H147.771V1262.75H146.771ZM146.771 1276.5V1277.5H239.271V1276.5V1275.5H146.771V1276.5ZM239.271 1276.5H240.271V1257.75H239.271H238.271V1276.5H239.271ZM239.271 1257.75H240.271C240.271 1253.53 239.934 1249.63 239.254 1246.06L238.271 1246.25L237.289 1246.44C237.942 1249.87 238.271 1253.64 238.271 1257.75H239.271ZM238.271 1246.25L239.254 1246.06C238.556 1242.4 237.059 1239.37 234.729 1237.04L234.021 1237.75L233.314 1238.46C235.317 1240.46 236.654 1243.1 237.289 1246.44L238.271 1246.25ZM234.021 1237.75L234.729 1237.04C232.296 1234.61 228.567 1233.5 223.771 1233.5V1234.5V1235.5C228.309 1235.5 231.414 1236.56 233.314 1238.46L234.021 1237.75ZM223.771 1234.5V1233.5C220.786 1233.5 218.291 1234.2 216.397 1235.72L217.021 1236.5L217.646 1237.28C219.085 1236.13 221.091 1235.5 223.771 1235.5V1234.5ZM217.021 1236.5L216.485 1235.66C214.458 1236.95 212.993 1238.79 212.088 1241.14L213.021 1241.5L213.955 1241.86C214.717 1239.88 215.918 1238.39 217.558 1237.34L217.021 1236.5ZM213.021 1241.5L212.114 1241.08C211.062 1243.36 210.372 1245.97 210.028 1248.88L211.021 1249L212.015 1249.12C212.338 1246.37 212.981 1243.97 213.929 1241.92L213.021 1241.5ZM211.021 1249L210.029 1248.88C209.69 1251.59 209.521 1254.55 209.521 1257.75H210.521H211.521C211.521 1254.62 211.686 1251.74 212.014 1249.12L211.021 1249ZM210.521 1257.75H209.521V1291H210.521H211.521V1257.75H210.521ZM210.521 1291V1290H180.521V1291V1292H210.521V1291ZM180.521 1291H181.521V1250.25H180.521H179.521V1291H180.521ZM180.521 1250.25H181.521C181.521 1241.83 182.512 1233.41 184.495 1224.98L183.521 1224.75L182.548 1224.52C180.531 1233.09 179.521 1241.67 179.521 1250.25H180.521ZM183.521 1224.75L184.5 1224.96C186.313 1216.39 189.276 1208.57 193.386 1201.5L192.521 1201L191.657 1200.5C187.433 1207.76 184.397 1215.78 182.543 1224.54L183.521 1224.75ZM192.521 1201L193.386 1201.5C197.477 1194.47 202.787 1188.83 209.316 1184.59L208.771 1183.75L208.226 1182.91C201.423 1187.33 195.899 1193.2 191.657 1200.5L192.521 1201ZM208.771 1183.75L209.341 1184.57C215.645 1180.21 223.354 1178 232.521 1178V1177V1176C223.022 1176 214.898 1178.29 208.202 1182.93L208.771 1183.75ZM232.521 1177V1178C244.021 1178 253.106 1180.87 259.881 1186.52L260.521 1185.75L261.162 1184.98C253.936 1178.96 244.355 1176 232.521 1176V1177ZM260.521 1185.75L259.892 1186.53C266.695 1192.03 271.685 1200.17 274.811 1211.03L275.771 1210.75L276.732 1210.47C273.524 1199.33 268.348 1190.8 261.151 1184.97L260.521 1185.75ZM275.771 1210.75L274.812 1211.03C277.944 1221.75 279.521 1234.81 279.521 1250.25H280.521H281.521C281.521 1234.69 279.932 1221.42 276.731 1210.47L275.771 1210.75ZM280.521 1250.25H279.521V1331.5H280.521H281.521V1250.25H280.521ZM280.521 1331.5V1330.5H105.521V1331.5V1332.5H280.521V1331.5ZM105.521 1331.5H106.521V1255.25H105.521H104.521V1331.5H105.521ZM105.521 1255.25H106.521C106.521 1242.33 108.178 1230.86 111.472 1220.81L110.521 1220.5L109.571 1220.19C106.199 1230.47 104.521 1242.17 104.521 1255.25H105.521ZM110.521 1220.5L111.473 1220.81C114.764 1210.61 119.68 1202.6 126.19 1196.74L125.521 1196L124.853 1195.26C118.03 1201.4 112.946 1209.73 109.57 1220.19L110.521 1220.5ZM125.521 1196L126.19 1196.74C132.652 1190.93 140.738 1188 150.521 1188V1187V1186C140.305 1186 131.724 1189.07 124.853 1195.26L125.521 1196ZM150.521 1187V1188C160.133 1188 168.315 1190.93 175.121 1196.76L175.771 1196L176.422 1195.24C169.228 1189.07 160.576 1186 150.521 1186V1187ZM175.771 1196L175.112 1196.75C181.793 1202.62 186.958 1210.63 190.579 1220.83L191.521 1220.5L192.464 1220.17C188.752 1209.7 183.417 1201.38 176.431 1195.25L175.771 1196ZM191.521 1220.5L190.576 1220.83C194.033 1230.87 195.771 1242.34 195.771 1255.25H196.771H197.771C197.771 1242.16 196.01 1230.47 192.467 1220.17L191.521 1220.5ZM196.771 1255.25H195.771V1291H196.771H197.771V1255.25H196.771ZM258.021 1119.03V1120.03H259.021V1119.03H258.021ZM218.521 1119.03H217.521V1120.03H218.521V1119.03ZM218.521 1026.53V1025.53H217.521V1026.53H218.521ZM258.021 1026.53H259.021V1025.53H258.021V1026.53ZM185.021 1073.28L184.614 1072.36L182.565 1073.28L184.614 1074.19L185.021 1073.28ZM233.271 1094.78L232.864 1095.69L233.222 1095.85L233.593 1095.72L233.271 1094.78ZM245.771 1090.53L246.251 1089.65L245.866 1089.44L245.45 1089.58L245.771 1090.53ZM280.521 1109.53H281.521V1108.93L281.001 1108.65L280.521 1109.53ZM280.521 1172.03L280.055 1172.91L281.521 1173.68V1172.03H280.521ZM93.0215 1073.28L92.5555 1072.39L90.8755 1073.28L92.5555 1074.16L93.0215 1073.28ZM280.521 974.527H281.521V972.87L280.055 973.643L280.521 974.527ZM280.521 1037.03L281.01 1037.9L281.521 1037.61V1037.03H280.521ZM247.521 1055.53L247.267 1056.49L247.658 1056.6L248.01 1056.4L247.521 1055.53ZM233.271 1051.78L233.526 1050.81L233.186 1050.72L232.864 1050.86L233.271 1051.78ZM258.021 1119.03V1118.03H218.521V1119.03V1120.03H258.021V1119.03ZM218.521 1119.03H219.521L219.521 1026.53H218.521H217.521L217.521 1119.03H218.521ZM218.521 1026.53V1027.53H258.021V1026.53V1025.53H218.521V1026.53ZM258.021 1026.53H257.021V1119.03H258.021H259.021V1026.53H258.021ZM185.021 1073.28L184.614 1074.19L232.864 1095.69L233.271 1094.78L233.678 1093.86L185.428 1072.36L185.021 1073.28ZM233.271 1094.78L233.593 1095.72L246.093 1091.47L245.771 1090.53L245.45 1089.58L232.95 1093.83L233.271 1094.78ZM245.771 1090.53L245.292 1091.4L280.042 1110.4L280.521 1109.53L281.001 1108.65L246.251 1089.65L245.771 1090.53ZM280.521 1109.53H279.521V1172.03H280.521H281.521V1109.53H280.521ZM280.521 1172.03L280.987 1171.14L93.4875 1072.39L93.0215 1073.28L92.5555 1074.16L280.055 1172.91L280.521 1172.03ZM93.0215 1073.28L93.4875 1074.16L280.987 975.412L280.521 974.527L280.055 973.643L92.5555 1072.39L93.0215 1073.28ZM280.521 974.527H279.521V1037.03H280.521H281.521V974.527H280.521ZM280.521 1037.03L280.032 1036.16L247.032 1054.66L247.521 1055.53L248.01 1056.4L281.01 1037.9L280.521 1037.03ZM247.521 1055.53L247.776 1054.56L233.526 1050.81L233.271 1051.78L233.017 1052.74L247.267 1056.49L247.521 1055.53ZM233.271 1051.78L232.864 1050.86L184.614 1072.36L185.021 1073.28L185.428 1074.19L233.678 1052.69L233.271 1051.78ZM215.771 909.277L216.316 910.116L216.329 910.108L216.342 910.099L215.771 909.277ZM229.271 893.027L230.183 893.438L230.187 893.429L229.271 893.027ZM230.521 849.027L229.581 849.367L229.581 849.367L230.521 849.027ZM222.521 833.277L223.339 832.702L223.335 832.696L222.521 833.277ZM212.271 820.777V819.777H209.934L211.548 821.468L212.271 820.777ZM268.771 820.777L269.597 820.213L269.3 819.777H268.771V820.777ZM280.521 843.277L279.589 843.639L279.594 843.65L279.598 843.662L280.521 843.277ZM279.021 916.027L278.077 915.7L278.077 915.7L279.021 916.027ZM260.271 948.027L261.006 948.706L261.006 948.706L260.271 948.027ZM231.021 968.527L230.629 967.607L230.629 967.607L231.021 968.527ZM125.771 948.027L126.506 947.348L126.506 947.348L125.771 948.027ZM107.021 916.027L107.966 915.7L107.966 915.7L107.021 916.027ZM105.271 843.277L106.201 843.645L106.204 843.639L105.271 843.277ZM117.271 820.777V819.777H116.754L116.455 820.2L117.271 820.777ZM173.771 820.777L174.495 821.468L176.108 819.777H173.771V820.777ZM163.521 833.277L164.325 833.873L164.33 833.866L164.335 833.859L163.521 833.277ZM155.521 849.027L156.462 849.367L156.466 849.355L156.47 849.344L155.521 849.027ZM156.771 893.027L155.856 893.429L155.86 893.438L156.771 893.027ZM170.521 909.277L169.962 910.106L169.967 910.109L170.521 909.277ZM193.021 915.277V916.277C202.171 916.277 209.954 914.243 216.316 910.116L215.771 909.277L215.227 908.438C209.256 912.312 201.872 914.277 193.021 914.277V915.277ZM215.771 909.277L216.342 910.099C222.491 905.828 227.109 900.27 230.183 893.438L229.271 893.027L228.36 892.617C225.434 899.118 221.052 904.393 215.201 908.456L215.771 909.277ZM229.271 893.027L230.187 893.429C233.248 886.458 234.771 878.819 234.771 870.527H233.771H232.771C232.771 878.569 231.295 885.93 228.356 892.625L229.271 893.027ZM233.771 870.527H234.771C234.771 862.112 233.678 854.824 231.462 848.688L230.521 849.027L229.581 849.367C231.698 855.23 232.771 862.276 232.771 870.527H233.771ZM230.521 849.027L231.462 848.688C229.27 842.617 226.565 837.285 223.339 832.702L222.521 833.277L221.704 833.853C224.812 838.27 227.44 843.438 229.581 849.367L230.521 849.027ZM222.521 833.277L223.335 832.696C219.978 827.996 216.531 823.792 212.995 820.087L212.271 820.777L211.548 821.468C215.012 825.096 218.398 829.226 221.708 833.859L222.521 833.277ZM212.271 820.777V821.777H268.771V820.777V819.777H212.271V820.777ZM268.771 820.777L267.946 821.341C272.567 828.108 276.449 835.539 279.589 843.639L280.521 843.277L281.454 842.916C278.261 834.682 274.31 827.113 269.597 820.213L268.771 820.777ZM280.521 843.277L279.598 843.662C282.863 851.496 284.521 861.768 284.521 874.527H285.521H286.521C286.521 861.62 284.847 851.058 281.445 842.893L280.521 843.277ZM285.521 874.527H284.521C284.521 889.599 282.369 903.319 278.077 915.7L279.021 916.027L279.966 916.355C284.341 903.735 286.521 889.789 286.521 874.527H285.521ZM279.021 916.027L278.077 915.7C273.784 928.083 267.601 938.626 259.537 947.348L260.271 948.027L261.006 948.706C269.275 939.762 275.592 928.972 279.966 916.355L279.021 916.027ZM260.271 948.027L259.537 947.348C251.469 956.076 241.836 962.828 230.629 967.607L231.021 968.527L231.414 969.447C242.874 964.56 252.741 957.646 261.006 948.706L260.271 948.027ZM231.021 968.527L230.629 967.607C219.436 972.381 206.905 974.777 193.021 974.777V975.777V976.777C207.138 976.777 219.941 974.34 231.414 969.447L231.021 968.527ZM193.021 975.777V974.777C179.138 974.777 166.607 972.381 155.414 967.607L155.021 968.527L154.629 969.447C166.102 974.34 178.905 976.777 193.021 976.777V975.777ZM155.021 968.527L155.414 967.607C144.207 962.828 134.574 956.076 126.506 947.348L125.771 948.027L125.037 948.706C133.302 957.646 143.169 964.56 154.629 969.447L155.021 968.527ZM125.771 948.027L126.506 947.348C118.442 938.626 112.259 928.083 107.966 915.7L107.021 916.027L106.077 916.355C110.451 928.972 116.768 939.762 125.037 948.706L125.771 948.027ZM107.021 916.027L107.966 915.7C103.674 903.319 101.521 889.599 101.521 874.527H100.521H99.5215C99.5215 889.789 101.702 903.735 106.077 916.355L107.021 916.027ZM100.521 874.527H101.521C101.521 861.764 103.098 851.485 106.201 843.645L105.271 843.277L104.342 842.909C101.112 851.069 99.5215 861.624 99.5215 874.527H100.521ZM105.271 843.277L106.204 843.639C109.342 835.545 113.304 828.118 118.088 821.355L117.271 820.777L116.455 820.2C111.572 827.103 107.534 834.676 104.339 842.916L105.271 843.277ZM117.271 820.777V821.777H173.771V820.777V819.777H117.271V820.777ZM173.771 820.777L173.048 820.087C169.512 823.792 166.065 827.996 162.708 832.696L163.521 833.277L164.335 833.859C167.645 829.226 171.031 825.096 174.495 821.468L173.771 820.777ZM163.521 833.277L162.718 832.682C159.314 837.277 156.602 842.624 154.573 848.711L155.521 849.027L156.47 849.344C158.441 843.431 161.062 838.278 164.325 833.873L163.521 833.277ZM155.521 849.027L154.581 848.688C152.365 854.824 151.271 862.112 151.271 870.527H152.271H153.271C153.271 862.276 154.345 855.23 156.462 849.367L155.521 849.027ZM152.271 870.527H151.271C151.271 878.819 152.795 886.458 155.856 893.429L156.771 893.027L157.687 892.625C154.748 885.93 153.271 878.569 153.271 870.527H152.271ZM156.771 893.027L155.86 893.438C158.937 900.277 163.644 905.837 169.962 910.106L170.521 909.277L171.081 908.449C165.066 904.384 160.606 899.111 157.683 892.617L156.771 893.027ZM170.521 909.277L169.967 910.109C176.168 914.243 183.873 916.277 193.021 916.277V915.277V914.277C184.17 914.277 176.875 912.311 171.076 908.445L170.521 909.277ZM105.521 788.287H104.521V789.287H105.521V788.287ZM105.521 730.787V729.787H104.521V730.787H105.521ZM280.521 730.787H281.521V729.787H280.521V730.787ZM280.521 788.287V789.287H281.521V788.287H280.521ZM105.521 677.037H104.521V677.507L104.883 677.807L105.521 677.037ZM105.521 613.037L106.161 612.268L104.521 610.904V613.037H105.521ZM187.521 681.287L186.882 682.056L187.499 682.569L188.134 682.078L187.521 681.287ZM280.521 609.287H281.521V607.248L279.909 608.496L280.521 609.287ZM280.521 675.787L281.134 676.577L281.521 676.277V675.787H280.521ZM189.271 746.537L188.633 747.307L189.25 747.819L189.884 747.327L189.271 746.537ZM105.521 788.287H106.521L106.521 730.787H105.521H104.521L104.521 788.287H105.521ZM105.521 730.787V731.787H280.521V730.787V729.787H105.521V730.787ZM280.521 730.787H279.521V788.287H280.521H281.521V730.787H280.521ZM280.521 788.287V787.287H105.521V788.287V789.287H280.521V788.287ZM105.521 677.037H106.521V613.037H105.521H104.521V677.037H105.521ZM105.521 613.037L104.882 613.806L186.882 682.056L187.521 681.287L188.161 680.518L106.161 612.268L105.521 613.037ZM187.521 681.287L188.134 682.078L281.134 610.078L280.521 609.287L279.909 608.496L186.909 680.496L187.521 681.287ZM280.521 609.287H279.521V675.787H280.521H281.521V609.287H280.521ZM280.521 675.787L279.909 674.997L188.659 745.747L189.271 746.537L189.884 747.327L281.134 676.577L280.521 675.787ZM189.271 746.537L189.91 745.768L106.16 676.268L105.521 677.037L104.883 677.807L188.633 747.307L189.271 746.537ZM280.521 554.975V555.975H281.521V554.975H280.521ZM236.771 554.975H235.771V555.975H236.771V554.975ZM236.771 466.725V465.725H235.771V466.725H236.771ZM280.521 466.725H281.521V465.725H280.521V466.725ZM149.271 554.975V555.975H150.271V554.975H149.271ZM105.521 554.975H104.521V555.975H105.521V554.975ZM105.521 466.725V465.725H104.521V466.725H105.521ZM149.271 466.725H150.271V465.725H149.271V466.725ZM211.771 554.975V555.975H212.771V554.975H211.771ZM169.271 554.975H168.271V555.975H169.271V554.975ZM169.271 471.725V470.725H168.271V471.725H169.271ZM211.771 471.725H212.771V470.725H211.771V471.725ZM105.521 592.975H104.521V593.975H105.521V592.975ZM105.521 540.475V539.475H104.521V540.475H105.521ZM280.521 540.475H281.521V539.475H280.521V540.475ZM280.521 592.975V593.975H281.521V592.975H280.521ZM280.521 554.975V553.975H236.771V554.975V555.975H280.521V554.975ZM236.771 554.975H237.771V466.725H236.771H235.771V554.975H236.771ZM236.771 466.725V467.725H280.521V466.725V465.725H236.771V466.725ZM280.521 466.725H279.521V554.975H280.521H281.521V466.725H280.521ZM149.271 554.975V553.975H105.521V554.975V555.975H149.271V554.975ZM105.521 554.975H106.521L106.521 466.725H105.521H104.521L104.521 554.975H105.521ZM105.521 466.725V467.725H149.271V466.725V465.725H105.521V466.725ZM149.271 466.725H148.271V554.975H149.271H150.271V466.725H149.271ZM211.771 554.975V553.975H169.271V554.975V555.975H211.771V554.975ZM169.271 554.975H170.271V471.725H169.271H168.271V554.975H169.271ZM169.271 471.725V472.725H211.771V471.725V470.725H169.271V471.725ZM211.771 471.725H210.771V554.975H211.771H212.771V471.725H211.771ZM105.521 592.975H106.521V540.475H105.521H104.521V592.975H105.521ZM105.521 540.475V541.475H280.521V540.475V539.475H105.521V540.475ZM280.521 540.475H279.521V592.975H280.521H281.521V540.475H280.521ZM280.521 592.975V591.975H105.521V592.975V593.975H280.521V592.975ZM105.521 320.533H104.521V321.533H105.521V320.533ZM105.521 268.033V267.033H104.521V268.033H105.521ZM289.271 268.033L290.062 268.645L291.309 267.033H289.271V268.033ZM201.271 381.783L200.481 381.171L199.234 382.783H201.271V381.783ZM280.521 381.783H281.521V380.783H280.521V381.783ZM280.521 434.283V435.283H281.521V434.283H280.521ZM96.7715 434.283L95.9805 433.671L94.7335 435.283H96.7715V434.283ZM184.771 320.533L185.562 321.145L186.809 319.533H184.771V320.533ZM105.521 320.533H106.521L106.521 268.033H105.521H104.521L104.521 320.533H105.521ZM105.521 268.033V269.033H289.271V268.033V267.033H105.521V268.033ZM289.271 268.033L288.481 267.421L200.481 381.171L201.271 381.783L202.062 382.395L290.062 268.645L289.271 268.033ZM201.271 381.783V382.783H280.521V381.783V380.783H201.271V381.783ZM280.521 381.783H279.521V434.283H280.521H281.521V381.783H280.521ZM280.521 434.283V433.283H96.7715V434.283V435.283H280.521V434.283ZM96.7715 434.283L97.5624 434.895L185.562 321.145L184.771 320.533L183.981 319.921L95.9805 433.671L96.7715 434.283ZM184.771 320.533V319.533H105.521V320.533V321.533H184.771V320.533ZM105.521 233.111H104.521V234.111H105.521V233.111ZM105.521 175.861V174.861H104.521V175.861H105.521ZM280.521 175.861H281.521V174.861H280.521V175.861ZM280.521 233.111V234.111H281.521V233.111H280.521ZM280.521 195.111V196.111H281.521V195.111H280.521ZM233.021 195.111H232.021V196.111H233.021V195.111ZM214.521 128.361L214.074 129.256L214.086 129.261L214.097 129.267L214.521 128.361ZM171.521 128.361L171.946 129.267L171.957 129.261L171.969 129.256L171.521 128.361ZM159.521 138.361L158.679 137.822L158.679 137.822L159.521 138.361ZM154.271 152.111L155.258 152.276L155.258 152.276L154.271 152.111ZM153.021 195.111V196.111H154.021V195.111H153.021ZM105.521 195.111H104.521V196.111H105.521V195.111ZM116.021 112.111L116.922 112.546L116.924 112.542L116.021 112.111ZM146.021 78.6113L146.529 79.4727L146.538 79.4678L146.021 78.6113ZM240.021 78.6113L239.51 79.4707L239.513 79.4727L240.021 78.6113ZM270.021 112.111L269.119 112.542L269.121 112.546L270.021 112.111ZM105.521 233.111H106.521V175.861H105.521H104.521V233.111H105.521ZM105.521 175.861V176.861H280.521V175.861V174.861H105.521V175.861ZM280.521 175.861H279.521V233.111H280.521H281.521V175.861H280.521ZM280.521 233.111V232.111H105.521V233.111V234.111H280.521V233.111ZM280.521 164.361H279.521V195.111H280.521H281.521V164.361H280.521ZM280.521 195.111V194.111H233.021V195.111V196.111H280.521V195.111ZM233.021 195.111H234.021L234.021 166.861H233.021H232.021L232.021 195.111H233.021ZM233.021 166.861H234.021C234.021 161.97 233.6 156.999 232.758 151.947L231.771 152.111L230.785 152.276C231.61 157.224 232.021 162.086 232.021 166.861H233.021ZM231.771 152.111L232.758 151.947C231.903 146.817 230.105 142.106 227.364 137.822L226.521 138.361L225.679 138.9C228.271 142.95 229.973 147.406 230.785 152.276L231.771 152.111ZM226.521 138.361L227.364 137.822C224.577 133.468 220.417 130.021 214.946 127.456L214.521 128.361L214.097 129.267C219.292 131.702 223.132 134.921 225.679 138.9L226.521 138.361ZM214.521 128.361L214.969 127.467C209.444 124.704 202.105 123.361 193.021 123.361V124.361V125.361C201.938 125.361 208.932 126.685 214.074 129.256L214.521 128.361ZM193.021 124.361V123.361C183.938 123.361 176.599 124.704 171.074 127.467L171.521 128.361L171.969 129.256C177.11 126.685 184.105 125.361 193.021 125.361V124.361ZM171.521 128.361L171.097 127.456C165.626 130.021 161.466 133.468 158.679 137.822L159.521 138.361L160.364 138.9C162.911 134.921 166.751 131.702 171.946 129.267L171.521 128.361ZM159.521 138.361L158.679 137.822C155.938 142.106 154.14 146.817 153.285 151.947L154.271 152.111L155.258 152.276C156.07 147.406 157.772 142.95 160.364 138.9L159.521 138.361ZM154.271 152.111L153.285 151.947C152.443 156.999 152.021 161.97 152.021 166.861H153.021H154.021C154.021 162.086 154.433 157.224 155.258 152.276L154.271 152.111ZM153.021 166.861H152.021L152.021 195.111H153.021H154.021L154.021 166.861H153.021ZM153.021 195.111V194.111H105.521V195.111V196.111H153.021V195.111ZM105.521 195.111H106.521V164.361H105.521H104.521V195.111H105.521ZM105.521 164.361H106.521C106.521 144.14 110.002 126.88 116.922 112.546L116.021 112.111L115.121 111.677C108.041 126.343 104.521 143.916 104.521 164.361H105.521ZM116.021 112.111L116.924 112.542C123.845 98.0405 133.714 87.0304 146.529 79.4727L146.021 78.6113L145.513 77.75C132.329 85.5256 122.198 96.8488 115.119 111.681L116.021 112.111ZM146.021 78.6113L146.538 79.4678C159.352 71.7462 174.832 67.8613 193.021 67.8613V66.8613V65.8613C174.544 65.8613 158.691 69.8098 145.505 77.7548L146.021 78.6113ZM193.021 66.8613V67.8613C211.042 67.8613 226.525 71.7452 239.51 79.4707L240.021 78.6113L240.533 77.7519C227.185 69.8107 211.334 65.8613 193.021 65.8613V66.8613ZM240.021 78.6113L239.513 79.4727C252.329 87.0304 262.198 98.0405 269.119 112.542L270.021 112.111L270.924 111.681C263.845 96.8488 253.714 85.5256 240.529 77.75L240.021 78.6113ZM270.021 112.111L269.121 112.546C276.041 126.88 279.521 144.14 279.521 164.361H280.521H281.521C281.521 143.916 278.002 126.343 270.922 111.677L270.021 112.111Z" fill="white" fill-opacity="0.1" mask="url(#path-5-outside-3_143_6274)"/>
</svg>
