<svg width="310" height="200" viewBox="0 0 310 200" fill="none" xmlns="http://www.w3.org/2000/svg">
<rect x="0.5" y="0.5" width="309" height="199" rx="39.5" stroke="#F7F7F7" stroke-opacity="0.16"/>
<path d="M26.91 131.1L28.12 125.6H45.995L47.26 131.1H26.91ZM36.975 113.39L30.925 127.525L30.815 128.955L25.48 141H18.165L36.975 100.355L55.785 141H48.47L43.245 129.285L43.08 127.69L36.975 113.39ZM59.7686 98.1H65.7086V141H59.7686V98.1ZM73.3038 98.1H79.2438V141H73.3038V98.1ZM109.103 153.1H103.108V115.7H109.103V153.1ZM130.058 128.35C130.058 131.137 129.49 133.538 128.353 135.555C127.217 137.535 125.713 139.057 123.843 140.12C121.973 141.147 119.938 141.66 117.738 141.66C115.575 141.66 113.687 141.128 112.073 140.065C110.497 138.965 109.268 137.425 108.388 135.445C107.545 133.428 107.123 131.063 107.123 128.35C107.123 125.6 107.545 123.235 108.388 121.255C109.268 119.275 110.497 117.753 112.073 116.69C113.687 115.59 115.575 115.04 117.738 115.04C119.938 115.04 121.973 115.572 123.843 116.635C125.713 117.662 127.217 119.165 128.353 121.145C129.49 123.125 130.058 125.527 130.058 128.35ZM123.898 128.35C123.898 126.663 123.55 125.233 122.853 124.06C122.157 122.85 121.222 121.952 120.048 121.365C118.912 120.742 117.647 120.43 116.253 120.43C115.117 120.43 113.998 120.742 112.898 121.365C111.798 121.952 110.882 122.832 110.148 124.005C109.452 125.178 109.103 126.627 109.103 128.35C109.103 130.073 109.452 131.522 110.148 132.695C110.882 133.868 111.798 134.767 112.898 135.39C113.998 135.977 115.117 136.27 116.253 136.27C117.647 136.27 118.912 135.977 120.048 135.39C121.222 134.767 122.157 133.868 122.853 132.695C123.55 131.485 123.898 130.037 123.898 128.35ZM141.601 115.7V141H135.716V115.7H141.601ZM149.136 122.025C148.586 121.585 148.073 121.255 147.596 121.035C147.119 120.815 146.514 120.705 145.781 120.705C144.791 120.705 143.984 120.962 143.361 121.475C142.738 121.988 142.279 122.703 141.986 123.62C141.729 124.5 141.601 125.545 141.601 126.755L139.621 125.6C139.621 123.583 139.988 121.805 140.721 120.265C141.491 118.688 142.463 117.442 143.636 116.525C144.846 115.608 146.093 115.15 147.376 115.15C148.293 115.15 149.154 115.297 149.961 115.59C150.768 115.847 151.446 116.323 151.996 117.02L149.136 122.025ZM153.342 128.35C153.342 125.747 153.928 123.455 155.102 121.475C156.312 119.495 157.943 117.955 159.997 116.855C162.05 115.718 164.378 115.15 166.982 115.15C169.585 115.15 171.895 115.718 173.912 116.855C175.965 117.955 177.597 119.495 178.807 121.475C180.017 123.455 180.622 125.747 180.622 128.35C180.622 130.917 180.017 133.208 178.807 135.225C177.597 137.205 175.965 138.763 173.912 139.9C171.895 141 169.585 141.55 166.982 141.55C164.378 141.55 162.05 141 159.997 139.9C157.943 138.763 156.312 137.205 155.102 135.225C153.928 133.208 153.342 130.917 153.342 128.35ZM159.447 128.35C159.447 129.927 159.777 131.32 160.437 132.53C161.097 133.703 161.995 134.638 163.132 135.335C164.268 135.995 165.552 136.325 166.982 136.325C168.375 136.325 169.64 135.995 170.777 135.335C171.95 134.638 172.867 133.703 173.527 132.53C174.187 131.32 174.517 129.927 174.517 128.35C174.517 126.773 174.187 125.38 173.527 124.17C172.867 122.96 171.95 122.025 170.777 121.365C169.64 120.705 168.375 120.375 166.982 120.375C165.552 120.375 164.268 120.705 163.132 121.365C161.995 122.025 161.097 122.96 160.437 124.17C159.777 125.38 159.447 126.773 159.447 128.35ZM185.488 105.635C185.488 104.608 185.855 103.765 186.588 103.105C187.321 102.408 188.201 102.06 189.228 102.06C190.255 102.06 191.116 102.408 191.813 103.105C192.546 103.765 192.913 104.608 192.913 105.635C192.913 106.625 192.546 107.468 191.813 108.165C191.116 108.862 190.255 109.21 189.228 109.21C188.201 109.21 187.321 108.862 186.588 108.165C185.855 107.468 185.488 106.625 185.488 105.635ZM181.198 146.445C181.491 146.885 181.858 147.233 182.298 147.49C182.738 147.747 183.251 147.875 183.838 147.875C184.425 147.875 184.901 147.71 185.268 147.38C185.671 147.087 185.965 146.61 186.148 145.95C186.368 145.29 186.478 144.447 186.478 143.42V115.7H192.308V144.575C192.308 146.408 191.996 147.985 191.373 149.305C190.75 150.662 189.815 151.688 188.568 152.385C187.358 153.118 185.855 153.485 184.058 153.485C183.141 153.485 182.335 153.375 181.638 153.155C180.941 152.972 180.336 152.678 179.823 152.275C179.273 151.908 178.796 151.505 178.393 151.065L181.198 146.445ZM211.491 141.55C208.925 141.55 206.651 141 204.671 139.9C202.728 138.8 201.225 137.26 200.161 135.28C199.098 133.3 198.566 130.99 198.566 128.35C198.566 125.673 199.098 123.345 200.161 121.365C201.261 119.385 202.801 117.863 204.781 116.8C206.761 115.7 209.09 115.15 211.766 115.15C214.443 115.15 216.716 115.663 218.586 116.69C220.456 117.717 221.886 119.202 222.876 121.145C223.903 123.052 224.416 125.362 224.416 128.075C224.416 128.368 224.398 128.68 224.361 129.01C224.361 129.34 224.343 129.578 224.306 129.725H202.086V125.655H219.246L217.431 128.185C217.541 127.965 217.651 127.672 217.761 127.305C217.908 126.902 217.981 126.572 217.981 126.315C217.981 124.958 217.706 123.785 217.156 122.795C216.643 121.805 215.91 121.035 214.956 120.485C214.04 119.935 212.958 119.66 211.711 119.66C210.208 119.66 208.925 119.99 207.861 120.65C206.798 121.31 205.991 122.263 205.441 123.51C204.891 124.757 204.598 126.297 204.561 128.13C204.561 129.963 204.836 131.522 205.386 132.805C205.936 134.052 206.743 135.005 207.806 135.665C208.906 136.325 210.226 136.655 211.766 136.655C213.38 136.655 214.791 136.325 216.001 135.665C217.211 135.005 218.22 133.997 219.026 132.64L224.141 134.73C222.821 137.003 221.116 138.708 219.026 139.845C216.936 140.982 214.425 141.55 211.491 141.55ZM234.046 128.35C234.046 129.963 234.394 131.375 235.091 132.585C235.788 133.758 236.723 134.693 237.896 135.39C239.106 136.087 240.444 136.435 241.911 136.435C243.121 136.435 244.276 136.252 245.376 135.885C246.476 135.518 247.448 135.005 248.291 134.345C249.134 133.685 249.758 132.952 250.161 132.145V138.69C249.281 139.57 248.089 140.267 246.586 140.78C245.083 141.293 243.433 141.55 241.636 141.55C239.033 141.55 236.686 141 234.596 139.9C232.543 138.763 230.911 137.205 229.701 135.225C228.528 133.208 227.941 130.917 227.941 128.35C227.941 125.747 228.528 123.455 229.701 121.475C230.911 119.495 232.543 117.955 234.596 116.855C236.686 115.718 239.033 115.15 241.636 115.15C243.433 115.15 245.083 115.407 246.586 115.92C248.089 116.433 249.281 117.13 250.161 118.01V124.555C249.758 123.712 249.116 122.978 248.236 122.355C247.393 121.695 246.421 121.182 245.321 120.815C244.221 120.448 243.084 120.265 241.911 120.265C240.444 120.265 239.106 120.613 237.896 121.31C236.723 122.007 235.788 122.96 235.091 124.17C234.394 125.38 234.046 126.773 234.046 128.35ZM253.207 115.7H267.562V120.925H253.207V115.7ZM257.442 106.9H263.327V141H257.442V106.9ZM272.813 132.695C273.62 133.575 274.427 134.345 275.233 135.005C276.077 135.628 276.92 136.105 277.763 136.435C278.607 136.728 279.45 136.875 280.293 136.875C281.357 136.875 282.182 136.637 282.768 136.16C283.392 135.683 283.703 135.023 283.703 134.18C283.703 133.447 283.465 132.823 282.988 132.31C282.512 131.76 281.852 131.302 281.008 130.935C280.165 130.532 279.175 130.128 278.038 129.725C276.902 129.285 275.765 128.772 274.628 128.185C273.528 127.562 272.612 126.755 271.878 125.765C271.182 124.775 270.833 123.528 270.833 122.025C270.833 120.485 271.218 119.202 271.988 118.175C272.795 117.148 273.858 116.397 275.178 115.92C276.535 115.407 277.983 115.15 279.523 115.15C280.917 115.15 282.218 115.352 283.428 115.755C284.675 116.158 285.793 116.69 286.783 117.35C287.773 118.01 288.617 118.762 289.313 119.605L286.013 123.125C285.17 122.135 284.162 121.328 282.988 120.705C281.815 120.082 280.605 119.77 279.358 119.77C278.515 119.77 277.818 119.953 277.268 120.32C276.718 120.687 276.443 121.218 276.443 121.915C276.443 122.502 276.682 123.033 277.158 123.51C277.672 123.95 278.332 124.353 279.138 124.72C279.982 125.087 280.917 125.472 281.943 125.875C283.337 126.425 284.62 127.03 285.793 127.69C286.967 128.35 287.902 129.157 288.598 130.11C289.332 131.063 289.698 132.31 289.698 133.85C289.698 136.233 288.873 138.158 287.223 139.625C285.61 141.055 283.41 141.77 280.623 141.77C278.9 141.77 277.305 141.513 275.838 141C274.408 140.45 273.143 139.753 272.043 138.91C270.98 138.03 270.082 137.113 269.348 136.16L272.813 132.695ZM19.56 156H21.96V170H19.56V156ZM24.08 170H21.02V167.78H24.02C24.7133 167.78 25.3533 167.68 25.94 167.48C26.5267 167.28 27.0333 166.98 27.46 166.58C27.9 166.18 28.24 165.68 28.48 165.08C28.7333 164.48 28.86 163.787 28.86 163C28.86 162.213 28.7333 161.52 28.48 160.92C28.24 160.32 27.9 159.82 27.46 159.42C27.0333 159.02 26.5267 158.72 25.94 158.52C25.3533 158.32 24.7133 158.22 24.02 158.22H21.02V156H24.08C25.5067 156 26.76 156.293 27.84 156.88C28.92 157.453 29.76 158.267 30.36 159.32C30.9733 160.36 31.28 161.587 31.28 163C31.28 164.413 30.9733 165.647 30.36 166.7C29.76 167.74 28.92 168.553 27.84 169.14C26.76 169.713 25.5067 170 24.08 170ZM33.1234 157.14C33.1234 156.767 33.2568 156.46 33.5234 156.22C33.7901 155.967 34.1101 155.84 34.4834 155.84C34.8568 155.84 35.1701 155.967 35.4234 156.22C35.6901 156.46 35.8234 156.767 35.8234 157.14C35.8234 157.5 35.6901 157.807 35.4234 158.06C35.1701 158.313 34.8568 158.44 34.4834 158.44C34.1101 158.44 33.7901 158.313 33.5234 158.06C33.2568 157.807 33.1234 157.5 33.1234 157.14ZM31.5634 171.98C31.6701 172.14 31.8034 172.267 31.9634 172.36C32.1234 172.453 32.3101 172.5 32.5234 172.5C32.7368 172.5 32.9101 172.44 33.0434 172.32C33.1901 172.213 33.2968 172.04 33.3634 171.8C33.4434 171.56 33.4834 171.253 33.4834 170.88V160.8H35.6034V171.3C35.6034 171.967 35.4901 172.54 35.2634 173.02C35.0368 173.513 34.6968 173.887 34.2434 174.14C33.8034 174.407 33.2568 174.54 32.6034 174.54C32.2701 174.54 31.9768 174.5 31.7234 174.42C31.4701 174.353 31.2501 174.247 31.0634 174.1C30.8634 173.967 30.6901 173.82 30.5434 173.66L31.5634 171.98ZM39.9392 167.14C39.9392 167.447 40.0126 167.713 40.1592 167.94C40.3059 168.153 40.5059 168.313 40.7592 168.42C41.0259 168.527 41.3259 168.58 41.6592 168.58C42.0859 168.58 42.4726 168.493 42.8192 168.32C43.1792 168.147 43.4659 167.893 43.6792 167.56C43.9059 167.213 44.0192 166.813 44.0192 166.36L44.3392 167.56C44.3392 168.147 44.1659 168.64 43.8192 169.04C43.4859 169.427 43.0592 169.72 42.5392 169.92C42.0326 170.107 41.5126 170.2 40.9792 170.2C40.4059 170.2 39.8726 170.087 39.3792 169.86C38.8859 169.633 38.4926 169.3 38.1992 168.86C37.9059 168.42 37.7592 167.887 37.7592 167.26C37.7592 166.367 38.0726 165.66 38.6992 165.14C39.3259 164.607 40.2126 164.34 41.3592 164.34C41.9726 164.34 42.4992 164.407 42.9392 164.54C43.3926 164.673 43.7659 164.833 44.0592 165.02C44.3526 165.193 44.5592 165.353 44.6792 165.5V166.6C44.2659 166.307 43.8259 166.093 43.3592 165.96C42.8926 165.827 42.3992 165.76 41.8792 165.76C41.4259 165.76 41.0592 165.82 40.7792 165.94C40.4992 166.047 40.2859 166.2 40.1392 166.4C40.0059 166.6 39.9392 166.847 39.9392 167.14ZM39.2592 163.2L38.3792 161.68C38.7926 161.427 39.3259 161.18 39.9792 160.94C40.6459 160.7 41.4059 160.58 42.2592 160.58C43.0192 160.58 43.6859 160.693 44.2592 160.92C44.8459 161.147 45.3059 161.473 45.6392 161.9C45.9726 162.313 46.1392 162.827 46.1392 163.44V170H44.0192V163.86C44.0192 163.567 43.9659 163.327 43.8592 163.14C43.7659 162.953 43.6326 162.8 43.4592 162.68C43.2859 162.56 43.0792 162.473 42.8392 162.42C42.5992 162.367 42.3392 162.34 42.0592 162.34C41.6326 162.34 41.2259 162.393 40.8392 162.5C40.4659 162.593 40.1392 162.713 39.8592 162.86C39.5926 162.993 39.3926 163.107 39.2592 163.2ZM54.5773 164.4C54.5773 163.72 54.4373 163.207 54.1573 162.86C53.8773 162.513 53.444 162.34 52.8573 162.34C52.4573 162.34 52.104 162.427 51.7973 162.6C51.4907 162.76 51.2507 163 51.0773 163.32C50.904 163.627 50.8173 163.987 50.8173 164.4V170H48.6573V160.8H50.8173V162.22C51.1107 161.673 51.484 161.267 51.9373 161C52.404 160.733 52.9573 160.6 53.5973 160.6C54.6373 160.6 55.4307 160.92 55.9773 161.56C56.524 162.187 56.7973 163.053 56.7973 164.16V170H54.5773V164.4ZM59.0358 170.62H61.1758C61.1891 171.033 61.3024 171.407 61.5158 171.74C61.7424 172.073 62.0491 172.333 62.4358 172.52C62.8224 172.707 63.2691 172.8 63.7758 172.8C64.2291 172.8 64.6624 172.693 65.0758 172.48C65.4891 172.267 65.8224 171.94 66.0758 171.5C66.3424 171.06 66.4758 170.493 66.4758 169.8V160.8H68.5958V169.8C68.5958 170.907 68.3691 171.82 67.9158 172.54C67.4758 173.26 66.8958 173.793 66.1758 174.14C65.4558 174.5 64.6758 174.68 63.8358 174.68C62.8358 174.68 61.9824 174.507 61.2758 174.16C60.5691 173.827 60.0224 173.353 59.6358 172.74C59.2624 172.127 59.0624 171.42 59.0358 170.62ZM58.8558 165.36C58.8558 164.333 59.0624 163.473 59.4758 162.78C59.8891 162.073 60.4358 161.533 61.1158 161.16C61.8091 160.787 62.5491 160.6 63.3358 160.6C64.1091 160.6 64.7824 160.793 65.3558 161.18C65.9424 161.553 66.4024 162.093 66.7358 162.8C67.0824 163.507 67.2558 164.36 67.2558 165.36C67.2558 166.347 67.0824 167.193 66.7358 167.9C66.4024 168.607 65.9424 169.153 65.3558 169.54C64.7824 169.913 64.1091 170.1 63.3358 170.1C62.5491 170.1 61.8091 169.913 61.1158 169.54C60.4358 169.167 59.8891 168.627 59.4758 167.92C59.0624 167.213 58.8558 166.36 58.8558 165.36ZM61.0958 165.36C61.0958 165.973 61.2224 166.493 61.4758 166.92C61.7291 167.347 62.0624 167.673 62.4758 167.9C62.9024 168.113 63.3624 168.22 63.8558 168.22C64.2691 168.22 64.6758 168.113 65.0758 167.9C65.4891 167.687 65.8224 167.367 66.0758 166.94C66.3424 166.5 66.4758 165.973 66.4758 165.36C66.4758 164.88 66.3958 164.467 66.2358 164.12C66.0891 163.76 65.8891 163.46 65.6358 163.22C65.3824 162.967 65.0958 162.78 64.7758 162.66C64.4691 162.54 64.1624 162.48 63.8558 162.48C63.3624 162.48 62.9024 162.593 62.4758 162.82C62.0624 163.033 61.7291 163.353 61.4758 163.78C61.2224 164.207 61.0958 164.733 61.0958 165.36ZM70.5745 165.4C70.5745 164.453 70.7879 163.62 71.2145 162.9C71.6545 162.18 72.2479 161.62 72.9945 161.22C73.7412 160.807 74.5879 160.6 75.5345 160.6C76.4812 160.6 77.3212 160.807 78.0545 161.22C78.8012 161.62 79.3945 162.18 79.8345 162.9C80.2745 163.62 80.4945 164.453 80.4945 165.4C80.4945 166.333 80.2745 167.167 79.8345 167.9C79.3945 168.62 78.8012 169.187 78.0545 169.6C77.3212 170 76.4812 170.2 75.5345 170.2C74.5879 170.2 73.7412 170 72.9945 169.6C72.2479 169.187 71.6545 168.62 71.2145 167.9C70.7879 167.167 70.5745 166.333 70.5745 165.4ZM72.7945 165.4C72.7945 165.973 72.9145 166.48 73.1545 166.92C73.3945 167.347 73.7212 167.687 74.1345 167.94C74.5479 168.18 75.0145 168.3 75.5345 168.3C76.0412 168.3 76.5012 168.18 76.9145 167.94C77.3412 167.687 77.6745 167.347 77.9145 166.92C78.1545 166.48 78.2745 165.973 78.2745 165.4C78.2745 164.827 78.1545 164.32 77.9145 163.88C77.6745 163.44 77.3412 163.1 76.9145 162.86C76.5012 162.62 76.0412 162.5 75.5345 162.5C75.0145 162.5 74.5479 162.62 74.1345 162.86C73.7212 163.1 73.3945 163.44 73.1545 163.88C72.9145 164.32 72.7945 164.827 72.7945 165.4Z" fill="white"/>
<path d="M21.1666 51.0007C21.1666 46.4785 22.0402 42.2903 23.7875 38.4362C25.5347 34.582 27.9243 31.2417 30.9562 28.4153C33.9882 25.5889 37.4826 23.4435 41.4395 21.9789C45.3965 20.5143 49.6361 19.9362 54.1583 20.2445C55.0319 20.3473 55.7257 20.7198 56.2395 21.3622C56.7534 22.0046 56.9333 22.7626 56.7791 23.6362C56.625 24.5098 56.201 25.2035 55.5073 25.7174C54.8135 26.2313 54.0298 26.4626 53.1562 26.4112C49.6104 26.257 46.2829 26.758 43.1739 27.9143C40.0649 29.0705 37.3284 30.7792 34.9645 33.0403C32.6007 35.3014 30.7378 37.9608 29.376 41.0185C28.0142 44.0761 27.3333 47.4035 27.3333 51.0007C27.3333 57.8869 29.7229 63.7195 34.502 68.4987C39.2812 73.2778 45.1138 75.6674 52 75.6674C55.5458 75.6674 58.8475 74.9865 61.9052 73.6247C64.9628 72.2629 67.6222 70.4001 69.8833 68.0362C72.2472 65.5695 73.9944 62.7688 75.125 59.6341C76.2555 56.4994 76.7437 53.2362 76.5895 49.8445C76.5382 48.9709 76.7694 48.1872 77.2833 47.4935C77.7972 46.7997 78.4909 46.3757 79.3645 46.2216C80.2382 46.0674 80.9961 46.2473 81.6385 46.7612C82.2809 47.2751 82.6534 47.9688 82.7562 48.8424C83.0645 53.3132 82.4864 57.5271 81.0218 61.4841C79.5573 65.441 77.4375 68.9355 74.6625 71.9674C71.7333 75.1535 68.3159 77.5945 64.4104 79.2903C60.5048 80.9862 56.368 81.8341 52 81.8341C47.7347 81.8341 43.7263 81.0247 39.975 79.406C36.2236 77.7872 32.9604 75.5903 30.1854 72.8153C27.4104 70.0403 25.2135 66.7771 23.5948 63.0257C21.976 59.2744 21.1666 55.266 21.1666 51.0007ZM70.5 41.7507C67.9305 41.7507 65.7465 40.8514 63.9479 39.0528C62.1493 37.2542 61.25 35.0702 61.25 32.5007C61.25 29.9313 62.1493 27.7473 63.9479 25.9487C65.7465 24.1501 67.9305 23.2507 70.5 23.2507C73.0694 23.2507 75.2534 24.1501 77.052 25.9487C78.8507 27.7473 79.75 29.9313 79.75 32.5007C79.75 35.0702 78.8507 37.2542 77.052 39.0528C75.2534 40.8514 73.0694 41.7507 70.5 41.7507Z" fill="#FF3100"/>
</svg>
