<svg width="1324" height="432" viewBox="0 0 1324 432" fill="none" xmlns="http://www.w3.org/2000/svg">
<mask id="path-1-outside-1_143_6273" maskUnits="userSpaceOnUse" x="50" y="77" width="1268" height="201" fill="black">
<rect fill="white" x="50" y="77" width="1268" height="201"/>
<path d="M92 183.25V160.75H120.25C124.417 160.75 127.833 160.167 130.5 159C133.167 157.833 135.167 156.167 136.5 154C137.833 151.833 138.5 149.25 138.5 146.25C138.5 141.75 137 138.5 134 136.5C131.167 134.333 126.583 133.25 120.25 133.25H106.5V225.75H125.25C129.417 225.75 133.25 225.417 136.75 224.75C140.25 224.083 143.083 222.667 145.25 220.5C147.417 218.333 148.5 214.917 148.5 210.25C148.5 207.417 147.833 205.167 146.5 203.5C145.333 201.667 143.667 200.333 141.5 199.5C139.333 198.5 136.833 197.833 134 197.5C131.333 197.167 128.417 197 125.25 197H92V167H132.75C141.25 167 149.75 168 158.25 170C166.917 171.833 174.833 174.833 182 179C189.167 183.167 194.917 188.583 199.25 195.25C203.75 201.75 206 209.667 206 219C206 230.667 203.083 240 197.25 247C191.583 254 183.25 259.083 172.25 262.25C161.417 265.417 148.25 267 132.75 267H51.5V92H127.75C140.75 92 152.333 93.6667 162.5 97C172.833 100.333 181 105.333 187 112C193 118.667 196 127 196 137C196 146.833 193 155.25 187 162.25C181 169.083 172.833 174.333 162.5 178C152.333 181.5 140.75 183.25 127.75 183.25H92ZM263.973 244.5V205H356.473V244.5H263.973ZM309.723 171.5L288.223 219.75L292.473 232.25L273.473 267H210.973L309.723 79.5L408.473 267H345.973L327.473 234L331.223 219.75L309.723 171.5ZM467.723 179.5C467.723 188.5 469.723 196.083 473.723 202.25C477.889 208.25 483.306 212.75 489.973 215.75C496.806 218.75 504.306 220.25 512.473 220.25C520.806 220.25 527.973 219.167 533.973 217C539.973 214.833 545.223 212.167 549.723 209C554.389 205.667 558.556 202.25 562.223 198.75V255.25C555.389 259.917 547.889 263.833 539.723 267C531.723 270.333 521.306 272 508.473 272C493.306 272 479.473 269.833 466.973 265.5C454.473 261.167 443.806 254.917 434.973 246.75C426.139 238.583 419.306 228.833 414.473 217.5C409.639 206.167 407.223 193.5 407.223 179.5C407.223 165.5 409.639 152.833 414.473 141.5C419.306 130.167 426.139 120.417 434.973 112.25C443.806 104.083 454.473 97.8333 466.973 93.5C479.473 89.1667 493.306 87 508.473 87C521.306 87 531.723 88.5833 539.723 91.75C547.889 94.9167 555.389 98.9167 562.223 103.75V160.25C558.556 156.75 554.389 153.333 549.723 150C545.223 146.667 539.973 144 533.973 142C527.973 139.833 520.806 138.75 512.473 138.75C504.306 138.75 496.806 140.25 489.973 143.25C483.306 146.25 477.889 150.833 473.723 157C469.723 163 467.723 170.5 467.723 179.5ZM594.713 92H652.213V267H594.713V92ZM705.963 92H769.963L701.713 174L773.713 267H707.213L636.463 175.75L705.963 92ZM828.025 267V223.25H916.275V267H828.025ZM828.025 135.75V92H916.275V135.75H828.025ZM828.025 198.25V155.75H911.275V198.25H828.025ZM790.025 92H842.525V267H790.025V92ZM1062.47 92H1114.97V275.75L1001.22 187.75V267H948.717V83.25L1062.47 171.25V92ZM1149.89 92H1207.14V267H1149.89V92ZM1218.64 267H1187.89V219.5H1216.14C1220.97 219.5 1225.89 219.083 1230.89 218.25C1235.89 217.417 1240.47 215.667 1244.64 213C1248.81 210.333 1252.14 206.333 1254.64 201C1257.31 195.667 1258.64 188.5 1258.64 179.5C1258.64 170.5 1257.31 163.333 1254.64 158C1252.14 152.667 1248.81 148.667 1244.64 146C1240.47 143.333 1235.89 141.583 1230.89 140.75C1225.89 139.917 1220.97 139.5 1216.14 139.5H1187.89V92H1218.64C1238.97 92 1256.39 95.5 1270.89 102.5C1285.56 109.5 1296.72 119.5 1304.39 132.5C1312.22 145.5 1316.14 161.167 1316.14 179.5C1316.14 197.667 1312.22 213.333 1304.39 226.5C1296.72 239.5 1285.56 249.5 1270.89 256.5C1256.39 263.5 1238.97 267 1218.64 267Z"/>
</mask>
<path d="M92 183.25H91V184.25H92V183.25ZM92 160.75V159.75H91V160.75H92ZM136.5 154L137.352 154.524L136.5 154ZM134 136.5L133.393 137.294L133.418 137.314L133.445 137.332L134 136.5ZM106.5 133.25V132.25H105.5V133.25H106.5ZM106.5 225.75H105.5V226.75H106.5V225.75ZM136.75 224.75L136.563 223.768L136.75 224.75ZM145.25 220.5L145.957 221.207L145.25 220.5ZM146.5 203.5L145.656 204.037L145.685 204.082L145.719 204.125L146.5 203.5ZM141.5 199.5L141.081 200.408L141.111 200.422L141.141 200.433L141.5 199.5ZM134 197.5L133.876 198.492L133.883 198.493L134 197.5ZM92 197H91V198H92V197ZM92 167V166H91V167H92ZM158.25 170L158.021 170.973L158.032 170.976L158.043 170.978L158.25 170ZM182 179L181.497 179.865L182 179ZM199.25 195.25L198.412 195.795L198.42 195.807L198.428 195.819L199.25 195.25ZM197.25 247L196.482 246.36L196.477 246.365L196.473 246.371L197.25 247ZM172.25 262.25L171.973 261.289L171.969 261.29L172.25 262.25ZM51.5 267H50.5V268H51.5V267ZM51.5 92V91H50.5V92H51.5ZM162.5 97L162.188 97.9502L162.193 97.9517L162.5 97ZM187 112L187.743 111.331L187 112ZM187 162.25L187.752 162.91L187.759 162.901L187 162.25ZM162.5 178L162.826 178.946L162.834 178.942L162.5 178ZM92 183.25H93V160.75H92H91V183.25H92ZM92 160.75V161.75H120.25V160.75V159.75H92V160.75ZM120.25 160.75V161.75C124.5 161.75 128.066 161.157 130.901 159.916L130.5 159L130.099 158.084C127.601 159.177 124.334 159.75 120.25 159.75V160.75ZM130.5 159L130.901 159.916C133.726 158.68 135.897 156.889 137.352 154.524L136.5 154L135.648 153.476C134.437 155.445 132.607 156.987 130.099 158.084L130.5 159ZM136.5 154L137.352 154.524C138.798 152.173 139.5 149.401 139.5 146.25H138.5H137.5C137.5 149.099 136.868 151.493 135.648 153.476L136.5 154ZM138.5 146.25H139.5C139.5 141.51 137.903 137.9 134.555 135.668L134 136.5L133.445 137.332C136.097 139.1 137.5 141.99 137.5 146.25H138.5ZM134 136.5L134.607 135.706C131.509 133.336 126.652 132.25 120.25 132.25V133.25V134.25C126.515 134.25 130.824 135.33 133.393 137.294L134 136.5ZM120.25 133.25V132.25H106.5V133.25V134.25H120.25V133.25ZM106.5 133.25H105.5V225.75H106.5H107.5V133.25H106.5ZM106.5 225.75V226.75H125.25V225.75V224.75H106.5V225.75ZM125.25 225.75V226.75C129.469 226.75 133.366 226.413 136.937 225.732L136.75 224.75L136.563 223.768C133.134 224.421 129.364 224.75 125.25 224.75V225.75ZM136.75 224.75L136.937 225.732C140.601 225.034 143.627 223.538 145.957 221.207L145.25 220.5L144.543 219.793C142.54 221.796 139.899 223.132 136.563 223.768L136.75 224.75ZM145.25 220.5L145.957 221.207C148.39 218.775 149.5 215.046 149.5 210.25H148.5H147.5C147.5 214.788 146.444 217.892 144.543 219.793L145.25 220.5ZM148.5 210.25H149.5C149.5 207.264 148.797 204.77 147.281 202.875L146.5 203.5L145.719 204.125C146.87 205.563 147.5 207.569 147.5 210.25H148.5ZM146.5 203.5L147.344 202.963C146.054 200.936 144.211 199.471 141.859 198.567L141.5 199.5L141.141 200.433C143.122 201.195 144.613 202.397 145.656 204.037L146.5 203.5ZM141.5 199.5L141.919 198.592C139.64 197.54 137.035 196.85 134.117 196.507L134 197.5L133.883 198.493C136.632 198.816 139.026 199.46 141.081 200.408L141.5 199.5ZM134 197.5L134.124 196.508C131.41 196.168 128.451 196 125.25 196V197V198C128.382 198 131.257 198.165 133.876 198.492L134 197.5ZM125.25 197V196H92V197V198H125.25V197ZM92 197H93V167H92H91V197H92ZM92 167V168H132.75V167V166H92V167ZM132.75 167V168C141.171 168 149.594 168.991 158.021 170.973L158.25 170L158.479 169.027C149.906 167.009 141.329 166 132.75 166V167ZM158.25 170L158.043 170.978C166.613 172.791 174.429 175.755 181.497 179.865L182 179L182.503 178.135C175.238 173.912 167.22 170.875 158.457 169.022L158.25 170ZM182 179L181.497 179.865C188.535 183.956 194.167 189.265 198.412 195.795L199.25 195.25L200.088 194.705C195.666 187.901 189.799 182.377 182.503 178.135L182 179ZM199.25 195.25L198.428 195.819C202.792 202.124 205 209.832 205 219H206H207C207 209.501 204.708 201.376 200.072 194.681L199.25 195.25ZM206 219H205C205 230.5 202.127 239.585 196.482 246.36L197.25 247L198.018 247.64C204.039 240.415 207 230.834 207 219H206ZM197.25 247L196.473 246.371C190.966 253.173 182.83 258.164 171.973 261.289L172.25 262.25L172.527 263.211C183.67 260.003 192.201 254.827 198.027 247.629L197.25 247ZM172.25 262.25L171.969 261.29C161.254 264.422 148.188 266 132.75 266V267V268C148.312 268 161.579 266.411 172.531 263.21L172.25 262.25ZM132.75 267V266H51.5V267V268H132.75V267ZM51.5 267H52.5V92H51.5H50.5V267H51.5ZM51.5 92V93H127.75V92V91H51.5V92ZM127.75 92V93C140.666 93 152.141 94.6561 162.188 97.9502L162.5 97L162.812 96.0498C152.525 92.6773 140.834 91 127.75 91V92ZM162.5 97L162.193 97.9517C172.394 101.242 180.397 106.158 186.257 112.669L187 112L187.743 111.331C181.603 104.508 173.273 99.4244 162.807 96.0483L162.5 97ZM187 112L186.257 112.669C192.072 119.13 195 127.216 195 137H196H197C197 126.784 193.928 118.203 187.743 111.331L187 112ZM196 137H195C195 146.612 192.075 154.793 186.241 161.599L187 162.25L187.759 162.901C193.925 155.707 197 147.055 197 137H196ZM187 162.25L186.249 161.59C180.382 168.271 172.371 173.436 162.166 177.058L162.5 178L162.834 178.942C173.296 175.23 181.618 169.895 187.751 162.91L187 162.25ZM162.5 178L162.174 177.054C152.132 180.512 140.662 182.25 127.75 182.25V183.25V184.25C140.838 184.25 152.535 182.488 162.826 178.946L162.5 178ZM127.75 183.25V182.25H92V183.25V184.25H127.75V183.25ZM263.973 244.5H262.973V245.5H263.973V244.5ZM263.973 205V204H262.973V205H263.973ZM356.473 205H357.473V204H356.473V205ZM356.473 244.5V245.5H357.473V244.5H356.473ZM309.723 171.5L310.636 171.093L309.723 169.043L308.809 171.093L309.723 171.5ZM288.223 219.75L287.309 219.343L287.15 219.701L287.276 220.072L288.223 219.75ZM292.473 232.25L293.35 232.73L293.561 232.344L293.419 231.928L292.473 232.25ZM273.473 267V268H274.066L274.35 267.48L273.473 267ZM210.973 267L210.088 266.534L209.316 268H210.973V267ZM309.723 79.5L310.607 79.034L309.723 77.354L308.838 79.034L309.723 79.5ZM408.473 267V268H410.13L409.357 266.534L408.473 267ZM345.973 267L345.1 267.489L345.387 268H345.973V267ZM327.473 234L326.506 233.746L326.403 234.136L326.6 234.489L327.473 234ZM331.223 219.75L332.19 220.004L332.279 219.664L332.136 219.343L331.223 219.75ZM263.973 244.5H264.973V205H263.973H262.973V244.5H263.973ZM263.973 205V206H356.473V205V204H263.973V205ZM356.473 205H355.473V244.5H356.473H357.473V205H356.473ZM356.473 244.5V243.5H263.973V244.5V245.5H356.473V244.5ZM309.723 171.5L308.809 171.093L287.309 219.343L288.223 219.75L289.136 220.157L310.636 171.907L309.723 171.5ZM288.223 219.75L287.276 220.072L291.526 232.572L292.473 232.25L293.419 231.928L289.169 219.428L288.223 219.75ZM292.473 232.25L291.595 231.77L272.595 266.52L273.473 267L274.35 267.48L293.35 232.73L292.473 232.25ZM273.473 267V266H210.973V267V268H273.473V267ZM210.973 267L211.857 267.466L310.607 79.966L309.723 79.5L308.838 79.034L210.088 266.534L210.973 267ZM309.723 79.5L308.838 79.966L407.588 267.466L408.473 267L409.357 266.534L310.607 79.034L309.723 79.5ZM408.473 267V266H345.973V267V268H408.473V267ZM345.973 267L346.845 266.511L328.345 233.511L327.473 234L326.6 234.489L345.1 267.489L345.973 267ZM327.473 234L328.44 234.254L332.19 220.004L331.223 219.75L330.256 219.495L326.506 233.746L327.473 234ZM331.223 219.75L332.136 219.343L310.636 171.093L309.723 171.5L308.809 171.907L330.309 220.157L331.223 219.75ZM473.723 202.25L472.884 202.794L472.892 202.807L472.901 202.82L473.723 202.25ZM489.973 215.75L489.562 216.662L489.571 216.666L489.973 215.75ZM533.973 217L533.633 216.059L533.973 217ZM549.723 209L550.298 209.818L550.304 209.814L549.723 209ZM562.223 198.75H563.223V196.413L561.532 198.027L562.223 198.75ZM562.223 255.25L562.787 256.076L563.223 255.778V255.25H562.223ZM539.723 267L539.361 266.068L539.35 266.072L539.338 266.077L539.723 267ZM466.973 265.5L467.3 264.555L466.973 265.5ZM434.973 246.75L434.294 247.484L434.973 246.75ZM414.473 217.5L415.392 217.108L414.473 217.5ZM434.973 112.25L435.652 112.984L434.973 112.25ZM466.973 93.5L467.3 94.4448L466.973 93.5ZM539.723 91.75L539.355 92.6798L539.361 92.6824L539.723 91.75ZM562.223 103.75H563.223V103.232L562.8 102.934L562.223 103.75ZM562.223 160.25L561.532 160.973L563.223 162.587V160.25H562.223ZM549.723 150L549.127 150.804L549.134 150.809L549.141 150.814L549.723 150ZM533.973 142L533.633 142.941L533.645 142.945L533.656 142.949L533.973 142ZM489.973 143.25L489.571 142.334L489.562 142.338L489.973 143.25ZM473.723 157L472.894 156.44L472.891 156.445L473.723 157ZM467.723 179.5H466.723C466.723 188.65 468.757 196.432 472.884 202.794L473.723 202.25L474.562 201.706C470.688 195.734 468.723 188.35 468.723 179.5H467.723ZM473.723 202.25L472.901 202.82C477.172 208.97 482.73 213.588 489.562 216.662L489.973 215.75L490.383 214.838C483.882 211.912 478.607 207.53 474.544 201.68L473.723 202.25ZM489.973 215.75L489.571 216.666C496.542 219.726 504.181 221.25 512.473 221.25V220.25V219.25C504.431 219.25 497.07 217.774 490.375 214.834L489.973 215.75ZM512.473 220.25V221.25C520.888 221.25 528.176 220.157 534.312 217.941L533.973 217L533.633 216.059C527.77 218.177 520.724 219.25 512.473 219.25V220.25ZM533.973 217L534.312 217.941C540.383 215.748 545.715 213.043 550.298 209.818L549.723 209L549.147 208.182C544.73 211.29 539.562 213.918 533.633 216.059L533.973 217ZM549.723 209L550.304 209.814C555.004 206.456 559.208 203.01 562.913 199.473L562.223 198.75L561.532 198.027C557.904 201.49 553.774 204.877 549.141 208.186L549.723 209ZM562.223 198.75H561.223V255.25H562.223H563.223V198.75H562.223ZM562.223 255.25L561.659 254.424C554.892 259.045 547.461 262.927 539.361 266.068L539.723 267L540.084 267.932C548.318 264.74 555.887 260.788 562.787 256.076L562.223 255.25ZM539.723 267L539.338 266.077C531.504 269.341 521.232 271 508.473 271V272V273C521.38 273 531.941 271.325 540.107 267.923L539.723 267ZM508.473 272V271C493.401 271 479.681 268.847 467.3 264.555L466.973 265.5L466.645 266.445C479.265 270.82 493.211 273 508.473 273V272ZM466.973 265.5L467.3 264.555C454.917 260.262 444.374 254.08 435.652 246.016L434.973 246.75L434.294 247.484C443.238 255.754 454.028 262.071 466.645 266.445L466.973 265.5ZM434.973 246.75L435.652 246.016C426.924 237.947 420.172 228.315 415.392 217.108L414.473 217.5L413.553 217.892C418.44 229.352 425.354 239.22 434.294 247.484L434.973 246.75ZM414.473 217.5L415.392 217.108C410.619 205.914 408.223 193.383 408.223 179.5H407.223H406.223C406.223 193.617 408.66 206.419 413.553 217.892L414.473 217.5ZM407.223 179.5H408.223C408.223 165.617 410.619 153.086 415.392 141.892L414.473 141.5L413.553 141.108C408.66 152.581 406.223 165.383 406.223 179.5H407.223ZM414.473 141.5L415.392 141.892C420.172 130.685 426.924 121.053 435.652 112.984L434.973 112.25L434.294 111.516C425.354 119.78 418.44 129.648 413.553 141.108L414.473 141.5ZM434.973 112.25L435.652 112.984C444.374 104.92 454.917 98.7375 467.3 94.4448L466.973 93.5L466.645 92.5552C454.028 96.9291 443.238 103.246 434.294 111.516L434.973 112.25ZM466.973 93.5L467.3 94.4448C479.681 90.1529 493.401 88 508.473 88V87V86C493.211 86 479.265 88.1804 466.645 92.5552L466.973 93.5ZM508.473 87V88C521.236 88 531.515 89.5764 539.355 92.6798L539.723 91.75L540.091 90.8202C531.931 87.5902 521.376 86 508.473 86V87ZM539.723 91.75L539.361 92.6824C547.455 95.8207 554.882 99.7826 561.645 104.566L562.223 103.75L562.8 102.934C555.897 98.0507 548.324 94.0126 540.084 90.8176L539.723 91.75ZM562.223 103.75H561.223V160.25H562.223H563.223V103.75H562.223ZM562.223 160.25L562.913 159.527C559.208 155.99 555.004 152.544 550.304 149.186L549.723 150L549.141 150.814C553.774 154.123 557.904 157.51 561.532 160.973L562.223 160.25ZM549.723 150L550.318 149.196C545.723 145.793 540.376 143.08 534.289 141.051L533.973 142L533.656 142.949C539.569 144.92 544.722 147.541 549.127 150.804L549.723 150ZM533.973 142L534.312 141.059C528.176 138.843 520.888 137.75 512.473 137.75V138.75V139.75C520.724 139.75 527.77 140.823 533.633 142.941L533.973 142ZM512.473 138.75V137.75C504.181 137.75 496.542 139.274 489.571 142.334L489.973 143.25L490.375 144.166C497.07 141.226 504.431 139.75 512.473 139.75V138.75ZM489.973 143.25L489.562 142.338C482.723 145.416 477.163 150.122 472.894 156.44L473.723 157L474.551 157.56C478.616 151.544 483.889 147.084 490.383 144.162L489.973 143.25ZM473.723 157L472.891 156.445C468.757 162.646 466.723 170.352 466.723 179.5H467.723H468.723C468.723 170.648 470.689 163.354 474.555 157.555L473.723 157ZM594.713 92V91H593.713V92H594.713ZM652.213 92H653.213V91H652.213V92ZM652.213 267V268H653.213V267H652.213ZM594.713 267H593.713V268H594.713V267ZM705.963 92V91H705.493L705.193 91.3614L705.963 92ZM769.963 92L770.732 92.6397L772.096 91H769.963V92ZM701.713 174L700.944 173.36L700.431 173.977L700.922 174.612L701.713 174ZM773.713 267V268H775.752L774.504 266.388L773.713 267ZM707.213 267L706.423 267.613L706.723 268H707.213V267ZM636.463 175.75L635.693 175.111L635.181 175.729L635.673 176.363L636.463 175.75ZM594.713 92V93H652.213V92V91H594.713V92ZM652.213 92H651.213V267H652.213H653.213V92H652.213ZM652.213 267V266H594.713V267V268H652.213V267ZM594.713 267H595.713V92H594.713H593.713V267H594.713ZM705.963 92V93H769.963V92V91H705.963V92ZM769.963 92L769.194 91.3603L700.944 173.36L701.713 174L702.482 174.64L770.732 92.6397L769.963 92ZM701.713 174L700.922 174.612L772.922 267.612L773.713 267L774.504 266.388L702.504 173.388L701.713 174ZM773.713 267V266H707.213V267V268H773.713V267ZM707.213 267L708.003 266.387L637.253 175.137L636.463 175.75L635.673 176.363L706.423 267.613L707.213 267ZM636.463 175.75L637.232 176.389L706.732 92.6386L705.963 92L705.193 91.3614L635.693 175.111L636.463 175.75ZM828.025 267H827.025V268H828.025V267ZM828.025 223.25V222.25H827.025V223.25H828.025ZM916.275 223.25H917.275V222.25H916.275V223.25ZM916.275 267V268H917.275V267H916.275ZM828.025 135.75H827.025V136.75H828.025V135.75ZM828.025 92V91H827.025V92H828.025ZM916.275 92H917.275V91H916.275V92ZM916.275 135.75V136.75H917.275V135.75H916.275ZM828.025 198.25H827.025V199.25H828.025V198.25ZM828.025 155.75V154.75H827.025V155.75H828.025ZM911.275 155.75H912.275V154.75H911.275V155.75ZM911.275 198.25V199.25H912.275V198.25H911.275ZM790.025 92V91H789.025V92H790.025ZM842.525 92H843.525V91H842.525V92ZM842.525 267V268H843.525V267H842.525ZM790.025 267H789.025V268H790.025V267ZM828.025 267H829.025V223.25H828.025H827.025V267H828.025ZM828.025 223.25V224.25H916.275V223.25V222.25H828.025V223.25ZM916.275 223.25H915.275V267H916.275H917.275V223.25H916.275ZM916.275 267V266H828.025V267V268H916.275V267ZM828.025 135.75H829.025V92H828.025H827.025V135.75H828.025ZM828.025 92V93H916.275V92V91H828.025V92ZM916.275 92H915.275V135.75H916.275H917.275V92H916.275ZM916.275 135.75V134.75H828.025V135.75V136.75H916.275V135.75ZM828.025 198.25H829.025V155.75H828.025H827.025V198.25H828.025ZM828.025 155.75V156.75H911.275V155.75V154.75H828.025V155.75ZM911.275 155.75H910.275V198.25H911.275H912.275V155.75H911.275ZM911.275 198.25V197.25H828.025V198.25V199.25H911.275V198.25ZM790.025 92V93H842.525V92V91H790.025V92ZM842.525 92H841.525V267H842.525H843.525V92H842.525ZM842.525 267V266H790.025V267V268H842.525V267ZM790.025 267H791.025V92H790.025H789.025V267H790.025ZM1062.47 92V91H1061.47V92H1062.47ZM1114.97 92H1115.97V91H1114.97V92ZM1114.97 275.75L1114.35 276.541L1115.97 277.788V275.75H1114.97ZM1001.22 187.75L1001.83 186.959L1000.22 185.712V187.75H1001.22ZM1001.22 267V268H1002.22V267H1001.22ZM948.717 267H947.717V268H948.717V267ZM948.717 83.25L949.329 82.4591L947.717 81.2121V83.25H948.717ZM1062.47 171.25L1061.85 172.041L1063.47 173.288V171.25H1062.47ZM1062.47 92V93H1114.97V92V91H1062.47V92ZM1114.97 92H1113.97V275.75H1114.97H1115.97V92H1114.97ZM1114.97 275.75L1115.58 274.959L1001.83 186.959L1001.22 187.75L1000.6 188.541L1114.35 276.541L1114.97 275.75ZM1001.22 187.75H1000.22V267H1001.22H1002.22V187.75H1001.22ZM1001.22 267V266H948.717V267V268H1001.22V267ZM948.717 267H949.717V83.25H948.717H947.717V267H948.717ZM948.717 83.25L948.105 84.0409L1061.85 172.041L1062.47 171.25L1063.08 170.459L949.329 82.4591L948.717 83.25ZM1062.47 171.25H1063.47V92H1062.47H1061.47V171.25H1062.47ZM1149.89 92V91H1148.89V92H1149.89ZM1207.14 92H1208.14V91H1207.14V92ZM1207.14 267V268H1208.14V267H1207.14ZM1149.89 267H1148.89V268H1149.89V267ZM1187.89 267H1186.89V268H1187.89V267ZM1187.89 219.5V218.5H1186.89V219.5H1187.89ZM1254.64 201L1253.74 200.553L1253.74 200.564L1253.73 200.576L1254.64 201ZM1254.64 158L1253.73 158.424L1253.74 158.436L1253.74 158.447L1254.64 158ZM1244.64 146L1245.18 145.158L1244.64 146ZM1230.89 140.75L1230.72 141.736L1230.89 140.75ZM1187.89 139.5H1186.89V140.5H1187.89V139.5ZM1187.89 92V91H1186.89V92H1187.89ZM1270.89 102.5L1270.45 103.401L1270.46 103.402L1270.89 102.5ZM1304.39 132.5L1303.53 133.008L1303.53 133.016L1304.39 132.5ZM1304.39 226.5L1303.53 225.989L1303.53 225.992L1304.39 226.5ZM1270.89 256.5L1270.46 255.598L1270.45 255.599L1270.89 256.5ZM1149.89 92V93H1207.14V92V91H1149.89V92ZM1207.14 92H1206.14V267H1207.14H1208.14V92H1207.14ZM1207.14 267V266H1149.89V267V268H1207.14V267ZM1149.89 267H1150.89V92H1149.89H1148.89V267H1149.89ZM1218.64 267V266H1187.89V267V268H1218.64V267ZM1187.89 267H1188.89V219.5H1187.89H1186.89V267H1187.89ZM1187.89 219.5V220.5H1216.14V219.5V218.5H1187.89V219.5ZM1216.14 219.5V220.5C1221.03 220.5 1226 220.078 1231.05 219.236L1230.89 218.25L1230.72 217.264C1225.78 218.088 1220.91 218.5 1216.14 218.5V219.5ZM1230.89 218.25L1231.05 219.236C1236.18 218.381 1240.89 216.584 1245.18 213.842L1244.64 213L1244.1 212.158C1240.05 214.75 1235.59 216.452 1230.72 217.264L1230.89 218.25ZM1244.64 213L1245.18 213.842C1249.53 211.056 1252.98 206.896 1255.54 201.424L1254.64 201L1253.73 200.576C1251.3 205.771 1248.08 209.611 1244.1 212.158L1244.64 213ZM1254.64 201L1255.53 201.447C1258.3 195.922 1259.64 188.583 1259.64 179.5H1258.64H1257.64C1257.64 188.417 1256.32 195.411 1253.74 200.553L1254.64 201ZM1258.64 179.5H1259.64C1259.64 170.417 1258.3 163.078 1255.53 157.553L1254.64 158L1253.74 158.447C1256.32 163.589 1257.64 170.583 1257.64 179.5H1258.64ZM1254.64 158L1255.54 157.576C1252.98 152.104 1249.53 147.944 1245.18 145.158L1244.64 146L1244.1 146.842C1248.08 149.389 1251.3 153.229 1253.73 158.424L1254.64 158ZM1244.64 146L1245.18 145.158C1240.89 142.416 1236.18 140.619 1231.05 139.764L1230.89 140.75L1230.72 141.736C1235.59 142.548 1240.05 144.25 1244.1 146.842L1244.64 146ZM1230.89 140.75L1231.05 139.764C1226 138.922 1221.03 138.5 1216.14 138.5V139.5V140.5C1220.91 140.5 1225.78 140.912 1230.72 141.736L1230.89 140.75ZM1216.14 139.5V138.5H1187.89V139.5V140.5H1216.14V139.5ZM1187.89 139.5H1188.89V92H1187.89H1186.89V139.5H1187.89ZM1187.89 92V93H1218.64V92V91H1187.89V92ZM1218.64 92V93C1238.86 93 1256.12 96.4809 1270.45 103.401L1270.89 102.5L1271.32 101.599C1256.66 94.5191 1239.08 91 1218.64 91V92ZM1270.89 102.5L1270.46 103.402C1284.96 110.324 1295.97 120.193 1303.53 133.008L1304.39 132.5L1305.25 131.992C1297.47 118.807 1286.15 108.676 1271.32 101.598L1270.89 102.5ZM1304.39 132.5L1303.53 133.016C1311.25 145.831 1315.14 161.311 1315.14 179.5H1316.14H1317.14C1317.14 161.023 1313.19 145.169 1305.25 131.984L1304.39 132.5ZM1316.14 179.5H1315.14C1315.14 197.52 1311.25 213.003 1303.53 225.989L1304.39 226.5L1305.25 227.011C1313.19 213.663 1317.14 197.813 1317.14 179.5H1316.14ZM1304.39 226.5L1303.53 225.992C1295.97 238.807 1284.96 248.676 1270.46 255.598L1270.89 256.5L1271.32 257.402C1286.15 250.324 1297.47 240.193 1305.25 227.008L1304.39 226.5ZM1270.89 256.5L1270.45 255.599C1256.12 262.519 1238.86 266 1218.64 266V267V268C1239.08 268 1256.66 264.481 1271.32 257.401L1270.89 256.5Z" fill="white" fill-opacity="0.2" mask="url(#path-1-outside-1_143_6273)"/>
<mask id="path-3-outside-2_143_6273" maskUnits="userSpaceOnUse" x="36" y="109" width="1268" height="201" fill="black">
<rect fill="white" x="36" y="109" width="1268" height="201"/>
<path d="M78 215.25V192.75H106.25C110.417 192.75 113.833 192.167 116.5 191C119.167 189.833 121.167 188.167 122.5 186C123.833 183.833 124.5 181.25 124.5 178.25C124.5 173.75 123 170.5 120 168.5C117.167 166.333 112.583 165.25 106.25 165.25H92.5V257.75H111.25C115.417 257.75 119.25 257.417 122.75 256.75C126.25 256.083 129.083 254.667 131.25 252.5C133.417 250.333 134.5 246.917 134.5 242.25C134.5 239.417 133.833 237.167 132.5 235.5C131.333 233.667 129.667 232.333 127.5 231.5C125.333 230.5 122.833 229.833 120 229.5C117.333 229.167 114.417 229 111.25 229H78V199H118.75C127.25 199 135.75 200 144.25 202C152.917 203.833 160.833 206.833 168 211C175.167 215.167 180.917 220.583 185.25 227.25C189.75 233.75 192 241.667 192 251C192 262.667 189.083 272 183.25 279C177.583 286 169.25 291.083 158.25 294.25C147.417 297.417 134.25 299 118.75 299H37.5V124H113.75C126.75 124 138.333 125.667 148.5 129C158.833 132.333 167 137.333 173 144C179 150.667 182 159 182 169C182 178.833 179 187.25 173 194.25C167 201.083 158.833 206.333 148.5 210C138.333 213.5 126.75 215.25 113.75 215.25H78ZM249.973 276.5V237H342.473V276.5H249.973ZM295.723 203.5L274.223 251.75L278.473 264.25L259.473 299H196.973L295.723 111.5L394.473 299H331.973L313.473 266L317.223 251.75L295.723 203.5ZM453.723 211.5C453.723 220.5 455.723 228.083 459.723 234.25C463.889 240.25 469.306 244.75 475.973 247.75C482.806 250.75 490.306 252.25 498.473 252.25C506.806 252.25 513.973 251.167 519.973 249C525.973 246.833 531.223 244.167 535.723 241C540.389 237.667 544.556 234.25 548.223 230.75V287.25C541.389 291.917 533.889 295.833 525.723 299C517.723 302.333 507.306 304 494.473 304C479.306 304 465.473 301.833 452.973 297.5C440.473 293.167 429.806 286.917 420.973 278.75C412.139 270.583 405.306 260.833 400.473 249.5C395.639 238.167 393.223 225.5 393.223 211.5C393.223 197.5 395.639 184.833 400.473 173.5C405.306 162.167 412.139 152.417 420.973 144.25C429.806 136.083 440.473 129.833 452.973 125.5C465.473 121.167 479.306 119 494.473 119C507.306 119 517.723 120.583 525.723 123.75C533.889 126.917 541.389 130.917 548.223 135.75V192.25C544.556 188.75 540.389 185.333 535.723 182C531.223 178.667 525.973 176 519.973 174C513.973 171.833 506.806 170.75 498.473 170.75C490.306 170.75 482.806 172.25 475.973 175.25C469.306 178.25 463.889 182.833 459.723 189C455.723 195 453.723 202.5 453.723 211.5ZM580.713 124H638.213V299H580.713V124ZM691.963 124H755.963L687.713 206L759.713 299H693.213L622.463 207.75L691.963 124ZM814.025 299V255.25H902.275V299H814.025ZM814.025 167.75V124H902.275V167.75H814.025ZM814.025 230.25V187.75H897.275V230.25H814.025ZM776.025 124H828.525V299H776.025V124ZM1048.47 124H1100.97V307.75L987.217 219.75V299H934.717V115.25L1048.47 203.25V124ZM1135.89 124H1193.14V299H1135.89V124ZM1204.64 299H1173.89V251.5H1202.14C1206.97 251.5 1211.89 251.083 1216.89 250.25C1221.89 249.417 1226.47 247.667 1230.64 245C1234.81 242.333 1238.14 238.333 1240.64 233C1243.31 227.667 1244.64 220.5 1244.64 211.5C1244.64 202.5 1243.31 195.333 1240.64 190C1238.14 184.667 1234.81 180.667 1230.64 178C1226.47 175.333 1221.89 173.583 1216.89 172.75C1211.89 171.917 1206.97 171.5 1202.14 171.5H1173.89V124H1204.64C1224.97 124 1242.39 127.5 1256.89 134.5C1271.56 141.5 1282.72 151.5 1290.39 164.5C1298.22 177.5 1302.14 193.167 1302.14 211.5C1302.14 229.667 1298.22 245.333 1290.39 258.5C1282.72 271.5 1271.56 281.5 1256.89 288.5C1242.39 295.5 1224.97 299 1204.64 299Z"/>
</mask>
<path d="M78 215.25H77V216.25H78V215.25ZM78 192.75V191.75H77V192.75H78ZM122.5 186L123.352 186.524L122.5 186ZM120 168.5L119.393 169.294L119.418 169.314L119.445 169.332L120 168.5ZM92.5 165.25V164.25H91.5V165.25H92.5ZM92.5 257.75H91.5V258.75H92.5V257.75ZM122.75 256.75L122.563 255.768L122.75 256.75ZM131.25 252.5L131.957 253.207L131.25 252.5ZM132.5 235.5L131.656 236.037L131.685 236.082L131.719 236.125L132.5 235.5ZM127.5 231.5L127.081 232.408L127.111 232.422L127.141 232.433L127.5 231.5ZM120 229.5L119.876 230.492L119.883 230.493L120 229.5ZM78 229H77V230H78V229ZM78 199V198H77V199H78ZM144.25 202L144.021 202.973L144.032 202.976L144.043 202.978L144.25 202ZM168 211L167.497 211.865L168 211ZM185.25 227.25L184.412 227.795L184.42 227.807L184.428 227.819L185.25 227.25ZM183.25 279L182.482 278.36L182.477 278.365L182.473 278.371L183.25 279ZM158.25 294.25L157.973 293.289L157.969 293.29L158.25 294.25ZM37.5 299H36.5V300H37.5V299ZM37.5 124V123H36.5V124H37.5ZM148.5 129L148.188 129.95L148.193 129.952L148.5 129ZM173 144L173.743 143.331L173 144ZM173 194.25L173.752 194.91L173.759 194.901L173 194.25ZM148.5 210L148.826 210.946L148.834 210.942L148.5 210ZM78 215.25H79V192.75H78H77V215.25H78ZM78 192.75V193.75H106.25V192.75V191.75H78V192.75ZM106.25 192.75V193.75C110.5 193.75 114.066 193.157 116.901 191.916L116.5 191L116.099 190.084C113.601 191.177 110.334 191.75 106.25 191.75V192.75ZM116.5 191L116.901 191.916C119.726 190.68 121.897 188.889 123.352 186.524L122.5 186L121.648 185.476C120.437 187.445 118.607 188.987 116.099 190.084L116.5 191ZM122.5 186L123.352 186.524C124.798 184.173 125.5 181.401 125.5 178.25H124.5H123.5C123.5 181.099 122.868 183.493 121.648 185.476L122.5 186ZM124.5 178.25H125.5C125.5 173.51 123.903 169.9 120.555 167.668L120 168.5L119.445 169.332C122.097 171.1 123.5 173.99 123.5 178.25H124.5ZM120 168.5L120.607 167.706C117.509 165.336 112.652 164.25 106.25 164.25V165.25V166.25C112.515 166.25 116.824 167.33 119.393 169.294L120 168.5ZM106.25 165.25V164.25H92.5V165.25V166.25H106.25V165.25ZM92.5 165.25H91.5V257.75H92.5H93.5V165.25H92.5ZM92.5 257.75V258.75H111.25V257.75V256.75H92.5V257.75ZM111.25 257.75V258.75C115.469 258.75 119.366 258.413 122.937 257.732L122.75 256.75L122.563 255.768C119.134 256.421 115.364 256.75 111.25 256.75V257.75ZM122.75 256.75L122.937 257.732C126.601 257.034 129.627 255.538 131.957 253.207L131.25 252.5L130.543 251.793C128.54 253.796 125.899 255.132 122.563 255.768L122.75 256.75ZM131.25 252.5L131.957 253.207C134.39 250.775 135.5 247.046 135.5 242.25H134.5H133.5C133.5 246.788 132.444 249.892 130.543 251.793L131.25 252.5ZM134.5 242.25H135.5C135.5 239.264 134.797 236.77 133.281 234.875L132.5 235.5L131.719 236.125C132.87 237.563 133.5 239.569 133.5 242.25H134.5ZM132.5 235.5L133.344 234.963C132.054 232.936 130.211 231.471 127.859 230.567L127.5 231.5L127.141 232.433C129.122 233.195 130.613 234.397 131.656 236.037L132.5 235.5ZM127.5 231.5L127.919 230.592C125.64 229.54 123.035 228.85 120.117 228.507L120 229.5L119.883 230.493C122.632 230.816 125.026 231.46 127.081 232.408L127.5 231.5ZM120 229.5L120.124 228.508C117.41 228.168 114.451 228 111.25 228V229V230C114.382 230 117.257 230.165 119.876 230.492L120 229.5ZM111.25 229V228H78V229V230H111.25V229ZM78 229H79V199H78H77V229H78ZM78 199V200H118.75V199V198H78V199ZM118.75 199V200C127.171 200 135.594 200.991 144.021 202.973L144.25 202L144.479 201.027C135.906 199.009 127.329 198 118.75 198V199ZM144.25 202L144.043 202.978C152.613 204.791 160.429 207.755 167.497 211.865L168 211L168.503 210.135C161.238 205.912 153.22 202.875 144.457 201.022L144.25 202ZM168 211L167.497 211.865C174.535 215.956 180.167 221.265 184.412 227.795L185.25 227.25L186.088 226.705C181.666 219.901 175.799 214.377 168.503 210.135L168 211ZM185.25 227.25L184.428 227.819C188.792 234.124 191 241.832 191 251H192H193C193 241.501 190.708 233.376 186.072 226.681L185.25 227.25ZM192 251H191C191 262.5 188.127 271.585 182.482 278.36L183.25 279L184.018 279.64C190.039 272.415 193 262.834 193 251H192ZM183.25 279L182.473 278.371C176.966 285.173 168.83 290.164 157.973 293.289L158.25 294.25L158.527 295.211C169.67 292.003 178.201 286.827 184.027 279.629L183.25 279ZM158.25 294.25L157.969 293.29C147.254 296.422 134.188 298 118.75 298V299V300C134.312 300 147.579 298.411 158.531 295.21L158.25 294.25ZM118.75 299V298H37.5V299V300H118.75V299ZM37.5 299H38.5V124H37.5H36.5V299H37.5ZM37.5 124V125H113.75V124V123H37.5V124ZM113.75 124V125C126.666 125 138.141 126.656 148.188 129.95L148.5 129L148.812 128.05C138.525 124.677 126.834 123 113.75 123V124ZM148.5 129L148.193 129.952C158.394 133.242 166.397 138.158 172.257 144.669L173 144L173.743 143.331C167.603 136.508 159.273 131.424 148.807 128.048L148.5 129ZM173 144L172.257 144.669C178.072 151.13 181 159.216 181 169H182H183C183 158.784 179.928 150.203 173.743 143.331L173 144ZM182 169H181C181 178.612 178.075 186.793 172.241 193.599L173 194.25L173.759 194.901C179.925 187.707 183 179.055 183 169H182ZM173 194.25L172.249 193.59C166.382 200.271 158.371 205.436 148.166 209.058L148.5 210L148.834 210.942C159.296 207.23 167.618 201.895 173.751 194.91L173 194.25ZM148.5 210L148.174 209.054C138.132 212.512 126.662 214.25 113.75 214.25V215.25V216.25C126.838 216.25 138.535 214.488 148.826 210.946L148.5 210ZM113.75 215.25V214.25H78V215.25V216.25H113.75V215.25ZM249.973 276.5H248.973V277.5H249.973V276.5ZM249.973 237V236H248.973V237H249.973ZM342.473 237H343.473V236H342.473V237ZM342.473 276.5V277.5H343.473V276.5H342.473ZM295.723 203.5L296.636 203.093L295.723 201.043L294.809 203.093L295.723 203.5ZM274.223 251.75L273.309 251.343L273.15 251.701L273.276 252.072L274.223 251.75ZM278.473 264.25L279.35 264.73L279.561 264.344L279.419 263.928L278.473 264.25ZM259.473 299V300H260.066L260.35 299.48L259.473 299ZM196.973 299L196.088 298.534L195.316 300H196.973V299ZM295.723 111.5L296.607 111.034L295.723 109.354L294.838 111.034L295.723 111.5ZM394.473 299V300H396.13L395.357 298.534L394.473 299ZM331.973 299L331.1 299.489L331.387 300H331.973V299ZM313.473 266L312.506 265.746L312.403 266.136L312.6 266.489L313.473 266ZM317.223 251.75L318.19 252.004L318.279 251.664L318.136 251.343L317.223 251.75ZM249.973 276.5H250.973V237H249.973H248.973V276.5H249.973ZM249.973 237V238H342.473V237V236H249.973V237ZM342.473 237H341.473V276.5H342.473H343.473V237H342.473ZM342.473 276.5V275.5H249.973V276.5V277.5H342.473V276.5ZM295.723 203.5L294.809 203.093L273.309 251.343L274.223 251.75L275.136 252.157L296.636 203.907L295.723 203.5ZM274.223 251.75L273.276 252.072L277.526 264.572L278.473 264.25L279.419 263.928L275.169 251.428L274.223 251.75ZM278.473 264.25L277.595 263.77L258.595 298.52L259.473 299L260.35 299.48L279.35 264.73L278.473 264.25ZM259.473 299V298H196.973V299V300H259.473V299ZM196.973 299L197.857 299.466L296.607 111.966L295.723 111.5L294.838 111.034L196.088 298.534L196.973 299ZM295.723 111.5L294.838 111.966L393.588 299.466L394.473 299L395.357 298.534L296.607 111.034L295.723 111.5ZM394.473 299V298H331.973V299V300H394.473V299ZM331.973 299L332.845 298.511L314.345 265.511L313.473 266L312.6 266.489L331.1 299.489L331.973 299ZM313.473 266L314.44 266.254L318.19 252.004L317.223 251.75L316.256 251.495L312.506 265.746L313.473 266ZM317.223 251.75L318.136 251.343L296.636 203.093L295.723 203.5L294.809 203.907L316.309 252.157L317.223 251.75ZM459.723 234.25L458.884 234.794L458.892 234.807L458.901 234.82L459.723 234.25ZM475.973 247.75L475.562 248.662L475.571 248.666L475.973 247.75ZM519.973 249L519.633 248.059L519.973 249ZM535.723 241L536.298 241.818L536.304 241.814L535.723 241ZM548.223 230.75H549.223V228.413L547.532 230.027L548.223 230.75ZM548.223 287.25L548.787 288.076L549.223 287.778V287.25H548.223ZM525.723 299L525.361 298.068L525.35 298.072L525.338 298.077L525.723 299ZM452.973 297.5L453.3 296.555L452.973 297.5ZM420.973 278.75L420.294 279.484L420.973 278.75ZM400.473 249.5L401.392 249.108L400.473 249.5ZM420.973 144.25L421.652 144.984L420.973 144.25ZM452.973 125.5L453.3 126.445L452.973 125.5ZM525.723 123.75L525.355 124.68L525.361 124.682L525.723 123.75ZM548.223 135.75H549.223V135.232L548.8 134.934L548.223 135.75ZM548.223 192.25L547.532 192.973L549.223 194.587V192.25H548.223ZM535.723 182L535.127 182.804L535.134 182.809L535.141 182.814L535.723 182ZM519.973 174L519.633 174.941L519.645 174.945L519.656 174.949L519.973 174ZM475.973 175.25L475.571 174.334L475.562 174.338L475.973 175.25ZM459.723 189L458.894 188.44L458.891 188.445L459.723 189ZM453.723 211.5H452.723C452.723 220.65 454.757 228.432 458.884 234.794L459.723 234.25L460.562 233.706C456.688 227.734 454.723 220.35 454.723 211.5H453.723ZM459.723 234.25L458.901 234.82C463.172 240.97 468.73 245.588 475.562 248.662L475.973 247.75L476.383 246.838C469.882 243.912 464.607 239.53 460.544 233.68L459.723 234.25ZM475.973 247.75L475.571 248.666C482.542 251.726 490.181 253.25 498.473 253.25V252.25V251.25C490.431 251.25 483.07 249.774 476.375 246.834L475.973 247.75ZM498.473 252.25V253.25C506.888 253.25 514.176 252.157 520.312 249.941L519.973 249L519.633 248.059C513.77 250.177 506.724 251.25 498.473 251.25V252.25ZM519.973 249L520.312 249.941C526.383 247.748 531.715 245.043 536.298 241.818L535.723 241L535.147 240.182C530.73 243.29 525.562 245.918 519.633 248.059L519.973 249ZM535.723 241L536.304 241.814C541.004 238.456 545.208 235.01 548.913 231.473L548.223 230.75L547.532 230.027C543.904 233.49 539.774 236.877 535.141 240.186L535.723 241ZM548.223 230.75H547.223V287.25H548.223H549.223V230.75H548.223ZM548.223 287.25L547.659 286.424C540.892 291.045 533.461 294.927 525.361 298.068L525.723 299L526.084 299.932C534.318 296.74 541.887 292.788 548.787 288.076L548.223 287.25ZM525.723 299L525.338 298.077C517.504 301.341 507.232 303 494.473 303V304V305C507.38 305 517.941 303.325 526.107 299.923L525.723 299ZM494.473 304V303C479.401 303 465.681 300.847 453.3 296.555L452.973 297.5L452.645 298.445C465.265 302.82 479.211 305 494.473 305V304ZM452.973 297.5L453.3 296.555C440.917 292.262 430.374 286.08 421.652 278.016L420.973 278.75L420.294 279.484C429.238 287.754 440.028 294.071 452.645 298.445L452.973 297.5ZM420.973 278.75L421.652 278.016C412.924 269.947 406.172 260.315 401.392 249.108L400.473 249.5L399.553 249.892C404.44 261.352 411.354 271.22 420.294 279.484L420.973 278.75ZM400.473 249.5L401.392 249.108C396.619 237.914 394.223 225.383 394.223 211.5H393.223H392.223C392.223 225.617 394.66 238.419 399.553 249.892L400.473 249.5ZM393.223 211.5H394.223C394.223 197.617 396.619 185.086 401.392 173.892L400.473 173.5L399.553 173.108C394.66 184.581 392.223 197.383 392.223 211.5H393.223ZM400.473 173.5L401.392 173.892C406.172 162.685 412.924 153.053 421.652 144.984L420.973 144.25L420.294 143.516C411.354 151.78 404.44 161.648 399.553 173.108L400.473 173.5ZM420.973 144.25L421.652 144.984C430.374 136.92 440.917 130.738 453.3 126.445L452.973 125.5L452.645 124.555C440.028 128.929 429.238 135.246 420.294 143.516L420.973 144.25ZM452.973 125.5L453.3 126.445C465.681 122.153 479.401 120 494.473 120V119V118C479.211 118 465.265 120.18 452.645 124.555L452.973 125.5ZM494.473 119V120C507.236 120 517.515 121.576 525.355 124.68L525.723 123.75L526.091 122.82C517.931 119.59 507.376 118 494.473 118V119ZM525.723 123.75L525.361 124.682C533.455 127.821 540.882 131.783 547.645 136.566L548.223 135.75L548.8 134.934C541.897 130.051 534.324 126.013 526.084 122.818L525.723 123.75ZM548.223 135.75H547.223V192.25H548.223H549.223V135.75H548.223ZM548.223 192.25L548.913 191.527C545.208 187.99 541.004 184.544 536.304 181.186L535.723 182L535.141 182.814C539.774 186.123 543.904 189.51 547.532 192.973L548.223 192.25ZM535.723 182L536.318 181.196C531.723 177.793 526.376 175.08 520.289 173.051L519.973 174L519.656 174.949C525.569 176.92 530.722 179.541 535.127 182.804L535.723 182ZM519.973 174L520.312 173.059C514.176 170.843 506.888 169.75 498.473 169.75V170.75V171.75C506.724 171.75 513.77 172.823 519.633 174.941L519.973 174ZM498.473 170.75V169.75C490.181 169.75 482.542 171.274 475.571 174.334L475.973 175.25L476.375 176.166C483.07 173.226 490.431 171.75 498.473 171.75V170.75ZM475.973 175.25L475.562 174.338C468.723 177.416 463.163 182.122 458.894 188.44L459.723 189L460.551 189.56C464.616 183.544 469.889 179.084 476.383 176.162L475.973 175.25ZM459.723 189L458.891 188.445C454.757 194.646 452.723 202.352 452.723 211.5H453.723H454.723C454.723 202.648 456.689 195.354 460.555 189.555L459.723 189ZM580.713 124V123H579.713V124H580.713ZM638.213 124H639.213V123H638.213V124ZM638.213 299V300H639.213V299H638.213ZM580.713 299H579.713V300H580.713V299ZM691.963 124V123H691.493L691.193 123.361L691.963 124ZM755.963 124L756.732 124.64L758.096 123H755.963V124ZM687.713 206L686.944 205.36L686.431 205.977L686.922 206.612L687.713 206ZM759.713 299V300H761.752L760.504 298.388L759.713 299ZM693.213 299L692.423 299.613L692.723 300H693.213V299ZM622.463 207.75L621.693 207.111L621.181 207.729L621.673 208.363L622.463 207.75ZM580.713 124V125H638.213V124V123H580.713V124ZM638.213 124H637.213V299H638.213H639.213V124H638.213ZM638.213 299V298H580.713V299V300H638.213V299ZM580.713 299H581.713V124H580.713H579.713V299H580.713ZM691.963 124V125H755.963V124V123H691.963V124ZM755.963 124L755.194 123.36L686.944 205.36L687.713 206L688.482 206.64L756.732 124.64L755.963 124ZM687.713 206L686.922 206.612L758.922 299.612L759.713 299L760.504 298.388L688.504 205.388L687.713 206ZM759.713 299V298H693.213V299V300H759.713V299ZM693.213 299L694.003 298.387L623.253 207.137L622.463 207.75L621.673 208.363L692.423 299.613L693.213 299ZM622.463 207.75L623.232 208.389L692.732 124.639L691.963 124L691.193 123.361L621.693 207.111L622.463 207.75ZM814.025 299H813.025V300H814.025V299ZM814.025 255.25V254.25H813.025V255.25H814.025ZM902.275 255.25H903.275V254.25H902.275V255.25ZM902.275 299V300H903.275V299H902.275ZM814.025 167.75H813.025V168.75H814.025V167.75ZM814.025 124V123H813.025V124H814.025ZM902.275 124H903.275V123H902.275V124ZM902.275 167.75V168.75H903.275V167.75H902.275ZM814.025 230.25H813.025V231.25H814.025V230.25ZM814.025 187.75V186.75H813.025V187.75H814.025ZM897.275 187.75H898.275V186.75H897.275V187.75ZM897.275 230.25V231.25H898.275V230.25H897.275ZM776.025 124V123H775.025V124H776.025ZM828.525 124H829.525V123H828.525V124ZM828.525 299V300H829.525V299H828.525ZM776.025 299H775.025V300H776.025V299ZM814.025 299H815.025V255.25H814.025H813.025V299H814.025ZM814.025 255.25V256.25H902.275V255.25V254.25H814.025V255.25ZM902.275 255.25H901.275V299H902.275H903.275V255.25H902.275ZM902.275 299V298H814.025V299V300H902.275V299ZM814.025 167.75H815.025V124H814.025H813.025V167.75H814.025ZM814.025 124V125H902.275V124V123H814.025V124ZM902.275 124H901.275V167.75H902.275H903.275V124H902.275ZM902.275 167.75V166.75H814.025V167.75V168.75H902.275V167.75ZM814.025 230.25H815.025V187.75H814.025H813.025V230.25H814.025ZM814.025 187.75V188.75H897.275V187.75V186.75H814.025V187.75ZM897.275 187.75H896.275V230.25H897.275H898.275V187.75H897.275ZM897.275 230.25V229.25H814.025V230.25V231.25H897.275V230.25ZM776.025 124V125H828.525V124V123H776.025V124ZM828.525 124H827.525V299H828.525H829.525V124H828.525ZM828.525 299V298H776.025V299V300H828.525V299ZM776.025 299H777.025V124H776.025H775.025V299H776.025ZM1048.47 124V123H1047.47V124H1048.47ZM1100.97 124H1101.97V123H1100.97V124ZM1100.97 307.75L1100.35 308.541L1101.97 309.788V307.75H1100.97ZM987.217 219.75L987.829 218.959L986.217 217.712V219.75H987.217ZM987.217 299V300H988.217V299H987.217ZM934.717 299H933.717V300H934.717V299ZM934.717 115.25L935.329 114.459L933.717 113.212V115.25H934.717ZM1048.47 203.25L1047.85 204.041L1049.47 205.288V203.25H1048.47ZM1048.47 124V125H1100.97V124V123H1048.47V124ZM1100.97 124H1099.97V307.75H1100.97H1101.97V124H1100.97ZM1100.97 307.75L1101.58 306.959L987.829 218.959L987.217 219.75L986.605 220.541L1100.35 308.541L1100.97 307.75ZM987.217 219.75H986.217V299H987.217H988.217V219.75H987.217ZM987.217 299V298H934.717V299V300H987.217V299ZM934.717 299H935.717V115.25H934.717H933.717V299H934.717ZM934.717 115.25L934.105 116.041L1047.85 204.041L1048.47 203.25L1049.08 202.459L935.329 114.459L934.717 115.25ZM1048.47 203.25H1049.47V124H1048.47H1047.47V203.25H1048.47ZM1135.89 124V123H1134.89V124H1135.89ZM1193.14 124H1194.14V123H1193.14V124ZM1193.14 299V300H1194.14V299H1193.14ZM1135.89 299H1134.89V300H1135.89V299ZM1173.89 299H1172.89V300H1173.89V299ZM1173.89 251.5V250.5H1172.89V251.5H1173.89ZM1240.64 233L1239.74 232.553L1239.74 232.564L1239.73 232.576L1240.64 233ZM1240.64 190L1239.73 190.424L1239.74 190.436L1239.74 190.447L1240.64 190ZM1230.64 178L1231.18 177.158L1230.64 178ZM1216.89 172.75L1216.72 173.736L1216.89 172.75ZM1173.89 171.5H1172.89V172.5H1173.89V171.5ZM1173.89 124V123H1172.89V124H1173.89ZM1256.89 134.5L1256.45 135.401L1256.46 135.402L1256.89 134.5ZM1290.39 164.5L1289.53 165.008L1289.53 165.016L1290.39 164.5ZM1290.39 258.5L1289.53 257.989L1289.53 257.992L1290.39 258.5ZM1256.89 288.5L1256.46 287.598L1256.45 287.599L1256.89 288.5ZM1135.89 124V125H1193.14V124V123H1135.89V124ZM1193.14 124H1192.14V299H1193.14H1194.14V124H1193.14ZM1193.14 299V298H1135.89V299V300H1193.14V299ZM1135.89 299H1136.89V124H1135.89H1134.89V299H1135.89ZM1204.64 299V298H1173.89V299V300H1204.64V299ZM1173.89 299H1174.89V251.5H1173.89H1172.89V299H1173.89ZM1173.89 251.5V252.5H1202.14V251.5V250.5H1173.89V251.5ZM1202.14 251.5V252.5C1207.03 252.5 1212 252.078 1217.05 251.236L1216.89 250.25L1216.72 249.264C1211.78 250.088 1206.91 250.5 1202.14 250.5V251.5ZM1216.89 250.25L1217.05 251.236C1222.18 250.381 1226.89 248.584 1231.18 245.842L1230.64 245L1230.1 244.158C1226.05 246.75 1221.59 248.452 1216.72 249.264L1216.89 250.25ZM1230.64 245L1231.18 245.842C1235.53 243.056 1238.98 238.896 1241.54 233.424L1240.64 233L1239.73 232.576C1237.3 237.771 1234.08 241.611 1230.1 244.158L1230.64 245ZM1240.64 233L1241.53 233.447C1244.3 227.922 1245.64 220.583 1245.64 211.5H1244.64H1243.64C1243.64 220.417 1242.32 227.411 1239.74 232.553L1240.64 233ZM1244.64 211.5H1245.64C1245.64 202.417 1244.3 195.078 1241.53 189.553L1240.64 190L1239.74 190.447C1242.32 195.589 1243.64 202.583 1243.64 211.5H1244.64ZM1240.64 190L1241.54 189.576C1238.98 184.104 1235.53 179.944 1231.18 177.158L1230.64 178L1230.1 178.842C1234.08 181.389 1237.3 185.229 1239.73 190.424L1240.64 190ZM1230.64 178L1231.18 177.158C1226.89 174.416 1222.18 172.619 1217.05 171.764L1216.89 172.75L1216.72 173.736C1221.59 174.548 1226.05 176.25 1230.1 178.842L1230.64 178ZM1216.89 172.75L1217.05 171.764C1212 170.922 1207.03 170.5 1202.14 170.5V171.5V172.5C1206.91 172.5 1211.78 172.912 1216.72 173.736L1216.89 172.75ZM1202.14 171.5V170.5H1173.89V171.5V172.5H1202.14V171.5ZM1173.89 171.5H1174.89V124H1173.89H1172.89V171.5H1173.89ZM1173.89 124V125H1204.64V124V123H1173.89V124ZM1204.64 124V125C1224.86 125 1242.12 128.481 1256.45 135.401L1256.89 134.5L1257.32 133.599C1242.66 126.519 1225.08 123 1204.64 123V124ZM1256.89 134.5L1256.46 135.402C1270.96 142.324 1281.97 152.193 1289.53 165.008L1290.39 164.5L1291.25 163.992C1283.47 150.807 1272.15 140.676 1257.32 133.598L1256.89 134.5ZM1290.39 164.5L1289.53 165.016C1297.25 177.831 1301.14 193.311 1301.14 211.5H1302.14H1303.14C1303.14 193.023 1299.19 177.169 1291.25 163.984L1290.39 164.5ZM1302.14 211.5H1301.14C1301.14 229.52 1297.25 245.003 1289.53 257.989L1290.39 258.5L1291.25 259.011C1299.19 245.663 1303.14 229.813 1303.14 211.5H1302.14ZM1290.39 258.5L1289.53 257.992C1281.97 270.807 1270.96 280.676 1256.46 287.598L1256.89 288.5L1257.32 289.402C1272.15 282.324 1283.47 272.193 1291.25 259.008L1290.39 258.5ZM1256.89 288.5L1256.45 287.599C1242.12 294.519 1224.86 298 1204.64 298V299V300C1225.08 300 1242.66 296.481 1257.32 289.401L1256.89 288.5Z" fill="white" fill-opacity="0.1" mask="url(#path-3-outside-2_143_6273)"/>
<mask id="path-5-outside-3_143_6273" maskUnits="userSpaceOnUse" x="16" y="148" width="1268" height="201" fill="black">
<rect fill="white" x="16" y="148" width="1268" height="201"/>
<path d="M58 254.25V231.75H86.25C90.4167 231.75 93.8333 231.167 96.5 230C99.1667 228.833 101.167 227.167 102.5 225C103.833 222.833 104.5 220.25 104.5 217.25C104.5 212.75 103 209.5 100 207.5C97.1667 205.333 92.5833 204.25 86.25 204.25H72.5V296.75H91.25C95.4167 296.75 99.25 296.417 102.75 295.75C106.25 295.083 109.083 293.667 111.25 291.5C113.417 289.333 114.5 285.917 114.5 281.25C114.5 278.417 113.833 276.167 112.5 274.5C111.333 272.667 109.667 271.333 107.5 270.5C105.333 269.5 102.833 268.833 100 268.5C97.3333 268.167 94.4167 268 91.25 268H58V238H98.75C107.25 238 115.75 239 124.25 241C132.917 242.833 140.833 245.833 148 250C155.167 254.167 160.917 259.583 165.25 266.25C169.75 272.75 172 280.667 172 290C172 301.667 169.083 311 163.25 318C157.583 325 149.25 330.083 138.25 333.25C127.417 336.417 114.25 338 98.75 338H17.5V163H93.75C106.75 163 118.333 164.667 128.5 168C138.833 171.333 147 176.333 153 183C159 189.667 162 198 162 208C162 217.833 159 226.25 153 233.25C147 240.083 138.833 245.333 128.5 249C118.333 252.5 106.75 254.25 93.75 254.25H58ZM229.973 315.5V276H322.473V315.5H229.973ZM275.723 242.5L254.223 290.75L258.473 303.25L239.473 338H176.973L275.723 150.5L374.473 338H311.973L293.473 305L297.223 290.75L275.723 242.5ZM433.723 250.5C433.723 259.5 435.723 267.083 439.723 273.25C443.889 279.25 449.306 283.75 455.973 286.75C462.806 289.75 470.306 291.25 478.473 291.25C486.806 291.25 493.973 290.167 499.973 288C505.973 285.833 511.223 283.167 515.723 280C520.389 276.667 524.556 273.25 528.223 269.75V326.25C521.389 330.917 513.889 334.833 505.723 338C497.723 341.333 487.306 343 474.473 343C459.306 343 445.473 340.833 432.973 336.5C420.473 332.167 409.806 325.917 400.973 317.75C392.139 309.583 385.306 299.833 380.473 288.5C375.639 277.167 373.223 264.5 373.223 250.5C373.223 236.5 375.639 223.833 380.473 212.5C385.306 201.167 392.139 191.417 400.973 183.25C409.806 175.083 420.473 168.833 432.973 164.5C445.473 160.167 459.306 158 474.473 158C487.306 158 497.723 159.583 505.723 162.75C513.889 165.917 521.389 169.917 528.223 174.75V231.25C524.556 227.75 520.389 224.333 515.723 221C511.223 217.667 505.973 215 499.973 213C493.973 210.833 486.806 209.75 478.473 209.75C470.306 209.75 462.806 211.25 455.973 214.25C449.306 217.25 443.889 221.833 439.723 228C435.723 234 433.723 241.5 433.723 250.5ZM560.713 163H618.213V338H560.713V163ZM671.963 163H735.963L667.713 245L739.713 338H673.213L602.463 246.75L671.963 163ZM794.025 338V294.25H882.275V338H794.025ZM794.025 206.75V163H882.275V206.75H794.025ZM794.025 269.25V226.75H877.275V269.25H794.025ZM756.025 163H808.525V338H756.025V163ZM1028.47 163H1080.97V346.75L967.217 258.75V338H914.717V154.25L1028.47 242.25V163ZM1115.89 163H1173.14V338H1115.89V163ZM1184.64 338H1153.89V290.5H1182.14C1186.97 290.5 1191.89 290.083 1196.89 289.25C1201.89 288.417 1206.47 286.667 1210.64 284C1214.81 281.333 1218.14 277.333 1220.64 272C1223.31 266.667 1224.64 259.5 1224.64 250.5C1224.64 241.5 1223.31 234.333 1220.64 229C1218.14 223.667 1214.81 219.667 1210.64 217C1206.47 214.333 1201.89 212.583 1196.89 211.75C1191.89 210.917 1186.97 210.5 1182.14 210.5H1153.89V163H1184.64C1204.97 163 1222.39 166.5 1236.89 173.5C1251.56 180.5 1262.72 190.5 1270.39 203.5C1278.22 216.5 1282.14 232.167 1282.14 250.5C1282.14 268.667 1278.22 284.333 1270.39 297.5C1262.72 310.5 1251.56 320.5 1236.89 327.5C1222.39 334.5 1204.97 338 1184.64 338Z"/>
</mask>
<path d="M58 254.25H57V255.25H58V254.25ZM58 231.75V230.75H57V231.75H58ZM102.5 225L103.352 225.524L102.5 225ZM100 207.5L99.3925 208.294L99.4183 208.314L99.4453 208.332L100 207.5ZM72.5 204.25V203.25H71.5V204.25H72.5ZM72.5 296.75H71.5V297.75H72.5V296.75ZM102.75 295.75L102.563 294.768L102.75 295.75ZM111.25 291.5L111.957 292.207L111.25 291.5ZM112.5 274.5L111.656 275.037L111.685 275.082L111.719 275.125L112.5 274.5ZM107.5 270.5L107.081 271.408L107.111 271.422L107.141 271.433L107.5 270.5ZM100 268.5L99.876 269.492L99.8832 269.493L100 268.5ZM58 268H57V269H58V268ZM58 238V237H57V238H58ZM124.25 241L124.021 241.973L124.032 241.976L124.043 241.978L124.25 241ZM148 250L147.497 250.865L148 250ZM165.25 266.25L164.412 266.795L164.42 266.807L164.428 266.819L165.25 266.25ZM163.25 318L162.482 317.36L162.477 317.365L162.473 317.371L163.25 318ZM138.25 333.25L137.973 332.289L137.969 332.29L138.25 333.25ZM17.5 338H16.5V339H17.5V338ZM17.5 163V162H16.5V163H17.5ZM128.5 168L128.188 168.95L128.193 168.952L128.5 168ZM153 183L153.743 182.331L153 183ZM153 233.25L153.752 233.91L153.759 233.901L153 233.25ZM128.5 249L128.826 249.946L128.834 249.942L128.5 249ZM58 254.25H59V231.75H58H57V254.25H58ZM58 231.75V232.75H86.25V231.75V230.75H58V231.75ZM86.25 231.75V232.75C90.4996 232.75 94.0656 232.157 96.9008 230.916L96.5 230L96.0992 229.084C93.6011 230.177 90.3337 230.75 86.25 230.75V231.75ZM96.5 230L96.9008 230.916C99.7264 229.68 101.897 227.889 103.352 225.524L102.5 225L101.648 224.476C100.437 226.445 98.607 227.987 96.0992 229.084L96.5 230ZM102.5 225L103.352 225.524C104.798 223.173 105.5 220.401 105.5 217.25H104.5H103.5C103.5 220.099 102.868 222.493 101.648 224.476L102.5 225ZM104.5 217.25H105.5C105.5 212.51 103.903 208.9 100.555 206.668L100 207.5L99.4453 208.332C102.097 210.1 103.5 212.99 103.5 217.25H104.5ZM100 207.5L100.607 206.706C97.5091 204.336 92.6519 203.25 86.25 203.25V204.25V205.25C92.5148 205.25 96.8243 206.33 99.3925 208.294L100 207.5ZM86.25 204.25V203.25H72.5V204.25V205.25H86.25V204.25ZM72.5 204.25H71.5V296.75H72.5H73.5V204.25H72.5ZM72.5 296.75V297.75H91.25V296.75V295.75H72.5V296.75ZM91.25 296.75V297.75C95.4692 297.75 99.3661 297.413 102.937 296.732L102.75 295.75L102.563 294.768C99.1339 295.421 95.3641 295.75 91.25 295.75V296.75ZM102.75 295.75L102.937 296.732C106.601 296.034 109.627 294.538 111.957 292.207L111.25 291.5L110.543 290.793C108.54 292.796 105.899 294.132 102.563 294.768L102.75 295.75ZM111.25 291.5L111.957 292.207C114.39 289.775 115.5 286.046 115.5 281.25H114.5H113.5C113.5 285.788 112.444 288.892 110.543 290.793L111.25 291.5ZM114.5 281.25H115.5C115.5 278.264 114.797 275.77 113.281 273.875L112.5 274.5L111.719 275.125C112.87 276.563 113.5 278.569 113.5 281.25H114.5ZM112.5 274.5L113.344 273.963C112.054 271.936 110.211 270.471 107.859 269.567L107.5 270.5L107.141 271.433C109.122 272.195 110.613 273.397 111.656 275.037L112.5 274.5ZM107.5 270.5L107.919 269.592C105.64 268.54 103.035 267.85 100.117 267.507L100 268.5L99.8832 269.493C102.632 269.816 105.026 270.46 107.081 271.408L107.5 270.5ZM100 268.5L100.124 267.508C97.4097 267.168 94.451 267 91.25 267V268V269C94.3823 269 97.2569 269.165 99.876 269.492L100 268.5ZM91.25 268V267H58V268V269H91.25V268ZM58 268H59V238H58H57V268H58ZM58 238V239H98.75V238V237H58V238ZM98.75 238V239C107.171 239 115.594 239.991 124.021 241.973L124.25 241L124.479 240.027C115.906 238.009 107.329 237 98.75 237V238ZM124.25 241L124.043 241.978C132.613 243.791 140.429 246.755 147.497 250.865L148 250L148.503 249.135C141.238 244.912 133.22 241.875 124.457 240.022L124.25 241ZM148 250L147.497 250.865C154.535 254.956 160.167 260.265 164.412 266.795L165.25 266.25L166.088 265.705C161.666 258.901 155.799 253.377 148.503 249.135L148 250ZM165.25 266.25L164.428 266.819C168.792 273.124 171 280.832 171 290H172H173C173 280.501 170.708 272.376 166.072 265.681L165.25 266.25ZM172 290H171C171 301.5 168.127 310.585 162.482 317.36L163.25 318L164.018 318.64C170.039 311.415 173 301.834 173 290H172ZM163.25 318L162.473 317.371C156.966 324.173 148.83 329.164 137.973 332.289L138.25 333.25L138.527 334.211C149.67 331.003 158.201 325.827 164.027 318.629L163.25 318ZM138.25 333.25L137.969 332.29C127.254 335.422 114.188 337 98.75 337V338V339C114.312 339 127.579 337.411 138.531 334.21L138.25 333.25ZM98.75 338V337H17.5V338V339H98.75V338ZM17.5 338H18.5V163H17.5H16.5V338H17.5ZM17.5 163V164H93.75V163V162H17.5V163ZM93.75 163V164C106.666 164 118.141 165.656 128.188 168.95L128.5 168L128.812 167.05C118.525 163.677 106.834 162 93.75 162V163ZM128.5 168L128.193 168.952C138.394 172.242 146.397 177.158 152.257 183.669L153 183L153.743 182.331C147.603 175.508 139.273 170.424 128.807 167.048L128.5 168ZM153 183L152.257 183.669C158.072 190.13 161 198.216 161 208H162H163C163 197.784 159.928 189.203 153.743 182.331L153 183ZM162 208H161C161 217.612 158.075 225.793 152.241 232.599L153 233.25L153.759 233.901C159.925 226.707 163 218.055 163 208H162ZM153 233.25L152.249 232.59C146.382 239.271 138.371 244.436 128.166 248.058L128.5 249L128.834 249.942C139.296 246.23 147.618 240.895 153.751 233.91L153 233.25ZM128.5 249L128.174 248.054C118.132 251.512 106.662 253.25 93.75 253.25V254.25V255.25C106.838 255.25 118.535 253.488 128.826 249.946L128.5 249ZM93.75 254.25V253.25H58V254.25V255.25H93.75V254.25ZM229.973 315.5H228.973V316.5H229.973V315.5ZM229.973 276V275H228.973V276H229.973ZM322.473 276H323.473V275H322.473V276ZM322.473 315.5V316.5H323.473V315.5H322.473ZM275.723 242.5L276.636 242.093L275.723 240.043L274.809 242.093L275.723 242.5ZM254.223 290.75L253.309 290.343L253.15 290.701L253.276 291.072L254.223 290.75ZM258.473 303.25L259.35 303.73L259.561 303.344L259.419 302.928L258.473 303.25ZM239.473 338V339H240.066L240.35 338.48L239.473 338ZM176.973 338L176.088 337.534L175.316 339H176.973V338ZM275.723 150.5L276.607 150.034L275.723 148.354L274.838 150.034L275.723 150.5ZM374.473 338V339H376.13L375.357 337.534L374.473 338ZM311.973 338L311.1 338.489L311.387 339H311.973V338ZM293.473 305L292.506 304.746L292.403 305.136L292.6 305.489L293.473 305ZM297.223 290.75L298.19 291.004L298.279 290.664L298.136 290.343L297.223 290.75ZM229.973 315.5H230.973V276H229.973H228.973V315.5H229.973ZM229.973 276V277H322.473V276V275H229.973V276ZM322.473 276H321.473V315.5H322.473H323.473V276H322.473ZM322.473 315.5V314.5H229.973V315.5V316.5H322.473V315.5ZM275.723 242.5L274.809 242.093L253.309 290.343L254.223 290.75L255.136 291.157L276.636 242.907L275.723 242.5ZM254.223 290.75L253.276 291.072L257.526 303.572L258.473 303.25L259.419 302.928L255.169 290.428L254.223 290.75ZM258.473 303.25L257.595 302.77L238.595 337.52L239.473 338L240.35 338.48L259.35 303.73L258.473 303.25ZM239.473 338V337H176.973V338V339H239.473V338ZM176.973 338L177.857 338.466L276.607 150.966L275.723 150.5L274.838 150.034L176.088 337.534L176.973 338ZM275.723 150.5L274.838 150.966L373.588 338.466L374.473 338L375.357 337.534L276.607 150.034L275.723 150.5ZM374.473 338V337H311.973V338V339H374.473V338ZM311.973 338L312.845 337.511L294.345 304.511L293.473 305L292.6 305.489L311.1 338.489L311.973 338ZM293.473 305L294.44 305.254L298.19 291.004L297.223 290.75L296.256 290.495L292.506 304.746L293.473 305ZM297.223 290.75L298.136 290.343L276.636 242.093L275.723 242.5L274.809 242.907L296.309 291.157L297.223 290.75ZM439.723 273.25L438.884 273.794L438.892 273.807L438.901 273.82L439.723 273.25ZM455.973 286.75L455.562 287.662L455.571 287.666L455.973 286.75ZM499.973 288L499.633 287.059L499.973 288ZM515.723 280L516.298 280.818L516.304 280.814L515.723 280ZM528.223 269.75H529.223V267.413L527.532 269.027L528.223 269.75ZM528.223 326.25L528.787 327.076L529.223 326.778V326.25H528.223ZM505.723 338L505.361 337.068L505.35 337.072L505.338 337.077L505.723 338ZM432.973 336.5L433.3 335.555L432.973 336.5ZM400.973 317.75L400.294 318.484L400.973 317.75ZM380.473 288.5L381.392 288.108L380.473 288.5ZM400.973 183.25L401.652 183.984L400.973 183.25ZM432.973 164.5L433.3 165.445L432.973 164.5ZM505.723 162.75L505.355 163.68L505.361 163.682L505.723 162.75ZM528.223 174.75H529.223V174.232L528.8 173.934L528.223 174.75ZM528.223 231.25L527.532 231.973L529.223 233.587V231.25H528.223ZM515.723 221L515.127 221.804L515.134 221.809L515.141 221.814L515.723 221ZM499.973 213L499.633 213.941L499.645 213.945L499.656 213.949L499.973 213ZM455.973 214.25L455.571 213.334L455.562 213.338L455.973 214.25ZM439.723 228L438.894 227.44L438.891 227.445L439.723 228ZM433.723 250.5H432.723C432.723 259.65 434.757 267.432 438.884 273.794L439.723 273.25L440.562 272.706C436.688 266.734 434.723 259.35 434.723 250.5H433.723ZM439.723 273.25L438.901 273.82C443.172 279.97 448.73 284.588 455.562 287.662L455.973 286.75L456.383 285.838C449.882 282.912 444.607 278.53 440.544 272.68L439.723 273.25ZM455.973 286.75L455.571 287.666C462.542 290.726 470.181 292.25 478.473 292.25V291.25V290.25C470.431 290.25 463.07 288.774 456.375 285.834L455.973 286.75ZM478.473 291.25V292.25C486.888 292.25 494.176 291.157 500.312 288.941L499.973 288L499.633 287.059C493.77 289.177 486.724 290.25 478.473 290.25V291.25ZM499.973 288L500.312 288.941C506.383 286.748 511.715 284.043 516.298 280.818L515.723 280L515.147 279.182C510.73 282.29 505.562 284.918 499.633 287.059L499.973 288ZM515.723 280L516.304 280.814C521.004 277.456 525.208 274.01 528.913 270.473L528.223 269.75L527.532 269.027C523.904 272.49 519.774 275.877 515.141 279.186L515.723 280ZM528.223 269.75H527.223V326.25H528.223H529.223V269.75H528.223ZM528.223 326.25L527.659 325.424C520.892 330.045 513.461 333.927 505.361 337.068L505.723 338L506.084 338.932C514.318 335.74 521.887 331.788 528.787 327.076L528.223 326.25ZM505.723 338L505.338 337.077C497.504 340.341 487.232 342 474.473 342V343V344C487.38 344 497.941 342.325 506.107 338.923L505.723 338ZM474.473 343V342C459.401 342 445.681 339.847 433.3 335.555L432.973 336.5L432.645 337.445C445.265 341.82 459.211 344 474.473 344V343ZM432.973 336.5L433.3 335.555C420.917 331.262 410.374 325.08 401.652 317.016L400.973 317.75L400.294 318.484C409.238 326.754 420.028 333.071 432.645 337.445L432.973 336.5ZM400.973 317.75L401.652 317.016C392.924 308.947 386.172 299.315 381.392 288.108L380.473 288.5L379.553 288.892C384.44 300.352 391.354 310.22 400.294 318.484L400.973 317.75ZM380.473 288.5L381.392 288.108C376.619 276.914 374.223 264.383 374.223 250.5H373.223H372.223C372.223 264.617 374.66 277.419 379.553 288.892L380.473 288.5ZM373.223 250.5H374.223C374.223 236.617 376.619 224.086 381.392 212.892L380.473 212.5L379.553 212.108C374.66 223.581 372.223 236.383 372.223 250.5H373.223ZM380.473 212.5L381.392 212.892C386.172 201.685 392.924 192.053 401.652 183.984L400.973 183.25L400.294 182.516C391.354 190.78 384.44 200.648 379.553 212.108L380.473 212.5ZM400.973 183.25L401.652 183.984C410.374 175.92 420.917 169.738 433.3 165.445L432.973 164.5L432.645 163.555C420.028 167.929 409.238 174.246 400.294 182.516L400.973 183.25ZM432.973 164.5L433.3 165.445C445.681 161.153 459.401 159 474.473 159V158V157C459.211 157 445.265 159.18 432.645 163.555L432.973 164.5ZM474.473 158V159C487.236 159 497.515 160.576 505.355 163.68L505.723 162.75L506.091 161.82C497.931 158.59 487.376 157 474.473 157V158ZM505.723 162.75L505.361 163.682C513.455 166.821 520.882 170.783 527.645 175.566L528.223 174.75L528.8 173.934C521.897 169.051 514.324 165.013 506.084 161.818L505.723 162.75ZM528.223 174.75H527.223V231.25H528.223H529.223V174.75H528.223ZM528.223 231.25L528.913 230.527C525.208 226.99 521.004 223.544 516.304 220.186L515.723 221L515.141 221.814C519.774 225.123 523.904 228.51 527.532 231.973L528.223 231.25ZM515.723 221L516.318 220.196C511.723 216.793 506.376 214.08 500.289 212.051L499.973 213L499.656 213.949C505.569 215.92 510.722 218.541 515.127 221.804L515.723 221ZM499.973 213L500.312 212.059C494.176 209.843 486.888 208.75 478.473 208.75V209.75V210.75C486.724 210.75 493.77 211.823 499.633 213.941L499.973 213ZM478.473 209.75V208.75C470.181 208.75 462.542 210.274 455.571 213.334L455.973 214.25L456.375 215.166C463.07 212.226 470.431 210.75 478.473 210.75V209.75ZM455.973 214.25L455.562 213.338C448.723 216.416 443.163 221.122 438.894 227.44L439.723 228L440.551 228.56C444.616 222.544 449.889 218.084 456.383 215.162L455.973 214.25ZM439.723 228L438.891 227.445C434.757 233.646 432.723 241.352 432.723 250.5H433.723H434.723C434.723 241.648 436.689 234.354 440.555 228.555L439.723 228ZM560.713 163V162H559.713V163H560.713ZM618.213 163H619.213V162H618.213V163ZM618.213 338V339H619.213V338H618.213ZM560.713 338H559.713V339H560.713V338ZM671.963 163V162H671.493L671.193 162.361L671.963 163ZM735.963 163L736.732 163.64L738.096 162H735.963V163ZM667.713 245L666.944 244.36L666.431 244.977L666.922 245.612L667.713 245ZM739.713 338V339H741.752L740.504 337.388L739.713 338ZM673.213 338L672.423 338.613L672.723 339H673.213V338ZM602.463 246.75L601.693 246.111L601.181 246.729L601.673 247.363L602.463 246.75ZM560.713 163V164H618.213V163V162H560.713V163ZM618.213 163H617.213V338H618.213H619.213V163H618.213ZM618.213 338V337H560.713V338V339H618.213V338ZM560.713 338H561.713V163H560.713H559.713V338H560.713ZM671.963 163V164H735.963V163V162H671.963V163ZM735.963 163L735.194 162.36L666.944 244.36L667.713 245L668.482 245.64L736.732 163.64L735.963 163ZM667.713 245L666.922 245.612L738.922 338.612L739.713 338L740.504 337.388L668.504 244.388L667.713 245ZM739.713 338V337H673.213V338V339H739.713V338ZM673.213 338L674.003 337.387L603.253 246.137L602.463 246.75L601.673 247.363L672.423 338.613L673.213 338ZM602.463 246.75L603.232 247.389L672.732 163.639L671.963 163L671.193 162.361L601.693 246.111L602.463 246.75ZM794.025 338H793.025V339H794.025V338ZM794.025 294.25V293.25H793.025V294.25H794.025ZM882.275 294.25H883.275V293.25H882.275V294.25ZM882.275 338V339H883.275V338H882.275ZM794.025 206.75H793.025V207.75H794.025V206.75ZM794.025 163V162H793.025V163H794.025ZM882.275 163H883.275V162H882.275V163ZM882.275 206.75V207.75H883.275V206.75H882.275ZM794.025 269.25H793.025V270.25H794.025V269.25ZM794.025 226.75V225.75H793.025V226.75H794.025ZM877.275 226.75H878.275V225.75H877.275V226.75ZM877.275 269.25V270.25H878.275V269.25H877.275ZM756.025 163V162H755.025V163H756.025ZM808.525 163H809.525V162H808.525V163ZM808.525 338V339H809.525V338H808.525ZM756.025 338H755.025V339H756.025V338ZM794.025 338H795.025V294.25H794.025H793.025V338H794.025ZM794.025 294.25V295.25H882.275V294.25V293.25H794.025V294.25ZM882.275 294.25H881.275V338H882.275H883.275V294.25H882.275ZM882.275 338V337H794.025V338V339H882.275V338ZM794.025 206.75H795.025V163H794.025H793.025V206.75H794.025ZM794.025 163V164H882.275V163V162H794.025V163ZM882.275 163H881.275V206.75H882.275H883.275V163H882.275ZM882.275 206.75V205.75H794.025V206.75V207.75H882.275V206.75ZM794.025 269.25H795.025V226.75H794.025H793.025V269.25H794.025ZM794.025 226.75V227.75H877.275V226.75V225.75H794.025V226.75ZM877.275 226.75H876.275V269.25H877.275H878.275V226.75H877.275ZM877.275 269.25V268.25H794.025V269.25V270.25H877.275V269.25ZM756.025 163V164H808.525V163V162H756.025V163ZM808.525 163H807.525V338H808.525H809.525V163H808.525ZM808.525 338V337H756.025V338V339H808.525V338ZM756.025 338H757.025V163H756.025H755.025V338H756.025ZM1028.47 163V162H1027.47V163H1028.47ZM1080.97 163H1081.97V162H1080.97V163ZM1080.97 346.75L1080.35 347.541L1081.97 348.788V346.75H1080.97ZM967.217 258.75L967.829 257.959L966.217 256.712V258.75H967.217ZM967.217 338V339H968.217V338H967.217ZM914.717 338H913.717V339H914.717V338ZM914.717 154.25L915.329 153.459L913.717 152.212V154.25H914.717ZM1028.47 242.25L1027.85 243.041L1029.47 244.288V242.25H1028.47ZM1028.47 163V164H1080.97V163V162H1028.47V163ZM1080.97 163H1079.97V346.75H1080.97H1081.97V163H1080.97ZM1080.97 346.75L1081.58 345.959L967.829 257.959L967.217 258.75L966.605 259.541L1080.35 347.541L1080.97 346.75ZM967.217 258.75H966.217V338H967.217H968.217V258.75H967.217ZM967.217 338V337H914.717V338V339H967.217V338ZM914.717 338H915.717V154.25H914.717H913.717V338H914.717ZM914.717 154.25L914.105 155.041L1027.85 243.041L1028.47 242.25L1029.08 241.459L915.329 153.459L914.717 154.25ZM1028.47 242.25H1029.47V163H1028.47H1027.47V242.25H1028.47ZM1115.89 163V162H1114.89V163H1115.89ZM1173.14 163H1174.14V162H1173.14V163ZM1173.14 338V339H1174.14V338H1173.14ZM1115.89 338H1114.89V339H1115.89V338ZM1153.89 338H1152.89V339H1153.89V338ZM1153.89 290.5V289.5H1152.89V290.5H1153.89ZM1220.64 272L1219.74 271.553L1219.74 271.564L1219.73 271.576L1220.64 272ZM1220.64 229L1219.73 229.424L1219.74 229.436L1219.74 229.447L1220.64 229ZM1210.64 217L1211.18 216.158L1210.64 217ZM1196.89 211.75L1196.72 212.736L1196.89 211.75ZM1153.89 210.5H1152.89V211.5H1153.89V210.5ZM1153.89 163V162H1152.89V163H1153.89ZM1236.89 173.5L1236.45 174.401L1236.46 174.402L1236.89 173.5ZM1270.39 203.5L1269.53 204.008L1269.53 204.016L1270.39 203.5ZM1270.39 297.5L1269.53 296.989L1269.53 296.992L1270.39 297.5ZM1236.89 327.5L1236.46 326.598L1236.45 326.599L1236.89 327.5ZM1115.89 163V164H1173.14V163V162H1115.89V163ZM1173.14 163H1172.14V338H1173.14H1174.14V163H1173.14ZM1173.14 338V337H1115.89V338V339H1173.14V338ZM1115.89 338H1116.89V163H1115.89H1114.89V338H1115.89ZM1184.64 338V337H1153.89V338V339H1184.64V338ZM1153.89 338H1154.89V290.5H1153.89H1152.89V338H1153.89ZM1153.89 290.5V291.5H1182.14V290.5V289.5H1153.89V290.5ZM1182.14 290.5V291.5C1187.03 291.5 1192 291.078 1197.05 290.236L1196.89 289.25L1196.72 288.264C1191.78 289.088 1186.91 289.5 1182.14 289.5V290.5ZM1196.89 289.25L1197.05 290.236C1202.18 289.381 1206.89 287.584 1211.18 284.842L1210.64 284L1210.1 283.158C1206.05 285.75 1201.59 287.452 1196.72 288.264L1196.89 289.25ZM1210.64 284L1211.18 284.842C1215.53 282.056 1218.98 277.896 1221.54 272.424L1220.64 272L1219.73 271.576C1217.3 276.771 1214.08 280.611 1210.1 283.158L1210.64 284ZM1220.64 272L1221.53 272.447C1224.3 266.922 1225.64 259.583 1225.64 250.5H1224.64H1223.64C1223.64 259.417 1222.32 266.411 1219.74 271.553L1220.64 272ZM1224.64 250.5H1225.64C1225.64 241.417 1224.3 234.078 1221.53 228.553L1220.64 229L1219.74 229.447C1222.32 234.589 1223.64 241.583 1223.64 250.5H1224.64ZM1220.64 229L1221.54 228.576C1218.98 223.104 1215.53 218.944 1211.18 216.158L1210.64 217L1210.1 217.842C1214.08 220.389 1217.3 224.229 1219.73 229.424L1220.64 229ZM1210.64 217L1211.18 216.158C1206.89 213.416 1202.18 211.619 1197.05 210.764L1196.89 211.75L1196.72 212.736C1201.59 213.548 1206.05 215.25 1210.1 217.842L1210.64 217ZM1196.89 211.75L1197.05 210.764C1192 209.922 1187.03 209.5 1182.14 209.5V210.5V211.5C1186.91 211.5 1191.78 211.912 1196.72 212.736L1196.89 211.75ZM1182.14 210.5V209.5H1153.89V210.5V211.5H1182.14V210.5ZM1153.89 210.5H1154.89V163H1153.89H1152.89V210.5H1153.89ZM1153.89 163V164H1184.64V163V162H1153.89V163ZM1184.64 163V164C1204.86 164 1222.12 167.481 1236.45 174.401L1236.89 173.5L1237.32 172.599C1222.66 165.519 1205.08 162 1184.64 162V163ZM1236.89 173.5L1236.46 174.402C1250.96 181.324 1261.97 191.193 1269.53 204.008L1270.39 203.5L1271.25 202.992C1263.47 189.807 1252.15 179.676 1237.32 172.598L1236.89 173.5ZM1270.39 203.5L1269.53 204.016C1277.25 216.831 1281.14 232.311 1281.14 250.5H1282.14H1283.14C1283.14 232.023 1279.19 216.169 1271.25 202.984L1270.39 203.5ZM1282.14 250.5H1281.14C1281.14 268.52 1277.25 284.003 1269.53 296.989L1270.39 297.5L1271.25 298.011C1279.19 284.663 1283.14 268.813 1283.14 250.5H1282.14ZM1270.39 297.5L1269.53 296.992C1261.97 309.807 1250.96 319.676 1236.46 326.598L1236.89 327.5L1237.32 328.402C1252.15 321.324 1263.47 311.193 1271.25 298.008L1270.39 297.5ZM1236.89 327.5L1236.45 326.599C1222.12 333.519 1204.86 337 1184.64 337V338V339C1205.08 339 1222.66 335.481 1237.32 328.401L1236.89 327.5Z" fill="white" fill-opacity="0.1" mask="url(#path-5-outside-3_143_6273)"/>
</svg>
