<svg width="310" height="200" viewBox="0 0 310 200" fill="none" xmlns="http://www.w3.org/2000/svg">
<rect x="0.5" y="0.5" width="309" height="199" rx="39.5" stroke="#F7F7F7" stroke-opacity="0.16"/>
<rect x="26" y="26" width="70" height="60" rx="20" fill="#222B39"/>
<rect x="26" y="116" width="70" height="60" rx="20" fill="#222B39"/>
<rect x="117" y="116" width="70" height="60" rx="20" fill="#222B39"/>
<rect x="207" y="117" width="70" height="60" rx="20" fill="#222B39"/>
<rect x="115" y="27" width="70" height="60" rx="20" fill="#222B39"/>
<rect x="207" y="27" width="70" height="60" rx="20" fill="#222B39"/>
<path d="M45.56 50H47.96V64H45.56V50ZM50.08 64H47.02V61.78H50.02C50.7133 61.78 51.3533 61.68 51.94 61.48C52.5267 61.28 53.0333 60.98 53.46 60.58C53.9 60.18 54.24 59.68 54.48 59.08C54.7333 58.48 54.86 57.7867 54.86 57C54.86 56.2133 54.7333 55.52 54.48 54.92C54.24 54.32 53.9 53.82 53.46 53.42C53.0333 53.02 52.5267 52.72 51.94 52.52C51.3533 52.32 50.7133 52.22 50.02 52.22H47.02V50H50.08C51.5067 50 52.76 50.2933 53.84 50.88C54.92 51.4533 55.76 52.2667 56.36 53.32C56.9733 54.36 57.28 55.5867 57.28 57C57.28 58.4133 56.9733 59.6467 56.36 60.7C55.76 61.74 54.92 62.5533 53.84 63.14C52.76 63.7133 51.5067 64 50.08 64ZM62.4634 57.32H65.0234L69.7634 64H66.9234L62.4634 57.32ZM59.5834 50H61.9434V64H59.5834V50ZM60.9834 52.04V50H63.9034C64.9168 50 65.7968 50.18 66.5434 50.54C67.3034 50.9 67.8901 51.4067 68.3034 52.06C68.7168 52.7 68.9234 53.46 68.9234 54.34C68.9234 55.22 68.7168 55.9867 68.3034 56.64C67.8901 57.2933 67.3034 57.8 66.5434 58.16C65.7968 58.52 64.9168 58.7 63.9034 58.7H60.9834V56.76H63.8034C64.3368 56.76 64.8034 56.6667 65.2034 56.48C65.6168 56.2933 65.9368 56.0267 66.1634 55.68C66.3901 55.32 66.5034 54.8933 66.5034 54.4C66.5034 53.8933 66.3901 53.4667 66.1634 53.12C65.9368 52.7733 65.6168 52.5067 65.2034 52.32C64.8034 52.1333 64.3368 52.04 63.8034 52.04H60.9834ZM72.938 52.12V50H79.198V52.12H72.938ZM72.938 57.68V55.62H78.998V57.68H72.938ZM71.478 50H73.798V64H71.478V50Z" fill="white"/>
<path d="M231.56 140H233.96V154H231.56V140ZM236.08 154H233.02V151.78H236.02C236.713 151.78 237.353 151.68 237.94 151.48C238.527 151.28 239.033 150.98 239.46 150.58C239.9 150.18 240.24 149.68 240.48 149.08C240.733 148.48 240.86 147.787 240.86 147C240.86 146.213 240.733 145.52 240.48 144.92C240.24 144.32 239.9 143.82 239.46 143.42C239.033 143.02 238.527 142.72 237.94 142.52C237.353 142.32 236.713 142.22 236.02 142.22H233.02V140H236.08C237.507 140 238.76 140.293 239.84 140.88C240.92 141.453 241.76 142.267 242.36 143.32C242.973 144.36 243.28 145.587 243.28 147C243.28 148.413 242.973 149.647 242.36 150.7C241.76 151.74 240.92 152.553 239.84 153.14C238.76 153.713 237.507 154 236.08 154ZM247.383 146.78V145.62H249.643C250.083 145.62 250.47 145.547 250.803 145.4C251.137 145.253 251.397 145.047 251.583 144.78C251.77 144.5 251.863 144.167 251.863 143.78C251.863 143.193 251.657 142.74 251.243 142.42C250.83 142.1 250.297 141.94 249.643 141.94H247.943V152.06H249.903C250.437 152.06 250.91 151.973 251.323 151.8C251.737 151.627 252.063 151.367 252.303 151.02C252.543 150.673 252.663 150.24 252.663 149.72C252.663 149.347 252.59 149.02 252.443 148.74C252.31 148.447 252.117 148.207 251.863 148.02C251.623 147.82 251.337 147.68 251.003 147.6C250.67 147.507 250.303 147.46 249.903 147.46H247.383V146.16H250.043C250.723 146.16 251.363 146.233 251.963 146.38C252.563 146.527 253.097 146.753 253.563 147.06C254.043 147.367 254.417 147.76 254.683 148.24C254.95 148.72 255.083 149.293 255.083 149.96C255.083 150.88 254.863 151.64 254.423 152.24C253.997 152.84 253.403 153.287 252.643 153.58C251.897 153.86 251.03 154 250.043 154H245.583V140H249.803C250.683 140 251.457 140.127 252.123 140.38C252.803 140.633 253.33 141.02 253.703 141.54C254.09 142.06 254.283 142.72 254.283 143.52C254.283 144.213 254.09 144.807 253.703 145.3C253.33 145.78 252.803 146.147 252.123 146.4C251.457 146.653 250.683 146.78 249.803 146.78H247.383Z" fill="white"/>
<path d="M60.0572 132C52.8682 132 53.3171 135.259 53.3171 135.259L53.3251 138.635H60.1854V139.649H50.6002C50.6002 139.649 46 139.103 46 146.685C46 154.268 50.0152 153.999 50.0152 153.999H52.4115V150.48C52.4115 150.48 52.2823 146.283 56.3626 146.283H63.1668C63.1668 146.283 66.9896 146.348 66.9896 142.421V135.929C66.9896 135.929 67.5702 132 60.0572 132ZM56.2744 134.27C56.4365 134.27 56.5971 134.304 56.7469 134.368C56.8967 134.433 57.0328 134.528 57.1474 134.648C57.2621 134.768 57.353 134.91 57.4149 135.067C57.4769 135.223 57.5087 135.391 57.5086 135.56C57.5087 135.73 57.4769 135.898 57.4149 136.054C57.353 136.211 57.2621 136.353 57.1474 136.473C57.0328 136.593 56.8967 136.688 56.7469 136.753C56.5971 136.817 56.4365 136.851 56.2744 136.851C56.1123 136.851 55.9517 136.817 55.8019 136.753C55.6521 136.688 55.516 136.593 55.4014 136.473C55.2868 136.353 55.1959 136.211 55.1339 136.054C55.0719 135.898 55.0401 135.73 55.0402 135.56C55.0401 135.391 55.0719 135.223 55.1339 135.067C55.1959 134.91 55.2868 134.768 55.4014 134.648C55.516 134.528 55.6521 134.433 55.8019 134.368C55.9517 134.304 56.1123 134.27 56.2744 134.27Z" fill="url(#paint0_linear_401_573)"/>
<path d="M60.2735 161C67.8049 161 67.3346 157.741 67.3346 157.741L67.3263 154.365H60.1391V153.352H70.1807C70.1807 153.352 75 153.897 75 146.315C75 138.732 70.7936 139.001 70.7936 139.001H68.2832V142.52C68.2832 142.52 68.4186 146.717 64.144 146.717H57.0157C57.0157 146.717 53.0109 146.652 53.0109 150.579V157.071C53.0109 157.071 52.4028 161 60.2734 161H60.2735ZM64.2364 158.73C64.0666 158.73 63.8984 158.697 63.7415 158.632C63.5845 158.567 63.442 158.472 63.3219 158.352C63.2018 158.232 63.1065 158.09 63.0416 157.934C62.9767 157.777 62.9434 157.609 62.9435 157.44C62.9433 157.27 62.9767 157.102 63.0416 156.946C63.1065 156.789 63.2017 156.647 63.3218 156.527C63.4419 156.407 63.5845 156.312 63.7415 156.247C63.8984 156.183 64.0666 156.149 64.2364 156.15C64.4063 156.149 64.5745 156.183 64.7314 156.247C64.8883 156.312 65.0309 156.407 65.151 156.527C65.2711 156.647 65.3664 156.789 65.4313 156.946C65.4962 157.102 65.5295 157.27 65.5294 157.44C65.5295 157.609 65.4962 157.777 65.4313 157.934C65.3664 158.09 65.2711 158.232 65.151 158.352C65.0309 158.472 64.8883 158.567 64.7314 158.632C64.5745 158.697 64.4063 158.73 64.2364 158.73Z" fill="url(#paint1_linear_401_573)"/>
<path d="M145.896 43H150.489V64.6162C148.136 65.0732 146.404 65.253 144.53 65.253C138.92 65.247 136 62.6735 136 57.7311C136 52.9691 139.098 49.8785 143.898 49.8785C144.643 49.8785 145.21 49.9387 145.896 50.119V43ZM146.057 54.0145C145.519 53.8341 145.075 53.774 144.508 53.774C142.185 53.774 140.843 55.229 140.843 57.779C140.843 60.2617 142.126 61.6325 144.478 61.6325C144.987 61.6325 145.4 61.6031 146.057 61.5129V54.0145Z" fill="#2BA977"/>
<path d="M158 50.4589V61.2818C158 65.009 157.728 66.8014 156.93 68.3467C156.185 69.8324 155.204 70.7692 153.176 71.8039L148.914 69.7417C150.942 68.7741 151.923 67.9192 152.55 66.6144C153.206 65.2802 153.413 63.7349 153.413 59.6703V50.4589L158 50.4589ZM152.95 43H157.543V47.7921H152.95V43Z" fill="#2BA977"/>
<path d="M234.57 47.9258L234.524 67.7433L233.855 68.1319L233.902 48.3143L234.57 47.9258Z" fill="#2E4277"/>
<path d="M232.373 66.8917L232.42 47.0742C232.419 47.267 233.04 47.7541 233.902 48.3159L233.856 68.1335C232.994 67.5716 232.373 67.0845 232.373 66.8917Z" fill="#384E85"/>
<path d="M239.316 50.666L239.27 70.4836L234.524 67.7433L234.57 47.9258L239.316 50.666Z" fill="#1B2A4F"/>
<path d="M239.316 51.8867L239.311 52.495L234.565 49.7548L234.57 49.1465L239.316 51.8867Z" fill="#3955D1"/>
<path d="M239.316 53.4629L239.311 54.0712L234.565 51.331L234.57 50.7227L239.316 53.4629Z" fill="#3955D1"/>
<path d="M239.316 55.0371L239.311 55.6454L234.565 52.9052L234.57 52.2969L239.316 55.0371Z" fill="#3955D1"/>
<path d="M239.316 56.6133L239.311 57.2216L234.565 54.4814L234.57 53.873L239.316 56.6133Z" fill="#3955D1"/>
<path d="M239.316 58.1875L239.311 58.7958L234.565 56.0556L234.57 55.4473L239.316 58.1875Z" fill="#3955D1"/>
<path d="M238.1 59.0975L238.097 59.4799L235.367 57.9038L235.37 57.5215L238.1 59.0975Z" fill="#2E4277"/>
<path d="M238.1 59.9999L238.097 60.3822L235.367 58.8062L235.37 58.4238L238.1 59.9999Z" fill="#2E4277"/>
<path d="M238.1 61.7987L238.097 62.1811L235.367 60.605L235.37 60.2227L238.1 61.7987Z" fill="#2E4277"/>
<path d="M238.1 60.8983L238.097 61.2807L235.367 59.7046L235.37 59.3223L238.1 60.8983Z" fill="#2E4277"/>
<path d="M238.1 63.5995L238.097 63.9818L235.367 62.4058L235.37 62.0234L238.1 63.5995Z" fill="#2E4277"/>
<path d="M238.1 62.6972L238.097 63.0795L235.367 61.5034L235.37 61.1211L238.1 62.6972Z" fill="#2E4277"/>
<path d="M238.1 64.496L238.097 64.8783L235.367 63.3023L235.37 62.9199L238.1 64.496Z" fill="#2E4277"/>
<path d="M251.246 45.875L251.2 66.0809L240.859 72.0905L240.905 51.4417L251.246 45.875Z" fill="#2E4277"/>
<path d="M240.905 51.8856L240.859 71.7032C240.658 71.8201 239.586 71.3736 238.606 70.8683L238.652 51.0508C239.757 51.6205 240.697 52.0064 240.905 51.8856Z" fill="#384E85"/>
<path d="M251.247 45.8773L240.905 51.887C240.698 52.0078 239.757 51.6218 238.652 51.0521L239.317 50.6662L234.57 47.9259L233.902 48.3145C232.919 47.6739 232.25 47.1304 232.458 47.0097L242.799 41L251.247 45.8773Z" fill="#384E85"/>
<path d="M234.57 49.1465L234.565 49.7548L233.896 50.1433L233.902 49.535L234.57 49.1465Z" fill="#4466FB"/>
<path d="M234.57 50.7227L234.565 51.331L233.896 51.7195L233.902 51.1112L234.57 50.7227Z" fill="#4466FB"/>
<path d="M234.57 52.2969L234.565 52.9052L233.896 53.2937L233.902 52.6854L234.57 52.2969Z" fill="#4466FB"/>
<path d="M234.57 53.873L234.565 54.4814L233.896 54.8699L233.902 54.2616L234.57 53.873Z" fill="#4466FB"/>
<path d="M234.57 55.4473L234.565 56.0556L233.896 56.4441L233.902 55.8358L234.57 55.4473Z" fill="#4466FB"/>
<path d="M232.414 48.9013L232.419 48.293C232.419 48.4857 233.04 48.9729 233.902 49.5347L233.896 50.143C233.035 49.5812 232.414 49.094 232.414 48.9013Z" fill="#6BB5FB"/>
<path d="M232.414 50.4755L232.419 49.8672C232.419 50.06 233.04 50.5471 233.902 51.1089L233.896 51.7172C233.035 51.1554 232.414 50.6683 232.414 50.4755Z" fill="#6BB5FB"/>
<path d="M232.414 52.0517L232.419 51.4434C232.419 51.6361 233.04 52.1232 233.902 52.6851L233.896 53.2934C233.035 52.7315 232.414 52.2444 232.414 52.0517Z" fill="#6BB5FB"/>
<path d="M232.414 53.6259L232.419 53.0176C232.419 53.2103 233.04 53.6975 233.902 54.2593L233.896 54.8676C233.035 54.3058 232.414 53.8187 232.414 53.6259Z" fill="#6BB5FB"/>
<path d="M232.414 55.202L232.419 54.5938C232.419 54.7865 233.04 55.2736 233.902 55.8355L233.896 56.4438C233.035 55.8819 232.414 55.3948 232.414 55.202Z" fill="#6BB5FB"/>
<path d="M240.905 53.1103L240.9 53.6961C240.699 53.813 239.627 53.389 238.647 52.8837L238.652 52.2754C239.632 52.7807 240.704 53.2272 240.905 53.1103Z" fill="#6BB5FB"/>
<path d="M240.905 54.6825L240.9 55.2684C240.699 55.3853 239.627 54.9612 238.647 54.456L238.652 53.8477C239.632 54.3529 240.704 54.7994 240.905 54.6825Z" fill="#6BB5FB"/>
<path d="M240.905 56.2567L240.9 56.8426C240.699 56.9595 239.627 56.5354 238.647 56.0302L238.652 55.4219C239.632 55.9271 240.704 56.3736 240.905 56.2567Z" fill="#6BB5FB"/>
<path d="M240.905 57.8329L240.9 58.4188C240.699 58.5357 239.627 58.1116 238.647 57.6063L238.652 56.998C239.632 57.5033 240.704 57.9498 240.905 57.8329Z" fill="#6BB5FB"/>
<path d="M240.905 59.4071L240.9 59.993C240.699 60.1099 239.627 59.6858 238.647 59.1806L238.652 58.5723C239.632 59.0775 240.704 59.524 240.905 59.4071Z" fill="#6BB5FB"/>
<path d="M250.499 64.9908L250.229 65.1456L250.221 63.1861L250.491 63.0312L250.499 64.9908Z" fill="#1B2A4F"/>
<path d="M249.989 65.2837L249.717 65.4399L249.709 63.4804L249.981 63.3242L249.989 65.2837Z" fill="#1B2A4F"/>
<path d="M249.477 65.5767L249.207 65.7316L249.198 63.7721L249.469 63.6172L249.477 65.5767Z" fill="#1B2A4F"/>
<path d="M248.967 65.8697L248.697 66.0245L248.688 64.065L248.959 63.9102L248.967 65.8697Z" fill="#1B2A4F"/>
<path d="M248.457 66.1626L248.184 66.3189L248.176 64.3593L248.449 64.2031L248.457 66.1626Z" fill="#1B2A4F"/>
<path d="M245.72 67.729L245.45 67.8839L245.442 65.9244L245.712 65.7695L245.72 67.729Z" fill="#1B2A4F"/>
<path d="M245.21 68.024L244.937 68.1802L244.929 66.2207L245.202 66.0645L245.21 68.024Z" fill="#1B2A4F"/>
<path d="M244.697 68.3169L244.427 68.4718L244.419 66.5123L244.689 66.3574L244.697 68.3169Z" fill="#1B2A4F"/>
<path d="M244.187 68.6099L243.917 68.7648L243.909 66.8053L244.179 66.6504L244.187 68.6099Z" fill="#1B2A4F"/>
<path d="M243.677 68.9029L243.405 69.0591L243.396 67.0996L243.669 66.9434L243.677 68.9029Z" fill="#1B2A4F"/>
<path d="M250.499 61.3697L250.229 61.5245L250.221 59.565L250.491 59.4102L250.499 61.3697Z" fill="#1B2A4F"/>
<path d="M249.989 61.6626L249.717 61.8189L249.709 59.8593L249.981 59.7031L249.989 61.6626Z" fill="#1B2A4F"/>
<path d="M249.477 61.9556L249.207 62.1105L249.198 60.151L249.469 59.9961L249.477 61.9556Z" fill="#1B2A4F"/>
<path d="M248.967 62.2505L248.697 62.4054L248.688 60.4459L248.959 60.291L248.967 62.2505Z" fill="#1B2A4F"/>
<path d="M248.457 62.5435L248.184 62.6997L248.176 60.7402L248.449 60.584L248.457 62.5435Z" fill="#1B2A4F"/>
<path d="M245.72 64.1099L245.45 64.2648L245.442 62.3053L245.712 62.1504L245.72 64.1099Z" fill="#1B2A4F"/>
<path d="M245.21 64.4029L244.937 64.5591L244.929 62.5996L245.202 62.4434L245.21 64.4029Z" fill="#1B2A4F"/>
<path d="M244.697 64.6958L244.427 64.8507L244.419 62.8912L244.689 62.7363L244.697 64.6958Z" fill="#1B2A4F"/>
<path d="M244.187 64.9908L243.917 65.1456L243.909 63.1861L244.179 63.0312L244.187 64.9908Z" fill="#1B2A4F"/>
<path d="M243.677 65.2837L243.405 65.44L243.396 63.4804L243.669 63.3242L243.677 65.2837Z" fill="#1B2A4F"/>
<path d="M240.457 52.145L241.268 51.6738L241.257 71.8069L240.447 72.2781L240.457 52.145Z" fill="#1B2A4F"/>
<path d="M232.009 47.27L232.82 46.7988L241.268 51.6761L240.457 52.1473L232.009 47.27Z" fill="#1B2A4F"/>
<path d="M232.011 47.2715L232 67.4035L240.445 72.2785L240.457 52.1465L232.011 47.2715ZM239.521 70.576L232.982 66.8009L232.988 48.3983L239.533 52.1734L239.521 70.576Z" fill="#2E4277"/>
<path opacity="0.3" d="M232.99 48.3965L232.981 66.801L239.52 70.5766L239.53 52.1716L232.99 48.3965Z" fill="#4466FB"/>
<path opacity="0.3" d="M232.981 66.8018L233.111 66.8764L239.524 64.3141L239.525 62.6621L232.982 65.276L232.981 66.8018Z" fill="#4466FB"/>
<path d="M240.302 62.4722L239.934 62.6836C239.908 62.6994 239.885 62.7002 239.868 62.6906L239.654 62.5666L239.654 62.7387C239.655 62.826 239.686 62.888 239.737 62.9177L239.428 62.7387C239.378 62.709 239.347 62.6478 239.347 62.5596L239.344 61.1037C239.343 60.9264 239.468 60.7106 239.622 60.6224L239.99 60.4102L240.297 60.5883L239.93 60.8006C239.776 60.8897 239.652 61.1054 239.652 61.2828L239.654 62.4897L239.993 62.2932L240.302 62.4722Z" fill="#B7C5FD"/>
<path d="M240.297 60.5898L240.298 60.8032L239.93 61.0154C239.879 61.045 239.838 61.1169 239.838 61.1759L239.841 62.6322C239.841 62.6911 239.882 62.7147 239.934 62.6851L240.301 62.4729L240.302 62.687L239.934 62.8992C239.78 62.988 239.655 62.916 239.655 62.7397L239.652 61.2834C239.651 61.1066 239.776 60.8909 239.93 60.802L240.297 60.5898Z" fill="#798FFE"/>
<path opacity="0.3" d="M234.522 67.6942L239.523 65.6961L239.523 65.043L233.854 67.3083L234.522 67.6942Z" fill="#4466FB"/>
<path opacity="0.3" d="M239.527 58.2246L232.984 60.8386L232.984 61.4917L239.526 58.8777L239.527 58.2246Z" fill="#4466FB"/>
<path opacity="0.3" d="M239.528 55.8457L232.985 58.4597L232.985 60.1117L239.527 57.4977L239.528 55.8457Z" fill="#4466FB"/>
<path opacity="0.3" d="M238.745 51.7207L232.988 54.021L232.987 54.6741L239.414 52.1066L238.745 51.7207Z" fill="#4466FB"/>
<path opacity="0.3" d="M236.311 50.3164L232.989 51.6438L232.988 53.2959L238.002 51.2925L236.311 50.3164Z" fill="#4466FB"/>
<path d="M160.942 150.377C160.81 149.953 160.463 149.658 160.015 149.587C159.804 149.553 159.562 149.568 159.276 149.63C158.777 149.739 158.407 149.78 158.137 149.789C159.156 147.967 159.985 145.89 160.463 143.934C161.235 140.772 160.822 139.332 160.34 138.68C159.065 136.955 157.204 136.029 154.959 136.001C153.761 135.985 152.71 136.235 152.161 136.415C151.65 136.32 151.101 136.267 150.525 136.257C149.445 136.239 148.491 136.488 147.676 137C147.224 136.838 146.5 136.611 145.663 136.465C143.695 136.123 142.11 136.39 140.95 137.257C139.545 138.307 138.894 140.131 139.014 142.679C139.052 143.487 139.48 145.949 140.153 148.283C140.54 149.624 140.953 150.738 141.38 151.594C141.985 152.808 142.633 153.523 143.36 153.779C143.767 153.923 144.508 154.023 145.287 153.337C145.385 153.464 145.517 153.589 145.692 153.706C145.914 153.854 146.185 153.975 146.457 154.047C147.433 154.305 148.349 154.241 149.129 153.879C149.134 154.025 149.138 154.166 149.141 154.287C149.146 154.484 149.151 154.676 149.158 154.857C149.204 156.076 149.283 157.024 149.515 157.687C149.528 157.723 149.545 157.779 149.563 157.838C149.679 158.213 149.873 158.842 150.365 159.334C150.876 159.844 151.493 160 152.059 160C152.342 160 152.613 159.961 152.85 159.907C153.696 159.715 154.657 159.423 155.352 158.376C156.009 157.386 156.328 155.895 156.386 153.545C156.394 153.479 156.401 153.416 156.407 153.355L156.421 153.231L156.576 153.245L156.616 153.248C157.477 153.29 158.531 153.096 159.178 152.778C159.689 152.527 161.328 151.612 160.942 150.377Z" fill="black"/>
<path d="M159.427 150.616C156.877 151.175 156.702 150.257 156.702 150.257C159.394 146.008 160.52 140.614 159.548 139.294C156.898 135.693 152.311 137.396 152.235 137.441L152.21 137.445C151.706 137.334 151.142 137.268 150.509 137.257C149.355 137.237 148.479 137.579 147.815 138.114C147.815 138.114 139.632 134.529 140.013 142.623C140.094 144.345 142.334 155.653 145.005 152.237C145.981 150.988 146.925 149.932 146.925 149.932C147.393 150.263 147.954 150.432 148.542 150.372L148.588 150.331C148.574 150.486 148.58 150.637 148.606 150.817C147.918 151.635 148.121 151.778 146.745 152.079C145.353 152.384 146.17 152.928 146.704 153.07C147.352 153.242 148.849 153.486 149.861 151.979L149.821 152.151C150.09 152.381 150.28 153.645 150.248 154.791C150.216 155.937 150.195 156.724 150.407 157.339C150.62 157.954 150.832 159.337 152.64 158.925C154.152 158.58 154.935 157.688 155.044 156.199C155.121 155.14 155.296 155.297 155.307 154.351L155.447 153.903C155.609 152.468 155.473 152.005 156.404 152.22L156.63 152.241C157.315 152.274 158.212 152.124 158.739 151.864C159.872 151.304 160.545 150.37 159.427 150.616H159.427Z" fill="#336791"/>
<path d="M148.609 143.185C148.386 143.151 148.184 143.183 148.082 143.27C148.024 143.318 148.006 143.375 148.002 143.414C147.989 143.516 148.053 143.63 148.093 143.689C148.205 143.855 148.369 143.969 148.531 143.995C148.554 143.998 148.577 144 148.601 144C148.871 144 149.116 143.765 149.138 143.591C149.165 143.373 148.883 143.228 148.609 143.185ZM155.999 143.192C155.978 143.022 155.706 142.973 155.449 143.013C155.192 143.053 154.943 143.183 154.964 143.354C154.98 143.487 155.195 143.714 155.449 143.714C155.47 143.714 155.492 143.712 155.514 143.709C155.683 143.683 155.807 143.562 155.866 143.493C155.956 143.387 156.008 143.269 155.999 143.192Z" fill="white"/>
<path d="M160.977 150.463C160.878 150.161 160.56 150.064 160.03 150.174C158.459 150.502 157.896 150.275 157.711 150.137C158.933 148.257 159.938 145.984 160.48 143.863C160.737 142.859 160.878 141.926 160.89 141.166C160.903 140.331 160.762 139.718 160.472 139.343C159.302 137.833 157.586 137.023 155.507 137.001C154.079 136.984 152.872 137.354 152.638 137.458C152.145 137.334 151.608 137.258 151.023 137.248C149.95 137.231 149.023 137.49 148.256 138.019C147.922 137.893 147.061 137.595 146.007 137.423C144.185 137.127 142.738 137.351 141.705 138.091C140.472 138.973 139.903 140.551 140.013 142.779C140.051 143.529 140.473 145.835 141.14 148.044C142.019 150.951 142.973 152.597 143.978 152.935C144.095 152.975 144.231 153.003 144.38 153.003C144.747 153.003 145.196 152.836 145.663 152.268C146.233 151.577 146.823 150.903 147.432 150.246C147.826 150.46 148.26 150.58 148.704 150.592C148.705 150.604 148.706 150.615 148.707 150.627C148.631 150.719 148.556 150.812 148.483 150.907C148.175 151.301 148.111 151.383 147.122 151.589C146.84 151.648 146.093 151.804 146.082 152.333C146.07 152.912 146.965 153.155 147.067 153.18C147.423 153.27 147.766 153.315 148.092 153.315C148.887 153.315 149.586 153.051 150.145 152.54C150.128 154.603 150.213 156.635 150.458 157.254C150.658 157.761 151.149 159 152.698 159C152.925 159 153.175 158.973 153.45 158.914C155.067 158.564 155.769 157.842 156.04 156.25C156.186 155.399 156.435 153.368 156.552 152.279C156.8 152.357 157.118 152.392 157.463 152.392C158.181 152.392 159.01 152.238 159.53 151.994C160.114 151.72 161.168 151.048 160.977 150.463ZM157.128 143.101C157.122 143.423 157.079 143.715 157.032 144.019C156.982 144.347 156.93 144.686 156.917 145.098C156.905 145.498 156.954 145.914 157.002 146.317C157.099 147.13 157.198 147.967 156.814 148.793C156.75 148.679 156.693 148.561 156.644 148.44C156.596 148.323 156.492 148.135 156.349 147.875C155.79 146.863 154.482 144.493 155.152 143.525C155.351 143.238 155.857 142.942 157.128 143.101ZM155.588 137.652C157.45 137.693 158.923 138.397 159.965 139.744C160.765 140.777 159.885 145.476 157.335 149.53C157.309 149.497 157.283 149.465 157.258 149.432L157.225 149.391C157.884 148.292 157.755 147.204 157.641 146.239C157.593 145.843 157.549 145.47 157.56 145.118C157.572 144.746 157.621 144.427 157.668 144.118C157.726 143.738 157.785 143.344 157.768 142.88C157.781 142.832 157.785 142.774 157.779 142.706C157.738 142.261 157.235 140.929 156.21 139.724C155.65 139.065 154.832 138.327 153.716 137.83C154.196 137.729 154.853 137.635 155.588 137.652ZM145.169 151.853C144.654 152.478 144.298 152.358 144.181 152.319C143.419 152.062 142.535 150.435 141.756 147.854C141.081 145.621 140.687 143.376 140.656 142.747C140.557 140.755 141.035 139.368 142.076 138.622C143.769 137.408 146.554 138.135 147.672 138.503C147.656 138.519 147.64 138.534 147.624 138.55C145.788 140.424 145.831 143.625 145.836 143.821C145.836 143.896 145.842 144.003 145.85 144.15C145.882 144.689 145.941 145.691 145.784 146.825C145.638 147.88 145.959 148.912 146.666 149.657C146.739 149.733 146.815 149.806 146.895 149.875C146.58 150.215 145.896 150.968 145.169 151.853ZM147.131 149.207C146.561 148.607 146.302 147.771 146.421 146.915C146.587 145.717 146.525 144.673 146.493 144.112C146.488 144.033 146.484 143.964 146.481 143.91C146.75 143.67 147.993 142.997 148.879 143.202C149.283 143.296 149.53 143.574 149.632 144.053C150.163 146.531 149.702 147.564 149.333 148.394C149.257 148.565 149.185 148.727 149.123 148.894L149.075 149.024C148.955 149.35 148.843 149.654 148.773 149.943C148.168 149.941 147.579 149.68 147.131 149.207V149.207ZM147.224 152.55C147.047 152.505 146.888 152.428 146.794 152.363C146.872 152.326 147.011 152.276 147.252 152.226C148.416 151.984 148.595 151.813 148.988 151.309C149.078 151.194 149.18 151.063 149.321 150.903L149.321 150.903C149.532 150.665 149.628 150.705 149.803 150.779C149.944 150.838 150.082 151.017 150.138 151.214C150.164 151.307 150.194 151.484 150.097 151.622C149.277 152.782 148.082 152.767 147.224 152.55ZM153.315 158.278C151.891 158.586 151.387 157.852 151.055 157.013C150.841 156.471 150.735 154.028 150.81 151.329C150.811 151.293 150.806 151.259 150.796 151.226C150.787 151.162 150.774 151.098 150.756 151.035C150.645 150.643 150.374 150.314 150.049 150.178C149.92 150.124 149.683 150.025 149.398 150.098C149.459 149.846 149.564 149.56 149.678 149.251L149.726 149.121C149.78 148.974 149.848 148.822 149.919 148.661C150.306 147.793 150.836 146.603 150.261 143.915C150.046 142.909 149.326 142.417 148.236 142.531C147.582 142.6 146.984 142.866 146.686 143.019C146.621 143.052 146.563 143.084 146.508 143.115C146.591 142.1 146.906 140.205 148.083 139.006C148.823 138.251 149.81 137.878 151.012 137.898C153.381 137.937 154.9 139.165 155.757 140.189C156.496 141.071 156.896 141.96 157.056 142.439C155.855 142.316 155.039 142.555 154.625 143.153C153.724 144.454 155.117 146.978 155.787 148.191C155.91 148.414 156.016 148.606 156.049 148.687C156.267 149.221 156.549 149.578 156.755 149.838C156.818 149.918 156.88 149.995 156.926 150.063C156.563 150.169 155.91 150.413 155.969 151.637C155.921 152.25 155.58 155.124 155.406 156.14C155.177 157.481 154.689 157.981 153.315 158.278V158.278ZM159.259 151.405C158.888 151.579 158.265 151.71 157.674 151.738C157.022 151.769 156.689 151.664 156.611 151.6C156.574 150.837 156.855 150.758 157.152 150.673C157.199 150.66 157.245 150.647 157.289 150.632C157.316 150.654 157.346 150.676 157.379 150.698C157.903 151.048 158.839 151.086 160.16 150.81L160.175 150.808C159.997 150.976 159.692 151.202 159.259 151.405Z" fill="white"/>
<defs>
<linearGradient id="paint0_linear_401_573" x1="318.139" y1="396.858" x2="1782.98" y2="1784.25" gradientUnits="userSpaceOnUse">
<stop stop-color="#387EB8"/>
<stop offset="1" stop-color="#366994"/>
</linearGradient>
<linearGradient id="paint1_linear_401_573" x1="473.816" y1="591.738" x2="2049.32" y2="2084.44" gradientUnits="userSpaceOnUse">
<stop stop-color="#FFE052"/>
<stop offset="1" stop-color="#FFC331"/>
</linearGradient>
</defs>
</svg>
