<svg width="1512" height="1672" viewBox="0 0 1512 1672" fill="none" xmlns="http://www.w3.org/2000/svg">
<path d="M473.924 79.9668C950.791 36.0964 1376.25 339.089 1424.35 756.576C1472.44 1174.06 1124.98 1548.16 648.115 1592.03C171.247 1635.9 -254.217 1332.91 -302.312 915.424C-350.406 497.937 -2.94299 123.837 473.924 79.9668Z" stroke="#FF0000"/>
<path d="M336.254 205.706C730.407 169.445 1082.64 424.841 1123.1 776.023C1163.55 1127.21 876.934 1441.37 482.78 1477.64C88.6272 1513.9 -263.606 1258.5 -304.062 907.318C-344.519 556.136 -57.8995 241.967 336.254 205.706Z" stroke="#FF0000"/>
<path d="M214.705 329.346C531.711 300.183 814.672 502.981 846.835 782.172C878.998 1061.36 648.206 1311.42 331.2 1340.59C14.1945 1369.75 -268.766 1166.95 -300.929 887.763C-333.091 608.572 -102.301 358.51 214.705 329.346Z" stroke="#FF0000"/>
<path d="M95.0814 455.389C342.298 432.646 562.73 589.052 587.559 804.584C612.389 1020.12 432.238 1213.38 185.022 1236.12C-62.1944 1258.86 -282.626 1102.45 -307.455 886.923C-332.285 671.391 -152.135 478.133 95.0814 455.389Z" stroke="#FF0000"/>
<path d="M-9.11355 554.383C170.234 537.883 330.149 651.605 348.194 808.241C366.238 964.877 235.604 1105.33 56.2563 1121.83C-123.092 1138.33 -283.007 1024.61 -301.052 867.97C-319.096 711.334 -188.462 570.882 -9.11355 554.383Z" stroke="#FF0000"/>
</svg>
