<svg width="215" height="221" viewBox="0 0 215 221" fill="none" xmlns="http://www.w3.org/2000/svg">
<path d="M167.286 51.7983C177.077 61.4936 178.798 77.6435 173.464 96.0626C168.136 114.461 155.797 134.996 137.69 153.283C119.582 171.57 99.1701 184.111 80.8254 189.62C62.4598 195.135 46.2937 193.574 36.5022 183.878C26.711 174.183 24.9907 158.034 30.3245 139.615C35.6524 121.217 47.9916 100.681 66.099 82.3946C84.2064 64.1077 104.619 51.5666 122.963 46.0575C141.329 40.5422 157.494 42.1032 167.286 51.7983Z" stroke="#FF3100"/>
<path d="M178.367 42.226C188.159 51.9213 189.879 68.0712 184.546 86.4904C179.218 104.889 166.878 125.424 148.771 143.71C130.664 161.997 110.251 174.538 91.9067 180.048C73.5411 185.563 57.375 184.001 47.5835 174.306C37.7923 164.611 36.072 148.461 41.4058 130.042C46.7337 111.644 59.0729 91.1092 77.1803 72.8224C95.2877 54.5355 115.7 41.9943 134.045 36.4852C152.41 30.9699 168.576 32.5309 178.367 42.226Z" stroke="#FF3100"/>
<circle cx="139.624" cy="152.388" r="5.35249" fill="#FF0000" stroke="#FF0000"/>
<path d="M51.8277 32.8507C64.1482 25.1106 81.5369 26.6557 99.793 35.6163C118.032 44.5684 137.022 60.8753 152.41 82.4287C167.799 103.982 176.645 126.662 178.526 145.89C180.41 165.136 175.313 180.807 162.992 188.547C150.672 196.287 133.284 194.742 115.028 185.781C96.789 176.829 77.7993 160.522 62.4105 138.969C47.0217 117.415 38.1759 94.7358 36.2944 75.5076C34.4112 56.2614 39.5074 40.5908 51.8277 32.8507Z" stroke="#FF3100"/>
<path d="M53.9897 24.9961C57.8961 24.9961 61.0073 27.9591 61.0073 31.5479C61.0073 35.1366 57.8961 38.0996 53.9897 38.0996C50.0834 38.0996 46.9722 35.1366 46.9722 31.5479C46.9722 27.9591 50.0834 24.9961 53.9897 24.9961Z" stroke="#FF3100"/>
<path d="M59.6474 26.8214C72.3618 19.6595 89.6486 22.0083 107.41 31.8018C125.156 41.5863 143.265 58.7509 157.502 80.9893C171.739 103.228 179.381 126.288 180.25 145.579C181.119 164.888 175.206 180.305 162.492 187.467C149.777 194.629 132.491 192.281 114.729 182.487C96.983 172.702 78.8742 155.538 64.6374 133.299C50.4005 111.061 42.7578 88.0009 41.8893 68.7097C41.02 49.4006 46.9331 33.9834 59.6474 26.8214Z" stroke="#FF3100"/>
<path d="M53.9897 27.2227C56.5496 27.2227 58.6333 29.3206 58.6333 31.9189C58.6332 34.5171 56.5495 36.6143 53.9897 36.6143C51.43 36.6142 49.3463 34.5171 49.3462 31.9189C49.3462 29.3207 51.4299 27.2227 53.9897 27.2227Z" fill="#FF0000" stroke="#FF0000"/>
</svg>
