<svg width="28" height="28" viewBox="0 0 28 28" fill="none" xmlns="http://www.w3.org/2000/svg">
<circle cx="14" cy="14" r="14" fill="white" fill-opacity="0.06"/>
<g clip-path="url(#clip0_642_28)">
<path d="M20.9456 16.9811C20.8617 16.7169 20.6418 16.533 20.3574 16.4888C20.2233 16.468 20.0697 16.4769 19.888 16.5158C19.5713 16.5837 19.3363 16.6096 19.1648 16.6146C19.8121 15.4792 20.3385 14.1844 20.6415 12.9656C21.1315 10.9948 20.8696 10.097 20.5637 9.69094C19.7539 8.61605 18.5725 8.0386 17.1472 8.02094C16.3869 8.01128 15.7194 8.16723 15.3713 8.27938C15.0471 8.21995 14.6985 8.18677 14.3327 8.18064C13.6471 8.16927 13.0413 8.32454 12.5237 8.64366C12.2372 8.54299 11.7772 8.40107 11.2461 8.31051C9.99695 8.09746 8.99015 8.26347 8.25373 8.80393C7.362 9.45829 6.94862 10.5952 7.02507 12.1831C7.04935 12.6873 7.32082 14.2212 7.74826 15.676C7.99391 16.5121 8.25587 17.2065 8.52684 17.74C8.91113 18.4964 9.32233 18.9419 9.78394 19.1019C10.0427 19.1914 10.5128 19.2541 11.0072 18.8263C11.0699 18.9052 11.1535 18.9835 11.2644 19.0563C11.4054 19.1486 11.5777 19.2241 11.7498 19.2688C12.37 19.4299 12.951 19.3896 13.4466 19.1638C13.4496 19.2554 13.452 19.3429 13.454 19.4184C13.4572 19.541 13.4605 19.6611 13.4648 19.7735C13.4942 20.5333 13.544 21.1241 13.6914 21.5375C13.6995 21.5602 13.7104 21.5949 13.7219 21.6316C13.7954 21.8656 13.9184 22.2572 14.2313 22.564C14.5554 22.8817 14.9473 22.9792 15.3063 22.9792C15.4863 22.9792 15.6581 22.9546 15.8088 22.9211C16.3458 22.8015 16.9557 22.6194 17.3969 21.9667C17.8141 21.3497 18.0169 20.4204 18.0536 18.9562C18.0583 18.9148 18.0627 18.8752 18.0669 18.8376L18.0757 18.7602L18.1739 18.7692L18.1993 18.7709C18.7462 18.7968 19.4151 18.6763 19.8258 18.4781C20.1504 18.3217 21.1905 17.7512 20.9456 16.9811Z" fill="black"/>
<path d="M20.0105 17.1307C18.384 17.4793 18.2722 16.9072 18.2722 16.9072C19.9894 14.2602 20.7073 10.9001 20.0878 10.0777C18.3978 7.83451 15.4723 8.89542 15.4234 8.92292L15.4077 8.92587C15.0864 8.85656 14.7268 8.81532 14.3226 8.80844C13.5867 8.79594 13.0285 9.00888 12.6049 9.34259C12.6049 9.34259 7.38606 7.10907 7.62882 12.1516C7.68044 13.2244 9.10888 20.2686 10.8126 18.1409C11.4353 17.3629 12.0371 16.705 12.0371 16.705C12.3359 16.9113 12.6936 17.0165 13.0687 16.9787L13.0978 16.953C13.0888 17.0496 13.0929 17.1441 13.1095 17.2559C12.6706 17.7654 12.7996 17.8548 11.9222 18.0425C11.0343 18.2326 11.5559 18.5709 11.8964 18.6594C12.3092 18.7667 13.2643 18.9186 13.9096 17.9801L13.8839 18.0872C14.0559 18.2303 14.1766 19.0179 14.1564 19.732C14.1361 20.446 14.1226 20.9363 14.2581 21.3192C14.3937 21.7021 14.5287 22.5637 15.6822 22.3069C16.6459 22.0923 17.1454 21.5363 17.2149 20.6088C17.2642 19.9494 17.3758 20.0469 17.3828 19.4574L17.4723 19.1783C17.5755 18.2845 17.4887 17.9961 18.0824 18.1302L18.2268 18.1434C18.6638 18.164 19.2358 18.0704 19.5715 17.9083C20.2944 17.5598 20.7231 16.9779 20.0103 17.1307H20.0105Z" fill="#336791"/>
<path d="M12.9104 12.6317C12.7638 12.6105 12.6311 12.6301 12.564 12.6829C12.5262 12.7126 12.5145 12.747 12.5113 12.7707C12.5029 12.8335 12.5453 12.9029 12.5713 12.9387C12.6449 13.0401 12.7524 13.1097 12.8588 13.1251C12.8743 13.1273 12.8896 13.1284 12.9049 13.1284C13.0823 13.1284 13.2437 12.9848 13.2579 12.8788C13.2757 12.7461 13.0903 12.6576 12.9104 12.6317ZM17.7658 12.6359C17.7518 12.5318 17.5736 12.5022 17.4045 12.5266C17.2356 12.551 17.0719 12.6302 17.0856 12.7345C17.0965 12.8156 17.2374 12.954 17.4042 12.954C17.4183 12.954 17.4326 12.953 17.4469 12.9509C17.5582 12.9349 17.6399 12.8614 17.6788 12.8191C17.7378 12.7545 17.7721 12.6826 17.7658 12.6359Z" fill="white"/>
<path d="M20.5518 17.0918C20.4898 16.897 20.2902 16.8343 19.9585 16.9055C18.9739 17.1166 18.6213 16.9704 18.5055 16.8818C19.2708 15.6705 19.9005 14.2064 20.2401 12.8403C20.401 12.1932 20.4899 11.5923 20.4972 11.1024C20.5052 10.5648 20.417 10.1697 20.2353 9.92839C19.5023 8.95548 18.4266 8.4336 17.1245 8.41928C16.2293 8.40883 15.473 8.64681 15.3264 8.71374C15.0176 8.63397 14.681 8.585 14.3146 8.57875C13.6426 8.56745 13.0617 8.73459 12.5808 9.07529C12.3719 8.99451 11.832 8.80197 11.1717 8.69147C10.0303 8.50058 9.12325 8.64522 8.47597 9.1216C7.70362 9.69006 7.34706 10.7062 7.41613 12.1417C7.43937 12.6247 7.70427 14.1105 8.12231 15.5333C8.67257 17.4061 9.27074 18.4663 9.90009 18.6844C9.97375 18.7099 10.0587 18.7277 10.1524 18.7277C10.3819 18.7277 10.6634 18.6202 10.9563 18.2545C11.3135 17.8093 11.683 17.375 12.0643 16.952C12.3117 17.0899 12.5835 17.167 12.8615 17.1747C12.862 17.1823 12.8627 17.1898 12.8634 17.1973C12.8155 17.2566 12.7687 17.3167 12.7228 17.3777C12.5302 17.6317 12.4901 17.6846 11.8701 17.8172C11.6938 17.855 11.2254 17.9553 11.2185 18.2964C11.2111 18.6691 11.7722 18.8256 11.8361 18.8422C12.0589 18.9002 12.2736 18.9287 12.4783 18.9287C12.9761 18.9287 13.4142 18.7588 13.7643 18.4299C13.7535 19.7585 13.8069 21.0677 13.9604 21.4666C14.0862 21.7931 14.3934 22.5912 15.3639 22.5911C15.5063 22.5911 15.6631 22.5739 15.8355 22.5355C16.8484 22.3099 17.2882 21.8449 17.4583 20.8196C17.5494 20.2716 17.7056 18.9632 17.7791 18.2613C17.9342 18.3116 18.1339 18.3346 18.3497 18.3345C18.7999 18.3345 19.3194 18.2352 19.6452 18.0781C20.0111 17.9015 20.6716 17.4683 20.5518 17.0918ZM18.1397 12.3491C18.1364 12.5563 18.109 12.7444 18.0799 12.9408C18.0485 13.1519 18.0161 13.3703 18.008 13.6353C18 13.8932 18.031 14.1614 18.0609 14.4207C18.1215 14.9445 18.1837 15.4838 17.943 16.0159C17.9031 15.9423 17.8674 15.8663 17.8364 15.7881C17.8065 15.7128 17.7415 15.5918 17.6515 15.4243C17.3016 14.7723 16.4821 13.2456 16.9016 12.6226C17.0266 12.4371 17.3437 12.2465 18.1397 12.3491ZM17.1748 8.83884C18.3415 8.8656 19.2644 9.31902 19.9179 10.1864C20.419 10.8518 19.8672 13.8791 18.2696 16.4909C18.2535 16.4696 18.2374 16.4485 18.2211 16.4274L18.2009 16.4012C18.6137 15.6929 18.533 14.9921 18.4611 14.3708C18.4316 14.1158 18.4037 13.875 18.4108 13.6488C18.4182 13.409 18.4487 13.2033 18.4782 13.0045C18.5145 12.7595 18.5514 12.5059 18.5412 12.207C18.5488 12.1757 18.5519 12.1386 18.5479 12.0946C18.5219 11.808 18.2069 10.9502 17.5649 10.1738C17.2137 9.74915 16.7015 9.27391 16.0022 8.95337C16.303 8.88861 16.7143 8.82822 17.1748 8.83884ZM10.6464 17.9868C10.3237 18.3898 10.1009 18.3125 10.0276 18.2872C9.5502 18.1218 8.99621 17.0735 8.5078 15.4111C8.08517 13.9728 7.8382 12.5264 7.81863 12.1208C7.75694 10.8381 8.05624 9.94413 8.70828 9.46372C9.76944 8.68198 11.5141 9.14989 12.2151 9.38719C12.2051 9.39753 12.1946 9.40719 12.1846 9.4177C11.0342 10.6246 11.0615 12.6867 11.0643 12.8128C11.0642 12.8614 11.0682 12.9302 11.0735 13.025C11.0933 13.3718 11.1302 14.0173 11.0317 14.7483C10.9403 15.4276 11.1419 16.0925 11.5847 16.5725C11.6301 16.6217 11.6779 16.6685 11.7278 16.7127C11.5307 16.932 11.1023 17.417 10.6464 17.9868ZM11.8757 16.2828C11.5188 15.8959 11.3567 15.3578 11.4309 14.8063C11.5348 14.0341 11.4965 13.3615 11.4759 13.0002C11.473 12.9496 11.4704 12.9053 11.4689 12.8704C11.637 12.7156 12.4158 12.2821 12.9712 12.4143C13.2246 12.4746 13.379 12.6539 13.4432 12.9622C13.7755 14.5588 13.4872 15.2243 13.2555 15.7591C13.2078 15.8692 13.1627 15.9734 13.1242 16.0811L13.0943 16.1644C13.0188 16.3749 12.9484 16.5707 12.9048 16.7566C12.5254 16.7554 12.1563 16.587 11.8757 16.2828V16.2828ZM11.9339 18.436C11.8231 18.4073 11.7235 18.3573 11.665 18.3159C11.7139 18.292 11.8008 18.2595 11.9515 18.2273C12.6808 18.0713 12.7935 17.9612 13.0395 17.6368C13.0959 17.5623 13.1598 17.478 13.2483 17.3753L13.2484 17.3752C13.3803 17.2218 13.4406 17.2478 13.55 17.295C13.6386 17.333 13.725 17.4485 13.76 17.5755C13.7766 17.6355 13.7951 17.7494 13.7343 17.838C13.2204 18.5854 12.4717 18.5758 11.9339 18.436ZM15.751 22.1261C14.8588 22.3247 14.5428 21.8517 14.3346 21.3111C14.2003 20.962 14.1342 19.388 14.1811 17.6497C14.1817 17.6265 14.1785 17.6042 14.1724 17.5832C14.1669 17.5417 14.1586 17.5006 14.1474 17.4604C14.0778 17.2074 13.908 16.9959 13.7043 16.9081C13.6233 16.8733 13.4748 16.8094 13.2963 16.8568C13.3344 16.6939 13.4004 16.5099 13.4719 16.3106L13.502 16.2269C13.5358 16.1324 13.5782 16.0345 13.623 15.9309C13.8655 15.3714 14.1975 14.605 13.8371 12.8738C13.7022 12.2253 13.2514 11.9086 12.5682 11.9822C12.1586 12.0262 11.7838 12.1979 11.5969 12.2964C11.5567 12.3175 11.5199 12.338 11.4856 12.3579C11.5378 11.7045 11.7349 10.4835 12.4721 9.71097C12.9364 9.22465 13.5546 8.98445 14.3079 8.9974C15.7921 9.02263 16.7439 9.81391 17.281 10.4733C17.7439 11.0415 17.9945 11.6139 18.0946 11.9226C17.3423 11.8431 16.8307 11.9974 16.5714 12.3826C16.0072 13.2204 16.8801 14.8466 17.2996 15.6282C17.3765 15.7714 17.4429 15.8952 17.4638 15.9478C17.6004 16.2918 17.7773 16.5214 17.9064 16.689C17.946 16.7404 17.9844 16.7902 18.0136 16.8337C17.7858 16.902 17.3765 17.0596 17.4138 17.8477C17.3837 18.2431 17.1699 20.0944 17.0612 20.7484C16.9178 21.6126 16.6117 21.9344 15.751 22.1261V22.1261ZM19.4755 17.6983C19.2425 17.8107 18.8526 17.8949 18.4823 17.913C18.0732 17.9329 17.865 17.8654 17.816 17.8239C17.793 17.3328 17.969 17.2815 18.1552 17.2272C18.1844 17.2187 18.213 17.2103 18.2405 17.2003C18.2576 17.2148 18.2764 17.2292 18.297 17.2433C18.6258 17.4687 19.2122 17.493 20.0401 17.3155L20.0492 17.3136C19.9375 17.4221 19.7464 17.5676 19.4755 17.6983Z" fill="white"/>
</g>
<defs>
<clipPath id="clip0_642_28">
<rect width="14" height="15" fill="white" transform="translate(7 8)"/>
</clipPath>
</defs>
</svg>
