<svg width="28" height="28" viewBox="0 0 28 28" fill="none" xmlns="http://www.w3.org/2000/svg">
<circle cx="14" cy="14" r="14" fill="white" fill-opacity="0.06"/>
<g clip-path="url(#clip0_635_4)">
<path d="M9.65625 7.00195H19.3438C20.8125 7.00195 22 8.21965 22 9.72575V19.2751C22 20.7812 20.8125 21.9989 19.3438 21.9989H9.65625C8.1875 21.9989 7 20.7812 7 19.2751V9.72575C7 8.21965 8.1875 7.00195 9.65625 7.00195Z" fill="#001E36"/>
<path d="M10.375 17.5182V10.9234C10.375 10.8785 10.3938 10.8529 10.4375 10.8529C10.5438 10.8529 10.6438 10.8529 10.7875 10.8465C10.9375 10.8401 11.0938 10.8401 11.2625 10.8337C11.4313 10.8273 11.6125 10.8273 11.8063 10.8209C12 10.8145 12.1875 10.8145 12.375 10.8145C12.8875 10.8145 13.3125 10.8785 13.6625 11.0131C13.975 11.1221 14.2625 11.3015 14.5 11.5387C14.7 11.7437 14.8563 11.9937 14.9563 12.2693C15.05 12.5385 15.1 12.814 15.1 13.1024C15.1 13.6536 14.975 14.1086 14.725 14.4675C14.475 14.8265 14.125 15.0956 13.7188 15.2494C13.2938 15.4097 12.825 15.4673 12.3125 15.4673C12.1625 15.4673 12.0625 15.4673 12 15.4609C11.9375 15.4545 11.85 15.4545 11.7313 15.4545V17.5118C11.7375 17.5567 11.7063 17.5951 11.6625 17.6015H10.45C10.4 17.6015 10.375 17.5759 10.375 17.5182ZM11.7375 12.0898V14.2432C11.825 14.2496 11.9063 14.2561 11.9813 14.2561H12.3125C12.5563 14.2561 12.8 14.2176 13.0313 14.1407C13.2313 14.083 13.4063 13.9612 13.5438 13.801C13.675 13.6408 13.7375 13.4229 13.7375 13.1409C13.7438 12.9422 13.6938 12.7435 13.5938 12.5705C13.4875 12.4039 13.3375 12.2757 13.1563 12.2052C12.925 12.1091 12.675 12.0706 12.4188 12.077C12.2563 12.077 12.1125 12.077 11.9938 12.0834C11.8688 12.077 11.7813 12.0834 11.7375 12.0898ZM19 13.8523C18.8125 13.7497 18.6125 13.6793 18.4 13.6344C18.1688 13.5831 17.9375 13.5511 17.7 13.5511C17.575 13.5447 17.4438 13.5639 17.325 13.5959C17.2438 13.6152 17.175 13.66 17.1313 13.7241C17.1 13.7754 17.0813 13.8395 17.0813 13.8972C17.0813 13.9548 17.1063 14.0125 17.1438 14.0638C17.2 14.1343 17.275 14.192 17.3563 14.2368C17.5 14.3137 17.65 14.3842 17.8 14.4483C18.1375 14.5637 18.4625 14.7239 18.7625 14.9162C18.9688 15.0508 19.1375 15.2302 19.2563 15.4481C19.3563 15.6532 19.4063 15.8775 19.4 16.1082C19.4063 16.4095 19.3188 16.7107 19.1563 16.9606C18.9813 17.217 18.7375 17.4157 18.4563 17.531C18.15 17.6656 17.775 17.7361 17.325 17.7361C17.0375 17.7361 16.7563 17.7105 16.475 17.6528C16.2563 17.6143 16.0375 17.5438 15.8375 17.4477C15.7938 17.4221 15.7625 17.3772 15.7688 17.3259V16.2108C15.7688 16.1916 15.775 16.1659 15.7938 16.1531C15.8125 16.1403 15.8313 16.1467 15.85 16.1595C16.0938 16.3069 16.35 16.4095 16.625 16.4735C16.8625 16.5376 17.1125 16.5697 17.3625 16.5697C17.6 16.5697 17.7688 16.5376 17.8813 16.48C17.9813 16.4351 18.05 16.3261 18.05 16.2108C18.05 16.1211 18 16.0377 17.9 15.9544C17.8 15.8711 17.5938 15.775 17.2875 15.6532C16.9688 15.5378 16.675 15.384 16.4 15.1918C16.2063 15.0508 16.0438 14.8649 15.925 14.647C15.825 14.4419 15.775 14.2176 15.7813 13.9933C15.7813 13.7177 15.8563 13.4549 15.9938 13.2178C16.15 12.9614 16.3813 12.7564 16.65 12.6282C16.9438 12.4744 17.3125 12.4039 17.7563 12.4039C18.0125 12.4039 18.275 12.4231 18.5313 12.4616C18.7188 12.4872 18.9 12.5385 19.0688 12.609C19.0938 12.6154 19.1188 12.641 19.1313 12.6666C19.1375 12.6923 19.1438 12.7179 19.1438 12.7435V13.7882C19.1438 13.8138 19.1313 13.8395 19.1125 13.8523C19.0563 13.8651 19.025 13.8651 19 13.8523Z" fill="#31A8FF"/>
</g>
<defs>
<clipPath id="clip0_635_4">
<rect width="15" height="15" fill="white" transform="translate(7 7)"/>
</clipPath>
</defs>
</svg>
