<svg width="28" height="28" viewBox="0 0 28 28" fill="none" xmlns="http://www.w3.org/2000/svg">
<circle cx="14" cy="14" r="14" fill="white" fill-opacity="0.06"/>
<g clip-path="url(#clip0_642_27)">
<path d="M11.8289 7H14.5344V19.7327C13.1486 20.0018 12.1284 20.1077 11.0246 20.1077C7.72011 20.1042 6 18.5883 6 15.6771C6 12.8721 7.82457 11.0517 10.652 11.0517C11.0907 11.0517 11.425 11.0871 11.8289 11.1933V7ZM11.9237 13.4879C11.6068 13.3816 11.3457 13.3462 11.0114 13.3462C9.643 13.3462 8.85259 14.2033 8.85259 15.7053C8.85259 17.1677 9.60821 17.9751 10.994 17.9751C11.2934 17.9751 11.5372 17.9578 11.9237 17.9047V13.4879Z" fill="#2BA977"/>
<path d="M18.9588 11.3935V17.7686C18.9588 19.964 18.7986 21.0198 18.3285 21.93C17.8898 22.8051 17.3118 23.357 16.1175 23.9664L13.6069 22.7517C14.8013 22.1818 15.3792 21.6782 15.7484 20.9097C16.1348 20.1238 16.2567 19.2135 16.2567 16.8194V11.3936L18.9588 11.3935ZM15.9841 7H18.6896V9.82272H15.9841V7Z" fill="#2BA977"/>
</g>
<defs>
<clipPath id="clip0_642_27">
<rect width="13" height="17" fill="white" transform="translate(6 7)"/>
</clipPath>
</defs>
</svg>
