<svg width="28" height="28" viewBox="0 0 28 28" fill="none" xmlns="http://www.w3.org/2000/svg">
<circle cx="14" cy="14" r="14" fill="white" fill-opacity="0.06"/>
<path d="M14 7C11.8666 7 10.5333 8.44447 9.9999 11.3332C10.8 9.88868 11.7334 9.3472 12.8 9.70819C13.4086 9.91415 13.8435 10.5123 14.3251 11.1741C15.1094 12.2521 16.0172 13.4999 18.0001 13.4999C20.1333 13.4999 21.4668 12.0554 22 9.16644C21.2001 10.6109 20.2668 11.1527 19.2 10.7917C18.5915 10.5857 18.1566 9.9876 17.675 9.32579C16.8907 8.24772 15.9827 7 14 7ZM9.9999 13.4999C7.8667 13.4999 6.5332 14.9443 6 17.8333C6.7999 16.3888 7.73325 15.8471 8.80005 16.2083C9.40848 16.4146 9.84344 17.0124 10.325 17.6739C11.1093 18.752 12.0173 20 14 20C16.1334 20 17.4667 18.5555 18.0001 15.6666C17.2 17.1111 16.2667 17.6528 15.2001 17.2915C14.5914 17.0858 14.1565 16.4875 13.6749 15.8259C12.8906 14.7479 11.9828 13.4999 9.9999 13.4999Z" fill="#06B6D4"/>
</svg>
