<svg width="320" height="200" viewBox="0 0 320 200" fill="none" xmlns="http://www.w3.org/2000/svg">
<rect x="20" y="107" width="93" height="77" rx="30" fill="#222B39"/>
<path d="M65 128C58.8665 128 55.0332 132 53.4997 139.999C55.8 135.999 58.4834 134.5 61.5499 135.5C63.2997 136.07 64.5502 137.726 65.9347 139.559C68.1896 142.544 70.7993 146 76.5003 146C82.6332 146 86.467 142 88 133.999C85.7003 137.999 83.0169 139.5 79.9499 138.5C78.2006 137.93 76.9501 136.273 75.5656 134.441C73.3107 131.455 70.7004 128 65 128ZM53.4997 146C47.3668 146 43.5329 150 42 158C44.2997 154 46.9831 152.5 50.0501 153.5C51.7994 154.071 53.0499 155.727 54.4344 157.559C56.6893 160.544 59.2996 164 65 164C71.1335 164 74.9668 160 76.5003 152C74.2 156 71.5166 157.5 68.4501 156.5C66.7003 155.93 65.4498 154.273 64.0653 152.441C61.8104 149.456 59.2007 146 53.4997 146Z" fill="#06B6D4"/>
<rect x="0.5" y="0.5" width="319" height="199" rx="39.5" stroke="#F7F7F7" stroke-opacity="0.16"/>
<rect x="20" y="21" width="93" height="77" rx="30" fill="#222B39"/>
<path d="M95 62.0066C95 57.937 90.0224 54.0803 82.391 51.6887C84.1521 43.7248 83.3693 37.3888 79.9205 35.3602C79.1256 34.8844 78.1961 34.659 77.181 34.659V37.4514C77.7436 37.4514 78.1961 37.5641 78.5752 37.7769C80.2385 38.7536 80.9601 42.4726 80.3975 47.2559C80.2629 48.433 80.0428 49.6727 79.7737 50.9374C77.3767 50.3363 74.7595 49.873 72.0077 49.5725C70.3567 47.2559 68.6445 45.1523 66.9201 43.3116C70.9071 39.5175 74.6494 37.4388 77.1932 37.4388V34.6465C73.83 34.6465 69.4272 37.1008 64.9755 41.3582C60.5238 37.1258 56.1211 34.6966 52.7578 34.6966V37.4889C55.2894 37.4889 59.044 39.555 63.031 43.3241C61.3188 45.1648 59.6066 47.2559 57.98 49.5725C55.2161 49.873 52.5989 50.3363 50.2018 50.9499C49.9205 49.6977 49.7126 48.4831 49.5658 47.3186C48.991 42.5352 49.7004 38.8162 51.3514 37.827C51.7183 37.6016 52.1953 37.5015 52.7578 37.5015V34.7091C51.7305 34.7091 50.8011 34.9345 49.9939 35.4103C46.5573 37.4388 45.7868 43.7624 47.5601 51.7012C39.9531 54.1054 35 57.9496 35 62.0066C35 66.0762 39.9776 69.9329 47.609 72.3246C45.8479 80.2885 46.6307 86.6245 50.0795 88.653C50.8744 89.1289 51.8039 89.3543 52.8312 89.3543C56.1945 89.3543 60.5972 86.9 65.0489 82.6426C69.5006 86.8749 73.9034 89.3042 77.2666 89.3042C78.2939 89.3042 79.2234 89.0788 80.0306 88.603C83.4672 86.5744 84.2377 80.2509 82.4643 72.3121C90.0469 69.9204 95 66.0637 95 62.0066ZM79.0766 53.6546C78.6241 55.2699 78.0616 56.9353 77.4256 58.6007C76.9242 57.599 76.3983 56.5972 75.8235 55.5955C75.2609 54.5937 74.6616 53.617 74.0624 52.6654C75.799 52.9283 77.4745 53.2539 79.0766 53.6546ZM73.4753 66.9903C72.5214 68.6808 71.543 70.2836 70.5279 71.7736C68.7057 71.9364 66.859 72.0241 65 72.0241C63.1533 72.0241 61.3066 71.9364 59.4965 71.7862C58.4815 70.2961 57.4908 68.7058 56.5369 67.0279C55.6074 65.3875 54.7636 63.7221 53.9931 62.0442C54.7513 60.3663 55.6074 58.6884 56.5247 57.048C57.4786 55.3576 58.457 53.7548 59.4721 52.2647C61.2943 52.1019 63.1411 52.0142 65 52.0142C66.8467 52.0142 68.6934 52.1019 70.5035 52.2521C71.5185 53.7422 72.5092 55.3325 73.4631 57.0104C74.3926 58.6508 75.2364 60.3162 76.0069 61.9941C75.2364 63.672 74.3926 65.35 73.4753 66.9903ZM77.4256 65.3625C78.086 67.0404 78.6486 68.7183 79.1133 70.3462C77.5112 70.7469 75.8235 71.085 74.0746 71.3479C74.6739 70.3837 75.2731 69.3945 75.8357 68.3802C76.3983 67.3785 76.9242 66.3642 77.4256 65.3625ZM65.0245 78.7233C63.8871 77.5212 62.7497 76.1813 61.6245 74.7163C62.7252 74.7664 63.8504 74.8039 64.9878 74.8039C66.1374 74.8039 67.2748 74.7789 68.3877 74.7163C67.287 76.1813 66.1496 77.5212 65.0245 78.7233ZM55.9254 71.3479C54.1887 71.085 52.5132 70.7594 50.9111 70.3587C51.3636 68.7434 51.9262 67.078 52.5622 65.4126C53.0636 66.4143 53.5895 67.4161 54.1643 68.4178C54.7391 69.4196 55.3261 70.3963 55.9254 71.3479ZM64.9633 45.29C66.1007 46.4921 67.2381 47.8319 68.3632 49.297C67.2625 49.2469 66.1374 49.2093 65 49.2093C63.8504 49.2093 62.713 49.2344 61.6001 49.297C62.7008 47.8319 63.8382 46.4921 64.9633 45.29ZM55.9132 52.6654C55.3139 53.6295 54.7146 54.6188 54.1521 55.633C53.5895 56.6348 53.0636 57.6365 52.5622 58.6383C51.9018 56.9603 51.3392 55.2824 50.8744 53.6546C52.4766 53.2664 54.1643 52.9283 55.9132 52.6654ZM44.8451 68.3427C40.5157 66.4519 37.715 63.9726 37.715 62.0066C37.715 60.0407 40.5157 57.5489 44.8451 55.6706C45.8969 55.2073 47.0465 54.7941 48.2328 54.4059C48.9299 56.8602 49.8471 59.4146 50.9845 62.0317C49.8594 64.6362 48.9543 67.1781 48.2695 69.6199C47.0587 69.2317 45.9091 68.806 44.8451 68.3427ZM51.4248 86.2363C49.7615 85.2596 49.04 81.5407 49.6025 76.7573C49.7371 75.5803 49.9572 74.3406 50.2263 73.0759C52.6233 73.677 55.2405 74.1403 57.9923 74.4408C59.6433 76.7573 61.3555 78.861 63.0799 80.7017C59.0929 84.4958 55.3506 86.5744 52.8068 86.5744C52.2564 86.5619 51.7917 86.4492 51.4248 86.2363ZM80.4342 76.6947C81.009 81.478 80.2996 85.197 78.6486 86.1863C78.2817 86.4116 77.8047 86.5118 77.2422 86.5118C74.7106 86.5118 70.956 84.4457 66.969 80.6767C68.6812 78.836 70.3934 76.7448 72.02 74.4283C74.7839 74.1278 77.4011 73.6644 79.7982 73.0509C80.0795 74.3156 80.2996 75.5302 80.4342 76.6947ZM85.1427 68.3427C84.0909 68.806 82.9413 69.2192 81.755 69.6074C81.0579 67.1531 80.1406 64.5987 79.0033 61.9816C80.1284 59.3771 81.0334 56.8351 81.7183 54.3934C82.9291 54.7816 84.0787 55.2073 85.1549 55.6706C89.4843 57.5614 92.285 60.0407 92.285 62.0066C92.2727 63.9726 89.4721 66.4644 85.1427 68.3427Z" fill="#61DAFB"/>
<path d="M64.9878 67.7281C68.0745 67.7281 70.5768 65.1661 70.5768 62.0057C70.5768 58.8452 68.0745 56.2832 64.9878 56.2832C61.901 56.2832 59.3987 58.8452 59.3987 62.0057C59.3987 65.1661 61.901 67.7281 64.9878 67.7281Z" fill="#61DAFB"/>
<path d="M133.21 65.63H140.25L153.285 84H145.475L133.21 65.63ZM125.29 45.5H131.78V84H125.29V45.5ZM129.14 51.11V45.5H137.17C139.957 45.5 142.377 45.995 144.43 46.985C146.52 47.975 148.133 49.3683 149.27 51.165C150.407 52.925 150.975 55.015 150.975 57.435C150.975 59.855 150.407 61.9633 149.27 63.76C148.133 65.5567 146.52 66.95 144.43 67.94C142.377 68.93 139.957 69.425 137.17 69.425H129.14V64.09H136.895C138.362 64.09 139.645 63.8333 140.745 63.32C141.882 62.8067 142.762 62.0733 143.385 61.12C144.008 60.13 144.32 58.9567 144.32 57.6C144.32 56.2067 144.008 55.0333 143.385 54.08C142.762 53.1267 141.882 52.3933 140.745 51.88C139.645 51.3667 138.362 51.11 136.895 51.11H129.14ZM168.505 84.55C165.938 84.55 163.665 84 161.685 82.9C159.742 81.8 158.238 80.26 157.175 78.28C156.112 76.3 155.58 73.99 155.58 71.35C155.58 68.6733 156.112 66.345 157.175 64.365C158.275 62.385 159.815 60.8633 161.795 59.8C163.775 58.7 166.103 58.15 168.78 58.15C171.457 58.15 173.73 58.6633 175.6 59.69C177.47 60.7167 178.9 62.2017 179.89 64.145C180.917 66.0517 181.43 68.3617 181.43 71.075C181.43 71.3683 181.412 71.68 181.375 72.01C181.375 72.34 181.357 72.5783 181.32 72.725H159.1V68.655H176.26L174.445 71.185C174.555 70.965 174.665 70.6717 174.775 70.305C174.922 69.9017 174.995 69.5717 174.995 69.315C174.995 67.9583 174.72 66.785 174.17 65.795C173.657 64.805 172.923 64.035 171.97 63.485C171.053 62.935 169.972 62.66 168.725 62.66C167.222 62.66 165.938 62.99 164.875 63.65C163.812 64.31 163.005 65.2633 162.455 66.51C161.905 67.7567 161.612 69.2967 161.575 71.13C161.575 72.9633 161.85 74.5217 162.4 75.805C162.95 77.0517 163.757 78.005 164.82 78.665C165.92 79.325 167.24 79.655 168.78 79.655C170.393 79.655 171.805 79.325 173.015 78.665C174.225 78.005 175.233 76.9967 176.04 75.64L181.155 77.73C179.835 80.0033 178.13 81.7083 176.04 82.845C173.95 83.9817 171.438 84.55 168.505 84.55ZM190.84 76.135C190.84 76.9783 191.041 77.7117 191.445 78.335C191.848 78.9217 192.398 79.3617 193.095 79.655C193.828 79.9483 194.653 80.095 195.57 80.095C196.743 80.095 197.806 79.8567 198.76 79.38C199.75 78.9033 200.538 78.2067 201.125 77.29C201.748 76.3367 202.06 75.2367 202.06 73.99L202.94 77.29C202.94 78.9033 202.463 80.26 201.51 81.36C200.593 82.4233 199.42 83.23 197.99 83.78C196.596 84.2933 195.166 84.55 193.7 84.55C192.123 84.55 190.656 84.2383 189.3 83.615C187.943 82.9917 186.861 82.075 186.055 80.865C185.248 79.655 184.845 78.1883 184.845 76.465C184.845 74.0083 185.706 72.065 187.43 70.635C189.153 69.1683 191.591 68.435 194.745 68.435C196.431 68.435 197.88 68.6183 199.09 68.985C200.336 69.3517 201.363 69.7917 202.17 70.305C202.976 70.7817 203.545 71.2217 203.875 71.625V74.65C202.738 73.8433 201.528 73.2567 200.245 72.89C198.961 72.5233 197.605 72.34 196.175 72.34C194.928 72.34 193.92 72.505 193.15 72.835C192.38 73.1283 191.793 73.55 191.39 74.1C191.023 74.65 190.84 75.3283 190.84 76.135ZM188.97 65.3L186.55 61.12C187.686 60.4233 189.153 59.745 190.95 59.085C192.783 58.425 194.873 58.095 197.22 58.095C199.31 58.095 201.143 58.4067 202.72 59.03C204.333 59.6533 205.598 60.5517 206.515 61.725C207.431 62.8617 207.89 64.2733 207.89 65.96V84H202.06V67.115C202.06 66.3083 201.913 65.6483 201.62 65.135C201.363 64.6217 200.996 64.2 200.52 63.87C200.043 63.54 199.475 63.3017 198.815 63.155C198.155 63.0083 197.44 62.935 196.67 62.935C195.496 62.935 194.378 63.0817 193.315 63.375C192.288 63.6317 191.39 63.9617 190.62 64.365C189.886 64.7317 189.336 65.0433 188.97 65.3ZM218.775 71.35C218.775 72.9633 219.123 74.375 219.82 75.585C220.516 76.7583 221.451 77.6933 222.625 78.39C223.835 79.0867 225.173 79.435 226.64 79.435C227.85 79.435 229.005 79.2517 230.105 78.885C231.205 78.5183 232.176 78.005 233.02 77.345C233.863 76.685 234.486 75.9517 234.89 75.145V81.69C234.01 82.57 232.818 83.2667 231.315 83.78C229.811 84.2933 228.161 84.55 226.365 84.55C223.761 84.55 221.415 84 219.325 82.9C217.271 81.7633 215.64 80.205 214.43 78.225C213.256 76.2083 212.67 73.9167 212.67 71.35C212.67 68.7467 213.256 66.455 214.43 64.475C215.64 62.495 217.271 60.955 219.325 59.855C221.415 58.7183 223.761 58.15 226.365 58.15C228.161 58.15 229.811 58.4067 231.315 58.92C232.818 59.4333 234.01 60.13 234.89 61.01V67.555C234.486 66.7117 233.845 65.9783 232.965 65.355C232.121 64.695 231.15 64.1817 230.05 63.815C228.95 63.4483 227.813 63.265 226.64 63.265C225.173 63.265 223.835 63.6133 222.625 64.31C221.451 65.0067 220.516 65.96 219.82 67.17C219.123 68.38 218.775 69.7733 218.775 71.35ZM237.935 58.7H252.29V63.925H237.935V58.7ZM242.17 49.9H248.055V84H242.17V49.9Z" fill="white"/>
<path d="M121.4 139.45V134H145.8V139.45H136.55V169H130.6V139.45H121.4ZM148.065 161.85C148.065 162.617 148.248 163.283 148.615 163.85C148.982 164.383 149.482 164.783 150.115 165.05C150.782 165.317 151.532 165.45 152.365 165.45C153.432 165.45 154.398 165.233 155.265 164.8C156.165 164.367 156.882 163.733 157.415 162.9C157.982 162.033 158.265 161.033 158.265 159.9L159.065 162.9C159.065 164.367 158.632 165.6 157.765 166.6C156.932 167.567 155.865 168.3 154.565 168.8C153.298 169.267 151.998 169.5 150.665 169.5C149.232 169.5 147.898 169.217 146.665 168.65C145.432 168.083 144.448 167.25 143.715 166.15C142.982 165.05 142.615 163.717 142.615 162.15C142.615 159.917 143.398 158.15 144.965 156.85C146.532 155.517 148.748 154.85 151.615 154.85C153.148 154.85 154.465 155.017 155.565 155.35C156.698 155.683 157.632 156.083 158.365 156.55C159.098 156.983 159.615 157.383 159.915 157.75V160.5C158.882 159.767 157.782 159.233 156.615 158.9C155.448 158.567 154.215 158.4 152.915 158.4C151.782 158.4 150.865 158.55 150.165 158.85C149.465 159.117 148.932 159.5 148.565 160C148.232 160.5 148.065 161.117 148.065 161.85ZM146.365 152L144.165 148.2C145.198 147.567 146.532 146.95 148.165 146.35C149.832 145.75 151.732 145.45 153.865 145.45C155.765 145.45 157.432 145.733 158.865 146.3C160.332 146.867 161.482 147.683 162.315 148.75C163.148 149.783 163.565 151.067 163.565 152.6V169H158.265V153.65C158.265 152.917 158.132 152.317 157.865 151.85C157.632 151.383 157.298 151 156.865 150.7C156.432 150.4 155.915 150.183 155.315 150.05C154.715 149.917 154.065 149.85 153.365 149.85C152.298 149.85 151.282 149.983 150.315 150.25C149.382 150.483 148.565 150.783 147.865 151.15C147.198 151.483 146.698 151.767 146.365 152ZM169.66 136.85C169.66 135.917 169.993 135.133 170.66 134.5C171.36 133.867 172.16 133.55 173.06 133.55C174.027 133.55 174.827 133.867 175.46 134.5C176.127 135.133 176.46 135.917 176.46 136.85C176.46 137.75 176.127 138.533 175.46 139.2C174.827 139.833 174.027 140.15 173.06 140.15C172.16 140.15 171.36 139.833 170.66 139.2C169.993 138.533 169.66 137.75 169.66 136.85ZM170.41 146H175.71V169H170.41V146ZM183.141 130H188.541V169H183.141V130ZM191.996 146H197.846L203.246 159.7L209.596 144.25L216.346 159.75L221.746 146H227.596L216.846 170.65L209.646 155.1L202.746 170.65L191.996 146ZM230.842 136.85C230.842 135.917 231.175 135.133 231.842 134.5C232.542 133.867 233.342 133.55 234.242 133.55C235.208 133.55 236.008 133.867 236.642 134.5C237.308 135.133 237.642 135.917 237.642 136.85C237.642 137.75 237.308 138.533 236.642 139.2C236.008 139.833 235.208 140.15 234.242 140.15C233.342 140.15 232.542 139.833 231.842 139.2C231.175 138.533 230.842 137.75 230.842 136.85ZM231.592 146H236.892V169H231.592V146ZM259.123 155C259.123 153.3 258.773 152.017 258.073 151.15C257.373 150.283 256.29 149.85 254.823 149.85C253.823 149.85 252.94 150.067 252.173 150.5C251.406 150.9 250.806 151.5 250.373 152.3C249.94 153.067 249.723 153.967 249.723 155V169H244.323V146H249.723V149.55C250.456 148.183 251.39 147.167 252.523 146.5C253.69 145.833 255.073 145.5 256.673 145.5C259.273 145.5 261.256 146.3 262.623 147.9C263.99 149.467 264.673 151.633 264.673 154.4V169H259.123V155ZM288.869 130H294.319V169H288.869V130ZM269.819 157.5C269.819 154.967 270.336 152.817 271.369 151.05C272.402 149.25 273.769 147.883 275.469 146.95C277.202 145.983 279.052 145.5 281.019 145.5C282.952 145.5 284.636 145.983 286.069 146.95C287.536 147.917 288.686 149.3 289.519 151.1C290.386 152.867 290.819 155 290.819 157.5C290.819 159.967 290.386 162.1 289.519 163.9C288.686 165.7 287.536 167.083 286.069 168.05C284.636 169.017 282.952 169.5 281.019 169.5C279.052 169.5 277.202 169.033 275.469 168.1C273.769 167.133 272.402 165.75 271.369 163.95C270.336 162.15 269.819 160 269.819 157.5ZM275.419 157.5C275.419 159.033 275.736 160.35 276.369 161.45C277.002 162.55 277.836 163.383 278.869 163.95C279.936 164.517 281.086 164.8 282.319 164.8C283.352 164.8 284.369 164.517 285.369 163.95C286.402 163.383 287.236 162.567 287.869 161.5C288.536 160.4 288.869 159.067 288.869 157.5C288.869 155.933 288.536 154.617 287.869 153.55C287.236 152.45 286.402 151.617 285.369 151.05C284.369 150.483 283.352 150.2 282.319 150.2C281.086 150.2 279.936 150.483 278.869 151.05C277.836 151.617 277.002 152.45 276.369 153.55C275.736 154.65 275.419 155.967 275.419 157.5Z" fill="white"/>
</svg>
