<svg width="610" height="364" viewBox="0 0 610 364" fill="none" xmlns="http://www.w3.org/2000/svg">
<path d="M578 68.5H590.5L589 118H547.5L578 68.5Z" fill="#868181" stroke="#868181"/>
<path d="M85 68H119L88 119H54.5L85 68Z" fill="#868181"/>
<path d="M137.5 68H171.5L140.5 119H107L137.5 68Z" fill="#868181"/>
<path d="M188.5 68H222.5L191.5 119H158L188.5 68Z" fill="#868181"/>
<path d="M242.5 68H276.5L245.5 119H212L242.5 68Z" fill="#868181"/>
<path d="M67 68H23.5V118.5H37L67 68Z" fill="#868181"/>
<path d="M2 244V335C2.83333 343.167 6.5 358.5 26.5 362H161.5" stroke="#868181" stroke-width="4"/>
<path d="M22.5 320.5V43.5C22.5 32.7 29 26.5 35.5 26.5H577.5C588 28 590.333 37.8333 590.5 41.5V268.5H260C252.5 268.5 247 272 243 277.5L206.5 335.5C204.1 339.9 197.5 341.5 194 341.5H35C25.8 341.5 22.8333 332.5 22.5 328V320.5Z" stroke="#868181" stroke-width="3"/>
<path d="M216.5 320.5H574C583 319 589 314 590.5 306V268" stroke="#868181" stroke-width="3"/>
<path d="M246.5 335.5H375" stroke="#868181"/>
<rect x="398" y="328" width="4" height="13" fill="#868181"/>
<rect x="159" width="4" height="13" fill="#868181"/>
<rect x="413" y="328" width="3" height="13" fill="#868181"/>
<rect x="174" width="3" height="13" fill="#868181"/>
<rect x="417" y="328" width="3" height="13" fill="#868181"/>
<rect x="178" width="3" height="13" fill="#868181"/>
<rect x="421" y="328" width="2" height="13" fill="#868181"/>
<rect x="182" width="2" height="13" fill="#868181"/>
<rect x="424" y="328" width="4" height="13" fill="#868181"/>
<rect x="185" width="4" height="13" fill="#868181"/>
<rect x="429" y="328" width="3" height="13" fill="#868181"/>
<rect x="190" width="3" height="13" fill="#868181"/>
<rect x="434" y="328" width="2" height="13" fill="#868181"/>
<rect x="195" width="2" height="13" fill="#868181"/>
<rect x="437" y="328" width="2" height="13" fill="#868181"/>
<rect x="198" width="2" height="13" fill="#868181"/>
<rect x="440" y="328" width="4" height="13" fill="#868181"/>
<rect x="201" width="4" height="13" fill="#868181"/>
<rect x="446" y="328" width="2" height="13" fill="#868181"/>
<rect x="207" width="2" height="13" fill="#868181"/>
<rect x="450" y="328" width="2" height="13" fill="#868181"/>
<rect x="211" width="2" height="13" fill="#868181"/>
<rect x="464" y="328" width="2" height="13" fill="#868181"/>
<rect x="225" width="2" height="13" fill="#868181"/>
<rect x="468" y="328" width="2" height="13" fill="#868181"/>
<rect x="229" width="2" height="13" fill="#868181"/>
<rect x="472" y="328" width="1" height="13" fill="#868181"/>
<rect x="233" width="1" height="13" fill="#868181"/>
<rect x="475" y="328" width="3" height="13" fill="#868181"/>
<rect x="236" width="3" height="13" fill="#868181"/>
<rect x="481" y="328" width="1" height="13" fill="#868181"/>
<rect x="242" width="1" height="13" fill="#868181"/>
<rect x="484" y="328" width="2" height="13" fill="#868181"/>
<rect x="245" width="2" height="13" fill="#868181"/>
<rect x="488" y="328" width="1" height="13" fill="#868181"/>
<rect x="249" width="1" height="13" fill="#868181"/>
<rect x="491" y="328" width="3" height="13" fill="#868181"/>
<rect x="252" width="3" height="13" fill="#868181"/>
<rect x="497" y="328" width="2" height="13" fill="#868181"/>
<rect x="258" width="2" height="13" fill="#868181"/>
<rect x="501" y="328" width="1" height="13" fill="#868181"/>
<rect x="262" width="1" height="13" fill="#868181"/>
<rect x="454" y="328" width="8" height="13" fill="#868181"/>
<rect x="215" width="8" height="13" fill="#868181"/>
<rect x="403" y="328" width="9" height="13" fill="#868181"/>
<rect x="164" width="9" height="13" fill="#868181"/>
<path d="M285.5 9.5H587.032C596.018 10.4864 607.5 17.3916 607.5 31.6951V191.5" stroke="#868181" stroke-width="4"/>
<rect x="51" y="271" width="2" height="49" fill="#868181"/>
<rect x="57" y="271" width="1" height="49" fill="#868181"/>
<rect x="61" y="271" width="4" height="49" fill="#868181"/>
<rect x="69" y="271" width="1" height="49" fill="#868181"/>
<rect x="73" y="271" width="2" height="49" fill="#868181"/>
<rect x="78" y="271" width="1" height="49" fill="#868181"/>
<rect x="82" y="271" width="5" height="49" fill="#868181"/>
<rect x="90" y="271" width="1" height="49" fill="#868181"/>
<rect x="94" y="271" width="2" height="49" fill="#868181"/>
<rect x="99" y="271" width="2" height="49" fill="#868181"/>
<rect x="105" y="271" width="9" height="49" fill="#868181"/>
<rect x="116" y="271" width="3" height="49" fill="#868181"/>
<rect x="122" y="271" width="2" height="49" fill="#868181"/>
<rect x="127" y="271" width="4" height="49" fill="#868181"/>
<rect x="134" y="271" width="1" height="49" fill="#868181"/>
<rect x="138" y="271" width="2" height="49" fill="#868181"/>
<rect x="143" y="271" width="2" height="49" fill="#868181"/>
<rect x="147" y="271" width="5" height="49" fill="#868181"/>
<rect x="154" y="271" width="3" height="49" fill="#868181"/>
<rect x="159" y="271" width="2" height="49" fill="#868181"/>
<rect x="164" y="271" width="3" height="49" fill="#868181"/>
<rect x="170" y="271" width="9" height="49" fill="#868181"/>
<rect x="182" y="271" width="4" height="49" fill="#868181"/>
<path d="M431.473 76.5602C427.619 75.7892 427.726 72.3843 428.261 70.7782H461.989C467.128 70.7783 470.662 73.6692 471.626 75.2753C475.737 80.1578 474.624 86.9462 473.553 89.7301C471.24 94.8696 464.666 96.5828 461.668 96.7969L478.371 117.034H470.019L458.134 103.221L447.855 90.6938H460.383C465.844 90.6938 468.092 87.8028 468.413 86.1967C470.019 80.0936 465.522 76.8814 463.274 76.5602H431.473Z" fill="#FF0000"/>
<path d="M428.261 115.106V96.7969C432.63 95.769 434.15 97.8676 434.364 99.0454V117.676C430.253 118.19 428.582 116.177 428.261 115.106Z" fill="#FF0000"/>
<path d="M493.79 88.7665C496.616 96.4757 505.889 97.3323 510.172 96.7969V91.015C506.745 91.2291 499.828 90.2441 499.571 84.5906C499.315 78.9372 503.105 77.0955 505.032 76.8814H535.548C538.889 74.3116 538.225 71.5278 537.475 70.457H503.105C491.862 74.3116 491.648 84.9118 493.79 88.7665Z" fill="#FF0000"/>
<path d="M525.59 97.1181C522.506 96.6042 522.164 92.8352 522.378 91.015L529.445 91.3362C531.244 91.8501 533.406 93.2635 534.263 93.9059C540.43 98.2745 539.617 106.433 538.439 109.967C535.612 115.62 531.051 117.248 529.124 117.355H493.468C493.211 112.729 495.074 111.573 496.038 111.573L528.481 111.252C532.85 109.71 533.514 105.47 533.299 103.542C533.042 98.146 528.053 97.011 525.59 97.1181Z" fill="#FF0000"/>
<path d="M383.933 70.457C382.391 70.714 364.446 101.187 355.666 116.391L355.023 117.355H355.666H362.411L386.824 77.5238L404.491 111.573H386.181C384.383 112.087 384.361 115.642 384.575 117.355H414.77L390.036 70.457H383.933Z" fill="#FF0000"/>
<path d="M309.41 102.258L285.319 73.6695V70.7785H290.137L312.944 94.8698C319.796 87.2677 333.887 71.8064 335.429 70.7785C336.971 69.7506 338.855 70.3502 339.605 70.7785V117.355C335.75 118.126 333.93 115.963 333.502 114.785V80.7363C327.934 87.4818 316.477 101.23 315.192 102.258C313.907 103.286 310.802 102.686 309.41 102.258Z" fill="#FF0000"/>
<path d="M284.998 115.106V97.1182C287.825 96.0903 290.673 97.5465 291.743 98.4031V117.034C288.146 117.805 285.747 116.07 284.998 115.106Z" fill="#FF0000"/>
<path d="M42.478 48.378L41.75 55H40.56L41.75 44.71L45.67 51.808L49.59 44.71L50.78 55H49.59L48.862 48.378L45.67 54.09L42.478 48.378ZM53.392 52.06L53.812 50.94H58.152L58.572 52.06H53.392ZM55.954 47.412L54.302 51.304L54.19 51.556L52.734 55H51.404L55.954 44.71L60.504 55H59.174L57.746 51.64L57.634 51.36L55.954 47.412ZM63.4462 50.17H64.7762L68.2762 55H66.8062L63.4462 50.17ZM61.6962 45.2H62.8862V55H61.6962V45.2ZM62.3542 46.25V45.2H64.3562C64.9908 45.2 65.5555 45.3213 66.0502 45.564C66.5542 45.7973 66.9508 46.1333 67.2402 46.572C67.5388 47.0107 67.6882 47.5333 67.6882 48.14C67.6882 48.7373 67.5388 49.26 67.2402 49.708C66.9508 50.1467 66.5542 50.4873 66.0502 50.73C65.5555 50.9633 64.9908 51.08 64.3562 51.08H62.3542V50.03H64.3562C64.7762 50.03 65.1448 49.9553 65.4622 49.806C65.7888 49.6567 66.0408 49.442 66.2182 49.162C66.4048 48.882 66.4982 48.5413 66.4982 48.14C66.4982 47.7387 66.4048 47.398 66.2182 47.118C66.0408 46.838 65.7888 46.6233 65.4622 46.474C65.1448 46.3247 64.7762 46.25 64.3562 46.25H62.3542ZM69.8942 52.032C70.1182 52.424 70.3515 52.7693 70.5942 53.068C70.8462 53.3667 71.1262 53.6 71.4342 53.768C71.7422 53.936 72.0922 54.02 72.4842 54.02C73.0068 54.02 73.4268 53.8753 73.7442 53.586C74.0615 53.2967 74.2202 52.928 74.2202 52.48C74.2202 52.0413 74.1175 51.6913 73.9122 51.43C73.7068 51.1687 73.4362 50.9587 73.1002 50.8C72.7735 50.632 72.4235 50.4827 72.0502 50.352C71.8075 50.268 71.5368 50.1607 71.2382 50.03C70.9395 49.89 70.6548 49.7173 70.3842 49.512C70.1135 49.2973 69.8895 49.036 69.7122 48.728C69.5442 48.42 69.4602 48.042 69.4602 47.594C69.4602 47.1087 69.5815 46.6747 69.8242 46.292C70.0668 45.9093 70.4028 45.6107 70.8322 45.396C71.2615 45.172 71.7515 45.06 72.3022 45.06C72.8342 45.06 73.2962 45.1627 73.6882 45.368C74.0895 45.564 74.4302 45.8207 74.7102 46.138C74.9902 46.446 75.2095 46.7727 75.3682 47.118L74.3462 47.706C74.2248 47.4633 74.0708 47.2253 73.8842 46.992C73.6975 46.7587 73.4688 46.5673 73.1982 46.418C72.9368 46.2687 72.6148 46.194 72.2322 46.194C71.7002 46.194 71.3128 46.3247 71.0702 46.586C70.8275 46.838 70.7062 47.1227 70.7062 47.44C70.7062 47.7107 70.7762 47.9627 70.9162 48.196C71.0562 48.42 71.2895 48.6347 71.6162 48.84C71.9522 49.036 72.4048 49.232 72.9742 49.428C73.2355 49.5213 73.5108 49.6427 73.8002 49.792C74.0895 49.9413 74.3555 50.1327 74.5982 50.366C74.8502 50.59 75.0555 50.8653 75.2142 51.192C75.3728 51.5093 75.4522 51.892 75.4522 52.34C75.4522 52.7693 75.3682 53.1567 75.2002 53.502C75.0415 53.8473 74.8175 54.1413 74.5282 54.384C74.2482 54.6267 73.9262 54.8133 73.5622 54.944C73.2075 55.0747 72.8342 55.14 72.4422 55.14C71.9102 55.14 71.4155 55.028 70.9582 54.804C70.5102 54.5707 70.1135 54.2673 69.7682 53.894C69.4322 53.5113 69.1568 53.1053 68.9422 52.676L69.8942 52.032ZM81.3973 45.2H82.5873V55H81.3973V45.2ZM84.3373 55H82.0553V53.81H84.3373C84.888 53.81 85.392 53.726 85.8493 53.558C86.3067 53.3807 86.6987 53.1333 87.0253 52.816C87.352 52.4893 87.604 52.0973 87.7813 51.64C87.9587 51.1827 88.0473 50.6693 88.0473 50.1C88.0473 49.5307 87.9587 49.0173 87.7813 48.56C87.604 48.1027 87.352 47.7153 87.0253 47.398C86.6987 47.0713 86.3067 46.824 85.8493 46.656C85.392 46.4787 84.888 46.39 84.3373 46.39H82.0553V45.2H84.3373C85.2893 45.2 86.134 45.4053 86.8713 45.816C87.6087 46.2267 88.1873 46.8007 88.6073 47.538C89.0273 48.266 89.2373 49.12 89.2373 50.1C89.2373 51.08 89.0273 51.9387 88.6073 52.676C88.1873 53.404 87.6087 53.9733 86.8713 54.384C86.134 54.7947 85.2893 55 84.3373 55ZM91.571 55V53.88H96.513V55H91.571ZM91.571 46.32V45.2H96.513V46.32H91.571ZM91.571 50.24V49.12H96.233V50.24H91.571ZM90.913 45.2H92.103V55H90.913V45.2ZM98.9742 52.032C99.1982 52.424 99.4316 52.7693 99.6742 53.068C99.9262 53.3667 100.206 53.6 100.514 53.768C100.822 53.936 101.172 54.02 101.564 54.02C102.087 54.02 102.507 53.8753 102.824 53.586C103.142 53.2967 103.3 52.928 103.3 52.48C103.3 52.0413 103.198 51.6913 102.992 51.43C102.787 51.1687 102.516 50.9587 102.18 50.8C101.854 50.632 101.504 50.4827 101.13 50.352C100.888 50.268 100.617 50.1607 100.318 50.03C100.02 49.89 99.7349 49.7173 99.4642 49.512C99.1936 49.2973 98.9696 49.036 98.7922 48.728C98.6242 48.42 98.5402 48.042 98.5402 47.594C98.5402 47.1087 98.6616 46.6747 98.9042 46.292C99.1469 45.9093 99.4829 45.6107 99.9122 45.396C100.342 45.172 100.832 45.06 101.382 45.06C101.914 45.06 102.376 45.1627 102.768 45.368C103.17 45.564 103.51 45.8207 103.79 46.138C104.07 46.446 104.29 46.7727 104.448 47.118L103.426 47.706C103.305 47.4633 103.151 47.2253 102.964 46.992C102.778 46.7587 102.549 46.5673 102.278 46.418C102.017 46.2687 101.695 46.194 101.312 46.194C100.78 46.194 100.393 46.3247 100.15 46.586C99.9076 46.838 99.7862 47.1227 99.7862 47.44C99.7862 47.7107 99.8562 47.9627 99.9962 48.196C100.136 48.42 100.37 48.6347 100.696 48.84C101.032 49.036 101.485 49.232 102.054 49.428C102.316 49.5213 102.591 49.6427 102.88 49.792C103.17 49.9413 103.436 50.1327 103.678 50.366C103.93 50.59 104.136 50.8653 104.294 51.192C104.453 51.5093 104.532 51.892 104.532 52.34C104.532 52.7693 104.448 53.1567 104.28 53.502C104.122 53.8473 103.898 54.1413 103.608 54.384C103.328 54.6267 103.006 54.8133 102.642 54.944C102.288 55.0747 101.914 55.14 101.522 55.14C100.99 55.14 100.496 55.028 100.038 54.804C99.5902 54.5707 99.1936 54.2673 98.8482 53.894C98.5122 53.5113 98.2369 53.1053 98.0222 52.676L98.9742 52.032ZM106.28 45.2H107.47V55H106.28V45.2ZM114.262 51.15V50.03H118.812C118.812 50.7113 118.709 51.36 118.504 51.976C118.298 52.5827 117.995 53.124 117.594 53.6C117.192 54.076 116.698 54.454 116.11 54.734C115.531 55.0047 114.868 55.14 114.122 55.14C113.412 55.14 112.754 55.0187 112.148 54.776C111.541 54.524 111.014 54.174 110.566 53.726C110.118 53.2687 109.768 52.732 109.516 52.116C109.273 51.5 109.152 50.828 109.152 50.1C109.152 49.372 109.273 48.7 109.516 48.084C109.768 47.468 110.118 46.936 110.566 46.488C111.014 46.0307 111.541 45.6807 112.148 45.438C112.754 45.186 113.412 45.06 114.122 45.06C114.728 45.06 115.284 45.1393 115.788 45.298C116.301 45.4567 116.758 45.69 117.16 45.998C117.57 46.306 117.916 46.6887 118.196 47.146L117.356 47.916C117.048 47.3933 116.618 46.9873 116.068 46.698C115.517 46.3993 114.868 46.25 114.122 46.25C113.431 46.25 112.806 46.4133 112.246 46.74C111.686 47.0667 111.238 47.5193 110.902 48.098C110.575 48.6673 110.412 49.3347 110.412 50.1C110.412 50.856 110.575 51.5233 110.902 52.102C111.238 52.6807 111.686 53.1333 112.246 53.46C112.806 53.7867 113.431 53.95 114.122 53.95C114.607 53.95 115.041 53.88 115.424 53.74C115.816 53.5907 116.152 53.3853 116.432 53.124C116.712 52.8627 116.94 52.564 117.118 52.228C117.304 51.892 117.44 51.5327 117.524 51.15H114.262ZM127.987 45.2H129.177V55.49L121.757 47.706V55H120.567V44.71L127.987 52.494V45.2ZM135.984 52.032C136.208 52.424 136.441 52.7693 136.684 53.068C136.936 53.3667 137.216 53.6 137.524 53.768C137.832 53.936 138.182 54.02 138.574 54.02C139.097 54.02 139.517 53.8753 139.834 53.586C140.151 53.2967 140.31 52.928 140.31 52.48C140.31 52.0413 140.207 51.6913 140.002 51.43C139.797 51.1687 139.526 50.9587 139.19 50.8C138.863 50.632 138.513 50.4827 138.14 50.352C137.897 50.268 137.627 50.1607 137.328 50.03C137.029 49.89 136.745 49.7173 136.474 49.512C136.203 49.2973 135.979 49.036 135.802 48.728C135.634 48.42 135.55 48.042 135.55 47.594C135.55 47.1087 135.671 46.6747 135.914 46.292C136.157 45.9093 136.493 45.6107 136.922 45.396C137.351 45.172 137.841 45.06 138.392 45.06C138.924 45.06 139.386 45.1627 139.778 45.368C140.179 45.564 140.52 45.8207 140.8 46.138C141.08 46.446 141.299 46.7727 141.458 47.118L140.436 47.706C140.315 47.4633 140.161 47.2253 139.974 46.992C139.787 46.7587 139.559 46.5673 139.288 46.418C139.027 46.2687 138.705 46.194 138.322 46.194C137.79 46.194 137.403 46.3247 137.16 46.586C136.917 46.838 136.796 47.1227 136.796 47.44C136.796 47.7107 136.866 47.9627 137.006 48.196C137.146 48.42 137.379 48.6347 137.706 48.84C138.042 49.036 138.495 49.232 139.064 49.428C139.325 49.5213 139.601 49.6427 139.89 49.792C140.179 49.9413 140.445 50.1327 140.688 50.366C140.94 50.59 141.145 50.8653 141.304 51.192C141.463 51.5093 141.542 51.892 141.542 52.34C141.542 52.7693 141.458 53.1567 141.29 53.502C141.131 53.8473 140.907 54.1413 140.618 54.384C140.338 54.6267 140.016 54.8133 139.652 54.944C139.297 55.0747 138.924 55.14 138.532 55.14C138 55.14 137.505 55.028 137.048 54.804C136.6 54.5707 136.203 54.2673 135.858 53.894C135.522 53.5113 135.247 53.1053 135.032 52.676L135.984 52.032ZM142.31 46.32V45.2H148.54V46.32H146.02V55H144.83V46.32H142.31ZM149.728 45.2H150.918V51.78C150.918 52.452 151.1 52.9933 151.464 53.404C151.828 53.8147 152.36 54.02 153.06 54.02C153.76 54.02 154.292 53.8147 154.656 53.404C155.02 52.9933 155.202 52.452 155.202 51.78V45.2H156.392V51.78C156.392 52.2653 156.312 52.7133 156.154 53.124C156.004 53.5347 155.78 53.8893 155.482 54.188C155.192 54.4867 154.842 54.72 154.432 54.888C154.021 55.056 153.564 55.14 153.06 55.14C152.556 55.14 152.098 55.056 151.688 54.888C151.277 54.72 150.922 54.4867 150.624 54.188C150.334 53.8893 150.11 53.5347 149.952 53.124C149.802 52.7133 149.728 52.2653 149.728 51.78V45.2ZM158.561 45.2H159.751V55H158.561V45.2ZM161.501 55H159.219V53.81H161.501C162.052 53.81 162.556 53.726 163.013 53.558C163.471 53.3807 163.863 53.1333 164.189 52.816C164.516 52.4893 164.768 52.0973 164.945 51.64C165.123 51.1827 165.211 50.6693 165.211 50.1C165.211 49.5307 165.123 49.0173 164.945 48.56C164.768 48.1027 164.516 47.7153 164.189 47.398C163.863 47.0713 163.471 46.824 163.013 46.656C162.556 46.4787 162.052 46.39 161.501 46.39H159.219V45.2H161.501C162.453 45.2 163.298 45.4053 164.035 45.816C164.773 46.2267 165.351 46.8007 165.771 47.538C166.191 48.266 166.401 49.12 166.401 50.1C166.401 51.08 166.191 51.9387 165.771 52.676C165.351 53.404 164.773 53.9733 164.035 54.384C163.298 54.7947 162.453 55 161.501 55ZM168.077 45.2H169.267V55H168.077V45.2ZM172.209 50.1C172.209 50.8373 172.367 51.4953 172.685 52.074C173.011 52.6527 173.455 53.11 174.015 53.446C174.575 53.782 175.209 53.95 175.919 53.95C176.637 53.95 177.272 53.782 177.823 53.446C178.383 53.11 178.821 52.6527 179.139 52.074C179.465 51.4953 179.629 50.8373 179.629 50.1C179.629 49.3627 179.465 48.7047 179.139 48.126C178.821 47.5473 178.383 47.09 177.823 46.754C177.272 46.418 176.637 46.25 175.919 46.25C175.209 46.25 174.575 46.418 174.015 46.754C173.455 47.09 173.011 47.5473 172.685 48.126C172.367 48.7047 172.209 49.3627 172.209 50.1ZM170.949 50.1C170.949 49.3813 171.07 48.7187 171.313 48.112C171.565 47.496 171.915 46.964 172.363 46.516C172.811 46.0587 173.338 45.704 173.945 45.452C174.551 45.1907 175.209 45.06 175.919 45.06C176.637 45.06 177.295 45.1907 177.893 45.452C178.499 45.704 179.027 46.0587 179.475 46.516C179.923 46.964 180.268 47.496 180.511 48.112C180.763 48.7187 180.889 49.3813 180.889 50.1C180.889 50.8093 180.763 51.472 180.511 52.088C180.268 52.704 179.923 53.2407 179.475 53.698C179.027 54.146 178.499 54.5007 177.893 54.762C177.295 55.014 176.637 55.14 175.919 55.14C175.209 55.14 174.551 55.014 173.945 54.762C173.338 54.5007 172.811 54.146 172.363 53.698C171.915 53.2407 171.565 52.704 171.313 52.088C171.07 51.472 170.949 50.8093 170.949 50.1Z" fill="white"/>
<path d="M498.8 296H499.65V303H498.8V296ZM500.9 303H499.27V302.15H500.9C501.293 302.15 501.653 302.09 501.98 301.97C502.307 301.843 502.587 301.667 502.82 301.44C503.053 301.207 503.233 300.927 503.36 300.6C503.487 300.273 503.55 299.907 503.55 299.5C503.55 299.093 503.487 298.727 503.36 298.4C503.233 298.073 503.053 297.797 502.82 297.57C502.587 297.337 502.307 297.16 501.98 297.04C501.653 296.913 501.293 296.85 500.9 296.85H499.27V296H500.9C501.58 296 502.183 296.147 502.71 296.44C503.237 296.733 503.65 297.143 503.95 297.67C504.25 298.19 504.4 298.8 504.4 299.5C504.4 300.2 504.25 300.813 503.95 301.34C503.65 301.86 503.237 302.267 502.71 302.56C502.183 302.853 501.58 303 500.9 303ZM505.597 296H506.447V303H505.597V296ZM511.298 300.25V299.45H514.548C514.548 299.937 514.475 300.4 514.328 300.84C514.181 301.273 513.965 301.66 513.678 302C513.391 302.34 513.038 302.61 512.618 302.81C512.205 303.003 511.731 303.1 511.198 303.1C510.691 303.1 510.221 303.013 509.788 302.84C509.355 302.66 508.978 302.41 508.658 302.09C508.338 301.763 508.088 301.38 507.908 300.94C507.735 300.5 507.648 300.02 507.648 299.5C507.648 298.98 507.735 298.5 507.908 298.06C508.088 297.62 508.338 297.24 508.658 296.92C508.978 296.593 509.355 296.343 509.788 296.17C510.221 295.99 510.691 295.9 511.198 295.9C511.631 295.9 512.028 295.957 512.388 296.07C512.755 296.183 513.081 296.35 513.368 296.57C513.661 296.79 513.908 297.063 514.108 297.39L513.508 297.94C513.288 297.567 512.981 297.277 512.588 297.07C512.195 296.857 511.731 296.75 511.198 296.75C510.705 296.75 510.258 296.867 509.858 297.1C509.458 297.333 509.138 297.657 508.898 298.07C508.665 298.477 508.548 298.953 508.548 299.5C508.548 300.04 508.665 300.517 508.898 300.93C509.138 301.343 509.458 301.667 509.858 301.9C510.258 302.133 510.705 302.25 511.198 302.25C511.545 302.25 511.855 302.2 512.128 302.1C512.408 301.993 512.648 301.847 512.848 301.66C513.048 301.473 513.211 301.26 513.338 301.02C513.471 300.78 513.568 300.523 513.628 300.25H511.298ZM515.802 296H516.652V303H515.802V296ZM517.553 296.8V296H522.003V296.8H520.203V303H519.353V296.8H517.553ZM522.575 300.9L522.875 300.1H525.975L526.275 300.9H522.575ZM524.405 297.58L523.225 300.36L523.145 300.54L522.105 303H521.155L524.405 295.65L527.655 303H526.705L525.685 300.6L525.605 300.4L524.405 297.58ZM528.507 296H529.357V302.2H532.107V303H528.507V296ZM536.267 300.88C536.427 301.16 536.594 301.407 536.767 301.62C536.947 301.833 537.147 302 537.367 302.12C537.587 302.24 537.837 302.3 538.117 302.3C538.49 302.3 538.79 302.197 539.017 301.99C539.244 301.783 539.357 301.52 539.357 301.2C539.357 300.887 539.284 300.637 539.137 300.45C538.99 300.263 538.797 300.113 538.557 300C538.324 299.88 538.074 299.773 537.807 299.68C537.634 299.62 537.44 299.543 537.227 299.45C537.014 299.35 536.81 299.227 536.617 299.08C536.424 298.927 536.264 298.74 536.137 298.52C536.017 298.3 535.957 298.03 535.957 297.71C535.957 297.363 536.044 297.053 536.217 296.78C536.39 296.507 536.63 296.293 536.937 296.14C537.244 295.98 537.594 295.9 537.987 295.9C538.367 295.9 538.697 295.973 538.977 296.12C539.264 296.26 539.507 296.443 539.707 296.67C539.907 296.89 540.064 297.123 540.177 297.37L539.447 297.79C539.36 297.617 539.25 297.447 539.117 297.28C538.984 297.113 538.82 296.977 538.627 296.87C538.44 296.763 538.21 296.71 537.937 296.71C537.557 296.71 537.28 296.803 537.107 296.99C536.934 297.17 536.847 297.373 536.847 297.6C536.847 297.793 536.897 297.973 536.997 298.14C537.097 298.3 537.264 298.453 537.497 298.6C537.737 298.74 538.06 298.88 538.467 299.02C538.654 299.087 538.85 299.173 539.057 299.28C539.264 299.387 539.454 299.523 539.627 299.69C539.807 299.85 539.954 300.047 540.067 300.28C540.18 300.507 540.237 300.78 540.237 301.1C540.237 301.407 540.177 301.683 540.057 301.93C539.944 302.177 539.784 302.387 539.577 302.56C539.377 302.733 539.147 302.867 538.887 302.96C538.634 303.053 538.367 303.1 538.087 303.1C537.707 303.1 537.354 303.02 537.027 302.86C536.707 302.693 536.424 302.477 536.177 302.21C535.937 301.937 535.74 301.647 535.587 301.34L536.267 300.88ZM540.786 296.8V296H545.236V296.8H543.436V303H542.586V296.8H540.786ZM546.084 296H546.934V300.7C546.934 301.18 547.064 301.567 547.324 301.86C547.584 302.153 547.964 302.3 548.464 302.3C548.964 302.3 549.344 302.153 549.604 301.86C549.864 301.567 549.994 301.18 549.994 300.7V296H550.844V300.7C550.844 301.047 550.787 301.367 550.674 301.66C550.567 301.953 550.407 302.207 550.194 302.42C549.987 302.633 549.737 302.8 549.444 302.92C549.151 303.04 548.824 303.1 548.464 303.1C548.104 303.1 547.777 303.04 547.484 302.92C547.191 302.8 546.937 302.633 546.724 302.42C546.517 302.207 546.357 301.953 546.244 301.66C546.137 301.367 546.084 301.047 546.084 300.7V296ZM552.394 296H553.244V303H552.394V296ZM554.494 303H552.864V302.15H554.494C554.887 302.15 555.247 302.09 555.574 301.97C555.9 301.843 556.18 301.667 556.414 301.44C556.647 301.207 556.827 300.927 556.954 300.6C557.08 300.273 557.144 299.907 557.144 299.5C557.144 299.093 557.08 298.727 556.954 298.4C556.827 298.073 556.647 297.797 556.414 297.57C556.18 297.337 555.9 297.16 555.574 297.04C555.247 296.913 554.887 296.85 554.494 296.85H552.864V296H554.494C555.174 296 555.777 296.147 556.304 296.44C556.83 296.733 557.244 297.143 557.544 297.67C557.844 298.19 557.994 298.8 557.994 299.5C557.994 300.2 557.844 300.813 557.544 301.34C557.244 301.86 556.83 302.267 556.304 302.56C555.777 302.853 555.174 303 554.494 303ZM559.191 296H560.041V303H559.191V296ZM562.142 299.5C562.142 300.027 562.255 300.497 562.482 300.91C562.715 301.323 563.032 301.65 563.432 301.89C563.832 302.13 564.285 302.25 564.792 302.25C565.305 302.25 565.758 302.13 566.152 301.89C566.552 301.65 566.865 301.323 567.092 300.91C567.325 300.497 567.442 300.027 567.442 299.5C567.442 298.973 567.325 298.503 567.092 298.09C566.865 297.677 566.552 297.35 566.152 297.11C565.758 296.87 565.305 296.75 564.792 296.75C564.285 296.75 563.832 296.87 563.432 297.11C563.032 297.35 562.715 297.677 562.482 298.09C562.255 298.503 562.142 298.973 562.142 299.5ZM561.242 299.5C561.242 298.987 561.328 298.513 561.502 298.08C561.682 297.64 561.932 297.26 562.252 296.94C562.572 296.613 562.948 296.36 563.382 296.18C563.815 295.993 564.285 295.9 564.792 295.9C565.305 295.9 565.775 295.993 566.202 296.18C566.635 296.36 567.012 296.613 567.332 296.94C567.652 297.26 567.898 297.64 568.072 298.08C568.252 298.513 568.342 298.987 568.342 299.5C568.342 300.007 568.252 300.48 568.072 300.92C567.898 301.36 567.652 301.743 567.332 302.07C567.012 302.39 566.635 302.643 566.202 302.83C565.775 303.01 565.305 303.1 564.792 303.1C564.285 303.1 563.815 303.01 563.382 302.83C562.948 302.643 562.572 302.39 562.252 302.07C561.932 301.743 561.682 301.36 561.502 300.92C561.328 300.48 561.242 300.007 561.242 299.5Z" fill="white"/>
<path d="M195.889 52.66V52.1H198.08V52.66H195.889ZM195.889 54.62V54.06H198.01V54.62H195.889ZM195.56 52.1H196.155V57H195.56V52.1ZM199.025 52.1H199.62V55.39C199.62 55.726 199.711 55.9967 199.893 56.202C200.075 56.4073 200.341 56.51 200.691 56.51C201.041 56.51 201.307 56.4073 201.489 56.202C201.671 55.9967 201.762 55.726 201.762 55.39V52.1H202.357V55.39C202.357 55.6327 202.317 55.8567 202.238 56.062C202.163 56.2673 202.051 56.4447 201.902 56.594C201.757 56.7433 201.582 56.86 201.377 56.944C201.172 57.028 200.943 57.07 200.691 57.07C200.439 57.07 200.21 57.028 200.005 56.944C199.8 56.86 199.622 56.7433 199.473 56.594C199.328 56.4447 199.216 56.2673 199.137 56.062C199.062 55.8567 199.025 55.6327 199.025 55.39V52.1ZM203.442 52.1H204.037V56.44H205.962V57H203.442V52.1ZM206.593 52.1H207.188V56.44H209.113V57H206.593V52.1ZM212.193 54.55C212.193 54.928 212.277 55.2617 212.445 55.551C212.618 55.8403 212.842 56.0667 213.117 56.23C213.393 56.3933 213.691 56.475 214.013 56.475C214.247 56.475 214.459 56.4447 214.65 56.384C214.846 56.3233 215.024 56.2393 215.182 56.132C215.341 56.02 215.476 55.8917 215.588 55.747V56.531C215.383 56.713 215.159 56.8483 214.916 56.937C214.674 57.0257 214.373 57.07 214.013 57.07C213.673 57.07 213.353 57.0093 213.054 56.888C212.76 56.762 212.501 56.587 212.277 56.363C212.053 56.1343 211.878 55.866 211.752 55.558C211.626 55.25 211.563 54.914 211.563 54.55C211.563 54.186 211.626 53.85 211.752 53.542C211.878 53.234 212.053 52.968 212.277 52.744C212.501 52.5153 212.76 52.3403 213.054 52.219C213.353 52.093 213.673 52.03 214.013 52.03C214.373 52.03 214.674 52.0743 214.916 52.163C215.159 52.2517 215.383 52.387 215.588 52.569V53.353C215.476 53.2083 215.341 53.0823 215.182 52.975C215.024 52.863 214.846 52.7767 214.65 52.716C214.459 52.6553 214.247 52.625 214.013 52.625C213.691 52.625 213.393 52.7067 213.117 52.87C212.842 53.0333 212.618 53.2597 212.445 53.549C212.277 53.8337 212.193 54.1673 212.193 54.55ZM219.09 52.1H219.755L218.124 54.886V57H217.529V54.893L215.898 52.1H216.563L217.823 54.368L219.09 52.1ZM220.348 54.55C220.348 54.928 220.432 55.2617 220.6 55.551C220.773 55.8403 220.997 56.0667 221.272 56.23C221.548 56.3933 221.846 56.475 222.168 56.475C222.402 56.475 222.614 56.4447 222.805 56.384C223.001 56.3233 223.179 56.2393 223.337 56.132C223.496 56.02 223.631 55.8917 223.743 55.747V56.531C223.538 56.713 223.314 56.8483 223.071 56.937C222.829 57.0257 222.528 57.07 222.168 57.07C221.828 57.07 221.508 57.0093 221.209 56.888C220.915 56.762 220.656 56.587 220.432 56.363C220.208 56.1343 220.033 55.866 219.907 55.558C219.781 55.25 219.718 54.914 219.718 54.55C219.718 54.186 219.781 53.85 219.907 53.542C220.033 53.234 220.208 52.968 220.432 52.744C220.656 52.5153 220.915 52.3403 221.209 52.219C221.508 52.093 221.828 52.03 222.168 52.03C222.528 52.03 222.829 52.0743 223.071 52.163C223.314 52.2517 223.538 52.387 223.743 52.569V53.353C223.631 53.2083 223.496 53.0823 223.337 52.975C223.179 52.863 223.001 52.7767 222.805 52.716C222.614 52.6553 222.402 52.625 222.168 52.625C221.846 52.625 221.548 52.7067 221.272 52.87C220.997 53.0333 220.773 53.2597 220.6 53.549C220.432 53.8337 220.348 54.1673 220.348 54.55ZM224.79 52.1H225.385V56.44H227.31V57H224.79V52.1ZM228.271 57V56.44H230.742V57H228.271ZM228.271 52.66V52.1H230.742V52.66H228.271ZM228.271 54.62V54.06H230.602V54.62H228.271ZM227.942 52.1H228.537V57H227.942V52.1ZM233.889 52.1H234.484V57H233.889V52.1ZM235.359 57H234.218V56.405H235.359C235.634 56.405 235.886 56.363 236.115 56.279C236.344 56.1903 236.54 56.0667 236.703 55.908C236.866 55.7447 236.992 55.5487 237.081 55.32C237.17 55.0913 237.214 54.8347 237.214 54.55C237.214 54.2653 237.17 54.0087 237.081 53.78C236.992 53.5513 236.866 53.3577 236.703 53.199C236.54 53.0357 236.344 52.912 236.115 52.828C235.886 52.7393 235.634 52.695 235.359 52.695H234.218V52.1H235.359C235.835 52.1 236.257 52.2027 236.626 52.408C236.995 52.6133 237.284 52.9003 237.494 53.269C237.704 53.633 237.809 54.06 237.809 54.55C237.809 55.04 237.704 55.4693 237.494 55.838C237.284 56.202 236.995 56.4867 236.626 56.692C236.257 56.8973 235.835 57 235.359 57ZM238.976 57V56.44H241.447V57H238.976ZM238.976 52.66V52.1H241.447V52.66H238.976ZM238.976 54.62V54.06H241.307V54.62H238.976ZM238.647 52.1H239.242V57H238.647V52.1ZM244.246 55.894L245.856 52.1H246.521L244.246 57.245L241.971 52.1H242.636L244.246 55.894ZM247.446 57V56.44H249.917V57H247.446ZM247.446 52.66V52.1H249.917V52.66H247.446ZM247.446 54.62V54.06H249.777V54.62H247.446ZM247.117 52.1H247.712V57H247.117V52.1ZM250.965 52.1H251.56V56.44H253.485V57H250.965V52.1ZM254.255 54.55C254.255 54.9187 254.334 55.2477 254.493 55.537C254.656 55.8263 254.878 56.055 255.158 56.223C255.438 56.391 255.755 56.475 256.11 56.475C256.469 56.475 256.786 56.391 257.062 56.223C257.342 56.055 257.561 55.8263 257.72 55.537C257.883 55.2477 257.965 54.9187 257.965 54.55C257.965 54.1813 257.883 53.8523 257.72 53.563C257.561 53.2737 257.342 53.045 257.062 52.877C256.786 52.709 256.469 52.625 256.11 52.625C255.755 52.625 255.438 52.709 255.158 52.877C254.878 53.045 254.656 53.2737 254.493 53.563C254.334 53.8523 254.255 54.1813 254.255 54.55ZM253.625 54.55C253.625 54.1907 253.685 53.8593 253.807 53.556C253.933 53.248 254.108 52.982 254.332 52.758C254.556 52.5293 254.819 52.352 255.123 52.226C255.426 52.0953 255.755 52.03 256.11 52.03C256.469 52.03 256.798 52.0953 257.097 52.226C257.4 52.352 257.664 52.5293 257.888 52.758C258.112 52.982 258.284 53.248 258.406 53.556C258.532 53.8593 258.595 54.1907 258.595 54.55C258.595 54.9047 258.532 55.236 258.406 55.544C258.284 55.852 258.112 56.1203 257.888 56.349C257.664 56.573 257.4 56.7503 257.097 56.881C256.798 57.007 256.469 57.07 256.11 57.07C255.755 57.07 255.426 57.007 255.123 56.881C254.819 56.7503 254.556 56.573 254.332 56.349C254.108 56.1203 253.933 55.852 253.807 55.544C253.685 55.236 253.625 54.9047 253.625 54.55ZM259.435 52.1H260.03V57H259.435V52.1ZM259.764 52.66V52.1H260.765C261.082 52.1 261.365 52.1607 261.612 52.282C261.864 52.3987 262.062 52.5667 262.207 52.786C262.356 53.0053 262.431 53.2667 262.431 53.57C262.431 53.8687 262.356 54.13 262.207 54.354C262.062 54.5733 261.864 54.7437 261.612 54.865C261.365 54.9817 261.082 55.04 260.765 55.04H259.764V54.48H260.765C261.082 54.48 261.339 54.403 261.535 54.249C261.736 54.095 261.836 53.8687 261.836 53.57C261.836 53.2667 261.736 53.0403 261.535 52.891C261.339 52.737 261.082 52.66 260.765 52.66H259.764ZM263.949 53.689L263.585 57H262.99L263.585 51.855L265.545 55.404L267.505 51.855L268.1 57H267.505L267.141 53.689L265.545 56.545L263.949 53.689ZM269.266 57V56.44H271.737V57H269.266ZM269.266 52.66V52.1H271.737V52.66H269.266ZM269.266 54.62V54.06H271.597V54.62H269.266ZM268.937 52.1H269.532V57H268.937V52.1ZM276.496 52.1H277.091V57.245L273.381 53.353V57H272.786V51.855L276.496 55.747V52.1ZM277.723 52.66V52.1H280.838V52.66H279.578V57H278.983V52.66H277.723ZM283.748 55.516C283.86 55.712 283.977 55.8847 284.098 56.034C284.224 56.1833 284.364 56.3 284.518 56.384C284.672 56.468 284.847 56.51 285.043 56.51C285.304 56.51 285.514 56.4377 285.673 56.293C285.832 56.1483 285.911 55.964 285.911 55.74C285.911 55.5207 285.86 55.3457 285.757 55.215C285.654 55.0843 285.519 54.9793 285.351 54.9C285.188 54.816 285.013 54.7413 284.826 54.676C284.705 54.634 284.569 54.5803 284.42 54.515C284.271 54.445 284.128 54.3587 283.993 54.256C283.858 54.1487 283.746 54.018 283.657 53.864C283.573 53.71 283.531 53.521 283.531 53.297C283.531 53.0543 283.592 52.8373 283.713 52.646C283.834 52.4547 284.002 52.3053 284.217 52.198C284.432 52.086 284.677 52.03 284.952 52.03C285.218 52.03 285.449 52.0813 285.645 52.184C285.846 52.282 286.016 52.4103 286.156 52.569C286.296 52.723 286.406 52.8863 286.485 53.059L285.974 53.353C285.913 53.2317 285.836 53.1127 285.743 52.996C285.65 52.8793 285.535 52.7837 285.4 52.709C285.269 52.6343 285.108 52.597 284.917 52.597C284.651 52.597 284.457 52.6623 284.336 52.793C284.215 52.919 284.154 53.0613 284.154 53.22C284.154 53.3553 284.189 53.4813 284.259 53.598C284.329 53.71 284.446 53.8173 284.609 53.92C284.777 54.018 285.003 54.116 285.288 54.214C285.419 54.2607 285.556 54.3213 285.701 54.396C285.846 54.4707 285.979 54.5663 286.1 54.683C286.226 54.795 286.329 54.9327 286.408 55.096C286.487 55.2547 286.527 55.446 286.527 55.67C286.527 55.8847 286.485 56.0783 286.401 56.251C286.322 56.4237 286.21 56.5707 286.065 56.692C285.925 56.8133 285.764 56.9067 285.582 56.972C285.405 57.0373 285.218 57.07 285.022 57.07C284.756 57.07 284.509 57.014 284.28 56.902C284.056 56.7853 283.858 56.6337 283.685 56.447C283.517 56.2557 283.379 56.0527 283.272 55.838L283.748 55.516ZM286.911 52.66V52.1H290.026V52.66H288.766V57H288.171V52.66H286.911ZM290.62 52.1H291.215V55.39C291.215 55.726 291.306 55.9967 291.488 56.202C291.67 56.4073 291.936 56.51 292.286 56.51C292.636 56.51 292.902 56.4073 293.084 56.202C293.266 55.9967 293.357 55.726 293.357 55.39V52.1H293.952V55.39C293.952 55.6327 293.912 55.8567 293.833 56.062C293.758 56.2673 293.646 56.4447 293.497 56.594C293.352 56.7433 293.177 56.86 292.972 56.944C292.766 57.028 292.538 57.07 292.286 57.07C292.034 57.07 291.805 57.028 291.6 56.944C291.394 56.86 291.217 56.7433 291.068 56.594C290.923 56.4447 290.811 56.2673 290.732 56.062C290.657 55.8567 290.62 55.6327 290.62 55.39V52.1ZM295.037 52.1H295.632V57H295.037V52.1ZM296.507 57H295.366V56.405H296.507C296.782 56.405 297.034 56.363 297.263 56.279C297.491 56.1903 297.687 56.0667 297.851 55.908C298.014 55.7447 298.14 55.5487 298.229 55.32C298.317 55.0913 298.362 54.8347 298.362 54.55C298.362 54.2653 298.317 54.0087 298.229 53.78C298.14 53.5513 298.014 53.3577 297.851 53.199C297.687 53.0357 297.491 52.912 297.263 52.828C297.034 52.7393 296.782 52.695 296.507 52.695H295.366V52.1H296.507C296.983 52.1 297.405 52.2027 297.774 52.408C298.142 52.6133 298.432 52.9003 298.642 53.269C298.852 53.633 298.957 54.06 298.957 54.55C298.957 55.04 298.852 55.4693 298.642 55.838C298.432 56.202 298.142 56.4867 297.774 56.692C297.405 56.8973 296.983 57 296.507 57ZM299.794 52.1H300.389V57H299.794V52.1ZM301.86 54.55C301.86 54.9187 301.94 55.2477 302.098 55.537C302.262 55.8263 302.483 56.055 302.763 56.223C303.043 56.391 303.361 56.475 303.715 56.475C304.075 56.475 304.392 56.391 304.667 56.223C304.947 56.055 305.167 55.8263 305.325 55.537C305.489 55.2477 305.57 54.9187 305.57 54.55C305.57 54.1813 305.489 53.8523 305.325 53.563C305.167 53.2737 304.947 53.045 304.667 52.877C304.392 52.709 304.075 52.625 303.715 52.625C303.361 52.625 303.043 52.709 302.763 52.877C302.483 53.045 302.262 53.2737 302.098 53.563C301.94 53.8523 301.86 54.1813 301.86 54.55ZM301.23 54.55C301.23 54.1907 301.291 53.8593 301.412 53.556C301.538 53.248 301.713 52.982 301.937 52.758C302.161 52.5293 302.425 52.352 302.728 52.226C303.032 52.0953 303.361 52.03 303.715 52.03C304.075 52.03 304.404 52.0953 304.702 52.226C305.006 52.352 305.269 52.5293 305.493 52.758C305.717 52.982 305.89 53.248 306.011 53.556C306.137 53.8593 306.2 54.1907 306.2 54.55C306.2 54.9047 306.137 55.236 306.011 55.544C305.89 55.852 305.717 56.1203 305.493 56.349C305.269 56.573 305.006 56.7503 304.702 56.881C304.404 57.007 304.075 57.07 303.715 57.07C303.361 57.07 303.032 57.007 302.728 56.881C302.425 56.7503 302.161 56.573 301.937 56.349C301.713 56.1203 301.538 55.852 301.412 55.544C301.291 55.236 301.23 54.9047 301.23 54.55ZM307.305 56.23L307.865 56.44L307.095 58.19L306.689 58.043L307.305 56.23ZM311.081 52.1H311.676V57H311.081V52.1ZM316.506 52.1H317.101V57.245L313.391 53.353V57H312.796V51.855L316.506 55.747V52.1ZM317.734 52.66V52.1H320.849V52.66H319.589V57H318.994V52.66H317.734ZM321.807 57V56.44H324.278V57H321.807ZM321.807 52.66V52.1H324.278V52.66H321.807ZM321.807 54.62V54.06H324.138V54.62H321.807ZM321.478 52.1H322.073V57H321.478V52.1ZM326.202 54.585H326.867L328.617 57H327.882L326.202 54.585ZM325.327 52.1H325.922V57H325.327V52.1ZM325.656 52.625V52.1H326.657C326.974 52.1 327.256 52.1607 327.504 52.282C327.756 52.3987 327.954 52.5667 328.099 52.786C328.248 53.0053 328.323 53.2667 328.323 53.57C328.323 53.8687 328.248 54.13 328.099 54.354C327.954 54.5733 327.756 54.7437 327.504 54.865C327.256 54.9817 326.974 55.04 326.657 55.04H325.656V54.515H326.657C326.867 54.515 327.051 54.4777 327.21 54.403C327.373 54.3283 327.499 54.221 327.588 54.081C327.681 53.941 327.728 53.7707 327.728 53.57C327.728 53.3693 327.681 53.199 327.588 53.059C327.499 52.919 327.373 52.8117 327.21 52.737C327.051 52.6623 326.867 52.625 326.657 52.625H325.656ZM332.954 52.1H333.549V57.245L329.839 53.353V57H329.244V51.855L332.954 55.747V52.1ZM335 57V56.44H337.471V57H335ZM335 52.66V52.1H337.471V52.66H335ZM335 54.62V54.06H337.331V54.62H335ZM334.671 52.1H335.266V57H334.671V52.1ZM338.03 52.66V52.1H341.145V52.66H339.885V57H339.29V52.66H338.03ZM348.234 55.705L349.508 52.1H350.173L348.248 57.245L346.778 53.437L345.308 57.245L343.383 52.1H344.048L345.35 55.705L346.778 51.855L348.234 55.705ZM351.133 57V56.44H353.604V57H351.133ZM351.133 52.66V52.1H353.604V52.66H351.133ZM351.133 54.62V54.06H353.464V54.62H351.133ZM350.804 52.1H351.399V57H350.804V52.1ZM355.122 54.41V54.081H355.913C356.076 54.081 356.223 54.053 356.354 53.997C356.484 53.941 356.587 53.8593 356.662 53.752C356.736 53.6447 356.774 53.514 356.774 53.36C356.774 53.1267 356.692 52.947 356.529 52.821C356.365 52.6903 356.16 52.625 355.913 52.625H355.248V56.475H355.983C356.193 56.475 356.377 56.4377 356.536 56.363C356.699 56.2883 356.825 56.181 356.914 56.041C357.007 55.901 357.054 55.7307 357.054 55.53C357.054 55.3807 357.028 55.2477 356.977 55.131C356.925 55.0143 356.851 54.9163 356.753 54.837C356.659 54.7577 356.547 54.6993 356.417 54.662C356.286 54.62 356.141 54.599 355.983 54.599H355.122V54.27H355.983C356.221 54.27 356.44 54.2957 356.641 54.347C356.841 54.3983 357.016 54.4777 357.166 54.585C357.32 54.6877 357.439 54.8207 357.523 54.984C357.607 55.1473 357.649 55.341 357.649 55.565C357.649 55.887 357.574 56.1553 357.425 56.37C357.28 56.58 357.082 56.7387 356.83 56.846C356.582 56.9487 356.3 57 355.983 57H354.653V52.1H355.913C356.207 52.1 356.461 52.1443 356.676 52.233C356.895 52.3217 357.065 52.457 357.187 52.639C357.308 52.8163 357.369 53.045 357.369 53.325C357.369 53.5537 357.308 53.7497 357.187 53.913C357.065 54.0763 356.895 54.2 356.676 54.284C356.461 54.368 356.207 54.41 355.913 54.41H355.122ZM358.738 55.516C358.85 55.712 358.967 55.8847 359.088 56.034C359.214 56.1833 359.354 56.3 359.508 56.384C359.662 56.468 359.837 56.51 360.033 56.51C360.294 56.51 360.504 56.4377 360.663 56.293C360.822 56.1483 360.901 55.964 360.901 55.74C360.901 55.5207 360.85 55.3457 360.747 55.215C360.644 55.0843 360.509 54.9793 360.341 54.9C360.178 54.816 360.003 54.7413 359.816 54.676C359.695 54.634 359.559 54.5803 359.41 54.515C359.261 54.445 359.118 54.3587 358.983 54.256C358.848 54.1487 358.736 54.018 358.647 53.864C358.563 53.71 358.521 53.521 358.521 53.297C358.521 53.0543 358.582 52.8373 358.703 52.646C358.824 52.4547 358.992 52.3053 359.207 52.198C359.422 52.086 359.667 52.03 359.942 52.03C360.208 52.03 360.439 52.0813 360.635 52.184C360.836 52.282 361.006 52.4103 361.146 52.569C361.286 52.723 361.396 52.8863 361.475 53.059L360.964 53.353C360.903 53.2317 360.826 53.1127 360.733 52.996C360.64 52.8793 360.525 52.7837 360.39 52.709C360.259 52.6343 360.098 52.597 359.907 52.597C359.641 52.597 359.447 52.6623 359.326 52.793C359.205 52.919 359.144 53.0613 359.144 53.22C359.144 53.3553 359.179 53.4813 359.249 53.598C359.319 53.71 359.436 53.8173 359.599 53.92C359.767 54.018 359.993 54.116 360.278 54.214C360.409 54.2607 360.546 54.3213 360.691 54.396C360.836 54.4707 360.969 54.5663 361.09 54.683C361.216 54.795 361.319 54.9327 361.398 55.096C361.477 55.2547 361.517 55.446 361.517 55.67C361.517 55.8847 361.475 56.0783 361.391 56.251C361.312 56.4237 361.2 56.5707 361.055 56.692C360.915 56.8133 360.754 56.9067 360.572 56.972C360.395 57.0373 360.208 57.07 360.012 57.07C359.746 57.07 359.499 57.014 359.27 56.902C359.046 56.7853 358.848 56.6337 358.675 56.447C358.507 56.2557 358.369 56.0527 358.262 55.838L358.738 55.516ZM362.391 52.1H362.986V57H362.391V52.1ZM363.617 52.66V52.1H366.732V52.66H365.472V57H364.877V52.66H363.617ZM367.69 57V56.44H370.161V57H367.69ZM367.69 52.66V52.1H370.161V52.66H367.69ZM367.69 54.62V54.06H370.021V54.62H367.69ZM367.361 52.1H367.956V57H367.361V52.1ZM373.308 52.1H373.903V57H373.308V52.1ZM374.778 57H373.637V56.405H374.778C375.053 56.405 375.305 56.363 375.534 56.279C375.763 56.1903 375.959 56.0667 376.122 55.908C376.285 55.7447 376.411 55.5487 376.5 55.32C376.589 55.0913 376.633 54.8347 376.633 54.55C376.633 54.2653 376.589 54.0087 376.5 53.78C376.411 53.5513 376.285 53.3577 376.122 53.199C375.959 53.0357 375.763 52.912 375.534 52.828C375.305 52.7393 375.053 52.695 374.778 52.695H373.637V52.1H374.778C375.254 52.1 375.676 52.2027 376.045 52.408C376.414 52.6133 376.703 52.9003 376.913 53.269C377.123 53.633 377.228 54.06 377.228 54.55C377.228 55.04 377.123 55.4693 376.913 55.838C376.703 56.202 376.414 56.4867 376.045 56.692C375.676 56.8973 375.254 57 374.778 57ZM378.395 57V56.44H380.866V57H378.395ZM378.395 52.66V52.1H380.866V52.66H378.395ZM378.395 54.62V54.06H380.726V54.62H378.395ZM378.066 52.1H378.661V57H378.066V52.1ZM383.664 55.894L385.274 52.1H385.939L383.664 57.245L381.389 52.1H382.054L383.664 55.894ZM386.865 57V56.44H389.336V57H386.865ZM386.865 52.66V52.1H389.336V52.66H386.865ZM386.865 54.62V54.06H389.196V54.62H386.865ZM386.536 52.1H387.131V57H386.536V52.1ZM390.384 52.1H390.979V56.44H392.904V57H390.384V52.1ZM393.674 54.55C393.674 54.9187 393.753 55.2477 393.912 55.537C394.075 55.8263 394.297 56.055 394.577 56.223C394.857 56.391 395.174 56.475 395.529 56.475C395.888 56.475 396.205 56.391 396.481 56.223C396.761 56.055 396.98 55.8263 397.139 55.537C397.302 55.2477 397.384 54.9187 397.384 54.55C397.384 54.1813 397.302 53.8523 397.139 53.563C396.98 53.2737 396.761 53.045 396.481 52.877C396.205 52.709 395.888 52.625 395.529 52.625C395.174 52.625 394.857 52.709 394.577 52.877C394.297 53.045 394.075 53.2737 393.912 53.563C393.753 53.8523 393.674 54.1813 393.674 54.55ZM393.044 54.55C393.044 54.1907 393.104 53.8593 393.226 53.556C393.352 53.248 393.527 52.982 393.751 52.758C393.975 52.5293 394.238 52.352 394.542 52.226C394.845 52.0953 395.174 52.03 395.529 52.03C395.888 52.03 396.217 52.0953 396.516 52.226C396.819 52.352 397.083 52.5293 397.307 52.758C397.531 52.982 397.703 53.248 397.825 53.556C397.951 53.8593 398.014 54.1907 398.014 54.55C398.014 54.9047 397.951 55.236 397.825 55.544C397.703 55.852 397.531 56.1203 397.307 56.349C397.083 56.573 396.819 56.7503 396.516 56.881C396.217 57.007 395.888 57.07 395.529 57.07C395.174 57.07 394.845 57.007 394.542 56.881C394.238 56.7503 393.975 56.573 393.751 56.349C393.527 56.1203 393.352 55.852 393.226 55.544C393.104 55.236 393.044 54.9047 393.044 54.55ZM398.854 52.1H399.449V57H398.854V52.1ZM399.183 52.66V52.1H400.184C400.501 52.1 400.784 52.1607 401.031 52.282C401.283 52.3987 401.481 52.5667 401.626 52.786C401.775 53.0053 401.85 53.2667 401.85 53.57C401.85 53.8687 401.775 54.13 401.626 54.354C401.481 54.5733 401.283 54.7437 401.031 54.865C400.784 54.9817 400.501 55.04 400.184 55.04H399.183V54.48H400.184C400.501 54.48 400.758 54.403 400.954 54.249C401.155 54.095 401.255 53.8687 401.255 53.57C401.255 53.2667 401.155 53.0403 400.954 52.891C400.758 52.737 400.501 52.66 400.184 52.66H399.183ZM403.368 53.689L403.004 57H402.409L403.004 51.855L404.964 55.404L406.924 51.855L407.519 57H406.924L406.56 53.689L404.964 56.545L403.368 53.689ZM408.685 57V56.44H411.156V57H408.685ZM408.685 52.66V52.1H411.156V52.66H408.685ZM408.685 54.62V54.06H411.016V54.62H408.685ZM408.356 52.1H408.951V57H408.356V52.1ZM415.915 52.1H416.51V57.245L412.8 53.353V57H412.205V51.855L415.915 55.747V52.1ZM417.142 52.66V52.1H420.257V52.66H418.997V57H418.402V52.66H417.142ZM420.665 56.23L421.225 56.44L420.455 58.19L420.049 58.043L420.665 56.23Z" fill="white"/>
</svg>
