<svg width="28" height="28" viewBox="0 0 28 28" fill="none" xmlns="http://www.w3.org/2000/svg">
<circle cx="14" cy="14" r="14" fill="white" fill-opacity="0.06"/>
<path d="M10.1004 9.17871L10.0749 20.1263L9.70557 20.3409L9.73103 9.39336L10.1004 9.17871Z" fill="#2E4277"/>
<path d="M8.88672 19.6546L8.91218 8.70703C8.91188 8.81352 9.25483 9.08261 9.73092 9.39297L9.70545 20.3405C9.22937 20.0302 8.88642 19.7611 8.88672 19.6546Z" fill="#384E85"/>
<path d="M12.7221 10.6925L12.6966 21.64L10.0747 20.1263L10.1002 9.17871L12.7221 10.6925Z" fill="#1B2A4F"/>
<path d="M12.7219 11.3673L12.7191 11.7033L10.0972 10.1896L10.1 9.85352L12.7219 11.3673Z" fill="#3955D1"/>
<path d="M12.7219 12.2374L12.7191 12.5734L10.0972 11.0597L10.1 10.7236L12.7219 12.2374Z" fill="#3955D1"/>
<path d="M12.7219 13.1075L12.7191 13.4435L10.0972 11.9298L10.1 11.5938L12.7219 13.1075Z" fill="#3955D1"/>
<path d="M12.7219 13.9766L12.7191 14.3127L10.0972 12.7989L10.1 12.4629L12.7219 13.9766Z" fill="#3955D1"/>
<path d="M12.7219 14.8468L12.7191 15.1828L10.0972 13.669L10.1 13.333L12.7219 14.8468Z" fill="#3955D1"/>
<path d="M12.0503 15.3501L12.0485 15.5613L10.5405 14.6907L10.5423 14.4795L12.0503 15.3501Z" fill="#2E4277"/>
<path d="M12.0503 15.8472L12.0485 16.0584L10.5405 15.1878L10.5423 14.9766L12.0503 15.8472Z" fill="#2E4277"/>
<path d="M12.0503 16.8413L12.0485 17.0526L10.5405 16.1819L10.5423 15.9707L12.0503 16.8413Z" fill="#2E4277"/>
<path d="M12.0503 16.3443L12.0485 16.5555L10.5405 15.6848L10.5423 15.4736L12.0503 16.3443Z" fill="#2E4277"/>
<path d="M12.0503 17.8355L12.0485 18.0467L10.5405 17.1761L10.5423 16.9648L12.0503 17.8355Z" fill="#2E4277"/>
<path d="M12.0503 17.3384L12.0485 17.5496L10.5405 16.679L10.5423 16.4678L12.0503 17.3384Z" fill="#2E4277"/>
<path d="M12.0503 18.3326L12.0485 18.5438L10.5405 17.6731L10.5423 17.4619L12.0503 18.3326Z" fill="#2E4277"/>
<path d="M19.3128 8.04688L19.2874 19.209L13.5747 22.5288L13.6002 11.122L19.3128 8.04688Z" fill="#2E4277"/>
<path d="M13.6001 11.3665L13.5746 22.314C13.4635 22.3786 12.8713 22.132 12.3301 21.8528L12.3555 10.9053C12.9658 11.22 13.4853 11.4332 13.6001 11.3665Z" fill="#384E85"/>
<path d="M19.3124 8.04686L13.5998 11.3667C13.4849 11.4334 12.9654 11.2202 12.3552 10.9055L12.7221 10.6923L10.1002 9.17855L9.73084 9.3932C9.18801 9.03933 8.81825 8.7391 8.93306 8.67239L14.6457 5.35254L19.3124 8.04686Z" fill="#384E85"/>
<path d="M10.1002 9.85352L10.0974 10.1896L9.72803 10.4042L9.73089 10.0682L10.1002 9.85352Z" fill="#4466FB"/>
<path d="M10.1002 10.7236L10.0974 11.0597L9.72803 11.2743L9.73089 10.9383L10.1002 10.7236Z" fill="#4466FB"/>
<path d="M10.1002 11.5928L10.0974 11.9288L9.72803 12.1435L9.73089 11.8074L10.1002 11.5928Z" fill="#4466FB"/>
<path d="M10.1002 12.4629L10.0974 12.7989L9.72803 13.0136L9.73089 12.6775L10.1002 12.4629Z" fill="#4466FB"/>
<path d="M10.1002 13.333L10.0974 13.669L9.72803 13.8837L9.73089 13.5477L10.1002 13.333Z" fill="#4466FB"/>
<path d="M8.90918 9.71787L8.91205 9.38184C8.91175 9.48832 9.2547 9.75742 9.73078 10.0678L9.72791 10.4038C9.25183 10.0935 8.90888 9.82436 8.90918 9.71787Z" fill="#6BB5FB"/>
<path d="M8.90918 10.588L8.91205 10.252C8.91175 10.3584 9.2547 10.6275 9.73078 10.9379L9.72791 11.2739C9.25183 10.9636 8.90888 10.6945 8.90918 10.588Z" fill="#6BB5FB"/>
<path d="M8.90918 11.4581L8.91205 11.1221C8.91175 11.2286 9.2547 11.4977 9.73078 11.808L9.72791 12.144C9.25183 11.8337 8.90888 11.5646 8.90918 11.4581Z" fill="#6BB5FB"/>
<path d="M8.90918 12.3282L8.91205 11.9922C8.91175 12.0987 9.2547 12.3678 9.73078 12.6781L9.72791 13.0142C9.25183 12.7038 8.90888 12.4347 8.90918 12.3282Z" fill="#6BB5FB"/>
<path d="M8.90918 13.1983L8.91205 12.8623C8.91175 12.9688 9.2547 13.2379 9.73078 13.5482L9.72791 13.8843C9.25183 13.5739 8.90888 13.3048 8.90918 13.1983Z" fill="#6BB5FB"/>
<path d="M13.5999 12.0413L13.5971 12.3649C13.486 12.4295 12.8937 12.1952 12.3525 11.9161L12.3554 11.5801C12.8966 11.8592 13.4888 12.1059 13.5999 12.0413Z" fill="#6BB5FB"/>
<path d="M13.5999 12.9114L13.5971 13.235C13.486 13.2996 12.8937 13.0653 12.3525 12.7862L12.3554 12.4502C12.8966 12.7293 13.4888 12.976 13.5999 12.9114Z" fill="#6BB5FB"/>
<path d="M13.5999 13.7815L13.5971 14.1051C13.486 14.1697 12.8937 13.9355 12.3525 13.6563L12.3554 13.3203C12.8966 13.5994 13.4888 13.8461 13.5999 13.7815Z" fill="#6BB5FB"/>
<path d="M13.5999 14.6516L13.5971 14.9753C13.486 15.0398 12.8937 14.8056 12.3525 14.5265L12.3554 14.1904C12.8966 14.4695 13.4888 14.7162 13.5999 14.6516Z" fill="#6BB5FB"/>
<path d="M13.5999 15.5217L13.5971 15.8454C13.486 15.91 12.8937 15.6757 12.3525 15.3966L12.3554 15.0605C12.8966 15.3397 13.4888 15.5863 13.5999 15.5217Z" fill="#6BB5FB"/>
<path d="M18.8998 18.6049L18.7506 18.6905L18.7461 17.608L18.8953 17.5225L18.8998 18.6049Z" fill="#1B2A4F"/>
<path d="M18.6179 18.767L18.4674 18.8533L18.4629 17.7709L18.6134 17.6846L18.6179 18.767Z" fill="#1B2A4F"/>
<path d="M18.3349 18.9292L18.1856 19.0147L18.1812 17.9322L18.3304 17.8467L18.3349 18.9292Z" fill="#1B2A4F"/>
<path d="M18.0531 19.0913L17.9039 19.1768L17.8994 18.0943L18.0486 18.0088L18.0531 19.0913Z" fill="#1B2A4F"/>
<path d="M17.7712 19.2534L17.6207 19.3397L17.6162 18.2572L17.7667 18.1709L17.7712 19.2534Z" fill="#1B2A4F"/>
<path d="M16.2597 20.1186L16.1104 20.2042L16.106 19.1217L16.2552 19.0361L16.2597 20.1186Z" fill="#1B2A4F"/>
<path d="M15.9777 20.2807L15.8272 20.367L15.8228 19.2845L15.9733 19.1982L15.9777 20.2807Z" fill="#1B2A4F"/>
<path d="M15.6947 20.4428L15.5455 20.5284L15.541 19.4459L15.6902 19.3604L15.6947 20.4428Z" fill="#1B2A4F"/>
<path d="M15.413 20.6049L15.2637 20.6905L15.2593 19.608L15.4085 19.5225L15.413 20.6049Z" fill="#1B2A4F"/>
<path d="M15.1311 20.767L14.9805 20.8533L14.9761 19.7709L15.1266 19.6846L15.1311 20.767Z" fill="#1B2A4F"/>
<path d="M18.8998 16.6049L18.7506 16.6905L18.7461 15.608L18.8953 15.5225L18.8998 16.6049Z" fill="#1B2A4F"/>
<path d="M18.6179 16.767L18.4674 16.8533L18.4629 15.7709L18.6134 15.6846L18.6179 16.767Z" fill="#1B2A4F"/>
<path d="M18.3349 16.9292L18.1856 17.0147L18.1812 15.9322L18.3304 15.8467L18.3349 16.9292Z" fill="#1B2A4F"/>
<path d="M18.0531 17.0913L17.9039 17.1768L17.8994 16.0943L18.0486 16.0088L18.0531 17.0913Z" fill="#1B2A4F"/>
<path d="M17.7712 17.2534L17.6207 17.3397L17.6162 16.2572L17.7667 16.1709L17.7712 17.2534Z" fill="#1B2A4F"/>
<path d="M16.2597 18.1186L16.1104 18.2042L16.106 17.1217L16.2552 17.0361L16.2597 18.1186Z" fill="#1B2A4F"/>
<path d="M15.9777 18.2807L15.8272 18.367L15.8228 17.2845L15.9733 17.1982L15.9777 18.2807Z" fill="#1B2A4F"/>
<path d="M15.6947 18.4428L15.5455 18.5284L15.541 17.4459L15.6902 17.3604L15.6947 18.4428Z" fill="#1B2A4F"/>
<path d="M15.413 18.6049L15.2637 18.6905L15.2593 17.608L15.4085 17.5225L15.413 18.6049Z" fill="#1B2A4F"/>
<path d="M15.1311 18.767L14.9805 18.8533L14.9761 17.7709L15.1266 17.6846L15.1311 18.767Z" fill="#1B2A4F"/>
<path d="M13.3523 11.5103L13.8002 11.25L13.7946 22.3719L13.3467 22.6322L13.3523 11.5103Z" fill="#1B2A4F"/>
<path d="M8.68555 8.81596L9.13345 8.55566L13.8001 11.25L13.3522 11.5103L8.68555 8.81596Z" fill="#1B2A4F"/>
<path d="M8.687 8.81738L8.68066 19.9387L13.3459 22.6317L13.3522 11.5104L8.687 8.81738ZM12.8356 21.6912L9.22318 19.6058L9.22633 9.43983L12.842 11.5253L12.8356 21.6912Z" fill="#2E4277"/>
<path opacity="0.3" d="M9.22764 9.43945L9.22266 19.6064L12.835 21.6921L12.8402 11.5249L9.22764 9.43945Z" fill="#4466FB"/>
<path opacity="0.3" d="M9.22266 19.6062L9.29403 19.6474L12.8368 18.232L12.8372 17.3193L9.22307 18.7633L9.22266 19.6062Z" fill="#4466FB"/>
<path d="M13.2666 17.2143L13.0635 17.3311C13.049 17.3398 13.0365 17.3403 13.0268 17.335L12.9086 17.2664L12.9091 17.3615C12.9096 17.4098 12.9265 17.444 12.9545 17.4604L12.7841 17.3615C12.7566 17.3451 12.7392 17.3113 12.7392 17.2626L12.7378 16.4583C12.7373 16.3604 12.8063 16.2412 12.8912 16.1924L13.0944 16.0752L13.2642 16.1736L13.0616 16.2909C12.9762 16.3401 12.9076 16.4593 12.9076 16.5572L12.9086 17.224L13.0963 17.1154L13.2666 17.2143Z" fill="#B7C5FD"/>
<path d="M13.2643 16.1738L13.2646 16.2917L13.0616 16.4089C13.0332 16.4253 13.0105 16.465 13.0106 16.4976L13.0121 17.3021C13.0122 17.3346 13.035 17.3477 13.0634 17.3313L13.2664 17.2141L13.2667 17.3323L13.0637 17.4495C12.9787 17.4986 12.9095 17.4588 12.9092 17.3615L12.9077 16.557C12.9074 16.4593 12.9762 16.3401 13.0613 16.291L13.2643 16.1738Z" fill="#798FFE"/>
<path opacity="0.3" d="M10.0738 20.0974L12.8365 18.9936L12.8367 18.6328L9.70459 19.8842L10.0738 20.0974Z" fill="#4466FB"/>
<path opacity="0.3" d="M12.8385 14.8672L9.22429 16.3112L9.22412 16.672L12.8383 15.228L12.8385 14.8672Z" fill="#4466FB"/>
<path opacity="0.3" d="M12.8393 13.5537L9.22506 14.9977L9.22461 15.9103L12.8388 14.4663L12.8393 13.5537Z" fill="#4466FB"/>
<path opacity="0.3" d="M12.4068 11.2744L9.22625 12.5451L9.22607 12.9059L12.7761 11.4876L12.4068 11.2744Z" fill="#4466FB"/>
<path opacity="0.3" d="M11.0624 10.498L9.22699 11.2313L9.22656 12.144L11.9965 11.0373L11.0624 10.498Z" fill="#4466FB"/>
</svg>
