<svg width="310" height="200" viewBox="0 0 310 200" fill="none" xmlns="http://www.w3.org/2000/svg">
<rect x="0.5" y="0.5" width="309" height="199" rx="39.5" stroke="#F7F7F7" stroke-opacity="0.16"/>
<rect x="12.5938" y="112" width="83.3125" height="77" rx="30" fill="#222B39"/>
<rect x="113.344" y="112" width="83.3125" height="77" rx="30" fill="#222B39"/>
<rect x="211.188" y="112" width="83.3125" height="77" rx="30" fill="#222B39"/>
<rect x="14.5312" y="16" width="281.906" height="77" rx="30" fill="#222B39"/>
<path d="M41.8005 71.25C40.4536 71.25 39.3006 70.7033 38.3415 69.6099C37.3824 68.5165 36.9028 67.2021 36.9028 65.6667C36.9028 64.1313 37.3824 62.8168 38.3415 61.7234C39.3006 60.63 40.4536 60.0833 41.8005 60.0833H42.4433C42.627 60.0833 42.8208 60.1299 43.0249 60.2229L54.1671 47.5208C54.0855 47.2882 54.0447 47.0672 54.0447 46.8578V46.125C54.0447 44.5896 54.5242 43.2752 55.4833 42.1818C56.4425 41.0884 57.5955 40.5417 58.9423 40.5417C60.2892 40.5417 61.4422 41.0884 62.4013 42.1818C63.3604 43.2752 63.84 44.5896 63.84 46.125C63.84 46.2181 63.7992 46.6833 63.7175 47.5208L69.9621 54.6396C70.1661 54.5465 70.36 54.5 70.5437 54.5H71.8293C72.013 54.5 72.2068 54.5465 72.4109 54.6396L81.1043 44.7292C81.0226 44.4965 80.9818 44.2755 80.9818 44.0661V43.3333C80.9818 41.7979 81.4614 40.4835 82.4205 39.3901C83.3796 38.2967 84.5326 37.75 85.8795 37.75C87.2263 37.75 88.3793 38.2967 89.3385 39.3901C90.2976 40.4835 90.7771 41.7979 90.7771 43.3333C90.7771 44.8688 90.2976 46.1832 89.3385 47.2766C88.3793 48.37 87.2263 48.9167 85.8795 48.9167H85.2367C85.053 48.9167 84.8591 48.8701 84.6551 48.7771L75.9617 58.6875C76.0433 58.9201 76.0841 59.1411 76.0841 59.3505V60.0833C76.0841 61.6188 75.6046 62.9332 74.6455 64.0266C73.6863 65.12 72.5333 65.6667 71.1865 65.6667C69.8396 65.6667 68.6866 65.12 67.7275 64.0266C66.7684 62.9332 66.2888 61.6188 66.2888 60.0833V59.3505C66.2888 59.1411 66.3296 58.9201 66.4113 58.6875L60.1667 51.5688C59.9627 51.6618 59.7688 51.7083 59.5851 51.7083H58.9423C58.8607 51.7083 58.4526 51.6618 57.7179 51.5688L46.5757 64.2708C46.6573 64.5035 46.6982 64.7245 46.6982 64.9339V65.6667C46.6982 67.2021 46.2186 68.5165 45.2595 69.6099C44.3003 70.7033 43.1474 71.25 41.8005 71.25Z" fill="#FF3100"/>
<path d="M149.787 55.42V51.64C151.067 51.64 152.207 51.48 153.207 51.16C154.207 50.8 155.047 50.32 155.727 49.72C156.447 49.12 156.987 48.42 157.347 47.62C157.747 46.78 157.947 45.92 157.947 45.04C157.947 43.92 157.727 42.94 157.287 42.1C156.847 41.22 156.207 40.54 155.367 40.06C154.527 39.58 153.487 39.34 152.247 39.34C150.407 39.34 148.867 39.9 147.627 41.02C146.427 42.1 145.827 43.48 145.827 45.16H139.167C139.167 42.84 139.707 40.8 140.787 39.04C141.907 37.28 143.447 35.9 145.407 34.9C147.367 33.86 149.627 33.34 152.187 33.34C154.907 33.34 157.227 33.86 159.147 34.9C161.067 35.94 162.527 37.32 163.527 39.04C164.567 40.72 165.087 42.6 165.087 44.68C165.087 46.8 164.427 48.68 163.107 50.32C161.787 51.96 159.967 53.22 157.647 54.1C155.367 54.98 152.747 55.42 149.787 55.42ZM151.887 76.72C149.647 76.72 147.627 76.4 145.827 75.76C144.027 75.08 142.507 74.16 141.267 73C140.027 71.8 139.067 70.44 138.387 68.92C137.707 67.36 137.367 65.72 137.367 64H144.447C144.447 65.36 144.767 66.54 145.407 67.54C146.087 68.5 147.007 69.26 148.167 69.82C149.327 70.34 150.607 70.6 152.007 70.6C153.447 70.6 154.687 70.34 155.727 69.82C156.807 69.3 157.647 68.56 158.247 67.6C158.847 66.6 159.147 65.4 159.147 64C159.147 62.88 158.927 61.88 158.487 61C158.047 60.12 157.407 59.38 156.567 58.78C155.767 58.18 154.787 57.72 153.627 57.4C152.467 57.08 151.187 56.92 149.787 56.92V52.9C152.107 52.9 154.267 53.14 156.267 53.62C158.267 54.06 160.007 54.76 161.487 55.72C163.007 56.64 164.187 57.86 165.027 59.38C165.867 60.86 166.287 62.66 166.287 64.78C166.287 67.14 165.687 69.22 164.487 71.02C163.287 72.82 161.607 74.22 159.447 75.22C157.287 76.22 154.767 76.72 151.887 76.72ZM177.998 55C177.998 57.24 178.218 59.3 178.658 61.18C179.098 63.06 179.718 64.68 180.518 66.04C181.358 67.4 182.358 68.46 183.518 69.22C184.678 69.94 185.958 70.3 187.358 70.3C188.838 70.3 190.138 69.94 191.258 69.22C192.418 68.46 193.398 67.4 194.198 66.04C195.038 64.68 195.678 63.06 196.118 61.18C196.558 59.3 196.778 57.24 196.778 55C196.778 52.76 196.558 50.7 196.118 48.82C195.678 46.94 195.038 45.32 194.198 43.96C193.398 42.6 192.418 41.56 191.258 40.84C190.138 40.08 188.838 39.7 187.358 39.7C185.958 39.7 184.678 40.08 183.518 40.84C182.358 41.56 181.358 42.6 180.518 43.96C179.718 45.32 179.098 46.94 178.658 48.82C178.218 50.7 177.998 52.76 177.998 55ZM171.038 55C171.038 50.64 171.718 46.84 173.078 43.6C174.478 40.36 176.398 37.84 178.838 36.04C181.318 34.24 184.158 33.34 187.358 33.34C190.638 33.34 193.498 34.24 195.938 36.04C198.418 37.84 200.338 40.36 201.698 43.6C203.058 46.84 203.738 50.64 203.738 55C203.738 59.36 203.058 63.16 201.698 66.4C200.338 69.64 198.418 72.16 195.938 73.96C193.498 75.76 190.638 76.66 187.358 76.66C184.158 76.66 181.318 75.76 178.838 73.96C176.398 72.16 174.478 69.64 173.078 66.4C171.718 63.16 171.038 59.36 171.038 55ZM210.038 63.52V57.16H240.578V63.52H210.038ZM221.918 45.04H228.698V75.7H221.918V45.04Z" fill="white"/>
<path d="M267.966 73.564V75.09L258.446 75.09V73.564L267.966 73.564ZM261.666 68.23C262.375 68.23 262.986 68.3747 263.5 68.664C264.004 68.9533 264.391 69.336 264.662 69.812C264.923 70.288 265.054 70.806 265.054 71.366C265.054 71.9167 264.918 72.3973 264.648 72.808C264.368 73.2093 263.976 73.522 263.472 73.746C262.958 73.9607 262.356 74.068 261.666 74.068C260.966 74.068 260.364 73.9607 259.86 73.746C259.356 73.522 258.968 73.2093 258.698 72.808C258.418 72.3973 258.278 71.9167 258.278 71.366C258.278 70.806 258.413 70.288 258.684 69.812C258.945 69.336 259.328 68.9533 259.832 68.664C260.336 68.3747 260.947 68.23 261.666 68.23ZM261.666 69.798C261.236 69.798 260.872 69.8867 260.574 70.064C260.266 70.2413 260.037 70.4793 259.888 70.778C259.729 71.0673 259.65 71.3893 259.65 71.744C259.65 72.0333 259.729 72.318 259.888 72.598C260.037 72.878 260.261 73.1113 260.56 73.298C260.858 73.4753 261.227 73.564 261.666 73.564C262.104 73.564 262.473 73.4753 262.772 73.298C263.07 73.1113 263.299 72.878 263.458 72.598C263.607 72.318 263.682 72.0333 263.682 71.744C263.682 71.3893 263.607 71.0673 263.458 70.778C263.299 70.4793 263.07 70.2413 262.772 70.064C262.464 69.8867 262.095 69.798 261.666 69.798ZM258.446 65.2919L264.886 65.2919V66.7899L258.446 66.7899V65.2919ZM260.056 63.3739C259.944 63.5139 259.86 63.6445 259.804 63.7659C259.748 63.8872 259.72 64.0412 259.72 64.2279C259.72 64.4799 259.785 64.6852 259.916 64.8439C260.046 65.0025 260.228 65.1192 260.462 65.1939C260.686 65.2592 260.952 65.2919 261.26 65.2919L260.966 65.7959C260.452 65.7959 260 65.7025 259.608 65.5159C259.206 65.3199 258.889 65.0725 258.656 64.7739C258.422 64.4659 258.306 64.1485 258.306 63.8219C258.306 63.5885 258.343 63.3692 258.418 63.1639C258.483 62.9585 258.604 62.7859 258.782 62.6459L260.056 63.3739ZM261.666 62.3033C261.003 62.3033 260.42 62.154 259.916 61.8553C259.412 61.5473 259.02 61.132 258.74 60.6093C258.45 60.0866 258.306 59.494 258.306 58.8313C258.306 58.1686 258.45 57.5806 258.74 57.0673C259.02 56.5446 259.412 56.1293 259.916 55.8213C260.42 55.5133 261.003 55.3593 261.666 55.3593C262.319 55.3593 262.902 55.5133 263.416 55.8213C263.92 56.1293 264.316 56.5446 264.606 57.0673C264.886 57.5806 265.026 58.1686 265.026 58.8313C265.026 59.494 264.886 60.0866 264.606 60.6093C264.316 61.132 263.92 61.5473 263.416 61.8553C262.902 62.154 262.319 62.3033 261.666 62.3033ZM261.666 60.7493C262.067 60.7493 262.422 60.6653 262.73 60.4973C263.028 60.3293 263.266 60.1006 263.444 59.8113C263.612 59.522 263.696 59.1953 263.696 58.8313C263.696 58.4766 263.612 58.1546 263.444 57.8653C263.266 57.5666 263.028 57.3333 262.73 57.1653C262.422 56.9973 262.067 56.9133 261.666 56.9133C261.264 56.9133 260.91 56.9973 260.602 57.1653C260.294 57.3333 260.056 57.5666 259.888 57.8653C259.72 58.1546 259.636 58.4766 259.636 58.8313C259.636 59.1953 259.72 59.522 259.888 59.8113C260.056 60.1006 260.294 60.3293 260.602 60.4973C260.91 60.6653 261.264 60.7493 261.666 60.7493ZM255.884 54.1206C255.622 54.1206 255.408 54.0273 255.24 53.8406C255.062 53.654 254.974 53.43 254.974 53.1686C254.974 52.9073 255.062 52.688 255.24 52.5106C255.408 52.324 255.622 52.2306 255.884 52.2306C256.136 52.2306 256.35 52.324 256.528 52.5106C256.705 52.688 256.794 52.9073 256.794 53.1686C256.794 53.43 256.705 53.654 256.528 53.8406C256.35 54.0273 256.136 54.1206 255.884 54.1206ZM266.272 55.2126C266.384 55.138 266.472 55.0446 266.538 54.9326C266.603 54.8206 266.636 54.69 266.636 54.5406C266.636 54.3913 266.594 54.27 266.51 54.1766C266.435 54.074 266.314 53.9993 266.146 53.9526C265.978 53.8966 265.763 53.8686 265.502 53.8686H258.446V52.3846H265.796C266.262 52.3846 266.664 52.464 267 52.6226C267.345 52.7813 267.606 53.0193 267.784 53.3366C267.97 53.6446 268.064 54.0273 268.064 54.4846C268.064 54.718 268.036 54.9233 267.98 55.1006C267.933 55.278 267.858 55.432 267.756 55.5626C267.662 55.7026 267.56 55.824 267.448 55.9266L266.272 55.2126ZM265.026 47.5016C265.026 48.1549 264.886 48.7336 264.606 49.2376C264.326 49.7322 263.934 50.1149 263.43 50.3856C262.926 50.6562 262.338 50.7916 261.666 50.7916C260.984 50.7916 260.392 50.6562 259.888 50.3856C259.384 50.1056 258.996 49.7136 258.726 49.2096C258.446 48.7056 258.306 48.1129 258.306 47.4316C258.306 46.7502 258.436 46.1716 258.698 45.6956C258.959 45.2196 259.337 44.8556 259.832 44.6036C260.317 44.3422 260.905 44.2116 261.596 44.2116C261.67 44.2116 261.75 44.2162 261.834 44.2256C261.918 44.2256 261.978 44.2302 262.016 44.2396V49.8956H260.98V45.5276L261.624 45.9896C261.568 45.9616 261.493 45.9336 261.4 45.9056C261.297 45.8682 261.213 45.8496 261.148 45.8496C260.802 45.8496 260.504 45.9196 260.252 46.0596C260 46.1902 259.804 46.3769 259.664 46.6196C259.524 46.8529 259.454 47.1282 259.454 47.4456C259.454 47.8282 259.538 48.1549 259.706 48.4256C259.874 48.6962 260.116 48.9016 260.434 49.0416C260.751 49.1816 261.143 49.2562 261.61 49.2656C262.076 49.2656 262.473 49.1956 262.8 49.0556C263.117 48.9156 263.36 48.7102 263.528 48.4396C263.696 48.1596 263.78 47.8236 263.78 47.4316C263.78 47.0209 263.696 46.6616 263.528 46.3536C263.36 46.0456 263.103 45.7889 262.758 45.5836L263.29 44.2816C263.868 44.6176 264.302 45.0516 264.592 45.5836C264.881 46.1156 265.026 46.7549 265.026 47.5016ZM261.666 41.7604C262.076 41.7604 262.436 41.6717 262.744 41.4944C263.042 41.317 263.28 41.079 263.458 40.7804C263.635 40.4724 263.724 40.1317 263.724 39.7584C263.724 39.4504 263.677 39.1564 263.584 38.8764C263.49 38.5964 263.36 38.349 263.192 38.1344C263.024 37.9197 262.837 37.761 262.632 37.6584H264.298C264.522 37.8824 264.699 38.1857 264.83 38.5684C264.96 38.951 265.026 39.371 265.026 39.8284C265.026 40.491 264.886 41.0884 264.606 41.6204C264.316 42.143 263.92 42.5584 263.416 42.8664C262.902 43.165 262.319 43.3144 261.666 43.3144C261.003 43.3144 260.42 43.165 259.916 42.8664C259.412 42.5584 259.02 42.143 258.74 41.6204C258.45 41.0884 258.306 40.491 258.306 39.8284C258.306 39.371 258.371 38.951 258.502 38.5684C258.632 38.1857 258.81 37.8824 259.034 37.6584H260.7C260.485 37.761 260.298 37.9244 260.14 38.1484C259.972 38.363 259.841 38.6104 259.748 38.8904C259.654 39.1704 259.608 39.4597 259.608 39.7584C259.608 40.1317 259.696 40.4724 259.874 40.7804C260.051 41.079 260.294 41.317 260.602 41.4944C260.91 41.6717 261.264 41.7604 261.666 41.7604ZM258.446 36.8831V33.2291H259.776V36.8831H258.446ZM256.206 35.8051V34.3071H264.886V35.8051H256.206Z" fill="white"/>
<g clip-path="url(#clip0_389_322)">
<path d="M54.25 148C54.25 144.87 56.8518 142.333 60.0613 142.333C63.2708 142.333 65.8727 144.87 65.8727 148C65.8727 151.129 63.2708 153.666 60.0613 153.666C56.8518 153.666 54.25 151.129 54.25 148Z" fill="#1ABCFE"/>
<path d="M42.6274 159.334C42.6274 156.204 45.2292 153.667 48.4387 153.667H54.2501V159.334C54.2501 162.463 51.6483 165 48.4387 165C45.2292 165 42.6274 162.463 42.6274 159.334Z" fill="#0ACF83"/>
<path d="M54.25 131V142.333H60.0613C63.2709 142.333 65.8727 139.796 65.8727 136.667C65.8727 133.537 63.2709 131 60.0613 131H54.25Z" fill="#FF7262"/>
<path d="M42.6272 136.667C42.6272 139.796 45.229 142.333 48.4385 142.333H54.2499V131H48.4385C45.229 131 42.6272 133.537 42.6272 136.667Z" fill="#F24E1E"/>
<path d="M42.6274 148C42.6274 151.129 45.2292 153.666 48.4387 153.666H54.2501V142.333H48.4387C45.2292 142.333 42.6274 144.87 42.6274 148Z" fill="#A259FF"/>
</g>
<path d="M144.344 158.054V138.326C144.344 138.192 144.398 138.115 144.525 138.115C144.833 138.115 145.123 138.115 145.539 138.096C145.974 138.077 146.427 138.077 146.916 138.058C147.405 138.038 147.93 138.038 148.492 138.019C149.053 138 149.596 138 150.14 138C151.625 138 152.857 138.192 153.871 138.594C154.777 138.92 155.61 139.457 156.298 140.166C156.878 140.78 157.331 141.528 157.62 142.352C157.892 143.157 158.037 143.982 158.037 144.845C158.037 146.493 157.675 147.855 156.95 148.928C156.226 150.002 155.211 150.807 154.034 151.267C152.802 151.747 151.444 151.919 149.959 151.919C149.524 151.919 149.234 151.919 149.053 151.9C148.872 151.881 148.618 151.881 148.274 151.881V158.035C148.292 158.169 148.202 158.284 148.075 158.304H144.561C144.416 158.304 144.344 158.227 144.344 158.054ZM148.292 141.815V148.257C148.546 148.276 148.781 148.296 148.999 148.296H149.959C150.665 148.296 151.371 148.181 152.042 147.951C152.621 147.778 153.128 147.414 153.527 146.934C153.907 146.455 154.088 145.803 154.088 144.96C154.106 144.365 153.962 143.771 153.672 143.253C153.364 142.755 152.929 142.371 152.404 142.16C151.734 141.873 151.009 141.758 150.267 141.777C149.796 141.777 149.379 141.777 149.035 141.796C148.673 141.777 148.419 141.796 148.292 141.815ZM169.339 147.088C168.796 146.781 168.216 146.57 167.6 146.436C166.93 146.283 166.26 146.187 165.572 146.187C165.21 146.167 164.829 146.225 164.485 146.321C164.25 146.378 164.05 146.513 163.924 146.704C163.833 146.858 163.779 147.049 163.779 147.222C163.779 147.395 163.851 147.567 163.96 147.72C164.123 147.931 164.34 148.104 164.576 148.238C164.992 148.468 165.427 148.679 165.862 148.871C166.84 149.216 167.782 149.695 168.651 150.27C169.249 150.673 169.738 151.21 170.082 151.862C170.372 152.475 170.517 153.146 170.498 153.836C170.517 154.738 170.263 155.639 169.792 156.386C169.285 157.153 168.579 157.748 167.763 158.093C166.876 158.495 165.789 158.706 164.485 158.706C163.652 158.706 162.837 158.63 162.022 158.457C161.388 158.342 160.754 158.131 160.174 157.843C160.047 157.767 159.957 157.633 159.975 157.479V154.143C159.975 154.086 159.993 154.009 160.047 153.971C160.102 153.932 160.156 153.951 160.21 153.99C160.917 154.431 161.659 154.738 162.456 154.929C163.145 155.121 163.869 155.217 164.594 155.217C165.282 155.217 165.771 155.121 166.097 154.948C166.387 154.814 166.586 154.488 166.586 154.143C166.586 153.875 166.441 153.626 166.151 153.376C165.862 153.127 165.264 152.839 164.376 152.475C163.453 152.13 162.601 151.67 161.804 151.095C161.243 150.673 160.772 150.117 160.428 149.465C160.138 148.852 159.993 148.181 160.011 147.51C160.011 146.685 160.229 145.899 160.627 145.19C161.08 144.423 161.75 143.809 162.529 143.426C163.38 142.966 164.449 142.755 165.735 142.755C166.477 142.755 167.238 142.812 167.981 142.927C168.524 143.004 169.049 143.157 169.539 143.368C169.611 143.387 169.683 143.464 169.72 143.541C169.738 143.618 169.756 143.694 169.756 143.771V146.896C169.756 146.973 169.72 147.049 169.665 147.088C169.502 147.126 169.412 147.126 169.339 147.088Z" fill="#31A8FF"/>
<path d="M250.968 155.132H243.371L241.818 160.212C241.778 160.407 241.614 160.536 241.43 160.515H237.591C237.366 160.515 237.305 160.385 237.366 160.126L243.942 140.086C244.004 139.87 244.065 139.632 244.147 139.372C244.228 138.918 244.269 138.443 244.269 137.967C244.249 137.859 244.33 137.751 244.433 137.729H249.722C249.885 137.729 249.967 137.794 249.988 137.902L257.442 160.169C257.503 160.407 257.442 160.515 257.238 160.515H252.969C252.826 160.536 252.683 160.428 252.643 160.277L250.968 155.132ZM244.555 150.743H249.743C249.62 150.29 249.457 149.749 249.273 149.187C249.089 148.603 248.905 147.976 248.721 147.328C248.517 146.658 248.333 146.009 248.129 145.339C247.925 144.669 247.741 144.042 247.578 143.415C247.414 142.81 247.271 142.248 247.128 141.729H247.088C246.904 142.658 246.679 143.588 246.393 144.518C246.087 145.555 245.78 146.636 245.454 147.717C245.168 148.819 244.861 149.836 244.555 150.743ZM261.894 141.426C261.22 141.448 260.567 141.167 260.077 140.669C259.607 140.129 259.362 139.416 259.382 138.681C259.362 137.946 259.627 137.254 260.117 136.757C260.608 136.259 261.261 136 261.935 136C262.732 136 263.344 136.259 263.794 136.757C264.243 137.275 264.488 137.967 264.468 138.681C264.488 139.416 264.243 140.129 263.753 140.669C263.283 141.188 262.589 141.469 261.894 141.426ZM259.607 160.191V143.545C259.607 143.329 259.689 143.242 259.872 143.242H263.916C264.1 143.242 264.182 143.35 264.182 143.545V160.191C264.182 160.428 264.1 160.536 263.916 160.536H259.913C259.709 160.536 259.607 160.407 259.607 160.191Z" fill="#FF9A00"/>
<defs>
<clipPath id="clip0_389_322">
<rect width="23.25" height="34" fill="white" transform="translate(42.625 131)"/>
</clipPath>
</defs>
</svg>
