<svg width="28" height="28" viewBox="0 0 28 28" fill="none" xmlns="http://www.w3.org/2000/svg">
<circle cx="14" cy="14" r="14" fill="white" fill-opacity="0.06"/>
<g clip-path="url(#clip0_642_26)">
<path d="M13.9317 6.00488C9.8801 6.00488 10.1331 7.76896 10.1331 7.76896L10.1376 9.5966H14.004V10.1453H8.60191C8.60191 10.1453 6.00928 9.85009 6.00928 13.9546C6.00928 18.0592 8.27219 17.9136 8.27219 17.9136H9.62269V16.0089C9.62269 16.0089 9.54988 13.7369 11.8495 13.7369H15.6842C15.6842 13.7369 17.8387 13.7718 17.8387 11.6463V8.13182C17.8387 8.13182 18.1659 6.00488 13.9317 6.00488ZM11.7998 7.23393C11.8912 7.23385 11.9816 7.25186 12.0661 7.28692C12.1505 7.32199 12.2272 7.37343 12.2918 7.43829C12.3564 7.50316 12.4076 7.58018 12.4426 7.66494C12.4775 7.74971 12.4954 7.84055 12.4954 7.93229C12.4954 8.02402 12.4775 8.11487 12.4426 8.19963C12.4076 8.2844 12.3564 8.36142 12.2918 8.42628C12.2272 8.49115 12.1505 8.54258 12.0661 8.57765C11.9816 8.61272 11.8912 8.63072 11.7998 8.63064C11.7084 8.63072 11.6179 8.61272 11.5335 8.57765C11.4491 8.54258 11.3724 8.49115 11.3078 8.42628C11.2432 8.36142 11.1919 8.2844 11.157 8.19963C11.1221 8.11487 11.1042 8.02402 11.1042 7.93229C11.1042 7.84055 11.1221 7.74971 11.157 7.66494C11.1919 7.58018 11.2432 7.50316 11.3078 7.43829C11.3724 7.37343 11.4491 7.32199 11.5335 7.28692C11.6179 7.25186 11.7084 7.23385 11.7998 7.23393Z" fill="url(#paint0_linear_642_26)"/>
<path d="M14.0467 21.9455C18.0983 21.9455 17.8454 20.1814 17.8454 20.1814L17.8409 18.3538H13.9744V17.8051H19.3765C19.3765 17.8051 21.9691 18.1003 21.9691 13.9957C21.9691 9.8912 19.7062 10.0368 19.7062 10.0368H18.3557V11.9414C18.3557 11.9414 18.4285 14.2134 16.1289 14.2134H12.2941C12.2941 14.2134 10.1397 14.1784 10.1397 16.3041V19.8186C10.1397 19.8186 9.81249 21.9455 14.0467 21.9455H14.0467ZM16.1786 20.7165C16.0873 20.7166 15.9968 20.6986 15.9124 20.6636C15.8279 20.6285 15.7512 20.5771 15.6866 20.5122C15.622 20.4473 15.5708 20.3703 15.5359 20.2855C15.5009 20.2008 15.483 20.1099 15.4831 20.0182C15.483 19.9265 15.5009 19.8356 15.5358 19.7508C15.5708 19.6661 15.622 19.589 15.6866 19.5242C15.7512 19.4593 15.8279 19.4078 15.9124 19.3728C15.9968 19.3377 16.0873 19.3197 16.1786 19.3198C16.27 19.3197 16.3605 19.3377 16.4449 19.3728C16.5293 19.4078 16.6061 19.4593 16.6707 19.5241C16.7353 19.589 16.7865 19.666 16.8214 19.7508C16.8564 19.8356 16.8743 19.9264 16.8742 20.0181C16.8743 20.1099 16.8564 20.2007 16.8214 20.2855C16.7865 20.3702 16.7353 20.4473 16.6707 20.5121C16.6061 20.577 16.5293 20.6284 16.4449 20.6635C16.3605 20.6986 16.27 20.7166 16.1786 20.7165Z" fill="url(#paint1_linear_642_26)"/>
</g>
<defs>
<linearGradient id="paint0_linear_642_26" x1="159.383" y1="149.381" x2="953.444" y2="932.376" gradientUnits="userSpaceOnUse">
<stop stop-color="#387EB8"/>
<stop offset="1" stop-color="#366994"/>
</linearGradient>
<linearGradient id="paint1_linear_642_26" x1="236.52" y1="255.119" x2="1089.09" y2="1057.86" gradientUnits="userSpaceOnUse">
<stop stop-color="#FFE052"/>
<stop offset="1" stop-color="#FFC331"/>
</linearGradient>
<clipPath id="clip0_642_26">
<rect width="16" height="16" fill="white" transform="translate(6 6)"/>
</clipPath>
</defs>
</svg>
