<svg width="28" height="28" viewBox="0 0 28 28" fill="none" xmlns="http://www.w3.org/2000/svg">
<circle cx="14" cy="14" r="14" fill="white" fill-opacity="0.06"/>
<g clip-path="url(#clip0_642_30)">
<path d="M16.7725 14.1028H14.8956V13.1816C14.8952 12.8278 14.748 12.4886 14.4863 12.2384C14.2245 11.9883 13.8697 11.8476 13.4996 11.8472C13.1296 11.8476 12.7748 11.9884 12.5132 12.2385C12.2515 12.4887 12.1043 12.8278 12.1039 13.1816V14.1028H10.2271V13.1816C10.2271 11.4565 11.6952 10.0527 13.4999 10.0527C15.3046 10.0527 16.7727 11.4562 16.7727 13.1816V14.1028H16.7725Z" fill="#F9A11D"/>
<path d="M17.5294 14.1025H9.46986C9.30408 14.103 9.14524 14.1662 9.02802 14.2782C8.9108 14.3903 8.84473 14.5422 8.84424 14.7006V20.4004C8.84473 20.5588 8.9108 20.7107 9.02802 20.8228C9.14524 20.9348 9.30408 20.998 9.46986 20.9985H17.5294C17.6952 20.998 17.854 20.9348 17.9712 20.8228C18.0884 20.7107 18.1545 20.5588 18.155 20.4004V14.7006C18.1545 14.5422 18.0884 14.3903 17.9712 14.2782C17.854 14.1662 17.6952 14.103 17.5294 14.1025ZM13.908 17.8449V18.6172C13.9044 18.7185 13.8599 18.8144 13.7837 18.8848C13.7075 18.9552 13.6057 18.9946 13.4997 18.9946C13.3938 18.9946 13.292 18.9552 13.2158 18.8848C13.1396 18.8144 13.095 18.7185 13.0914 18.6172V17.8451C12.932 17.7589 12.8069 17.6247 12.7357 17.4634C12.6644 17.3021 12.651 17.1228 12.6976 16.9534C12.7442 16.7841 12.8481 16.6343 12.9931 16.5273C13.1382 16.4204 13.3161 16.3624 13.4993 16.3623C13.6824 16.3623 13.8605 16.4202 14.0056 16.5271C14.1506 16.6339 14.2546 16.7837 14.3013 16.953C14.348 17.1223 14.3347 17.3016 14.2636 17.463C14.1924 17.6243 14.0674 17.7586 13.908 17.8449Z" fill="#2C3C69"/>
<path d="M8.65299 13.2529H6.7082C6.55676 13.2529 6.41153 13.1954 6.30445 13.093C6.19737 12.9907 6.13721 12.8518 6.13721 12.707C6.13721 12.5623 6.19737 12.4234 6.30445 12.3211C6.41153 12.2187 6.55676 12.1612 6.7082 12.1612H8.65299C8.80443 12.1612 8.94966 12.2187 9.05675 12.3211C9.16383 12.4234 9.22399 12.5623 9.22399 12.707C9.22399 12.8518 9.16383 12.9907 9.05675 13.093C8.94966 13.1954 8.80443 13.2529 8.65299 13.2529ZM10.0228 10.3283C9.8906 10.3284 9.76247 10.2845 9.66052 10.204L8.12215 8.99463C8.00517 8.90266 7.93119 8.77002 7.91651 8.6259C7.90182 8.48178 7.94762 8.33799 8.04383 8.22615C8.14004 8.11432 8.27878 8.0436 8.42953 8.02956C8.58029 8.01552 8.7307 8.0593 8.84768 8.15128L10.3861 9.36063C10.477 9.43209 10.5427 9.52869 10.574 9.63721C10.6053 9.74572 10.6008 9.86084 10.561 9.9668C10.5213 10.0728 10.4482 10.1644 10.3518 10.2291C10.2555 10.2938 10.1406 10.3284 10.0228 10.3283ZM13.4997 9.04284C13.3482 9.04284 13.203 8.98533 13.0959 8.88296C12.9888 8.78059 12.9287 8.64174 12.9287 8.49697V6.62302C12.9287 6.47825 12.9888 6.3394 13.0959 6.23703C13.203 6.13466 13.3482 6.07715 13.4997 6.07715C13.6511 6.07715 13.7963 6.13466 13.9034 6.23703C14.0105 6.3394 14.0707 6.47825 14.0707 6.62302V8.49697C14.0707 8.64174 14.0105 8.78059 13.9034 8.88296C13.7963 8.98533 13.6511 9.04284 13.4997 9.04284ZM16.9765 10.3283C16.8588 10.3283 16.744 10.2936 16.6478 10.2289C16.5515 10.1641 16.4785 10.0725 16.4388 9.96665C16.399 9.86075 16.3944 9.7457 16.4257 9.63722C16.4569 9.52875 16.5224 9.43215 16.6133 9.36063L18.1517 8.15128C18.269 8.06291 18.418 8.02202 18.5665 8.03737C18.715 8.05272 18.8514 8.1231 18.9463 8.23342C19.0412 8.34373 19.0871 8.4852 19.0742 8.6275C19.0613 8.7698 18.9906 8.90159 18.8772 8.99463L17.3388 10.204C17.2368 10.2843 17.1087 10.3285 16.9765 10.3283ZM20.2914 13.2529H18.3282C18.1767 13.2529 18.0315 13.1954 17.9244 13.093C17.8173 12.9907 17.7572 12.8518 17.7572 12.707C17.7572 12.5623 17.8173 12.4234 17.9244 12.3211C18.0315 12.2187 18.1767 12.1612 18.3282 12.1612H20.2914C20.4428 12.1612 20.5881 12.2187 20.6951 12.3211C20.8022 12.4234 20.8624 12.5623 20.8624 12.707C20.8624 12.8518 20.8022 12.9907 20.6951 13.093C20.5881 13.1954 20.4428 13.2529 20.2914 13.2529Z" fill="#F9A11D"/>
</g>
<defs>
<clipPath id="clip0_642_30">
<rect width="15" height="15" fill="white" transform="translate(6 6)"/>
</clipPath>
</defs>
</svg>
