<svg width="28" height="28" viewBox="0 0 28 28" fill="none" xmlns="http://www.w3.org/2000/svg">
<circle cx="14" cy="14" r="14" fill="white" fill-opacity="0.06"/>
<path d="M22 14.5015C22 13.3969 20.6726 12.3501 18.6376 11.7009C19.1072 9.53931 18.8985 7.81953 17.9788 7.26893C17.7668 7.13977 17.519 7.07859 17.2483 7.07859V7.83652C17.3983 7.83652 17.519 7.86711 17.6201 7.92489C18.0636 8.18999 18.256 9.19943 18.106 10.4978C18.0701 10.8172 18.0114 11.1537 17.9397 11.497C17.3004 11.3339 16.6025 11.2081 15.8687 11.1265C15.4285 10.4978 14.9719 9.92677 14.512 9.42715C15.5752 8.39732 16.5732 7.83312 17.2515 7.83312V7.0752C16.3547 7.0752 15.1806 7.74136 13.9935 8.89694C12.8064 7.74815 11.6323 7.08879 10.7354 7.08879V7.84672C11.4105 7.84672 12.4117 8.40752 13.4749 9.43055C13.0183 9.93017 12.5618 10.4978 12.128 11.1265C11.391 11.2081 10.693 11.3339 10.0538 11.5004C9.9788 11.1605 9.92336 10.8308 9.88422 10.5148C9.73094 9.21642 9.9201 8.20699 10.3604 7.93848C10.4582 7.87731 10.5854 7.85012 10.7354 7.85012V7.09219C10.4615 7.09219 10.2136 7.15337 9.99837 7.28252C9.08194 7.83312 8.87648 9.5495 9.34937 11.7043C7.32083 12.3569 6 13.4003 6 14.5015C6 15.6061 7.32735 16.6529 9.36241 17.3021C8.89278 19.4637 9.10151 21.1835 10.0212 21.7341C10.2332 21.8633 10.481 21.9245 10.755 21.9245C11.6519 21.9245 12.8259 21.2583 14.013 20.1027C15.2002 21.2515 16.3742 21.9109 17.2711 21.9109C17.545 21.9109 17.7929 21.8497 18.0082 21.7205C18.9246 21.1699 19.13 19.4535 18.6572 17.2987C20.6792 16.6495 22 15.6027 22 14.5015ZM17.7538 12.2345C17.6331 12.673 17.4831 13.125 17.3135 13.5771C17.1798 13.3052 17.0395 13.0333 16.8863 12.7613C16.7362 12.4894 16.5764 12.2243 16.4166 11.966C16.8797 12.0374 17.3265 12.1258 17.7538 12.2345ZM16.2601 15.8542C16.0057 16.3131 15.7448 16.7481 15.4741 17.1526C14.9882 17.1968 14.4957 17.2205 14 17.2205C13.5075 17.2205 13.0151 17.1968 12.5324 17.156C12.2617 16.7515 11.9976 16.3199 11.7432 15.8644C11.4953 15.4192 11.2703 14.9672 11.0648 14.5117C11.267 14.0563 11.4953 13.6008 11.7399 13.1556C11.9943 12.6968 12.2552 12.2617 12.5259 11.8573C13.0118 11.8131 13.5043 11.7893 14 11.7893C14.4925 11.7893 14.9849 11.8131 15.4676 11.8539C15.7383 12.2583 16.0024 12.69 16.2568 13.1454C16.5047 13.5907 16.7297 14.0427 16.9352 14.4981C16.7297 14.9536 16.5047 15.409 16.2601 15.8542ZM17.3135 15.4124C17.4896 15.8678 17.6396 16.3233 17.7636 16.7651C17.3363 16.8739 16.8863 16.9656 16.4199 17.037C16.5797 16.7753 16.7395 16.5068 16.8895 16.2315C17.0395 15.9596 17.1798 15.6843 17.3135 15.4124ZM14.0065 19.0389C13.7032 18.7126 13.3999 18.3489 13.0999 17.9513C13.3934 17.9649 13.6934 17.9751 13.9967 17.9751C14.3033 17.9751 14.6066 17.9683 14.9034 17.9513C14.6099 18.3489 14.3066 18.7126 14.0065 19.0389ZM11.5801 17.037C11.117 16.9656 10.6702 16.8773 10.243 16.7685C10.3636 16.3301 10.5137 15.878 10.6832 15.426C10.817 15.6979 10.9572 15.9698 11.1105 16.2417C11.2638 16.5136 11.4203 16.7787 11.5801 17.037ZM13.9902 9.96416C14.2935 10.2904 14.5968 10.6541 14.8969 11.0518C14.6033 11.0382 14.3033 11.028 14 11.028C13.6934 11.028 13.3901 11.0348 13.0934 11.0518C13.3869 10.6541 13.6902 10.2904 13.9902 9.96416ZM11.5768 11.966C11.417 12.2277 11.2572 12.4962 11.1072 12.7715C10.9572 13.0434 10.817 13.3153 10.6832 13.5873C10.5071 13.1318 10.3571 12.6764 10.2332 12.2345C10.6604 12.1292 11.1105 12.0374 11.5768 11.966ZM8.62536 16.2213C7.47085 15.7081 6.72401 15.0351 6.72401 14.5015C6.72401 13.9679 7.47085 13.2916 8.62536 12.7817C8.90583 12.656 9.21239 12.5438 9.52874 12.4385C9.71464 13.1046 9.95923 13.798 10.2625 14.5083C9.9625 15.2153 9.72116 15.9052 9.53852 16.568C9.21566 16.4626 8.90909 16.3471 8.62536 16.2213ZM10.3799 21.0782C9.9364 20.8131 9.74399 19.8036 9.89401 18.5053C9.92988 18.1858 9.98859 17.8493 10.0603 17.506C10.6996 17.6692 11.3975 17.7949 12.1313 17.8765C12.5715 18.5053 13.0281 19.0763 13.488 19.5759C12.4248 20.6057 11.4268 21.1699 10.7485 21.1699C10.6017 21.1665 10.4778 21.1359 10.3799 21.0782ZM18.1158 18.4883C18.2691 19.7866 18.0799 20.7961 17.6396 21.0646C17.5418 21.1257 17.4146 21.1529 17.2646 21.1529C16.5895 21.1529 15.5883 20.5921 14.5251 19.5691C14.9817 19.0695 15.4382 18.5019 15.872 17.8731C16.6091 17.7915 17.307 17.6658 17.9462 17.4992C18.0212 17.8425 18.0799 18.1722 18.1158 18.4883ZM19.3714 16.2213C19.0909 16.3471 18.7843 16.4592 18.468 16.5646C18.2821 15.8984 18.0375 15.2051 17.7342 14.4947C18.0342 13.7878 18.2756 13.0978 18.4582 12.4351C18.7811 12.5404 19.0876 12.656 19.3746 12.7817C20.5291 13.295 21.276 13.9679 21.276 14.5015C21.2727 15.0351 20.5259 15.7115 19.3714 16.2213Z" fill="#61DAFB"/>
<path d="M13.9968 16.0547C14.8199 16.0547 15.4872 15.3593 15.4872 14.5015C15.4872 13.6437 14.8199 12.9482 13.9968 12.9482C13.1736 12.9482 12.5063 13.6437 12.5063 14.5015C12.5063 15.3593 13.1736 16.0547 13.9968 16.0547Z" fill="#61DAFB"/>
</svg>
