<svg width="28" height="28" viewBox="0 0 28 28" fill="none" xmlns="http://www.w3.org/2000/svg">
<circle cx="14" cy="14" r="14" fill="white" fill-opacity="0.06"/>
<g clip-path="url(#clip0_635_7)">
<path d="M9.65625 7.00195H19.3438C20.8125 7.00195 22 8.21965 22 9.72575V19.2751C22 20.7812 20.8125 21.9989 19.3438 21.9989H9.65625C8.1875 21.9989 7 20.7812 7 19.2751V9.72575C7 8.21965 8.1875 7.00195 9.65625 7.00195Z" fill="#330000"/>
<path d="M14.2688 16H11.9438L11.4688 17.5061C11.4563 17.5638 11.4063 17.6023 11.35 17.5959H10.175C10.1063 17.5959 10.0875 17.5574 10.1063 17.4805L12.1188 11.5394C12.1375 11.4753 12.1563 11.4048 12.1813 11.3279C12.2063 11.1933 12.2188 11.0523 12.2188 10.9113C12.2125 10.8793 12.2375 10.8472 12.2688 10.8408H13.8875C13.9375 10.8408 13.9625 10.8601 13.9688 10.8921L16.25 17.4933C16.2688 17.5638 16.25 17.5959 16.1875 17.5959H14.8813C14.8375 17.6023 14.7938 17.5702 14.7813 17.5254L14.2688 16ZM12.3063 14.699H13.8938C13.8563 14.5644 13.8063 14.4042 13.75 14.2376C13.6938 14.0645 13.6375 13.8787 13.5813 13.6864C13.5188 13.4877 13.4625 13.2955 13.4 13.0968C13.3375 12.8981 13.2813 12.7123 13.2313 12.5264C13.1813 12.3469 13.1375 12.1803 13.0938 12.0265H13.0813C13.025 12.3021 12.9563 12.5777 12.8688 12.8532C12.775 13.1609 12.6813 13.4813 12.5813 13.8018C12.4938 14.1286 12.4 14.4298 12.3063 14.699ZM17.6125 11.9368C17.4063 11.9432 17.2063 11.8599 17.0563 11.7125C16.9125 11.5522 16.8375 11.3407 16.8438 11.1228C16.8375 10.9049 16.9188 10.6998 17.0688 10.5524C17.2188 10.405 17.4188 10.3281 17.625 10.3281C17.8688 10.3281 18.0563 10.405 18.1938 10.5524C18.3313 10.7063 18.4063 10.9113 18.4 11.1228C18.4063 11.3407 18.3313 11.5522 18.1813 11.7125C18.0375 11.8663 17.825 11.9496 17.6125 11.9368ZM16.9125 17.4997V12.5648C16.9125 12.5008 16.9375 12.4751 16.9938 12.4751H18.2313C18.2875 12.4751 18.3125 12.5072 18.3125 12.5648V17.4997C18.3125 17.5702 18.2875 17.6023 18.2313 17.6023H17.0063C16.9438 17.6023 16.9125 17.5638 16.9125 17.4997Z" fill="#FF9A00"/>
</g>
<defs>
<clipPath id="clip0_635_7">
<rect width="15" height="15" fill="white" transform="translate(7 7)"/>
</clipPath>
</defs>
</svg>
