<svg width="28" height="28" viewBox="0 0 28 28" fill="none" xmlns="http://www.w3.org/2000/svg">
<circle cx="14" cy="14" r="14" fill="white" fill-opacity="0.06"/>
<g clip-path="url(#clip0_635_2)">
<path d="M14 14.0003C14 12.7117 15.1191 11.667 16.4995 11.667C17.8799 11.667 18.999 12.7117 18.999 14.0003C18.999 15.289 17.8799 16.3337 16.4995 16.3337C15.1191 16.3337 14 15.289 14 14.0003Z" fill="#1ABCFE"/>
<path d="M9.00101 18.6663C9.00101 17.3777 10.1201 16.333 11.5005 16.333H14V18.6663C14 19.955 12.881 20.9997 11.5005 20.9997C10.1201 20.9997 9.00101 19.955 9.00101 18.6663Z" fill="#0ACF83"/>
<path d="M14 7V11.6666H16.4995C17.8799 11.6666 18.999 10.622 18.999 9.3333C18.999 8.04463 17.8799 7 16.4995 7H14Z" fill="#FF7262"/>
<path d="M9.00101 9.33333C9.00101 10.622 10.1201 11.6667 11.5005 11.6667H14V7H11.5005C10.1201 7 9.00101 8.04469 9.00101 9.33333Z" fill="#F24E1E"/>
<path d="M9.00101 14.0003C9.00101 15.289 10.1201 16.3337 11.5005 16.3337H14V11.667H11.5005C10.1201 11.667 9.00101 12.7117 9.00101 14.0003Z" fill="#A259FF"/>
</g>
<defs>
<clipPath id="clip0_635_2">
<rect width="10" height="14" fill="white" transform="translate(9 7)"/>
</clipPath>
</defs>
</svg>
