<svg width="321" height="311" viewBox="0 0 321 311" fill="none" xmlns="http://www.w3.org/2000/svg">
<g filter="url(#filter0_f_641_24)">
<ellipse cx="160.461" cy="155.384" rx="46.1554" ry="83.6663" transform="rotate(48.896 160.461 155.384)" fill="url(#paint0_linear_641_24)" fill-opacity="0.2"/>
</g>
<path d="M94 125C94 128.36 94.28 131.4 94.84 134.12C95.48 136.76 96.32 139.04 97.36 140.96C98.48 142.8 99.76 144.2 101.2 145.16C102.64 146.12 104.24 146.6 106 146.6C107.76 146.6 109.36 146.12 110.8 145.16C112.24 144.2 113.48 142.8 114.52 140.96C115.64 139.04 116.48 136.76 117.04 134.12C117.68 131.4 118 128.36 118 125C118 121.64 117.68 118.64 117.04 116C116.48 113.28 115.64 111 114.52 109.16C113.48 107.24 112.24 105.8 110.8 104.84C109.36 103.88 107.76 103.4 106 103.4C104.24 103.4 102.64 103.88 101.2 104.84C99.76 105.8 98.48 107.24 97.36 109.16C96.32 111 95.48 113.28 94.84 116C94.28 118.64 94 121.64 94 125ZM68.8 125C68.8 115.4 70.36 107.36 73.48 100.88C76.6 94.4 80.96 89.52 86.56 86.24C92.16 82.88 98.64 81.2 106 81.2C113.76 81.2 120.4 82.88 125.92 86.24C131.52 89.52 135.8 94.4 138.76 100.88C141.72 107.36 143.2 115.4 143.2 125C143.2 134.6 141.72 142.64 138.76 149.12C135.8 155.6 131.52 160.52 125.92 163.88C120.4 167.16 113.76 168.8 106 168.8C98.64 168.8 92.16 167.16 86.56 163.88C80.96 160.52 76.6 155.6 73.48 149.12C70.36 142.64 68.8 134.6 68.8 125ZM150.423 167L186.543 130.4C189.023 127.68 191.143 125.32 192.903 123.32C194.743 121.24 196.143 119.24 197.103 117.32C198.063 115.4 198.543 113.36 198.543 111.2C198.543 110.16 198.383 109.16 198.063 108.2C197.743 107.24 197.223 106.4 196.503 105.68C195.783 104.96 194.863 104.4 193.743 104C192.703 103.52 191.423 103.28 189.903 103.28C187.903 103.28 186.143 103.84 184.623 104.96C183.103 106 181.903 107.44 181.023 109.28C180.223 111.12 179.823 113.16 179.823 115.4H154.023C154.023 109.4 155.383 103.8 158.103 98.6C160.823 93.4 164.903 89.2 170.343 86C175.863 82.72 182.703 81.08 190.863 81.08C196.383 81.08 201.303 81.88 205.623 83.48C210.023 85 213.703 87.12 216.663 89.84C219.703 92.48 221.983 95.48 223.503 98.84C225.103 102.2 225.903 105.68 225.903 109.28C225.903 113.92 224.743 118.04 222.423 121.64C220.103 125.16 217.023 128.4 213.183 131.36L198.063 143H228.903V167H150.423Z" fill="url(#paint1_linear_641_24)"/>
<defs>
<filter id="filter0_f_641_24" x="0.478516" y="0.297852" width="319.965" height="310.172" filterUnits="userSpaceOnUse" color-interpolation-filters="sRGB">
<feFlood flood-opacity="0" result="BackgroundImageFix"/>
<feBlend mode="normal" in="SourceGraphic" in2="BackgroundImageFix" result="shape"/>
<feGaussianBlur stdDeviation="45" result="effect1_foregroundBlur_641_24"/>
</filter>
<linearGradient id="paint0_linear_641_24" x1="160.461" y1="71.7177" x2="160.461" y2="239.05" gradientUnits="userSpaceOnUse">
<stop stop-color="white" stop-opacity="0.51"/>
<stop offset="0.692308" stop-color="#CCC5B9"/>
</linearGradient>
<linearGradient id="paint1_linear_641_24" x1="149" y1="39" x2="149" y2="212" gradientUnits="userSpaceOnUse">
<stop stop-color="white"/>
<stop offset="0.716346" stop-color="#999999" stop-opacity="0"/>
</linearGradient>
</defs>
</svg>
