<svg width="321" height="311" viewBox="0 0 321 311" fill="none" xmlns="http://www.w3.org/2000/svg">
<g filter="url(#filter0_f_642_25)">
<ellipse cx="160.461" cy="155.384" rx="46.1554" ry="83.6663" transform="rotate(48.896 160.461 155.384)" fill="url(#paint0_linear_642_25)" fill-opacity="0.2"/>
</g>
<path d="M94 125C94 128.36 94.28 131.4 94.84 134.12C95.48 136.76 96.32 139.04 97.36 140.96C98.48 142.8 99.76 144.2 101.2 145.16C102.64 146.12 104.24 146.6 106 146.6C107.76 146.6 109.36 146.12 110.8 145.16C112.24 144.2 113.48 142.8 114.52 140.96C115.64 139.04 116.48 136.76 117.04 134.12C117.68 131.4 118 128.36 118 125C118 121.64 117.68 118.64 117.04 116C116.48 113.28 115.64 111 114.52 109.16C113.48 107.24 112.24 105.8 110.8 104.84C109.36 103.88 107.76 103.4 106 103.4C104.24 103.4 102.64 103.88 101.2 104.84C99.76 105.8 98.48 107.24 97.36 109.16C96.32 111 95.48 113.28 94.84 116C94.28 118.64 94 121.64 94 125ZM68.8 125C68.8 115.4 70.36 107.36 73.48 100.88C76.6 94.4 80.96 89.52 86.56 86.24C92.16 82.88 98.64 81.2 106 81.2C113.76 81.2 120.4 82.88 125.92 86.24C131.52 89.52 135.8 94.4 138.76 100.88C141.72 107.36 143.2 115.4 143.2 125C143.2 134.6 141.72 142.64 138.76 149.12C135.8 155.6 131.52 160.52 125.92 163.88C120.4 167.16 113.76 168.8 106 168.8C98.64 168.8 92.16 167.16 86.56 163.88C80.96 160.52 76.6 155.6 73.48 149.12C70.36 142.64 68.8 134.6 68.8 125ZM182.583 126.8V116.12C184.663 116.12 186.583 115.88 188.343 115.4C190.183 114.92 191.743 114.24 193.023 113.36C194.383 112.48 195.423 111.48 196.143 110.36C196.863 109.24 197.223 108.08 197.223 106.88C197.223 105.84 196.943 104.92 196.383 104.12C195.823 103.32 194.983 102.72 193.863 102.32C192.823 101.84 191.423 101.6 189.663 101.6C186.943 101.6 184.743 102.36 183.063 103.88C181.383 105.4 180.543 107.4 180.543 109.88H156.423C156.423 104.52 157.783 99.68 160.503 95.36C163.223 91.04 167.063 87.6 172.023 85.04C177.063 82.48 182.983 81.2 189.783 81.2C196.983 81.2 203.063 82.24 208.023 84.32C212.983 86.4 216.743 89.24 219.303 92.84C221.863 96.44 223.143 100.52 223.143 105.08C223.143 110.44 221.303 114.72 217.623 117.92C213.943 121.04 209.023 123.32 202.863 124.76C196.783 126.12 190.023 126.8 182.583 126.8ZM188.583 169.4C182.903 169.4 177.823 168.52 173.343 166.76C168.943 165 165.223 162.6 162.183 159.56C159.143 156.52 156.823 153.12 155.223 149.36C153.623 145.52 152.823 141.6 152.823 137.6H178.743C178.743 140.4 179.263 142.64 180.303 144.32C181.423 146 182.823 147.2 184.503 147.92C186.263 148.64 188.023 149 189.783 149C191.623 149 193.263 148.8 194.703 148.4C196.223 147.92 197.423 147.12 198.303 146C199.183 144.8 199.623 143.2 199.623 141.2C199.623 140 199.343 138.84 198.783 137.72C198.223 136.52 197.303 135.48 196.023 134.6C194.743 133.64 192.983 132.92 190.743 132.44C188.583 131.88 185.863 131.6 182.583 131.6V119.12C189.063 119.12 194.903 119.6 200.103 120.56C205.383 121.44 209.903 122.88 213.663 124.88C217.503 126.88 220.423 129.44 222.423 132.56C224.503 135.6 225.543 139.28 225.543 143.6C225.543 148.56 224.103 153 221.223 156.92C218.423 160.76 214.263 163.8 208.743 166.04C203.303 168.28 196.583 169.4 188.583 169.4Z" fill="url(#paint1_linear_642_25)"/>
<defs>
<filter id="filter0_f_642_25" x="0.478516" y="0.297852" width="319.965" height="310.172" filterUnits="userSpaceOnUse" color-interpolation-filters="sRGB">
<feFlood flood-opacity="0" result="BackgroundImageFix"/>
<feBlend mode="normal" in="SourceGraphic" in2="BackgroundImageFix" result="shape"/>
<feGaussianBlur stdDeviation="45" result="effect1_foregroundBlur_642_25"/>
</filter>
<linearGradient id="paint0_linear_642_25" x1="160.461" y1="71.7177" x2="160.461" y2="239.05" gradientUnits="userSpaceOnUse">
<stop stop-color="white" stop-opacity="0.51"/>
<stop offset="0.692308" stop-color="#CCC5B9"/>
</linearGradient>
<linearGradient id="paint1_linear_642_25" x1="146" y1="39" x2="146" y2="212" gradientUnits="userSpaceOnUse">
<stop stop-color="white"/>
<stop offset="0.716346" stop-color="#999999" stop-opacity="0"/>
</linearGradient>
</defs>
</svg>
