<svg width="1494" height="552" viewBox="0 0 1494 552" fill="none" xmlns="http://www.w3.org/2000/svg">
<mask id="path-1-outside-1_142_6152" maskUnits="userSpaceOnUse" x="281" y="175" width="180" height="247" fill="black">
<rect fill="white" x="281" y="175" width="180" height="247"/>
<path d="M335.7 421V359.75H459.25V421H335.7ZM335.7 237.25V176H459.25V237.25H335.7ZM335.7 324.75V265.25H452.25V324.75H335.7ZM282.5 176H356V421H282.5V176Z"/>
</mask>
<path d="M335.7 421H334.7V422H335.7V421ZM335.7 359.75V358.75H334.7V359.75H335.7ZM459.25 359.75H460.25V358.75H459.25V359.75ZM459.25 421V422H460.25V421H459.25ZM335.7 237.25H334.7V238.25H335.7V237.25ZM335.7 176V175H334.7V176H335.7ZM459.25 176H460.25V175H459.25V176ZM459.25 237.25V238.25H460.25V237.25H459.25ZM335.7 324.75H334.7V325.75H335.7V324.75ZM335.7 265.25V264.25H334.7V265.25H335.7ZM452.25 265.25H453.25V264.25H452.25V265.25ZM452.25 324.75V325.75H453.25V324.75H452.25ZM282.5 176V175H281.5V176H282.5ZM356 176H357V175H356V176ZM356 421V422H357V421H356ZM282.5 421H281.5V422H282.5V421ZM335.7 421H336.7V359.75H335.7H334.7V421H335.7ZM335.7 359.75V360.75H459.25V359.75V358.75H335.7V359.75ZM459.25 359.75H458.25V421H459.25H460.25V359.75H459.25ZM459.25 421V420H335.7V421V422H459.25V421ZM335.7 237.25H336.7V176H335.7H334.7V237.25H335.7ZM335.7 176V177H459.25V176V175H335.7V176ZM459.25 176H458.25V237.25H459.25H460.25V176H459.25ZM459.25 237.25V236.25H335.7V237.25V238.25H459.25V237.25ZM335.7 324.75H336.7V265.25H335.7H334.7V324.75H335.7ZM335.7 265.25V266.25H452.25V265.25V264.25H335.7V265.25ZM452.25 265.25H451.25V324.75H452.25H453.25V265.25H452.25ZM452.25 324.75V323.75H335.7V324.75V325.75H452.25V324.75ZM282.5 176V177H356V176V175H282.5V176ZM356 176H355V421H356H357V176H356ZM356 421V420H282.5V421V422H356V421ZM282.5 421H283.5V176H282.5H281.5V421H282.5Z" fill="white" fill-opacity="0.1" mask="url(#path-1-outside-1_142_6152)"/>
<mask id="path-3-outside-2_142_6152" maskUnits="userSpaceOnUse" x="10" y="175" width="236" height="247" fill="black">
<rect fill="white" x="10" y="175" width="236" height="247"/>
<path d="M11.5 176H91.65V421H11.5V176ZM107.75 421H64.7V354.5H104.25C111.017 354.5 117.9 353.917 124.9 352.75C131.9 351.583 138.317 349.133 144.15 345.4C149.983 341.667 154.65 336.067 158.15 328.6C161.883 321.133 163.75 311.1 163.75 298.5C163.75 285.9 161.883 275.867 158.15 268.4C154.65 260.933 149.983 255.333 144.15 251.6C138.317 247.867 131.9 245.417 124.9 244.25C117.9 243.083 111.017 242.5 104.25 242.5H64.7V176H107.75C136.217 176 160.6 180.9 180.9 190.7C201.433 200.5 217.067 214.5 227.8 232.7C238.767 250.9 244.25 272.833 244.25 298.5C244.25 323.933 238.767 345.867 227.8 364.3C217.067 382.5 201.433 396.5 180.9 406.3C160.6 416.1 136.217 421 107.75 421Z"/>
</mask>
<path d="M11.5 176V175H10.5V176H11.5ZM91.65 176H92.65V175H91.65V176ZM91.65 421V422H92.65V421H91.65ZM11.5 421H10.5V422H11.5V421ZM64.7 421H63.7V422H64.7V421ZM64.7 354.5V353.5H63.7V354.5H64.7ZM158.15 328.6L157.256 328.153L157.25 328.164L157.245 328.176L158.15 328.6ZM158.15 268.4L157.245 268.824L157.25 268.836L157.256 268.847L158.15 268.4ZM144.15 251.6L144.689 250.758H144.689L144.15 251.6ZM124.9 244.25L124.736 245.236L124.9 244.25ZM64.7 242.5H63.7V243.5H64.7V242.5ZM64.7 176V175H63.7V176H64.7ZM180.9 190.7L180.465 191.601L180.469 191.602L180.9 190.7ZM227.8 232.7L226.939 233.208L226.943 233.216L227.8 232.7ZM227.8 364.3L226.941 363.789L226.939 363.792L227.8 364.3ZM180.9 406.3L180.469 405.398L180.465 405.399L180.9 406.3ZM11.5 176V177H91.65V176V175H11.5V176ZM91.65 176H90.65V421H91.65H92.65V176H91.65ZM91.65 421V420H11.5V421V422H91.65V421ZM11.5 421H12.5V176H11.5H10.5V421H11.5ZM107.75 421V420H64.7V421V422H107.75V421ZM64.7 421H65.7V354.5H64.7H63.7V421H64.7ZM64.7 354.5V355.5H104.25V354.5V353.5H64.7V354.5ZM104.25 354.5V355.5C111.074 355.5 118.013 354.912 125.064 353.736L124.9 352.75L124.736 351.764C117.787 352.922 110.959 353.5 104.25 353.5V354.5ZM124.9 352.75L125.064 353.736C132.194 352.548 138.739 350.05 144.689 346.242L144.15 345.4L143.611 344.558C137.894 348.216 131.606 350.619 124.736 351.764L124.9 352.75ZM144.15 345.4L144.689 346.242C150.71 342.389 155.491 336.629 159.055 329.024L158.15 328.6L157.245 328.176C153.809 335.504 149.257 340.944 143.611 344.558L144.15 345.4ZM158.15 328.6L159.044 329.047C162.874 321.389 164.75 311.183 164.75 298.5H163.75H162.75C162.75 311.017 160.893 320.878 157.256 328.153L158.15 328.6ZM163.75 298.5H164.75C164.75 285.817 162.874 275.611 159.044 267.953L158.15 268.4L157.256 268.847C160.893 276.122 162.75 285.983 162.75 298.5H163.75ZM158.15 268.4L159.055 267.976C155.491 260.371 150.71 254.611 144.689 250.758L144.15 251.6L143.611 252.442C149.257 256.056 153.809 261.496 157.245 268.824L158.15 268.4ZM144.15 251.6L144.689 250.758C138.739 246.95 132.194 244.452 125.064 243.264L124.9 244.25L124.736 245.236C131.606 246.381 137.894 248.784 143.611 252.442L144.15 251.6ZM124.9 244.25L125.064 243.264C118.013 242.088 111.074 241.5 104.25 241.5V242.5V243.5C110.959 243.5 117.787 244.078 124.736 245.236L124.9 244.25ZM104.25 242.5V241.5H64.7V242.5V243.5H104.25V242.5ZM64.7 242.5H65.7V176H64.7H63.7V242.5H64.7ZM64.7 176V177H107.75V176V175H64.7V176ZM107.75 176V177C136.105 177 160.332 181.881 180.465 191.601L180.9 190.7L181.335 189.799C160.868 179.919 136.329 175 107.75 175V176ZM180.9 190.7L180.469 191.602C200.837 201.324 216.314 215.193 226.939 233.208L227.8 232.7L228.661 232.192C217.819 213.807 202.029 199.676 181.331 189.798L180.9 190.7ZM227.8 232.7L226.943 233.216C237.798 251.231 243.25 272.977 243.25 298.5H244.25H245.25C245.25 272.689 239.735 250.569 228.657 232.184L227.8 232.7ZM244.25 298.5H243.25C243.25 323.787 237.799 345.537 226.941 363.789L227.8 364.3L228.659 364.811C239.734 346.197 245.25 324.08 245.25 298.5H244.25ZM227.8 364.3L226.939 363.792C216.314 381.807 200.837 395.676 180.469 405.398L180.9 406.3L181.331 407.202C202.029 397.324 217.819 383.193 228.661 364.808L227.8 364.3ZM180.9 406.3L180.465 405.399C160.332 415.119 136.105 420 107.75 420V421V422C136.329 422 160.868 417.081 181.335 407.201L180.9 406.3Z" fill="white" fill-opacity="0.1" mask="url(#path-3-outside-2_142_6152)"/>
<mask id="path-5-outside-3_142_6152" maskUnits="userSpaceOnUse" x="509" y="168" width="216" height="265" fill="black">
<rect fill="white" x="509" y="168" width="216" height="265"/>
<path d="M562.3 327.9C566.967 336.067 572.333 343.183 578.4 349.25C584.467 355.083 591 359.517 598 362.55C605.233 365.583 612.467 367.1 619.7 367.1C625.767 367.1 630.9 365.933 635.1 363.6C639.3 361.033 641.4 357.067 641.4 351.7C641.4 348.433 640.233 345.633 637.9 343.3C635.8 340.967 631.483 338.283 624.95 335.25C618.417 332.217 608.5 328.133 595.2 323C589.367 320.667 582.6 317.517 574.9 313.55C567.433 309.583 560.2 304.45 553.2 298.15C546.433 291.85 540.717 284.15 536.05 275.05C531.617 265.95 529.4 255.217 529.4 242.85C529.4 226.75 533.717 213.217 542.35 202.25C550.983 191.283 562.417 183 576.65 177.4C590.883 171.8 606.517 169 623.55 169C641.983 169 657.733 171.8 670.8 177.4C684.1 183 694.95 190 703.35 198.4C711.983 206.8 718.517 215.2 722.95 223.6L665.9 255.1C662.167 249.267 657.967 244.717 653.3 241.45C648.867 237.95 644.317 235.383 639.65 233.75C634.983 232.117 630.433 231.3 626 231.3C620.633 231.3 616.2 232.233 612.7 234.1C609.433 235.967 607.8 238.883 607.8 242.85C607.8 247.75 610.133 251.833 614.8 255.1C619.7 258.133 626.117 261.05 634.05 263.85C641.983 266.417 650.733 269.45 660.3 272.95C670.1 276.45 678.85 280.65 686.55 285.55C694.25 290.217 700.783 295.7 706.15 302C711.75 308.3 715.95 315.417 718.75 323.35C721.55 331.05 722.95 339.683 722.95 349.25C722.95 362.783 720.15 374.8 714.55 385.3C708.95 395.567 701.367 404.083 691.8 410.85C682.467 417.617 671.85 422.75 659.95 426.25C648.05 429.75 635.8 431.5 623.2 431.5C605.7 431.5 589.367 428.583 574.2 422.75C559.267 417.15 546.317 409.333 535.35 399.3C524.383 389.267 516.1 378.067 510.5 365.7L562.3 327.9Z"/>
</mask>
<path d="M562.3 327.9L563.168 327.404L562.614 326.433L561.711 327.092L562.3 327.9ZM578.4 349.25L577.693 349.957L577.7 349.964L577.707 349.971L578.4 349.25ZM598 362.55L597.602 363.468L597.613 363.472L598 362.55ZM635.1 363.6L635.586 364.474L635.604 364.464L635.621 364.453L635.1 363.6ZM637.9 343.3L637.157 343.969L637.174 343.988L637.193 344.007L637.9 343.3ZM624.95 335.25L624.529 336.157L624.95 335.25ZM595.2 323L594.829 323.929L594.84 323.933L595.2 323ZM574.9 313.55L574.431 314.433L574.442 314.439L574.9 313.55ZM553.2 298.15L552.519 298.882L552.525 298.888L552.531 298.893L553.2 298.15ZM536.05 275.05L535.151 275.488L535.156 275.497L535.16 275.506L536.05 275.05ZM542.35 202.25L543.136 202.869H543.136L542.35 202.25ZM576.65 177.4L577.016 178.331L576.65 177.4ZM670.8 177.4L670.406 178.319L670.412 178.322L670.8 177.4ZM703.35 198.4L702.643 199.107L702.653 199.117L703.35 198.4ZM722.95 223.6L723.433 224.475L724.292 224.001L723.834 223.133L722.95 223.6ZM665.9 255.1L665.058 255.639L665.563 256.428L666.383 255.975L665.9 255.1ZM653.3 241.45L652.68 242.235L652.703 242.253L652.727 242.269L653.3 241.45ZM612.7 234.1L612.229 233.218L612.217 233.225L612.204 233.232L612.7 234.1ZM614.8 255.1L614.227 255.919L614.25 255.935L614.274 255.95L614.8 255.1ZM634.05 263.85L633.717 264.793L633.73 264.797L633.742 264.801L634.05 263.85ZM660.3 272.95L659.956 273.889L659.964 273.892L660.3 272.95ZM686.55 285.55L686.013 286.394L686.022 286.4L686.032 286.405L686.55 285.55ZM706.15 302L705.389 302.648L705.396 302.656L705.403 302.664L706.15 302ZM718.75 323.35L717.807 323.683L717.81 323.692L718.75 323.35ZM714.55 385.3L715.428 385.779L715.432 385.771L714.55 385.3ZM691.8 410.85L691.223 410.034L691.213 410.04L691.8 410.85ZM574.2 422.75L574.559 421.817L574.551 421.814L574.2 422.75ZM535.35 399.3L536.025 398.562L535.35 399.3ZM510.5 365.7L509.911 364.892L509.254 365.372L509.589 366.113L510.5 365.7ZM562.3 327.9L561.432 328.396C566.138 336.633 571.558 343.822 577.693 349.957L578.4 349.25L579.107 348.543C573.109 342.545 567.795 335.501 563.168 327.404L562.3 327.9ZM578.4 349.25L577.707 349.971C583.851 355.878 590.482 360.382 597.602 363.468L598 362.55L598.398 361.632C591.518 358.651 585.083 354.288 579.093 348.529L578.4 349.25ZM598 362.55L597.613 363.472C604.959 366.553 612.323 368.1 619.7 368.1V367.1V366.1C612.61 366.1 605.508 364.614 598.387 361.628L598 362.55ZM619.7 367.1V368.1C625.893 368.1 631.203 366.909 635.586 364.474L635.1 363.6L634.614 362.726C630.597 364.958 625.641 366.1 619.7 366.1V367.1ZM635.1 363.6L635.621 364.453C640.15 361.686 642.4 357.377 642.4 351.7H641.4H640.4C640.4 356.756 638.45 360.381 634.579 362.747L635.1 363.6ZM641.4 351.7H642.4C642.4 348.165 641.126 345.112 638.607 342.593L637.9 343.3L637.193 344.007C639.341 346.155 640.4 348.702 640.4 351.7H641.4ZM637.9 343.3L638.643 342.631C636.394 340.132 631.909 337.378 625.371 334.343L624.95 335.25L624.529 336.157C631.058 339.188 635.206 341.801 637.157 343.969L637.9 343.3ZM624.95 335.25L625.371 334.343C618.807 331.295 608.865 327.202 595.56 322.067L595.2 323L594.84 323.933C608.135 329.064 618.027 333.138 624.529 336.157L624.95 335.25ZM595.2 323L595.571 322.072C589.776 319.753 583.039 316.618 575.358 312.661L574.9 313.55L574.442 314.439C582.161 318.415 588.957 321.58 594.829 323.928L595.2 323ZM574.9 313.55L575.369 312.667C567.982 308.743 560.815 303.658 553.869 297.407L553.2 298.15L552.531 298.893C559.585 305.242 566.884 310.424 574.431 314.433L574.9 313.55ZM553.2 298.15L553.881 297.418C547.208 291.205 541.559 283.601 536.94 274.594L536.05 275.05L535.16 275.506C539.874 284.699 545.658 292.495 552.519 298.882L553.2 298.15ZM536.05 275.05L536.949 274.612C532.595 265.675 530.4 255.098 530.4 242.85H529.4H528.4C528.4 255.335 530.638 266.225 535.151 275.488L536.05 275.05ZM529.4 242.85H530.4C530.4 226.938 534.662 213.633 543.136 202.869L542.35 202.25L541.564 201.631C532.771 212.801 528.4 226.562 528.4 242.85H529.4ZM542.35 202.25L543.136 202.869C551.649 192.054 562.932 183.872 577.016 178.331L576.65 177.4L576.284 176.469C561.902 182.128 550.318 190.512 541.564 201.631L542.35 202.25ZM576.65 177.4L577.016 178.331C591.12 172.781 606.628 170 623.55 170V169V168C606.406 168 590.646 170.819 576.284 176.469L576.65 177.4ZM623.55 169V170C641.886 170 657.495 172.786 670.406 178.319L670.8 177.4L671.194 176.481C657.972 170.814 642.08 168 623.55 168V169ZM670.8 177.4L670.412 178.322C683.618 183.882 694.352 190.816 702.643 199.107L703.35 198.4L704.057 197.693C695.548 189.184 684.582 182.118 671.188 176.478L670.8 177.4ZM703.35 198.4L702.653 199.117C711.23 207.462 717.692 215.78 722.066 224.067L722.95 223.6L723.834 223.133C719.341 214.62 712.737 206.138 704.047 197.683L703.35 198.4ZM722.95 223.6L722.467 222.725L665.417 254.225L665.9 255.1L666.383 255.975L723.433 224.475L722.95 223.6ZM665.9 255.1L666.742 254.561C662.953 248.641 658.668 243.987 653.873 240.631L653.3 241.45L652.727 242.269C657.266 245.447 661.38 249.893 665.058 255.639L665.9 255.1ZM653.3 241.45L653.92 240.665C649.412 237.106 644.765 234.481 639.98 232.806L639.65 233.75L639.32 234.694C643.868 236.286 648.322 238.794 652.68 242.235L653.3 241.45ZM639.65 233.75L639.98 232.806C635.22 231.14 630.558 230.3 626 230.3V231.3V232.3C630.309 232.3 634.747 233.093 639.32 234.694L639.65 233.75ZM626 231.3V230.3C620.525 230.3 615.916 231.251 612.229 233.218L612.7 234.1L613.171 234.982C616.484 233.215 620.742 232.3 626 232.3V231.3ZM612.7 234.1L612.204 233.232C608.605 235.288 606.8 238.548 606.8 242.85H607.8H608.8C608.8 239.218 610.261 236.645 613.196 234.968L612.7 234.1ZM607.8 242.85H606.8C606.8 248.133 609.343 252.5 614.227 255.919L614.8 255.1L615.373 254.281C610.924 251.166 608.8 247.367 608.8 242.85H607.8ZM614.8 255.1L614.274 255.95C619.256 259.034 625.744 261.979 633.717 264.793L634.05 263.85L634.383 262.907C626.489 260.121 620.145 257.232 615.326 254.25L614.8 255.1ZM634.05 263.85L633.742 264.801C641.661 267.363 650.399 270.393 659.956 273.889L660.3 272.95L660.644 272.011C651.068 268.507 642.305 265.47 634.358 262.899L634.05 263.85ZM660.3 272.95L659.964 273.892C669.703 277.37 678.384 281.539 686.013 286.394L686.55 285.55L687.087 284.706C679.316 279.761 670.497 275.53 660.636 272.008L660.3 272.95ZM686.55 285.55L686.032 286.405C693.648 291.021 700.097 296.437 705.389 302.648L706.15 302L706.911 301.352C701.469 294.963 694.852 289.412 687.068 284.695L686.55 285.55ZM706.15 302L705.403 302.664C710.917 308.868 715.05 315.872 717.807 323.683L718.75 323.35L719.693 323.017C716.85 314.961 712.583 307.732 706.897 301.336L706.15 302ZM718.75 323.35L717.81 323.692C720.564 331.266 721.95 339.781 721.95 349.25H722.95H723.95C723.95 339.586 722.536 330.834 719.69 323.008L718.75 323.35ZM722.95 349.25H721.95C721.95 362.642 719.18 374.493 713.668 384.829L714.55 385.3L715.432 385.771C721.12 375.107 723.95 362.925 723.95 349.25H722.95ZM714.55 385.3L713.672 384.821C708.145 394.954 700.665 403.355 691.223 410.034L691.8 410.85L692.377 411.666C702.068 404.812 709.755 396.18 715.428 385.779L714.55 385.3ZM691.8 410.85L691.213 410.04C681.979 416.735 671.467 421.82 659.668 425.291L659.95 426.25L660.232 427.209C672.233 423.68 682.955 418.498 692.387 411.66L691.8 410.85ZM659.95 426.25L659.668 425.291C647.861 428.763 635.706 430.5 623.2 430.5V431.5V432.5C635.894 432.5 648.239 430.737 660.232 427.209L659.95 426.25ZM623.2 431.5V430.5C605.813 430.5 589.603 427.603 574.559 421.817L574.2 422.75L573.841 423.683C589.131 429.564 605.587 432.5 623.2 432.5V431.5ZM574.2 422.75L574.551 421.814C559.729 416.255 546.891 408.503 536.025 398.562L535.35 399.3L534.675 400.038C545.743 410.164 558.805 418.045 573.849 423.686L574.2 422.75ZM535.35 399.3L536.025 398.562C525.149 388.611 516.95 377.52 511.411 365.287L510.5 365.7L509.589 366.113C515.25 378.614 523.618 389.922 534.675 400.038L535.35 399.3ZM510.5 365.7L511.089 366.508L562.889 328.708L562.3 327.9L561.711 327.092L509.911 364.892L510.5 365.7Z" fill="white" fill-opacity="0.1" mask="url(#path-5-outside-3_142_6152)"/>
<mask id="path-7-outside-4_142_6152" maskUnits="userSpaceOnUse" x="778" y="175" width="82" height="247" fill="black">
<rect fill="white" x="778" y="175" width="82" height="247"/>
<path d="M779.5 176H858.25V421H779.5V176Z"/>
</mask>
<path d="M779.5 176V175H778.5V176H779.5ZM858.25 176H859.25V175H858.25V176ZM858.25 421V422H859.25V421H858.25ZM779.5 421H778.5V422H779.5V421ZM779.5 176V177H858.25V176V175H779.5V176ZM858.25 176H857.25V421H858.25H859.25V176H858.25ZM858.25 421V420H779.5V421V422H858.25V421ZM779.5 421H780.5V176H779.5H778.5V421H779.5Z" fill="white" fill-opacity="0.1" mask="url(#path-7-outside-4_142_6152)"/>
<mask id="path-9-outside-5_142_6152" maskUnits="userSpaceOnUse" x="897" y="168" width="274" height="265" fill="black">
<rect fill="white" x="897" y="168" width="274" height="265"/>
<path d="M1038.5 337V281H1168.7C1170.57 302 1168.93 321.6 1163.8 339.8C1158.9 358 1150.85 373.983 1139.65 387.75C1128.45 401.517 1114.33 412.25 1097.3 419.95C1080.27 427.65 1060.67 431.5 1038.5 431.5C1017.97 431.5 999.183 428.35 982.15 422.05C965.117 415.75 950.3 406.767 937.7 395.1C925.333 383.433 915.65 369.433 908.65 353.1C901.883 336.767 898.5 318.567 898.5 298.5C898.5 278.433 902.117 260.467 909.35 244.6C916.583 228.5 926.617 214.85 939.45 203.65C952.517 192.45 967.683 183.933 984.95 178.1C1002.45 172.033 1021.47 169 1042 169C1060.67 169 1077.12 171.8 1091.35 177.4C1105.82 183 1118.42 190.467 1129.15 199.8C1140.12 208.9 1149.68 219.167 1157.85 230.6L1086.1 262.8C1081.9 255.1 1076.42 248.333 1069.65 242.5C1062.88 236.667 1053.67 233.75 1042 233.75C1030.57 233.75 1020.07 236.2 1010.5 241.1C1000.93 245.767 993.233 252.883 987.4 262.45C981.8 272.017 979 284.033 979 298.5C979 312.733 981.567 324.983 986.7 335.25C992.067 345.517 999.417 353.333 1008.75 358.7C1018.32 364.067 1029.4 366.75 1042 366.75C1049 366.75 1055.18 366.05 1060.55 364.65C1066.15 363.25 1071.05 361.267 1075.25 358.7C1079.45 356.133 1083.07 352.983 1086.1 349.25C1089.13 345.517 1091.7 341.433 1093.8 337H1038.5Z"/>
</mask>
<path d="M1038.5 337H1037.5V338H1038.5V337ZM1038.5 281V280H1037.5V281H1038.5ZM1168.7 281L1169.7 280.911L1169.62 280H1168.7V281ZM1163.8 339.8L1162.84 339.529L1162.83 339.54L1163.8 339.8ZM1139.65 387.75L1140.43 388.381L1139.65 387.75ZM1097.3 419.95L1097.71 420.861L1097.3 419.95ZM982.15 422.05L982.497 421.112L982.15 422.05ZM937.7 395.1L937.014 395.827L937.021 395.834L937.7 395.1ZM908.65 353.1L907.726 353.483L907.731 353.494L908.65 353.1ZM909.35 244.6L910.26 245.015L910.262 245.01L909.35 244.6ZM939.45 203.65L938.799 202.891L938.792 202.897L939.45 203.65ZM984.95 178.1L985.27 179.047L985.278 179.045L984.95 178.1ZM1091.35 177.4L1090.98 178.331L1090.99 178.333L1091.35 177.4ZM1129.15 199.8L1128.49 200.555L1128.5 200.562L1128.51 200.57L1129.15 199.8ZM1157.85 230.6L1158.26 231.512L1159.37 231.012L1158.66 230.019L1157.85 230.6ZM1086.1 262.8L1085.22 263.279L1085.67 264.091L1086.51 263.712L1086.1 262.8ZM1069.65 242.5L1070.3 241.743L1069.65 242.5ZM1010.5 241.1L1010.94 241.999L1010.95 241.994L1010.96 241.99L1010.5 241.1ZM987.4 262.45L986.546 261.929L986.542 261.937L986.537 261.945L987.4 262.45ZM986.7 335.25L985.806 335.697L985.81 335.705L985.814 335.713L986.7 335.25ZM1008.75 358.7L1008.25 359.567L1008.26 359.572L1008.75 358.7ZM1060.55 364.65L1060.31 363.68L1060.3 363.682L1060.55 364.65ZM1075.25 358.7L1075.77 359.553L1075.25 358.7ZM1093.8 337L1094.7 337.428L1095.38 336H1093.8V337ZM1038.5 337H1039.5V281H1038.5H1037.5V337H1038.5ZM1038.5 281V282H1168.7V281V280H1038.5V281ZM1168.7 281L1167.7 281.089C1169.56 301.981 1167.93 321.458 1162.84 339.529L1163.8 339.8L1164.76 340.071C1169.93 321.742 1171.57 302.019 1169.7 280.911L1168.7 281ZM1163.8 339.8L1162.83 339.54C1157.97 357.613 1149.98 373.468 1138.87 387.119L1139.65 387.75L1140.43 388.381C1151.72 374.499 1159.83 358.387 1164.77 340.06L1163.8 339.8ZM1139.65 387.75L1138.87 387.119C1127.78 400.759 1113.79 411.399 1096.89 419.039L1097.3 419.95L1097.71 420.861C1114.88 413.101 1129.12 402.275 1140.43 388.381L1139.65 387.75ZM1097.3 419.95L1096.89 419.039C1080.01 426.67 1060.55 430.5 1038.5 430.5V431.5V432.5C1060.78 432.5 1080.53 428.63 1097.71 420.861L1097.3 419.95ZM1038.5 431.5V430.5C1018.07 430.5 999.406 427.366 982.497 421.112L982.15 422.05L981.803 422.988C998.961 429.334 1017.86 432.5 1038.5 432.5V431.5ZM982.15 422.05L982.497 421.112C965.58 414.855 950.878 405.939 938.379 394.366L937.7 395.1L937.021 395.834C949.722 407.595 964.654 416.645 981.803 422.988L982.15 422.05ZM937.7 395.1L938.386 394.373C926.124 382.804 916.518 368.919 909.569 352.706L908.65 353.1L907.731 353.494C914.782 369.947 924.543 384.062 937.014 395.827L937.7 395.1ZM908.65 353.1L909.574 352.717C902.864 336.521 899.5 318.453 899.5 298.5H898.5H897.5C897.5 318.68 900.903 337.013 907.726 353.483L908.65 353.1ZM898.5 298.5H899.5C899.5 278.555 903.094 260.733 910.26 245.015L909.35 244.6L908.44 244.185C901.139 260.2 897.5 278.312 897.5 298.5H898.5ZM909.35 244.6L910.262 245.01C917.439 229.036 927.387 215.505 940.108 204.403L939.45 203.65L938.792 202.897C925.847 214.195 915.728 227.964 908.438 244.19L909.35 244.6ZM939.45 203.65L940.101 204.409C953.065 193.297 968.117 184.842 985.27 179.047L984.95 178.1L984.63 177.153C967.249 183.024 951.969 191.603 938.799 202.891L939.45 203.65ZM984.95 178.1L985.278 179.045C1002.66 173.018 1021.57 170 1042 170V169V168C1021.37 168 1002.24 171.048 984.622 177.155L984.95 178.1ZM1042 169V170C1060.57 170 1076.89 172.785 1090.98 178.331L1091.35 177.4L1091.72 176.469C1077.34 170.815 1060.77 168 1042 168V169ZM1091.35 177.4L1090.99 178.333C1105.36 183.895 1117.86 191.304 1128.49 200.555L1129.15 199.8L1129.81 199.045C1118.98 189.63 1106.28 182.105 1091.71 176.467L1091.35 177.4ZM1129.15 199.8L1128.51 200.57C1139.41 209.615 1148.92 219.819 1157.04 231.181L1157.85 230.6L1158.66 230.019C1150.45 218.514 1140.82 208.185 1129.79 199.03L1129.15 199.8ZM1157.85 230.6L1157.44 229.688L1085.69 261.888L1086.1 262.8L1086.51 263.712L1158.26 231.512L1157.85 230.6ZM1086.1 262.8L1086.98 262.321C1082.72 254.514 1077.16 247.653 1070.3 241.743L1069.65 242.5L1069 243.257C1075.67 249.014 1081.08 255.686 1085.22 263.279L1086.1 262.8ZM1069.65 242.5L1070.3 241.743C1063.31 235.71 1053.83 232.75 1042 232.75V233.75V234.75C1053.5 234.75 1062.46 237.623 1069 243.257L1069.65 242.5ZM1042 233.75V232.75C1030.42 232.75 1019.76 235.233 1010.04 240.21L1010.5 241.1L1010.96 241.99C1020.37 237.167 1030.71 234.75 1042 234.75V233.75ZM1010.5 241.1L1010.06 240.201C1000.31 244.956 992.474 252.209 986.546 261.929L987.4 262.45L988.254 262.971C993.993 253.558 1001.55 246.577 1010.94 241.999L1010.5 241.1ZM987.4 262.45L986.537 261.945C980.824 271.705 978 283.909 978 298.5H979H980C980 284.158 982.776 272.329 988.263 262.955L987.4 262.45ZM979 298.5H978C978 312.852 980.588 325.262 985.806 335.697L986.7 335.25L987.594 334.803C982.545 324.704 980 312.615 980 298.5H979ZM986.7 335.25L985.814 335.713C991.262 346.135 998.741 354.098 1008.25 359.567L1008.75 358.7L1009.25 357.833C1000.09 352.569 992.872 344.898 987.586 334.787L986.7 335.25ZM1008.75 358.7L1008.26 359.572C1018 365.034 1029.25 367.75 1042 367.75V366.75V365.75C1029.55 365.75 1018.64 363.099 1009.24 357.828L1008.75 358.7ZM1042 366.75V367.75C1049.06 367.75 1055.34 367.044 1060.8 365.618L1060.55 364.65L1060.3 363.682C1055.03 365.056 1048.94 365.75 1042 365.75V366.75ZM1060.55 364.65L1060.79 365.62C1066.47 364.2 1071.47 362.181 1075.77 359.553L1075.25 358.7L1074.73 357.847C1070.63 360.352 1065.83 362.3 1060.31 363.68L1060.55 364.65ZM1075.25 358.7L1075.77 359.553C1080.07 356.929 1083.77 353.704 1086.88 349.881L1086.1 349.25L1085.32 348.619C1082.36 352.263 1078.83 355.338 1074.73 357.847L1075.25 358.7ZM1086.1 349.25L1086.88 349.881C1089.96 346.084 1092.57 341.932 1094.7 337.428L1093.8 337L1092.9 336.572C1090.83 340.934 1088.31 344.949 1085.32 348.619L1086.1 349.25ZM1093.8 337V336H1038.5V337V338H1093.8V337Z" fill="white" fill-opacity="0.1" mask="url(#path-9-outside-5_142_6152)"/>
<mask id="path-11-outside-6_142_6152" maskUnits="userSpaceOnUse" x="1195" y="159" width="236" height="275" fill="black">
<rect fill="white" x="1195" y="159" width="236" height="275"/>
<path d="M1355.75 174H1429.25V431.25L1270 308.05V419H1196.5V161.75L1355.75 284.95V174Z"/>
</mask>
<path d="M1355.75 174V173H1354.75V174H1355.75ZM1429.25 174H1430.25V173H1429.25V174ZM1429.25 431.25L1428.64 432.041L1430.25 433.288V431.25H1429.25ZM1270 308.05L1270.61 307.259L1269 306.012V308.05H1270ZM1270 419V420H1271V419H1270ZM1196.5 419H1195.5V420H1196.5V419ZM1196.5 161.75L1197.11 160.959L1195.5 159.712V161.75H1196.5ZM1355.75 284.95L1355.14 285.741L1356.75 286.988V284.95H1355.75ZM1355.75 174V175H1429.25V174V173H1355.75V174ZM1429.25 174H1428.25V431.25H1429.25H1430.25V174H1429.25ZM1429.25 431.25L1429.86 430.459L1270.61 307.259L1270 308.05L1269.39 308.841L1428.64 432.041L1429.25 431.25ZM1270 308.05H1269V419H1270H1271V308.05H1270ZM1270 419V418H1196.5V419V420H1270V419ZM1196.5 419H1197.5V161.75H1196.5H1195.5V419H1196.5ZM1196.5 161.75L1195.89 162.541L1355.14 285.741L1355.75 284.95L1356.36 284.159L1197.11 160.959L1196.5 161.75ZM1355.75 284.95H1356.75V174H1355.75H1354.75V284.95H1355.75Z" fill="white" fill-opacity="0.1" mask="url(#path-11-outside-6_142_6152)"/>
<mask id="path-13-outside-7_142_6152" maskUnits="userSpaceOnUse" x="301" y="145" width="180" height="247" fill="black">
<rect fill="white" x="301" y="145" width="180" height="247"/>
<path d="M355.7 391V329.75H479.25V391H355.7ZM355.7 207.25V146H479.25V207.25H355.7ZM355.7 294.75V235.25H472.25V294.75H355.7ZM302.5 146H376V391H302.5V146Z"/>
</mask>
<path d="M355.7 391H354.7V392H355.7V391ZM355.7 329.75V328.75H354.7V329.75H355.7ZM479.25 329.75H480.25V328.75H479.25V329.75ZM479.25 391V392H480.25V391H479.25ZM355.7 207.25H354.7V208.25H355.7V207.25ZM355.7 146V145H354.7V146H355.7ZM479.25 146H480.25V145H479.25V146ZM479.25 207.25V208.25H480.25V207.25H479.25ZM355.7 294.75H354.7V295.75H355.7V294.75ZM355.7 235.25V234.25H354.7V235.25H355.7ZM472.25 235.25H473.25V234.25H472.25V235.25ZM472.25 294.75V295.75H473.25V294.75H472.25ZM302.5 146V145H301.5V146H302.5ZM376 146H377V145H376V146ZM376 391V392H377V391H376ZM302.5 391H301.5V392H302.5V391ZM355.7 391H356.7V329.75H355.7H354.7V391H355.7ZM355.7 329.75V330.75H479.25V329.75V328.75H355.7V329.75ZM479.25 329.75H478.25V391H479.25H480.25V329.75H479.25ZM479.25 391V390H355.7V391V392H479.25V391ZM355.7 207.25H356.7V146H355.7H354.7V207.25H355.7ZM355.7 146V147H479.25V146V145H355.7V146ZM479.25 146H478.25V207.25H479.25H480.25V146H479.25ZM479.25 207.25V206.25H355.7V207.25V208.25H479.25V207.25ZM355.7 294.75H356.7V235.25H355.7H354.7V294.75H355.7ZM355.7 235.25V236.25H472.25V235.25V234.25H355.7V235.25ZM472.25 235.25H471.25V294.75H472.25H473.25V235.25H472.25ZM472.25 294.75V293.75H355.7V294.75V295.75H472.25V294.75ZM302.5 146V147H376V146V145H302.5V146ZM376 146H375V391H376H377V146H376ZM376 391V390H302.5V391V392H376V391ZM302.5 391H303.5V146H302.5H301.5V391H302.5Z" fill="white" fill-opacity="0.1" mask="url(#path-13-outside-7_142_6152)"/>
<mask id="path-15-outside-8_142_6152" maskUnits="userSpaceOnUse" x="30" y="145" width="236" height="247" fill="black">
<rect fill="white" x="30" y="145" width="236" height="247"/>
<path d="M31.5 146H111.65V391H31.5V146ZM127.75 391H84.7V324.5H124.25C131.017 324.5 137.9 323.917 144.9 322.75C151.9 321.583 158.317 319.133 164.15 315.4C169.983 311.667 174.65 306.067 178.15 298.6C181.883 291.133 183.75 281.1 183.75 268.5C183.75 255.9 181.883 245.867 178.15 238.4C174.65 230.933 169.983 225.333 164.15 221.6C158.317 217.867 151.9 215.417 144.9 214.25C137.9 213.083 131.017 212.5 124.25 212.5H84.7V146H127.75C156.217 146 180.6 150.9 200.9 160.7C221.433 170.5 237.067 184.5 247.8 202.7C258.767 220.9 264.25 242.833 264.25 268.5C264.25 293.933 258.767 315.867 247.8 334.3C237.067 352.5 221.433 366.5 200.9 376.3C180.6 386.1 156.217 391 127.75 391Z"/>
</mask>
<path d="M31.5 146V145H30.5V146H31.5ZM111.65 146H112.65V145H111.65V146ZM111.65 391V392H112.65V391H111.65ZM31.5 391H30.5V392H31.5V391ZM84.7 391H83.7V392H84.7V391ZM84.7 324.5V323.5H83.7V324.5H84.7ZM178.15 298.6L177.256 298.153L177.25 298.164L177.245 298.176L178.15 298.6ZM178.15 238.4L177.245 238.824L177.25 238.836L177.256 238.847L178.15 238.4ZM164.15 221.6L164.689 220.758H164.689L164.15 221.6ZM144.9 214.25L144.736 215.236L144.9 214.25ZM84.7 212.5H83.7V213.5H84.7V212.5ZM84.7 146V145H83.7V146H84.7ZM200.9 160.7L200.465 161.601L200.469 161.602L200.9 160.7ZM247.8 202.7L246.939 203.208L246.943 203.216L247.8 202.7ZM247.8 334.3L246.941 333.789L246.939 333.792L247.8 334.3ZM200.9 376.3L200.469 375.398L200.465 375.399L200.9 376.3ZM31.5 146V147H111.65V146V145H31.5V146ZM111.65 146H110.65V391H111.65H112.65V146H111.65ZM111.65 391V390H31.5V391V392H111.65V391ZM31.5 391H32.5V146H31.5H30.5V391H31.5ZM127.75 391V390H84.7V391V392H127.75V391ZM84.7 391H85.7V324.5H84.7H83.7V391H84.7ZM84.7 324.5V325.5H124.25V324.5V323.5H84.7V324.5ZM124.25 324.5V325.5C131.074 325.5 138.013 324.912 145.064 323.736L144.9 322.75L144.736 321.764C137.787 322.922 130.959 323.5 124.25 323.5V324.5ZM144.9 322.75L145.064 323.736C152.194 322.548 158.739 320.05 164.689 316.242L164.15 315.4L163.611 314.558C157.894 318.216 151.606 320.619 144.736 321.764L144.9 322.75ZM164.15 315.4L164.689 316.242C170.71 312.389 175.491 306.629 179.055 299.024L178.15 298.6L177.245 298.176C173.809 305.504 169.257 310.944 163.611 314.558L164.15 315.4ZM178.15 298.6L179.044 299.047C182.874 291.389 184.75 281.183 184.75 268.5H183.75H182.75C182.75 281.017 180.893 290.878 177.256 298.153L178.15 298.6ZM183.75 268.5H184.75C184.75 255.817 182.874 245.611 179.044 237.953L178.15 238.4L177.256 238.847C180.893 246.122 182.75 255.983 182.75 268.5H183.75ZM178.15 238.4L179.055 237.976C175.491 230.371 170.71 224.611 164.689 220.758L164.15 221.6L163.611 222.442C169.257 226.056 173.809 231.496 177.245 238.824L178.15 238.4ZM164.15 221.6L164.689 220.758C158.739 216.95 152.194 214.452 145.064 213.264L144.9 214.25L144.736 215.236C151.606 216.381 157.894 218.784 163.611 222.442L164.15 221.6ZM144.9 214.25L145.064 213.264C138.013 212.088 131.074 211.5 124.25 211.5V212.5V213.5C130.959 213.5 137.787 214.078 144.736 215.236L144.9 214.25ZM124.25 212.5V211.5H84.7V212.5V213.5H124.25V212.5ZM84.7 212.5H85.7V146H84.7H83.7V212.5H84.7ZM84.7 146V147H127.75V146V145H84.7V146ZM127.75 146V147C156.105 147 180.332 151.881 200.465 161.601L200.9 160.7L201.335 159.799C180.868 149.919 156.329 145 127.75 145V146ZM200.9 160.7L200.469 161.602C220.837 171.324 236.314 185.193 246.939 203.208L247.8 202.7L248.661 202.192C237.819 183.807 222.029 169.676 201.331 159.798L200.9 160.7ZM247.8 202.7L246.943 203.216C257.798 221.231 263.25 242.977 263.25 268.5H264.25H265.25C265.25 242.689 259.735 220.569 248.657 202.184L247.8 202.7ZM264.25 268.5H263.25C263.25 293.787 257.799 315.537 246.941 333.789L247.8 334.3L248.659 334.811C259.734 316.197 265.25 294.08 265.25 268.5H264.25ZM247.8 334.3L246.939 333.792C236.314 351.807 220.837 365.676 200.469 375.398L200.9 376.3L201.331 377.202C222.029 367.324 237.819 353.193 248.661 334.808L247.8 334.3ZM200.9 376.3L200.465 375.399C180.332 385.119 156.105 390 127.75 390V391V392C156.329 392 180.868 387.081 201.335 377.201L200.9 376.3Z" fill="white" fill-opacity="0.1" mask="url(#path-15-outside-8_142_6152)"/>
<mask id="path-17-outside-9_142_6152" maskUnits="userSpaceOnUse" x="529" y="138" width="216" height="265" fill="black">
<rect fill="white" x="529" y="138" width="216" height="265"/>
<path d="M582.3 297.9C586.967 306.067 592.333 313.183 598.4 319.25C604.467 325.083 611 329.517 618 332.55C625.233 335.583 632.467 337.1 639.7 337.1C645.767 337.1 650.9 335.933 655.1 333.6C659.3 331.033 661.4 327.067 661.4 321.7C661.4 318.433 660.233 315.633 657.9 313.3C655.8 310.967 651.483 308.283 644.95 305.25C638.417 302.217 628.5 298.133 615.2 293C609.367 290.667 602.6 287.517 594.9 283.55C587.433 279.583 580.2 274.45 573.2 268.15C566.433 261.85 560.717 254.15 556.05 245.05C551.617 235.95 549.4 225.217 549.4 212.85C549.4 196.75 553.717 183.217 562.35 172.25C570.983 161.283 582.417 153 596.65 147.4C610.883 141.8 626.517 139 643.55 139C661.983 139 677.733 141.8 690.8 147.4C704.1 153 714.95 160 723.35 168.4C731.983 176.8 738.517 185.2 742.95 193.6L685.9 225.1C682.167 219.267 677.967 214.717 673.3 211.45C668.867 207.95 664.317 205.383 659.65 203.75C654.983 202.117 650.433 201.3 646 201.3C640.633 201.3 636.2 202.233 632.7 204.1C629.433 205.967 627.8 208.883 627.8 212.85C627.8 217.75 630.133 221.833 634.8 225.1C639.7 228.133 646.117 231.05 654.05 233.85C661.983 236.417 670.733 239.45 680.3 242.95C690.1 246.45 698.85 250.65 706.55 255.55C714.25 260.217 720.783 265.7 726.15 272C731.75 278.3 735.95 285.417 738.75 293.35C741.55 301.05 742.95 309.683 742.95 319.25C742.95 332.783 740.15 344.8 734.55 355.3C728.95 365.567 721.367 374.083 711.8 380.85C702.467 387.617 691.85 392.75 679.95 396.25C668.05 399.75 655.8 401.5 643.2 401.5C625.7 401.5 609.367 398.583 594.2 392.75C579.267 387.15 566.317 379.333 555.35 369.3C544.383 359.267 536.1 348.067 530.5 335.7L582.3 297.9Z"/>
</mask>
<path d="M582.3 297.9L583.168 297.404L582.614 296.433L581.711 297.092L582.3 297.9ZM598.4 319.25L597.693 319.957L597.7 319.964L597.707 319.971L598.4 319.25ZM618 332.55L617.602 333.468L617.613 333.472L618 332.55ZM655.1 333.6L655.586 334.474L655.604 334.464L655.621 334.453L655.1 333.6ZM657.9 313.3L657.157 313.969L657.174 313.988L657.193 314.007L657.9 313.3ZM644.95 305.25L644.529 306.157L644.95 305.25ZM615.2 293L614.829 293.929L614.84 293.933L615.2 293ZM594.9 283.55L594.431 284.433L594.442 284.439L594.9 283.55ZM573.2 268.15L572.519 268.882L572.525 268.888L572.531 268.893L573.2 268.15ZM556.05 245.05L555.151 245.488L555.156 245.497L555.16 245.506L556.05 245.05ZM562.35 172.25L563.136 172.869H563.136L562.35 172.25ZM596.65 147.4L597.016 148.331L596.65 147.4ZM690.8 147.4L690.406 148.319L690.412 148.322L690.8 147.4ZM723.35 168.4L722.643 169.107L722.653 169.117L723.35 168.4ZM742.95 193.6L743.433 194.475L744.292 194.001L743.834 193.133L742.95 193.6ZM685.9 225.1L685.058 225.639L685.563 226.428L686.383 225.975L685.9 225.1ZM673.3 211.45L672.68 212.235L672.703 212.253L672.727 212.269L673.3 211.45ZM632.7 204.1L632.229 203.218L632.217 203.225L632.204 203.232L632.7 204.1ZM634.8 225.1L634.227 225.919L634.25 225.935L634.274 225.95L634.8 225.1ZM654.05 233.85L653.717 234.793L653.73 234.797L653.742 234.801L654.05 233.85ZM680.3 242.95L679.956 243.889L679.964 243.892L680.3 242.95ZM706.55 255.55L706.013 256.394L706.022 256.4L706.032 256.405L706.55 255.55ZM726.15 272L725.389 272.648L725.396 272.656L725.403 272.664L726.15 272ZM738.75 293.35L737.807 293.683L737.81 293.692L738.75 293.35ZM734.55 355.3L735.428 355.779L735.432 355.771L734.55 355.3ZM711.8 380.85L711.223 380.034L711.213 380.04L711.8 380.85ZM594.2 392.75L594.559 391.817L594.551 391.814L594.2 392.75ZM555.35 369.3L556.025 368.562L555.35 369.3ZM530.5 335.7L529.911 334.892L529.254 335.372L529.589 336.113L530.5 335.7ZM582.3 297.9L581.432 298.396C586.138 306.633 591.558 313.822 597.693 319.957L598.4 319.25L599.107 318.543C593.109 312.545 587.795 305.501 583.168 297.404L582.3 297.9ZM598.4 319.25L597.707 319.971C603.851 325.878 610.482 330.382 617.602 333.468L618 332.55L618.398 331.632C611.518 328.651 605.083 324.288 599.093 318.529L598.4 319.25ZM618 332.55L617.613 333.472C624.959 336.553 632.323 338.1 639.7 338.1V337.1V336.1C632.61 336.1 625.508 334.614 618.387 331.628L618 332.55ZM639.7 337.1V338.1C645.893 338.1 651.203 336.909 655.586 334.474L655.1 333.6L654.614 332.726C650.597 334.958 645.641 336.1 639.7 336.1V337.1ZM655.1 333.6L655.621 334.453C660.15 331.686 662.4 327.377 662.4 321.7H661.4H660.4C660.4 326.756 658.45 330.381 654.579 332.747L655.1 333.6ZM661.4 321.7H662.4C662.4 318.165 661.126 315.112 658.607 312.593L657.9 313.3L657.193 314.007C659.341 316.155 660.4 318.702 660.4 321.7H661.4ZM657.9 313.3L658.643 312.631C656.394 310.132 651.909 307.378 645.371 304.343L644.95 305.25L644.529 306.157C651.058 309.188 655.206 311.801 657.157 313.969L657.9 313.3ZM644.95 305.25L645.371 304.343C638.807 301.295 628.865 297.202 615.56 292.067L615.2 293L614.84 293.933C628.135 299.064 638.027 303.138 644.529 306.157L644.95 305.25ZM615.2 293L615.571 292.072C609.776 289.753 603.039 286.618 595.358 282.661L594.9 283.55L594.442 284.439C602.161 288.415 608.957 291.58 614.829 293.928L615.2 293ZM594.9 283.55L595.369 282.667C587.982 278.743 580.815 273.658 573.869 267.407L573.2 268.15L572.531 268.893C579.585 275.242 586.884 280.424 594.431 284.433L594.9 283.55ZM573.2 268.15L573.881 267.418C567.208 261.205 561.559 253.601 556.94 244.594L556.05 245.05L555.16 245.506C559.874 254.699 565.658 262.495 572.519 268.882L573.2 268.15ZM556.05 245.05L556.949 244.612C552.595 235.675 550.4 225.098 550.4 212.85H549.4H548.4C548.4 225.335 550.638 236.225 555.151 245.488L556.05 245.05ZM549.4 212.85H550.4C550.4 196.938 554.662 183.633 563.136 172.869L562.35 172.25L561.564 171.631C552.771 182.801 548.4 196.562 548.4 212.85H549.4ZM562.35 172.25L563.136 172.869C571.649 162.054 582.932 153.872 597.016 148.331L596.65 147.4L596.284 146.469C581.902 152.128 570.318 160.512 561.564 171.631L562.35 172.25ZM596.65 147.4L597.016 148.331C611.12 142.781 626.628 140 643.55 140V139V138C626.406 138 610.646 140.819 596.284 146.469L596.65 147.4ZM643.55 139V140C661.886 140 677.495 142.786 690.406 148.319L690.8 147.4L691.194 146.481C677.972 140.814 662.08 138 643.55 138V139ZM690.8 147.4L690.412 148.322C703.618 153.882 714.352 160.816 722.643 169.107L723.35 168.4L724.057 167.693C715.548 159.184 704.582 152.118 691.188 146.478L690.8 147.4ZM723.35 168.4L722.653 169.117C731.23 177.462 737.692 185.78 742.066 194.067L742.95 193.6L743.834 193.133C739.341 184.62 732.737 176.138 724.047 167.683L723.35 168.4ZM742.95 193.6L742.467 192.725L685.417 224.225L685.9 225.1L686.383 225.975L743.433 194.475L742.95 193.6ZM685.9 225.1L686.742 224.561C682.953 218.641 678.668 213.987 673.873 210.631L673.3 211.45L672.727 212.269C677.266 215.447 681.38 219.893 685.058 225.639L685.9 225.1ZM673.3 211.45L673.92 210.665C669.412 207.106 664.765 204.481 659.98 202.806L659.65 203.75L659.32 204.694C663.868 206.286 668.322 208.794 672.68 212.235L673.3 211.45ZM659.65 203.75L659.98 202.806C655.22 201.14 650.558 200.3 646 200.3V201.3V202.3C650.309 202.3 654.747 203.093 659.32 204.694L659.65 203.75ZM646 201.3V200.3C640.525 200.3 635.916 201.251 632.229 203.218L632.7 204.1L633.171 204.982C636.484 203.215 640.742 202.3 646 202.3V201.3ZM632.7 204.1L632.204 203.232C628.605 205.288 626.8 208.548 626.8 212.85H627.8H628.8C628.8 209.218 630.261 206.645 633.196 204.968L632.7 204.1ZM627.8 212.85H626.8C626.8 218.133 629.343 222.5 634.227 225.919L634.8 225.1L635.373 224.281C630.924 221.166 628.8 217.367 628.8 212.85H627.8ZM634.8 225.1L634.274 225.95C639.256 229.034 645.744 231.979 653.717 234.793L654.05 233.85L654.383 232.907C646.489 230.121 640.145 227.232 635.326 224.25L634.8 225.1ZM654.05 233.85L653.742 234.801C661.661 237.363 670.399 240.393 679.956 243.889L680.3 242.95L680.644 242.011C671.068 238.507 662.305 235.47 654.358 232.899L654.05 233.85ZM680.3 242.95L679.964 243.892C689.703 247.37 698.384 251.539 706.013 256.394L706.55 255.55L707.087 254.706C699.316 249.761 690.497 245.53 680.636 242.008L680.3 242.95ZM706.55 255.55L706.032 256.405C713.648 261.021 720.097 266.437 725.389 272.648L726.15 272L726.911 271.352C721.469 264.963 714.852 259.412 707.068 254.695L706.55 255.55ZM726.15 272L725.403 272.664C730.917 278.868 735.05 285.872 737.807 293.683L738.75 293.35L739.693 293.017C736.85 284.961 732.583 277.732 726.897 271.336L726.15 272ZM738.75 293.35L737.81 293.692C740.564 301.266 741.95 309.781 741.95 319.25H742.95H743.95C743.95 309.586 742.536 300.834 739.69 293.008L738.75 293.35ZM742.95 319.25H741.95C741.95 332.642 739.18 344.493 733.668 354.829L734.55 355.3L735.432 355.771C741.12 345.107 743.95 332.925 743.95 319.25H742.95ZM734.55 355.3L733.672 354.821C728.145 364.954 720.665 373.355 711.223 380.034L711.8 380.85L712.377 381.666C722.068 374.812 729.755 366.18 735.428 355.779L734.55 355.3ZM711.8 380.85L711.213 380.04C701.979 386.735 691.467 391.82 679.668 395.291L679.95 396.25L680.232 397.209C692.233 393.68 702.955 388.498 712.387 381.66L711.8 380.85ZM679.95 396.25L679.668 395.291C667.861 398.763 655.706 400.5 643.2 400.5V401.5V402.5C655.894 402.5 668.239 400.737 680.232 397.209L679.95 396.25ZM643.2 401.5V400.5C625.813 400.5 609.603 397.603 594.559 391.817L594.2 392.75L593.841 393.683C609.131 399.564 625.587 402.5 643.2 402.5V401.5ZM594.2 392.75L594.551 391.814C579.729 386.255 566.891 378.503 556.025 368.562L555.35 369.3L554.675 370.038C565.743 380.164 578.805 388.045 593.849 393.686L594.2 392.75ZM555.35 369.3L556.025 368.562C545.149 358.611 536.95 347.52 531.411 335.287L530.5 335.7L529.589 336.113C535.25 348.614 543.618 359.922 554.675 370.038L555.35 369.3ZM530.5 335.7L531.089 336.508L582.889 298.708L582.3 297.9L581.711 297.092L529.911 334.892L530.5 335.7Z" fill="white" fill-opacity="0.1" mask="url(#path-17-outside-9_142_6152)"/>
<mask id="path-19-outside-10_142_6152" maskUnits="userSpaceOnUse" x="798" y="145" width="82" height="247" fill="black">
<rect fill="white" x="798" y="145" width="82" height="247"/>
<path d="M799.5 146H878.25V391H799.5V146Z"/>
</mask>
<path d="M799.5 146V145H798.5V146H799.5ZM878.25 146H879.25V145H878.25V146ZM878.25 391V392H879.25V391H878.25ZM799.5 391H798.5V392H799.5V391ZM799.5 146V147H878.25V146V145H799.5V146ZM878.25 146H877.25V391H878.25H879.25V146H878.25ZM878.25 391V390H799.5V391V392H878.25V391ZM799.5 391H800.5V146H799.5H798.5V391H799.5Z" fill="white" fill-opacity="0.1" mask="url(#path-19-outside-10_142_6152)"/>
<mask id="path-21-outside-11_142_6152" maskUnits="userSpaceOnUse" x="917" y="138" width="274" height="265" fill="black">
<rect fill="white" x="917" y="138" width="274" height="265"/>
<path d="M1058.5 307V251H1188.7C1190.57 272 1188.93 291.6 1183.8 309.8C1178.9 328 1170.85 343.983 1159.65 357.75C1148.45 371.517 1134.33 382.25 1117.3 389.95C1100.27 397.65 1080.67 401.5 1058.5 401.5C1037.97 401.5 1019.18 398.35 1002.15 392.05C985.117 385.75 970.3 376.767 957.7 365.1C945.333 353.433 935.65 339.433 928.65 323.1C921.883 306.767 918.5 288.567 918.5 268.5C918.5 248.433 922.117 230.467 929.35 214.6C936.583 198.5 946.617 184.85 959.45 173.65C972.517 162.45 987.683 153.933 1004.95 148.1C1022.45 142.033 1041.47 139 1062 139C1080.67 139 1097.12 141.8 1111.35 147.4C1125.82 153 1138.42 160.467 1149.15 169.8C1160.12 178.9 1169.68 189.167 1177.85 200.6L1106.1 232.8C1101.9 225.1 1096.42 218.333 1089.65 212.5C1082.88 206.667 1073.67 203.75 1062 203.75C1050.57 203.75 1040.07 206.2 1030.5 211.1C1020.93 215.767 1013.23 222.883 1007.4 232.45C1001.8 242.017 999 254.033 999 268.5C999 282.733 1001.57 294.983 1006.7 305.25C1012.07 315.517 1019.42 323.333 1028.75 328.7C1038.32 334.067 1049.4 336.75 1062 336.75C1069 336.75 1075.18 336.05 1080.55 334.65C1086.15 333.25 1091.05 331.267 1095.25 328.7C1099.45 326.133 1103.07 322.983 1106.1 319.25C1109.13 315.517 1111.7 311.433 1113.8 307H1058.5Z"/>
</mask>
<path d="M1058.5 307H1057.5V308H1058.5V307ZM1058.5 251V250H1057.5V251H1058.5ZM1188.7 251L1189.7 250.911L1189.62 250H1188.7V251ZM1183.8 309.8L1182.84 309.529L1182.83 309.54L1183.8 309.8ZM1159.65 357.75L1160.43 358.381L1159.65 357.75ZM1117.3 389.95L1117.71 390.861L1117.3 389.95ZM1002.15 392.05L1002.5 391.112L1002.15 392.05ZM957.7 365.1L957.014 365.827L957.021 365.834L957.7 365.1ZM928.65 323.1L927.726 323.483L927.731 323.494L928.65 323.1ZM929.35 214.6L930.26 215.015L930.262 215.01L929.35 214.6ZM959.45 173.65L958.799 172.891L958.792 172.897L959.45 173.65ZM1004.95 148.1L1005.27 149.047L1005.28 149.045L1004.95 148.1ZM1111.35 147.4L1110.98 148.331L1110.99 148.333L1111.35 147.4ZM1149.15 169.8L1148.49 170.555L1148.5 170.562L1148.51 170.57L1149.15 169.8ZM1177.85 200.6L1178.26 201.512L1179.37 201.012L1178.66 200.019L1177.85 200.6ZM1106.1 232.8L1105.22 233.279L1105.67 234.091L1106.51 233.712L1106.1 232.8ZM1089.65 212.5L1090.3 211.743L1089.65 212.5ZM1030.5 211.1L1030.94 211.999L1030.95 211.994L1030.96 211.99L1030.5 211.1ZM1007.4 232.45L1006.55 231.929L1006.54 231.937L1006.54 231.945L1007.4 232.45ZM1006.7 305.25L1005.81 305.697L1005.81 305.705L1005.81 305.713L1006.7 305.25ZM1028.75 328.7L1028.25 329.567L1028.26 329.572L1028.75 328.7ZM1080.55 334.65L1080.31 333.68L1080.3 333.682L1080.55 334.65ZM1095.25 328.7L1095.77 329.553L1095.25 328.7ZM1113.8 307L1114.7 307.428L1115.38 306H1113.8V307ZM1058.5 307H1059.5V251H1058.5H1057.5V307H1058.5ZM1058.5 251V252H1188.7V251V250H1058.5V251ZM1188.7 251L1187.7 251.089C1189.56 271.981 1187.93 291.458 1182.84 309.529L1183.8 309.8L1184.76 310.071C1189.93 291.742 1191.57 272.019 1189.7 250.911L1188.7 251ZM1183.8 309.8L1182.83 309.54C1177.97 327.613 1169.98 343.468 1158.87 357.119L1159.65 357.75L1160.43 358.381C1171.72 344.499 1179.83 328.387 1184.77 310.06L1183.8 309.8ZM1159.65 357.75L1158.87 357.119C1147.78 370.759 1133.79 381.399 1116.89 389.039L1117.3 389.95L1117.71 390.861C1134.88 383.101 1149.12 372.275 1160.43 358.381L1159.65 357.75ZM1117.3 389.95L1116.89 389.039C1100.01 396.67 1080.55 400.5 1058.5 400.5V401.5V402.5C1080.78 402.5 1100.53 398.63 1117.71 390.861L1117.3 389.95ZM1058.5 401.5V400.5C1038.07 400.5 1019.41 397.366 1002.5 391.112L1002.15 392.05L1001.8 392.988C1018.96 399.334 1037.86 402.5 1058.5 402.5V401.5ZM1002.15 392.05L1002.5 391.112C985.58 384.855 970.878 375.939 958.379 364.366L957.7 365.1L957.021 365.834C969.722 377.595 984.654 386.645 1001.8 392.988L1002.15 392.05ZM957.7 365.1L958.386 364.373C946.124 352.804 936.518 338.919 929.569 322.706L928.65 323.1L927.731 323.494C934.782 339.947 944.543 354.062 957.014 365.827L957.7 365.1ZM928.65 323.1L929.574 322.717C922.864 306.521 919.5 288.453 919.5 268.5H918.5H917.5C917.5 288.68 920.903 307.013 927.726 323.483L928.65 323.1ZM918.5 268.5H919.5C919.5 248.555 923.094 230.733 930.26 215.015L929.35 214.6L928.44 214.185C921.139 230.2 917.5 248.312 917.5 268.5H918.5ZM929.35 214.6L930.262 215.01C937.439 199.036 947.387 185.505 960.108 174.403L959.45 173.65L958.792 172.897C945.847 184.195 935.728 197.964 928.438 214.19L929.35 214.6ZM959.45 173.65L960.101 174.409C973.065 163.297 988.117 154.842 1005.27 149.047L1004.95 148.1L1004.63 147.153C987.249 153.024 971.969 161.603 958.799 172.891L959.45 173.65ZM1004.95 148.1L1005.28 149.045C1022.66 143.018 1041.57 140 1062 140V139V138C1041.37 138 1022.24 141.048 1004.62 147.155L1004.95 148.1ZM1062 139V140C1080.57 140 1096.89 142.785 1110.98 148.331L1111.35 147.4L1111.72 146.469C1097.34 140.815 1080.77 138 1062 138V139ZM1111.35 147.4L1110.99 148.333C1125.36 153.895 1137.86 161.304 1148.49 170.555L1149.15 169.8L1149.81 169.045C1138.98 159.63 1126.28 152.105 1111.71 146.467L1111.35 147.4ZM1149.15 169.8L1148.51 170.57C1159.41 179.615 1168.92 189.819 1177.04 201.181L1177.85 200.6L1178.66 200.019C1170.45 188.514 1160.82 178.185 1149.79 169.03L1149.15 169.8ZM1177.85 200.6L1177.44 199.688L1105.69 231.888L1106.1 232.8L1106.51 233.712L1178.26 201.512L1177.85 200.6ZM1106.1 232.8L1106.98 232.321C1102.72 224.514 1097.16 217.653 1090.3 211.743L1089.65 212.5L1089 213.257C1095.67 219.014 1101.08 225.686 1105.22 233.279L1106.1 232.8ZM1089.65 212.5L1090.3 211.743C1083.31 205.71 1073.83 202.75 1062 202.75V203.75V204.75C1073.5 204.75 1082.46 207.623 1089 213.257L1089.65 212.5ZM1062 203.75V202.75C1050.42 202.75 1039.76 205.233 1030.04 210.21L1030.5 211.1L1030.96 211.99C1040.37 207.167 1050.71 204.75 1062 204.75V203.75ZM1030.5 211.1L1030.06 210.201C1020.31 214.956 1012.47 222.209 1006.55 231.929L1007.4 232.45L1008.25 232.971C1013.99 223.558 1021.55 216.577 1030.94 211.999L1030.5 211.1ZM1007.4 232.45L1006.54 231.945C1000.82 241.705 998 253.909 998 268.5H999H1000C1000 254.158 1002.78 242.329 1008.26 232.955L1007.4 232.45ZM999 268.5H998C998 282.852 1000.59 295.262 1005.81 305.697L1006.7 305.25L1007.59 304.803C1002.55 294.704 1000 282.615 1000 268.5H999ZM1006.7 305.25L1005.81 305.713C1011.26 316.135 1018.74 324.098 1028.25 329.567L1028.75 328.7L1029.25 327.833C1020.09 322.569 1012.87 314.898 1007.59 304.787L1006.7 305.25ZM1028.75 328.7L1028.26 329.572C1038 335.034 1049.25 337.75 1062 337.75V336.75V335.75C1049.55 335.75 1038.64 333.099 1029.24 327.828L1028.75 328.7ZM1062 336.75V337.75C1069.06 337.75 1075.34 337.044 1080.8 335.618L1080.55 334.65L1080.3 333.682C1075.03 335.056 1068.94 335.75 1062 335.75V336.75ZM1080.55 334.65L1080.79 335.62C1086.47 334.2 1091.47 332.181 1095.77 329.553L1095.25 328.7L1094.73 327.847C1090.63 330.352 1085.83 332.3 1080.31 333.68L1080.55 334.65ZM1095.25 328.7L1095.77 329.553C1100.07 326.929 1103.77 323.704 1106.88 319.881L1106.1 319.25L1105.32 318.619C1102.36 322.263 1098.83 325.338 1094.73 327.847L1095.25 328.7ZM1106.1 319.25L1106.88 319.881C1109.96 316.084 1112.57 311.932 1114.7 307.428L1113.8 307L1112.9 306.572C1110.83 310.934 1108.31 314.949 1105.32 318.619L1106.1 319.25ZM1113.8 307V306H1058.5V307V308H1113.8V307Z" fill="white" fill-opacity="0.1" mask="url(#path-21-outside-11_142_6152)"/>
<mask id="path-23-outside-12_142_6152" maskUnits="userSpaceOnUse" x="1215" y="129" width="236" height="275" fill="black">
<rect fill="white" x="1215" y="129" width="236" height="275"/>
<path d="M1375.75 144H1449.25V401.25L1290 278.05V389H1216.5V131.75L1375.75 254.95V144Z"/>
</mask>
<path d="M1375.75 144V143H1374.75V144H1375.75ZM1449.25 144H1450.25V143H1449.25V144ZM1449.25 401.25L1448.64 402.041L1450.25 403.288V401.25H1449.25ZM1290 278.05L1290.61 277.259L1289 276.012V278.05H1290ZM1290 389V390H1291V389H1290ZM1216.5 389H1215.5V390H1216.5V389ZM1216.5 131.75L1217.11 130.959L1215.5 129.712V131.75H1216.5ZM1375.75 254.95L1375.14 255.741L1376.75 256.988V254.95H1375.75ZM1375.75 144V145H1449.25V144V143H1375.75V144ZM1449.25 144H1448.25V401.25H1449.25H1450.25V144H1449.25ZM1449.25 401.25L1449.86 400.459L1290.61 277.259L1290 278.05L1289.39 278.841L1448.64 402.041L1449.25 401.25ZM1290 278.05H1289V389H1290H1291V278.05H1290ZM1290 389V388H1216.5V389V390H1290V389ZM1216.5 389H1217.5V131.75H1216.5H1215.5V389H1216.5ZM1216.5 131.75L1215.89 132.541L1375.14 255.741L1375.75 254.95L1376.36 254.159L1217.11 130.959L1216.5 131.75ZM1375.75 254.95H1376.75V144H1375.75H1374.75V254.95H1375.75Z" fill="white" fill-opacity="0.1" mask="url(#path-23-outside-12_142_6152)"/>
<mask id="path-25-outside-13_142_6152" maskUnits="userSpaceOnUse" x="321" y="131" width="180" height="247" fill="black">
<rect fill="white" x="321" y="131" width="180" height="247"/>
<path d="M375.7 377V315.75H499.25V377H375.7ZM375.7 193.25V132H499.25V193.25H375.7ZM375.7 280.75V221.25H492.25V280.75H375.7ZM322.5 132H396V377H322.5V132Z"/>
</mask>
<path d="M375.7 377H374.7V378H375.7V377ZM375.7 315.75V314.75H374.7V315.75H375.7ZM499.25 315.75H500.25V314.75H499.25V315.75ZM499.25 377V378H500.25V377H499.25ZM375.7 193.25H374.7V194.25H375.7V193.25ZM375.7 132V131H374.7V132H375.7ZM499.25 132H500.25V131H499.25V132ZM499.25 193.25V194.25H500.25V193.25H499.25ZM375.7 280.75H374.7V281.75H375.7V280.75ZM375.7 221.25V220.25H374.7V221.25H375.7ZM492.25 221.25H493.25V220.25H492.25V221.25ZM492.25 280.75V281.75H493.25V280.75H492.25ZM322.5 132V131H321.5V132H322.5ZM396 132H397V131H396V132ZM396 377V378H397V377H396ZM322.5 377H321.5V378H322.5V377ZM375.7 377H376.7V315.75H375.7H374.7V377H375.7ZM375.7 315.75V316.75H499.25V315.75V314.75H375.7V315.75ZM499.25 315.75H498.25V377H499.25H500.25V315.75H499.25ZM499.25 377V376H375.7V377V378H499.25V377ZM375.7 193.25H376.7V132H375.7H374.7V193.25H375.7ZM375.7 132V133H499.25V132V131H375.7V132ZM499.25 132H498.25V193.25H499.25H500.25V132H499.25ZM499.25 193.25V192.25H375.7V193.25V194.25H499.25V193.25ZM375.7 280.75H376.7V221.25H375.7H374.7V280.75H375.7ZM375.7 221.25V222.25H492.25V221.25V220.25H375.7V221.25ZM492.25 221.25H491.25V280.75H492.25H493.25V221.25H492.25ZM492.25 280.75V279.75H375.7V280.75V281.75H492.25V280.75ZM322.5 132V133H396V132V131H322.5V132ZM396 132H395V377H396H397V132H396ZM396 377V376H322.5V377V378H396V377ZM322.5 377H323.5V132H322.5H321.5V377H322.5Z" fill="white" fill-opacity="0.2" mask="url(#path-25-outside-13_142_6152)"/>
<mask id="path-27-outside-14_142_6152" maskUnits="userSpaceOnUse" x="50" y="131" width="236" height="247" fill="black">
<rect fill="white" x="50" y="131" width="236" height="247"/>
<path d="M51.5 132H131.65V377H51.5V132ZM147.75 377H104.7V310.5H144.25C151.017 310.5 157.9 309.917 164.9 308.75C171.9 307.583 178.317 305.133 184.15 301.4C189.983 297.667 194.65 292.067 198.15 284.6C201.883 277.133 203.75 267.1 203.75 254.5C203.75 241.9 201.883 231.867 198.15 224.4C194.65 216.933 189.983 211.333 184.15 207.6C178.317 203.867 171.9 201.417 164.9 200.25C157.9 199.083 151.017 198.5 144.25 198.5H104.7V132H147.75C176.217 132 200.6 136.9 220.9 146.7C241.433 156.5 257.067 170.5 267.8 188.7C278.767 206.9 284.25 228.833 284.25 254.5C284.25 279.933 278.767 301.867 267.8 320.3C257.067 338.5 241.433 352.5 220.9 362.3C200.6 372.1 176.217 377 147.75 377Z"/>
</mask>
<path d="M51.5 132V131H50.5V132H51.5ZM131.65 132H132.65V131H131.65V132ZM131.65 377V378H132.65V377H131.65ZM51.5 377H50.5V378H51.5V377ZM104.7 377H103.7V378H104.7V377ZM104.7 310.5V309.5H103.7V310.5H104.7ZM198.15 284.6L197.256 284.153L197.25 284.164L197.245 284.176L198.15 284.6ZM198.15 224.4L197.245 224.824L197.25 224.836L197.256 224.847L198.15 224.4ZM184.15 207.6L184.689 206.758H184.689L184.15 207.6ZM164.9 200.25L164.736 201.236L164.9 200.25ZM104.7 198.5H103.7V199.5H104.7V198.5ZM104.7 132V131H103.7V132H104.7ZM220.9 146.7L220.465 147.601L220.469 147.602L220.9 146.7ZM267.8 188.7L266.939 189.208L266.943 189.216L267.8 188.7ZM267.8 320.3L266.941 319.789L266.939 319.792L267.8 320.3ZM220.9 362.3L220.469 361.398L220.465 361.399L220.9 362.3ZM51.5 132V133H131.65V132V131H51.5V132ZM131.65 132H130.65V377H131.65H132.65V132H131.65ZM131.65 377V376H51.5V377V378H131.65V377ZM51.5 377H52.5V132H51.5H50.5V377H51.5ZM147.75 377V376H104.7V377V378H147.75V377ZM104.7 377H105.7V310.5H104.7H103.7V377H104.7ZM104.7 310.5V311.5H144.25V310.5V309.5H104.7V310.5ZM144.25 310.5V311.5C151.074 311.5 158.013 310.912 165.064 309.736L164.9 308.75L164.736 307.764C157.787 308.922 150.959 309.5 144.25 309.5V310.5ZM164.9 308.75L165.064 309.736C172.194 308.548 178.739 306.05 184.689 302.242L184.15 301.4L183.611 300.558C177.894 304.216 171.606 306.619 164.736 307.764L164.9 308.75ZM184.15 301.4L184.689 302.242C190.71 298.389 195.491 292.629 199.055 285.024L198.15 284.6L197.245 284.176C193.809 291.504 189.257 296.944 183.611 300.558L184.15 301.4ZM198.15 284.6L199.044 285.047C202.874 277.389 204.75 267.183 204.75 254.5H203.75H202.75C202.75 267.017 200.893 276.878 197.256 284.153L198.15 284.6ZM203.75 254.5H204.75C204.75 241.817 202.874 231.611 199.044 223.953L198.15 224.4L197.256 224.847C200.893 232.122 202.75 241.983 202.75 254.5H203.75ZM198.15 224.4L199.055 223.976C195.491 216.371 190.71 210.611 184.689 206.758L184.15 207.6L183.611 208.442C189.257 212.056 193.809 217.496 197.245 224.824L198.15 224.4ZM184.15 207.6L184.689 206.758C178.739 202.95 172.194 200.452 165.064 199.264L164.9 200.25L164.736 201.236C171.606 202.381 177.894 204.784 183.611 208.442L184.15 207.6ZM164.9 200.25L165.064 199.264C158.013 198.088 151.074 197.5 144.25 197.5V198.5V199.5C150.959 199.5 157.787 200.078 164.736 201.236L164.9 200.25ZM144.25 198.5V197.5H104.7V198.5V199.5H144.25V198.5ZM104.7 198.5H105.7V132H104.7H103.7V198.5H104.7ZM104.7 132V133H147.75V132V131H104.7V132ZM147.75 132V133C176.105 133 200.332 137.881 220.465 147.601L220.9 146.7L221.335 145.799C200.868 135.919 176.329 131 147.75 131V132ZM220.9 146.7L220.469 147.602C240.837 157.324 256.314 171.193 266.939 189.208L267.8 188.7L268.661 188.192C257.819 169.807 242.029 155.676 221.331 145.798L220.9 146.7ZM267.8 188.7L266.943 189.216C277.798 207.231 283.25 228.977 283.25 254.5H284.25H285.25C285.25 228.689 279.735 206.569 268.657 188.184L267.8 188.7ZM284.25 254.5H283.25C283.25 279.787 277.799 301.537 266.941 319.789L267.8 320.3L268.659 320.811C279.734 302.197 285.25 280.08 285.25 254.5H284.25ZM267.8 320.3L266.939 319.792C256.314 337.807 240.837 351.676 220.469 361.398L220.9 362.3L221.331 363.202C242.029 353.324 257.819 339.193 268.661 320.808L267.8 320.3ZM220.9 362.3L220.465 361.399C200.332 371.119 176.105 376 147.75 376V377V378C176.329 378 200.868 373.081 221.335 363.201L220.9 362.3Z" fill="white" fill-opacity="0.2" mask="url(#path-27-outside-14_142_6152)"/>
<mask id="path-29-outside-15_142_6152" maskUnits="userSpaceOnUse" x="549" y="124" width="216" height="265" fill="black">
<rect fill="white" x="549" y="124" width="216" height="265"/>
<path d="M602.3 283.9C606.967 292.067 612.333 299.183 618.4 305.25C624.467 311.083 631 315.517 638 318.55C645.233 321.583 652.467 323.1 659.7 323.1C665.767 323.1 670.9 321.933 675.1 319.6C679.3 317.033 681.4 313.067 681.4 307.7C681.4 304.433 680.233 301.633 677.9 299.3C675.8 296.967 671.483 294.283 664.95 291.25C658.417 288.217 648.5 284.133 635.2 279C629.367 276.667 622.6 273.517 614.9 269.55C607.433 265.583 600.2 260.45 593.2 254.15C586.433 247.85 580.717 240.15 576.05 231.05C571.617 221.95 569.4 211.217 569.4 198.85C569.4 182.75 573.717 169.217 582.35 158.25C590.983 147.283 602.417 139 616.65 133.4C630.883 127.8 646.517 125 663.55 125C681.983 125 697.733 127.8 710.8 133.4C724.1 139 734.95 146 743.35 154.4C751.983 162.8 758.517 171.2 762.95 179.6L705.9 211.1C702.167 205.267 697.967 200.717 693.3 197.45C688.867 193.95 684.317 191.383 679.65 189.75C674.983 188.117 670.433 187.3 666 187.3C660.633 187.3 656.2 188.233 652.7 190.1C649.433 191.967 647.8 194.883 647.8 198.85C647.8 203.75 650.133 207.833 654.8 211.1C659.7 214.133 666.117 217.05 674.05 219.85C681.983 222.417 690.733 225.45 700.3 228.95C710.1 232.45 718.85 236.65 726.55 241.55C734.25 246.217 740.783 251.7 746.15 258C751.75 264.3 755.95 271.417 758.75 279.35C761.55 287.05 762.95 295.683 762.95 305.25C762.95 318.783 760.15 330.8 754.55 341.3C748.95 351.567 741.367 360.083 731.8 366.85C722.467 373.617 711.85 378.75 699.95 382.25C688.05 385.75 675.8 387.5 663.2 387.5C645.7 387.5 629.367 384.583 614.2 378.75C599.267 373.15 586.317 365.333 575.35 355.3C564.383 345.267 556.1 334.067 550.5 321.7L602.3 283.9Z"/>
</mask>
<path d="M602.3 283.9L603.168 283.404L602.614 282.433L601.711 283.092L602.3 283.9ZM618.4 305.25L617.693 305.957L617.7 305.964L617.707 305.971L618.4 305.25ZM638 318.55L637.602 319.468L637.613 319.472L638 318.55ZM675.1 319.6L675.586 320.474L675.604 320.464L675.621 320.453L675.1 319.6ZM677.9 299.3L677.157 299.969L677.174 299.988L677.193 300.007L677.9 299.3ZM664.95 291.25L664.529 292.157L664.95 291.25ZM635.2 279L634.829 279.929L634.84 279.933L635.2 279ZM614.9 269.55L614.431 270.433L614.442 270.439L614.9 269.55ZM593.2 254.15L592.519 254.882L592.525 254.888L592.531 254.893L593.2 254.15ZM576.05 231.05L575.151 231.488L575.156 231.497L575.16 231.506L576.05 231.05ZM582.35 158.25L583.136 158.869H583.136L582.35 158.25ZM616.65 133.4L617.016 134.331L616.65 133.4ZM710.8 133.4L710.406 134.319L710.412 134.322L710.8 133.4ZM743.35 154.4L742.643 155.107L742.653 155.117L743.35 154.4ZM762.95 179.6L763.433 180.475L764.292 180.001L763.834 179.133L762.95 179.6ZM705.9 211.1L705.058 211.639L705.563 212.428L706.383 211.975L705.9 211.1ZM693.3 197.45L692.68 198.235L692.703 198.253L692.727 198.269L693.3 197.45ZM652.7 190.1L652.229 189.218L652.217 189.225L652.204 189.232L652.7 190.1ZM654.8 211.1L654.227 211.919L654.25 211.935L654.274 211.95L654.8 211.1ZM674.05 219.85L673.717 220.793L673.73 220.797L673.742 220.801L674.05 219.85ZM700.3 228.95L699.956 229.889L699.964 229.892L700.3 228.95ZM726.55 241.55L726.013 242.394L726.022 242.4L726.032 242.405L726.55 241.55ZM746.15 258L745.389 258.648L745.396 258.656L745.403 258.664L746.15 258ZM758.75 279.35L757.807 279.683L757.81 279.692L758.75 279.35ZM754.55 341.3L755.428 341.779L755.432 341.771L754.55 341.3ZM731.8 366.85L731.223 366.034L731.213 366.04L731.8 366.85ZM614.2 378.75L614.559 377.817L614.551 377.814L614.2 378.75ZM575.35 355.3L576.025 354.562L575.35 355.3ZM550.5 321.7L549.911 320.892L549.254 321.372L549.589 322.113L550.5 321.7ZM602.3 283.9L601.432 284.396C606.138 292.633 611.558 299.822 617.693 305.957L618.4 305.25L619.107 304.543C613.109 298.545 607.795 291.501 603.168 283.404L602.3 283.9ZM618.4 305.25L617.707 305.971C623.851 311.878 630.482 316.382 637.602 319.468L638 318.55L638.398 317.632C631.518 314.651 625.083 310.288 619.093 304.529L618.4 305.25ZM638 318.55L637.613 319.472C644.959 322.553 652.323 324.1 659.7 324.1V323.1V322.1C652.61 322.1 645.508 320.614 638.387 317.628L638 318.55ZM659.7 323.1V324.1C665.893 324.1 671.203 322.909 675.586 320.474L675.1 319.6L674.614 318.726C670.597 320.958 665.641 322.1 659.7 322.1V323.1ZM675.1 319.6L675.621 320.453C680.15 317.686 682.4 313.377 682.4 307.7H681.4H680.4C680.4 312.756 678.45 316.381 674.579 318.747L675.1 319.6ZM681.4 307.7H682.4C682.4 304.165 681.126 301.112 678.607 298.593L677.9 299.3L677.193 300.007C679.341 302.155 680.4 304.702 680.4 307.7H681.4ZM677.9 299.3L678.643 298.631C676.394 296.132 671.909 293.378 665.371 290.343L664.95 291.25L664.529 292.157C671.058 295.188 675.206 297.801 677.157 299.969L677.9 299.3ZM664.95 291.25L665.371 290.343C658.807 287.295 648.865 283.202 635.56 278.067L635.2 279L634.84 279.933C648.135 285.064 658.027 289.138 664.529 292.157L664.95 291.25ZM635.2 279L635.571 278.072C629.776 275.753 623.039 272.618 615.358 268.661L614.9 269.55L614.442 270.439C622.161 274.415 628.957 277.58 634.829 279.928L635.2 279ZM614.9 269.55L615.369 268.667C607.982 264.743 600.815 259.658 593.869 253.407L593.2 254.15L592.531 254.893C599.585 261.242 606.884 266.424 614.431 270.433L614.9 269.55ZM593.2 254.15L593.881 253.418C587.208 247.205 581.559 239.601 576.94 230.594L576.05 231.05L575.16 231.506C579.874 240.699 585.658 248.495 592.519 254.882L593.2 254.15ZM576.05 231.05L576.949 230.612C572.595 221.675 570.4 211.098 570.4 198.85H569.4H568.4C568.4 211.335 570.638 222.225 575.151 231.488L576.05 231.05ZM569.4 198.85H570.4C570.4 182.938 574.662 169.633 583.136 158.869L582.35 158.25L581.564 157.631C572.771 168.801 568.4 182.562 568.4 198.85H569.4ZM582.35 158.25L583.136 158.869C591.649 148.054 602.932 139.872 617.016 134.331L616.65 133.4L616.284 132.469C601.902 138.128 590.318 146.512 581.564 157.631L582.35 158.25ZM616.65 133.4L617.016 134.331C631.12 128.781 646.628 126 663.55 126V125V124C646.406 124 630.646 126.819 616.284 132.469L616.65 133.4ZM663.55 125V126C681.886 126 697.495 128.786 710.406 134.319L710.8 133.4L711.194 132.481C697.972 126.814 682.08 124 663.55 124V125ZM710.8 133.4L710.412 134.322C723.618 139.882 734.352 146.816 742.643 155.107L743.35 154.4L744.057 153.693C735.548 145.184 724.582 138.118 711.188 132.478L710.8 133.4ZM743.35 154.4L742.653 155.117C751.23 163.462 757.692 171.78 762.066 180.067L762.95 179.6L763.834 179.133C759.341 170.62 752.737 162.138 744.047 153.683L743.35 154.4ZM762.95 179.6L762.467 178.725L705.417 210.225L705.9 211.1L706.383 211.975L763.433 180.475L762.95 179.6ZM705.9 211.1L706.742 210.561C702.953 204.641 698.668 199.987 693.873 196.631L693.3 197.45L692.727 198.269C697.266 201.447 701.38 205.893 705.058 211.639L705.9 211.1ZM693.3 197.45L693.92 196.665C689.412 193.106 684.765 190.481 679.98 188.806L679.65 189.75L679.32 190.694C683.868 192.286 688.322 194.794 692.68 198.235L693.3 197.45ZM679.65 189.75L679.98 188.806C675.22 187.14 670.558 186.3 666 186.3V187.3V188.3C670.309 188.3 674.747 189.093 679.32 190.694L679.65 189.75ZM666 187.3V186.3C660.525 186.3 655.916 187.251 652.229 189.218L652.7 190.1L653.171 190.982C656.484 189.215 660.742 188.3 666 188.3V187.3ZM652.7 190.1L652.204 189.232C648.605 191.288 646.8 194.548 646.8 198.85H647.8H648.8C648.8 195.218 650.261 192.645 653.196 190.968L652.7 190.1ZM647.8 198.85H646.8C646.8 204.133 649.343 208.5 654.227 211.919L654.8 211.1L655.373 210.281C650.924 207.166 648.8 203.367 648.8 198.85H647.8ZM654.8 211.1L654.274 211.95C659.256 215.034 665.744 217.979 673.717 220.793L674.05 219.85L674.383 218.907C666.489 216.121 660.145 213.232 655.326 210.25L654.8 211.1ZM674.05 219.85L673.742 220.801C681.661 223.363 690.399 226.393 699.956 229.889L700.3 228.95L700.644 228.011C691.068 224.507 682.305 221.47 674.358 218.899L674.05 219.85ZM700.3 228.95L699.964 229.892C709.703 233.37 718.384 237.539 726.013 242.394L726.55 241.55L727.087 240.706C719.316 235.761 710.497 231.53 700.636 228.008L700.3 228.95ZM726.55 241.55L726.032 242.405C733.648 247.021 740.097 252.437 745.389 258.648L746.15 258L746.911 257.352C741.469 250.963 734.852 245.412 727.068 240.695L726.55 241.55ZM746.15 258L745.403 258.664C750.917 264.868 755.05 271.872 757.807 279.683L758.75 279.35L759.693 279.017C756.85 270.961 752.583 263.732 746.897 257.336L746.15 258ZM758.75 279.35L757.81 279.692C760.564 287.266 761.95 295.781 761.95 305.25H762.95H763.95C763.95 295.586 762.536 286.834 759.69 279.008L758.75 279.35ZM762.95 305.25H761.95C761.95 318.642 759.18 330.493 753.668 340.829L754.55 341.3L755.432 341.771C761.12 331.107 763.95 318.925 763.95 305.25H762.95ZM754.55 341.3L753.672 340.821C748.145 350.954 740.665 359.355 731.223 366.034L731.8 366.85L732.377 367.666C742.068 360.812 749.755 352.18 755.428 341.779L754.55 341.3ZM731.8 366.85L731.213 366.04C721.979 372.735 711.467 377.82 699.668 381.291L699.95 382.25L700.232 383.209C712.233 379.68 722.955 374.498 732.387 367.66L731.8 366.85ZM699.95 382.25L699.668 381.291C687.861 384.763 675.706 386.5 663.2 386.5V387.5V388.5C675.894 388.5 688.239 386.737 700.232 383.209L699.95 382.25ZM663.2 387.5V386.5C645.813 386.5 629.603 383.603 614.559 377.817L614.2 378.75L613.841 379.683C629.131 385.564 645.587 388.5 663.2 388.5V387.5ZM614.2 378.75L614.551 377.814C599.729 372.255 586.891 364.503 576.025 354.562L575.35 355.3L574.675 356.038C585.743 366.164 598.805 374.045 613.849 379.686L614.2 378.75ZM575.35 355.3L576.025 354.562C565.149 344.611 556.95 333.52 551.411 321.287L550.5 321.7L549.589 322.113C555.25 334.614 563.618 345.922 574.675 356.038L575.35 355.3ZM550.5 321.7L551.089 322.508L602.889 284.708L602.3 283.9L601.711 283.092L549.911 320.892L550.5 321.7Z" fill="white" fill-opacity="0.2" mask="url(#path-29-outside-15_142_6152)"/>
<mask id="path-31-outside-16_142_6152" maskUnits="userSpaceOnUse" x="818" y="131" width="82" height="247" fill="black">
<rect fill="white" x="818" y="131" width="82" height="247"/>
<path d="M819.5 132H898.25V377H819.5V132Z"/>
</mask>
<path d="M819.5 132V131H818.5V132H819.5ZM898.25 132H899.25V131H898.25V132ZM898.25 377V378H899.25V377H898.25ZM819.5 377H818.5V378H819.5V377ZM819.5 132V133H898.25V132V131H819.5V132ZM898.25 132H897.25V377H898.25H899.25V132H898.25ZM898.25 377V376H819.5V377V378H898.25V377ZM819.5 377H820.5V132H819.5H818.5V377H819.5Z" fill="white" fill-opacity="0.2" mask="url(#path-31-outside-16_142_6152)"/>
<mask id="path-33-outside-17_142_6152" maskUnits="userSpaceOnUse" x="937" y="124" width="274" height="265" fill="black">
<rect fill="white" x="937" y="124" width="274" height="265"/>
<path d="M1078.5 293V237H1208.7C1210.57 258 1208.93 277.6 1203.8 295.8C1198.9 314 1190.85 329.983 1179.65 343.75C1168.45 357.517 1154.33 368.25 1137.3 375.95C1120.27 383.65 1100.67 387.5 1078.5 387.5C1057.97 387.5 1039.18 384.35 1022.15 378.05C1005.12 371.75 990.3 362.767 977.7 351.1C965.333 339.433 955.65 325.433 948.65 309.1C941.883 292.767 938.5 274.567 938.5 254.5C938.5 234.433 942.117 216.467 949.35 200.6C956.583 184.5 966.617 170.85 979.45 159.65C992.517 148.45 1007.68 139.933 1024.95 134.1C1042.45 128.033 1061.47 125 1082 125C1100.67 125 1117.12 127.8 1131.35 133.4C1145.82 139 1158.42 146.467 1169.15 155.8C1180.12 164.9 1189.68 175.167 1197.85 186.6L1126.1 218.8C1121.9 211.1 1116.42 204.333 1109.65 198.5C1102.88 192.667 1093.67 189.75 1082 189.75C1070.57 189.75 1060.07 192.2 1050.5 197.1C1040.93 201.767 1033.23 208.883 1027.4 218.45C1021.8 228.017 1019 240.033 1019 254.5C1019 268.733 1021.57 280.983 1026.7 291.25C1032.07 301.517 1039.42 309.333 1048.75 314.7C1058.32 320.067 1069.4 322.75 1082 322.75C1089 322.75 1095.18 322.05 1100.55 320.65C1106.15 319.25 1111.05 317.267 1115.25 314.7C1119.45 312.133 1123.07 308.983 1126.1 305.25C1129.13 301.517 1131.7 297.433 1133.8 293H1078.5Z"/>
</mask>
<path d="M1078.5 293H1077.5V294H1078.5V293ZM1078.5 237V236H1077.5V237H1078.5ZM1208.7 237L1209.7 236.911L1209.62 236H1208.7V237ZM1203.8 295.8L1202.84 295.529L1202.83 295.54L1203.8 295.8ZM1179.65 343.75L1180.43 344.381L1179.65 343.75ZM1137.3 375.95L1137.71 376.861L1137.3 375.95ZM1022.15 378.05L1022.5 377.112L1022.15 378.05ZM977.7 351.1L977.014 351.827L977.021 351.834L977.7 351.1ZM948.65 309.1L947.726 309.483L947.731 309.494L948.65 309.1ZM949.35 200.6L950.26 201.015L950.262 201.01L949.35 200.6ZM979.45 159.65L978.799 158.891L978.792 158.897L979.45 159.65ZM1024.95 134.1L1025.27 135.047L1025.28 135.045L1024.95 134.1ZM1131.35 133.4L1130.98 134.331L1130.99 134.333L1131.35 133.4ZM1169.15 155.8L1168.49 156.555L1168.5 156.562L1168.51 156.57L1169.15 155.8ZM1197.85 186.6L1198.26 187.512L1199.37 187.012L1198.66 186.019L1197.85 186.6ZM1126.1 218.8L1125.22 219.279L1125.67 220.091L1126.51 219.712L1126.1 218.8ZM1109.65 198.5L1110.3 197.743L1109.65 198.5ZM1050.5 197.1L1050.94 197.999L1050.95 197.994L1050.96 197.99L1050.5 197.1ZM1027.4 218.45L1026.55 217.929L1026.54 217.937L1026.54 217.945L1027.4 218.45ZM1026.7 291.25L1025.81 291.697L1025.81 291.705L1025.81 291.713L1026.7 291.25ZM1048.75 314.7L1048.25 315.567L1048.26 315.572L1048.75 314.7ZM1100.55 320.65L1100.31 319.68L1100.3 319.682L1100.55 320.65ZM1115.25 314.7L1115.77 315.553L1115.25 314.7ZM1133.8 293L1134.7 293.428L1135.38 292H1133.8V293ZM1078.5 293H1079.5V237H1078.5H1077.5V293H1078.5ZM1078.5 237V238H1208.7V237V236H1078.5V237ZM1208.7 237L1207.7 237.089C1209.56 257.981 1207.93 277.458 1202.84 295.529L1203.8 295.8L1204.76 296.071C1209.93 277.742 1211.57 258.019 1209.7 236.911L1208.7 237ZM1203.8 295.8L1202.83 295.54C1197.97 313.613 1189.98 329.468 1178.87 343.119L1179.65 343.75L1180.43 344.381C1191.72 330.499 1199.83 314.387 1204.77 296.06L1203.8 295.8ZM1179.65 343.75L1178.87 343.119C1167.78 356.759 1153.79 367.399 1136.89 375.039L1137.3 375.95L1137.71 376.861C1154.88 369.101 1169.12 358.275 1180.43 344.381L1179.65 343.75ZM1137.3 375.95L1136.89 375.039C1120.01 382.67 1100.55 386.5 1078.5 386.5V387.5V388.5C1100.78 388.5 1120.53 384.63 1137.71 376.861L1137.3 375.95ZM1078.5 387.5V386.5C1058.07 386.5 1039.41 383.366 1022.5 377.112L1022.15 378.05L1021.8 378.988C1038.96 385.334 1057.86 388.5 1078.5 388.5V387.5ZM1022.15 378.05L1022.5 377.112C1005.58 370.855 990.878 361.939 978.379 350.366L977.7 351.1L977.021 351.834C989.722 363.595 1004.65 372.645 1021.8 378.988L1022.15 378.05ZM977.7 351.1L978.386 350.373C966.124 338.804 956.518 324.919 949.569 308.706L948.65 309.1L947.731 309.494C954.782 325.947 964.543 340.062 977.014 351.827L977.7 351.1ZM948.65 309.1L949.574 308.717C942.864 292.521 939.5 274.453 939.5 254.5H938.5H937.5C937.5 274.68 940.903 293.013 947.726 309.483L948.65 309.1ZM938.5 254.5H939.5C939.5 234.555 943.094 216.733 950.26 201.015L949.35 200.6L948.44 200.185C941.139 216.2 937.5 234.312 937.5 254.5H938.5ZM949.35 200.6L950.262 201.01C957.439 185.036 967.387 171.505 980.108 160.403L979.45 159.65L978.792 158.897C965.847 170.195 955.728 183.964 948.438 200.19L949.35 200.6ZM979.45 159.65L980.101 160.409C993.065 149.297 1008.12 140.842 1025.27 135.047L1024.95 134.1L1024.63 133.153C1007.25 139.024 991.969 147.603 978.799 158.891L979.45 159.65ZM1024.95 134.1L1025.28 135.045C1042.66 129.018 1061.57 126 1082 126V125V124C1061.37 124 1042.24 127.048 1024.62 133.155L1024.95 134.1ZM1082 125V126C1100.57 126 1116.89 128.785 1130.98 134.331L1131.35 133.4L1131.72 132.469C1117.34 126.815 1100.77 124 1082 124V125ZM1131.35 133.4L1130.99 134.333C1145.36 139.895 1157.86 147.304 1168.49 156.555L1169.15 155.8L1169.81 155.045C1158.98 145.63 1146.28 138.105 1131.71 132.467L1131.35 133.4ZM1169.15 155.8L1168.51 156.57C1179.41 165.615 1188.92 175.819 1197.04 187.181L1197.85 186.6L1198.66 186.019C1190.45 174.514 1180.82 164.185 1169.79 155.03L1169.15 155.8ZM1197.85 186.6L1197.44 185.688L1125.69 217.888L1126.1 218.8L1126.51 219.712L1198.26 187.512L1197.85 186.6ZM1126.1 218.8L1126.98 218.321C1122.72 210.514 1117.16 203.653 1110.3 197.743L1109.65 198.5L1109 199.257C1115.67 205.014 1121.08 211.686 1125.22 219.279L1126.1 218.8ZM1109.65 198.5L1110.3 197.743C1103.31 191.71 1093.83 188.75 1082 188.75V189.75V190.75C1093.5 190.75 1102.46 193.623 1109 199.257L1109.65 198.5ZM1082 189.75V188.75C1070.42 188.75 1059.76 191.233 1050.04 196.21L1050.5 197.1L1050.96 197.99C1060.37 193.167 1070.71 190.75 1082 190.75V189.75ZM1050.5 197.1L1050.06 196.201C1040.31 200.956 1032.47 208.209 1026.55 217.929L1027.4 218.45L1028.25 218.971C1033.99 209.558 1041.55 202.577 1050.94 197.999L1050.5 197.1ZM1027.4 218.45L1026.54 217.945C1020.82 227.705 1018 239.909 1018 254.5H1019H1020C1020 240.158 1022.78 228.329 1028.26 218.955L1027.4 218.45ZM1019 254.5H1018C1018 268.852 1020.59 281.262 1025.81 291.697L1026.7 291.25L1027.59 290.803C1022.55 280.704 1020 268.615 1020 254.5H1019ZM1026.7 291.25L1025.81 291.713C1031.26 302.135 1038.74 310.098 1048.25 315.567L1048.75 314.7L1049.25 313.833C1040.09 308.569 1032.87 300.898 1027.59 290.787L1026.7 291.25ZM1048.75 314.7L1048.26 315.572C1058 321.034 1069.25 323.75 1082 323.75V322.75V321.75C1069.55 321.75 1058.64 319.099 1049.24 313.828L1048.75 314.7ZM1082 322.75V323.75C1089.06 323.75 1095.34 323.044 1100.8 321.618L1100.55 320.65L1100.3 319.682C1095.03 321.056 1088.94 321.75 1082 321.75V322.75ZM1100.55 320.65L1100.79 321.62C1106.47 320.2 1111.47 318.181 1115.77 315.553L1115.25 314.7L1114.73 313.847C1110.63 316.352 1105.83 318.3 1100.31 319.68L1100.55 320.65ZM1115.25 314.7L1115.77 315.553C1120.07 312.929 1123.77 309.704 1126.88 305.881L1126.1 305.25L1125.32 304.619C1122.36 308.263 1118.83 311.338 1114.73 313.847L1115.25 314.7ZM1126.1 305.25L1126.88 305.881C1129.96 302.084 1132.57 297.932 1134.7 293.428L1133.8 293L1132.9 292.572C1130.83 296.934 1128.31 300.949 1125.32 304.619L1126.1 305.25ZM1133.8 293V292H1078.5V293V294H1133.8V293Z" fill="white" fill-opacity="0.2" mask="url(#path-33-outside-17_142_6152)"/>
<mask id="path-35-outside-18_142_6152" maskUnits="userSpaceOnUse" x="1235" y="115" width="236" height="275" fill="black">
<rect fill="white" x="1235" y="115" width="236" height="275"/>
<path d="M1395.75 130H1469.25V387.25L1310 264.05V375H1236.5V117.75L1395.75 240.95V130Z"/>
</mask>
<path d="M1395.75 130V129H1394.75V130H1395.75ZM1469.25 130H1470.25V129H1469.25V130ZM1469.25 387.25L1468.64 388.041L1470.25 389.288V387.25H1469.25ZM1310 264.05L1310.61 263.259L1309 262.012V264.05H1310ZM1310 375V376H1311V375H1310ZM1236.5 375H1235.5V376H1236.5V375ZM1236.5 117.75L1237.11 116.959L1235.5 115.712V117.75H1236.5ZM1395.75 240.95L1395.14 241.741L1396.75 242.988V240.95H1395.75ZM1395.75 130V131H1469.25V130V129H1395.75V130ZM1469.25 130H1468.25V387.25H1469.25H1470.25V130H1469.25ZM1469.25 387.25L1469.86 386.459L1310.61 263.259L1310 264.05L1309.39 264.841L1468.64 388.041L1469.25 387.25ZM1310 264.05H1309V375H1310H1311V264.05H1310ZM1310 375V374H1236.5V375V376H1310V375ZM1236.5 375H1237.5V117.75H1236.5H1235.5V375H1236.5ZM1236.5 117.75L1235.89 118.541L1395.14 241.741L1395.75 240.95L1396.36 240.159L1237.11 116.959L1236.5 117.75ZM1395.75 240.95H1396.75V130H1395.75H1394.75V240.95H1395.75Z" fill="white" fill-opacity="0.2" mask="url(#path-35-outside-18_142_6152)"/>
</svg>
