<svg width="310" height="200" viewBox="0 0 310 200" fill="none" xmlns="http://www.w3.org/2000/svg">
<rect x="0.5" y="0.5" width="309" height="199" rx="39.5" stroke="#F7F7F7" stroke-opacity="0.16"/>
<rect x="17.8041" y="129" width="90.0676" height="65" rx="30" fill="#222B39"/>
<rect x="15.7095" y="16" width="146.622" height="99" rx="30" fill="#222B39"/>
<rect x="193.75" y="17" width="100.541" height="171" rx="30" fill="#222B39"/>
<path d="M45.3281 68.2L46.6481 62.2H66.1481L67.5281 68.2H45.3281ZM56.3081 48.88L49.7081 64.3L49.5881 65.86L43.7681 79H35.7881L56.3081 34.66L76.8281 79H68.8481L63.1481 66.22L62.9681 64.48L56.3081 48.88ZM81.7139 37H88.7939V72.64H105.474V79H81.7139V37ZM110.601 37H117.681V72.64H134.361V79H110.601V37ZM38.0441 102.08H36.5181V92.56H38.0441V102.08ZM43.3781 95.78C43.3781 96.4893 43.2334 97.1007 42.9441 97.614C42.6548 98.118 42.2721 98.5053 41.7961 98.776C41.3201 99.0373 40.8021 99.168 40.2421 99.168C39.6914 99.168 39.2108 99.0327 38.8001 98.762C38.3988 98.482 38.0861 98.09 37.8621 97.586C37.6474 97.0727 37.5401 96.4707 37.5401 95.78C37.5401 95.08 37.6474 94.478 37.8621 93.974C38.0861 93.47 38.3988 93.0827 38.8001 92.812C39.2108 92.532 39.6914 92.392 40.2421 92.392C40.8021 92.392 41.3201 92.5273 41.7961 92.798C42.2721 93.0593 42.6548 93.442 42.9441 93.946C43.2334 94.45 43.3781 95.0613 43.3781 95.78ZM41.8101 95.78C41.8101 95.3507 41.7214 94.9867 41.5441 94.688C41.3668 94.38 41.1288 94.1513 40.8301 94.002C40.5408 93.8433 40.2188 93.764 39.8641 93.764C39.5748 93.764 39.2901 93.8433 39.0101 94.002C38.7301 94.1513 38.4968 94.3753 38.3101 94.674C38.1328 94.9727 38.0441 95.3413 38.0441 95.78C38.0441 96.2187 38.1328 96.5873 38.3101 96.886C38.4968 97.1847 38.7301 97.4133 39.0101 97.572C39.2901 97.7213 39.5748 97.796 39.8641 97.796C40.2188 97.796 40.5408 97.7213 40.8301 97.572C41.1288 97.4133 41.3668 97.1847 41.5441 96.886C41.7214 96.578 41.8101 96.2093 41.8101 95.78ZM46.3162 92.56V99H44.8182V92.56H46.3162ZM48.2342 94.17C48.0942 94.058 47.9636 93.974 47.8422 93.918C47.7209 93.862 47.5669 93.834 47.3802 93.834C47.1282 93.834 46.9229 93.8993 46.7642 94.03C46.6056 94.1607 46.4889 94.3427 46.4142 94.576C46.3489 94.8 46.3162 95.066 46.3162 95.374L45.8122 95.08C45.8122 94.5667 45.9056 94.114 46.0922 93.722C46.2882 93.3207 46.5356 93.0033 46.8342 92.77C47.1422 92.5367 47.4596 92.42 47.7862 92.42C48.0196 92.42 48.2389 92.4573 48.4442 92.532C48.6496 92.5973 48.8222 92.7187 48.9622 92.896L48.2342 94.17ZM49.3048 95.78C49.3048 95.1173 49.4541 94.534 49.7528 94.03C50.0608 93.526 50.4761 93.134 50.9988 92.854C51.5215 92.5647 52.1141 92.42 52.7768 92.42C53.4395 92.42 54.0275 92.5647 54.5408 92.854C55.0635 93.134 55.4788 93.526 55.7868 94.03C56.0948 94.534 56.2488 95.1173 56.2488 95.78C56.2488 96.4333 56.0948 97.0167 55.7868 97.53C55.4788 98.034 55.0635 98.4307 54.5408 98.72C54.0275 99 53.4395 99.14 52.7768 99.14C52.1141 99.14 51.5215 99 50.9988 98.72C50.4761 98.4307 50.0608 98.034 49.7528 97.53C49.4541 97.0167 49.3048 96.4333 49.3048 95.78ZM50.8588 95.78C50.8588 96.1813 50.9428 96.536 51.1108 96.844C51.2788 97.1427 51.5075 97.3807 51.7968 97.558C52.0861 97.726 52.4128 97.81 52.7768 97.81C53.1315 97.81 53.4535 97.726 53.7428 97.558C54.0415 97.3807 54.2748 97.1427 54.4428 96.844C54.6108 96.536 54.6948 96.1813 54.6948 95.78C54.6948 95.3787 54.6108 95.024 54.4428 94.716C54.2748 94.408 54.0415 94.17 53.7428 94.002C53.4535 93.834 53.1315 93.75 52.7768 93.75C52.4128 93.75 52.0861 93.834 51.7968 94.002C51.5075 94.17 51.2788 94.408 51.1108 94.716C50.9428 95.024 50.8588 95.3787 50.8588 95.78ZM57.4875 89.998C57.4875 89.7367 57.5808 89.522 57.7675 89.354C57.9541 89.1767 58.1781 89.088 58.4395 89.088C58.7008 89.088 58.9201 89.1767 59.0975 89.354C59.2841 89.522 59.3775 89.7367 59.3775 89.998C59.3775 90.25 59.2841 90.4647 59.0975 90.642C58.9201 90.8193 58.7008 90.908 58.4395 90.908C58.1781 90.908 57.9541 90.8193 57.7675 90.642C57.5808 90.4647 57.4875 90.25 57.4875 89.998ZM56.3955 100.386C56.4701 100.498 56.5635 100.587 56.6755 100.652C56.7875 100.717 56.9181 100.75 57.0675 100.75C57.2168 100.75 57.3381 100.708 57.4315 100.624C57.5341 100.549 57.6088 100.428 57.6555 100.26C57.7115 100.092 57.7395 99.8773 57.7395 99.616V92.56H59.2235V99.91C59.2235 100.377 59.1441 100.778 58.9855 101.114C58.8268 101.459 58.5888 101.721 58.2715 101.898C57.9635 102.085 57.5808 102.178 57.1235 102.178C56.8901 102.178 56.6848 102.15 56.5075 102.094C56.3301 102.047 56.1761 101.973 56.0455 101.87C55.9055 101.777 55.7841 101.674 55.6815 101.562L56.3955 100.386ZM64.1065 99.14C63.4532 99.14 62.8745 99 62.3705 98.72C61.8758 98.44 61.4932 98.048 61.2225 97.544C60.9518 97.04 60.8165 96.452 60.8165 95.78C60.8165 95.0987 60.9518 94.506 61.2225 94.002C61.5025 93.498 61.8945 93.1107 62.3985 92.84C62.9025 92.56 63.4952 92.42 64.1765 92.42C64.8578 92.42 65.4365 92.5507 65.9125 92.812C66.3885 93.0733 66.7525 93.4513 67.0045 93.946C67.2658 94.4313 67.3965 95.0193 67.3965 95.71C67.3965 95.7847 67.3918 95.864 67.3825 95.948C67.3825 96.032 67.3778 96.0927 67.3685 96.13H61.7125V95.094H66.0805L65.6185 95.738C65.6465 95.682 65.6745 95.6073 65.7025 95.514C65.7398 95.4113 65.7585 95.3273 65.7585 95.262C65.7585 94.9167 65.6885 94.618 65.5485 94.366C65.4178 94.114 65.2312 93.918 64.9885 93.778C64.7552 93.638 64.4798 93.568 64.1625 93.568C63.7798 93.568 63.4532 93.652 63.1825 93.82C62.9118 93.988 62.7065 94.2307 62.5665 94.548C62.4265 94.8653 62.3518 95.2573 62.3425 95.724C62.3425 96.1907 62.4125 96.5873 62.5525 96.914C62.6925 97.2313 62.8978 97.474 63.1685 97.642C63.4485 97.81 63.7845 97.894 64.1765 97.894C64.5872 97.894 64.9465 97.81 65.2545 97.642C65.5625 97.474 65.8192 97.2173 66.0245 96.872L67.3265 97.404C66.9905 97.9827 66.5565 98.4167 66.0245 98.706C65.4925 98.9953 64.8532 99.14 64.1065 99.14ZM69.8477 95.78C69.8477 96.1907 69.9364 96.55 70.1137 96.858C70.2911 97.1567 70.5291 97.3947 70.8277 97.572C71.1357 97.7493 71.4764 97.838 71.8497 97.838C72.1577 97.838 72.4517 97.7913 72.7317 97.698C73.0117 97.6047 73.2591 97.474 73.4737 97.306C73.6884 97.138 73.8471 96.9513 73.9497 96.746V98.412C73.7257 98.636 73.4224 98.8133 73.0397 98.944C72.6571 99.0747 72.2371 99.14 71.7797 99.14C71.1171 99.14 70.5197 99 69.9877 98.72C69.4651 98.4307 69.0497 98.034 68.7417 97.53C68.4431 97.0167 68.2937 96.4333 68.2937 95.78C68.2937 95.1173 68.4431 94.534 68.7417 94.03C69.0497 93.526 69.4651 93.134 69.9877 92.854C70.5197 92.5647 71.1171 92.42 71.7797 92.42C72.2371 92.42 72.6571 92.4853 73.0397 92.616C73.4224 92.7467 73.7257 92.924 73.9497 93.148V94.814C73.8471 94.5993 73.6837 94.4127 73.4597 94.254C73.2451 94.086 72.9977 93.9553 72.7177 93.862C72.4377 93.7687 72.1484 93.722 71.8497 93.722C71.4764 93.722 71.1357 93.8107 70.8277 93.988C70.5291 94.1653 70.2911 94.408 70.1137 94.716C69.9364 95.024 69.8477 95.3787 69.8477 95.78ZM74.725 92.56H78.379V93.89H74.725V92.56ZM75.803 90.32H77.301V99H75.803V90.32Z" fill="white"/>
<path d="M214.887 37H221.967V64.9C221.967 67.5 222.647 69.6 224.007 71.2C225.407 72.76 227.467 73.54 230.187 73.54C232.867 73.54 234.907 72.76 236.307 71.2C237.707 69.6 238.407 67.5 238.407 64.9V37H245.487V65.2C245.487 67.52 245.107 69.6 244.347 71.44C243.627 73.24 242.587 74.78 241.227 76.06C239.867 77.34 238.247 78.32 236.367 79C234.487 79.68 232.427 80.02 230.187 80.02C227.947 80.02 225.887 79.68 224.007 79C222.127 78.32 220.487 77.34 219.087 76.06C217.727 74.78 216.687 73.24 215.967 71.44C215.247 69.6 214.887 67.52 214.887 65.2V37ZM253.782 40.42C253.782 39.3 254.182 38.36 254.982 37.6C255.822 36.84 256.782 36.46 257.862 36.46C259.022 36.46 259.982 36.84 260.742 37.6C261.542 38.36 261.942 39.3 261.942 40.42C261.942 41.5 261.542 42.44 260.742 43.24C259.982 44 259.022 44.38 257.862 44.38C256.782 44.38 255.822 44 254.982 43.24C254.182 42.44 253.782 41.5 253.782 40.42ZM254.682 51.4H261.042V79H254.682V51.4Z" fill="#00FF9A"/>
<path d="M214.887 130H221.967V157.9C221.967 160.5 222.647 162.6 224.007 164.2C225.407 165.76 227.467 166.54 230.187 166.54C232.867 166.54 234.907 165.76 236.307 164.2C237.707 162.6 238.407 160.5 238.407 157.9V130H245.487V158.2C245.487 160.52 245.107 162.6 244.347 164.44C243.627 166.24 242.587 167.78 241.227 169.06C239.867 170.34 238.247 171.32 236.367 172C234.487 172.68 232.427 173.02 230.187 173.02C227.947 173.02 225.887 172.68 224.007 172C222.127 171.32 220.487 170.34 219.087 169.06C217.727 167.78 216.687 166.24 215.967 164.44C215.247 162.6 214.887 160.52 214.887 158.2V130ZM269.922 144.4H277.182L267.282 157.78L277.782 172H270.522L263.862 162.52L257.322 172H249.882L260.442 157.78L250.482 144.4H257.922L263.862 153.04L269.922 144.4Z" fill="#FF0000"/>
<path d="M39.0118 155.125V146.625C39.0118 145.456 39.4477 144.456 40.3193 143.623C41.191 142.791 42.2388 142.375 43.4628 142.375H79.0709C80.295 142.375 81.3428 142.791 82.2145 143.623C83.0861 144.456 83.522 145.456 83.522 146.625V155.125H79.0709V146.625H43.4628V155.125H39.0118ZM43.4628 174.25C42.2388 174.25 41.191 173.834 40.3193 173.002C39.4477 172.169 39.0118 171.169 39.0118 170V159.375H43.4628V170H79.0709V159.375H83.522V170C83.522 171.169 83.0861 172.169 82.2145 173.002C81.3428 173.834 80.295 174.25 79.0709 174.25H43.4628ZM36.7863 180.625V176.375H85.7475V180.625H36.7863ZM39.0118 159.375V155.125H52.3649C52.7729 155.125 53.1623 155.231 53.5333 155.444C53.9042 155.656 54.1824 155.94 54.3678 156.294L56.9828 161.234L63.8262 149.813C64.0117 149.494 64.2713 149.237 64.6052 149.042C64.939 148.847 65.3099 148.75 65.7179 148.75C66.1259 148.75 66.5154 148.847 66.8863 149.042C67.2572 149.237 67.5354 149.529 67.7209 149.919L70.4471 155.125H83.522V159.375H69.0562C68.6482 159.375 68.2587 159.278 67.8878 159.083C67.5169 158.888 67.2387 158.596 67.0532 158.206L65.6066 155.391L58.7632 166.813C58.5777 167.167 58.2995 167.432 57.9286 167.609C57.5577 167.786 57.1682 167.875 56.7602 167.875C56.3522 167.875 55.972 167.769 55.6197 167.556C55.2673 167.344 54.9984 167.06 54.8129 166.706L50.9739 159.375H39.0118Z" fill="#D34725"/>
</svg>
