<svg width="315" height="868" viewBox="0 0 315 868" fill="none" xmlns="http://www.w3.org/2000/svg">
<mask id="path-1-outside-1_142_6153" maskUnits="userSpaceOnUse" x="56.1057" y="531.742" width="247" height="180" fill="black">
<rect fill="white" x="56.1057" y="531.742" width="247" height="180"/>
<path d="M302.106 657.042H240.856V533.492H302.106V657.042ZM118.356 657.042H57.1057V533.492H118.356V657.042ZM205.856 657.042H146.356V540.492L205.856 540.492V657.042ZM57.1057 710.242V636.742H302.106V710.242H57.1057Z"/>
</mask>
<path d="M302.106 657.042V658.042H303.106V657.042H302.106ZM240.856 657.042H239.856V658.042H240.856V657.042ZM240.856 533.492V532.492H239.856V533.492H240.856ZM302.106 533.492H303.106V532.492H302.106V533.492ZM118.356 657.042V658.042H119.356V657.042H118.356ZM57.1057 657.042H56.1057V658.042H57.1057V657.042ZM57.1057 533.492V532.492H56.1057V533.492H57.1057ZM118.356 533.492H119.356V532.492H118.356V533.492ZM205.856 657.042V658.042H206.856V657.042H205.856ZM146.356 657.042H145.356V658.042H146.356V657.042ZM146.356 540.492V539.492H145.356V540.492H146.356ZM205.856 540.492H206.856V539.492H205.856V540.492ZM57.1057 710.242H56.1057V711.242H57.1057V710.242ZM57.1057 636.742V635.742H56.1057V636.742H57.1057ZM302.106 636.742H303.106V635.742H302.106V636.742ZM302.106 710.242V711.242H303.106V710.242H302.106ZM302.106 657.042V656.042H240.856V657.042V658.042H302.106V657.042ZM240.856 657.042H241.856V533.492H240.856H239.856V657.042H240.856ZM240.856 533.492V534.492H302.106V533.492V532.492H240.856V533.492ZM302.106 533.492H301.106V657.042H302.106H303.106V533.492H302.106ZM118.356 657.042V656.042H57.1057V657.042V658.042H118.356V657.042ZM57.1057 657.042H58.1057V533.492H57.1057H56.1057V657.042H57.1057ZM57.1057 533.492V534.492H118.356V533.492V532.492H57.1057V533.492ZM118.356 533.492H117.356V657.042H118.356H119.356V533.492H118.356ZM205.856 657.042V656.042H146.356V657.042V658.042H205.856V657.042ZM146.356 657.042H147.356V540.492H146.356H145.356V657.042H146.356ZM146.356 540.492V541.492L205.856 541.492V540.492V539.492L146.356 539.492V540.492ZM205.856 540.492H204.856V657.042H205.856H206.856V540.492H205.856ZM57.1057 710.242H58.1057V636.742H57.1057H56.1057V710.242H57.1057ZM57.1057 636.742V637.742H302.106V636.742V635.742H57.1057V636.742ZM302.106 636.742H301.106V710.242H302.106H303.106V636.742H302.106ZM302.106 710.242V709.242H57.1057V710.242V711.242H302.106V710.242Z" fill="white" fill-opacity="0.1" mask="url(#path-1-outside-1_142_6153)"/>
<mask id="path-3-outside-2_142_6153" maskUnits="userSpaceOnUse" x="56.1057" y="608.994" width="247" height="236" fill="black">
<rect fill="white" x="56.1057" y="608.994" width="247" height="236"/>
<path d="M57.1057 843.494V763.344H302.106V843.494H57.1057ZM302.106 747.244V790.294H235.606V750.744C235.606 743.977 235.022 737.094 233.856 730.094C232.689 723.094 230.239 716.677 226.506 710.844C222.772 705.011 217.172 700.344 209.706 696.844C202.239 693.111 192.206 691.244 179.606 691.244C167.006 691.244 156.972 693.111 149.506 696.844C142.039 700.344 136.439 705.011 132.706 710.844C128.972 716.677 126.522 723.094 125.356 730.094C124.189 737.094 123.606 743.977 123.606 750.744V790.294H57.1057V747.244C57.1057 718.777 62.0057 694.394 71.8057 674.094C81.6057 653.561 95.6057 637.927 113.806 627.194C132.006 616.227 153.939 610.744 179.606 610.744C205.039 610.744 226.972 616.227 245.406 627.194C263.606 637.927 277.606 653.561 287.406 674.094C297.206 694.394 302.106 718.777 302.106 747.244Z"/>
</mask>
<path d="M57.1057 843.494H56.1057V844.494H57.1057V843.494ZM57.1057 763.344V762.344H56.1057V763.344H57.1057ZM302.106 763.344H303.106V762.344H302.106V763.344ZM302.106 843.494V844.494H303.106V843.494H302.106ZM302.106 790.294V791.294H303.106V790.294H302.106ZM235.606 790.294H234.606V791.294H235.606V790.294ZM209.706 696.844L209.258 697.739L209.27 697.744L209.281 697.75L209.706 696.844ZM149.506 696.844L149.93 697.75L149.942 697.744L149.953 697.739L149.506 696.844ZM132.706 710.844L131.863 710.305L131.863 710.305L132.706 710.844ZM125.356 730.094L126.342 730.259L126.342 730.259L125.356 730.094ZM123.606 790.294V791.294H124.606V790.294H123.606ZM57.1057 790.294H56.1057V791.294H57.1057V790.294ZM71.8057 674.094L72.7062 674.529L72.7082 674.525L71.8057 674.094ZM113.806 627.194L114.314 628.056L114.322 628.051L113.806 627.194ZM245.406 627.194L244.894 628.054L244.898 628.056L245.406 627.194ZM287.406 674.094L286.503 674.525L286.505 674.529L287.406 674.094ZM57.1057 843.494H58.1057V763.344H57.1057H56.1057V843.494H57.1057ZM57.1057 763.344V764.344H302.106V763.344V762.344H57.1057V763.344ZM302.106 763.344H301.106V843.494H302.106H303.106V763.344H302.106ZM302.106 843.494V842.494H57.1057V843.494V844.494H302.106V843.494ZM302.106 747.244H301.106V790.294H302.106H303.106V747.244H302.106ZM302.106 790.294V789.294H235.606V790.294V791.294H302.106V790.294ZM235.606 790.294H236.606V750.744H235.606H234.606V790.294H235.606ZM235.606 750.744H236.606C236.606 743.92 236.017 736.981 234.842 729.93L233.856 730.094L232.869 730.259C234.027 737.207 234.606 744.035 234.606 750.744H235.606ZM233.856 730.094L234.842 729.93C233.654 722.8 231.156 716.255 227.348 710.305L226.506 710.844L225.663 711.383C229.322 717.1 231.724 723.389 232.869 730.259L233.856 730.094ZM226.506 710.844L227.348 710.305C223.495 704.284 217.735 699.503 210.13 695.939L209.706 696.844L209.281 697.75C216.61 701.185 222.05 705.737 225.663 711.383L226.506 710.844ZM209.706 696.844L210.153 695.95C202.495 692.121 192.289 690.244 179.606 690.244V691.244V692.244C192.123 692.244 201.983 694.101 209.258 697.739L209.706 696.844ZM179.606 691.244V690.244C166.923 690.244 156.717 692.121 149.058 695.95L149.506 696.844L149.953 697.739C157.228 694.101 167.089 692.244 179.606 692.244V691.244ZM149.506 696.844L149.081 695.939C141.476 699.503 135.717 704.284 131.863 710.305L132.706 710.844L133.548 711.383C137.161 705.737 142.602 701.185 149.93 697.75L149.506 696.844ZM132.706 710.844L131.863 710.305C128.055 716.255 125.558 722.8 124.369 729.93L125.356 730.094L126.342 730.259C127.487 723.389 129.889 717.1 133.548 711.383L132.706 710.844ZM125.356 730.094L124.369 729.93C123.194 736.981 122.606 743.92 122.606 750.744H123.606H124.606C124.606 744.035 125.184 737.207 126.342 730.259L125.356 730.094ZM123.606 750.744H122.606V790.294H123.606H124.606V750.744H123.606ZM123.606 790.294V789.294H57.1057V790.294V791.294H123.606V790.294ZM57.1057 790.294H58.1057V747.244H57.1057H56.1057V790.294H57.1057ZM57.1057 747.244H58.1057C58.1057 718.89 62.9866 694.662 72.7062 674.529L71.8057 674.094L70.9051 673.659C61.0248 694.126 56.1057 718.665 56.1057 747.244H57.1057ZM71.8057 674.094L72.7082 674.525C82.4294 654.157 96.2984 638.68 114.314 628.056L113.806 627.194L113.298 626.333C94.913 637.175 80.782 652.965 70.9032 673.663L71.8057 674.094ZM113.806 627.194L114.322 628.051C132.336 617.196 154.083 611.744 179.606 611.744V610.744V609.744C153.795 609.744 131.675 615.259 113.29 626.338L113.806 627.194ZM179.606 610.744V611.744C204.893 611.744 226.642 617.195 244.894 628.054L245.406 627.194L245.917 626.335C227.302 615.26 205.185 609.744 179.606 609.744V610.744ZM245.406 627.194L244.898 628.056C262.913 638.68 276.782 654.157 286.503 674.525L287.406 674.094L288.308 673.663C278.429 652.965 264.298 637.175 245.914 626.333L245.406 627.194ZM287.406 674.094L286.505 674.529C296.225 694.662 301.106 718.89 301.106 747.244H302.106H303.106C303.106 718.665 298.187 694.126 288.306 673.659L287.406 674.094Z" fill="white" fill-opacity="0.1" mask="url(#path-3-outside-2_142_6153)"/>
<mask id="path-5-outside-3_142_6153" maskUnits="userSpaceOnUse" x="49.1057" y="390.75" width="265" height="216" fill="black">
<rect fill="white" x="49.1057" y="390.75" width="265" height="216"/>
<path d="M209.006 553.45C217.172 548.783 224.289 543.417 230.356 537.35C236.189 531.283 240.622 524.75 243.656 517.75C246.689 510.517 248.206 503.283 248.206 496.05C248.206 489.983 247.039 484.85 244.706 480.65C242.139 476.45 238.172 474.35 232.806 474.35C229.539 474.35 226.739 475.517 224.406 477.85C222.072 479.95 219.389 484.267 216.356 490.8C213.322 497.333 209.239 507.25 204.106 520.55C201.772 526.383 198.622 533.15 194.656 540.85C190.689 548.317 185.556 555.55 179.256 562.55C172.956 569.317 165.256 575.033 156.156 579.7C147.056 584.133 136.322 586.35 123.956 586.35C107.856 586.35 94.3224 582.033 83.3557 573.4C72.389 564.767 64.1057 553.333 58.5057 539.1C52.9057 524.867 50.1057 509.233 50.1057 492.2C50.1057 473.767 52.9057 458.017 58.5057 444.95C64.1057 431.65 71.1057 420.8 79.5057 412.4C87.9057 403.767 96.3057 397.233 104.706 392.8L136.206 449.85C130.372 453.583 125.822 457.783 122.556 462.45C119.056 466.883 116.489 471.433 114.856 476.1C113.222 480.767 112.406 485.317 112.406 489.75C112.406 495.117 113.339 499.55 115.206 503.05C117.072 506.317 119.989 507.95 123.956 507.95C128.856 507.95 132.939 505.617 136.206 500.95C139.239 496.05 142.156 489.633 144.956 481.7C147.522 473.767 150.556 465.017 154.056 455.45C157.556 445.65 161.756 436.9 166.656 429.2C171.322 421.5 176.806 414.967 183.106 409.6C189.406 404 196.522 399.8 204.456 397C212.156 394.2 220.789 392.8 230.356 392.8C243.889 392.8 255.906 395.6 266.406 401.2C276.672 406.8 285.189 414.383 291.956 423.95C298.722 433.283 303.856 443.9 307.356 455.8C310.856 467.7 312.606 479.95 312.606 492.55C312.606 510.05 309.689 526.383 303.856 541.55C298.256 556.483 290.439 569.433 280.406 580.4C270.372 591.367 259.172 599.65 246.806 605.25L209.006 553.45Z"/>
</mask>
<path d="M209.006 553.45L208.51 552.582L207.539 553.136L208.198 554.039L209.006 553.45ZM230.356 537.35L231.063 538.057L231.07 538.05L231.077 538.043L230.356 537.35ZM243.656 517.75L244.573 518.148L244.578 518.137L243.656 517.75ZM244.706 480.65L245.58 480.164L245.57 480.146L245.559 480.129L244.706 480.65ZM224.406 477.85L225.075 478.593L225.094 478.576L225.113 478.557L224.406 477.85ZM216.356 490.8L217.263 491.221L217.263 491.221L216.356 490.8ZM204.106 520.55L205.034 520.921L205.039 520.91L204.106 520.55ZM194.656 540.85L195.539 541.319L195.545 541.308L194.656 540.85ZM179.256 562.55L179.988 563.231L179.993 563.225L179.999 563.219L179.256 562.55ZM156.156 579.7L156.594 580.599L156.603 580.594L156.612 580.59L156.156 579.7ZM83.3557 573.4L83.9743 572.614L83.9743 572.614L83.3557 573.4ZM58.5057 539.1L59.4363 538.734L59.4363 538.734L58.5057 539.1ZM58.5057 444.95L59.4249 445.344L59.4273 445.338L58.5057 444.95ZM79.5057 412.4L80.2129 413.107L80.2224 413.097L79.5057 412.4ZM104.706 392.8L105.581 392.317L105.107 391.458L104.239 391.916L104.706 392.8ZM136.206 449.85L136.745 450.692L137.534 450.187L137.081 449.367L136.206 449.85ZM122.556 462.45L123.341 463.07L123.358 463.047L123.375 463.023L122.556 462.45ZM115.206 503.05L114.323 503.521L114.33 503.533L114.337 503.546L115.206 503.05ZM136.206 500.95L137.025 501.523L137.041 501.5L137.056 501.476L136.206 500.95ZM144.956 481.7L145.899 482.033L145.903 482.02L145.907 482.008L144.956 481.7ZM154.056 455.45L154.995 455.794L154.997 455.786L154.056 455.45ZM166.656 429.2L167.499 429.737L167.505 429.728L167.511 429.718L166.656 429.2ZM183.106 409.6L183.754 410.361L183.762 410.354L183.77 410.347L183.106 409.6ZM204.456 397L204.789 397.943L204.797 397.94L204.456 397ZM266.406 401.2L266.885 400.322L266.876 400.318L266.406 401.2ZM291.956 423.95L291.139 424.528L291.146 424.537L291.956 423.95ZM303.856 541.55L302.922 541.191L302.919 541.199L303.856 541.55ZM280.406 580.4L279.668 579.725L279.668 579.725L280.406 580.4ZM246.806 605.25L245.998 605.839L246.477 606.496L247.218 606.161L246.806 605.25ZM209.006 553.45L209.502 554.318C217.738 549.612 224.928 544.192 231.063 538.057L230.356 537.35L229.649 536.643C223.65 542.641 216.606 547.955 208.51 552.582L209.006 553.45ZM230.356 537.35L231.077 538.043C236.984 531.899 241.488 525.268 244.573 518.148L243.656 517.75L242.738 517.352C239.757 524.232 235.394 530.667 229.635 536.657L230.356 537.35ZM243.656 517.75L244.578 518.137C247.658 510.791 249.206 503.427 249.206 496.05H248.206H247.206C247.206 503.14 245.72 510.242 242.733 517.363L243.656 517.75ZM248.206 496.05H249.206C249.206 489.857 248.015 484.547 245.58 480.164L244.706 480.65L243.832 481.136C246.063 485.153 247.206 490.109 247.206 496.05H248.206ZM244.706 480.65L245.559 480.129C242.792 475.6 238.483 473.35 232.806 473.35V474.35V475.35C237.862 475.35 241.486 477.3 243.852 481.171L244.706 480.65ZM232.806 474.35V473.35C229.271 473.35 226.217 474.624 223.699 477.143L224.406 477.85L225.113 478.557C227.261 476.409 229.807 475.35 232.806 475.35V474.35ZM224.406 477.85L223.737 477.107C221.238 479.356 218.484 483.841 215.449 490.379L216.356 490.8L217.263 491.221C220.294 484.692 222.907 480.544 225.075 478.593L224.406 477.85ZM216.356 490.8L215.449 490.379C212.401 496.943 208.308 506.885 203.173 520.19L204.106 520.55L205.039 520.91C210.17 507.615 214.244 497.723 217.263 491.221L216.356 490.8ZM204.106 520.55L203.177 520.179C200.859 525.974 197.724 532.711 193.767 540.392L194.656 540.85L195.545 541.308C199.521 533.589 202.686 526.793 205.034 520.921L204.106 520.55ZM194.656 540.85L193.773 540.381C189.848 547.768 184.764 554.935 178.512 561.881L179.256 562.55L179.999 563.219C186.347 556.165 191.53 548.866 195.539 541.319L194.656 540.85ZM179.256 562.55L178.524 561.869C172.311 568.542 164.707 574.191 155.699 578.81L156.156 579.7L156.612 580.59C165.804 575.876 173.601 570.092 179.988 563.231L179.256 562.55ZM156.156 579.7L155.718 578.801C146.781 583.155 136.204 585.35 123.956 585.35V586.35V587.35C136.441 587.35 147.33 585.112 156.594 580.599L156.156 579.7ZM123.956 586.35V585.35C108.044 585.35 94.7382 581.088 83.9743 572.614L83.3557 573.4L82.7371 574.186C93.9065 582.979 107.667 587.35 123.956 587.35V586.35ZM83.3557 573.4L83.9743 572.614C73.1601 564.101 64.9777 552.818 59.4363 538.734L58.5057 539.1L57.5751 539.466C63.2337 553.848 71.6179 565.432 82.7371 574.186L83.3557 573.4ZM58.5057 539.1L59.4363 538.734C53.8871 524.63 51.1057 509.122 51.1057 492.2H50.1057H49.1057C49.1057 509.344 51.9243 525.104 57.5751 539.466L58.5057 539.1ZM50.1057 492.2H51.1057C51.1057 473.864 53.8915 458.255 59.4248 445.344L58.5057 444.95L57.5865 444.556C51.9199 457.778 49.1057 473.67 49.1057 492.2H50.1057ZM58.5057 444.95L59.4273 445.338C64.9876 432.132 71.9216 421.398 80.2128 413.107L79.5057 412.4L78.7986 411.693C70.2897 420.202 63.2238 431.168 57.5841 444.562L58.5057 444.95ZM79.5057 412.4L80.2224 413.097C88.568 404.52 96.886 398.058 105.172 393.684L104.706 392.8L104.239 391.916C95.7254 396.409 87.2434 403.013 78.789 411.703L79.5057 412.4ZM104.706 392.8L103.83 393.283L135.33 450.333L136.206 449.85L137.081 449.367L105.581 392.317L104.706 392.8ZM136.206 449.85L135.667 449.008C129.746 452.797 125.092 457.082 121.736 461.877L122.556 462.45L123.375 463.023C126.552 458.484 130.998 454.37 136.745 450.692L136.206 449.85ZM122.556 462.45L121.771 461.83C118.212 466.338 115.587 470.985 113.912 475.77L114.856 476.1L115.8 476.43C117.391 471.882 119.9 467.428 123.341 463.07L122.556 462.45ZM114.856 476.1L113.912 475.77C112.246 480.53 111.406 485.192 111.406 489.75H112.406H113.406C113.406 485.441 114.199 481.003 115.8 476.43L114.856 476.1ZM112.406 489.75H111.406C111.406 495.225 112.357 499.834 114.323 503.521L115.206 503.05L116.088 502.579C114.321 499.266 113.406 495.008 113.406 489.75H112.406ZM115.206 503.05L114.337 503.546C116.394 507.145 119.654 508.95 123.956 508.95V507.95V506.95C120.324 506.95 117.751 505.489 116.074 502.554L115.206 503.05ZM123.956 507.95V508.95C129.239 508.95 133.606 506.407 137.025 501.523L136.206 500.95L135.386 500.377C132.272 504.826 128.473 506.95 123.956 506.95V507.95ZM136.206 500.95L137.056 501.476C140.14 496.495 143.085 490.006 145.899 482.033L144.956 481.7L144.013 481.367C141.227 489.261 138.338 495.605 135.355 500.424L136.206 500.95ZM144.956 481.7L145.907 482.008C148.469 474.089 151.498 465.351 154.995 455.794L154.056 455.45L153.117 455.106C149.613 464.682 146.576 473.445 144.004 481.392L144.956 481.7ZM154.056 455.45L154.997 455.786C158.476 446.047 162.645 437.366 167.499 429.737L166.656 429.2L165.812 428.663C160.867 436.434 156.636 445.253 153.114 455.114L154.056 455.45ZM166.656 429.2L167.511 429.718C172.127 422.102 177.542 415.653 183.754 410.361L183.106 409.6L182.457 408.839C176.069 414.281 170.518 420.898 165.8 428.682L166.656 429.2ZM183.106 409.6L183.77 410.347C189.973 404.833 196.978 400.7 204.789 397.943L204.456 397L204.123 396.057C196.067 398.9 188.838 403.167 182.441 408.853L183.106 409.6ZM204.456 397L204.797 397.94C212.371 395.186 220.886 393.8 230.356 393.8V392.8V391.8C220.692 391.8 211.94 393.214 204.114 396.06L204.456 397ZM230.356 392.8V393.8C243.748 393.8 255.599 396.57 265.935 402.082L266.406 401.2L266.876 400.318C256.213 394.63 244.03 391.8 230.356 391.8V392.8ZM266.406 401.2L265.927 402.078C276.059 407.605 284.461 415.085 291.139 424.527L291.956 423.95L292.772 423.373C285.917 413.682 277.285 405.995 266.885 400.322L266.406 401.2ZM291.956 423.95L291.146 424.537C297.841 433.771 302.926 444.283 306.396 456.082L307.356 455.8L308.315 455.518C304.785 443.517 299.604 432.795 292.765 423.363L291.956 423.95ZM307.356 455.8L306.396 456.082C309.869 467.889 311.606 480.044 311.606 492.55H312.606H313.606C313.606 479.856 311.842 467.511 308.315 455.518L307.356 455.8ZM312.606 492.55H311.606C311.606 509.937 308.708 526.147 302.922 541.191L303.856 541.55L304.789 541.909C310.67 526.619 313.606 510.163 313.606 492.55H312.606ZM303.856 541.55L302.919 541.199C297.361 556.021 289.609 568.859 279.668 579.725L280.406 580.4L281.143 581.075C291.269 570.007 299.15 556.945 304.792 541.901L303.856 541.55ZM280.406 580.4L279.668 579.725C269.717 590.601 258.625 598.8 246.393 604.339L246.806 605.25L247.218 606.161C259.719 600.5 271.028 592.132 281.143 581.075L280.406 580.4ZM246.806 605.25L247.613 604.661L209.813 552.861L209.006 553.45L208.198 554.039L245.998 605.839L246.806 605.25Z" fill="white" fill-opacity="0.1" mask="url(#path-5-outside-3_142_6153)"/>
<mask id="path-7-outside-4_142_6153" maskUnits="userSpaceOnUse" x="56.1057" y="385.364" width="247" height="82" fill="black">
<rect fill="white" x="56.1057" y="385.364" width="247" height="82"/>
<path d="M57.1057 465.864V387.114H302.106V465.864H57.1057Z"/>
</mask>
<path d="M57.1057 465.864H56.1057V466.864H57.1057V465.864ZM57.1057 387.114V386.114H56.1057V387.114H57.1057ZM302.106 387.114H303.106V386.114H302.106V387.114ZM302.106 465.864V466.864H303.106V465.864H302.106ZM57.1057 465.864H58.1057V387.114H57.1057H56.1057V465.864H57.1057ZM57.1057 387.114V388.114H302.106V387.114V386.114H57.1057V387.114ZM302.106 387.114H301.106V465.864H302.106H303.106V387.114H302.106ZM302.106 465.864V464.864H57.1057V465.864V466.864H302.106V465.864Z" fill="white" fill-opacity="0.1" mask="url(#path-7-outside-4_142_6153)"/>
<mask id="path-9-outside-5_142_6153" maskUnits="userSpaceOnUse" x="49.1057" y="141.968" width="265" height="274" fill="black">
<rect fill="white" x="49.1057" y="141.968" width="265" height="274"/>
<path d="M218.106 274.468L162.106 274.468L162.106 144.268C183.106 142.401 202.706 144.034 220.906 149.168C239.106 154.068 255.089 162.118 268.856 173.318C282.622 184.518 293.356 198.634 301.056 215.668C308.756 232.701 312.606 252.301 312.606 274.468C312.606 295.001 309.456 313.784 303.156 330.818C296.856 347.851 287.872 362.668 276.206 375.268C264.539 387.634 250.539 397.318 234.206 404.318C217.872 411.084 199.672 414.468 179.606 414.468C159.539 414.468 141.572 410.851 125.706 403.618C109.606 396.384 95.9557 386.351 84.7557 373.518C73.5557 360.451 65.039 345.284 59.2057 328.018C53.139 310.518 50.1057 291.501 50.1057 270.968C50.1057 252.301 52.9057 235.851 58.5057 221.618C64.1057 207.151 71.5724 194.551 80.9057 183.818C90.0057 172.851 100.272 163.284 111.706 155.118L143.906 226.868C136.206 231.068 129.439 236.551 123.606 243.318C117.772 250.084 114.856 259.301 114.856 270.968C114.856 282.401 117.306 292.901 122.206 302.468C126.872 312.034 133.989 319.734 143.556 325.568C153.122 331.168 165.139 333.968 179.606 333.968C193.839 333.968 206.089 331.401 216.356 326.268C226.622 320.901 234.439 313.551 239.806 304.218C245.172 294.651 247.856 283.568 247.856 270.968C247.856 263.968 247.156 257.668 245.756 252.068C244.356 246.468 242.372 241.684 239.806 237.718C237.239 233.518 234.089 229.901 230.356 226.868C226.622 223.834 222.539 221.268 218.106 219.168V274.468Z"/>
</mask>
<path d="M218.106 274.468V275.468H219.106V274.468H218.106ZM162.106 274.468H161.106V275.468H162.106V274.468ZM162.106 144.268L162.017 143.272L161.106 143.353V144.268H162.106ZM220.906 149.168L220.634 150.13L220.646 150.133L220.906 149.168ZM268.856 173.318L269.487 172.542L269.487 172.542L268.856 173.318ZM301.056 215.668L301.967 215.256L301.967 215.256L301.056 215.668ZM303.156 330.818L302.218 330.471L302.218 330.471L303.156 330.818ZM276.206 375.268L276.933 375.954L276.939 375.947L276.206 375.268ZM234.206 404.318L234.588 405.242L234.6 405.237L234.206 404.318ZM125.706 403.618L126.121 402.708L126.116 402.706L125.706 403.618ZM84.7557 373.518L83.9964 374.169L84.0023 374.175L84.7557 373.518ZM59.2057 328.018L60.1531 327.698L60.1505 327.69L59.2057 328.018ZM58.5057 221.618L59.4363 221.984L59.4383 221.979L58.5057 221.618ZM80.9057 183.818L81.6603 184.474L81.6679 184.465L81.6753 184.456L80.9057 183.818ZM111.706 155.118L112.618 154.708L112.118 153.594L111.124 154.304L111.706 155.118ZM143.906 226.868L144.385 227.746L145.197 227.303L144.818 226.458L143.906 226.868ZM123.606 243.318L122.848 242.665L122.848 242.665L123.606 243.318ZM122.206 302.468L123.104 302.029L123.1 302.021L123.096 302.012L122.206 302.468ZM143.556 325.568L143.035 326.422L143.043 326.426L143.051 326.431L143.556 325.568ZM216.356 326.268L216.803 327.162L216.811 327.158L216.819 327.154L216.356 326.268ZM239.806 304.218L240.673 304.716L240.678 304.707L239.806 304.218ZM245.756 252.068L244.786 252.31L244.786 252.31L245.756 252.068ZM239.806 237.718L238.952 238.239L238.959 238.25L238.966 238.261L239.806 237.718ZM218.106 219.168L218.534 218.264L217.106 217.588V219.168H218.106ZM218.106 274.468V273.468L162.106 273.468V274.468V275.468L218.106 275.468V274.468ZM162.106 274.468H163.106L163.106 144.268H162.106H161.106L161.106 274.468H162.106ZM162.106 144.268L162.194 145.264C183.087 143.407 202.564 145.033 220.634 150.13L220.906 149.168L221.177 148.205C202.848 143.035 183.124 141.396 162.017 143.272L162.106 144.268ZM220.906 149.168L220.646 150.133C238.719 154.999 254.574 162.988 268.225 174.093L268.856 173.318L269.487 172.542C255.604 161.248 239.493 153.136 221.166 148.202L220.906 149.168ZM268.856 173.318L268.225 174.093C281.865 185.19 292.505 199.18 300.144 216.08L301.056 215.668L301.967 215.256C294.207 198.089 283.38 183.845 269.487 172.542L268.856 173.318ZM301.056 215.668L300.144 216.08C307.776 232.962 311.606 252.417 311.606 274.468H312.606H313.606C313.606 252.185 309.735 232.44 301.967 215.256L301.056 215.668ZM312.606 274.468H311.606C311.606 294.898 308.472 313.562 302.218 330.471L303.156 330.818L304.094 331.165C310.44 314.007 313.606 295.104 313.606 274.468H312.606ZM303.156 330.818L302.218 330.471C295.961 347.388 287.044 362.09 275.472 374.588L276.206 375.268L276.939 375.947C288.7 363.245 297.751 348.314 304.094 331.165L303.156 330.818ZM276.206 375.268L275.478 374.582C263.91 386.844 250.025 396.45 233.812 403.399L234.206 404.318L234.6 405.237C251.053 398.185 265.168 388.425 276.933 375.954L276.206 375.268ZM234.206 404.318L233.823 403.394C217.626 410.104 199.559 413.468 179.606 413.468V414.468V415.468C199.786 415.468 218.118 412.065 234.588 405.242L234.206 404.318ZM179.606 414.468V413.468C159.661 413.468 141.839 409.874 126.121 402.708L125.706 403.618L125.291 404.528C141.306 411.829 159.417 415.468 179.606 415.468V414.468ZM125.706 403.618L126.116 402.706C110.142 395.529 96.6108 385.581 85.5091 372.86L84.7557 373.518L84.0023 374.175C95.3006 387.121 109.069 397.24 125.296 404.53L125.706 403.618ZM84.7557 373.518L85.5149 372.867C74.4031 359.903 65.9479 344.85 60.1531 327.698L59.2057 328.018L58.2583 328.338C64.1302 345.719 72.7083 360.999 83.9964 374.169L84.7557 373.518ZM59.2057 328.018L60.1505 327.69C54.1241 310.306 51.1057 291.402 51.1057 270.968H50.1057H49.1057C49.1057 291.601 52.1539 310.729 58.2609 328.345L59.2057 328.018ZM50.1057 270.968H51.1057C51.1057 252.4 53.891 236.078 59.4363 221.984L58.5057 221.618L57.5751 221.252C51.9204 235.624 49.1057 252.203 49.1057 270.968H50.1057ZM58.5057 221.618L59.4383 221.979C65.0003 207.61 72.4095 195.112 81.6603 184.474L80.9057 183.818L80.1511 183.162C70.7352 193.99 63.2111 206.692 57.5731 221.257L58.5057 221.618ZM80.9057 183.818L81.6753 184.456C90.7211 173.555 100.925 164.047 112.287 155.932L111.706 155.118L111.124 154.304C99.6201 162.521 89.2903 172.147 80.1361 183.179L80.9057 183.818ZM111.706 155.118L110.793 155.527L142.993 227.277L143.906 226.868L144.818 226.458L112.618 154.708L111.706 155.118ZM143.906 226.868L143.427 225.99C135.619 230.249 128.759 235.809 122.848 242.665L123.606 243.318L124.363 243.971C130.119 237.293 136.792 231.887 144.385 227.746L143.906 226.868ZM123.606 243.318L122.848 242.665C116.816 249.663 113.856 259.136 113.856 270.968H114.856H115.856C115.856 259.466 118.729 250.506 124.363 243.971L123.606 243.318ZM114.856 270.968H113.856C113.856 282.549 116.339 293.207 121.316 302.924L122.206 302.468L123.096 302.012C118.273 292.595 115.856 282.253 115.856 270.968H114.856ZM122.206 302.468L121.307 302.906C126.062 312.654 133.314 320.494 143.035 326.422L143.556 325.568L144.076 324.714C134.664 318.975 127.683 311.415 123.104 302.029L122.206 302.468ZM143.556 325.568L143.051 326.431C152.81 332.144 165.014 334.968 179.606 334.968V333.968V332.968C165.264 332.968 153.434 330.192 144.061 324.705L143.556 325.568ZM179.606 333.968V334.968C193.958 334.968 206.368 332.38 216.803 327.162L216.356 326.268L215.908 325.373C205.81 330.423 193.72 332.968 179.606 332.968V333.968ZM216.356 326.268L216.819 327.154C227.241 321.706 235.204 314.227 240.673 304.716L239.806 304.218L238.939 303.719C233.674 312.875 226.004 320.096 215.892 325.382L216.356 326.268ZM239.806 304.218L240.678 304.707C246.14 294.97 248.856 283.713 248.856 270.968H247.856H246.856C246.856 283.422 244.205 294.332 238.934 303.729L239.806 304.218ZM247.856 270.968H248.856C248.856 263.903 248.149 257.519 246.726 251.825L245.756 252.068L244.786 252.31C246.162 257.816 246.856 264.033 246.856 270.968H247.856ZM245.756 252.068L246.726 251.825C245.305 246.141 243.283 241.251 240.645 237.175L239.806 237.718L238.966 238.261C241.461 242.117 243.407 246.794 244.786 252.31L245.756 252.068ZM239.806 237.718L240.659 237.196C238.034 232.902 234.81 229.198 230.986 226.092L230.356 226.868L229.725 227.644C233.368 230.604 236.444 234.134 238.952 238.239L239.806 237.718ZM230.356 226.868L230.986 226.092C227.19 223.007 223.038 220.398 218.534 218.264L218.106 219.168L217.678 220.072C222.04 222.138 226.055 224.662 229.725 227.644L230.356 226.868ZM218.106 219.168H217.106V274.468H218.106H219.106V219.168H218.106Z" fill="white" fill-opacity="0.1" mask="url(#path-9-outside-5_142_6153)"/>
<mask id="path-11-outside-6_142_6153" maskUnits="userSpaceOnUse" x="40.666" y="26.3242" width="275" height="236" fill="black">
<rect fill="white" x="40.666" y="26.3242" width="275" height="236"/>
<path d="M55.666 101.574L55.666 28.0742H312.916L189.716 187.324H300.666V260.824H43.416L166.616 101.574H55.666Z"/>
</mask>
<path d="M55.666 101.574H54.666V102.574H55.666V101.574ZM55.666 28.0742V27.0742H54.666V28.0742H55.666ZM312.916 28.0742L313.707 28.6861L314.954 27.0742H312.916V28.0742ZM189.716 187.324L188.925 186.712L187.678 188.324H189.716V187.324ZM300.666 187.324H301.666V186.324H300.666V187.324ZM300.666 260.824V261.824H301.666V260.824H300.666ZM43.416 260.824L42.6251 260.212L41.3781 261.824H43.416V260.824ZM166.616 101.574L167.407 102.186L168.654 100.574H166.616V101.574ZM55.666 101.574H56.666L56.666 28.0742H55.666H54.666L54.666 101.574H55.666ZM55.666 28.0742V29.0742H312.916V28.0742V27.0742H55.666V28.0742ZM312.916 28.0742L312.125 27.4623L188.925 186.712L189.716 187.324L190.507 187.936L313.707 28.6861L312.916 28.0742ZM189.716 187.324V188.324H300.666V187.324V186.324H189.716V187.324ZM300.666 187.324H299.666V260.824H300.666H301.666V187.324H300.666ZM300.666 260.824V259.824H43.416V260.824V261.824H300.666V260.824ZM43.416 260.824L44.2069 261.436L167.407 102.186L166.616 101.574L165.825 100.962L42.6251 260.212L43.416 260.824ZM166.616 101.574V100.574H55.666V101.574V102.574H166.616V101.574Z" fill="white" fill-opacity="0.1" mask="url(#path-11-outside-6_142_6153)"/>
<mask id="path-13-outside-7_142_6153" maskUnits="userSpaceOnUse" x="34.5151" y="518.412" width="247" height="180" fill="black">
<rect fill="white" x="34.5151" y="518.412" width="247" height="180"/>
<path d="M280.515 643.712H219.265V520.162H280.515V643.712ZM96.7651 643.712H35.5151V520.162H96.7651V643.712ZM184.265 643.712H124.765V527.162L184.265 527.162V643.712ZM35.5151 696.912V623.412H280.515V696.912H35.5151Z"/>
</mask>
<path d="M280.515 643.712V644.712H281.515V643.712H280.515ZM219.265 643.712H218.265V644.712H219.265V643.712ZM219.265 520.162V519.162H218.265V520.162H219.265ZM280.515 520.162H281.515V519.162H280.515V520.162ZM96.7651 643.712V644.712H97.7651V643.712H96.7651ZM35.5151 643.712H34.5151V644.712H35.5151V643.712ZM35.5151 520.162V519.162H34.5151V520.162H35.5151ZM96.7651 520.162H97.7651V519.162H96.7651V520.162ZM184.265 643.712V644.712H185.265V643.712H184.265ZM124.765 643.712H123.765V644.712H124.765V643.712ZM124.765 527.162V526.162H123.765V527.162H124.765ZM184.265 527.162H185.265V526.162H184.265V527.162ZM35.5151 696.912H34.5151V697.912H35.5151V696.912ZM35.5151 623.412V622.412H34.5151V623.412H35.5151ZM280.515 623.412H281.515V622.412H280.515V623.412ZM280.515 696.912V697.912H281.515V696.912H280.515ZM280.515 643.712V642.712H219.265V643.712V644.712H280.515V643.712ZM219.265 643.712H220.265V520.162H219.265H218.265V643.712H219.265ZM219.265 520.162V521.162H280.515V520.162V519.162H219.265V520.162ZM280.515 520.162H279.515V643.712H280.515H281.515V520.162H280.515ZM96.7651 643.712V642.712H35.5151V643.712V644.712H96.7651V643.712ZM35.5151 643.712H36.5151V520.162H35.5151H34.5151V643.712H35.5151ZM35.5151 520.162V521.162H96.7651V520.162V519.162H35.5151V520.162ZM96.7651 520.162H95.7651V643.712H96.7651H97.7651V520.162H96.7651ZM184.265 643.712V642.712H124.765V643.712V644.712H184.265V643.712ZM124.765 643.712H125.765V527.162H124.765H123.765V643.712H124.765ZM124.765 527.162V528.162L184.265 528.162V527.162V526.162L124.765 526.162V527.162ZM184.265 527.162H183.265V643.712H184.265H185.265V527.162H184.265ZM35.5151 696.912H36.5151V623.412H35.5151H34.5151V696.912H35.5151ZM35.5151 623.412V624.412H280.515V623.412V622.412H35.5151V623.412ZM280.515 623.412H279.515V696.912H280.515H281.515V623.412H280.515ZM280.515 696.912V695.912H35.5151V696.912V697.912H280.515V696.912Z" fill="white" fill-opacity="0.1" mask="url(#path-13-outside-7_142_6153)"/>
<mask id="path-15-outside-8_142_6153" maskUnits="userSpaceOnUse" x="34.5151" y="595.663" width="247" height="236" fill="black">
<rect fill="white" x="34.5151" y="595.663" width="247" height="236"/>
<path d="M35.5151 830.163V750.013H280.515V830.163H35.5151ZM280.515 733.913V776.963H214.015V737.413C214.015 730.646 213.432 723.763 212.265 716.763C211.098 709.763 208.648 703.346 204.915 697.513C201.182 691.68 195.582 687.013 188.115 683.513C180.648 679.78 170.615 677.913 158.015 677.913C145.415 677.913 135.382 679.78 127.915 683.513C120.448 687.013 114.848 691.68 111.115 697.513C107.382 703.346 104.932 709.763 103.765 716.763C102.598 723.763 102.015 730.646 102.015 737.413V776.963H35.5151V733.913C35.5151 705.446 40.4151 681.063 50.2151 660.763C60.0151 640.23 74.0151 624.596 92.2151 613.863C110.415 602.896 132.348 597.413 158.015 597.413C183.448 597.413 205.382 602.896 223.815 613.863C242.015 624.596 256.015 640.23 265.815 660.763C275.615 681.063 280.515 705.446 280.515 733.913Z"/>
</mask>
<path d="M35.5151 830.163H34.5151V831.163H35.5151V830.163ZM35.5151 750.013V749.013H34.5151V750.013H35.5151ZM280.515 750.013H281.515V749.013H280.515V750.013ZM280.515 830.163V831.163H281.515V830.163H280.515ZM280.515 776.963V777.963H281.515V776.963H280.515ZM214.015 776.963H213.015V777.963H214.015V776.963ZM188.115 683.513L187.668 684.408L187.679 684.413L187.691 684.419L188.115 683.513ZM127.915 683.513L128.34 684.419L128.351 684.413L128.362 684.408L127.915 683.513ZM111.115 697.513L110.273 696.974L110.273 696.974L111.115 697.513ZM103.765 716.763L104.752 716.927L104.752 716.927L103.765 716.763ZM102.015 776.963V777.963H103.015V776.963H102.015ZM35.5151 776.963H34.5151V777.963H35.5151V776.963ZM50.2151 660.763L51.1157 661.198L51.1176 661.194L50.2151 660.763ZM92.2151 613.863L92.7231 614.724L92.7312 614.72L92.2151 613.863ZM223.815 613.863L223.304 614.723L223.307 614.724L223.815 613.863ZM265.815 660.763L264.913 661.194L264.915 661.198L265.815 660.763ZM35.5151 830.163H36.5151V750.013H35.5151H34.5151V830.163H35.5151ZM35.5151 750.013V751.013H280.515V750.013V749.013H35.5151V750.013ZM280.515 750.013H279.515V830.163H280.515H281.515V750.013H280.515ZM280.515 830.163V829.163H35.5151V830.163V831.163H280.515V830.163ZM280.515 733.913H279.515V776.963H280.515H281.515V733.913H280.515ZM280.515 776.963V775.963H214.015V776.963V777.963H280.515V776.963ZM214.015 776.963H215.015V737.413H214.015H213.015V776.963H214.015ZM214.015 737.413H215.015C215.015 730.589 214.427 723.65 213.252 716.599L212.265 716.763L211.279 716.927C212.437 723.876 213.015 730.704 213.015 737.413H214.015ZM212.265 716.763L213.252 716.599C212.063 709.469 209.565 702.924 205.757 696.974L204.915 697.513L204.073 698.052C207.731 703.769 210.134 710.057 211.279 716.927L212.265 716.763ZM204.915 697.513L205.757 696.974C201.904 690.953 196.144 686.172 188.54 682.608L188.115 683.513L187.691 684.419C195.019 687.854 200.459 692.406 204.073 698.052L204.915 697.513ZM188.115 683.513L188.562 682.619C180.904 678.79 170.698 676.913 158.015 676.913V677.913V678.913C170.532 678.913 180.393 680.77 187.668 684.408L188.115 683.513ZM158.015 677.913V676.913C145.332 676.913 135.126 678.79 127.468 682.619L127.915 683.513L128.362 684.408C135.637 680.77 145.498 678.913 158.015 678.913V677.913ZM127.915 683.513L127.491 682.608C119.886 686.172 114.126 690.953 110.273 696.974L111.115 697.513L111.957 698.052C115.571 692.406 121.011 687.854 128.34 684.419L127.915 683.513ZM111.115 697.513L110.273 696.974C106.465 702.924 103.967 709.469 102.779 716.599L103.765 716.763L104.752 716.927C105.897 710.057 108.299 703.769 111.957 698.052L111.115 697.513ZM103.765 716.763L102.779 716.599C101.603 723.65 101.015 730.589 101.015 737.413H102.015H103.015C103.015 730.704 103.593 723.876 104.752 716.927L103.765 716.763ZM102.015 737.413H101.015V776.963H102.015H103.015V737.413H102.015ZM102.015 776.963V775.963H35.5151V776.963V777.963H102.015V776.963ZM35.5151 776.963H36.5151V733.913H35.5151H34.5151V776.963H35.5151ZM35.5151 733.913H36.5151C36.5151 705.559 41.396 681.331 51.1157 661.198L50.2151 660.763L49.3146 660.328C39.4342 680.795 34.5151 705.334 34.5151 733.913H35.5151ZM50.2151 660.763L51.1176 661.194C60.8388 640.826 74.7078 625.349 92.7231 614.724L92.2151 613.863L91.7071 613.002C73.3224 623.844 59.1914 639.634 49.3126 660.332L50.2151 660.763ZM92.2151 613.863L92.7312 614.72C110.746 603.865 132.492 598.413 158.015 598.413V597.413V596.413C132.204 596.413 110.084 601.928 91.699 613.007L92.2151 613.863ZM158.015 597.413V598.413C183.302 598.413 205.052 603.864 223.304 614.722L223.815 613.863L224.326 613.004C205.712 601.929 183.595 596.413 158.015 596.413V597.413ZM223.815 613.863L223.307 614.724C241.322 625.349 255.191 640.826 264.913 661.194L265.815 660.763L266.718 660.332C256.839 639.634 242.708 623.844 224.323 613.002L223.815 613.863ZM265.815 660.763L264.915 661.198C274.634 681.331 279.515 705.559 279.515 733.913H280.515H281.515C281.515 705.334 276.596 680.795 266.716 660.328L265.815 660.763Z" fill="white" fill-opacity="0.1" mask="url(#path-15-outside-8_142_6153)"/>
<mask id="path-17-outside-9_142_6153" maskUnits="userSpaceOnUse" x="27.5151" y="377.42" width="265" height="216" fill="black">
<rect fill="white" x="27.5151" y="377.42" width="265" height="216"/>
<path d="M187.415 540.12C195.582 535.453 202.698 530.087 208.765 524.02C214.598 517.953 219.032 511.42 222.065 504.42C225.098 497.187 226.615 489.953 226.615 482.72C226.615 476.653 225.448 471.52 223.115 467.32C220.548 463.12 216.582 461.02 211.215 461.02C207.948 461.02 205.148 462.187 202.815 464.52C200.482 466.62 197.798 470.937 194.765 477.47C191.732 484.003 187.648 493.92 182.515 507.22C180.182 513.053 177.032 519.82 173.065 527.52C169.098 534.987 163.965 542.22 157.665 549.22C151.365 555.987 143.665 561.703 134.565 566.37C125.465 570.803 114.732 573.02 102.365 573.02C86.2651 573.02 72.7318 568.703 61.7651 560.07C50.7984 551.437 42.5151 540.003 36.9151 525.77C31.3151 511.537 28.5151 495.903 28.5151 478.87C28.5151 460.437 31.3151 444.687 36.9151 431.62C42.5151 418.32 49.5151 407.47 57.9151 399.07C66.3151 390.437 74.7151 383.903 83.1151 379.47L114.615 436.52C108.782 440.253 104.232 444.453 100.965 449.12C97.4651 453.553 94.8985 458.103 93.2651 462.77C91.6318 467.437 90.8151 471.987 90.8151 476.42C90.8151 481.787 91.7484 486.22 93.6151 489.72C95.4818 492.987 98.3985 494.62 102.365 494.62C107.265 494.62 111.348 492.287 114.615 487.62C117.648 482.72 120.565 476.303 123.365 468.37C125.932 460.437 128.965 451.687 132.465 442.12C135.965 432.32 140.165 423.57 145.065 415.87C149.732 408.17 155.215 401.637 161.515 396.27C167.815 390.67 174.932 386.47 182.865 383.67C190.565 380.87 199.198 379.47 208.765 379.47C222.298 379.47 234.315 382.27 244.815 387.87C255.082 393.47 263.598 401.053 270.365 410.62C277.132 419.953 282.265 430.57 285.765 442.47C289.265 454.37 291.015 466.62 291.015 479.22C291.015 496.72 288.098 513.053 282.265 528.22C276.665 543.153 268.848 556.103 258.815 567.07C248.782 578.037 237.582 586.32 225.215 591.92L187.415 540.12Z"/>
</mask>
<path d="M187.415 540.12L186.919 539.252L185.948 539.806L186.607 540.709L187.415 540.12ZM208.765 524.02L209.472 524.727L209.479 524.72L209.486 524.713L208.765 524.02ZM222.065 504.42L222.983 504.818L222.987 504.807L222.065 504.42ZM223.115 467.32L223.989 466.834L223.979 466.816L223.968 466.798L223.115 467.32ZM202.815 464.52L203.484 465.263L203.504 465.246L203.522 465.227L202.815 464.52ZM194.765 477.47L195.672 477.891L195.672 477.891L194.765 477.47ZM182.515 507.22L183.444 507.591L183.448 507.58L182.515 507.22ZM173.065 527.52L173.948 527.989L173.954 527.978L173.065 527.52ZM157.665 549.22L158.397 549.901L158.403 549.895L158.408 549.889L157.665 549.22ZM134.565 566.37L135.003 567.269L135.012 567.264L135.021 567.26L134.565 566.37ZM61.7651 560.07L62.3837 559.284L62.3837 559.284L61.7651 560.07ZM36.9151 525.77L37.8457 525.404L37.8457 525.404L36.9151 525.77ZM36.9151 431.62L37.8343 432.014L37.8368 432.008L36.9151 431.62ZM57.9151 399.07L58.6223 399.777L58.6318 399.767L57.9151 399.07ZM83.1151 379.47L83.9905 378.987L83.5162 378.128L82.6484 378.586L83.1151 379.47ZM114.615 436.52L115.154 437.362L115.944 436.857L115.491 436.037L114.615 436.52ZM100.965 449.12L101.75 449.74L101.768 449.717L101.784 449.693L100.965 449.12ZM93.6151 489.72L92.7328 490.191L92.7396 490.203L92.7469 490.216L93.6151 489.72ZM114.615 487.62L115.434 488.193L115.451 488.17L115.465 488.146L114.615 487.62ZM123.365 468.37L124.308 468.703L124.312 468.69L124.317 468.678L123.365 468.37ZM132.465 442.12L133.404 442.464L133.407 442.456L132.465 442.12ZM145.065 415.87L145.909 416.407L145.915 416.398L145.92 416.388L145.065 415.87ZM161.515 396.27L162.164 397.031L162.172 397.024L162.179 397.017L161.515 396.27ZM182.865 383.67L183.198 384.613L183.207 384.61L182.865 383.67ZM244.815 387.87L245.294 386.992L245.286 386.988L244.815 387.87ZM270.365 410.62L269.549 411.197L269.556 411.207L270.365 410.62ZM282.265 528.22L281.332 527.861L281.329 527.869L282.265 528.22ZM258.815 567.07L258.077 566.395L258.077 566.395L258.815 567.07ZM225.215 591.92L224.407 592.509L224.887 593.166L225.628 592.831L225.215 591.92ZM187.415 540.12L187.911 540.988C196.148 536.282 203.337 530.862 209.472 524.727L208.765 524.02L208.058 523.313C202.06 529.311 195.016 534.625 186.919 539.252L187.415 540.12ZM208.765 524.02L209.486 524.713C215.393 518.569 219.897 511.938 222.983 504.818L222.065 504.42L221.148 504.022C218.166 510.902 213.803 517.337 208.044 523.327L208.765 524.02ZM222.065 504.42L222.987 504.807C226.068 497.461 227.615 490.097 227.615 482.72H226.615H225.615C225.615 489.81 224.129 496.912 221.143 504.033L222.065 504.42ZM226.615 482.72H227.615C227.615 476.527 226.424 471.217 223.989 466.834L223.115 467.32L222.241 467.806C224.473 471.823 225.615 476.779 225.615 482.72H226.615ZM223.115 467.32L223.968 466.798C221.201 462.27 216.892 460.02 211.215 460.02V461.02V462.02C216.271 462.02 219.896 463.97 222.262 467.841L223.115 467.32ZM211.215 461.02V460.02C207.68 460.02 204.627 461.294 202.108 463.813L202.815 464.52L203.522 465.227C205.67 463.079 208.217 462.02 211.215 462.02V461.02ZM202.815 464.52L202.146 463.777C199.647 466.025 196.893 470.511 193.858 477.049L194.765 477.47L195.672 477.891C198.704 471.362 201.316 467.214 203.484 465.263L202.815 464.52ZM194.765 477.47L193.858 477.049C190.81 483.613 186.717 493.555 181.582 506.86L182.515 507.22L183.448 507.58C188.58 494.285 192.653 484.393 195.672 477.891L194.765 477.47ZM182.515 507.22L181.587 506.849C179.269 512.644 176.133 519.38 172.176 527.062L173.065 527.52L173.954 527.978C177.93 520.259 181.095 513.463 183.444 507.591L182.515 507.22ZM173.065 527.52L172.182 527.051C168.258 534.438 163.173 541.605 156.922 548.551L157.665 549.22L158.408 549.889C164.757 542.835 169.939 535.535 173.948 527.989L173.065 527.52ZM157.665 549.22L156.933 548.539C150.72 555.212 143.116 560.861 134.109 565.48L134.565 566.37L135.021 567.26C144.214 562.546 152.01 556.761 158.397 549.901L157.665 549.22ZM134.565 566.37L134.127 565.471C125.19 569.825 114.613 572.02 102.365 572.02V573.02V574.02C114.85 574.02 125.74 571.782 135.003 567.269L134.565 566.37ZM102.365 573.02V572.02C86.4534 572.02 73.1476 567.758 62.3837 559.284L61.7651 560.07L61.1466 560.856C72.3159 569.649 86.0768 574.02 102.365 574.02V573.02ZM61.7651 560.07L62.3837 559.284C51.5695 550.771 43.3871 539.488 37.8457 525.404L36.9151 525.77L35.9845 526.136C41.6431 540.518 50.0274 552.102 61.1466 560.856L61.7651 560.07ZM36.9151 525.77L37.8457 525.404C32.2965 511.3 29.5151 495.792 29.5151 478.87H28.5151H27.5151C27.5151 496.014 30.3337 511.774 35.9845 526.136L36.9151 525.77ZM28.5151 478.87H29.5151C29.5151 460.534 32.3009 444.925 37.8343 432.014L36.9151 431.62L35.996 431.226C30.3293 444.448 27.5151 460.34 27.5151 478.87H28.5151ZM36.9151 431.62L37.8368 432.008C43.397 418.802 50.3311 408.068 58.6222 399.777L57.9151 399.07L57.208 398.363C48.6992 406.872 41.6332 417.838 35.9935 431.232L36.9151 431.62ZM57.9151 399.07L58.6318 399.767C66.9775 391.19 75.2955 384.728 83.5819 380.354L83.1151 379.47L82.6484 378.586C74.1348 383.079 65.6528 389.683 57.1984 398.373L57.9151 399.07ZM83.1151 379.47L82.2397 379.953L113.74 437.003L114.615 436.52L115.491 436.037L83.9905 378.987L83.1151 379.47ZM114.615 436.52L114.076 435.678C108.156 439.467 103.502 443.752 100.146 448.546L100.965 449.12L101.784 449.693C104.962 445.154 109.408 441.04 115.154 437.362L114.615 436.52ZM100.965 449.12L100.18 448.5C96.6212 453.008 93.996 457.655 92.3213 462.44L93.2651 462.77L94.209 463.1C95.8009 458.552 98.309 454.098 101.75 449.74L100.965 449.12ZM93.2651 462.77L92.3213 462.44C90.655 467.2 89.8151 471.862 89.8151 476.42H90.8151H91.8151C91.8151 472.111 92.6085 467.673 94.209 463.1L93.2651 462.77ZM90.8151 476.42H89.8151C89.8151 481.895 90.7664 486.504 92.7328 490.191L93.6151 489.72L94.4975 489.249C92.7305 485.936 91.8151 481.678 91.8151 476.42H90.8151ZM93.6151 489.72L92.7469 490.216C94.8032 493.815 98.0636 495.62 102.365 495.62V494.62V493.62C98.7334 493.62 96.1604 492.159 94.4834 489.224L93.6151 489.72ZM102.365 494.62V495.62C107.648 495.62 112.016 493.077 115.434 488.193L114.615 487.62L113.796 487.046C110.681 491.496 106.882 493.62 102.365 493.62V494.62ZM114.615 487.62L115.465 488.146C118.549 483.164 121.494 476.676 124.308 468.703L123.365 468.37L122.422 468.037C119.636 475.931 116.748 482.275 113.765 487.094L114.615 487.62ZM123.365 468.37L124.317 468.678C126.879 460.759 129.908 452.021 133.404 442.464L132.465 442.12L131.526 441.776C128.023 451.352 124.985 460.114 122.414 468.062L123.365 468.37ZM132.465 442.12L133.407 442.456C136.885 432.717 141.054 424.036 145.909 416.407L145.065 415.87L144.221 415.333C139.276 423.104 135.045 431.923 131.523 441.784L132.465 442.12ZM145.065 415.87L145.92 416.388C150.536 408.772 155.952 402.323 162.164 397.031L161.515 396.27L160.867 395.509C154.478 400.951 148.927 407.568 144.21 415.352L145.065 415.87ZM161.515 396.27L162.179 397.017C168.383 391.503 175.387 387.37 183.198 384.613L182.865 383.67L182.532 382.727C174.477 385.57 167.247 389.837 160.851 395.523L161.515 396.27ZM182.865 383.67L183.207 384.61C190.781 381.856 199.296 380.47 208.765 380.47V379.47V378.47C199.101 378.47 190.35 379.884 182.523 382.73L182.865 383.67ZM208.765 379.47V380.47C222.157 380.47 234.008 383.24 244.345 388.752L244.815 387.87L245.286 386.988C234.622 381.3 222.44 378.47 208.765 378.47V379.47ZM244.815 387.87L244.336 388.748C254.469 394.275 262.87 401.755 269.549 411.197L270.365 410.62L271.182 410.042C264.327 400.351 255.695 392.665 245.294 386.992L244.815 387.87ZM270.365 410.62L269.556 411.207C276.25 420.441 281.335 430.953 284.806 442.752L285.765 442.47L286.724 442.188C283.195 430.187 278.013 419.465 271.175 410.033L270.365 410.62ZM285.765 442.47L284.806 442.752C288.278 454.559 290.015 466.714 290.015 479.22H291.015H292.015C292.015 466.526 290.252 454.181 286.724 442.188L285.765 442.47ZM291.015 479.22H290.015C290.015 496.607 287.118 512.817 281.332 527.861L282.265 528.22L283.198 528.579C289.079 513.289 292.015 496.833 292.015 479.22H291.015ZM282.265 528.22L281.329 527.869C275.77 542.691 268.018 555.529 258.077 566.395L258.815 567.07L259.553 567.745C269.679 556.677 277.56 543.615 283.201 528.571L282.265 528.22ZM258.815 567.07L258.077 566.395C248.127 577.271 237.035 585.47 224.803 591.009L225.215 591.92L225.628 592.831C238.129 587.17 249.437 578.802 259.553 567.745L258.815 567.07ZM225.215 591.92L226.023 591.33L188.223 539.53L187.415 540.12L186.607 540.709L224.407 592.509L225.215 591.92Z" fill="white" fill-opacity="0.1" mask="url(#path-17-outside-9_142_6153)"/>
<mask id="path-19-outside-10_142_6153" maskUnits="userSpaceOnUse" x="34.5151" y="372.035" width="247" height="82" fill="black">
<rect fill="white" x="34.5151" y="372.035" width="247" height="82"/>
<path d="M35.5151 452.535V373.785H280.515V452.535H35.5151Z"/>
</mask>
<path d="M35.5151 452.535H34.5151V453.535H35.5151V452.535ZM35.5151 373.785V372.785H34.5151V373.785H35.5151ZM280.515 373.785H281.515V372.785H280.515V373.785ZM280.515 452.535V453.535H281.515V452.535H280.515ZM35.5151 452.535H36.5151V373.785H35.5151H34.5151V452.535H35.5151ZM35.5151 373.785V374.785H280.515V373.785V372.785H35.5151V373.785ZM280.515 373.785H279.515V452.535H280.515H281.515V373.785H280.515ZM280.515 452.535V451.535H35.5151V452.535V453.535H280.515V452.535Z" fill="white" fill-opacity="0.1" mask="url(#path-19-outside-10_142_6153)"/>
<mask id="path-21-outside-11_142_6153" maskUnits="userSpaceOnUse" x="27.5151" y="128.638" width="265" height="274" fill="black">
<rect fill="white" x="27.5151" y="128.638" width="265" height="274"/>
<path d="M196.515 261.138L140.515 261.138L140.515 130.938C161.515 129.071 181.115 130.704 199.315 135.838C217.515 140.738 233.498 148.788 247.265 159.988C261.032 171.188 271.765 185.304 279.465 202.338C287.165 219.371 291.015 238.971 291.015 261.138C291.015 281.671 287.865 300.454 281.565 317.488C275.265 334.521 266.282 349.338 254.615 361.938C242.948 374.304 228.948 383.988 212.615 390.988C196.282 397.754 178.082 401.138 158.015 401.138C137.948 401.138 119.982 397.521 104.115 390.288C88.0151 383.054 74.3651 373.021 63.1651 360.188C51.9651 347.121 43.4485 331.954 37.6151 314.688C31.5485 297.188 28.5151 278.171 28.5151 257.638C28.5151 238.971 31.3151 222.521 36.9151 208.288C42.5151 193.821 49.9818 181.221 59.3151 170.488C68.4151 159.521 78.6818 149.954 90.1151 141.788L122.315 213.538C114.615 217.738 107.848 223.221 102.015 229.988C96.1818 236.754 93.2651 245.971 93.2651 257.638C93.2651 269.071 95.7151 279.571 100.615 289.138C105.282 298.704 112.398 306.404 121.965 312.238C131.532 317.838 143.548 320.638 158.015 320.638C172.248 320.638 184.498 318.071 194.765 312.938C205.032 307.571 212.848 300.221 218.215 290.888C223.582 281.321 226.265 270.238 226.265 257.638C226.265 250.638 225.565 244.338 224.165 238.738C222.765 233.138 220.782 228.354 218.215 224.388C215.648 220.188 212.498 216.571 208.765 213.538C205.032 210.504 200.948 207.938 196.515 205.838V261.138Z"/>
</mask>
<path d="M196.515 261.138V262.138H197.515V261.138H196.515ZM140.515 261.138H139.515V262.138H140.515V261.138ZM140.515 130.938L140.427 129.942L139.515 130.023V130.938H140.515ZM199.315 135.838L199.044 136.8L199.055 136.803L199.315 135.838ZM247.265 159.988L247.896 159.212L247.896 159.212L247.265 159.988ZM279.465 202.338L280.376 201.926L280.376 201.926L279.465 202.338ZM281.565 317.488L280.627 317.141L280.627 317.141L281.565 317.488ZM254.615 361.938L255.343 362.624L255.349 362.617L254.615 361.938ZM212.615 390.988L212.998 391.912L213.009 391.907L212.615 390.988ZM104.115 390.288L104.53 389.378L104.525 389.376L104.115 390.288ZM63.1651 360.188L62.4058 360.839L62.4117 360.845L63.1651 360.188ZM37.6151 314.688L38.5626 314.368L38.56 314.36L37.6151 314.688ZM36.9151 208.288L37.8457 208.654L37.8477 208.649L36.9151 208.288ZM59.3151 170.488L60.0697 171.144L60.0773 171.135L60.0847 171.126L59.3151 170.488ZM90.1151 141.788L91.0275 141.378L90.5275 140.264L89.5339 140.974L90.1151 141.788ZM122.315 213.538L122.794 214.416L123.606 213.972L123.227 213.128L122.315 213.538ZM102.015 229.988L101.258 229.335L101.258 229.335L102.015 229.988ZM100.615 289.138L101.514 288.699L101.51 288.691L101.505 288.682L100.615 289.138ZM121.965 312.238L121.445 313.091L121.452 313.096L121.46 313.101L121.965 312.238ZM194.765 312.938L195.212 313.832L195.22 313.828L195.228 313.824L194.765 312.938ZM218.215 290.888L219.082 291.386L219.087 291.377L218.215 290.888ZM224.165 238.738L223.195 238.98L223.195 238.98L224.165 238.738ZM218.215 224.388L217.362 224.909L217.369 224.92L217.376 224.931L218.215 224.388ZM196.515 205.838L196.943 204.934L195.515 204.258V205.838H196.515ZM196.515 261.138V260.138L140.515 260.138V261.138V262.138L196.515 262.138V261.138ZM140.515 261.138H141.515L141.515 130.938H140.515H139.515L139.515 261.138H140.515ZM140.515 130.938L140.604 131.934C161.496 130.077 180.973 131.703 199.044 136.8L199.315 135.838L199.587 134.875C181.257 129.705 161.534 128.065 140.427 129.942L140.515 130.938ZM199.315 135.838L199.055 136.803C217.128 141.669 232.983 149.658 246.634 160.763L247.265 159.988L247.896 159.212C234.014 147.918 217.902 139.806 199.575 134.872L199.315 135.838ZM247.265 159.988L246.634 160.763C260.274 171.86 270.914 185.85 278.554 202.75L279.465 202.338L280.376 201.926C272.616 184.759 261.79 170.515 247.896 159.212L247.265 159.988ZM279.465 202.338L278.554 202.75C286.186 219.632 290.015 239.087 290.015 261.138H291.015H292.015C292.015 238.855 288.145 219.11 280.376 201.926L279.465 202.338ZM291.015 261.138H290.015C290.015 281.568 286.881 300.232 280.627 317.141L281.565 317.488L282.503 317.835C288.849 300.677 292.015 281.774 292.015 261.138H291.015ZM281.565 317.488L280.627 317.141C274.37 334.058 265.454 348.76 253.881 361.258L254.615 361.938L255.349 362.617C267.11 349.915 276.16 334.984 282.503 317.835L281.565 317.488ZM254.615 361.938L253.888 361.251C242.319 373.514 228.434 383.12 212.221 390.069L212.615 390.988L213.009 391.907C229.462 384.855 243.578 375.095 255.343 362.624L254.615 361.938ZM212.615 390.988L212.232 390.064C196.036 396.774 177.968 400.138 158.015 400.138V401.138V402.138C178.195 402.138 196.528 398.735 212.998 391.912L212.615 390.988ZM158.015 401.138V400.138C138.07 400.138 120.248 396.543 104.53 389.378L104.115 390.288L103.7 391.198C119.715 398.499 137.827 402.138 158.015 402.138V401.138ZM104.115 390.288L104.525 389.376C88.5516 382.199 75.0202 372.251 63.9185 359.53L63.1651 360.188L62.4117 360.845C73.71 373.791 87.4786 383.91 103.705 391.2L104.115 390.288ZM63.1651 360.188L63.9244 359.537C52.8125 346.573 44.3573 331.52 38.5625 314.368L37.6151 314.688L36.6677 315.008C42.5396 332.388 51.1177 347.669 62.4059 360.838L63.1651 360.188ZM37.6151 314.688L38.56 314.36C32.5336 296.976 29.5151 278.072 29.5151 257.638H28.5151H27.5151C27.5151 278.27 30.5634 297.399 36.6703 315.015L37.6151 314.688ZM28.5151 257.638H29.5151C29.5151 239.07 32.3005 222.748 37.8457 208.654L36.9151 208.288L35.9845 207.922C30.3298 222.294 27.5151 238.873 27.5151 257.638H28.5151ZM36.9151 208.288L37.8477 208.649C43.4097 194.28 50.8189 181.782 60.0697 171.144L59.3151 170.488L58.5605 169.832C49.1446 180.66 41.6205 193.362 35.9825 207.927L36.9151 208.288ZM59.3151 170.488L60.0847 171.126C69.1305 160.225 79.3341 150.717 90.6964 142.601L90.1151 141.788L89.5339 140.974C78.0295 149.191 67.6997 158.817 58.5456 169.849L59.3151 170.488ZM90.1151 141.788L89.2028 142.197L121.403 213.947L122.315 213.538L123.227 213.128L91.0275 141.378L90.1151 141.788ZM122.315 213.538L121.836 212.66C114.029 216.918 107.168 222.479 101.258 229.335L102.015 229.988L102.773 230.641C108.529 223.963 115.202 218.557 122.794 214.416L122.315 213.538ZM102.015 229.988L101.258 229.335C95.2252 236.332 92.2651 245.806 92.2651 257.638H93.2651H94.2651C94.2651 246.136 97.1384 237.176 102.773 230.641L102.015 229.988ZM93.2651 257.638H92.2651C92.2651 269.219 94.7482 279.877 99.7251 289.594L100.615 289.138L101.505 288.682C96.682 279.265 94.2651 268.923 94.2651 257.638H93.2651ZM100.615 289.138L99.7164 289.576C104.471 299.324 111.724 307.164 121.445 313.091L121.965 312.238L122.486 311.384C113.073 305.645 106.092 298.085 101.514 288.699L100.615 289.138ZM121.965 312.238L121.46 313.101C131.22 318.814 143.424 321.638 158.015 321.638V320.638V319.638C143.673 319.638 131.844 316.862 122.47 311.375L121.965 312.238ZM158.015 320.638V321.638C172.367 321.638 184.777 319.05 195.212 313.832L194.765 312.938L194.318 312.043C184.219 317.093 172.13 319.638 158.015 319.638V320.638ZM194.765 312.938L195.228 313.824C205.65 308.376 213.613 300.897 219.082 291.386L218.215 290.888L217.348 290.389C212.084 299.545 204.413 306.766 194.302 312.051L194.765 312.938ZM218.215 290.888L219.087 291.377C224.55 281.64 227.265 270.383 227.265 257.638H226.265H225.265C225.265 270.092 222.614 281.002 217.343 290.398L218.215 290.888ZM226.265 257.638H227.265C227.265 250.573 226.559 244.189 225.135 238.495L224.165 238.738L223.195 238.98C224.571 244.486 225.265 250.703 225.265 257.638H226.265ZM224.165 238.738L225.135 238.495C223.714 232.811 221.693 227.921 219.055 223.844L218.215 224.388L217.376 224.931C219.871 228.787 221.816 233.464 223.195 238.98L224.165 238.738ZM218.215 224.388L219.068 223.866C216.444 219.572 213.219 215.868 209.396 212.762L208.765 213.538L208.135 214.314C211.778 217.274 214.853 220.804 217.362 224.909L218.215 224.388ZM208.765 213.538L209.396 212.762C205.599 209.677 201.447 207.068 196.943 204.934L196.515 205.838L196.087 206.741C200.449 208.808 204.465 211.332 208.135 214.314L208.765 213.538ZM196.515 205.838H195.515V261.138H196.515H197.515V205.838H196.515Z" fill="white" fill-opacity="0.1" mask="url(#path-21-outside-11_142_6153)"/>
<mask id="path-23-outside-12_142_6153" maskUnits="userSpaceOnUse" x="19.0757" y="12.9932" width="275" height="236" fill="black">
<rect fill="white" x="19.0757" y="12.9932" width="275" height="236"/>
<path d="M34.0757 88.2432L34.0757 14.7432H291.326L168.126 173.993H279.076V247.493L21.8257 247.493L145.026 88.2432H34.0757Z"/>
</mask>
<path d="M34.0757 88.2432H33.0757V89.2432H34.0757V88.2432ZM34.0757 14.7432V13.7432H33.0757V14.7432H34.0757ZM291.326 14.7432L292.117 15.3551L293.364 13.7432H291.326V14.7432ZM168.126 173.993L167.335 173.381L166.088 174.993H168.126V173.993ZM279.076 173.993H280.076V172.993H279.076V173.993ZM279.076 247.493V248.493H280.076V247.493H279.076ZM21.8257 247.493L21.0347 246.881L19.7877 248.493H21.8257V247.493ZM145.026 88.2432L145.817 88.8551L147.064 87.2432H145.026V88.2432ZM34.0757 88.2432H35.0757L35.0757 14.7432H34.0757H33.0757L33.0757 88.2432H34.0757ZM34.0757 14.7432V15.7432H291.326V14.7432V13.7432H34.0757V14.7432ZM291.326 14.7432L290.535 14.1313L167.335 173.381L168.126 173.993L168.917 174.605L292.117 15.3551L291.326 14.7432ZM168.126 173.993V174.993H279.076V173.993V172.993H168.126V173.993ZM279.076 173.993H278.076V247.493H279.076H280.076V173.993H279.076ZM279.076 247.493V246.493L21.8257 246.493V247.493V248.493L279.076 248.493V247.493ZM21.8257 247.493L22.6166 248.105L145.817 88.8551L145.026 88.2432L144.235 87.6313L21.0347 246.881L21.8257 247.493ZM145.026 88.2432V87.2432H34.0757V88.2432V89.2432H145.026V88.2432Z" fill="white" fill-opacity="0.1" mask="url(#path-23-outside-12_142_6153)"/>
<mask id="path-25-outside-13_142_6153" maskUnits="userSpaceOnUse" x="24.4394" y="505.08" width="247" height="180" fill="black">
<rect fill="white" x="24.4394" y="505.08" width="247" height="180"/>
<path d="M270.439 630.38H209.189V506.83H270.439V630.38ZM86.6894 630.38H25.4394V506.83H86.6894V630.38ZM174.189 630.38H114.689V513.83L174.189 513.83V630.38ZM25.4394 683.58V610.08H270.439V683.58H25.4394Z"/>
</mask>
<path d="M270.439 630.38V631.38H271.439V630.38H270.439ZM209.189 630.38H208.189V631.38H209.189V630.38ZM209.189 506.83V505.83H208.189V506.83H209.189ZM270.439 506.83H271.439V505.83H270.439V506.83ZM86.6894 630.38V631.38H87.6894V630.38H86.6894ZM25.4394 630.38H24.4394V631.38H25.4394V630.38ZM25.4394 506.83V505.83H24.4394V506.83H25.4394ZM86.6894 506.83H87.6894V505.83H86.6894V506.83ZM174.189 630.38V631.38H175.189V630.38H174.189ZM114.689 630.38H113.689V631.38H114.689V630.38ZM114.689 513.83V512.83H113.689V513.83H114.689ZM174.189 513.83H175.189V512.83H174.189V513.83ZM25.4394 683.58H24.4394V684.58H25.4394V683.58ZM25.4394 610.08V609.08H24.4394V610.08H25.4394ZM270.439 610.08H271.439V609.08H270.439V610.08ZM270.439 683.58V684.58H271.439V683.58H270.439ZM270.439 630.38V629.38H209.189V630.38V631.38H270.439V630.38ZM209.189 630.38H210.189V506.83H209.189H208.189V630.38H209.189ZM209.189 506.83V507.83H270.439V506.83V505.83H209.189V506.83ZM270.439 506.83H269.439V630.38H270.439H271.439V506.83H270.439ZM86.6894 630.38V629.38H25.4394V630.38V631.38H86.6894V630.38ZM25.4394 630.38H26.4394V506.83H25.4394H24.4394V630.38H25.4394ZM25.4394 506.83V507.83H86.6894V506.83V505.83H25.4394V506.83ZM86.6894 506.83H85.6894V630.38H86.6894H87.6894V506.83H86.6894ZM174.189 630.38V629.38H114.689V630.38V631.38H174.189V630.38ZM114.689 630.38H115.689V513.83H114.689H113.689V630.38H114.689ZM114.689 513.83V514.83L174.189 514.83V513.83V512.83L114.689 512.83V513.83ZM174.189 513.83H173.189V630.38H174.189H175.189V513.83H174.189ZM25.4394 683.58H26.4394V610.08H25.4394H24.4394V683.58H25.4394ZM25.4394 610.08V611.08H270.439V610.08V609.08H25.4394V610.08ZM270.439 610.08H269.439V683.58H270.439H271.439V610.08H270.439ZM270.439 683.58V682.58H25.4394V683.58V684.58H270.439V683.58Z" fill="white" fill-opacity="0.2" mask="url(#path-25-outside-13_142_6153)"/>
<mask id="path-27-outside-14_142_6153" maskUnits="userSpaceOnUse" x="24.4394" y="582.332" width="247" height="236" fill="black">
<rect fill="white" x="24.4394" y="582.332" width="247" height="236"/>
<path d="M25.4394 816.832V736.682H270.439V816.832H25.4394ZM270.439 720.582V763.632H203.939V724.082C203.939 717.315 203.356 710.432 202.189 703.432C201.023 696.432 198.573 690.015 194.839 684.182C191.106 678.349 185.506 673.682 178.039 670.182C170.573 666.449 160.539 664.582 147.939 664.582C135.339 664.582 125.306 666.449 117.839 670.182C110.373 673.682 104.773 678.349 101.039 684.182C97.3061 690.015 94.8561 696.432 93.6894 703.432C92.5228 710.432 91.9394 717.315 91.9394 724.082V763.632H25.4394V720.582C25.4394 692.115 30.3394 667.732 40.1394 647.432C49.9394 626.899 63.9394 611.265 82.1394 600.532C100.339 589.565 122.273 584.082 147.939 584.082C173.373 584.082 195.306 589.565 213.739 600.532C231.939 611.265 245.939 626.899 255.739 647.432C265.539 667.732 270.439 692.115 270.439 720.582Z"/>
</mask>
<path d="M25.4394 816.832H24.4394V817.832H25.4394V816.832ZM25.4394 736.682V735.682H24.4394V736.682H25.4394ZM270.439 736.682H271.439V735.682H270.439V736.682ZM270.439 816.832V817.832H271.439V816.832H270.439ZM270.439 763.632V764.632H271.439V763.632H270.439ZM203.939 763.632H202.939V764.632H203.939V763.632ZM178.039 670.182L177.592 671.076L177.604 671.082L177.615 671.087L178.039 670.182ZM117.839 670.182L118.264 671.087L118.275 671.082L118.287 671.076L117.839 670.182ZM101.039 684.182L100.197 683.643L100.197 683.643L101.039 684.182ZM93.6894 703.432L94.6758 703.596L94.6758 703.596L93.6894 703.432ZM91.9394 763.632V764.632H92.9394V763.632H91.9394ZM25.4394 763.632H24.4394V764.632H25.4394V763.632ZM40.1394 647.432L41.04 647.867L41.0419 647.863L40.1394 647.432ZM82.1394 600.532L82.6474 601.393L82.6555 601.389L82.1394 600.532ZM213.739 600.532L213.228 601.391L213.231 601.393L213.739 600.532ZM255.739 647.432L254.837 647.863L254.839 647.867L255.739 647.432ZM25.4394 816.832H26.4394V736.682H25.4394H24.4394V816.832H25.4394ZM25.4394 736.682V737.682H270.439V736.682V735.682H25.4394V736.682ZM270.439 736.682H269.439V816.832H270.439H271.439V736.682H270.439ZM270.439 816.832V815.832H25.4394V816.832V817.832H270.439V816.832ZM270.439 720.582H269.439V763.632H270.439H271.439V720.582H270.439ZM270.439 763.632V762.632H203.939V763.632V764.632H270.439V763.632ZM203.939 763.632H204.939V724.082H203.939H202.939V763.632H203.939ZM203.939 724.082H204.939C204.939 717.258 204.351 710.319 203.176 703.268L202.189 703.432L201.203 703.596C202.361 710.545 202.939 717.373 202.939 724.082H203.939ZM202.189 703.432L203.176 703.268C201.987 696.138 199.49 689.593 195.682 683.643L194.839 684.182L193.997 684.721C197.656 690.438 200.058 696.726 201.203 703.596L202.189 703.432ZM194.839 684.182L195.682 683.643C191.828 677.622 186.069 672.841 178.464 669.277L178.039 670.182L177.615 671.087C184.944 674.523 190.384 679.075 193.997 684.721L194.839 684.182ZM178.039 670.182L178.487 669.288C170.828 665.459 160.622 663.582 147.939 663.582V664.582V665.582C160.456 665.582 170.317 667.439 177.592 671.076L178.039 670.182ZM147.939 664.582V663.582C135.256 663.582 125.05 665.459 117.392 669.288L117.839 670.182L118.287 671.076C125.562 667.439 135.422 665.582 147.939 665.582V664.582ZM117.839 670.182L117.415 669.277C109.81 672.841 104.05 677.622 100.197 683.643L101.039 684.182L101.882 684.721C105.495 679.075 110.935 674.523 118.264 671.087L117.839 670.182ZM101.039 684.182L100.197 683.643C96.3891 689.593 93.8914 696.138 92.703 703.268L93.6894 703.432L94.6758 703.596C95.8208 696.726 98.2231 690.438 101.882 684.721L101.039 684.182ZM93.6894 703.432L92.703 703.268C91.5278 710.319 90.9394 717.258 90.9394 724.082H91.9394H92.9394C92.9394 717.373 93.5178 710.545 94.6758 703.596L93.6894 703.432ZM91.9394 724.082H90.9394V763.632H91.9394H92.9394V724.082H91.9394ZM91.9394 763.632V762.632H25.4394V763.632V764.632H91.9394V763.632ZM25.4394 763.632H26.4394V720.582H25.4394H24.4394V763.632H25.4394ZM25.4394 720.582H26.4394C26.4394 692.227 31.3203 668 41.04 647.867L40.1394 647.432L39.2389 646.997C29.3585 667.464 24.4394 692.003 24.4394 720.582H25.4394ZM40.1394 647.432L41.0419 647.863C50.7631 627.495 64.6321 612.018 82.6474 601.393L82.1394 600.532L81.6314 599.671C63.2467 610.513 49.1158 626.303 39.2369 647.001L40.1394 647.432ZM82.1394 600.532L82.6555 601.389C100.67 590.534 122.417 585.082 147.939 585.082V584.082V583.082C122.129 583.082 100.009 588.597 81.6233 599.676L82.1394 600.532ZM147.939 584.082V585.082C173.226 585.082 194.976 590.533 213.228 601.391L213.739 600.532L214.251 599.673C195.636 588.598 173.519 583.082 147.939 583.082V584.082ZM213.739 600.532L213.231 601.393C231.247 612.018 245.116 627.495 254.837 647.863L255.739 647.432L256.642 647.001C246.763 626.303 232.632 610.513 214.247 599.671L213.739 600.532ZM255.739 647.432L254.839 647.867C264.559 668 269.439 692.227 269.439 720.582H270.439H271.439C271.439 692.003 266.52 667.464 256.64 646.997L255.739 647.432Z" fill="white" fill-opacity="0.2" mask="url(#path-27-outside-14_142_6153)"/>
<mask id="path-29-outside-15_142_6153" maskUnits="userSpaceOnUse" x="17.4394" y="364.087" width="265" height="216" fill="black">
<rect fill="white" x="17.4394" y="364.087" width="265" height="216"/>
<path d="M177.339 526.787C185.506 522.12 192.623 516.754 198.689 510.687C204.523 504.62 208.956 498.087 211.989 491.087C215.023 483.854 216.539 476.62 216.539 469.387C216.539 463.32 215.373 458.187 213.039 453.987C210.473 449.787 206.506 447.687 201.139 447.687C197.873 447.687 195.073 448.854 192.739 451.187C190.406 453.287 187.723 457.604 184.689 464.137C181.656 470.67 177.573 480.587 172.439 493.887C170.106 499.72 166.956 506.487 162.989 514.187C159.023 521.654 153.889 528.887 147.589 535.887C141.289 542.654 133.589 548.37 124.489 553.037C115.389 557.47 104.656 559.687 92.2894 559.687C76.1894 559.687 62.6561 555.37 51.6894 546.737C40.7228 538.104 32.4394 526.67 26.8394 512.437C21.2394 498.204 18.4394 482.57 18.4394 465.537C18.4394 447.104 21.2394 431.354 26.8394 418.287C32.4394 404.987 39.4394 394.137 47.8394 385.737C56.2394 377.104 64.6394 370.57 73.0394 366.137L104.539 423.187C98.7061 426.92 94.1561 431.12 90.8894 435.787C87.3894 440.22 84.8228 444.77 83.1894 449.437C81.5561 454.104 80.7394 458.654 80.7394 463.087C80.7394 468.454 81.6728 472.887 83.5394 476.387C85.4061 479.654 88.3228 481.287 92.2894 481.287C97.1894 481.287 101.273 478.954 104.539 474.287C107.573 469.387 110.489 462.97 113.289 455.037C115.856 447.104 118.889 438.354 122.389 428.787C125.889 418.987 130.089 410.237 134.989 402.537C139.656 394.837 145.139 388.304 151.439 382.937C157.739 377.337 164.856 373.137 172.789 370.337C180.489 367.537 189.123 366.137 198.689 366.137C212.223 366.137 224.239 368.937 234.739 374.537C245.006 380.137 253.523 387.72 260.289 397.287C267.056 406.62 272.189 417.237 275.689 429.137C279.189 441.037 280.939 453.287 280.939 465.887C280.939 483.387 278.023 499.72 272.189 514.887C266.589 529.82 258.773 542.77 248.739 553.737C238.706 564.704 227.506 572.987 215.139 578.587L177.339 526.787Z"/>
</mask>
<path d="M177.339 526.787L176.843 525.919L175.873 526.473L176.532 527.376L177.339 526.787ZM198.689 510.687L199.397 511.394L199.403 511.387L199.41 511.38L198.689 510.687ZM211.989 491.087L212.907 491.485L212.912 491.474L211.989 491.087ZM213.039 453.987L213.914 453.501L213.904 453.483L213.893 453.465L213.039 453.987ZM192.739 451.187L193.408 451.93L193.428 451.913L193.447 451.894L192.739 451.187ZM184.689 464.137L185.596 464.558L185.596 464.558L184.689 464.137ZM172.439 493.887L173.368 494.258L173.372 494.247L172.439 493.887ZM162.989 514.187L163.873 514.656L163.878 514.645L162.989 514.187ZM147.589 535.887L148.321 536.568L148.327 536.562L148.333 536.556L147.589 535.887ZM124.489 553.037L124.927 553.936L124.937 553.931L124.946 553.927L124.489 553.037ZM51.6894 546.737L52.308 545.951L52.308 545.951L51.6894 546.737ZM26.8394 512.437L27.77 512.071L27.77 512.071L26.8394 512.437ZM26.8394 418.287L27.7586 418.681L27.7611 418.675L26.8394 418.287ZM47.8394 385.737L48.5466 386.444L48.5562 386.434L47.8394 385.737ZM73.0394 366.137L73.9149 365.654L73.4405 364.795L72.5727 365.253L73.0394 366.137ZM104.539 423.187L105.078 424.029L105.868 423.524L105.415 422.704L104.539 423.187ZM90.8894 435.787L91.6743 436.407L91.6922 436.384L91.7087 436.36L90.8894 435.787ZM83.5394 476.387L82.6571 476.858L82.6639 476.87L82.6712 476.883L83.5394 476.387ZM104.539 474.287L105.359 474.86L105.375 474.837L105.39 474.813L104.539 474.287ZM113.289 455.037L114.232 455.37L114.237 455.357L114.241 455.345L113.289 455.037ZM122.389 428.787L123.329 429.131L123.331 429.123L122.389 428.787ZM134.989 402.537L135.833 403.074L135.839 403.065L135.845 403.055L134.989 402.537ZM151.439 382.937L152.088 383.698L152.096 383.691L152.104 383.684L151.439 382.937ZM172.789 370.337L173.122 371.28L173.131 371.277L172.789 370.337ZM234.739 374.537L235.218 373.659L235.21 373.655L234.739 374.537ZM260.289 397.287L259.473 397.864L259.48 397.874L260.289 397.287ZM272.189 514.887L271.256 514.528L271.253 514.536L272.189 514.887ZM248.739 553.737L248.002 553.062L248.002 553.062L248.739 553.737ZM215.139 578.587L214.332 579.176L214.811 579.833L215.552 579.498L215.139 578.587ZM177.339 526.787L177.836 527.655C186.072 522.949 193.261 517.529 199.397 511.394L198.689 510.687L197.982 509.98C191.984 515.978 184.94 521.292 176.843 525.919L177.339 526.787ZM198.689 510.687L199.41 511.38C205.318 505.236 209.822 498.605 212.907 491.485L211.989 491.087L211.072 490.689C208.091 497.569 203.728 504.004 197.969 509.994L198.689 510.687ZM211.989 491.087L212.912 491.474C215.992 484.128 217.539 476.764 217.539 469.387H216.539H215.539C215.539 476.477 214.054 483.579 211.067 490.7L211.989 491.087ZM216.539 469.387H217.539C217.539 463.194 216.348 457.884 213.914 453.501L213.039 453.987L212.165 454.473C214.397 458.49 215.539 463.446 215.539 469.387H216.539ZM213.039 453.987L213.893 453.465C211.125 448.937 206.817 446.687 201.139 446.687V447.687V448.687C206.196 448.687 209.82 450.637 212.186 454.508L213.039 453.987ZM201.139 447.687V446.687C197.605 446.687 194.551 447.961 192.032 450.48L192.739 451.187L193.447 451.894C195.594 449.746 198.141 448.687 201.139 448.687V447.687ZM192.739 451.187L192.07 450.444C189.572 452.692 186.818 457.178 183.782 463.716L184.689 464.137L185.596 464.558C188.628 458.029 191.24 453.881 193.408 451.93L192.739 451.187ZM184.689 464.137L183.782 463.716C180.735 470.28 176.642 480.222 171.507 493.527L172.439 493.887L173.372 494.247C178.504 480.952 182.578 471.06 185.596 464.558L184.689 464.137ZM172.439 493.887L171.511 493.516C169.193 499.311 166.058 506.047 162.1 513.729L162.989 514.187L163.878 514.645C167.855 506.926 171.019 500.13 173.368 494.258L172.439 493.887ZM162.989 514.187L162.106 513.718C158.182 521.105 153.098 528.272 146.846 535.218L147.589 535.887L148.333 536.556C154.681 529.502 159.864 522.202 163.873 514.656L162.989 514.187ZM147.589 535.887L146.858 535.205C140.645 541.879 133.041 547.528 124.033 552.147L124.489 553.037L124.946 553.927C134.138 549.213 141.934 543.428 148.321 536.568L147.589 535.887ZM124.489 553.037L124.051 552.138C115.115 556.492 104.537 558.687 92.2894 558.687V559.687V560.687C104.775 560.687 115.664 558.449 124.927 553.936L124.489 553.037ZM92.2894 559.687V558.687C76.3777 558.687 63.072 554.425 52.308 545.951L51.6894 546.737L51.0709 547.523C62.2403 556.316 76.0011 560.687 92.2894 560.687V559.687ZM51.6894 546.737L52.308 545.951C41.4938 537.438 33.3115 526.155 27.77 512.071L26.8394 512.437L25.9089 512.803C31.5674 527.185 39.9517 538.769 51.0709 547.523L51.6894 546.737ZM26.8394 512.437L27.77 512.071C22.2208 497.967 19.4394 482.459 19.4394 465.537H18.4394H17.4394C17.4394 482.681 20.2581 498.441 25.9089 512.803L26.8394 512.437ZM18.4394 465.537H19.4394C19.4394 447.201 22.2252 431.592 27.7586 418.681L26.8394 418.287L25.9203 417.893C20.2536 431.115 17.4394 447.007 17.4394 465.537H18.4394ZM26.8394 418.287L27.7611 418.675C33.3214 405.469 40.2554 394.735 48.5465 386.444L47.8394 385.737L47.1323 385.03C38.6235 393.539 31.5575 404.505 25.9178 417.899L26.8394 418.287ZM47.8394 385.737L48.5562 386.434C56.9018 377.857 65.2198 371.395 73.5062 367.021L73.0394 366.137L72.5727 365.253C64.0591 369.746 55.5771 376.35 47.1227 385.04L47.8394 385.737ZM73.0394 366.137L72.164 366.62L103.664 423.67L104.539 423.187L105.415 422.704L73.9149 365.654L73.0394 366.137ZM104.539 423.187L104 422.345C98.0801 426.134 93.4261 430.419 90.0702 435.213L90.8894 435.787L91.7087 436.36C94.8861 431.821 99.3321 427.707 105.078 424.029L104.539 423.187ZM90.8894 435.787L90.1046 435.167C86.5455 439.675 83.9203 444.322 82.2456 449.107L83.1894 449.437L84.1333 449.767C85.7252 445.219 88.2333 440.765 91.6743 436.407L90.8894 435.787ZM83.1894 449.437L82.2456 449.107C80.5793 453.867 79.7394 458.529 79.7394 463.087H80.7394H81.7394C81.7394 458.778 82.5329 454.34 84.1333 449.767L83.1894 449.437ZM80.7394 463.087H79.7394C79.7394 468.562 80.6907 473.171 82.6571 476.858L83.5394 476.387L84.4218 475.916C82.6548 472.603 81.7394 468.345 81.7394 463.087H80.7394ZM83.5394 476.387L82.6712 476.883C84.7275 480.482 87.9879 482.287 92.2894 482.287V481.287V480.287C88.6577 480.287 86.0847 478.826 84.4077 475.891L83.5394 476.387ZM92.2894 481.287V482.287C97.5723 482.287 101.94 479.744 105.359 474.86L104.539 474.287L103.72 473.713C100.606 478.163 96.8065 480.287 92.2894 480.287V481.287ZM104.539 474.287L105.39 474.813C108.474 469.831 111.418 463.343 114.232 455.37L113.289 455.037L112.346 454.704C109.56 462.598 106.672 468.942 103.689 473.761L104.539 474.287ZM113.289 455.037L114.241 455.345C116.803 447.426 119.832 438.688 123.329 429.13L122.389 428.787L121.45 428.443C117.947 438.019 114.909 446.781 112.338 454.729L113.289 455.037ZM122.389 428.787L123.331 429.123C126.809 419.384 130.978 410.703 135.833 403.074L134.989 402.537L134.146 402C129.201 409.771 124.969 418.59 121.448 428.451L122.389 428.787ZM134.989 402.537L135.845 403.055C140.461 395.439 145.876 388.99 152.088 383.698L151.439 382.937L150.791 382.176C144.403 387.618 138.852 394.235 134.134 402.019L134.989 402.537ZM151.439 382.937L152.104 383.684C158.307 378.17 165.311 374.037 173.122 371.28L172.789 370.337L172.457 369.394C164.401 372.237 157.172 376.504 150.775 382.19L151.439 382.937ZM172.789 370.337L173.131 371.277C180.705 368.523 189.22 367.137 198.689 367.137V366.137V365.137C189.025 365.137 180.274 366.551 172.448 369.397L172.789 370.337ZM198.689 366.137V367.137C212.081 367.137 223.933 369.907 234.269 375.419L234.739 374.537L235.21 373.655C224.546 367.967 212.364 365.137 198.689 365.137V366.137ZM234.739 374.537L234.261 375.415C244.393 380.942 252.794 388.422 259.473 397.864L260.289 397.287L261.106 396.709C254.251 387.018 245.619 379.332 235.218 373.659L234.739 374.537ZM260.289 397.287L259.48 397.874C266.175 407.108 271.26 417.62 274.73 429.419L275.689 429.137L276.649 428.855C273.119 416.854 267.938 406.132 261.099 396.7L260.289 397.287ZM275.689 429.137L274.73 429.419C278.203 441.226 279.939 453.381 279.939 465.887H280.939H281.939C281.939 453.193 280.176 440.848 276.649 428.855L275.689 429.137ZM280.939 465.887H279.939C279.939 483.274 277.042 499.484 271.256 514.528L272.189 514.887L273.123 515.246C279.003 499.956 281.939 483.5 281.939 465.887H280.939ZM272.189 514.887L271.253 514.536C265.695 529.358 257.943 542.196 248.002 553.062L248.739 553.737L249.477 554.412C259.603 543.344 267.484 530.282 273.126 515.238L272.189 514.887ZM248.739 553.737L248.002 553.062C238.051 563.938 226.959 572.137 214.727 577.676L215.139 578.587L215.552 579.498C228.053 573.837 239.361 565.469 249.477 554.412L248.739 553.737ZM215.139 578.587L215.947 577.997L178.147 526.197L177.339 526.787L176.532 527.376L214.332 579.176L215.139 578.587Z" fill="white" fill-opacity="0.2" mask="url(#path-29-outside-15_142_6153)"/>
<mask id="path-31-outside-16_142_6153" maskUnits="userSpaceOnUse" x="24.4394" y="358.703" width="247" height="82" fill="black">
<rect fill="white" x="24.4394" y="358.703" width="247" height="82"/>
<path d="M25.4394 439.203V360.453H270.439V439.203H25.4394Z"/>
</mask>
<path d="M25.4394 439.203H24.4394V440.203H25.4394V439.203ZM25.4394 360.453V359.453H24.4394V360.453H25.4394ZM270.439 360.453H271.439V359.453H270.439V360.453ZM270.439 439.203V440.203H271.439V439.203H270.439ZM25.4394 439.203H26.4394V360.453H25.4394H24.4394V439.203H25.4394ZM25.4394 360.453V361.453H270.439V360.453V359.453H25.4394V360.453ZM270.439 360.453H269.439V439.203H270.439H271.439V360.453H270.439ZM270.439 439.203V438.203H25.4394V439.203V440.203H270.439V439.203Z" fill="white" fill-opacity="0.2" mask="url(#path-31-outside-16_142_6153)"/>
<mask id="path-33-outside-17_142_6153" maskUnits="userSpaceOnUse" x="17.4394" y="115.306" width="265" height="274" fill="black">
<rect fill="white" x="17.4394" y="115.306" width="265" height="274"/>
<path d="M186.439 247.806L130.439 247.806L130.439 117.606C151.439 115.739 171.039 117.372 189.239 122.506C207.439 127.406 223.423 135.456 237.189 146.656C250.956 157.856 261.689 171.972 269.389 189.006C277.089 206.039 280.939 225.639 280.939 247.806C280.939 268.339 277.789 287.122 271.489 304.156C265.189 321.189 256.206 336.006 244.539 348.606C232.873 360.972 218.873 370.656 202.539 377.656C186.206 384.422 168.006 387.806 147.939 387.806C127.873 387.806 109.906 384.189 94.0394 376.956C77.9394 369.722 64.2894 359.689 53.0894 346.856C41.8894 333.789 33.3728 318.622 27.5394 301.356C21.4728 283.856 18.4394 264.839 18.4394 244.306C18.4394 225.639 21.2394 209.189 26.8394 194.956C32.4394 180.489 39.9061 167.889 49.2394 157.156C58.3394 146.189 68.6061 136.622 80.0394 128.456L112.239 200.206C104.539 204.406 97.7728 209.889 91.9394 216.656C86.1061 223.422 83.1894 232.639 83.1894 244.306C83.1894 255.739 85.6394 266.239 90.5394 275.806C95.2061 285.372 102.323 293.072 111.889 298.906C121.456 304.506 133.473 307.306 147.939 307.306C162.173 307.306 174.423 304.739 184.689 299.606C194.956 294.239 202.773 286.889 208.139 277.556C213.506 267.989 216.189 256.906 216.189 244.306C216.189 237.306 215.489 231.006 214.089 225.406C212.689 219.806 210.706 215.022 208.139 211.056C205.573 206.856 202.423 203.239 198.689 200.206C194.956 197.172 190.873 194.606 186.439 192.506V247.806Z"/>
</mask>
<path d="M186.439 247.806V248.806H187.439V247.806H186.439ZM130.439 247.806H129.439V248.806H130.439V247.806ZM130.439 117.606L130.351 116.61L129.439 116.691V117.606H130.439ZM189.239 122.506L188.968 123.468L188.979 123.471L189.239 122.506ZM237.189 146.656L237.821 145.88L237.821 145.88L237.189 146.656ZM269.389 189.006L270.301 188.594L270.301 188.594L269.389 189.006ZM271.489 304.156L270.552 303.809L270.552 303.809L271.489 304.156ZM244.539 348.606L245.267 349.292L245.273 349.285L244.539 348.606ZM202.539 377.656L202.922 378.58L202.933 378.575L202.539 377.656ZM94.0394 376.956L94.4543 376.046L94.4493 376.043L94.0394 376.956ZM53.0894 346.856L52.3301 347.506L52.336 347.513L53.0894 346.856ZM27.5394 301.356L28.4869 301.036L28.4843 301.028L27.5394 301.356ZM26.8394 194.956L27.77 195.322L27.772 195.317L26.8394 194.956ZM49.2394 157.156L49.994 157.812L50.0016 157.803L50.009 157.794L49.2394 157.156ZM80.0394 128.456L80.9518 128.046L80.4518 126.932L79.4582 127.642L80.0394 128.456ZM112.239 200.206L112.718 201.084L113.531 200.64L113.152 199.796L112.239 200.206ZM91.9394 216.656L91.182 216.003L91.182 216.003L91.9394 216.656ZM90.5394 275.806L91.4382 275.367L91.4339 275.358L91.4295 275.35L90.5394 275.806ZM111.889 298.906L111.369 299.759L111.377 299.764L111.384 299.769L111.889 298.906ZM184.689 299.606L185.137 300.5L185.145 300.496L185.153 300.492L184.689 299.606ZM208.139 277.556L209.006 278.054L209.012 278.045L208.139 277.556ZM214.089 225.406L213.119 225.648L213.119 225.648L214.089 225.406ZM208.139 211.056L207.286 211.577L207.293 211.588L207.3 211.599L208.139 211.056ZM186.439 192.506L186.868 191.602L185.439 190.925V192.506H186.439ZM186.439 247.806V246.806L130.439 246.806V247.806V248.806L186.439 248.806V247.806ZM130.439 247.806H131.439L131.439 117.606H130.439H129.439L129.439 247.806H130.439ZM130.439 117.606L130.528 118.602C151.421 116.745 170.898 118.371 188.968 123.468L189.239 122.506L189.511 121.543C171.181 116.373 151.458 114.733 130.351 116.61L130.439 117.606ZM189.239 122.506L188.979 123.471C207.052 128.337 222.907 136.325 236.558 147.431L237.189 146.656L237.821 145.88C223.938 134.586 207.827 126.474 189.499 121.54L189.239 122.506ZM237.189 146.656L236.558 147.431C250.198 158.528 260.839 172.518 268.478 189.418L269.389 189.006L270.301 188.594C262.54 171.427 251.714 157.183 237.821 145.88L237.189 146.656ZM269.389 189.006L268.478 189.418C276.11 206.3 279.939 225.755 279.939 247.806H280.939H281.939C281.939 225.523 278.069 205.778 270.301 188.594L269.389 189.006ZM280.939 247.806H279.939C279.939 268.236 276.805 286.9 270.552 303.809L271.489 304.156L272.427 304.503C278.773 287.345 281.939 268.442 281.939 247.806H280.939ZM271.489 304.156L270.552 303.809C264.294 320.726 255.378 335.428 243.806 347.926L244.539 348.606L245.273 349.285C257.034 336.583 266.084 321.652 272.427 304.503L271.489 304.156ZM244.539 348.606L243.812 347.919C232.244 360.182 218.359 369.788 202.146 376.737L202.539 377.656L202.933 378.575C219.387 371.523 233.502 361.763 245.267 349.292L244.539 348.606ZM202.539 377.656L202.157 376.732C185.96 383.442 167.892 386.806 147.939 386.806V387.806V388.806C168.12 388.806 186.452 385.403 202.922 378.58L202.539 377.656ZM147.939 387.806V386.806C127.994 386.806 110.172 383.211 94.4542 376.046L94.0394 376.956L93.6246 377.866C109.64 385.167 127.751 388.806 147.939 388.806V387.806ZM94.0394 376.956L94.4493 376.043C78.4759 368.867 64.9446 358.919 53.8429 346.198L53.0894 346.856L52.336 347.513C63.6343 360.459 77.403 370.578 93.6296 377.868L94.0394 376.956ZM53.0894 346.856L53.8487 346.205C42.7368 333.241 34.2816 318.188 28.4868 301.036L27.5394 301.356L26.592 301.676C32.4639 319.056 41.042 334.337 52.3302 347.506L53.0894 346.856ZM27.5394 301.356L28.4843 301.028C22.4579 283.644 19.4394 264.74 19.4394 244.306H18.4394H17.4394C17.4394 264.938 20.4877 284.067 26.5946 301.683L27.5394 301.356ZM18.4394 244.306H19.4394C19.4394 225.737 22.2248 209.416 27.77 195.322L26.8394 194.956L25.9089 194.59C20.2541 208.962 17.4394 225.54 17.4394 244.306H18.4394ZM26.8394 194.956L27.772 195.317C33.334 180.948 40.7432 168.45 49.994 157.812L49.2394 157.156L48.4848 156.499C39.0689 167.328 31.5449 180.03 25.9069 194.595L26.8394 194.956ZM49.2394 157.156L50.009 157.794C59.0548 146.893 69.2584 137.385 80.6207 129.269L80.0394 128.456L79.4582 127.642C67.9538 135.859 57.624 145.485 48.4699 156.517L49.2394 157.156ZM80.0394 128.456L79.1271 128.865L111.327 200.615L112.239 200.206L113.152 199.796L80.9518 128.046L80.0394 128.456ZM112.239 200.206L111.761 199.328C103.953 203.586 97.0924 209.147 91.182 216.003L91.9394 216.656L92.6968 217.309C98.4531 210.631 105.126 205.225 112.718 201.084L112.239 200.206ZM91.9394 216.656L91.182 216.003C85.1495 223 82.1894 232.474 82.1894 244.306H83.1894H84.1894C84.1894 232.804 87.0627 223.844 92.6968 217.309L91.9394 216.656ZM83.1894 244.306H82.1894C82.1894 255.887 84.6725 266.545 89.6494 276.262L90.5394 275.806L91.4295 275.35C86.6063 265.933 84.1894 255.591 84.1894 244.306H83.1894ZM90.5394 275.806L89.6407 276.244C94.3956 285.992 101.648 293.832 111.369 299.759L111.889 298.906L112.41 298.052C102.998 292.313 96.0166 284.753 91.4382 275.367L90.5394 275.806ZM111.889 298.906L111.384 299.769C121.144 305.482 133.348 308.306 147.939 308.306V307.306V306.306C133.598 306.306 121.768 303.53 112.395 298.043L111.889 298.906ZM147.939 307.306V308.306C162.292 308.306 174.702 305.718 185.137 300.5L184.689 299.606L184.242 298.711C174.144 303.76 162.054 306.306 147.939 306.306V307.306ZM184.689 299.606L185.153 300.492C195.575 295.044 203.538 287.565 209.006 278.054L208.139 277.556L207.273 277.057C202.008 286.213 194.338 293.434 184.226 298.719L184.689 299.606ZM208.139 277.556L209.012 278.045C214.474 268.308 217.189 257.051 217.189 244.306H216.189H215.189C215.189 256.76 212.538 267.67 207.267 277.066L208.139 277.556ZM216.189 244.306H217.189C217.189 237.241 216.483 230.857 215.06 225.163L214.089 225.406L213.119 225.648C214.496 231.154 215.189 237.371 215.189 244.306H216.189ZM214.089 225.406L215.06 225.163C213.639 219.479 211.617 214.589 208.979 210.512L208.139 211.056L207.3 211.599C209.795 215.455 211.74 220.132 213.119 225.648L214.089 225.406ZM208.139 211.056L208.993 210.534C206.368 206.24 203.144 202.536 199.32 199.43L198.689 200.206L198.059 200.982C201.702 203.942 204.777 207.472 207.286 211.577L208.139 211.056ZM198.689 200.206L199.32 199.43C195.523 196.345 191.372 193.736 186.868 191.602L186.439 192.506L186.011 193.409C190.374 195.476 194.389 198 198.059 200.982L198.689 200.206ZM186.439 192.506H185.439V247.806H186.439H187.439V192.506H186.439Z" fill="white" fill-opacity="0.2" mask="url(#path-33-outside-17_142_6153)"/>
<mask id="path-35-outside-18_142_6153" maskUnits="userSpaceOnUse" x="8.99999" y="-0.338852" width="275" height="236" fill="black">
<rect fill="white" x="8.99999" y="-0.338852" width="275" height="236"/>
<path d="M24 74.9111L24 1.41114H281.25L158.05 160.661H269V234.161L11.75 234.161L134.95 74.9111H24Z"/>
</mask>
<path d="M24 74.9111H23V75.9111H24V74.9111ZM24 1.41114V0.411143H23V1.41114H24ZM281.25 1.41114L282.041 2.02304L283.288 0.411143H281.25V1.41114ZM158.05 160.661L157.259 160.049L156.012 161.661H158.05V160.661ZM269 160.661H270V159.661H269V160.661ZM269 234.161V235.161H270V234.161H269ZM11.75 234.161L10.959 233.549L9.71204 235.161H11.75V234.161ZM134.95 74.9111L135.741 75.523L136.988 73.9111H134.95V74.9111ZM24 74.9111H25L25 1.41114H24H23L23 74.9111H24ZM24 1.41114V2.41114H281.25V1.41114V0.411143H24V1.41114ZM281.25 1.41114L280.459 0.799251L157.259 160.049L158.05 160.661L158.841 161.273L282.041 2.02304L281.25 1.41114ZM158.05 160.661V161.661H269V160.661V159.661H158.05V160.661ZM269 160.661H268V234.161H269H270V160.661H269ZM269 234.161V233.161L11.75 233.161V234.161V235.161L269 235.161V234.161ZM11.75 234.161L12.5409 234.773L135.741 75.523L134.95 74.9111L134.159 74.2992L10.959 233.549L11.75 234.161ZM134.95 74.9111V73.9111H24V74.9111V75.9111H134.95V74.9111Z" fill="white" fill-opacity="0.2" mask="url(#path-35-outside-18_142_6153)"/>
</svg>
