<svg width="36" height="46" viewBox="0 0 36 46" fill="none" xmlns="http://www.w3.org/2000/svg">
<g clip-path="url(#clip0_12_25)">
<path d="M16.1415 0H23.6337V34.4531C19.7961 35.1814 16.9709 35.4679 13.9141 35.4679C4.76339 35.4583 0 31.3567 0 23.4792C0 15.8892 5.05266 10.9633 12.8824 10.9633C14.0974 10.9633 15.023 11.0592 16.1415 11.3467V0ZM16.404 17.5555C15.5265 17.2679 14.8035 17.1721 13.8777 17.1721C10.0883 17.1721 7.89947 19.4912 7.89947 23.5555C7.89947 27.5125 9.99197 29.6975 13.8296 29.6975C14.6587 29.6975 15.3337 29.6506 16.404 29.5069V17.5555Z" fill="#2BA977"/>
<path d="M35.8857 11.8883V29.1385C35.8857 35.0791 35.4421 37.9359 34.1404 40.3989C32.9254 42.7668 31.3248 44.26 28.0174 45.9092L21.0652 42.6222C24.3725 41.0801 25.9731 39.7174 26.9953 37.6379C28.0655 35.5114 28.403 33.0484 28.403 26.57V11.8884L35.8857 11.8883ZM27.648 0H35.1402V7.63794H27.648V0Z" fill="#2BA977"/>
</g>
<defs>
<clipPath id="clip0_12_25">
<rect width="36" height="46" fill="white"/>
</clipPath>
</defs>
</svg>
