<svg width="319" height="349" viewBox="0 0 319 349" fill="none" xmlns="http://www.w3.org/2000/svg">
<circle cx="159.5" cy="189.5" r="159" stroke="#FF3100" stroke-dasharray="10 10"/>
<circle cx="158.301" cy="32.6026" r="14.5" transform="rotate(58.0646 158.301 32.6026)" fill="#FF0000" stroke="#FF0000"/>
<path d="M178.553 4.61157C178.708 4.72388 178.861 4.97405 178.897 5.50525C178.932 6.02968 178.846 6.7406 178.624 7.6344C178.181 9.41752 177.228 11.8094 175.831 14.651C173.039 20.3268 168.518 27.7118 162.928 35.4551C157.339 43.1983 151.752 49.8144 147.244 54.2506C144.987 56.4713 143.017 58.1285 141.464 59.1103C140.685 59.6025 140.037 59.9083 139.528 60.0398C139.013 60.173 138.727 60.1073 138.572 59.995C138.416 59.8826 138.265 59.6327 138.229 59.1019C138.194 58.5774 138.28 57.866 138.502 56.9719C138.945 55.1889 139.898 52.7975 141.295 49.9562C144.086 44.2803 148.607 36.8947 154.196 29.1515C159.786 21.4082 165.373 14.7927 169.882 10.3565C172.139 8.13561 174.109 6.47778 175.662 5.49606C176.441 5.00396 177.088 4.69873 177.597 4.56726C178.112 4.43418 178.397 4.49934 178.553 4.61157Z" fill="#FF0000" fill-opacity="0.01" stroke="#FF0000"/>
</svg>
