<svg width="319" height="360" viewBox="0 0 319 360" fill="none" xmlns="http://www.w3.org/2000/svg">
<circle cx="159.5" cy="159.5" r="159" stroke="#FF3100" stroke-dasharray="10 10"/>
<path d="M159.693 322.279C155.02 328.809 150.184 334.268 146.15 337.815C144.13 339.592 142.332 340.869 140.873 341.569C140.143 341.92 139.522 342.114 139.015 342.165C138.513 342.216 138.155 342.125 137.901 341.943C137.647 341.761 137.445 341.452 137.331 340.96C137.216 340.463 137.199 339.813 137.295 339.009C137.487 337.402 138.118 335.288 139.147 332.804C141.204 327.841 144.811 321.502 149.483 314.973C154.156 308.443 158.992 302.985 163.026 299.438C165.046 297.661 166.843 296.382 168.303 295.682C169.032 295.332 169.654 295.138 170.16 295.086C170.663 295.036 171.021 295.127 171.275 295.309C171.529 295.491 171.731 295.8 171.845 296.292C171.96 296.788 171.976 297.439 171.88 298.242C171.688 299.849 171.059 301.964 170.029 304.449C167.972 309.411 164.366 315.75 159.693 322.279Z" stroke="#FF0000"/>
<path d="M159.64 313.299C165.813 318.434 170.907 323.654 174.152 327.934C175.777 330.078 176.921 331.964 177.513 333.47C177.81 334.223 177.958 334.857 177.973 335.366C177.987 335.871 177.87 336.221 177.67 336.461C177.47 336.701 177.147 336.88 176.648 336.958C176.145 337.037 175.494 337.006 174.7 336.852C173.111 336.544 171.049 335.762 168.645 334.555C163.845 332.143 157.785 328.086 151.612 322.952C145.439 317.817 140.346 312.598 137.101 308.317C135.476 306.174 134.33 304.288 133.738 302.782C133.442 302.029 133.293 301.395 133.279 300.886C133.265 300.381 133.382 300.03 133.582 299.79C133.782 299.55 134.105 299.371 134.603 299.293C135.107 299.215 135.757 299.245 136.551 299.399C138.14 299.707 140.204 300.489 142.607 301.697C147.407 304.108 153.467 308.165 159.64 313.299Z" fill="#FF0000" fill-opacity="0.01" stroke="#FF0000"/>
<circle cx="155.289" cy="318.345" r="4.71483" transform="rotate(35.2303 155.289 318.345)" fill="#FF3100"/>
</svg>
