<svg width="484" height="452" viewBox="0 0 484 452" fill="none" xmlns="http://www.w3.org/2000/svg">
<circle cx="258" cy="226" r="225.5" stroke="#FF3100" stroke-dasharray="10 10"/>
<path d="M60.3029 135.639C60.2173 149.282 58.8547 161.609 56.7287 170.506C55.6648 174.959 54.416 178.525 53.0566 180.964C52.3768 182.184 51.682 183.098 50.9886 183.701C50.2984 184.301 49.6341 184.574 48.9958 184.57C48.3575 184.565 47.6967 184.285 47.0141 183.676C46.3283 183.064 45.6451 182.141 44.9806 180.913C43.6518 178.458 42.4479 174.876 41.4399 170.411C39.4257 161.487 38.2178 149.144 38.3033 135.501C38.3889 121.859 39.7515 109.532 41.8775 100.635C42.9414 96.1818 44.1902 92.6155 45.5496 90.1769C46.2294 88.9574 46.9242 88.0429 47.6176 87.4398C48.3078 86.8395 48.9721 86.5674 49.6104 86.5714C50.2487 86.5754 50.9095 86.8558 51.5921 87.4647C52.2779 88.0765 52.9611 88.9996 53.6256 90.2275C54.9543 92.683 56.1582 96.2647 57.1663 100.73C59.1805 109.654 60.3884 121.997 60.3029 135.639Z" stroke="#FF0000"/>
<path d="M51.1198 122.896C64.72 123.972 76.9155 126.226 85.6354 128.992C89.9991 130.376 93.4653 131.881 95.7989 133.413C96.9658 134.18 97.8275 134.939 98.3786 135.675C98.9272 136.407 99.1504 137.089 99.1 137.725C99.0497 138.362 98.7221 139 98.0652 139.637C97.4054 140.276 96.435 140.891 95.1621 141.465C92.6166 142.612 88.957 143.552 84.4299 144.233C75.3837 145.595 62.9854 145.903 49.3853 144.828C35.7852 143.752 23.5897 141.498 14.8698 138.732C10.5061 137.348 7.03983 135.843 4.7063 134.311C3.53937 133.544 2.67771 132.785 2.12655 132.049C1.57793 131.317 1.35479 130.635 1.40511 129.999C1.45544 129.362 1.78306 128.724 2.43991 128.087C3.09981 127.448 4.07012 126.833 5.34304 126.259C7.88852 125.112 11.5482 124.172 16.0752 123.491C25.1215 122.129 37.5197 121.821 51.1198 122.896Z" fill="#FF0000" fill-opacity="0.01" stroke="#FF0000"/>
<circle cx="50.0002" cy="134.495" r="8" fill="#FF3100"/>
</svg>
