<svg width="319" height="385" viewBox="0 0 319 385" fill="none" xmlns="http://www.w3.org/2000/svg">
<circle cx="159.5" cy="159.5" r="159" stroke="#FF3100" stroke-dasharray="10 10"/>
<path d="M211.422 320.425C203.483 331.519 195.259 340.802 188.389 346.844C184.952 349.867 181.874 352.06 179.357 353.267C178.098 353.871 177.003 354.218 176.089 354.31C175.179 354.402 174.479 354.242 173.96 353.87C173.441 353.499 173.063 352.888 172.857 351.997C172.65 351.102 172.624 349.954 172.79 348.567C173.121 345.795 174.203 342.175 175.956 337.946C179.459 329.495 185.592 318.715 193.532 307.621C201.471 296.527 209.695 287.244 216.565 281.202C220.002 278.179 223.08 275.986 225.597 274.778C226.856 274.174 227.951 273.828 228.865 273.736C229.775 273.643 230.475 273.804 230.994 274.176C231.513 274.547 231.891 275.158 232.097 276.049C232.305 276.944 232.33 278.092 232.165 279.479C231.833 282.251 230.751 285.871 228.998 290.1C225.496 298.551 219.362 309.33 211.422 320.425Z" stroke="#FF0000"/>
<path d="M211.272 304.718C221.761 313.442 230.423 322.318 235.95 329.608C238.716 333.256 240.679 336.484 241.701 339.082C242.212 340.382 242.478 341.499 242.504 342.418C242.53 343.332 242.319 344.018 241.91 344.509C241.502 345 240.866 345.332 239.962 345.473C239.054 345.615 237.907 345.557 236.537 345.292C233.796 344.76 230.264 343.417 226.173 341.362C217.998 337.256 207.693 330.356 197.204 321.632C186.716 312.908 178.054 304.032 172.527 296.742C169.761 293.094 167.797 289.865 166.776 287.267C166.265 285.968 165.999 284.851 165.973 283.932C165.947 283.018 166.158 282.332 166.566 281.841C166.975 281.35 167.611 281.017 168.514 280.876C169.422 280.734 170.569 280.792 171.94 281.058C174.681 281.59 178.213 282.932 182.304 284.987C190.478 289.094 200.784 295.994 211.272 304.718Z" fill="#FF0000" fill-opacity="0.01" stroke="#FF0000"/>
<circle cx="203.667" cy="313.546" r="8" transform="rotate(35.2303 203.667 313.546)" fill="#FF3100"/>
</svg>
