<svg width="458" height="452" viewBox="0 0 458 452" fill="none" xmlns="http://www.w3.org/2000/svg">
<circle cx="232" cy="226" r="225.5" stroke="#FF3100" stroke-dasharray="10 10"/>
<path d="M51.6039 83.4011C65.204 84.4767 77.3995 86.7306 86.1194 89.4968C90.4831 90.8812 93.9493 92.3855 96.2829 93.9184C97.4498 94.6849 98.3115 95.4442 98.8626 96.1796C99.4112 96.9116 99.6344 97.5938 99.5841 98.2301C99.5337 98.8665 99.2061 99.5052 98.5493 100.142C97.8894 100.781 96.919 101.396 95.6461 101.969C93.1007 103.116 89.441 104.057 84.9139 104.738C75.8677 106.1 63.4694 106.408 49.8693 105.333C36.2692 104.257 24.0737 102.003 15.3538 99.2369C10.9901 97.8526 7.52384 96.3483 5.19031 94.8154C4.02338 94.0488 3.16172 93.2895 2.61056 92.5542C2.06194 91.8222 1.8388 91.14 1.88912 90.5036C1.93945 89.8673 2.26706 89.2286 2.92392 88.592C3.58382 87.9524 4.55413 87.338 5.82705 86.7644C8.37253 85.6174 12.0322 84.6766 16.5592 83.9955C25.6055 82.6343 38.0037 82.3255 51.6039 83.4011Z" fill="#FF0000" fill-opacity="0.01" stroke="#FF0000"/>
<path d="M61.4821 96.8738C62.2597 110.494 61.6797 122.883 60.1208 131.897C59.3406 136.408 58.32 140.046 57.1176 142.566C56.5163 143.826 55.8807 144.783 55.2269 145.428C54.576 146.071 53.9303 146.385 53.293 146.421C52.6557 146.458 51.9785 146.22 51.2587 145.655C50.5356 145.088 49.7954 144.21 49.0545 143.026C47.5731 140.66 46.1451 137.161 44.8566 132.769C42.2818 123.99 40.2955 111.748 39.5179 98.1278C38.7402 84.5074 39.3203 72.1189 40.8792 63.1046C41.6593 58.5935 42.6799 54.9554 43.8824 52.4356C44.4837 51.1756 45.1192 50.2189 45.7731 49.5732C46.4239 48.9304 47.0696 48.6169 47.7069 48.5805C48.3442 48.5441 49.0214 48.7821 49.7412 49.3466C50.4643 49.9138 51.2046 50.7918 51.9454 51.9753C53.4268 54.3418 54.8549 57.8401 56.1434 62.2331C58.7181 71.0114 60.7044 83.2534 61.4821 96.8738Z" fill="#FF0000" fill-opacity="0.01" stroke="#FF0000"/>
</svg>
