<svg width="310" height="200" viewBox="0 0 310 200" fill="none" xmlns="http://www.w3.org/2000/svg">
<rect x="0.5" y="0.5" width="309" height="199" rx="39.5" stroke="#F7F7F7" stroke-opacity="0.16"/>
<rect x="32" y="26" width="70" height="60" rx="20" fill="#222B39"/>
<rect x="32" y="116" width="70" height="60" rx="20" fill="#222B39"/>
<rect x="123" y="116" width="70" height="60" rx="20" fill="#222B39"/>
<rect x="213" y="117" width="70" height="60" rx="20" fill="#222B39"/>
<rect x="121" y="27" width="70" height="60" rx="20" fill="#222B39"/>
<rect x="213" y="27" width="70" height="60" rx="20" fill="#222B39"/>
<g clip-path="url(#clip0_398_354)">
<path d="M88.4457 58.1063C86.8025 58.1155 85.3797 58.5074 84.1863 59.0908C83.7457 58.2249 83.3051 57.4683 83.2317 56.9033C83.1491 56.247 83.0481 55.8459 83.1491 55.0621C83.25 54.2782 83.709 53.1662 83.709 53.0751C83.6997 52.993 83.6079 52.592 82.6625 52.5829C81.7171 52.5738 80.9 52.7652 80.8082 53.0113C80.7164 53.2574 80.5328 53.8225 80.4135 54.4058C80.2482 55.2626 78.5225 58.2977 77.5402 59.8928C77.2189 59.273 76.9436 58.7261 76.8884 58.2885C76.8059 57.6324 76.7048 57.2312 76.8059 56.4475C76.9068 55.6635 77.3658 54.5516 77.3658 54.4605C77.3566 54.3785 77.2648 53.9774 76.3194 53.9683C75.3738 53.9592 74.5569 54.1506 74.4651 54.3967C74.3733 54.6428 74.2724 55.2261 74.0704 55.7912C73.8775 56.3563 71.5826 61.424 70.9859 62.7456C70.683 63.4201 70.4169 63.9579 70.224 64.3225C70.0312 64.6871 70.2148 64.3498 70.1965 64.3863C70.0312 64.6962 69.9395 64.8693 69.9395 64.8693V64.8786C69.8109 65.1064 69.6732 65.3251 69.6089 65.3251C69.563 65.3251 69.4712 64.7144 69.6272 63.8759C69.9669 62.1167 70.7931 59.3733 70.784 59.2731C70.784 59.2275 70.9399 58.7443 70.2515 58.4983C69.5814 58.2522 69.3428 58.6624 69.2876 58.6624C69.2325 58.6624 69.1866 58.8082 69.1866 58.8082C69.1866 58.8082 69.9302 55.7185 67.7638 55.7185C66.4052 55.7185 64.5325 57.1859 63.6054 58.5258C63.0179 58.8448 61.7694 59.5192 60.4476 60.2393C59.9427 60.5128 59.4194 60.8044 58.9237 61.0687L58.8228 60.9592C56.1975 58.1792 51.3414 56.2105 51.5434 52.4735C51.6168 51.1154 52.0941 47.5334 60.87 43.1949C68.0577 39.6402 73.8134 40.6154 74.8139 42.7847C76.2367 45.8837 71.7387 51.6441 64.2665 52.4735C61.4208 52.7925 59.9244 51.6988 59.5481 51.2886C59.1534 50.8602 59.0983 50.842 58.9515 50.924C58.7128 51.0516 58.8597 51.4344 58.9515 51.6623C59.1718 52.2365 60.0897 53.2574 61.6503 53.7678C63.018 54.2144 66.3595 54.4605 70.3985 52.911C74.9241 51.1701 78.4583 46.3394 77.421 42.3016C76.3653 38.191 69.4989 36.842 63.0089 39.1298C59.1441 40.4969 54.9582 42.6298 51.9473 45.4279C48.3672 48.7456 47.798 51.6441 48.0367 52.8472C48.8722 57.1402 54.8297 59.9384 57.2164 62.0074C57.0971 62.0711 56.9869 62.1349 56.8859 62.1897C55.6926 62.7729 51.1486 65.1337 50.0103 67.631C48.7252 70.4565 50.2123 72.4891 51.2037 72.7626C54.2697 73.6102 57.4092 72.0881 59.1074 69.5816C60.7964 67.0751 60.5945 63.8212 59.8143 62.3355L59.7866 62.2808L60.723 61.7339C61.3289 61.3785 61.9256 61.0503 62.4487 60.7677C62.1551 61.5607 61.9439 62.4995 61.8338 63.8667C61.7053 65.4709 62.3662 67.5489 63.2383 68.3693C63.6238 68.7246 64.0828 68.7338 64.3674 68.7338C65.3771 68.7338 65.8361 67.9043 66.341 66.9109C66.9652 65.6987 67.516 64.295 67.516 64.295C67.516 64.295 66.8275 68.0958 68.7094 68.0958C69.3978 68.0958 70.0863 67.2117 70.3984 66.756V66.7651C70.3984 66.7651 70.4168 66.7377 70.4535 66.6739C70.492 66.6174 70.5288 66.5597 70.5637 66.5009V66.4826C70.8391 66.0087 71.4541 64.924 72.3721 63.1285C73.5562 60.8134 74.6945 57.9149 74.6945 57.9149C74.6945 57.9149 74.8047 58.6259 75.1443 59.7925C75.3462 60.4853 75.7868 61.2417 76.1265 61.98C75.8511 62.3628 75.6858 62.5817 75.6858 62.5817L75.695 62.5908C75.4748 62.8825 75.2269 63.1924 74.9699 63.5023C74.0336 64.6142 72.9137 65.8812 72.7668 66.2458C72.5924 66.6741 72.6291 66.9931 72.9687 67.2484C73.2166 67.4307 73.6572 67.4671 74.1254 67.4307C74.9699 67.3759 75.5574 67.1664 75.8512 67.0387C76.3102 66.8746 76.8334 66.6286 77.3383 66.264C78.2562 65.5896 78.8162 64.6325 78.7611 63.3565C78.7336 62.6547 78.5041 61.962 78.2195 61.3057C78.3021 61.1872 78.3849 61.0687 78.4674 60.9411C79.9178 58.8356 81.0377 56.5206 81.0377 56.5206C81.0377 56.5206 81.1478 57.2315 81.4875 58.3982C81.6618 58.9906 82.0107 59.6378 82.3228 60.2759C80.9643 61.3787 80.1105 62.6548 79.8168 63.4933C79.2752 65.0428 79.6975 65.7446 80.4961 65.9087C80.854 65.9816 81.3682 65.8175 81.7536 65.6535C82.231 65.4985 82.8093 65.2341 83.3418 64.8423C84.2598 64.1678 85.141 63.229 85.0951 61.9621C85.0676 61.3787 84.9115 60.8045 84.7004 60.2576C85.857 59.7837 87.3532 59.5102 89.2535 59.7381C93.3385 60.2121 94.1463 62.7459 93.9903 63.8032C93.8343 64.8606 92.9806 65.4438 92.6959 65.6261C92.4113 65.7993 92.3195 65.8632 92.3471 65.9907C92.3838 66.1822 92.5123 66.173 92.7602 66.1366C93.0998 66.0819 94.9082 65.2708 94.9816 63.3203C95.0918 60.8134 92.6959 58.0791 88.4457 58.1063ZM56.941 68.6519C55.5916 70.1193 53.6914 70.6753 52.8836 70.2014C52.0115 69.7001 52.3511 67.5399 54.0127 65.9813C55.0225 65.0334 56.3352 64.1584 57.198 63.6206C57.3908 63.5022 57.6846 63.3291 58.0334 63.1193C58.0885 63.083 58.1252 63.0647 58.1252 63.0647C58.1895 63.0282 58.2629 62.9826 58.3363 62.9371C58.9514 65.161 58.3639 67.1115 56.941 68.6519ZM66.8092 61.9891C66.341 63.1285 65.3496 66.0542 64.7529 65.8902C64.2388 65.7535 63.9268 63.5386 64.6519 61.3511C65.019 60.2482 65.7993 58.9358 66.2583 58.4252C67.002 57.6049 67.8097 57.3315 68.0117 57.6687C68.2504 58.1063 67.1029 61.2782 66.8092 61.9891ZM74.9516 65.8537C74.7496 65.9541 74.566 66.0269 74.4834 65.9723C74.4191 65.9358 74.5659 65.7991 74.5659 65.7991C74.5659 65.7991 75.5849 64.7145 75.9888 64.2132C76.2183 63.9216 76.4937 63.5844 76.7874 63.2015V63.3108C76.7875 64.6233 75.5207 65.4983 74.9516 65.8537ZM81.2304 64.4318C81.0835 64.3225 81.1019 63.9852 81.5976 62.9279C81.7904 62.5087 82.231 61.8068 82.9929 61.1415C83.0847 61.4149 83.1398 61.6792 83.1306 61.9253C83.1215 63.566 81.9465 64.1766 81.2304 64.4318Z" fill="#CF649A"/>
</g>
<g clip-path="url(#clip1_398_354)">
<path d="M54.512 161.229L52 129.061L82 129.125L79.3438 161.229L67.1132 164.94L54.512 161.229Z" fill="#1B73BA"/>
<path d="M67.1132 161.834V132.125L79.4674 132.168L77.2643 158.749L67.1132 161.834Z" fill="#1C88C7"/>
<path d="M76.3994 135.922H57.3947L57.9095 139.805H66.9279L58.0537 143.797L58.5683 147.551H71.6432L71.1695 152.793L66.7426 153.699L62.7276 152.621L62.4187 149.643H58.733L59.2271 155.836L67.1338 158.144L74.7112 155.62L75.6789 143.516H67.6689L76.3992 139.719L76.3994 135.922Z" fill="white"/>
</g>
<g clip-path="url(#clip2_398_354)">
<path d="M144.512 163.229L142 131.061L172 131.125L169.344 163.229L157.113 166.94L144.512 163.229Z" fill="#E34F26"/>
<path d="M157.113 163.832V134.123L169.467 134.166L167.264 160.747L157.113 163.832Z" fill="#EF652A"/>
<path d="M166.07 141.546L166.42 137.619H147.415L148.465 149.658H161.581L161.067 154.793L156.866 155.98L152.604 154.685L152.378 151.621H148.609L149.124 157.878L156.866 160.144L164.67 157.878L165.72 145.667H151.945L151.554 141.546H166.07Z" fill="white"/>
</g>
<g clip-path="url(#clip3_398_354)">
<path d="M160.38 58.301L163.546 64.1989L160.163 70.4004H162.548L164.89 66.2372L167.232 70.4004H169.617L166.235 64.1989L169.357 58.301H166.972L164.89 62.1607L162.809 58.301H160.38ZM153.788 58.5612C156.356 57.6189 158.327 58.8214 158.905 60.2092L157.041 61.4234C156.765 60.9259 156.177 60.4171 155.499 60.3808C154.884 60.3478 154.312 60.6693 154.294 61.5013C154.33 62.7136 155.924 62.7134 157.836 63.9243C159.236 64.8113 159.498 65.4893 159.628 66.7148C159.724 67.6231 159.553 69.1925 157.766 69.9856C155.821 70.8484 152.371 70.5339 151.186 67.9285L153.138 66.801C154.113 68.6549 156.644 68.6504 157.141 67.4295C157.626 66.2372 156.163 65.771 154.346 64.9655C153.556 64.5582 152.334 63.9164 151.967 62.3486C151.69 61.1654 151.937 59.3776 153.788 58.5612ZM144.464 67.0178L142.469 68.2321C143.301 69.8005 144.638 70.5119 146.286 70.4655C148.4 70.4059 149.551 69.2047 149.798 67.3647V58.3877H147.37V67.1479C147.37 67.1479 147.253 67.7943 146.882 68.0369C146.475 68.3025 145.852 68.2647 145.554 68.1616C144.99 67.9664 144.464 67.0178 144.464 67.0178ZM173 70.1836V43.8164C172.955 42.007 171.792 40.0373 169.183 40.0001H142.816C140.8 39.9849 139.027 41.5628 139 43.8164V70.1836C139.027 72.4372 140.8 74.0151 142.816 73.9999H169.183C171.792 73.9627 172.955 71.993 173 70.1836ZM171.005 70.1836C170.988 70.9121 170.627 71.8563 169.183 71.9616H142.816C141.868 71.9542 141.06 71.3116 141.038 70.1836V43.8164C141.06 42.6884 141.868 42.0458 142.816 42.0384H169.183C170.627 42.1437 170.988 43.0879 171.005 43.8164V70.1836Z" fill="black"/>
</g>
<path d="M247.167 63.8333C245.058 63.8333 243.253 63.0826 241.752 61.5812C240.251 60.0799 239.5 58.275 239.5 56.1667C239.5 54.0583 240.251 52.2535 241.752 50.7521C243.253 49.2507 245.058 48.5 247.167 48.5C249.275 48.5 251.08 49.2507 252.581 50.7521C254.083 52.2535 254.833 54.0583 254.833 56.1667C254.833 58.275 254.083 60.0799 252.581 61.5812C251.08 63.0826 249.275 63.8333 247.167 63.8333ZM247.167 60C248.221 60 249.123 59.6247 249.874 58.874C250.625 58.1233 251 57.2208 251 56.1667C251 55.1125 250.625 54.2101 249.874 53.4594C249.123 52.7087 248.221 52.3333 247.167 52.3333C246.112 52.3333 245.21 52.7087 244.459 53.4594C243.709 54.2101 243.333 55.1125 243.333 56.1667C243.333 57.2208 243.709 58.1233 244.459 58.874C245.21 59.6247 246.112 60 247.167 60ZM255.84 75.3333C256.415 73.5444 256.846 71.9472 257.133 70.5417C257.421 69.1361 257.644 68.0181 257.804 67.1875C256.431 68.5292 254.833 69.5833 253.012 70.35C251.192 71.1167 249.243 71.5 247.167 71.5C242.822 71.5 239.013 71.2045 235.739 70.6135C232.464 70.0226 229.885 69.4556 228 68.9125V64.8396C229.789 65.4146 231.386 65.8458 232.792 66.1333C234.197 66.4208 235.315 66.6444 236.146 66.8042C234.804 65.4306 233.75 63.8333 232.983 62.0125C232.217 60.1917 231.833 58.2431 231.833 56.1667C231.833 51.7903 232.129 47.9729 232.72 44.7146C233.311 41.4562 233.878 38.8847 234.421 37H238.494C237.919 38.7889 237.48 40.3861 237.176 41.7917C236.873 43.1972 236.657 44.3153 236.529 45.1458C237.903 43.8042 239.5 42.75 241.321 41.9833C243.142 41.2167 245.09 40.8333 247.167 40.8333C251.543 40.8333 255.36 41.1288 258.619 41.7198C261.877 42.3108 264.449 42.8778 266.333 43.4208V47.4937C264.544 46.9187 262.947 46.4795 261.542 46.176C260.136 45.8726 259.018 45.6569 258.188 45.5292C259.529 46.9028 260.583 48.5 261.35 50.3208C262.117 52.1417 262.5 54.0903 262.5 56.1667C262.5 60.5431 262.205 64.3604 261.614 67.6187C261.023 70.8771 260.456 73.4486 259.912 75.3333H255.84ZM247.167 67.6667C250.361 67.6667 253.076 66.5486 255.312 64.3125C257.549 62.0764 258.667 59.3611 258.667 56.1667C258.667 52.9722 257.549 50.2569 255.312 48.0208C253.076 45.7847 250.361 44.6667 247.167 44.6667C243.972 44.6667 241.257 45.7847 239.021 48.0208C236.785 50.2569 235.667 52.9722 235.667 56.1667C235.667 59.3611 236.785 62.0764 239.021 64.3125C241.257 66.5486 243.972 67.6667 247.167 67.6667Z" fill="#FF3100"/>
<g clip-path="url(#clip4_398_354)">
<path fill-rule="evenodd" clip-rule="evenodd" d="M235.724 130.004C233.327 130.004 231.554 132.072 231.633 134.315C231.709 136.47 231.61 139.261 230.898 141.537C230.183 143.82 228.974 145.266 227 145.452V147.548C228.974 147.734 230.183 149.18 230.898 151.462C231.61 153.739 231.709 156.53 231.633 158.685C231.554 160.927 233.327 162.996 235.724 162.996H260.28C262.676 162.996 264.449 160.928 264.37 158.685C264.293 156.53 264.392 153.739 265.105 151.462C265.82 149.18 267.026 147.733 269 147.548V145.452C267.026 145.266 265.82 143.82 265.105 141.537C264.392 139.262 264.293 136.47 264.37 134.315C264.449 132.073 262.676 130.004 260.28 130.004H235.723H235.724ZM255.475 150.313C255.475 153.401 253.138 155.275 249.261 155.275H242.661C242.472 155.275 242.291 155.201 242.158 155.069C242.024 154.937 241.949 154.759 241.949 154.573V138.427C241.949 138.241 242.024 138.063 242.158 137.931C242.291 137.799 242.472 137.726 242.661 137.726H249.223C252.456 137.726 254.578 139.452 254.578 142.104C254.578 143.964 253.151 145.63 251.332 145.922V146.019C253.808 146.287 255.475 147.978 255.475 150.313ZM248.541 139.951H244.778V145.192H247.948C250.398 145.192 251.749 144.219 251.749 142.48C251.749 140.851 250.587 139.951 248.541 139.951ZM244.778 147.272V153.049H248.68C251.231 153.049 252.582 152.039 252.582 150.142C252.582 148.245 251.193 147.272 248.516 147.272H244.778V147.272Z" fill="#7952B3"/>
</g>
<defs>
<clipPath id="clip0_398_354">
<rect width="47" height="35" fill="white" transform="translate(48 38)"/>
</clipPath>
<clipPath id="clip1_398_354">
<rect width="30" height="36" fill="white" transform="translate(52 129)"/>
</clipPath>
<clipPath id="clip2_398_354">
<rect width="30" height="36" fill="white" transform="translate(142 131)"/>
</clipPath>
<clipPath id="clip3_398_354">
<rect width="34" height="34" fill="white" transform="translate(139 40)"/>
</clipPath>
<clipPath id="clip4_398_354">
<rect width="42" height="33" fill="white" transform="translate(227 130)"/>
</clipPath>
</defs>
</svg>
