<svg width="1473" height="432" viewBox="0 0 1473 432" fill="none" xmlns="http://www.w3.org/2000/svg">
<mask id="path-1-outside-1_142_6237" maskUnits="userSpaceOnUse" x="50" y="81" width="1417" height="197" fill="black">
<rect fill="white" x="50" y="81" width="1417" height="197"/>
<path d="M89.5 138.25V92H167.75V138.25H89.5ZM89.5 205.75V163.25H165.25V205.75H89.5ZM51.5 92H104V267H51.5V92ZM248.99 192H305.24L355.24 267H291.49L248.99 192ZM197.74 92H252.74V267H197.74V92ZM233.24 138.25V92H271.49C288.657 92 302.574 94.5833 313.24 99.75C324.074 104.917 331.99 112 336.99 121C342.157 130 344.74 140.333 344.74 152C344.74 163.5 342.157 173.833 336.99 183C331.99 192 324.074 199.083 313.24 204.25C302.574 209.417 288.657 212 271.49 212H233.24V170.75H266.49C271.157 170.75 274.99 170.167 277.99 169C280.99 167.667 283.24 165.75 284.74 163.25C286.407 160.75 287.24 157.833 287.24 154.5C287.24 151 286.407 148.083 284.74 145.75C283.24 143.25 280.99 141.417 277.99 140.25C274.99 138.917 271.157 138.25 266.49 138.25H233.24ZM421.039 179.5C421.039 188 422.622 195.5 425.789 202C428.956 208.5 433.456 213.583 439.289 217.25C445.122 220.75 452.122 222.5 460.289 222.5C468.456 222.5 475.456 220.75 481.289 217.25C487.122 213.583 491.622 208.5 494.789 202C497.956 195.5 499.539 188 499.539 179.5C499.539 170.833 498.039 163.333 495.039 157C492.039 150.5 487.622 145.5 481.789 142C476.122 138.333 468.956 136.5 460.289 136.5C452.122 136.5 445.122 138.333 439.289 142C433.456 145.5 428.956 150.5 425.789 157C422.622 163.333 421.039 170.833 421.039 179.5ZM362.789 179.5C362.789 165.5 365.289 152.833 370.289 141.5C375.289 130.167 382.206 120.417 391.039 112.25C399.872 104.083 410.206 97.8333 422.039 93.5C433.872 89.1667 446.622 87 460.289 87C474.289 87 487.206 89.1667 499.039 93.5C510.872 97.8333 521.206 104.083 530.039 112.25C538.872 120.417 545.706 130.167 550.539 141.5C555.372 152.833 557.789 165.5 557.789 179.5C557.789 193.5 555.372 206.333 550.539 218C545.872 229.5 539.206 239.5 530.539 248C521.872 256.5 511.539 263 499.539 267.5C487.706 272.167 474.622 274.5 460.289 274.5C445.956 274.5 432.789 272.167 420.789 267.5C408.956 263 398.706 256.5 390.039 248C381.372 239.5 374.622 229.5 369.789 218C365.122 206.333 362.789 193.5 362.789 179.5ZM696.5 92H749V275.75L635.25 187.75V267H582.75V83.25L696.5 171.25V92ZM766.422 140.75V92H921.422V140.75H871.422V267H816.422V140.75H766.422ZM976.951 267V223.25H1065.2V267H976.951ZM976.951 135.75V92H1065.2V135.75H976.951ZM976.951 198.25V155.75H1060.2V198.25H976.951ZM938.951 92H991.451V267H938.951V92ZM1211.39 92H1263.89V275.75L1150.14 187.75V267H1097.64V83.25L1211.39 171.25V92ZM1298.81 92H1356.06V267H1298.81V92ZM1367.56 267H1336.81V219.5H1365.06C1369.9 219.5 1374.81 219.083 1379.81 218.25C1384.81 217.417 1389.4 215.667 1393.56 213C1397.73 210.333 1401.06 206.333 1403.56 201C1406.23 195.667 1407.56 188.5 1407.56 179.5C1407.56 170.5 1406.23 163.333 1403.56 158C1401.06 152.667 1397.73 148.667 1393.56 146C1389.4 143.333 1384.81 141.583 1379.81 140.75C1374.81 139.917 1369.9 139.5 1365.06 139.5H1336.81V92H1367.56C1387.9 92 1405.31 95.5 1419.81 102.5C1434.48 109.5 1445.65 119.5 1453.31 132.5C1461.15 145.5 1465.06 161.167 1465.06 179.5C1465.06 197.667 1461.15 213.333 1453.31 226.5C1445.65 239.5 1434.48 249.5 1419.81 256.5C1405.31 263.5 1387.9 267 1367.56 267Z"/>
</mask>
<path d="M89.5 138.25H88.5V139.25H89.5V138.25ZM89.5 92V91H88.5V92H89.5ZM167.75 92H168.75V91H167.75V92ZM167.75 138.25V139.25H168.75V138.25H167.75ZM89.5 205.75H88.5V206.75H89.5V205.75ZM89.5 163.25V162.25H88.5V163.25H89.5ZM165.25 163.25H166.25V162.25H165.25V163.25ZM165.25 205.75V206.75H166.25V205.75H165.25ZM51.5 92V91H50.5V92H51.5ZM104 92H105V91H104V92ZM104 267V268H105V267H104ZM51.5 267H50.5V268H51.5V267ZM89.5 138.25H90.5V92H89.5H88.5V138.25H89.5ZM89.5 92V93H167.75V92V91H89.5V92ZM167.75 92H166.75V138.25H167.75H168.75V92H167.75ZM167.75 138.25V137.25H89.5V138.25V139.25H167.75V138.25ZM89.5 205.75H90.5V163.25H89.5H88.5V205.75H89.5ZM89.5 163.25V164.25H165.25V163.25V162.25H89.5V163.25ZM165.25 163.25H164.25V205.75H165.25H166.25V163.25H165.25ZM165.25 205.75V204.75H89.5V205.75V206.75H165.25V205.75ZM51.5 92V93H104V92V91H51.5V92ZM104 92H103V267H104H105V92H104ZM104 267V266H51.5V267V268H104V267ZM51.5 267H52.5V92H51.5H50.5V267H51.5ZM248.99 192V191H247.274L248.12 192.493L248.99 192ZM305.24 192L306.072 191.445L305.775 191H305.24V192ZM355.24 267V268H357.109L356.072 266.445L355.24 267ZM291.49 267L290.62 267.493L290.908 268H291.49V267ZM197.74 92V91H196.74V92H197.74ZM252.74 92H253.74V91H252.74V92ZM252.74 267V268H253.74V267H252.74ZM197.74 267H196.74V268H197.74V267ZM233.24 138.25H232.24V139.25H233.24V138.25ZM233.24 92V91H232.24V92H233.24ZM313.24 99.75L312.804 100.65L312.81 100.653L313.24 99.75ZM336.99 121L336.116 121.486L336.123 121.498L336.99 121ZM336.99 183L336.119 182.509L336.116 182.514L336.99 183ZM313.24 204.25L312.81 203.347L312.804 203.35L313.24 204.25ZM233.24 212H232.24V213H233.24V212ZM233.24 170.75V169.75H232.24V170.75H233.24ZM277.99 169L278.353 169.932L278.375 169.923L278.396 169.914L277.99 169ZM284.74 163.25L283.908 162.695L283.895 162.715L283.883 162.736L284.74 163.25ZM284.74 145.75L283.883 146.264L283.903 146.299L283.926 146.331L284.74 145.75ZM277.99 140.25L277.584 141.164L277.606 141.173L277.628 141.182L277.99 140.25ZM248.99 192V193H305.24V192V191H248.99V192ZM305.24 192L304.408 192.555L354.408 267.555L355.24 267L356.072 266.445L306.072 191.445L305.24 192ZM355.24 267V266H291.49V267V268H355.24V267ZM291.49 267L292.36 266.507L249.86 191.507L248.99 192L248.12 192.493L290.62 267.493L291.49 267ZM197.74 92V93H252.74V92V91H197.74V92ZM252.74 92H251.74V267H252.74H253.74V92H252.74ZM252.74 267V266H197.74V267V268H252.74V267ZM197.74 267H198.74V92H197.74H196.74V267H197.74ZM233.24 138.25H234.24V92H233.24H232.24V138.25H233.24ZM233.24 92V93H271.49V92V91H233.24V92ZM271.49 92V93C288.569 93 302.32 95.5719 312.804 100.65L313.24 99.75L313.676 98.85C302.827 93.5948 288.745 91 271.49 91V92ZM313.24 99.75L312.81 100.653C323.488 105.745 331.233 112.696 336.116 121.486L336.99 121L337.864 120.514C332.747 111.304 324.66 104.088 313.671 98.8474L313.24 99.75ZM336.99 121L336.123 121.498C341.192 130.328 343.74 140.486 343.74 152H344.74H345.74C345.74 140.181 343.122 129.672 337.857 120.502L336.99 121ZM344.74 152H343.74C343.74 163.344 341.194 173.506 336.119 182.509L336.99 183L337.861 183.491C343.12 174.161 345.74 163.656 345.74 152H344.74ZM336.99 183L336.116 182.514C331.233 191.304 323.488 198.255 312.81 203.347L313.24 204.25L313.671 205.153C324.66 199.912 332.747 192.696 337.864 183.486L336.99 183ZM313.24 204.25L312.804 203.35C302.32 208.428 288.569 211 271.49 211V212V213C288.745 213 302.827 210.405 313.676 205.15L313.24 204.25ZM271.49 212V211H233.24V212V213H271.49V212ZM233.24 212H234.24V170.75H233.24H232.24V212H233.24ZM233.24 170.75V171.75H266.49V170.75V169.75H233.24V170.75ZM266.49 170.75V171.75C271.23 171.75 275.198 171.159 278.353 169.932L277.99 169L277.628 168.068C274.783 169.174 271.084 169.75 266.49 169.75V170.75ZM277.99 169L278.396 169.914C281.56 168.508 283.979 166.463 285.598 163.764L284.74 163.25L283.883 162.736C282.502 165.037 280.421 166.825 277.584 168.086L277.99 169ZM284.74 163.25L285.572 163.805C287.36 161.123 288.24 158.008 288.24 154.5H287.24H286.24C286.24 157.658 285.454 160.377 283.908 162.695L284.74 163.25ZM287.24 154.5H288.24C288.24 150.838 287.366 147.706 285.554 145.169L284.74 145.75L283.926 146.331C285.447 148.461 286.24 151.162 286.24 154.5H287.24ZM284.74 145.75L285.598 145.236C283.972 142.525 281.537 140.556 278.353 139.318L277.99 140.25L277.628 141.182C280.444 142.277 282.509 143.975 283.883 146.264L284.74 145.75ZM277.99 140.25L278.396 139.336C275.227 137.927 271.242 137.25 266.49 137.25V138.25V139.25C271.072 139.25 274.754 139.906 277.584 141.164L277.99 140.25ZM266.49 138.25V137.25H233.24V138.25V139.25H266.49V138.25ZM425.789 202L424.89 202.438L425.789 202ZM439.289 217.25L438.757 218.097L438.766 218.102L438.775 218.107L439.289 217.25ZM481.289 217.25L481.804 218.107L481.812 218.102L481.821 218.097L481.289 217.25ZM495.039 157L494.131 157.419L494.135 157.428L495.039 157ZM481.789 142L481.246 142.84L481.26 142.849L481.275 142.857L481.789 142ZM439.289 142L439.804 142.857L439.812 142.852L439.821 142.847L439.289 142ZM425.789 157L426.684 157.447L426.688 157.438L425.789 157ZM391.039 112.25L391.718 112.984L391.039 112.25ZM422.039 93.5L422.383 94.439L422.039 93.5ZM499.039 93.5L498.695 94.439L499.039 93.5ZM530.039 112.25L529.36 112.984L530.039 112.25ZM550.539 141.5L549.619 141.892L550.539 141.5ZM550.539 218L549.615 217.617L549.612 217.624L550.539 218ZM530.539 248L529.839 247.286L530.539 248ZM499.539 267.5L499.188 266.564L499.18 266.567L499.172 266.57L499.539 267.5ZM420.789 267.5L421.152 266.568L421.145 266.565L420.789 267.5ZM390.039 248L390.739 247.286L390.039 248ZM369.789 218L368.861 218.371L368.864 218.379L368.867 218.387L369.789 218ZM421.039 179.5H420.039C420.039 188.125 421.646 195.78 424.89 202.438L425.789 202L426.688 201.562C423.599 195.22 422.039 187.875 422.039 179.5H421.039ZM425.789 202L424.89 202.438C428.134 209.097 432.758 214.326 438.757 218.097L439.289 217.25L439.821 216.403C434.154 212.841 429.777 207.903 426.688 201.562L425.789 202ZM439.289 217.25L438.775 218.107C444.792 221.718 451.978 223.5 460.289 223.5V222.5V221.5C452.267 221.5 445.453 219.782 439.804 216.393L439.289 217.25ZM460.289 222.5V223.5C468.6 223.5 475.786 221.718 481.804 218.107L481.289 217.25L480.775 216.393C475.125 219.782 468.311 221.5 460.289 221.5V222.5ZM481.289 217.25L481.821 218.097C487.821 214.326 492.444 209.097 495.688 202.438L494.789 202L493.89 201.562C490.801 207.903 486.424 212.841 480.757 216.403L481.289 217.25ZM494.789 202L495.688 202.438C498.932 195.78 500.539 188.125 500.539 179.5H499.539H498.539C498.539 187.875 496.98 195.22 493.89 201.562L494.789 202ZM499.539 179.5H500.539C500.539 170.719 499.019 163.067 495.943 156.572L495.039 157L494.135 157.428C497.059 163.6 498.539 170.947 498.539 179.5H499.539ZM495.039 157L495.947 156.581C492.868 149.909 488.318 144.751 482.304 141.143L481.789 142L481.275 142.857C486.926 146.249 491.211 151.091 494.131 157.419L495.039 157ZM481.789 142L482.332 141.16C476.464 137.363 469.094 135.5 460.289 135.5V136.5V137.5C468.817 137.5 475.781 139.304 481.246 142.84L481.789 142ZM460.289 136.5V135.5C451.969 135.5 444.777 137.369 438.757 141.153L439.289 142L439.821 142.847C445.468 139.297 452.275 137.5 460.289 137.5V136.5ZM439.289 142L438.775 141.143C432.765 144.749 428.136 149.899 424.89 156.562L425.789 157L426.688 157.438C429.775 151.101 434.147 146.251 439.804 142.857L439.289 142ZM425.789 157L424.895 156.553C421.645 163.053 420.039 170.712 420.039 179.5H421.039H422.039C422.039 170.954 423.6 163.614 426.684 157.447L425.789 157ZM362.789 179.5H363.789C363.789 165.621 366.267 153.094 371.204 141.904L370.289 141.5L369.374 141.096C364.311 152.572 361.789 165.379 361.789 179.5H362.789ZM370.289 141.5L371.204 141.904C376.15 130.692 382.988 121.055 391.718 112.984L391.039 112.25L390.36 111.516C381.423 119.778 374.428 129.642 369.374 141.096L370.289 141.5ZM391.039 112.25L391.718 112.984C400.45 104.912 410.668 98.7291 422.383 94.439L422.039 93.5L421.695 92.561C409.744 96.9376 399.295 103.255 390.36 111.516L391.039 112.25ZM422.039 93.5L422.383 94.439C434.097 90.1493 446.73 88 460.289 88V87V86C446.515 86 433.648 88.184 421.695 92.561L422.039 93.5ZM460.289 87V88C474.185 88 486.984 90.1502 498.695 94.439L499.039 93.5L499.383 92.561C487.428 88.1831 474.393 86 460.289 86V87ZM499.039 93.5L498.695 94.439C510.41 98.7291 520.629 104.912 529.36 112.984L530.039 112.25L530.718 111.516C521.783 103.255 511.334 96.9376 499.383 92.561L499.039 93.5ZM530.039 112.25L529.36 112.984C538.087 121.053 544.84 130.685 549.619 141.892L550.539 141.5L551.459 141.108C546.572 129.648 539.657 119.78 530.718 111.516L530.039 112.25ZM550.539 141.5L549.619 141.892C554.393 153.086 556.789 165.617 556.789 179.5H557.789H558.789C558.789 165.383 556.352 152.581 551.459 141.108L550.539 141.5ZM557.789 179.5H556.789C556.789 193.383 554.393 206.084 549.615 217.617L550.539 218L551.463 218.383C556.352 206.582 558.789 193.617 558.789 179.5H557.789ZM550.539 218L549.612 217.624C544.996 229 538.405 238.884 529.839 247.286L530.539 248L531.239 248.714C540.006 240.116 546.749 230 551.466 218.376L550.539 218ZM530.539 248L529.839 247.286C521.277 255.683 511.065 262.11 499.188 266.564L499.539 267.5L499.89 268.436C512.013 263.89 522.468 257.317 531.239 248.714L530.539 248ZM499.539 267.5L499.172 266.57C487.47 271.185 474.513 273.5 460.289 273.5V274.5V275.5C474.732 275.5 487.942 273.148 499.906 268.43L499.539 267.5ZM460.289 274.5V273.5C446.066 273.5 433.024 271.185 421.152 266.568L420.789 267.5L420.427 268.432C432.555 273.148 445.846 275.5 460.289 275.5V274.5ZM420.789 267.5L421.145 266.565C409.434 262.112 399.303 255.685 390.739 247.286L390.039 248L389.339 248.714C398.108 257.315 408.477 263.888 420.434 268.435L420.789 267.5ZM390.039 248L390.739 247.286C382.17 238.882 375.494 228.994 370.711 217.613L369.789 218L368.867 218.387C373.751 230.006 380.575 240.118 389.339 248.714L390.039 248ZM369.789 218L370.718 217.629C366.103 206.093 363.789 193.387 363.789 179.5H362.789H361.789C361.789 193.613 364.142 206.574 368.861 218.371L369.789 218ZM696.5 92V91H695.5V92H696.5ZM749 92H750V91H749V92ZM749 275.75L748.388 276.541L750 277.788V275.75H749ZM635.25 187.75L635.862 186.959L634.25 185.712V187.75H635.25ZM635.25 267V268H636.25V267H635.25ZM582.75 267H581.75V268H582.75V267ZM582.75 83.25L583.362 82.4591L581.75 81.2121V83.25H582.75ZM696.5 171.25L695.888 172.041L697.5 173.288V171.25H696.5ZM696.5 92V93H749V92V91H696.5V92ZM749 92H748V275.75H749H750V92H749ZM749 275.75L749.612 274.959L635.862 186.959L635.25 187.75L634.638 188.541L748.388 276.541L749 275.75ZM635.25 187.75H634.25V267H635.25H636.25V187.75H635.25ZM635.25 267V266H582.75V267V268H635.25V267ZM582.75 267H583.75V83.25H582.75H581.75V267H582.75ZM582.75 83.25L582.138 84.0409L695.888 172.041L696.5 171.25L697.112 170.459L583.362 82.4591L582.75 83.25ZM696.5 171.25H697.5V92H696.5H695.5V171.25H696.5ZM766.422 140.75H765.422V141.75H766.422V140.75ZM766.422 92V91H765.422V92H766.422ZM921.422 92H922.422V91H921.422V92ZM921.422 140.75V141.75H922.422V140.75H921.422ZM871.422 140.75V139.75H870.422V140.75H871.422ZM871.422 267V268H872.422V267H871.422ZM816.422 267H815.422V268H816.422V267ZM816.422 140.75H817.422V139.75H816.422V140.75ZM766.422 140.75H767.422V92H766.422H765.422V140.75H766.422ZM766.422 92V93H921.422V92V91H766.422V92ZM921.422 92H920.422V140.75H921.422H922.422V92H921.422ZM921.422 140.75V139.75H871.422V140.75V141.75H921.422V140.75ZM871.422 140.75H870.422V267H871.422H872.422V140.75H871.422ZM871.422 267V266H816.422V267V268H871.422V267ZM816.422 267H817.422V140.75H816.422H815.422V267H816.422ZM816.422 140.75V139.75H766.422V140.75V141.75H816.422V140.75ZM976.951 267H975.951V268H976.951V267ZM976.951 223.25V222.25H975.951V223.25H976.951ZM1065.2 223.25H1066.2V222.25H1065.2V223.25ZM1065.2 267V268H1066.2V267H1065.2ZM976.951 135.75H975.951V136.75H976.951V135.75ZM976.951 92V91H975.951V92H976.951ZM1065.2 92H1066.2V91H1065.2V92ZM1065.2 135.75V136.75H1066.2V135.75H1065.2ZM976.951 198.25H975.951V199.25H976.951V198.25ZM976.951 155.75V154.75H975.951V155.75H976.951ZM1060.2 155.75H1061.2V154.75H1060.2V155.75ZM1060.2 198.25V199.25H1061.2V198.25H1060.2ZM938.951 92V91H937.951V92H938.951ZM991.451 92H992.451V91H991.451V92ZM991.451 267V268H992.451V267H991.451ZM938.951 267H937.951V268H938.951V267ZM976.951 267H977.951V223.25H976.951H975.951V267H976.951ZM976.951 223.25V224.25H1065.2V223.25V222.25H976.951V223.25ZM1065.2 223.25H1064.2V267H1065.2H1066.2V223.25H1065.2ZM1065.2 267V266H976.951V267V268H1065.2V267ZM976.951 135.75H977.951V92H976.951H975.951V135.75H976.951ZM976.951 92V93H1065.2V92V91H976.951V92ZM1065.2 92H1064.2V135.75H1065.2H1066.2V92H1065.2ZM1065.2 135.75V134.75H976.951V135.75V136.75H1065.2V135.75ZM976.951 198.25H977.951V155.75H976.951H975.951V198.25H976.951ZM976.951 155.75V156.75H1060.2V155.75V154.75H976.951V155.75ZM1060.2 155.75H1059.2V198.25H1060.2H1061.2V155.75H1060.2ZM1060.2 198.25V197.25H976.951V198.25V199.25H1060.2V198.25ZM938.951 92V93H991.451V92V91H938.951V92ZM991.451 92H990.451V267H991.451H992.451V92H991.451ZM991.451 267V266H938.951V267V268H991.451V267ZM938.951 267H939.951V92H938.951H937.951V267H938.951ZM1211.39 92V91H1210.39V92H1211.39ZM1263.89 92H1264.89V91H1263.89V92ZM1263.89 275.75L1263.28 276.541L1264.89 277.788V275.75H1263.89ZM1150.14 187.75L1150.75 186.959L1149.14 185.712V187.75H1150.14ZM1150.14 267V268H1151.14V267H1150.14ZM1097.64 267H1096.64V268H1097.64V267ZM1097.64 83.25L1098.25 82.4591L1096.64 81.2121V83.25H1097.64ZM1211.39 171.25L1210.78 172.041L1212.39 173.288V171.25H1211.39ZM1211.39 92V93H1263.89V92V91H1211.39V92ZM1263.89 92H1262.89V275.75H1263.89H1264.89V92H1263.89ZM1263.89 275.75L1264.5 274.959L1150.75 186.959L1150.14 187.75L1149.53 188.541L1263.28 276.541L1263.89 275.75ZM1150.14 187.75H1149.14V267H1150.14H1151.14V187.75H1150.14ZM1150.14 267V266H1097.64V267V268H1150.14V267ZM1097.64 267H1098.64V83.25H1097.64H1096.64V267H1097.64ZM1097.64 83.25L1097.03 84.0409L1210.78 172.041L1211.39 171.25L1212 170.459L1098.25 82.4591L1097.64 83.25ZM1211.39 171.25H1212.39V92H1211.39H1210.39V171.25H1211.39ZM1298.81 92V91H1297.81V92H1298.81ZM1356.06 92H1357.06V91H1356.06V92ZM1356.06 267V268H1357.06V267H1356.06ZM1298.81 267H1297.81V268H1298.81V267ZM1336.81 267H1335.81V268H1336.81V267ZM1336.81 219.5V218.5H1335.81V219.5H1336.81ZM1403.56 201L1402.67 200.553L1402.66 200.564L1402.66 200.576L1403.56 201ZM1403.56 158L1402.66 158.424L1402.66 158.436L1402.67 158.447L1403.56 158ZM1393.56 146L1394.1 145.158L1393.56 146ZM1379.81 140.75L1379.65 141.736L1379.81 140.75ZM1336.81 139.5H1335.81V140.5H1336.81V139.5ZM1336.81 92V91H1335.81V92H1336.81ZM1419.81 102.5L1419.38 103.401L1419.38 103.402L1419.81 102.5ZM1453.31 132.5L1452.45 133.008L1452.46 133.016L1453.31 132.5ZM1453.31 226.5L1452.46 225.989L1452.45 225.992L1453.31 226.5ZM1419.81 256.5L1419.38 255.598L1419.38 255.599L1419.81 256.5ZM1298.81 92V93H1356.06V92V91H1298.81V92ZM1356.06 92H1355.06V267H1356.06H1357.06V92H1356.06ZM1356.06 267V266H1298.81V267V268H1356.06V267ZM1298.81 267H1299.81V92H1298.81H1297.81V267H1298.81ZM1367.56 267V266H1336.81V267V268H1367.56V267ZM1336.81 267H1337.81V219.5H1336.81H1335.81V267H1336.81ZM1336.81 219.5V220.5H1365.06V219.5V218.5H1336.81V219.5ZM1365.06 219.5V220.5C1369.96 220.5 1374.93 220.078 1379.98 219.236L1379.81 218.25L1379.65 217.264C1374.7 218.088 1369.84 218.5 1365.06 218.5V219.5ZM1379.81 218.25L1379.98 219.236C1385.11 218.381 1389.82 216.584 1394.1 213.842L1393.56 213L1393.03 212.158C1388.98 214.75 1384.52 216.452 1379.65 217.264L1379.81 218.25ZM1393.56 213L1394.1 213.842C1398.46 211.056 1401.91 206.896 1404.47 201.424L1403.56 201L1402.66 200.576C1400.22 205.771 1397 209.611 1393.03 212.158L1393.56 213ZM1403.56 201L1404.46 201.447C1407.22 195.922 1408.56 188.583 1408.56 179.5H1407.56H1406.56C1406.56 188.417 1405.24 195.411 1402.67 200.553L1403.56 201ZM1407.56 179.5H1408.56C1408.56 170.417 1407.22 163.078 1404.46 157.553L1403.56 158L1402.67 158.447C1405.24 163.589 1406.56 170.583 1406.56 179.5H1407.56ZM1403.56 158L1404.47 157.576C1401.91 152.104 1398.46 147.944 1394.1 145.158L1393.56 146L1393.03 146.842C1397 149.389 1400.22 153.229 1402.66 158.424L1403.56 158ZM1393.56 146L1394.1 145.158C1389.82 142.416 1385.11 140.619 1379.98 139.764L1379.81 140.75L1379.65 141.736C1384.52 142.548 1388.98 144.25 1393.03 146.842L1393.56 146ZM1379.81 140.75L1379.98 139.764C1374.93 138.922 1369.96 138.5 1365.06 138.5V139.5V140.5C1369.84 140.5 1374.7 140.912 1379.65 141.736L1379.81 140.75ZM1365.06 139.5V138.5H1336.81V139.5V140.5H1365.06V139.5ZM1336.81 139.5H1337.81V92H1336.81H1335.81V139.5H1336.81ZM1336.81 92V93H1367.56V92V91H1336.81V92ZM1367.56 92V93C1387.79 93 1405.05 96.4809 1419.38 103.401L1419.81 102.5L1420.25 101.599C1405.58 94.5191 1388.01 91 1367.56 91V92ZM1419.81 102.5L1419.38 103.402C1433.89 110.324 1444.9 120.193 1452.45 133.008L1453.31 132.5L1454.18 131.992C1446.4 118.807 1435.08 108.676 1420.25 101.598L1419.81 102.5ZM1453.31 132.5L1452.46 133.016C1460.18 145.831 1464.06 161.311 1464.06 179.5H1465.06H1466.06C1466.06 161.023 1462.12 145.169 1454.17 131.984L1453.31 132.5ZM1465.06 179.5H1464.06C1464.06 197.52 1460.18 213.003 1452.46 225.989L1453.31 226.5L1454.17 227.011C1462.11 213.663 1466.06 197.813 1466.06 179.5H1465.06ZM1453.31 226.5L1452.45 225.992C1444.9 238.807 1433.89 248.676 1419.38 255.598L1419.81 256.5L1420.25 257.402C1435.08 250.324 1446.4 240.193 1454.18 227.008L1453.31 226.5ZM1419.81 256.5L1419.38 255.599C1405.05 262.519 1387.79 266 1367.56 266V267V268C1388.01 268 1405.58 264.481 1420.25 257.401L1419.81 256.5Z" fill="white" fill-opacity="0.2" mask="url(#path-1-outside-1_142_6237)"/>
<mask id="path-3-outside-2_142_6237" maskUnits="userSpaceOnUse" x="31" y="113" width="1417" height="197" fill="black">
<rect fill="white" x="31" y="113" width="1417" height="197"/>
<path d="M70.5 170.25V124H148.75V170.25H70.5ZM70.5 237.75V195.25H146.25V237.75H70.5ZM32.5 124H85V299H32.5V124ZM229.99 224H286.24L336.24 299H272.49L229.99 224ZM178.74 124H233.74V299H178.74V124ZM214.24 170.25V124H252.49C269.657 124 283.574 126.583 294.24 131.75C305.074 136.917 312.99 144 317.99 153C323.157 162 325.74 172.333 325.74 184C325.74 195.5 323.157 205.833 317.99 215C312.99 224 305.074 231.083 294.24 236.25C283.574 241.417 269.657 244 252.49 244H214.24V202.75H247.49C252.157 202.75 255.99 202.167 258.99 201C261.99 199.667 264.24 197.75 265.74 195.25C267.407 192.75 268.24 189.833 268.24 186.5C268.24 183 267.407 180.083 265.74 177.75C264.24 175.25 261.99 173.417 258.99 172.25C255.99 170.917 252.157 170.25 247.49 170.25H214.24ZM402.039 211.5C402.039 220 403.622 227.5 406.789 234C409.956 240.5 414.456 245.583 420.289 249.25C426.122 252.75 433.122 254.5 441.289 254.5C449.456 254.5 456.456 252.75 462.289 249.25C468.122 245.583 472.622 240.5 475.789 234C478.956 227.5 480.539 220 480.539 211.5C480.539 202.833 479.039 195.333 476.039 189C473.039 182.5 468.622 177.5 462.789 174C457.122 170.333 449.956 168.5 441.289 168.5C433.122 168.5 426.122 170.333 420.289 174C414.456 177.5 409.956 182.5 406.789 189C403.622 195.333 402.039 202.833 402.039 211.5ZM343.789 211.5C343.789 197.5 346.289 184.833 351.289 173.5C356.289 162.167 363.206 152.417 372.039 144.25C380.872 136.083 391.206 129.833 403.039 125.5C414.872 121.167 427.622 119 441.289 119C455.289 119 468.206 121.167 480.039 125.5C491.872 129.833 502.206 136.083 511.039 144.25C519.872 152.417 526.706 162.167 531.539 173.5C536.372 184.833 538.789 197.5 538.789 211.5C538.789 225.5 536.372 238.333 531.539 250C526.872 261.5 520.206 271.5 511.539 280C502.872 288.5 492.539 295 480.539 299.5C468.706 304.167 455.622 306.5 441.289 306.5C426.956 306.5 413.789 304.167 401.789 299.5C389.956 295 379.706 288.5 371.039 280C362.372 271.5 355.622 261.5 350.789 250C346.122 238.333 343.789 225.5 343.789 211.5ZM677.5 124H730V307.75L616.25 219.75V299H563.75V115.25L677.5 203.25V124ZM747.422 172.75V124H902.422V172.75H852.422V299H797.422V172.75H747.422ZM957.951 299V255.25H1046.2V299H957.951ZM957.951 167.75V124H1046.2V167.75H957.951ZM957.951 230.25V187.75H1041.2V230.25H957.951ZM919.951 124H972.451V299H919.951V124ZM1192.39 124H1244.89V307.75L1131.14 219.75V299H1078.64V115.25L1192.39 203.25V124ZM1279.81 124H1337.06V299H1279.81V124ZM1348.56 299H1317.81V251.5H1346.06C1350.9 251.5 1355.81 251.083 1360.81 250.25C1365.81 249.417 1370.4 247.667 1374.56 245C1378.73 242.333 1382.06 238.333 1384.56 233C1387.23 227.667 1388.56 220.5 1388.56 211.5C1388.56 202.5 1387.23 195.333 1384.56 190C1382.06 184.667 1378.73 180.667 1374.56 178C1370.4 175.333 1365.81 173.583 1360.81 172.75C1355.81 171.917 1350.9 171.5 1346.06 171.5H1317.81V124H1348.56C1368.9 124 1386.31 127.5 1400.81 134.5C1415.48 141.5 1426.65 151.5 1434.31 164.5C1442.15 177.5 1446.06 193.167 1446.06 211.5C1446.06 229.667 1442.15 245.333 1434.31 258.5C1426.65 271.5 1415.48 281.5 1400.81 288.5C1386.31 295.5 1368.9 299 1348.56 299Z"/>
</mask>
<path d="M70.5 170.25H69.5V171.25H70.5V170.25ZM70.5 124V123H69.5V124H70.5ZM148.75 124H149.75V123H148.75V124ZM148.75 170.25V171.25H149.75V170.25H148.75ZM70.5 237.75H69.5V238.75H70.5V237.75ZM70.5 195.25V194.25H69.5V195.25H70.5ZM146.25 195.25H147.25V194.25H146.25V195.25ZM146.25 237.75V238.75H147.25V237.75H146.25ZM32.5 124V123H31.5V124H32.5ZM85 124H86V123H85V124ZM85 299V300H86V299H85ZM32.5 299H31.5V300H32.5V299ZM70.5 170.25H71.5V124H70.5H69.5V170.25H70.5ZM70.5 124V125H148.75V124V123H70.5V124ZM148.75 124H147.75V170.25H148.75H149.75V124H148.75ZM148.75 170.25V169.25H70.5V170.25V171.25H148.75V170.25ZM70.5 237.75H71.5V195.25H70.5H69.5V237.75H70.5ZM70.5 195.25V196.25H146.25V195.25V194.25H70.5V195.25ZM146.25 195.25H145.25V237.75H146.25H147.25V195.25H146.25ZM146.25 237.75V236.75H70.5V237.75V238.75H146.25V237.75ZM32.5 124V125H85V124V123H32.5V124ZM85 124H84V299H85H86V124H85ZM85 299V298H32.5V299V300H85V299ZM32.5 299H33.5V124H32.5H31.5V299H32.5ZM229.99 224V223H228.274L229.12 224.493L229.99 224ZM286.24 224L287.072 223.445L286.775 223H286.24V224ZM336.24 299V300H338.109L337.072 298.445L336.24 299ZM272.49 299L271.62 299.493L271.908 300H272.49V299ZM178.74 124V123H177.74V124H178.74ZM233.74 124H234.74V123H233.74V124ZM233.74 299V300H234.74V299H233.74ZM178.74 299H177.74V300H178.74V299ZM214.24 170.25H213.24V171.25H214.24V170.25ZM214.24 124V123H213.24V124H214.24ZM294.24 131.75L293.804 132.65L293.81 132.653L294.24 131.75ZM317.99 153L317.116 153.486L317.123 153.498L317.99 153ZM317.99 215L317.119 214.509L317.116 214.514L317.99 215ZM294.24 236.25L293.81 235.347L293.804 235.35L294.24 236.25ZM214.24 244H213.24V245H214.24V244ZM214.24 202.75V201.75H213.24V202.75H214.24ZM258.99 201L259.353 201.932L259.375 201.923L259.396 201.914L258.99 201ZM265.74 195.25L264.908 194.695L264.895 194.715L264.883 194.736L265.74 195.25ZM265.74 177.75L264.883 178.264L264.903 178.299L264.926 178.331L265.74 177.75ZM258.99 172.25L258.584 173.164L258.606 173.173L258.628 173.182L258.99 172.25ZM229.99 224V225H286.24V224V223H229.99V224ZM286.24 224L285.408 224.555L335.408 299.555L336.24 299L337.072 298.445L287.072 223.445L286.24 224ZM336.24 299V298H272.49V299V300H336.24V299ZM272.49 299L273.36 298.507L230.86 223.507L229.99 224L229.12 224.493L271.62 299.493L272.49 299ZM178.74 124V125H233.74V124V123H178.74V124ZM233.74 124H232.74V299H233.74H234.74V124H233.74ZM233.74 299V298H178.74V299V300H233.74V299ZM178.74 299H179.74V124H178.74H177.74V299H178.74ZM214.24 170.25H215.24V124H214.24H213.24V170.25H214.24ZM214.24 124V125H252.49V124V123H214.24V124ZM252.49 124V125C269.569 125 283.32 127.572 293.804 132.65L294.24 131.75L294.676 130.85C283.827 125.595 269.745 123 252.49 123V124ZM294.24 131.75L293.81 132.653C304.488 137.745 312.233 144.696 317.116 153.486L317.99 153L318.864 152.514C313.747 143.304 305.66 136.088 294.671 130.847L294.24 131.75ZM317.99 153L317.123 153.498C322.192 162.328 324.74 172.486 324.74 184H325.74H326.74C326.74 172.181 324.122 161.672 318.857 152.502L317.99 153ZM325.74 184H324.74C324.74 195.344 322.194 205.506 317.119 214.509L317.99 215L318.861 215.491C324.12 206.161 326.74 195.656 326.74 184H325.74ZM317.99 215L317.116 214.514C312.233 223.304 304.488 230.255 293.81 235.347L294.24 236.25L294.671 237.153C305.66 231.912 313.747 224.696 318.864 215.486L317.99 215ZM294.24 236.25L293.804 235.35C283.32 240.428 269.569 243 252.49 243V244V245C269.745 245 283.827 242.405 294.676 237.15L294.24 236.25ZM252.49 244V243H214.24V244V245H252.49V244ZM214.24 244H215.24V202.75H214.24H213.24V244H214.24ZM214.24 202.75V203.75H247.49V202.75V201.75H214.24V202.75ZM247.49 202.75V203.75C252.23 203.75 256.198 203.159 259.353 201.932L258.99 201L258.628 200.068C255.783 201.174 252.084 201.75 247.49 201.75V202.75ZM258.99 201L259.396 201.914C262.56 200.508 264.979 198.463 266.598 195.764L265.74 195.25L264.883 194.736C263.502 197.037 261.421 198.825 258.584 200.086L258.99 201ZM265.74 195.25L266.572 195.805C268.36 193.123 269.24 190.008 269.24 186.5H268.24H267.24C267.24 189.658 266.454 192.377 264.908 194.695L265.74 195.25ZM268.24 186.5H269.24C269.24 182.838 268.366 179.706 266.554 177.169L265.74 177.75L264.926 178.331C266.447 180.461 267.24 183.162 267.24 186.5H268.24ZM265.74 177.75L266.598 177.236C264.972 174.525 262.537 172.556 259.353 171.318L258.99 172.25L258.628 173.182C261.444 174.277 263.509 175.975 264.883 178.264L265.74 177.75ZM258.99 172.25L259.396 171.336C256.227 169.927 252.242 169.25 247.49 169.25V170.25V171.25C252.072 171.25 255.754 171.906 258.584 173.164L258.99 172.25ZM247.49 170.25V169.25H214.24V170.25V171.25H247.49V170.25ZM406.789 234L405.89 234.438L406.789 234ZM420.289 249.25L419.757 250.097L419.766 250.102L419.775 250.107L420.289 249.25ZM462.289 249.25L462.804 250.107L462.812 250.102L462.821 250.097L462.289 249.25ZM476.039 189L475.131 189.419L475.135 189.428L476.039 189ZM462.789 174L462.246 174.84L462.26 174.849L462.275 174.857L462.789 174ZM420.289 174L420.804 174.857L420.812 174.852L420.821 174.847L420.289 174ZM406.789 189L407.684 189.447L407.688 189.438L406.789 189ZM372.039 144.25L372.718 144.984L372.039 144.25ZM403.039 125.5L403.383 126.439L403.039 125.5ZM480.039 125.5L479.695 126.439L480.039 125.5ZM511.039 144.25L510.36 144.984L511.039 144.25ZM531.539 173.5L530.619 173.892L531.539 173.5ZM531.539 250L530.615 249.617L530.612 249.624L531.539 250ZM511.539 280L510.839 279.286L511.539 280ZM480.539 299.5L480.188 298.564L480.18 298.567L480.172 298.57L480.539 299.5ZM401.789 299.5L402.152 298.568L402.145 298.565L401.789 299.5ZM371.039 280L371.739 279.286L371.039 280ZM350.789 250L349.861 250.371L349.864 250.379L349.867 250.387L350.789 250ZM402.039 211.5H401.039C401.039 220.125 402.646 227.78 405.89 234.438L406.789 234L407.688 233.562C404.599 227.22 403.039 219.875 403.039 211.5H402.039ZM406.789 234L405.89 234.438C409.134 241.097 413.758 246.326 419.757 250.097L420.289 249.25L420.821 248.403C415.154 244.841 410.777 239.903 407.688 233.562L406.789 234ZM420.289 249.25L419.775 250.107C425.792 253.718 432.978 255.5 441.289 255.5V254.5V253.5C433.267 253.5 426.453 251.782 420.804 248.393L420.289 249.25ZM441.289 254.5V255.5C449.6 255.5 456.786 253.718 462.804 250.107L462.289 249.25L461.775 248.393C456.125 251.782 449.311 253.5 441.289 253.5V254.5ZM462.289 249.25L462.821 250.097C468.821 246.326 473.444 241.097 476.688 234.438L475.789 234L474.89 233.562C471.801 239.903 467.424 244.841 461.757 248.403L462.289 249.25ZM475.789 234L476.688 234.438C479.932 227.78 481.539 220.125 481.539 211.5H480.539H479.539C479.539 219.875 477.98 227.22 474.89 233.562L475.789 234ZM480.539 211.5H481.539C481.539 202.719 480.019 195.067 476.943 188.572L476.039 189L475.135 189.428C478.059 195.6 479.539 202.947 479.539 211.5H480.539ZM476.039 189L476.947 188.581C473.868 181.909 469.318 176.751 463.304 173.143L462.789 174L462.275 174.857C467.926 178.249 472.211 183.091 475.131 189.419L476.039 189ZM462.789 174L463.332 173.16C457.464 169.363 450.094 167.5 441.289 167.5V168.5V169.5C449.817 169.5 456.781 171.304 462.246 174.84L462.789 174ZM441.289 168.5V167.5C432.969 167.5 425.777 169.369 419.757 173.153L420.289 174L420.821 174.847C426.468 171.297 433.275 169.5 441.289 169.5V168.5ZM420.289 174L419.775 173.143C413.765 176.749 409.136 181.899 405.89 188.562L406.789 189L407.688 189.438C410.775 183.101 415.147 178.251 420.804 174.857L420.289 174ZM406.789 189L405.895 188.553C402.645 195.053 401.039 202.712 401.039 211.5H402.039H403.039C403.039 202.954 404.6 195.614 407.684 189.447L406.789 189ZM343.789 211.5H344.789C344.789 197.621 347.267 185.094 352.204 173.904L351.289 173.5L350.374 173.096C345.311 184.572 342.789 197.379 342.789 211.5H343.789ZM351.289 173.5L352.204 173.904C357.15 162.692 363.988 153.055 372.718 144.984L372.039 144.25L371.36 143.516C362.423 151.778 355.428 161.642 350.374 173.096L351.289 173.5ZM372.039 144.25L372.718 144.984C381.45 136.912 391.668 130.729 403.383 126.439L403.039 125.5L402.695 124.561C390.744 128.938 380.295 135.255 371.36 143.516L372.039 144.25ZM403.039 125.5L403.383 126.439C415.097 122.149 427.73 120 441.289 120V119V118C427.515 118 414.648 120.184 402.695 124.561L403.039 125.5ZM441.289 119V120C455.185 120 467.984 122.15 479.695 126.439L480.039 125.5L480.383 124.561C468.428 120.183 455.393 118 441.289 118V119ZM480.039 125.5L479.695 126.439C491.41 130.729 501.629 136.912 510.36 144.984L511.039 144.25L511.718 143.516C502.783 135.255 492.334 128.938 480.383 124.561L480.039 125.5ZM511.039 144.25L510.36 144.984C519.087 153.053 525.84 162.685 530.619 173.892L531.539 173.5L532.459 173.108C527.572 161.648 520.657 151.78 511.718 143.516L511.039 144.25ZM531.539 173.5L530.619 173.892C535.393 185.086 537.789 197.617 537.789 211.5H538.789H539.789C539.789 197.383 537.352 184.581 532.459 173.108L531.539 173.5ZM538.789 211.5H537.789C537.789 225.383 535.393 238.084 530.615 249.617L531.539 250L532.463 250.383C537.352 238.582 539.789 225.617 539.789 211.5H538.789ZM531.539 250L530.612 249.624C525.996 261 519.405 270.884 510.839 279.286L511.539 280L512.239 280.714C521.006 272.116 527.749 262 532.466 250.376L531.539 250ZM511.539 280L510.839 279.286C502.277 287.683 492.065 294.11 480.188 298.564L480.539 299.5L480.89 300.436C493.013 295.89 503.468 289.317 512.239 280.714L511.539 280ZM480.539 299.5L480.172 298.57C468.47 303.185 455.513 305.5 441.289 305.5V306.5V307.5C455.732 307.5 468.942 305.148 480.906 300.43L480.539 299.5ZM441.289 306.5V305.5C427.066 305.5 414.024 303.185 402.152 298.568L401.789 299.5L401.427 300.432C413.555 305.148 426.846 307.5 441.289 307.5V306.5ZM401.789 299.5L402.145 298.565C390.434 294.112 380.303 287.685 371.739 279.286L371.039 280L370.339 280.714C379.108 289.315 389.477 295.888 401.434 300.435L401.789 299.5ZM371.039 280L371.739 279.286C363.17 270.882 356.494 260.994 351.711 249.613L350.789 250L349.867 250.387C354.751 262.006 361.575 272.118 370.339 280.714L371.039 280ZM350.789 250L351.718 249.629C347.103 238.093 344.789 225.387 344.789 211.5H343.789H342.789C342.789 225.613 345.142 238.574 349.861 250.371L350.789 250ZM677.5 124V123H676.5V124H677.5ZM730 124H731V123H730V124ZM730 307.75L729.388 308.541L731 309.788V307.75H730ZM616.25 219.75L616.862 218.959L615.25 217.712V219.75H616.25ZM616.25 299V300H617.25V299H616.25ZM563.75 299H562.75V300H563.75V299ZM563.75 115.25L564.362 114.459L562.75 113.212V115.25H563.75ZM677.5 203.25L676.888 204.041L678.5 205.288V203.25H677.5ZM677.5 124V125H730V124V123H677.5V124ZM730 124H729V307.75H730H731V124H730ZM730 307.75L730.612 306.959L616.862 218.959L616.25 219.75L615.638 220.541L729.388 308.541L730 307.75ZM616.25 219.75H615.25V299H616.25H617.25V219.75H616.25ZM616.25 299V298H563.75V299V300H616.25V299ZM563.75 299H564.75V115.25H563.75H562.75V299H563.75ZM563.75 115.25L563.138 116.041L676.888 204.041L677.5 203.25L678.112 202.459L564.362 114.459L563.75 115.25ZM677.5 203.25H678.5V124H677.5H676.5V203.25H677.5ZM747.422 172.75H746.422V173.75H747.422V172.75ZM747.422 124V123H746.422V124H747.422ZM902.422 124H903.422V123H902.422V124ZM902.422 172.75V173.75H903.422V172.75H902.422ZM852.422 172.75V171.75H851.422V172.75H852.422ZM852.422 299V300H853.422V299H852.422ZM797.422 299H796.422V300H797.422V299ZM797.422 172.75H798.422V171.75H797.422V172.75ZM747.422 172.75H748.422V124H747.422H746.422V172.75H747.422ZM747.422 124V125H902.422V124V123H747.422V124ZM902.422 124H901.422V172.75H902.422H903.422V124H902.422ZM902.422 172.75V171.75H852.422V172.75V173.75H902.422V172.75ZM852.422 172.75H851.422V299H852.422H853.422V172.75H852.422ZM852.422 299V298H797.422V299V300H852.422V299ZM797.422 299H798.422V172.75H797.422H796.422V299H797.422ZM797.422 172.75V171.75H747.422V172.75V173.75H797.422V172.75ZM957.951 299H956.951V300H957.951V299ZM957.951 255.25V254.25H956.951V255.25H957.951ZM1046.2 255.25H1047.2V254.25H1046.2V255.25ZM1046.2 299V300H1047.2V299H1046.2ZM957.951 167.75H956.951V168.75H957.951V167.75ZM957.951 124V123H956.951V124H957.951ZM1046.2 124H1047.2V123H1046.2V124ZM1046.2 167.75V168.75H1047.2V167.75H1046.2ZM957.951 230.25H956.951V231.25H957.951V230.25ZM957.951 187.75V186.75H956.951V187.75H957.951ZM1041.2 187.75H1042.2V186.75H1041.2V187.75ZM1041.2 230.25V231.25H1042.2V230.25H1041.2ZM919.951 124V123H918.951V124H919.951ZM972.451 124H973.451V123H972.451V124ZM972.451 299V300H973.451V299H972.451ZM919.951 299H918.951V300H919.951V299ZM957.951 299H958.951V255.25H957.951H956.951V299H957.951ZM957.951 255.25V256.25H1046.2V255.25V254.25H957.951V255.25ZM1046.2 255.25H1045.2V299H1046.2H1047.2V255.25H1046.2ZM1046.2 299V298H957.951V299V300H1046.2V299ZM957.951 167.75H958.951V124H957.951H956.951V167.75H957.951ZM957.951 124V125H1046.2V124V123H957.951V124ZM1046.2 124H1045.2V167.75H1046.2H1047.2V124H1046.2ZM1046.2 167.75V166.75H957.951V167.75V168.75H1046.2V167.75ZM957.951 230.25H958.951V187.75H957.951H956.951V230.25H957.951ZM957.951 187.75V188.75H1041.2V187.75V186.75H957.951V187.75ZM1041.2 187.75H1040.2V230.25H1041.2H1042.2V187.75H1041.2ZM1041.2 230.25V229.25H957.951V230.25V231.25H1041.2V230.25ZM919.951 124V125H972.451V124V123H919.951V124ZM972.451 124H971.451V299H972.451H973.451V124H972.451ZM972.451 299V298H919.951V299V300H972.451V299ZM919.951 299H920.951V124H919.951H918.951V299H919.951ZM1192.39 124V123H1191.39V124H1192.39ZM1244.89 124H1245.89V123H1244.89V124ZM1244.89 307.75L1244.28 308.541L1245.89 309.788V307.75H1244.89ZM1131.14 219.75L1131.75 218.959L1130.14 217.712V219.75H1131.14ZM1131.14 299V300H1132.14V299H1131.14ZM1078.64 299H1077.64V300H1078.64V299ZM1078.64 115.25L1079.25 114.459L1077.64 113.212V115.25H1078.64ZM1192.39 203.25L1191.78 204.041L1193.39 205.288V203.25H1192.39ZM1192.39 124V125H1244.89V124V123H1192.39V124ZM1244.89 124H1243.89V307.75H1244.89H1245.89V124H1244.89ZM1244.89 307.75L1245.5 306.959L1131.75 218.959L1131.14 219.75L1130.53 220.541L1244.28 308.541L1244.89 307.75ZM1131.14 219.75H1130.14V299H1131.14H1132.14V219.75H1131.14ZM1131.14 299V298H1078.64V299V300H1131.14V299ZM1078.64 299H1079.64V115.25H1078.64H1077.64V299H1078.64ZM1078.64 115.25L1078.03 116.041L1191.78 204.041L1192.39 203.25L1193 202.459L1079.25 114.459L1078.64 115.25ZM1192.39 203.25H1193.39V124H1192.39H1191.39V203.25H1192.39ZM1279.81 124V123H1278.81V124H1279.81ZM1337.06 124H1338.06V123H1337.06V124ZM1337.06 299V300H1338.06V299H1337.06ZM1279.81 299H1278.81V300H1279.81V299ZM1317.81 299H1316.81V300H1317.81V299ZM1317.81 251.5V250.5H1316.81V251.5H1317.81ZM1384.56 233L1383.67 232.553L1383.66 232.564L1383.66 232.576L1384.56 233ZM1384.56 190L1383.66 190.424L1383.66 190.436L1383.67 190.447L1384.56 190ZM1374.56 178L1375.1 177.158L1374.56 178ZM1360.81 172.75L1360.65 173.736L1360.81 172.75ZM1317.81 171.5H1316.81V172.5H1317.81V171.5ZM1317.81 124V123H1316.81V124H1317.81ZM1400.81 134.5L1400.38 135.401L1400.38 135.402L1400.81 134.5ZM1434.31 164.5L1433.45 165.008L1433.46 165.016L1434.31 164.5ZM1434.31 258.5L1433.46 257.989L1433.45 257.992L1434.31 258.5ZM1400.81 288.5L1400.38 287.598L1400.38 287.599L1400.81 288.5ZM1279.81 124V125H1337.06V124V123H1279.81V124ZM1337.06 124H1336.06V299H1337.06H1338.06V124H1337.06ZM1337.06 299V298H1279.81V299V300H1337.06V299ZM1279.81 299H1280.81V124H1279.81H1278.81V299H1279.81ZM1348.56 299V298H1317.81V299V300H1348.56V299ZM1317.81 299H1318.81V251.5H1317.81H1316.81V299H1317.81ZM1317.81 251.5V252.5H1346.06V251.5V250.5H1317.81V251.5ZM1346.06 251.5V252.5C1350.96 252.5 1355.93 252.078 1360.98 251.236L1360.81 250.25L1360.65 249.264C1355.7 250.088 1350.84 250.5 1346.06 250.5V251.5ZM1360.81 250.25L1360.98 251.236C1366.11 250.381 1370.82 248.584 1375.1 245.842L1374.56 245L1374.03 244.158C1369.98 246.75 1365.52 248.452 1360.65 249.264L1360.81 250.25ZM1374.56 245L1375.1 245.842C1379.46 243.056 1382.91 238.896 1385.47 233.424L1384.56 233L1383.66 232.576C1381.22 237.771 1378 241.611 1374.03 244.158L1374.56 245ZM1384.56 233L1385.46 233.447C1388.22 227.922 1389.56 220.583 1389.56 211.5H1388.56H1387.56C1387.56 220.417 1386.24 227.411 1383.67 232.553L1384.56 233ZM1388.56 211.5H1389.56C1389.56 202.417 1388.22 195.078 1385.46 189.553L1384.56 190L1383.67 190.447C1386.24 195.589 1387.56 202.583 1387.56 211.5H1388.56ZM1384.56 190L1385.47 189.576C1382.91 184.104 1379.46 179.944 1375.1 177.158L1374.56 178L1374.03 178.842C1378 181.389 1381.22 185.229 1383.66 190.424L1384.56 190ZM1374.56 178L1375.1 177.158C1370.82 174.416 1366.11 172.619 1360.98 171.764L1360.81 172.75L1360.65 173.736C1365.52 174.548 1369.98 176.25 1374.03 178.842L1374.56 178ZM1360.81 172.75L1360.98 171.764C1355.93 170.922 1350.96 170.5 1346.06 170.5V171.5V172.5C1350.84 172.5 1355.7 172.912 1360.65 173.736L1360.81 172.75ZM1346.06 171.5V170.5H1317.81V171.5V172.5H1346.06V171.5ZM1317.81 171.5H1318.81V124H1317.81H1316.81V171.5H1317.81ZM1317.81 124V125H1348.56V124V123H1317.81V124ZM1348.56 124V125C1368.79 125 1386.05 128.481 1400.38 135.401L1400.81 134.5L1401.25 133.599C1386.58 126.519 1369.01 123 1348.56 123V124ZM1400.81 134.5L1400.38 135.402C1414.89 142.324 1425.9 152.193 1433.45 165.008L1434.31 164.5L1435.18 163.992C1427.4 150.807 1416.08 140.676 1401.25 133.598L1400.81 134.5ZM1434.31 164.5L1433.46 165.016C1441.18 177.831 1445.06 193.311 1445.06 211.5H1446.06H1447.06C1447.06 193.023 1443.12 177.169 1435.17 163.984L1434.31 164.5ZM1446.06 211.5H1445.06C1445.06 229.52 1441.18 245.003 1433.46 257.989L1434.31 258.5L1435.17 259.011C1443.11 245.663 1447.06 229.813 1447.06 211.5H1446.06ZM1434.31 258.5L1433.45 257.992C1425.9 270.807 1414.89 280.676 1400.38 287.598L1400.81 288.5L1401.25 289.402C1416.08 282.324 1427.4 272.193 1435.18 259.008L1434.31 258.5ZM1400.81 288.5L1400.38 287.599C1386.05 294.519 1368.79 298 1348.56 298V299V300C1369.01 300 1386.58 296.481 1401.25 289.401L1400.81 288.5Z" fill="white" fill-opacity="0.1" mask="url(#path-3-outside-2_142_6237)"/>
<mask id="path-5-outside-3_142_6237" maskUnits="userSpaceOnUse" x="16" y="152" width="1417" height="197" fill="black">
<rect fill="white" x="16" y="152" width="1417" height="197"/>
<path d="M55.5 209.25V163H133.75V209.25H55.5ZM55.5 276.75V234.25H131.25V276.75H55.5ZM17.5 163H70V338H17.5V163ZM214.99 263H271.24L321.24 338H257.49L214.99 263ZM163.74 163H218.74V338H163.74V163ZM199.24 209.25V163H237.49C254.657 163 268.574 165.583 279.24 170.75C290.074 175.917 297.99 183 302.99 192C308.157 201 310.74 211.333 310.74 223C310.74 234.5 308.157 244.833 302.99 254C297.99 263 290.074 270.083 279.24 275.25C268.574 280.417 254.657 283 237.49 283H199.24V241.75H232.49C237.157 241.75 240.99 241.167 243.99 240C246.99 238.667 249.24 236.75 250.74 234.25C252.407 231.75 253.24 228.833 253.24 225.5C253.24 222 252.407 219.083 250.74 216.75C249.24 214.25 246.99 212.417 243.99 211.25C240.99 209.917 237.157 209.25 232.49 209.25H199.24ZM387.039 250.5C387.039 259 388.622 266.5 391.789 273C394.956 279.5 399.456 284.583 405.289 288.25C411.122 291.75 418.122 293.5 426.289 293.5C434.456 293.5 441.456 291.75 447.289 288.25C453.122 284.583 457.622 279.5 460.789 273C463.956 266.5 465.539 259 465.539 250.5C465.539 241.833 464.039 234.333 461.039 228C458.039 221.5 453.622 216.5 447.789 213C442.122 209.333 434.956 207.5 426.289 207.5C418.122 207.5 411.122 209.333 405.289 213C399.456 216.5 394.956 221.5 391.789 228C388.622 234.333 387.039 241.833 387.039 250.5ZM328.789 250.5C328.789 236.5 331.289 223.833 336.289 212.5C341.289 201.167 348.206 191.417 357.039 183.25C365.872 175.083 376.206 168.833 388.039 164.5C399.872 160.167 412.622 158 426.289 158C440.289 158 453.206 160.167 465.039 164.5C476.872 168.833 487.206 175.083 496.039 183.25C504.872 191.417 511.706 201.167 516.539 212.5C521.372 223.833 523.789 236.5 523.789 250.5C523.789 264.5 521.372 277.333 516.539 289C511.872 300.5 505.206 310.5 496.539 319C487.872 327.5 477.539 334 465.539 338.5C453.706 343.167 440.622 345.5 426.289 345.5C411.956 345.5 398.789 343.167 386.789 338.5C374.956 334 364.706 327.5 356.039 319C347.372 310.5 340.622 300.5 335.789 289C331.122 277.333 328.789 264.5 328.789 250.5ZM662.5 163H715V346.75L601.25 258.75V338H548.75V154.25L662.5 242.25V163ZM732.422 211.75V163H887.422V211.75H837.422V338H782.422V211.75H732.422ZM942.951 338V294.25H1031.2V338H942.951ZM942.951 206.75V163H1031.2V206.75H942.951ZM942.951 269.25V226.75H1026.2V269.25H942.951ZM904.951 163H957.451V338H904.951V163ZM1177.39 163H1229.89V346.75L1116.14 258.75V338H1063.64V154.25L1177.39 242.25V163ZM1264.81 163H1322.06V338H1264.81V163ZM1333.56 338H1302.81V290.5H1331.06C1335.9 290.5 1340.81 290.083 1345.81 289.25C1350.81 288.417 1355.4 286.667 1359.56 284C1363.73 281.333 1367.06 277.333 1369.56 272C1372.23 266.667 1373.56 259.5 1373.56 250.5C1373.56 241.5 1372.23 234.333 1369.56 229C1367.06 223.667 1363.73 219.667 1359.56 217C1355.4 214.333 1350.81 212.583 1345.81 211.75C1340.81 210.917 1335.9 210.5 1331.06 210.5H1302.81V163H1333.56C1353.9 163 1371.31 166.5 1385.81 173.5C1400.48 180.5 1411.65 190.5 1419.31 203.5C1427.15 216.5 1431.06 232.167 1431.06 250.5C1431.06 268.667 1427.15 284.333 1419.31 297.5C1411.65 310.5 1400.48 320.5 1385.81 327.5C1371.31 334.5 1353.9 338 1333.56 338Z"/>
</mask>
<path d="M55.5 209.25H54.5V210.25H55.5V209.25ZM55.5 163V162H54.5V163H55.5ZM133.75 163H134.75V162H133.75V163ZM133.75 209.25V210.25H134.75V209.25H133.75ZM55.5 276.75H54.5V277.75H55.5V276.75ZM55.5 234.25V233.25H54.5V234.25H55.5ZM131.25 234.25H132.25V233.25H131.25V234.25ZM131.25 276.75V277.75H132.25V276.75H131.25ZM17.5 163V162H16.5V163H17.5ZM70 163H71V162H70V163ZM70 338V339H71V338H70ZM17.5 338H16.5V339H17.5V338ZM55.5 209.25H56.5V163H55.5H54.5V209.25H55.5ZM55.5 163V164H133.75V163V162H55.5V163ZM133.75 163H132.75V209.25H133.75H134.75V163H133.75ZM133.75 209.25V208.25H55.5V209.25V210.25H133.75V209.25ZM55.5 276.75H56.5V234.25H55.5H54.5V276.75H55.5ZM55.5 234.25V235.25H131.25V234.25V233.25H55.5V234.25ZM131.25 234.25H130.25V276.75H131.25H132.25V234.25H131.25ZM131.25 276.75V275.75H55.5V276.75V277.75H131.25V276.75ZM17.5 163V164H70V163V162H17.5V163ZM70 163H69V338H70H71V163H70ZM70 338V337H17.5V338V339H70V338ZM17.5 338H18.5V163H17.5H16.5V338H17.5ZM214.99 263V262H213.274L214.12 263.493L214.99 263ZM271.24 263L272.072 262.445L271.775 262H271.24V263ZM321.24 338V339H323.109L322.072 337.445L321.24 338ZM257.49 338L256.62 338.493L256.908 339H257.49V338ZM163.74 163V162H162.74V163H163.74ZM218.74 163H219.74V162H218.74V163ZM218.74 338V339H219.74V338H218.74ZM163.74 338H162.74V339H163.74V338ZM199.24 209.25H198.24V210.25H199.24V209.25ZM199.24 163V162H198.24V163H199.24ZM279.24 170.75L278.804 171.65L278.81 171.653L279.24 170.75ZM302.99 192L302.116 192.486L302.123 192.498L302.99 192ZM302.99 254L302.119 253.509L302.116 253.514L302.99 254ZM279.24 275.25L278.81 274.347L278.804 274.35L279.24 275.25ZM199.24 283H198.24V284H199.24V283ZM199.24 241.75V240.75H198.24V241.75H199.24ZM243.99 240L244.353 240.932L244.375 240.923L244.396 240.914L243.99 240ZM250.74 234.25L249.908 233.695L249.895 233.715L249.883 233.736L250.74 234.25ZM250.74 216.75L249.883 217.264L249.903 217.299L249.926 217.331L250.74 216.75ZM243.99 211.25L243.584 212.164L243.606 212.173L243.628 212.182L243.99 211.25ZM214.99 263V264H271.24V263V262H214.99V263ZM271.24 263L270.408 263.555L320.408 338.555L321.24 338L322.072 337.445L272.072 262.445L271.24 263ZM321.24 338V337H257.49V338V339H321.24V338ZM257.49 338L258.36 337.507L215.86 262.507L214.99 263L214.12 263.493L256.62 338.493L257.49 338ZM163.74 163V164H218.74V163V162H163.74V163ZM218.74 163H217.74V338H218.74H219.74V163H218.74ZM218.74 338V337H163.74V338V339H218.74V338ZM163.74 338H164.74V163H163.74H162.74V338H163.74ZM199.24 209.25H200.24V163H199.24H198.24V209.25H199.24ZM199.24 163V164H237.49V163V162H199.24V163ZM237.49 163V164C254.569 164 268.32 166.572 278.804 171.65L279.24 170.75L279.676 169.85C268.827 164.595 254.745 162 237.49 162V163ZM279.24 170.75L278.81 171.653C289.488 176.745 297.233 183.696 302.116 192.486L302.99 192L303.864 191.514C298.747 182.304 290.66 175.088 279.671 169.847L279.24 170.75ZM302.99 192L302.123 192.498C307.192 201.328 309.74 211.486 309.74 223H310.74H311.74C311.74 211.181 309.122 200.672 303.857 191.502L302.99 192ZM310.74 223H309.74C309.74 234.344 307.194 244.506 302.119 253.509L302.99 254L303.861 254.491C309.12 245.161 311.74 234.656 311.74 223H310.74ZM302.99 254L302.116 253.514C297.233 262.304 289.488 269.255 278.81 274.347L279.24 275.25L279.671 276.153C290.66 270.912 298.747 263.696 303.864 254.486L302.99 254ZM279.24 275.25L278.804 274.35C268.32 279.428 254.569 282 237.49 282V283V284C254.745 284 268.827 281.405 279.676 276.15L279.24 275.25ZM237.49 283V282H199.24V283V284H237.49V283ZM199.24 283H200.24V241.75H199.24H198.24V283H199.24ZM199.24 241.75V242.75H232.49V241.75V240.75H199.24V241.75ZM232.49 241.75V242.75C237.23 242.75 241.198 242.159 244.353 240.932L243.99 240L243.628 239.068C240.783 240.174 237.084 240.75 232.49 240.75V241.75ZM243.99 240L244.396 240.914C247.56 239.508 249.979 237.463 251.598 234.764L250.74 234.25L249.883 233.736C248.502 236.037 246.421 237.825 243.584 239.086L243.99 240ZM250.74 234.25L251.572 234.805C253.36 232.123 254.24 229.008 254.24 225.5H253.24H252.24C252.24 228.658 251.454 231.377 249.908 233.695L250.74 234.25ZM253.24 225.5H254.24C254.24 221.838 253.366 218.706 251.554 216.169L250.74 216.75L249.926 217.331C251.447 219.461 252.24 222.162 252.24 225.5H253.24ZM250.74 216.75L251.598 216.236C249.972 213.525 247.537 211.556 244.353 210.318L243.99 211.25L243.628 212.182C246.444 213.277 248.509 214.975 249.883 217.264L250.74 216.75ZM243.99 211.25L244.396 210.336C241.227 208.927 237.242 208.25 232.49 208.25V209.25V210.25C237.072 210.25 240.754 210.906 243.584 212.164L243.99 211.25ZM232.49 209.25V208.25H199.24V209.25V210.25H232.49V209.25ZM391.789 273L390.89 273.438L391.789 273ZM405.289 288.25L404.757 289.097L404.766 289.102L404.775 289.107L405.289 288.25ZM447.289 288.25L447.804 289.107L447.812 289.102L447.821 289.097L447.289 288.25ZM461.039 228L460.131 228.419L460.135 228.428L461.039 228ZM447.789 213L447.246 213.84L447.26 213.849L447.275 213.857L447.789 213ZM405.289 213L405.804 213.857L405.812 213.852L405.821 213.847L405.289 213ZM391.789 228L392.684 228.447L392.688 228.438L391.789 228ZM357.039 183.25L357.718 183.984L357.039 183.25ZM388.039 164.5L388.383 165.439L388.039 164.5ZM465.039 164.5L464.695 165.439L465.039 164.5ZM496.039 183.25L495.36 183.984L496.039 183.25ZM516.539 212.5L515.619 212.892L516.539 212.5ZM516.539 289L515.615 288.617L515.612 288.624L516.539 289ZM496.539 319L495.839 318.286L496.539 319ZM465.539 338.5L465.188 337.564L465.18 337.567L465.172 337.57L465.539 338.5ZM386.789 338.5L387.152 337.568L387.145 337.565L386.789 338.5ZM356.039 319L356.739 318.286L356.039 319ZM335.789 289L334.861 289.371L334.864 289.379L334.867 289.387L335.789 289ZM387.039 250.5H386.039C386.039 259.125 387.646 266.78 390.89 273.438L391.789 273L392.688 272.562C389.599 266.22 388.039 258.875 388.039 250.5H387.039ZM391.789 273L390.89 273.438C394.134 280.097 398.758 285.326 404.757 289.097L405.289 288.25L405.821 287.403C400.154 283.841 395.777 278.903 392.688 272.562L391.789 273ZM405.289 288.25L404.775 289.107C410.792 292.718 417.978 294.5 426.289 294.5V293.5V292.5C418.267 292.5 411.453 290.782 405.804 287.393L405.289 288.25ZM426.289 293.5V294.5C434.6 294.5 441.786 292.718 447.804 289.107L447.289 288.25L446.775 287.393C441.125 290.782 434.311 292.5 426.289 292.5V293.5ZM447.289 288.25L447.821 289.097C453.821 285.326 458.444 280.097 461.688 273.438L460.789 273L459.89 272.562C456.801 278.903 452.424 283.841 446.757 287.403L447.289 288.25ZM460.789 273L461.688 273.438C464.932 266.78 466.539 259.125 466.539 250.5H465.539H464.539C464.539 258.875 462.98 266.22 459.89 272.562L460.789 273ZM465.539 250.5H466.539C466.539 241.719 465.019 234.067 461.943 227.572L461.039 228L460.135 228.428C463.059 234.6 464.539 241.947 464.539 250.5H465.539ZM461.039 228L461.947 227.581C458.868 220.909 454.318 215.751 448.304 212.143L447.789 213L447.275 213.857C452.926 217.249 457.211 222.091 460.131 228.419L461.039 228ZM447.789 213L448.332 212.16C442.464 208.363 435.094 206.5 426.289 206.5V207.5V208.5C434.817 208.5 441.781 210.304 447.246 213.84L447.789 213ZM426.289 207.5V206.5C417.969 206.5 410.777 208.369 404.757 212.153L405.289 213L405.821 213.847C411.468 210.297 418.275 208.5 426.289 208.5V207.5ZM405.289 213L404.775 212.143C398.765 215.749 394.136 220.899 390.89 227.562L391.789 228L392.688 228.438C395.775 222.101 400.147 217.251 405.804 213.857L405.289 213ZM391.789 228L390.895 227.553C387.645 234.053 386.039 241.712 386.039 250.5H387.039H388.039C388.039 241.954 389.6 234.614 392.684 228.447L391.789 228ZM328.789 250.5H329.789C329.789 236.621 332.267 224.094 337.204 212.904L336.289 212.5L335.374 212.096C330.311 223.572 327.789 236.379 327.789 250.5H328.789ZM336.289 212.5L337.204 212.904C342.15 201.692 348.988 192.055 357.718 183.984L357.039 183.25L356.36 182.516C347.423 190.778 340.428 200.642 335.374 212.096L336.289 212.5ZM357.039 183.25L357.718 183.984C366.45 175.912 376.668 169.729 388.383 165.439L388.039 164.5L387.695 163.561C375.744 167.938 365.295 174.255 356.36 182.516L357.039 183.25ZM388.039 164.5L388.383 165.439C400.097 161.149 412.73 159 426.289 159V158V157C412.515 157 399.648 159.184 387.695 163.561L388.039 164.5ZM426.289 158V159C440.185 159 452.984 161.15 464.695 165.439L465.039 164.5L465.383 163.561C453.428 159.183 440.393 157 426.289 157V158ZM465.039 164.5L464.695 165.439C476.41 169.729 486.629 175.912 495.36 183.984L496.039 183.25L496.718 182.516C487.783 174.255 477.334 167.938 465.383 163.561L465.039 164.5ZM496.039 183.25L495.36 183.984C504.087 192.053 510.84 201.685 515.619 212.892L516.539 212.5L517.459 212.108C512.572 200.648 505.657 190.78 496.718 182.516L496.039 183.25ZM516.539 212.5L515.619 212.892C520.393 224.086 522.789 236.617 522.789 250.5H523.789H524.789C524.789 236.383 522.352 223.581 517.459 212.108L516.539 212.5ZM523.789 250.5H522.789C522.789 264.383 520.393 277.084 515.615 288.617L516.539 289L517.463 289.383C522.352 277.582 524.789 264.617 524.789 250.5H523.789ZM516.539 289L515.612 288.624C510.996 300 504.405 309.884 495.839 318.286L496.539 319L497.239 319.714C506.006 311.116 512.749 301 517.466 289.376L516.539 289ZM496.539 319L495.839 318.286C487.277 326.683 477.065 333.11 465.188 337.564L465.539 338.5L465.89 339.436C478.013 334.89 488.468 328.317 497.239 319.714L496.539 319ZM465.539 338.5L465.172 337.57C453.47 342.185 440.513 344.5 426.289 344.5V345.5V346.5C440.732 346.5 453.942 344.148 465.906 339.43L465.539 338.5ZM426.289 345.5V344.5C412.066 344.5 399.024 342.185 387.152 337.568L386.789 338.5L386.427 339.432C398.555 344.148 411.846 346.5 426.289 346.5V345.5ZM386.789 338.5L387.145 337.565C375.434 333.112 365.303 326.685 356.739 318.286L356.039 319L355.339 319.714C364.108 328.315 374.477 334.888 386.434 339.435L386.789 338.5ZM356.039 319L356.739 318.286C348.17 309.882 341.494 299.994 336.711 288.613L335.789 289L334.867 289.387C339.751 301.006 346.575 311.118 355.339 319.714L356.039 319ZM335.789 289L336.718 288.629C332.103 277.093 329.789 264.387 329.789 250.5H328.789H327.789C327.789 264.613 330.142 277.574 334.861 289.371L335.789 289ZM662.5 163V162H661.5V163H662.5ZM715 163H716V162H715V163ZM715 346.75L714.388 347.541L716 348.788V346.75H715ZM601.25 258.75L601.862 257.959L600.25 256.712V258.75H601.25ZM601.25 338V339H602.25V338H601.25ZM548.75 338H547.75V339H548.75V338ZM548.75 154.25L549.362 153.459L547.75 152.212V154.25H548.75ZM662.5 242.25L661.888 243.041L663.5 244.288V242.25H662.5ZM662.5 163V164H715V163V162H662.5V163ZM715 163H714V346.75H715H716V163H715ZM715 346.75L715.612 345.959L601.862 257.959L601.25 258.75L600.638 259.541L714.388 347.541L715 346.75ZM601.25 258.75H600.25V338H601.25H602.25V258.75H601.25ZM601.25 338V337H548.75V338V339H601.25V338ZM548.75 338H549.75V154.25H548.75H547.75V338H548.75ZM548.75 154.25L548.138 155.041L661.888 243.041L662.5 242.25L663.112 241.459L549.362 153.459L548.75 154.25ZM662.5 242.25H663.5V163H662.5H661.5V242.25H662.5ZM732.422 211.75H731.422V212.75H732.422V211.75ZM732.422 163V162H731.422V163H732.422ZM887.422 163H888.422V162H887.422V163ZM887.422 211.75V212.75H888.422V211.75H887.422ZM837.422 211.75V210.75H836.422V211.75H837.422ZM837.422 338V339H838.422V338H837.422ZM782.422 338H781.422V339H782.422V338ZM782.422 211.75H783.422V210.75H782.422V211.75ZM732.422 211.75H733.422V163H732.422H731.422V211.75H732.422ZM732.422 163V164H887.422V163V162H732.422V163ZM887.422 163H886.422V211.75H887.422H888.422V163H887.422ZM887.422 211.75V210.75H837.422V211.75V212.75H887.422V211.75ZM837.422 211.75H836.422V338H837.422H838.422V211.75H837.422ZM837.422 338V337H782.422V338V339H837.422V338ZM782.422 338H783.422V211.75H782.422H781.422V338H782.422ZM782.422 211.75V210.75H732.422V211.75V212.75H782.422V211.75ZM942.951 338H941.951V339H942.951V338ZM942.951 294.25V293.25H941.951V294.25H942.951ZM1031.2 294.25H1032.2V293.25H1031.2V294.25ZM1031.2 338V339H1032.2V338H1031.2ZM942.951 206.75H941.951V207.75H942.951V206.75ZM942.951 163V162H941.951V163H942.951ZM1031.2 163H1032.2V162H1031.2V163ZM1031.2 206.75V207.75H1032.2V206.75H1031.2ZM942.951 269.25H941.951V270.25H942.951V269.25ZM942.951 226.75V225.75H941.951V226.75H942.951ZM1026.2 226.75H1027.2V225.75H1026.2V226.75ZM1026.2 269.25V270.25H1027.2V269.25H1026.2ZM904.951 163V162H903.951V163H904.951ZM957.451 163H958.451V162H957.451V163ZM957.451 338V339H958.451V338H957.451ZM904.951 338H903.951V339H904.951V338ZM942.951 338H943.951V294.25H942.951H941.951V338H942.951ZM942.951 294.25V295.25H1031.2V294.25V293.25H942.951V294.25ZM1031.2 294.25H1030.2V338H1031.2H1032.2V294.25H1031.2ZM1031.2 338V337H942.951V338V339H1031.2V338ZM942.951 206.75H943.951V163H942.951H941.951V206.75H942.951ZM942.951 163V164H1031.2V163V162H942.951V163ZM1031.2 163H1030.2V206.75H1031.2H1032.2V163H1031.2ZM1031.2 206.75V205.75H942.951V206.75V207.75H1031.2V206.75ZM942.951 269.25H943.951V226.75H942.951H941.951V269.25H942.951ZM942.951 226.75V227.75H1026.2V226.75V225.75H942.951V226.75ZM1026.2 226.75H1025.2V269.25H1026.2H1027.2V226.75H1026.2ZM1026.2 269.25V268.25H942.951V269.25V270.25H1026.2V269.25ZM904.951 163V164H957.451V163V162H904.951V163ZM957.451 163H956.451V338H957.451H958.451V163H957.451ZM957.451 338V337H904.951V338V339H957.451V338ZM904.951 338H905.951V163H904.951H903.951V338H904.951ZM1177.39 163V162H1176.39V163H1177.39ZM1229.89 163H1230.89V162H1229.89V163ZM1229.89 346.75L1229.28 347.541L1230.89 348.788V346.75H1229.89ZM1116.14 258.75L1116.75 257.959L1115.14 256.712V258.75H1116.14ZM1116.14 338V339H1117.14V338H1116.14ZM1063.64 338H1062.64V339H1063.64V338ZM1063.64 154.25L1064.25 153.459L1062.64 152.212V154.25H1063.64ZM1177.39 242.25L1176.78 243.041L1178.39 244.288V242.25H1177.39ZM1177.39 163V164H1229.89V163V162H1177.39V163ZM1229.89 163H1228.89V346.75H1229.89H1230.89V163H1229.89ZM1229.89 346.75L1230.5 345.959L1116.75 257.959L1116.14 258.75L1115.53 259.541L1229.28 347.541L1229.89 346.75ZM1116.14 258.75H1115.14V338H1116.14H1117.14V258.75H1116.14ZM1116.14 338V337H1063.64V338V339H1116.14V338ZM1063.64 338H1064.64V154.25H1063.64H1062.64V338H1063.64ZM1063.64 154.25L1063.03 155.041L1176.78 243.041L1177.39 242.25L1178 241.459L1064.25 153.459L1063.64 154.25ZM1177.39 242.25H1178.39V163H1177.39H1176.39V242.25H1177.39ZM1264.81 163V162H1263.81V163H1264.81ZM1322.06 163H1323.06V162H1322.06V163ZM1322.06 338V339H1323.06V338H1322.06ZM1264.81 338H1263.81V339H1264.81V338ZM1302.81 338H1301.81V339H1302.81V338ZM1302.81 290.5V289.5H1301.81V290.5H1302.81ZM1369.56 272L1368.67 271.553L1368.66 271.564L1368.66 271.576L1369.56 272ZM1369.56 229L1368.66 229.424L1368.66 229.436L1368.67 229.447L1369.56 229ZM1359.56 217L1360.1 216.158L1359.56 217ZM1345.81 211.75L1345.65 212.736L1345.81 211.75ZM1302.81 210.5H1301.81V211.5H1302.81V210.5ZM1302.81 163V162H1301.81V163H1302.81ZM1385.81 173.5L1385.38 174.401L1385.38 174.402L1385.81 173.5ZM1419.31 203.5L1418.45 204.008L1418.46 204.016L1419.31 203.5ZM1419.31 297.5L1418.46 296.989L1418.45 296.992L1419.31 297.5ZM1385.81 327.5L1385.38 326.598L1385.38 326.599L1385.81 327.5ZM1264.81 163V164H1322.06V163V162H1264.81V163ZM1322.06 163H1321.06V338H1322.06H1323.06V163H1322.06ZM1322.06 338V337H1264.81V338V339H1322.06V338ZM1264.81 338H1265.81V163H1264.81H1263.81V338H1264.81ZM1333.56 338V337H1302.81V338V339H1333.56V338ZM1302.81 338H1303.81V290.5H1302.81H1301.81V338H1302.81ZM1302.81 290.5V291.5H1331.06V290.5V289.5H1302.81V290.5ZM1331.06 290.5V291.5C1335.96 291.5 1340.93 291.078 1345.98 290.236L1345.81 289.25L1345.65 288.264C1340.7 289.088 1335.84 289.5 1331.06 289.5V290.5ZM1345.81 289.25L1345.98 290.236C1351.11 289.381 1355.82 287.584 1360.1 284.842L1359.56 284L1359.03 283.158C1354.98 285.75 1350.52 287.452 1345.65 288.264L1345.81 289.25ZM1359.56 284L1360.1 284.842C1364.46 282.056 1367.91 277.896 1370.47 272.424L1369.56 272L1368.66 271.576C1366.22 276.771 1363 280.611 1359.03 283.158L1359.56 284ZM1369.56 272L1370.46 272.447C1373.22 266.922 1374.56 259.583 1374.56 250.5H1373.56H1372.56C1372.56 259.417 1371.24 266.411 1368.67 271.553L1369.56 272ZM1373.56 250.5H1374.56C1374.56 241.417 1373.22 234.078 1370.46 228.553L1369.56 229L1368.67 229.447C1371.24 234.589 1372.56 241.583 1372.56 250.5H1373.56ZM1369.56 229L1370.47 228.576C1367.91 223.104 1364.46 218.944 1360.1 216.158L1359.56 217L1359.03 217.842C1363 220.389 1366.22 224.229 1368.66 229.424L1369.56 229ZM1359.56 217L1360.1 216.158C1355.82 213.416 1351.11 211.619 1345.98 210.764L1345.81 211.75L1345.65 212.736C1350.52 213.548 1354.98 215.25 1359.03 217.842L1359.56 217ZM1345.81 211.75L1345.98 210.764C1340.93 209.922 1335.96 209.5 1331.06 209.5V210.5V211.5C1335.84 211.5 1340.7 211.912 1345.65 212.736L1345.81 211.75ZM1331.06 210.5V209.5H1302.81V210.5V211.5H1331.06V210.5ZM1302.81 210.5H1303.81V163H1302.81H1301.81V210.5H1302.81ZM1302.81 163V164H1333.56V163V162H1302.81V163ZM1333.56 163V164C1353.79 164 1371.05 167.481 1385.38 174.401L1385.81 173.5L1386.25 172.599C1371.58 165.519 1354.01 162 1333.56 162V163ZM1385.81 173.5L1385.38 174.402C1399.89 181.324 1410.9 191.193 1418.45 204.008L1419.31 203.5L1420.18 202.992C1412.4 189.807 1401.08 179.676 1386.25 172.598L1385.81 173.5ZM1419.31 203.5L1418.46 204.016C1426.18 216.831 1430.06 232.311 1430.06 250.5H1431.06H1432.06C1432.06 232.023 1428.12 216.169 1420.17 202.984L1419.31 203.5ZM1431.06 250.5H1430.06C1430.06 268.52 1426.18 284.003 1418.46 296.989L1419.31 297.5L1420.17 298.011C1428.11 284.663 1432.06 268.813 1432.06 250.5H1431.06ZM1419.31 297.5L1418.45 296.992C1410.9 309.807 1399.89 319.676 1385.38 326.598L1385.81 327.5L1386.25 328.402C1401.08 321.324 1412.4 311.193 1420.18 298.008L1419.31 297.5ZM1385.81 327.5L1385.38 326.599C1371.05 333.519 1353.79 337 1333.56 337V338V339C1354.01 339 1371.58 335.481 1386.25 328.401L1385.81 327.5Z" fill="white" fill-opacity="0.1" mask="url(#path-5-outside-3_142_6237)"/>
</svg>
