<svg width="766" height="938" viewBox="0 0 766 938" fill="none" xmlns="http://www.w3.org/2000/svg">
<path d="M384 86.5C594.693 86.5 765.5 258.643 765.5 471C765.5 683.357 594.693 855.5 384 855.5C173.307 855.5 2.5 683.357 2.5 471C2.5 258.643 173.307 86.5 384 86.5Z" stroke="#FF0000"/>
<path d="M383.5 131.5C454.576 131.5 518.906 139.109 565.452 151.4C588.729 157.547 607.53 164.857 620.5 172.955C633.496 181.069 640.5 189.884 640.5 199C640.5 208.116 633.496 216.931 620.5 225.045C607.53 233.143 588.729 240.453 565.452 246.6C518.906 258.891 454.576 266.5 383.5 266.5C312.424 266.5 248.094 258.891 201.548 246.6C178.271 240.453 159.47 233.143 146.5 225.045C133.504 216.931 126.5 208.116 126.5 199C126.5 189.884 133.504 181.069 146.5 172.955C159.47 164.857 178.271 157.547 201.548 151.4C248.094 139.109 312.424 131.5 383.5 131.5Z" stroke="#FF0000"/>
<path d="M384 267.5C482.009 267.5 570.726 275.11 634.929 287.408C667.034 293.558 692.985 300.875 710.896 308.986C719.854 313.043 726.773 317.287 731.446 321.661C736.119 326.035 738.5 330.496 738.5 335C738.5 339.504 736.119 343.965 731.446 348.339C726.773 352.713 719.854 356.957 710.896 361.014C692.985 369.125 667.034 376.442 634.929 382.592C570.726 394.89 482.009 402.5 384 402.5C285.991 402.5 197.274 394.89 133.071 382.592C100.966 376.442 75.0152 369.125 57.1035 361.014C48.1462 356.957 41.2266 352.713 36.5537 348.339C31.8808 343.965 29.5 339.504 29.5 335C29.5 330.496 31.8808 326.035 36.5537 321.661C41.2266 317.287 48.1462 313.043 57.1035 308.986C75.0152 300.875 100.966 293.558 133.071 287.408C197.274 275.11 285.991 267.5 384 267.5Z" stroke="#FF0000"/>
<path d="M383.5 401.5C488.828 401.5 584.172 409.277 653.172 421.848C687.676 428.133 715.568 435.613 734.822 443.906C744.451 448.054 751.892 452.393 756.917 456.867C761.944 461.343 764.5 465.902 764.5 470.5C764.5 475.098 761.944 479.657 756.917 484.133C751.892 488.607 744.451 492.946 734.822 497.094C715.568 505.387 687.676 512.867 653.172 519.152C584.172 531.723 488.828 539.5 383.5 539.5C278.172 539.5 182.828 531.723 113.828 519.152C79.324 512.867 51.4319 505.387 32.1777 497.094C22.5487 492.946 15.1083 488.607 10.083 484.133C5.05593 479.657 2.5 475.098 2.5 470.5C2.5 465.902 5.05593 461.343 10.083 456.867C15.1083 452.393 22.5487 448.054 32.1777 443.906C51.4319 435.613 79.324 428.133 113.828 421.848C182.828 409.277 278.172 401.5 383.5 401.5Z" stroke="#FF0000"/>
<path d="M384 540.5C482.009 540.5 570.726 548.054 634.93 560.262C667.035 566.366 692.986 573.629 710.897 581.682C719.855 585.708 726.774 589.921 731.447 594.263C736.121 598.605 738.5 603.032 738.5 607.5C738.5 611.968 736.121 616.395 731.447 620.737C726.774 625.079 719.855 629.292 710.897 633.318C692.986 641.371 667.035 648.634 634.93 654.738C570.726 666.946 482.009 674.5 384 674.5C285.991 674.5 197.274 666.946 133.07 654.738C100.965 648.634 75.0144 641.371 57.1025 633.318C48.145 629.292 41.2255 625.079 36.5527 620.737C31.8794 616.395 29.5 611.968 29.5 607.5C29.5 603.032 31.8794 598.605 36.5527 594.263C41.2255 589.921 48.145 585.708 57.1025 581.682C75.0144 573.629 100.965 566.366 133.07 560.262C197.274 548.054 285.991 540.5 384 540.5Z" stroke="#FF0000"/>
<path d="M384.5 675.5C455.299 675.5 519.378 683.276 565.742 695.839C588.928 702.121 607.655 709.592 620.573 717.868C633.515 726.159 640.5 735.17 640.5 744.5C640.5 753.83 633.515 762.841 620.573 771.132C607.655 779.408 588.928 786.879 565.742 793.161C519.378 805.724 455.299 813.5 384.5 813.5C313.701 813.5 249.622 805.724 203.258 793.161C180.072 786.879 161.345 779.408 148.427 771.132C135.485 762.841 128.5 753.83 128.5 744.5C128.5 735.17 135.485 726.159 148.427 717.868C161.345 709.592 180.072 702.121 203.258 695.839C249.622 683.276 313.701 675.5 384.5 675.5Z" stroke="#FF0000"/>
</svg>
