<svg width="151" height="28" viewBox="0 0 151 28" fill="none" xmlns="http://www.w3.org/2000/svg">
<g clip-path="url(#clip0_102_1665)">
<path d="M86.9106 3.92006C84.6285 3.47206 84.692 1.49339 85.0088 0.560059H104.977C108.02 0.560059 110.112 2.24006 110.683 3.17339C113.117 6.01073 112.458 9.95563 111.824 11.5734C110.454 14.5601 106.562 15.5556 104.787 15.6801L114.676 27.4401H109.732L102.695 19.4134L96.6096 12.1334H104.026C107.259 12.1334 108.591 10.4534 108.781 9.52006C109.732 5.97339 107.069 4.10673 105.738 3.92006H86.9106Z" fill="#FF0000"/>
<path d="M85.0088 26.3199V15.6799C87.5952 15.0826 88.4955 16.3021 88.6222 16.9866V27.8132C86.1879 28.1119 85.199 26.9421 85.0088 26.3199Z" fill="#FF0000"/>
<path d="M123.805 11.0133C125.478 15.4933 130.968 15.9911 133.504 15.68V12.32C131.475 12.4444 127.38 11.872 127.228 8.58662C127.076 5.30129 129.32 4.23106 130.461 4.10662H148.528C150.506 2.61329 150.113 0.995514 149.669 0.373291H129.32C122.664 2.61329 122.537 8.77329 123.805 11.0133Z" fill="#FF0000"/>
<path d="M142.632 15.8667C140.807 15.5681 140.604 13.3778 140.73 12.3201L144.914 12.5067C145.979 12.8054 147.26 13.6267 147.767 14.0001C151.418 16.5387 150.936 21.2801 150.239 23.3334C148.566 26.6187 145.865 27.5645 144.724 27.6267H123.615C123.462 24.9387 124.565 24.2667 125.136 24.2667L144.344 24.0801C146.93 23.1841 147.323 20.7201 147.196 19.6001C147.044 16.4641 144.09 15.8045 142.632 15.8667Z" fill="#FF0000"/>
<path d="M58.7645 0.373291C57.8516 0.522624 47.2273 18.2311 42.029 27.0666L41.6486 27.6266H42.029H46.0227L60.4761 4.47996L70.9358 24.2666H60.0957C59.0307 24.5653 59.0182 26.6311 59.1448 27.6266H77.0214L62.3778 0.373291H58.7645Z" fill="#FF0000"/>
<path d="M14.6436 18.8534L0.380341 2.24004V0.560044H3.23299L16.7355 14.56C20.7926 10.1423 29.135 1.15738 30.0478 0.560044C30.9607 -0.0372904 32.0764 0.311154 32.5201 0.560044V27.6267C30.238 28.0747 29.1604 26.8178 28.9068 26.1334V6.34671C25.6104 10.2667 18.8274 18.256 18.0667 18.8534C17.306 19.4507 15.4677 19.1023 14.6436 18.8534Z" fill="#FF0000"/>
<path d="M0.190186 26.3199V15.8666C1.86374 15.2692 3.54997 16.1155 4.18389 16.6132V27.4399C2.05391 27.8879 0.633932 26.8799 0.190186 26.3199Z" fill="#FF0000"/>
</g>
<defs>
<clipPath id="clip0_102_1665">
<rect width="151" height="28" fill="white"/>
</clipPath>
</defs>
</svg>
