<svg width="1512" height="285" viewBox="0 0 1512 285" fill="none" xmlns="http://www.w3.org/2000/svg">
<path d="M871.675 38.625C848.799 34.0083 849.435 13.6181 852.611 4H1052.78C1083.28 4 1104.25 21.3125 1109.97 30.9306C1134.37 60.1694 1127.76 100.822 1121.4 117.493C1107.68 148.271 1068.66 158.53 1050.87 159.813L1150 281H1100.44L1029.9 198.285L968.898 123.264H1043.25C1075.65 123.264 1089 105.951 1090.9 96.3333C1100.44 59.7847 1073.75 40.5486 1060.4 38.625H871.675Z" fill="#FF0000"/>
<path d="M852 269.139V159.645C877.768 153.498 886.738 166.049 888 173.092V284.507C863.747 287.58 853.895 275.542 852 269.139Z" fill="#FF0000"/>
<path d="M1241.3 111.679C1258.12 158.281 1313.33 163.459 1338.83 160.223V125.272C1318.43 126.566 1277.25 120.611 1275.72 86.4368C1274.19 52.2621 1296.75 41.1293 1308.23 39.8349H1489.9C1509.79 24.3009 1505.84 7.47249 1501.38 1H1296.75C1229.82 24.3009 1228.55 88.3785 1241.3 111.679Z" fill="#FF0000"/>
<path d="M1430.84 160.61C1412.53 157.527 1410.5 134.919 1411.77 124L1453.72 125.927C1464.4 129.01 1477.24 137.488 1482.33 141.341C1518.94 167.546 1514.11 216.488 1507.12 237.683C1490.34 271.595 1463.26 281.358 1451.81 282H1240.14C1238.62 254.254 1249.68 247.317 1255.4 247.317L1448 245.39C1473.94 236.141 1477.88 210.707 1476.61 199.146C1475.08 166.776 1445.46 159.967 1430.84 160.61Z" fill="#FF0000"/>
<path d="M588.774 1C579.613 2.53973 472.987 185.125 420.817 276.226L417 282H420.817H460.898L605.952 43.3425L710.925 247.356H602.134C591.446 250.436 591.32 271.735 592.591 282H772L625.038 1H588.774Z" fill="#FF0000"/>
<path d="M144.899 191.713L2 20.6898V3.39528H30.5799L165.858 147.516C206.505 102.038 290.085 9.54445 299.231 3.39528C308.376 -2.7539 319.554 0.833116 324 3.39528V282.029C301.136 286.641 290.339 273.702 287.799 266.656V62.9653C254.773 103.319 186.817 185.564 179.195 191.713C171.574 197.863 153.156 194.276 144.899 191.713Z" fill="#FF0000"/>
<path d="M0 269.259V161.125C16.7619 154.946 33.6508 163.7 40 168.849V280.845C18.6667 285.479 4.44446 275.052 0 269.259Z" fill="#FF0000"/>
</svg>
