<svg width="740" height="422" viewBox="0 0 740 422" fill="none" xmlns="http://www.w3.org/2000/svg">
<g filter="url(#filter0_f_167_6327)">
<ellipse cx="75.0195" cy="143.799" rx="75.0195" ry="143.799" transform="matrix(0.676917 0.73606 -0.666629 0.74539 416.078 48.9731)" fill="url(#paint0_linear_167_6327)" fill-opacity="0.4"/>
</g>
<path d="M425.919 109.118C414.736 106.862 415.047 96.8978 416.6 92.1978H514.458C529.37 92.1978 539.622 100.658 542.418 105.358C554.348 119.646 551.117 139.511 548.01 147.658C541.3 162.698 522.226 167.711 513.526 168.338L561.99 227.558H537.758L503.275 187.138L473.451 150.478H509.799C525.642 150.478 532.166 142.018 533.098 137.318C537.758 119.458 524.71 110.058 518.186 109.118H425.919Z" fill="#FF0000"/>
<path d="M416.599 221.918V168.338C429.275 165.33 433.687 171.471 434.307 174.918V229.438C422.378 230.942 417.531 225.051 416.599 221.918Z" fill="#FF0000"/>
<path d="M606.725 144.838C614.927 167.398 641.83 169.904 654.257 168.338V151.418C644.316 152.044 624.247 149.162 623.501 132.618C622.756 116.074 633.753 110.684 639.345 110.058H727.884C737.577 102.538 735.651 94.3912 733.476 91.2578H633.753C601.133 102.538 600.513 133.558 606.725 144.838Z" fill="#FF0000"/>
<path d="M698.993 169.278C690.045 167.774 689.052 156.745 689.673 151.418L710.176 152.358C715.396 153.862 721.672 157.998 724.156 159.878C742.05 172.662 739.689 196.538 736.272 206.878C728.071 223.422 714.836 228.185 709.244 228.498H605.794C605.048 214.962 610.453 211.578 613.249 211.578L707.38 210.638C720.055 206.126 721.981 193.718 721.36 188.078C720.615 172.286 706.137 168.965 698.993 169.278Z" fill="#FF0000"/>
<path d="M287.985 91.2578C283.511 92.0098 231.445 181.184 205.97 225.678L204.106 228.498H205.97H225.542L296.373 111.938L347.632 211.578H294.509C289.29 213.082 289.228 223.484 289.849 228.498H377.456L305.693 91.2578H287.985Z" fill="#FF0000"/>
<path d="M71.7632 184.318L1.86395 100.658V92.198H15.8438L82.0151 162.698C101.898 140.451 142.781 95.206 147.254 92.198C151.728 89.19 157.196 90.9446 159.37 92.198V228.498C148.186 230.754 142.905 224.425 141.662 220.978V121.338C125.508 141.078 92.267 181.31 88.539 184.318C84.811 187.326 75.8019 185.571 71.7632 184.318Z" fill="#FF0000"/>
<path d="M0.932007 221.918V169.278C9.13352 166.27 17.3972 170.531 20.5038 173.038V227.558C10.0655 229.814 3.10666 224.738 0.932007 221.918Z" fill="#FF0000"/>
<defs>
<filter id="filter0_f_167_6327" x="172.498" y="0.779297" width="397.004" height="421.198" filterUnits="userSpaceOnUse" color-interpolation-filters="sRGB">
<feFlood flood-opacity="0" result="BackgroundImageFix"/>
<feBlend mode="normal" in="SourceGraphic" in2="BackgroundImageFix" result="shape"/>
<feGaussianBlur stdDeviation="45" result="effect1_foregroundBlur_167_6327"/>
</filter>
<linearGradient id="paint0_linear_167_6327" x1="75.0195" y1="0" x2="75.0195" y2="287.598" gradientUnits="userSpaceOnUse">
<stop stop-color="#D34725"/>
<stop offset="0.692308" stop-color="#D34725"/>
</linearGradient>
</defs>
</svg>
