<svg width="320" height="1233" viewBox="0 0 320 1233" fill="none" xmlns="http://www.w3.org/2000/svg">
<mask id="path-1-outside-1_142_6238" maskUnits="userSpaceOnUse" x="48" y="315.539" width="558" height="873" fill="black">
<rect fill="white" x="48" y="315.539" width="558" height="873"/>
<path d="M105.25 1149.04H59L59 1070.79H105.25V1149.04ZM172.75 1149.04H130.25V1073.29H172.75V1149.04ZM59 1187.04V1134.54H234V1187.04H59ZM159 989.549L159 933.299L234 883.299V947.049L159 989.549ZM59 1040.8V985.799H234V1040.8H59ZM105.25 1005.3H59V967.049C59 949.882 61.5833 935.965 66.75 925.299C71.9167 914.465 79 906.549 88 901.549C97 896.382 107.333 893.799 119 893.799C130.5 893.799 140.833 896.382 150 901.549C159 906.549 166.083 914.465 171.25 925.299C176.417 935.965 179 949.882 179 967.049L179 1005.3H137.75L137.75 972.049C137.75 967.382 137.167 963.549 136 960.549C134.667 957.549 132.75 955.299 130.25 953.799C127.75 952.132 124.833 951.299 121.5 951.299C118 951.299 115.083 952.132 112.75 953.799C110.25 955.299 108.417 957.549 107.25 960.549C105.917 963.549 105.25 967.382 105.25 972.049L105.25 1005.3ZM146.5 817.5C155 817.5 162.5 815.917 169 812.75C175.5 809.583 180.583 805.083 184.25 799.25C187.75 793.417 189.5 786.417 189.5 778.25C189.5 770.083 187.75 763.083 184.25 757.25C180.583 751.417 175.5 746.917 169 743.75C162.5 740.583 155 739 146.5 739C137.833 739 130.333 740.5 124 743.5C117.5 746.5 112.5 750.917 109 756.75C105.333 762.417 103.5 769.583 103.5 778.25C103.5 786.417 105.333 793.417 109 799.25C112.5 805.083 117.5 809.583 124 812.75C130.333 815.917 137.833 817.5 146.5 817.5ZM146.5 875.75C132.5 875.75 119.833 873.25 108.5 868.25C97.1667 863.25 87.4167 856.333 79.25 847.5C71.0833 838.667 64.8333 828.333 60.5 816.5C56.1667 804.667 54 791.917 54 778.25C54 764.25 56.1667 751.333 60.5 739.5C64.8333 727.667 71.0833 717.333 79.25 708.5C87.4167 699.667 97.1667 692.833 108.5 688C119.833 683.167 132.5 680.75 146.5 680.75C160.5 680.75 173.333 683.167 185 688C196.5 692.667 206.5 699.333 215 708C223.5 716.667 230 727 234.5 739C239.167 750.833 241.5 763.917 241.5 778.25C241.5 792.583 239.167 805.75 234.5 817.75C230 829.583 223.5 839.833 215 848.5C206.5 857.167 196.5 863.917 185 868.75C173.333 873.417 160.5 875.75 146.5 875.75ZM59 542.039V489.539H242.75L154.75 603.289H234V655.789H50.25L138.25 542.039H59ZM107.75 472.117H59L59 317.117H107.75V367.117H234V422.117H107.75V472.117ZM595 1149.04H551.25V1060.79H595V1149.04ZM463.75 1149.04H420V1060.79H463.75V1149.04ZM526.25 1149.04H483.75V1065.79H526.25V1149.04ZM420 1187.04V1134.54H595V1187.04H420ZM420 914.598V862.098H603.75L515.75 975.848H595V1028.35H411.25L499.25 914.598H420ZM420 827.176V769.926H595V827.176H420ZM595 758.426V789.176H547.5V760.926C547.5 756.092 547.083 751.176 546.25 746.176C545.417 741.176 543.667 736.592 541 732.426C538.333 728.259 534.333 724.926 529 722.426C523.667 719.759 516.5 718.426 507.5 718.426C498.5 718.426 491.333 719.759 486 722.426C480.667 724.926 476.667 728.259 474 732.426C471.333 736.592 469.583 741.176 468.75 746.176C467.917 751.176 467.5 756.092 467.5 760.926V789.176H420V758.426C420 738.092 423.5 720.676 430.5 706.176C437.5 691.509 447.5 680.342 460.5 672.676C473.5 664.842 489.167 660.926 507.5 660.926C525.667 660.926 541.333 664.842 554.5 672.676C567.5 680.342 577.5 691.509 584.5 706.176C591.5 720.676 595 738.092 595 758.426Z"/>
</mask>
<path d="M105.25 1149.04V1150.04H106.25V1149.04H105.25ZM59 1149.04H58V1150.04H59V1149.04ZM59 1070.79V1069.79H58V1070.79H59ZM105.25 1070.79H106.25V1069.79H105.25V1070.79ZM172.75 1149.04V1150.04H173.75V1149.04H172.75ZM130.25 1149.04H129.25V1150.04H130.25V1149.04ZM130.25 1073.29V1072.29H129.25V1073.29H130.25ZM172.75 1073.29H173.75V1072.29H172.75V1073.29ZM59 1187.04H58V1188.04H59V1187.04ZM59 1134.54V1133.54H58V1134.54H59ZM234 1134.54H235V1133.54H234V1134.54ZM234 1187.04V1188.04H235V1187.04H234ZM105.25 1149.04V1148.04H59V1149.04V1150.04H105.25V1149.04ZM59 1149.04H60L60 1070.79H59H58L58 1149.04H59ZM59 1070.79V1071.79H105.25V1070.79V1069.79H59V1070.79ZM105.25 1070.79H104.25V1149.04H105.25H106.25V1070.79H105.25ZM172.75 1149.04V1148.04H130.25V1149.04V1150.04H172.75V1149.04ZM130.25 1149.04H131.25V1073.29H130.25H129.25V1149.04H130.25ZM130.25 1073.29V1074.29H172.75V1073.29V1072.29H130.25V1073.29ZM172.75 1073.29H171.75V1149.04H172.75H173.75V1073.29H172.75ZM59 1187.04H60V1134.54H59H58V1187.04H59ZM59 1134.54V1135.54H234V1134.54V1133.54H59V1134.54ZM234 1134.54H233V1187.04H234H235V1134.54H234ZM234 1187.04V1186.04H59V1187.04V1188.04H234V1187.04ZM159 989.549H158V991.265L159.493 990.419L159 989.549ZM159 933.299L158.445 932.467L158 932.764V933.299H159ZM234 883.299H235V881.43L233.445 882.467L234 883.299ZM234 947.049L234.493 947.919L235 947.632V947.049H234ZM59 1040.8H58V1041.8H59V1040.8ZM59 985.799V984.799H58V985.799H59ZM234 985.799H235V984.799H234V985.799ZM234 1040.8V1041.8H235V1040.8H234ZM105.25 1005.3V1006.3H106.25V1005.3H105.25ZM59 1005.3H58V1006.3H59V1005.3ZM66.75 925.299L67.65 925.735L67.6526 925.729L66.75 925.299ZM88 901.549L88.4857 902.423L88.4979 902.416L88 901.549ZM150 901.549L149.509 902.42L149.514 902.423L150 901.549ZM171.25 925.299L170.347 925.729L170.35 925.735L171.25 925.299ZM179 1005.3V1006.3H180V1005.3H179ZM137.75 1005.3H136.75V1006.3H137.75V1005.3ZM136 960.549L136.932 960.186L136.923 960.164L136.914 960.143L136 960.549ZM130.25 953.799L129.695 954.631L129.715 954.644L129.736 954.656L130.25 953.799ZM112.75 953.799L113.264 954.656L113.299 954.636L113.331 954.613L112.75 953.799ZM107.25 960.549L108.164 960.955L108.173 960.933L108.182 960.911L107.25 960.549ZM159 989.549H160L160 933.299H159H158L158 989.549H159ZM159 933.299L159.555 934.131L234.555 884.131L234 883.299L233.445 882.467L158.445 932.467L159 933.299ZM234 883.299H233V947.049H234H235V883.299H234ZM234 947.049L233.507 946.179L158.507 988.679L159 989.549L159.493 990.419L234.493 947.919L234 947.049ZM59 1040.8H60V985.799H59H58V1040.8H59ZM59 985.799V986.799H234V985.799V984.799H59V985.799ZM234 985.799H233V1040.8H234H235V985.799H234ZM234 1040.8V1039.8H59V1040.8V1041.8H234V1040.8ZM105.25 1005.3V1004.3H59V1005.3V1006.3H105.25V1005.3ZM59 1005.3H60V967.049H59H58V1005.3H59ZM59 967.049H60C60 949.97 62.5719 936.219 67.65 925.735L66.75 925.299L65.85 924.863C60.5948 935.712 58 949.794 58 967.049H59ZM66.75 925.299L67.6526 925.729C72.7451 915.052 79.6961 907.306 88.4856 902.423L88 901.549L87.5143 900.675C78.3038 905.792 71.0882 913.879 65.8474 924.868L66.75 925.299ZM88 901.549L88.4979 902.416C97.3282 897.347 107.486 894.799 119 894.799V893.799V892.799C107.181 892.799 96.6718 895.418 87.5021 900.682L88 901.549ZM119 893.799V894.799C130.344 894.799 140.506 897.345 149.509 902.42L150 901.549L150.491 900.678C141.161 895.419 130.656 892.799 119 892.799V893.799ZM150 901.549L149.514 902.423C158.304 907.306 165.255 915.052 170.347 925.729L171.25 925.299L172.153 924.868C166.912 913.879 159.696 905.792 150.486 900.675L150 901.549ZM171.25 925.299L170.35 925.735C175.428 936.219 178 949.97 178 967.049H179H180C180 949.794 177.405 935.712 172.15 924.863L171.25 925.299ZM179 967.049H178L178 1005.3H179H180L180 967.049H179ZM179 1005.3V1004.3H137.75V1005.3V1006.3H179V1005.3ZM137.75 1005.3H138.75L138.75 972.049H137.75H136.75L136.75 1005.3H137.75ZM137.75 972.049H138.75C138.75 967.309 138.159 963.341 136.932 960.186L136 960.549L135.068 960.911C136.174 963.756 136.75 967.455 136.75 972.049H137.75ZM136 960.549L136.914 960.143C135.508 956.979 133.463 954.56 130.764 952.941L130.25 953.799L129.736 954.656C132.037 956.037 133.825 958.118 135.086 960.955L136 960.549ZM130.25 953.799L130.805 952.967C128.123 951.179 125.008 950.299 121.5 950.299V951.299V952.299C124.658 952.299 127.377 953.086 129.695 954.631L130.25 953.799ZM121.5 951.299V950.299C117.838 950.299 114.706 951.173 112.169 952.985L112.75 953.799L113.331 954.613C115.461 953.092 118.162 952.299 121.5 952.299V951.299ZM112.75 953.799L112.236 952.941C109.525 954.567 107.556 957.002 106.318 960.186L107.25 960.549L108.182 960.911C109.277 958.095 110.975 956.03 113.264 954.656L112.75 953.799ZM107.25 960.549L106.336 960.143C104.927 963.313 104.25 967.297 104.25 972.049H105.25H106.25C106.25 967.467 106.906 963.785 108.164 960.955L107.25 960.549ZM105.25 972.049H104.25L104.25 1005.3H105.25H106.25L106.25 972.049H105.25ZM169 812.75L169.438 813.649L169 812.75ZM184.25 799.25L185.097 799.782L185.102 799.773L185.107 799.764L184.25 799.25ZM184.25 757.25L185.107 756.736L185.102 756.727L185.097 756.718L184.25 757.25ZM124 743.5L124.419 744.408L124.428 744.404L124 743.5ZM109 756.75L109.84 757.293L109.849 757.279L109.857 757.264L109 756.75ZM109 799.25L109.857 798.736L109.852 798.727L109.847 798.718L109 799.25ZM124 812.75L124.447 811.856L124.438 811.851L124 812.75ZM79.25 847.5L79.9843 846.821L79.25 847.5ZM60.5 816.5L61.439 816.156L60.5 816.5ZM60.5 739.5L61.439 739.844L60.5 739.5ZM79.25 708.5L79.9843 709.179L79.25 708.5ZM108.5 688L108.892 688.92L108.5 688ZM185 688L184.617 688.924L184.624 688.927L185 688ZM215 708L214.286 708.7L215 708ZM234.5 739L233.564 739.351L233.567 739.359L233.57 739.367L234.5 739ZM234.5 817.75L233.568 817.388L233.565 817.395L234.5 817.75ZM215 848.5L214.286 847.8L215 848.5ZM185 868.75L185.371 869.678L185.379 869.675L185.387 869.672L185 868.75ZM146.5 817.5V818.5C155.125 818.5 162.78 816.893 169.438 813.649L169 812.75L168.562 811.851C162.22 814.94 154.875 816.5 146.5 816.5V817.5ZM169 812.75L169.438 813.649C176.097 810.405 181.326 805.781 185.097 799.782L184.25 799.25L183.403 798.718C179.841 804.385 174.903 808.762 168.562 811.851L169 812.75ZM184.25 799.25L185.107 799.764C188.718 793.747 190.5 786.561 190.5 778.25H189.5H188.5C188.5 786.272 186.782 793.086 183.393 798.736L184.25 799.25ZM189.5 778.25H190.5C190.5 769.939 188.718 762.753 185.107 756.736L184.25 757.25L183.393 757.764C186.782 763.414 188.5 770.228 188.5 778.25H189.5ZM184.25 757.25L185.097 756.718C181.326 750.719 176.097 746.095 169.438 742.851L169 743.75L168.562 744.649C174.903 747.738 179.841 752.115 183.403 757.782L184.25 757.25ZM169 743.75L169.438 742.851C162.78 739.607 155.125 738 146.5 738V739V740C154.875 740 162.22 741.559 168.562 744.649L169 743.75ZM146.5 739V738C137.719 738 130.067 739.52 123.572 742.596L124 743.5L124.428 744.404C130.6 741.48 137.947 740 146.5 740V739ZM124 743.5L123.581 742.592C116.909 745.672 111.751 750.221 108.143 756.236L109 756.75L109.857 757.264C113.249 751.613 118.091 747.328 124.419 744.408L124 743.5ZM109 756.75L108.16 756.207C104.363 762.075 102.5 769.445 102.5 778.25H103.5H104.5C104.5 769.722 106.304 762.758 109.84 757.293L109 756.75ZM103.5 778.25H102.5C102.5 786.57 104.369 793.762 108.153 799.782L109 799.25L109.847 798.718C106.297 793.071 104.5 786.264 104.5 778.25H103.5ZM109 799.25L108.143 799.764C111.749 805.775 116.899 810.403 123.562 813.649L124 812.75L124.438 811.851C118.101 808.764 113.251 804.392 109.857 798.736L109 799.25ZM124 812.75L123.553 813.644C130.053 816.894 137.712 818.5 146.5 818.5V817.5V816.5C137.954 816.5 130.614 814.939 124.447 811.856L124 812.75ZM146.5 875.75V874.75C132.621 874.75 120.094 872.272 108.904 867.335L108.5 868.25L108.096 869.165C119.572 874.228 132.379 876.75 146.5 876.75V875.75ZM108.5 868.25L108.904 867.335C97.6917 862.389 88.0552 855.551 79.9843 846.821L79.25 847.5L78.5157 848.179C86.7781 857.116 96.6416 864.111 108.096 869.165L108.5 868.25ZM79.25 847.5L79.9843 846.821C71.9116 838.089 65.7291 827.871 61.439 816.156L60.5 816.5L59.561 816.844C63.9376 828.795 70.2551 839.244 78.5157 848.179L79.25 847.5ZM60.5 816.5L61.439 816.156C57.1493 804.442 55 791.809 55 778.25H54H53C53 792.024 55.184 804.891 59.561 816.844L60.5 816.5ZM54 778.25H55C55 764.354 57.1502 751.555 61.439 739.844L60.5 739.5L59.561 739.156C55.1831 751.111 53 764.146 53 778.25H54ZM60.5 739.5L61.439 739.844C65.7291 728.129 71.9116 717.911 79.9843 709.179L79.25 708.5L78.5157 707.821C70.2551 716.756 63.9376 727.205 59.561 739.156L60.5 739.5ZM79.25 708.5L79.9843 709.179C88.0528 700.452 97.6854 693.699 108.892 688.92L108.5 688L108.108 687.08C96.6479 691.967 86.7805 698.882 78.5157 707.821L79.25 708.5ZM108.5 688L108.892 688.92C120.086 684.146 132.617 681.75 146.5 681.75V680.75V679.75C132.383 679.75 119.581 682.187 108.108 687.08L108.5 688ZM146.5 680.75V681.75C160.383 681.75 173.084 684.146 184.617 688.924L185 688L185.383 687.076C173.582 682.187 160.617 679.75 146.5 679.75V680.75ZM185 688L184.624 688.927C196 693.543 205.884 700.134 214.286 708.7L215 708L215.714 707.3C207.116 698.533 197 691.79 185.376 687.073L185 688ZM215 708L214.286 708.7C222.683 717.262 229.11 727.474 233.564 739.351L234.5 739L235.436 738.649C230.89 726.526 224.317 716.072 215.714 707.3L215 708ZM234.5 739L233.57 739.367C238.185 751.069 240.5 764.026 240.5 778.25H241.5H242.5C242.5 763.807 240.148 750.597 235.43 738.633L234.5 739ZM241.5 778.25H240.5C240.5 792.473 238.185 805.515 233.568 817.388L234.5 817.75L235.432 818.112C240.148 805.985 242.5 792.693 242.5 778.25H241.5ZM234.5 817.75L233.565 817.395C229.112 829.105 222.685 839.236 214.286 847.8L215 848.5L215.714 849.2C224.315 840.431 230.888 830.062 235.435 818.105L234.5 817.75ZM215 848.5L214.286 847.8C205.882 856.369 195.994 863.045 184.613 867.828L185 868.75L185.387 869.672C197.006 864.789 207.118 857.964 215.714 849.2L215 848.5ZM185 868.75L184.629 867.822C173.093 872.436 160.387 874.75 146.5 874.75V875.75V876.75C160.613 876.75 173.574 874.397 185.371 869.678L185 868.75ZM59 542.039H58V543.039H59V542.039ZM59 489.539V488.539H58V489.539H59ZM242.75 489.539L243.541 490.151L244.788 488.539H242.75V489.539ZM154.75 603.289L153.959 602.677L152.712 604.289H154.75V603.289ZM234 603.289H235V602.289H234V603.289ZM234 655.789V656.789H235V655.789H234ZM50.25 655.789L49.4591 655.177L48.2121 656.789H50.25V655.789ZM138.25 542.039L139.041 542.651L140.288 541.039H138.25V542.039ZM59 542.039H60V489.539H59H58V542.039H59ZM59 489.539V490.539H242.75V489.539V488.539H59V489.539ZM242.75 489.539L241.959 488.927L153.959 602.677L154.75 603.289L155.541 603.901L243.541 490.151L242.75 489.539ZM154.75 603.289V604.289H234V603.289V602.289H154.75V603.289ZM234 603.289H233V655.789H234H235V603.289H234ZM234 655.789V654.789H50.25V655.789V656.789H234V655.789ZM50.25 655.789L51.0409 656.401L139.041 542.651L138.25 542.039L137.459 541.427L49.4591 655.177L50.25 655.789ZM138.25 542.039V541.039H59V542.039V543.039H138.25V542.039ZM107.75 472.117V473.117H108.75V472.117H107.75ZM59 472.117H58V473.117H59V472.117ZM59 317.117V316.117H58V317.117H59ZM107.75 317.117H108.75V316.117H107.75V317.117ZM107.75 367.117H106.75V368.117H107.75V367.117ZM234 367.117H235V366.117H234V367.117ZM234 422.117V423.117H235V422.117H234ZM107.75 422.117V421.117H106.75V422.117H107.75ZM107.75 472.117V471.117H59V472.117V473.117H107.75V472.117ZM59 472.117H60L60 317.117H59H58L58 472.117H59ZM59 317.117V318.117H107.75V317.117V316.117H59V317.117ZM107.75 317.117H106.75V367.117H107.75H108.75V317.117H107.75ZM107.75 367.117V368.117H234V367.117V366.117H107.75V367.117ZM234 367.117H233V422.117H234H235V367.117H234ZM234 422.117V421.117H107.75V422.117V423.117H234V422.117ZM107.75 422.117H106.75V472.117H107.75H108.75V422.117H107.75ZM595 1149.04V1150.04H596V1149.04H595ZM551.25 1149.04H550.25V1150.04H551.25V1149.04ZM551.25 1060.79V1059.79H550.25V1060.79H551.25ZM595 1060.79H596V1059.79H595V1060.79ZM463.75 1149.04V1150.04H464.75V1149.04H463.75ZM420 1149.04H419V1150.04H420V1149.04ZM420 1060.79V1059.79H419V1060.79H420ZM463.75 1060.79H464.75V1059.79H463.75V1060.79ZM526.25 1149.04V1150.04H527.25V1149.04H526.25ZM483.75 1149.04H482.75V1150.04H483.75V1149.04ZM483.75 1065.79V1064.79H482.75V1065.79H483.75ZM526.25 1065.79H527.25V1064.79H526.25V1065.79ZM420 1187.04H419V1188.04H420V1187.04ZM420 1134.54V1133.54H419V1134.54H420ZM595 1134.54H596V1133.54H595V1134.54ZM595 1187.04V1188.04H596V1187.04H595ZM595 1149.04V1148.04H551.25V1149.04V1150.04H595V1149.04ZM551.25 1149.04H552.25V1060.79H551.25H550.25V1149.04H551.25ZM551.25 1060.79V1061.79H595V1060.79V1059.79H551.25V1060.79ZM595 1060.79H594V1149.04H595H596V1060.79H595ZM463.75 1149.04V1148.04H420V1149.04V1150.04H463.75V1149.04ZM420 1149.04H421V1060.79H420H419V1149.04H420ZM420 1060.79V1061.79H463.75V1060.79V1059.79H420V1060.79ZM463.75 1060.79H462.75V1149.04H463.75H464.75V1060.79H463.75ZM526.25 1149.04V1148.04H483.75V1149.04V1150.04H526.25V1149.04ZM483.75 1149.04H484.75V1065.79H483.75H482.75V1149.04H483.75ZM483.75 1065.79V1066.79H526.25V1065.79V1064.79H483.75V1065.79ZM526.25 1065.79H525.25V1149.04H526.25H527.25V1065.79H526.25ZM420 1187.04H421V1134.54H420H419V1187.04H420ZM420 1134.54V1135.54H595V1134.54V1133.54H420V1134.54ZM595 1134.54H594V1187.04H595H596V1134.54H595ZM595 1187.04V1186.04H420V1187.04V1188.04H595V1187.04ZM420 914.598H419V915.598H420V914.598ZM420 862.098V861.098H419V862.098H420ZM603.75 862.098L604.541 862.71L605.788 861.098H603.75V862.098ZM515.75 975.848L514.959 975.236L513.712 976.848H515.75V975.848ZM595 975.848H596V974.848H595V975.848ZM595 1028.35V1029.35H596V1028.35H595ZM411.25 1028.35L410.459 1027.74L409.212 1029.35H411.25V1028.35ZM499.25 914.598L500.041 915.21L501.288 913.598H499.25V914.598ZM420 914.598H421V862.098H420H419V914.598H420ZM420 862.098V863.098H603.75V862.098V861.098H420V862.098ZM603.75 862.098L602.959 861.486L514.959 975.236L515.75 975.848L516.541 976.46L604.541 862.71L603.75 862.098ZM515.75 975.848V976.848H595V975.848V974.848H515.75V975.848ZM595 975.848H594V1028.35H595H596V975.848H595ZM595 1028.35V1027.35H411.25V1028.35V1029.35H595V1028.35ZM411.25 1028.35L412.041 1028.96L500.041 915.21L499.25 914.598L498.459 913.986L410.459 1027.74L411.25 1028.35ZM499.25 914.598V913.598H420V914.598V915.598H499.25V914.598ZM420 827.176H419V828.176H420V827.176ZM420 769.926V768.926H419V769.926H420ZM595 769.926H596V768.926H595V769.926ZM595 827.176V828.176H596V827.176H595ZM595 789.176V790.176H596V789.176H595ZM547.5 789.176H546.5V790.176H547.5V789.176ZM529 722.426L528.553 723.32L528.564 723.326L528.576 723.331L529 722.426ZM486 722.426L486.424 723.331L486.436 723.326L486.447 723.32L486 722.426ZM474 732.426L473.158 731.887L474 732.426ZM468.75 746.176L469.736 746.34L468.75 746.176ZM467.5 789.176V790.176H468.5V789.176H467.5ZM420 789.176H419V790.176H420V789.176ZM430.5 706.176L431.401 706.611L431.402 706.607L430.5 706.176ZM460.5 672.676L461.008 673.537L461.016 673.532L460.5 672.676ZM554.5 672.676L553.989 673.535L553.992 673.537L554.5 672.676ZM584.5 706.176L583.598 706.607L583.599 706.611L584.5 706.176ZM420 827.176H421V769.926H420H419V827.176H420ZM420 769.926V770.926H595V769.926V768.926H420V769.926ZM595 769.926H594V827.176H595H596V769.926H595ZM595 827.176V826.176H420V827.176V828.176H595V827.176ZM595 758.426H594V789.176H595H596V758.426H595ZM595 789.176V788.176H547.5V789.176V790.176H595V789.176ZM547.5 789.176H548.5V760.926H547.5H546.5V789.176H547.5ZM547.5 760.926H548.5C548.5 756.035 548.078 751.063 547.236 746.011L546.25 746.176L545.264 746.34C546.088 751.288 546.5 756.15 546.5 760.926H547.5ZM546.25 746.176L547.236 746.011C546.381 740.881 544.584 736.17 541.842 731.887L541 732.426L540.158 732.965C542.75 737.015 544.452 741.47 545.264 746.34L546.25 746.176ZM541 732.426L541.842 731.887C539.056 727.533 534.896 724.085 529.424 721.52L529 722.426L528.576 723.331C533.771 725.767 537.611 728.985 540.158 732.965L541 732.426ZM529 722.426L529.447 721.531C523.922 718.769 516.583 717.426 507.5 717.426V718.426V719.426C516.417 719.426 523.411 720.749 528.553 723.32L529 722.426ZM507.5 718.426V717.426C498.417 717.426 491.078 718.769 485.553 721.531L486 722.426L486.447 723.32C491.589 720.749 498.583 719.426 507.5 719.426V718.426ZM486 722.426L485.576 721.52C480.104 724.085 475.944 727.533 473.158 731.887L474 732.426L474.842 732.965C477.389 728.985 481.229 725.767 486.424 723.331L486 722.426ZM474 732.426L473.158 731.887C470.416 736.17 468.619 740.881 467.764 746.011L468.75 746.176L469.736 746.34C470.548 741.47 472.25 737.015 474.842 732.965L474 732.426ZM468.75 746.176L467.764 746.011C466.922 751.063 466.5 756.035 466.5 760.926H467.5H468.5C468.5 756.15 468.912 751.288 469.736 746.34L468.75 746.176ZM467.5 760.926H466.5V789.176H467.5H468.5V760.926H467.5ZM467.5 789.176V788.176H420V789.176V790.176H467.5V789.176ZM420 789.176H421V758.426H420H419V789.176H420ZM420 758.426H421C421 738.205 424.481 720.944 431.401 706.611L430.5 706.176L429.599 705.741C422.519 720.407 419 737.98 419 758.426H420ZM430.5 706.176L431.402 706.607C438.324 692.105 448.193 681.095 461.008 673.537L460.5 672.676L459.992 671.814C446.807 679.59 436.676 690.913 429.598 705.745L430.5 706.176ZM460.5 672.676L461.016 673.532C473.831 665.811 489.311 661.926 507.5 661.926V660.926V659.926C489.023 659.926 473.169 663.874 459.984 671.819L460.5 672.676ZM507.5 660.926V661.926C525.52 661.926 541.003 665.81 553.989 673.535L554.5 672.676L555.011 671.816C541.663 663.875 525.813 659.926 507.5 659.926V660.926ZM554.5 672.676L553.992 673.537C566.807 681.095 576.676 692.105 583.598 706.607L584.5 706.176L585.402 705.745C578.324 690.913 568.193 679.59 555.008 671.814L554.5 672.676ZM584.5 706.176L583.599 706.611C590.519 720.944 594 738.205 594 758.426H595H596C596 737.98 592.481 720.407 585.401 705.741L584.5 706.176Z" fill="white" fill-opacity="0.2" mask="url(#path-1-outside-1_142_6238)"/>
<mask id="path-3-outside-2_142_6238" maskUnits="userSpaceOnUse" x="70.9629" y="331.443" width="558" height="873" fill="black">
<rect fill="white" x="70.9629" y="331.443" width="558" height="873"/>
<path d="M128.213 1164.94H81.9629L81.9629 1086.69H128.213V1164.94ZM195.713 1164.94H153.213V1089.19H195.713V1164.94ZM81.9629 1202.94V1150.44H256.963V1202.94H81.9629ZM181.963 1005.45L181.963 949.203L256.963 899.203V962.953L181.963 1005.45ZM81.9629 1056.7V1001.7H256.963V1056.7H81.9629ZM128.213 1021.2H81.9629V982.953C81.9629 965.786 84.5462 951.87 89.7129 941.203C94.8796 930.37 101.963 922.453 110.963 917.453C119.963 912.286 130.296 909.703 141.963 909.703C153.463 909.703 163.796 912.286 172.963 917.453C181.963 922.453 189.046 930.37 194.213 941.203C199.38 951.87 201.963 965.786 201.963 982.953L201.963 1021.2H160.713L160.713 987.953C160.713 983.286 160.13 979.453 158.963 976.453C157.63 973.453 155.713 971.203 153.213 969.703C150.713 968.036 147.796 967.203 144.463 967.203C140.963 967.203 138.046 968.036 135.713 969.703C133.213 971.203 131.38 973.453 130.213 976.453C128.88 979.453 128.213 983.286 128.213 987.953L128.213 1021.2ZM169.463 833.404C177.963 833.404 185.463 831.821 191.963 828.654C198.463 825.488 203.546 820.988 207.213 815.154C210.713 809.321 212.463 802.321 212.463 794.154C212.463 785.988 210.713 778.988 207.213 773.154C203.546 767.321 198.463 762.821 191.963 759.654C185.463 756.488 177.963 754.904 169.463 754.904C160.796 754.904 153.296 756.404 146.963 759.404C140.463 762.404 135.463 766.821 131.963 772.654C128.296 778.321 126.463 785.488 126.463 794.154C126.463 802.321 128.296 809.321 131.963 815.154C135.463 820.988 140.463 825.488 146.963 828.654C153.296 831.821 160.796 833.404 169.463 833.404ZM169.463 891.654C155.463 891.654 142.796 889.154 131.463 884.154C120.13 879.154 110.38 872.238 102.213 863.404C94.0462 854.571 87.7962 844.238 83.4629 832.404C79.1296 820.571 76.9629 807.821 76.9629 794.154C76.9629 780.154 79.1296 767.238 83.4629 755.404C87.7962 743.571 94.0462 733.238 102.213 724.404C110.38 715.571 120.13 708.738 131.463 703.904C142.796 699.071 155.463 696.654 169.463 696.654C183.463 696.654 196.296 699.071 207.963 703.904C219.463 708.571 229.463 715.238 237.963 723.904C246.463 732.571 252.963 742.904 257.463 754.904C262.13 766.738 264.463 779.821 264.463 794.154C264.463 808.488 262.13 821.654 257.463 833.654C252.963 845.488 246.463 855.738 237.963 864.404C229.463 873.071 219.463 879.821 207.963 884.654C196.296 889.321 183.463 891.654 169.463 891.654ZM81.9629 557.943V505.443H265.713L177.713 619.193H256.963V671.693H73.2129L161.213 557.943H81.9629ZM130.713 488.021H81.9629L81.9629 333.021H130.713V383.021H256.963V438.021H130.713V488.021ZM617.963 1164.94H574.213V1076.69H617.963V1164.94ZM486.713 1164.94H442.963V1076.69H486.713V1164.94ZM549.213 1164.94H506.713V1081.69H549.213V1164.94ZM442.963 1202.94V1150.44H617.963V1202.94H442.963ZM442.963 930.502V878.002H626.713L538.713 991.752H617.963V1044.25H434.213L522.213 930.502H442.963ZM442.963 843.08V785.83H617.963V843.08H442.963ZM617.963 774.33V805.08H570.463V776.83C570.463 771.997 570.046 767.08 569.213 762.08C568.38 757.08 566.63 752.497 563.963 748.33C561.296 744.163 557.296 740.83 551.963 738.33C546.63 735.663 539.463 734.33 530.463 734.33C521.463 734.33 514.296 735.663 508.963 738.33C503.63 740.83 499.63 744.163 496.963 748.33C494.296 752.497 492.546 757.08 491.713 762.08C490.88 767.08 490.463 771.997 490.463 776.83V805.08H442.963V774.33C442.963 753.997 446.463 736.58 453.463 722.08C460.463 707.413 470.463 696.247 483.463 688.58C496.463 680.747 512.13 676.83 530.463 676.83C548.63 676.83 564.296 680.747 577.463 688.58C590.463 696.247 600.463 707.413 607.463 722.08C614.463 736.58 617.963 753.997 617.963 774.33Z"/>
</mask>
<path d="M128.213 1164.94V1165.94H129.213V1164.94H128.213ZM81.9629 1164.94H80.9629V1165.94H81.9629V1164.94ZM81.9629 1086.69V1085.69H80.9629V1086.69H81.9629ZM128.213 1086.69H129.213V1085.69H128.213V1086.69ZM195.713 1164.94V1165.94H196.713V1164.94H195.713ZM153.213 1164.94H152.213V1165.94H153.213V1164.94ZM153.213 1089.19V1088.19H152.213V1089.19H153.213ZM195.713 1089.19H196.713V1088.19H195.713V1089.19ZM81.9629 1202.94H80.9629V1203.94H81.9629V1202.94ZM81.9629 1150.44V1149.44H80.9629V1150.44H81.9629ZM256.963 1150.44H257.963V1149.44H256.963V1150.44ZM256.963 1202.94V1203.94H257.963V1202.94H256.963ZM128.213 1164.94V1163.94H81.9629V1164.94V1165.94H128.213V1164.94ZM81.9629 1164.94H82.9629L82.9629 1086.69H81.9629H80.9629L80.9629 1164.94H81.9629ZM81.9629 1086.69V1087.69H128.213V1086.69V1085.69H81.9629V1086.69ZM128.213 1086.69H127.213V1164.94H128.213H129.213V1086.69H128.213ZM195.713 1164.94V1163.94H153.213V1164.94V1165.94H195.713V1164.94ZM153.213 1164.94H154.213V1089.19H153.213H152.213V1164.94H153.213ZM153.213 1089.19V1090.19H195.713V1089.19V1088.19H153.213V1089.19ZM195.713 1089.19H194.713V1164.94H195.713H196.713V1089.19H195.713ZM81.9629 1202.94H82.9629V1150.44H81.9629H80.9629V1202.94H81.9629ZM81.9629 1150.44V1151.44H256.963V1150.44V1149.44H81.9629V1150.44ZM256.963 1150.44H255.963V1202.94H256.963H257.963V1150.44H256.963ZM256.963 1202.94V1201.94H81.9629V1202.94V1203.94H256.963V1202.94ZM181.963 1005.45H180.963V1007.17L182.456 1006.32L181.963 1005.45ZM181.963 949.203L181.408 948.371L180.963 948.668V949.203H181.963ZM256.963 899.203H257.963V897.335L256.408 898.371L256.963 899.203ZM256.963 962.953L257.456 963.823L257.963 963.536V962.953H256.963ZM81.9629 1056.7H80.9629V1057.7H81.9629V1056.7ZM81.9629 1001.7V1000.7H80.9629V1001.7H81.9629ZM256.963 1001.7H257.963V1000.7H256.963V1001.7ZM256.963 1056.7V1057.7H257.963V1056.7H256.963ZM128.213 1021.2V1022.2H129.213V1021.2H128.213ZM81.9629 1021.2H80.9629V1022.2H81.9629V1021.2ZM89.7129 941.203L90.6129 941.639L90.6155 941.634L89.7129 941.203ZM110.963 917.453L111.449 918.327L111.461 918.32L110.963 917.453ZM172.963 917.453L172.472 918.324L172.477 918.327L172.963 917.453ZM194.213 941.203L193.31 941.634L193.313 941.639L194.213 941.203ZM201.963 1021.2V1022.2H202.963V1021.2H201.963ZM160.713 1021.2H159.713V1022.2H160.713V1021.2ZM158.963 976.453L159.895 976.091L159.886 976.069L159.877 976.047L158.963 976.453ZM153.213 969.703L152.658 970.535L152.678 970.548L152.698 970.561L153.213 969.703ZM135.713 969.703L136.227 970.561L136.262 970.54L136.294 970.517L135.713 969.703ZM130.213 976.453L131.127 976.859L131.136 976.838L131.145 976.816L130.213 976.453ZM181.963 1005.45H182.963L182.963 949.203H181.963H180.963L180.963 1005.45H181.963ZM181.963 949.203L182.518 950.035L257.518 900.035L256.963 899.203L256.408 898.371L181.408 948.371L181.963 949.203ZM256.963 899.203H255.963V962.953H256.963H257.963V899.203H256.963ZM256.963 962.953L256.47 962.083L181.47 1004.58L181.963 1005.45L182.456 1006.32L257.456 963.823L256.963 962.953ZM81.9629 1056.7H82.9629V1001.7H81.9629H80.9629V1056.7H81.9629ZM81.9629 1001.7V1002.7H256.963V1001.7V1000.7H81.9629V1001.7ZM256.963 1001.7H255.963V1056.7H256.963H257.963V1001.7H256.963ZM256.963 1056.7V1055.7H81.9629V1056.7V1057.7H256.963V1056.7ZM128.213 1021.2V1020.2H81.9629V1021.2V1022.2H128.213V1021.2ZM81.9629 1021.2H82.9629V982.953H81.9629H80.9629V1021.2H81.9629ZM81.9629 982.953H82.9629C82.9629 965.875 85.5348 952.123 90.6129 941.639L89.7129 941.203L88.8129 940.767C83.5577 951.617 80.9629 965.698 80.9629 982.953H81.9629ZM89.7129 941.203L90.6155 941.634C95.708 930.956 102.659 923.21 111.449 918.327L110.963 917.453L110.477 916.579C101.267 921.696 94.0511 929.784 88.8103 940.773L89.7129 941.203ZM110.963 917.453L111.461 918.32C120.291 913.251 130.449 910.703 141.963 910.703V909.703V908.703C130.144 908.703 119.635 911.322 110.465 916.586L110.963 917.453ZM141.963 909.703V910.703C153.307 910.703 163.469 913.25 172.472 918.324L172.963 917.453L173.454 916.582C164.124 911.323 153.618 908.703 141.963 908.703V909.703ZM172.963 917.453L172.477 918.327C181.267 923.21 188.218 930.956 193.31 941.634L194.213 941.203L195.115 940.773C189.875 929.784 182.659 921.696 173.449 916.579L172.963 917.453ZM194.213 941.203L193.313 941.639C198.391 952.123 200.963 965.875 200.963 982.953H201.963H202.963C202.963 965.698 200.368 951.617 195.113 940.767L194.213 941.203ZM201.963 982.953H200.963L200.963 1021.2H201.963H202.963L202.963 982.953H201.963ZM201.963 1021.2V1020.2H160.713V1021.2V1022.2H201.963V1021.2ZM160.713 1021.2H161.713L161.713 987.953H160.713H159.713L159.713 1021.2H160.713ZM160.713 987.953H161.713C161.713 983.213 161.122 979.246 159.895 976.091L158.963 976.453L158.031 976.816C159.137 979.66 159.713 983.359 159.713 987.953H160.713ZM158.963 976.453L159.877 976.047C158.471 972.884 156.426 970.465 153.727 968.846L153.213 969.703L152.698 970.561C155 971.942 156.788 974.023 158.049 976.859L158.963 976.453ZM153.213 969.703L153.768 968.871C151.086 967.083 147.971 966.203 144.463 966.203V967.203V968.203C147.621 968.203 150.34 968.99 152.658 970.535L153.213 969.703ZM144.463 967.203V966.203C140.801 966.203 137.669 967.077 135.132 968.889L135.713 969.703L136.294 970.517C138.423 968.996 141.125 968.203 144.463 968.203V967.203ZM135.713 969.703L135.198 968.846C132.488 970.472 130.519 972.907 129.281 976.091L130.213 976.453L131.145 976.816C132.24 974 133.938 971.935 136.227 970.561L135.713 969.703ZM130.213 976.453L129.299 976.047C127.89 979.217 127.213 983.201 127.213 987.953H128.213H129.213C129.213 983.372 129.869 979.689 131.127 976.859L130.213 976.453ZM128.213 987.953H127.213L127.213 1021.2H128.213H129.213L129.213 987.953H128.213ZM191.963 828.654L192.401 829.553L191.963 828.654ZM207.213 815.154L208.06 815.686L208.065 815.678L208.07 815.669L207.213 815.154ZM207.213 773.154L208.07 772.64L208.065 772.631L208.06 772.622L207.213 773.154ZM146.963 759.404L147.382 760.312L147.391 760.308L146.963 759.404ZM131.963 772.654L132.802 773.198L132.812 773.183L132.82 773.169L131.963 772.654ZM131.963 815.154L132.82 814.64L132.815 814.631L132.81 814.622L131.963 815.154ZM146.963 828.654L147.41 827.76L147.401 827.755L146.963 828.654ZM102.213 863.404L102.947 862.725L102.213 863.404ZM83.4629 832.404L84.4019 832.06L83.4629 832.404ZM83.4629 755.404L84.4019 755.748L83.4629 755.404ZM102.213 724.404L102.947 725.083L102.213 724.404ZM131.463 703.904L131.855 704.824L131.463 703.904ZM207.963 703.904L207.58 704.828L207.587 704.831L207.963 703.904ZM237.963 723.904L237.249 724.604L237.963 723.904ZM257.463 754.904L256.527 755.255L256.53 755.263L256.533 755.271L257.463 754.904ZM257.463 833.654L256.531 833.292L256.528 833.299L257.463 833.654ZM237.963 864.404L237.249 863.704L237.963 864.404ZM207.963 884.654L208.334 885.583L208.342 885.58L208.35 885.576L207.963 884.654ZM169.463 833.404V834.404C178.088 834.404 185.742 832.797 192.401 829.553L191.963 828.654L191.525 827.755C185.183 830.845 177.838 832.404 169.463 832.404V833.404ZM191.963 828.654L192.401 829.553C199.06 826.309 204.289 821.686 208.06 815.686L207.213 815.154L206.366 814.622C202.804 820.289 197.866 824.666 191.525 827.755L191.963 828.654ZM207.213 815.154L208.07 815.669C211.681 809.651 213.463 802.466 213.463 794.154H212.463H211.463C211.463 802.176 209.745 808.99 206.355 814.64L207.213 815.154ZM212.463 794.154H213.463C213.463 785.843 211.681 778.657 208.07 772.64L207.213 773.154L206.355 773.669C209.745 779.318 211.463 786.132 211.463 794.154H212.463ZM207.213 773.154L208.06 772.622C204.289 766.623 199.06 761.999 192.401 758.755L191.963 759.654L191.525 760.553C197.866 763.642 202.804 768.019 206.366 773.686L207.213 773.154ZM191.963 759.654L192.401 758.755C185.742 755.511 178.088 753.904 169.463 753.904V754.904V755.904C177.838 755.904 185.183 757.464 191.525 760.553L191.963 759.654ZM169.463 754.904V753.904C160.682 753.904 153.03 755.424 146.535 758.501L146.963 759.404L147.391 760.308C153.563 757.385 160.91 755.904 169.463 755.904V754.904ZM146.963 759.404L146.544 758.496C139.872 761.576 134.714 766.125 131.105 772.14L131.963 772.654L132.82 773.169C136.211 767.517 141.054 763.233 147.382 760.312L146.963 759.404ZM131.963 772.654L131.123 772.111C127.326 777.98 125.463 785.349 125.463 794.154H126.463H127.463C127.463 785.626 129.267 778.662 132.802 773.198L131.963 772.654ZM126.463 794.154H125.463C125.463 802.474 127.332 809.666 131.116 815.686L131.963 815.154L132.81 814.622C129.26 808.976 127.463 802.168 127.463 794.154H126.463ZM131.963 815.154L131.105 815.669C134.711 821.679 139.862 826.307 146.525 829.553L146.963 828.654L147.401 827.755C141.064 824.668 136.214 820.296 132.82 814.64L131.963 815.154ZM146.963 828.654L146.516 829.549C153.016 832.799 160.675 834.404 169.463 834.404V833.404V832.404C160.917 832.404 153.577 830.843 147.41 827.76L146.963 828.654ZM169.463 891.654V890.654C155.584 890.654 143.057 888.176 131.867 883.239L131.463 884.154L131.059 885.069C142.535 890.132 155.342 892.654 169.463 892.654V891.654ZM131.463 884.154L131.867 883.239C120.655 878.293 111.018 871.455 102.947 862.725L102.213 863.404L101.479 864.083C109.741 873.02 119.605 880.016 131.059 885.069L131.463 884.154ZM102.213 863.404L102.947 862.725C94.8744 853.994 88.692 843.776 84.4019 832.06L83.4629 832.404L82.5239 832.748C86.9004 844.7 93.218 855.148 101.479 864.083L102.213 863.404ZM83.4629 832.404L84.4019 832.06C80.1122 820.346 77.9629 807.714 77.9629 794.154H76.9629H75.9629C75.9629 807.928 78.1469 820.796 82.5239 832.748L83.4629 832.404ZM76.9629 794.154H77.9629C77.9629 780.259 80.1131 767.46 84.4019 755.748L83.4629 755.404L82.5239 755.06C78.146 767.015 75.9629 780.05 75.9629 794.154H76.9629ZM83.4629 755.404L84.4019 755.748C88.692 744.033 94.8744 733.815 102.947 725.083L102.213 724.404L101.479 723.725C93.218 732.66 86.9004 743.109 82.5239 755.06L83.4629 755.404ZM102.213 724.404L102.947 725.083C111.016 716.356 120.648 709.604 131.855 704.824L131.463 703.904L131.071 702.984C119.611 707.872 109.743 714.786 101.479 723.725L102.213 724.404ZM131.463 703.904L131.855 704.824C143.049 700.05 155.579 697.654 169.463 697.654V696.654V695.654C155.346 695.654 142.544 698.091 131.071 702.984L131.463 703.904ZM169.463 696.654V697.654C183.346 697.654 196.047 700.05 207.58 704.828L207.963 703.904L208.346 702.98C196.545 698.092 183.58 695.654 169.463 695.654V696.654ZM207.963 703.904L207.587 704.831C218.963 709.447 228.847 716.038 237.249 724.604L237.963 723.904L238.677 723.204C230.079 714.437 219.963 707.695 208.339 702.978L207.963 703.904ZM237.963 723.904L237.249 724.604C245.646 733.166 252.073 743.379 256.527 755.255L257.463 754.904L258.399 754.553C253.853 742.43 247.28 731.976 238.677 723.204L237.963 723.904ZM257.463 754.904L256.533 755.271C261.148 766.974 263.463 779.931 263.463 794.154H264.463H265.463C265.463 779.711 263.111 766.501 258.393 754.537L257.463 754.904ZM264.463 794.154H263.463C263.463 808.378 261.148 821.42 256.531 833.292L257.463 833.654L258.395 834.017C263.111 821.889 265.463 808.598 265.463 794.154H264.463ZM257.463 833.654L256.528 833.299C252.075 845.009 245.648 855.14 237.249 863.704L237.963 864.404L238.677 865.104C247.278 856.335 253.851 845.966 258.398 834.01L257.463 833.654ZM237.963 864.404L237.249 863.704C228.845 872.273 218.956 878.949 207.575 883.732L207.963 884.654L208.35 885.576C219.969 880.693 230.081 873.869 238.677 865.104L237.963 864.404ZM207.963 884.654L207.591 883.726C196.056 888.34 183.35 890.654 169.463 890.654V891.654V892.654C183.576 892.654 196.537 890.302 208.334 885.583L207.963 884.654ZM81.9629 557.943H80.9629V558.943H81.9629V557.943ZM81.9629 505.443V504.443H80.9629V505.443H81.9629ZM265.713 505.443L266.504 506.055L267.751 504.443H265.713V505.443ZM177.713 619.193L176.922 618.581L175.675 620.193H177.713V619.193ZM256.963 619.193H257.963V618.193H256.963V619.193ZM256.963 671.693V672.693H257.963V671.693H256.963ZM73.2129 671.693L72.4219 671.081L71.1749 672.693H73.2129V671.693ZM161.213 557.943L162.004 558.555L163.251 556.943H161.213V557.943ZM81.9629 557.943H82.9629V505.443H81.9629H80.9629V557.943H81.9629ZM81.9629 505.443V506.443H265.713V505.443V504.443H81.9629V505.443ZM265.713 505.443L264.922 504.831L176.922 618.581L177.713 619.193L178.504 619.805L266.504 506.055L265.713 505.443ZM177.713 619.193V620.193H256.963V619.193V618.193H177.713V619.193ZM256.963 619.193H255.963V671.693H256.963H257.963V619.193H256.963ZM256.963 671.693V670.693H73.2129V671.693V672.693H256.963V671.693ZM73.2129 671.693L74.0038 672.305L162.004 558.555L161.213 557.943L160.422 557.331L72.4219 671.081L73.2129 671.693ZM161.213 557.943V556.943H81.9629V557.943V558.943H161.213V557.943ZM130.713 488.021V489.021H131.713V488.021H130.713ZM81.9629 488.021H80.9629V489.021H81.9629V488.021ZM81.9629 333.021V332.021H80.9629V333.021H81.9629ZM130.713 333.021H131.713V332.021H130.713V333.021ZM130.713 383.021H129.713V384.021H130.713V383.021ZM256.963 383.021H257.963V382.021H256.963V383.021ZM256.963 438.021V439.021H257.963V438.021H256.963ZM130.713 438.021V437.021H129.713V438.021H130.713ZM130.713 488.021V487.021H81.9629V488.021V489.021H130.713V488.021ZM81.9629 488.021H82.9629L82.9629 333.021H81.9629H80.9629L80.9629 488.021H81.9629ZM81.9629 333.021V334.021H130.713V333.021V332.021H81.9629V333.021ZM130.713 333.021H129.713V383.021H130.713H131.713V333.021H130.713ZM130.713 383.021V384.021H256.963V383.021V382.021H130.713V383.021ZM256.963 383.021H255.963V438.021H256.963H257.963V383.021H256.963ZM256.963 438.021V437.021H130.713V438.021V439.021H256.963V438.021ZM130.713 438.021H129.713V488.021H130.713H131.713V438.021H130.713ZM617.963 1164.94V1165.94H618.963V1164.94H617.963ZM574.213 1164.94H573.213V1165.94H574.213V1164.94ZM574.213 1076.69V1075.69H573.213V1076.69H574.213ZM617.963 1076.69H618.963V1075.69H617.963V1076.69ZM486.713 1164.94V1165.94H487.713V1164.94H486.713ZM442.963 1164.94H441.963V1165.94H442.963V1164.94ZM442.963 1076.69V1075.69H441.963V1076.69H442.963ZM486.713 1076.69H487.713V1075.69H486.713V1076.69ZM549.213 1164.94V1165.94H550.213V1164.94H549.213ZM506.713 1164.94H505.713V1165.94H506.713V1164.94ZM506.713 1081.69V1080.69H505.713V1081.69H506.713ZM549.213 1081.69H550.213V1080.69H549.213V1081.69ZM442.963 1202.94H441.963V1203.94H442.963V1202.94ZM442.963 1150.44V1149.44H441.963V1150.44H442.963ZM617.963 1150.44H618.963V1149.44H617.963V1150.44ZM617.963 1202.94V1203.94H618.963V1202.94H617.963ZM617.963 1164.94V1163.94H574.213V1164.94V1165.94H617.963V1164.94ZM574.213 1164.94H575.213V1076.69H574.213H573.213V1164.94H574.213ZM574.213 1076.69V1077.69H617.963V1076.69V1075.69H574.213V1076.69ZM617.963 1076.69H616.963V1164.94H617.963H618.963V1076.69H617.963ZM486.713 1164.94V1163.94H442.963V1164.94V1165.94H486.713V1164.94ZM442.963 1164.94H443.963V1076.69H442.963H441.963V1164.94H442.963ZM442.963 1076.69V1077.69H486.713V1076.69V1075.69H442.963V1076.69ZM486.713 1076.69H485.713V1164.94H486.713H487.713V1076.69H486.713ZM549.213 1164.94V1163.94H506.713V1164.94V1165.94H549.213V1164.94ZM506.713 1164.94H507.713V1081.69H506.713H505.713V1164.94H506.713ZM506.713 1081.69V1082.69H549.213V1081.69V1080.69H506.713V1081.69ZM549.213 1081.69H548.213V1164.94H549.213H550.213V1081.69H549.213ZM442.963 1202.94H443.963V1150.44H442.963H441.963V1202.94H442.963ZM442.963 1150.44V1151.44H617.963V1150.44V1149.44H442.963V1150.44ZM617.963 1150.44H616.963V1202.94H617.963H618.963V1150.44H617.963ZM617.963 1202.94V1201.94H442.963V1202.94V1203.94H617.963V1202.94ZM442.963 930.502H441.963V931.502H442.963V930.502ZM442.963 878.002V877.002H441.963V878.002H442.963ZM626.713 878.002L627.504 878.614L628.751 877.002H626.713V878.002ZM538.713 991.752L537.922 991.14L536.675 992.752H538.713V991.752ZM617.963 991.752H618.963V990.752H617.963V991.752ZM617.963 1044.25V1045.25H618.963V1044.25H617.963ZM434.213 1044.25L433.422 1043.64L432.175 1045.25H434.213V1044.25ZM522.213 930.502L523.004 931.114L524.251 929.502H522.213V930.502ZM442.963 930.502H443.963V878.002H442.963H441.963V930.502H442.963ZM442.963 878.002V879.002H626.713V878.002V877.002H442.963V878.002ZM626.713 878.002L625.922 877.39L537.922 991.14L538.713 991.752L539.504 992.364L627.504 878.614L626.713 878.002ZM538.713 991.752V992.752H617.963V991.752V990.752H538.713V991.752ZM617.963 991.752H616.963V1044.25H617.963H618.963V991.752H617.963ZM617.963 1044.25V1043.25H434.213V1044.25V1045.25H617.963V1044.25ZM434.213 1044.25L435.004 1044.86L523.004 931.114L522.213 930.502L521.422 929.89L433.422 1043.64L434.213 1044.25ZM522.213 930.502V929.502H442.963V930.502V931.502H522.213V930.502ZM442.963 843.08H441.963V844.08H442.963V843.08ZM442.963 785.83V784.83H441.963V785.83H442.963ZM617.963 785.83H618.963V784.83H617.963V785.83ZM617.963 843.08V844.08H618.963V843.08H617.963ZM617.963 805.08V806.08H618.963V805.08H617.963ZM570.463 805.08H569.463V806.08H570.463V805.08ZM551.963 738.33L551.516 739.224L551.527 739.23L551.538 739.236L551.963 738.33ZM508.963 738.33L509.387 739.236L509.399 739.23L509.41 739.224L508.963 738.33ZM496.963 748.33L496.121 747.791L496.963 748.33ZM491.713 762.08L492.699 762.244L491.713 762.08ZM490.463 805.08V806.08H491.463V805.08H490.463ZM442.963 805.08H441.963V806.08H442.963V805.08ZM453.463 722.08L454.363 722.515L454.365 722.511L453.463 722.08ZM483.463 688.58L483.971 689.441L483.979 689.437L483.463 688.58ZM577.463 688.58L576.952 689.44L576.955 689.441L577.463 688.58ZM607.463 722.08L606.56 722.511L606.562 722.515L607.463 722.08ZM442.963 843.08H443.963V785.83H442.963H441.963V843.08H442.963ZM442.963 785.83V786.83H617.963V785.83V784.83H442.963V785.83ZM617.963 785.83H616.963V843.08H617.963H618.963V785.83H617.963ZM617.963 843.08V842.08H442.963V843.08V844.08H617.963V843.08ZM617.963 774.33H616.963V805.08H617.963H618.963V774.33H617.963ZM617.963 805.08V804.08H570.463V805.08V806.08H617.963V805.08ZM570.463 805.08H571.463V776.83H570.463H569.463V805.08H570.463ZM570.463 776.83H571.463C571.463 771.939 571.041 766.967 570.199 761.916L569.213 762.08L568.227 762.244C569.051 767.193 569.463 772.054 569.463 776.83H570.463ZM569.213 762.08L570.199 761.916C569.344 756.786 567.547 752.074 564.805 747.791L563.963 748.33L563.121 748.869C565.713 752.919 567.415 757.374 568.227 762.244L569.213 762.08ZM563.963 748.33L564.805 747.791C562.019 743.437 557.859 739.989 552.387 737.425L551.963 738.33L551.538 739.236C556.734 741.671 560.574 744.89 563.121 748.869L563.963 748.33ZM551.963 738.33L552.41 737.436C546.885 734.673 539.546 733.33 530.463 733.33V734.33V735.33C539.38 735.33 546.374 736.654 551.516 739.224L551.963 738.33ZM530.463 734.33V733.33C521.38 733.33 514.041 734.673 508.516 737.436L508.963 738.33L509.41 739.224C514.552 736.654 521.546 735.33 530.463 735.33V734.33ZM508.963 738.33L508.538 737.425C503.067 739.989 498.907 743.437 496.121 747.791L496.963 748.33L497.805 748.869C500.352 744.89 504.192 741.671 509.387 739.236L508.963 738.33ZM496.963 748.33L496.121 747.791C493.379 752.074 491.581 756.786 490.727 761.916L491.713 762.08L492.699 762.244C493.511 757.374 495.213 752.919 497.805 748.869L496.963 748.33ZM491.713 762.08L490.727 761.916C489.885 766.967 489.463 771.939 489.463 776.83H490.463H491.463C491.463 772.054 491.875 767.193 492.699 762.244L491.713 762.08ZM490.463 776.83H489.463V805.08H490.463H491.463V776.83H490.463ZM490.463 805.08V804.08H442.963V805.08V806.08H490.463V805.08ZM442.963 805.08H443.963V774.33H442.963H441.963V805.08H442.963ZM442.963 774.33H443.963C443.963 754.109 447.444 736.848 454.363 722.515L453.463 722.08L452.562 721.645C445.482 736.312 441.963 753.885 441.963 774.33H442.963ZM453.463 722.08L454.365 722.511C461.287 708.009 471.156 696.999 483.971 689.441L483.463 688.58L482.955 687.719C469.77 695.494 459.639 706.818 452.56 721.649L453.463 722.08ZM483.463 688.58L483.979 689.437C496.794 681.715 512.273 677.83 530.463 677.83V676.83V675.83C511.986 675.83 496.132 679.779 482.947 687.724L483.463 688.58ZM530.463 676.83V677.83C548.483 677.83 563.966 681.714 576.952 689.439L577.463 688.58L577.974 687.721C564.626 679.779 548.776 675.83 530.463 675.83V676.83ZM577.463 688.58L576.955 689.441C589.77 696.999 599.639 708.009 606.56 722.511L607.463 722.08L608.365 721.649C601.287 706.818 591.156 695.494 577.971 687.719L577.463 688.58ZM607.463 722.08L606.562 722.515C613.482 736.848 616.963 754.109 616.963 774.33H617.963H618.963C618.963 753.885 615.444 736.312 608.363 721.645L607.463 722.08Z" fill="white" fill-opacity="0.1" mask="url(#path-3-outside-2_142_6238)"/>
<mask id="path-5-outside-3_142_6238" maskUnits="userSpaceOnUse" x="98.949" y="344" width="558" height="873" fill="black">
<rect fill="white" x="98.949" y="344" width="558" height="873"/>
<path d="M156.199 1177.5H109.949L109.949 1099.25H156.199V1177.5ZM223.699 1177.5H181.199V1101.75H223.699V1177.5ZM109.949 1215.5V1163H284.949V1215.5H109.949ZM209.949 1018.01L209.949 961.76L284.949 911.76V975.51L209.949 1018.01ZM109.949 1069.26V1014.26H284.949V1069.26H109.949ZM156.199 1033.76H109.949V995.51C109.949 978.343 112.532 964.426 117.699 953.76C122.866 942.926 129.949 935.01 138.949 930.01C147.949 924.843 158.282 922.26 169.949 922.26C181.449 922.26 191.782 924.843 200.949 930.01C209.949 935.01 217.032 942.926 222.199 953.76C227.366 964.426 229.949 978.343 229.949 995.51L229.949 1033.76H188.699L188.699 1000.51C188.699 995.843 188.116 992.01 186.949 989.01C185.616 986.01 183.699 983.76 181.199 982.26C178.699 980.593 175.782 979.76 172.449 979.76C168.949 979.76 166.032 980.593 163.699 982.26C161.199 983.76 159.366 986.01 158.199 989.01C156.866 992.01 156.199 995.843 156.199 1000.51L156.199 1033.76ZM197.449 845.961C205.949 845.961 213.449 844.378 219.949 841.211C226.449 838.044 231.532 833.544 235.199 827.711C238.699 821.878 240.449 814.878 240.449 806.711C240.449 798.544 238.699 791.544 235.199 785.711C231.532 779.878 226.449 775.378 219.949 772.211C213.449 769.044 205.949 767.461 197.449 767.461C188.782 767.461 181.282 768.961 174.949 771.961C168.449 774.961 163.449 779.378 159.949 785.211C156.282 790.878 154.449 798.044 154.449 806.711C154.449 814.878 156.282 821.878 159.949 827.711C163.449 833.544 168.449 838.044 174.949 841.211C181.282 844.378 188.782 845.961 197.449 845.961ZM197.449 904.211C183.449 904.211 170.782 901.711 159.449 896.711C148.116 891.711 138.366 884.794 130.199 875.961C122.032 867.128 115.782 856.794 111.449 844.961C107.116 833.128 104.949 820.378 104.949 806.711C104.949 792.711 107.116 779.794 111.449 767.961C115.782 756.128 122.032 745.794 130.199 736.961C138.366 728.128 148.116 721.294 159.449 716.461C170.782 711.628 183.449 709.211 197.449 709.211C211.449 709.211 224.282 711.628 235.949 716.461C247.449 721.128 257.449 727.794 265.949 736.461C274.449 745.128 280.949 755.461 285.449 767.461C290.116 779.294 292.449 792.378 292.449 806.711C292.449 821.044 290.116 834.211 285.449 846.211C280.949 858.044 274.449 868.294 265.949 876.961C257.449 885.628 247.449 892.378 235.949 897.211C224.282 901.878 211.449 904.211 197.449 904.211ZM109.949 570.5V518H293.699L205.699 631.75H284.949V684.25H101.199L189.199 570.5H109.949ZM158.699 500.578H109.949L109.949 345.578H158.699V395.578H284.949V450.578H158.699V500.578ZM645.949 1177.5H602.199V1089.25H645.949V1177.5ZM514.699 1177.5H470.949V1089.25H514.699V1177.5ZM577.199 1177.5H534.699V1094.25H577.199V1177.5ZM470.949 1215.5V1163H645.949V1215.5H470.949ZM470.949 943.059V890.559H654.699L566.699 1004.31H645.949V1056.81H462.199L550.199 943.059H470.949ZM470.949 855.637V798.387H645.949V855.637H470.949ZM645.949 786.887V817.637H598.449V789.387C598.449 784.553 598.032 779.637 597.199 774.637C596.366 769.637 594.616 765.053 591.949 760.887C589.282 756.72 585.282 753.387 579.949 750.887C574.616 748.22 567.449 746.887 558.449 746.887C549.449 746.887 542.282 748.22 536.949 750.887C531.616 753.387 527.616 756.72 524.949 760.887C522.282 765.053 520.532 769.637 519.699 774.637C518.866 779.637 518.449 784.553 518.449 789.387V817.637H470.949V786.887C470.949 766.553 474.449 749.137 481.449 734.637C488.449 719.97 498.449 708.803 511.449 701.137C524.449 693.303 540.116 689.387 558.449 689.387C576.616 689.387 592.282 693.303 605.449 701.137C618.449 708.803 628.449 719.97 635.449 734.637C642.449 749.137 645.949 766.553 645.949 786.887Z"/>
</mask>
<path d="M156.199 1177.5V1178.5H157.199V1177.5H156.199ZM109.949 1177.5H108.949V1178.5H109.949V1177.5ZM109.949 1099.25V1098.25H108.949V1099.25H109.949ZM156.199 1099.25H157.199V1098.25H156.199V1099.25ZM223.699 1177.5V1178.5H224.699V1177.5H223.699ZM181.199 1177.5H180.199V1178.5H181.199V1177.5ZM181.199 1101.75V1100.75H180.199V1101.75H181.199ZM223.699 1101.75H224.699V1100.75H223.699V1101.75ZM109.949 1215.5H108.949V1216.5H109.949V1215.5ZM109.949 1163V1162H108.949V1163H109.949ZM284.949 1163H285.949V1162H284.949V1163ZM284.949 1215.5V1216.5H285.949V1215.5H284.949ZM156.199 1177.5V1176.5H109.949V1177.5V1178.5H156.199V1177.5ZM109.949 1177.5H110.949L110.949 1099.25H109.949H108.949L108.949 1177.5H109.949ZM109.949 1099.25V1100.25H156.199V1099.25V1098.25H109.949V1099.25ZM156.199 1099.25H155.199V1177.5H156.199H157.199V1099.25H156.199ZM223.699 1177.5V1176.5H181.199V1177.5V1178.5H223.699V1177.5ZM181.199 1177.5H182.199V1101.75H181.199H180.199V1177.5H181.199ZM181.199 1101.75V1102.75H223.699V1101.75V1100.75H181.199V1101.75ZM223.699 1101.75H222.699V1177.5H223.699H224.699V1101.75H223.699ZM109.949 1215.5H110.949V1163H109.949H108.949V1215.5H109.949ZM109.949 1163V1164H284.949V1163V1162H109.949V1163ZM284.949 1163H283.949V1215.5H284.949H285.949V1163H284.949ZM284.949 1215.5V1214.5H109.949V1215.5V1216.5H284.949V1215.5ZM209.949 1018.01H208.949V1019.73L210.442 1018.88L209.949 1018.01ZM209.949 961.76L209.394 960.928L208.949 961.225V961.76H209.949ZM284.949 911.76H285.949V909.891L284.394 910.928L284.949 911.76ZM284.949 975.51L285.442 976.38L285.949 976.092V975.51H284.949ZM109.949 1069.26H108.949V1070.26H109.949V1069.26ZM109.949 1014.26V1013.26H108.949V1014.26H109.949ZM284.949 1014.26H285.949V1013.26H284.949V1014.26ZM284.949 1069.26V1070.26H285.949V1069.26H284.949ZM156.199 1033.76V1034.76H157.199V1033.76H156.199ZM109.949 1033.76H108.949V1034.76H109.949V1033.76ZM117.699 953.76L118.599 954.196L118.602 954.19L117.699 953.76ZM138.949 930.01L139.435 930.884L139.447 930.877L138.949 930.01ZM200.949 930.01L200.458 930.881L200.463 930.884L200.949 930.01ZM222.199 953.76L221.296 954.19L221.299 954.196L222.199 953.76ZM229.949 1033.76V1034.76H230.949V1033.76H229.949ZM188.699 1033.76H187.699V1034.76H188.699V1033.76ZM186.949 989.01L187.881 988.647L187.872 988.625L187.863 988.604L186.949 989.01ZM181.199 982.26L180.644 983.092L180.664 983.105L180.684 983.117L181.199 982.26ZM163.699 982.26L164.213 983.117L164.248 983.097L164.28 983.074L163.699 982.26ZM158.199 989.01L159.113 989.416L159.122 989.394L159.131 989.372L158.199 989.01ZM209.949 1018.01H210.949L210.949 961.76H209.949H208.949L208.949 1018.01H209.949ZM209.949 961.76L210.504 962.592L285.504 912.592L284.949 911.76L284.394 910.928L209.394 960.928L209.949 961.76ZM284.949 911.76H283.949V975.51H284.949H285.949V911.76H284.949ZM284.949 975.51L284.456 974.64L209.456 1017.14L209.949 1018.01L210.442 1018.88L285.442 976.38L284.949 975.51ZM109.949 1069.26H110.949V1014.26H109.949H108.949V1069.26H109.949ZM109.949 1014.26V1015.26H284.949V1014.26V1013.26H109.949V1014.26ZM284.949 1014.26H283.949V1069.26H284.949H285.949V1014.26H284.949ZM284.949 1069.26V1068.26H109.949V1069.26V1070.26H284.949V1069.26ZM156.199 1033.76V1032.76H109.949V1033.76V1034.76H156.199V1033.76ZM109.949 1033.76H110.949V995.51H109.949H108.949V1033.76H109.949ZM109.949 995.51H110.949C110.949 978.431 113.521 964.68 118.599 954.196L117.699 953.76L116.799 953.324C111.544 964.173 108.949 978.255 108.949 995.51H109.949ZM117.699 953.76L118.602 954.19C123.694 943.512 130.645 935.767 139.435 930.884L138.949 930.01L138.463 929.136C129.253 934.253 122.037 942.34 116.796 953.329L117.699 953.76ZM138.949 930.01L139.447 930.877C148.277 925.808 158.435 923.26 169.949 923.26V922.26V921.26C158.13 921.26 147.621 923.878 138.451 929.143L138.949 930.01ZM169.949 922.26V923.26C181.293 923.26 191.455 925.806 200.458 930.881L200.949 930.01L201.44 929.139C192.11 923.88 181.605 921.26 169.949 921.26V922.26ZM200.949 930.01L200.463 930.884C209.253 935.767 216.204 943.512 221.296 954.19L222.199 953.76L223.102 953.329C217.861 942.34 210.645 934.253 201.435 929.136L200.949 930.01ZM222.199 953.76L221.299 954.196C226.377 964.68 228.949 978.431 228.949 995.51H229.949H230.949C230.949 978.255 228.354 964.173 223.099 953.324L222.199 953.76ZM229.949 995.51H228.949L228.949 1033.76H229.949H230.949L230.949 995.51H229.949ZM229.949 1033.76V1032.76H188.699V1033.76V1034.76H229.949V1033.76ZM188.699 1033.76H189.699L189.699 1000.51H188.699H187.699L187.699 1033.76H188.699ZM188.699 1000.51H189.699C189.699 995.77 189.108 991.802 187.881 988.647L186.949 989.01L186.017 989.372C187.123 992.217 187.699 995.916 187.699 1000.51H188.699ZM186.949 989.01L187.863 988.604C186.457 985.44 184.412 983.021 181.713 981.402L181.199 982.26L180.684 983.117C182.986 984.498 184.774 986.579 186.035 989.416L186.949 989.01ZM181.199 982.26L181.754 981.428C179.072 979.64 175.957 978.76 172.449 978.76V979.76V980.76C175.607 980.76 178.326 981.546 180.644 983.092L181.199 982.26ZM172.449 979.76V978.76C168.787 978.76 165.655 979.634 163.118 981.446L163.699 982.26L164.28 983.074C166.409 981.553 169.111 980.76 172.449 980.76V979.76ZM163.699 982.26L163.184 981.402C160.474 983.028 158.505 985.463 157.267 988.647L158.199 989.01L159.131 989.372C160.226 986.556 161.924 984.491 164.213 983.117L163.699 982.26ZM158.199 989.01L157.285 988.604C155.876 991.773 155.199 995.758 155.199 1000.51H156.199H157.199C157.199 995.928 157.855 992.246 159.113 989.416L158.199 989.01ZM156.199 1000.51H155.199L155.199 1033.76H156.199H157.199L157.199 1000.51H156.199ZM219.949 841.211L220.387 842.11L219.949 841.211ZM235.199 827.711L236.046 828.243L236.051 828.234L236.056 828.225L235.199 827.711ZM235.199 785.711L236.056 785.196L236.051 785.188L236.046 785.179L235.199 785.711ZM174.949 771.961L175.368 772.869L175.377 772.865L174.949 771.961ZM159.949 785.211L160.789 785.754L160.798 785.74L160.806 785.725L159.949 785.211ZM159.949 827.711L160.806 827.196L160.801 827.188L160.796 827.179L159.949 827.711ZM174.949 841.211L175.396 840.316L175.387 840.312L174.949 841.211ZM130.199 875.961L130.933 875.282L130.199 875.961ZM111.449 844.961L112.388 844.617L111.449 844.961ZM111.449 767.961L112.388 768.305L111.449 767.961ZM130.199 736.961L130.933 737.64L130.199 736.961ZM159.449 716.461L159.841 717.381L159.449 716.461ZM235.949 716.461L235.566 717.385L235.573 717.388L235.949 716.461ZM265.949 736.461L265.235 737.161L265.949 736.461ZM285.449 767.461L284.513 767.812L284.516 767.82L284.519 767.828L285.449 767.461ZM285.449 846.211L284.517 845.848L284.514 845.855L285.449 846.211ZM265.949 876.961L265.235 876.261L265.949 876.961ZM235.949 897.211L236.32 898.139L236.328 898.136L236.336 898.133L235.949 897.211ZM197.449 845.961V846.961C206.074 846.961 213.729 845.354 220.387 842.11L219.949 841.211L219.511 840.312C213.169 843.401 205.824 844.961 197.449 844.961V845.961ZM219.949 841.211L220.387 842.11C227.046 838.866 232.275 834.242 236.046 828.243L235.199 827.711L234.352 827.179C230.79 832.846 225.852 837.223 219.511 840.312L219.949 841.211ZM235.199 827.711L236.056 828.225C239.667 822.208 241.449 815.022 241.449 806.711H240.449H239.449C239.449 814.733 237.731 821.547 234.341 827.196L235.199 827.711ZM240.449 806.711H241.449C241.449 798.4 239.667 791.214 236.056 785.196L235.199 785.711L234.341 786.225C237.731 791.875 239.449 798.689 239.449 806.711H240.449ZM235.199 785.711L236.046 785.179C232.275 779.179 227.046 774.556 220.387 771.312L219.949 772.211L219.511 773.11C225.852 776.199 230.79 780.576 234.352 786.243L235.199 785.711ZM219.949 772.211L220.387 771.312C213.729 768.068 206.074 766.461 197.449 766.461V767.461V768.461C205.824 768.461 213.169 770.02 219.511 773.11L219.949 772.211ZM197.449 767.461V766.461C188.668 766.461 181.016 767.981 174.521 771.057L174.949 771.961L175.377 772.865C181.549 769.941 188.896 768.461 197.449 768.461V767.461ZM174.949 771.961L174.53 771.053C167.858 774.132 162.7 778.682 159.091 784.696L159.949 785.211L160.806 785.725C164.198 780.074 169.04 775.789 175.368 772.869L174.949 771.961ZM159.949 785.211L159.109 784.668C155.312 790.536 153.449 797.906 153.449 806.711H154.449H155.449C155.449 798.183 157.253 791.219 160.789 785.754L159.949 785.211ZM154.449 806.711H153.449C153.449 815.031 155.318 822.223 159.102 828.243L159.949 827.711L160.796 827.179C157.246 821.532 155.449 814.725 155.449 806.711H154.449ZM159.949 827.711L159.091 828.225C162.697 834.235 167.848 838.864 174.511 842.11L174.949 841.211L175.387 840.312C169.05 837.225 164.2 832.853 160.806 827.196L159.949 827.711ZM174.949 841.211L174.502 842.105C181.002 845.355 188.661 846.961 197.449 846.961V845.961V844.961C188.903 844.961 181.563 843.4 175.396 840.316L174.949 841.211ZM197.449 904.211V903.211C183.57 903.211 171.043 900.733 159.853 895.796L159.449 896.711L159.045 897.626C170.521 902.689 183.328 905.211 197.449 905.211V904.211ZM159.449 896.711L159.853 895.796C148.641 890.85 139.004 884.012 130.933 875.282L130.199 875.961L129.465 876.64C137.727 885.577 147.591 892.572 159.045 897.626L159.449 896.711ZM130.199 875.961L130.933 875.282C122.861 866.55 116.678 856.332 112.388 844.617L111.449 844.961L110.51 845.305C114.887 857.256 121.204 867.705 129.465 876.64L130.199 875.961ZM111.449 844.961L112.388 844.617C108.098 832.903 105.949 820.27 105.949 806.711H104.949H103.949C103.949 820.485 106.133 833.352 110.51 845.305L111.449 844.961ZM104.949 806.711H105.949C105.949 792.815 108.099 780.016 112.388 768.305L111.449 767.961L110.51 767.617C106.132 779.572 103.949 792.607 103.949 806.711H104.949ZM111.449 767.961L112.388 768.305C116.678 756.59 122.861 746.371 130.933 737.64L130.199 736.961L129.465 736.282C121.204 745.217 114.887 755.666 110.51 767.617L111.449 767.961ZM130.199 736.961L130.933 737.64C139.002 728.913 148.634 722.16 159.841 717.381L159.449 716.461L159.057 715.541C147.597 720.428 137.729 727.343 129.465 736.282L130.199 736.961ZM159.449 716.461L159.841 717.381C171.035 712.607 183.565 710.211 197.449 710.211V709.211V708.211C183.332 708.211 170.53 710.648 159.057 715.541L159.449 716.461ZM197.449 709.211V710.211C211.332 710.211 224.033 712.607 235.566 717.385L235.949 716.461L236.332 715.537C224.531 710.648 211.566 708.211 197.449 708.211V709.211ZM235.949 716.461L235.573 717.388C246.949 722.004 256.833 728.595 265.235 737.161L265.949 736.461L266.663 735.761C258.065 726.994 247.949 720.251 236.325 715.534L235.949 716.461ZM265.949 736.461L265.235 737.161C273.632 745.723 280.059 755.935 284.513 767.812L285.449 767.461L286.385 767.11C281.839 754.987 275.266 744.532 266.663 735.761L265.949 736.461ZM285.449 767.461L284.519 767.828C289.134 779.53 291.449 792.487 291.449 806.711H292.449H293.449C293.449 792.268 291.097 779.058 286.379 767.094L285.449 767.461ZM292.449 806.711H291.449C291.449 820.934 289.134 833.976 284.517 845.848L285.449 846.211L286.381 846.573C291.097 834.445 293.449 821.154 293.449 806.711H292.449ZM285.449 846.211L284.514 845.855C280.061 857.566 273.634 867.697 265.235 876.261L265.949 876.961L266.663 877.661C275.264 868.892 281.837 858.523 286.384 846.566L285.449 846.211ZM265.949 876.961L265.235 876.261C256.831 884.83 246.943 891.506 235.562 896.289L235.949 897.211L236.336 898.133C247.955 893.249 258.067 886.425 266.663 877.661L265.949 876.961ZM235.949 897.211L235.578 896.282C224.042 900.897 211.336 903.211 197.449 903.211V904.211V905.211C211.562 905.211 224.523 902.858 236.32 898.139L235.949 897.211ZM109.949 570.5H108.949V571.5H109.949V570.5ZM109.949 518V517H108.949V518H109.949ZM293.699 518L294.49 518.612L295.737 517H293.699V518ZM205.699 631.75L204.908 631.138L203.661 632.75H205.699V631.75ZM284.949 631.75H285.949V630.75H284.949V631.75ZM284.949 684.25V685.25H285.949V684.25H284.949ZM101.199 684.25L100.408 683.638L99.161 685.25H101.199V684.25ZM189.199 570.5L189.99 571.112L191.237 569.5H189.199V570.5ZM109.949 570.5H110.949V518H109.949H108.949V570.5H109.949ZM109.949 518V519H293.699V518V517H109.949V518ZM293.699 518L292.908 517.388L204.908 631.138L205.699 631.75L206.49 632.362L294.49 518.612L293.699 518ZM205.699 631.75V632.75H284.949V631.75V630.75H205.699V631.75ZM284.949 631.75H283.949V684.25H284.949H285.949V631.75H284.949ZM284.949 684.25V683.25H101.199V684.25V685.25H284.949V684.25ZM101.199 684.25L101.99 684.862L189.99 571.112L189.199 570.5L188.408 569.888L100.408 683.638L101.199 684.25ZM189.199 570.5V569.5H109.949V570.5V571.5H189.199V570.5ZM158.699 500.578V501.578H159.699V500.578H158.699ZM109.949 500.578H108.949V501.578H109.949V500.578ZM109.949 345.578V344.578H108.949V345.578H109.949ZM158.699 345.578H159.699V344.578H158.699V345.578ZM158.699 395.578H157.699V396.578H158.699V395.578ZM284.949 395.578H285.949V394.578H284.949V395.578ZM284.949 450.578V451.578H285.949V450.578H284.949ZM158.699 450.578V449.578H157.699V450.578H158.699ZM158.699 500.578V499.578H109.949V500.578V501.578H158.699V500.578ZM109.949 500.578H110.949L110.949 345.578H109.949H108.949L108.949 500.578H109.949ZM109.949 345.578V346.578H158.699V345.578V344.578H109.949V345.578ZM158.699 345.578H157.699V395.578H158.699H159.699V345.578H158.699ZM158.699 395.578V396.578H284.949V395.578V394.578H158.699V395.578ZM284.949 395.578H283.949V450.578H284.949H285.949V395.578H284.949ZM284.949 450.578V449.578H158.699V450.578V451.578H284.949V450.578ZM158.699 450.578H157.699V500.578H158.699H159.699V450.578H158.699ZM645.949 1177.5V1178.5H646.949V1177.5H645.949ZM602.199 1177.5H601.199V1178.5H602.199V1177.5ZM602.199 1089.25V1088.25H601.199V1089.25H602.199ZM645.949 1089.25H646.949V1088.25H645.949V1089.25ZM514.699 1177.5V1178.5H515.699V1177.5H514.699ZM470.949 1177.5H469.949V1178.5H470.949V1177.5ZM470.949 1089.25V1088.25H469.949V1089.25H470.949ZM514.699 1089.25H515.699V1088.25H514.699V1089.25ZM577.199 1177.5V1178.5H578.199V1177.5H577.199ZM534.699 1177.5H533.699V1178.5H534.699V1177.5ZM534.699 1094.25V1093.25H533.699V1094.25H534.699ZM577.199 1094.25H578.199V1093.25H577.199V1094.25ZM470.949 1215.5H469.949V1216.5H470.949V1215.5ZM470.949 1163V1162H469.949V1163H470.949ZM645.949 1163H646.949V1162H645.949V1163ZM645.949 1215.5V1216.5H646.949V1215.5H645.949ZM645.949 1177.5V1176.5H602.199V1177.5V1178.5H645.949V1177.5ZM602.199 1177.5H603.199V1089.25H602.199H601.199V1177.5H602.199ZM602.199 1089.25V1090.25H645.949V1089.25V1088.25H602.199V1089.25ZM645.949 1089.25H644.949V1177.5H645.949H646.949V1089.25H645.949ZM514.699 1177.5V1176.5H470.949V1177.5V1178.5H514.699V1177.5ZM470.949 1177.5H471.949V1089.25H470.949H469.949V1177.5H470.949ZM470.949 1089.25V1090.25H514.699V1089.25V1088.25H470.949V1089.25ZM514.699 1089.25H513.699V1177.5H514.699H515.699V1089.25H514.699ZM577.199 1177.5V1176.5H534.699V1177.5V1178.5H577.199V1177.5ZM534.699 1177.5H535.699V1094.25H534.699H533.699V1177.5H534.699ZM534.699 1094.25V1095.25H577.199V1094.25V1093.25H534.699V1094.25ZM577.199 1094.25H576.199V1177.5H577.199H578.199V1094.25H577.199ZM470.949 1215.5H471.949V1163H470.949H469.949V1215.5H470.949ZM470.949 1163V1164H645.949V1163V1162H470.949V1163ZM645.949 1163H644.949V1215.5H645.949H646.949V1163H645.949ZM645.949 1215.5V1214.5H470.949V1215.5V1216.5H645.949V1215.5ZM470.949 943.059H469.949V944.059H470.949V943.059ZM470.949 890.559V889.559H469.949V890.559H470.949ZM654.699 890.559L655.49 891.17L656.737 889.559H654.699V890.559ZM566.699 1004.31L565.908 1003.7L564.661 1005.31H566.699V1004.31ZM645.949 1004.31H646.949V1003.31H645.949V1004.31ZM645.949 1056.81V1057.81H646.949V1056.81H645.949ZM462.199 1056.81L461.408 1056.2L460.161 1057.81H462.199V1056.81ZM550.199 943.059L550.99 943.67L552.237 942.059H550.199V943.059ZM470.949 943.059H471.949V890.559H470.949H469.949V943.059H470.949ZM470.949 890.559V891.559H654.699V890.559V889.559H470.949V890.559ZM654.699 890.559L653.908 889.947L565.908 1003.7L566.699 1004.31L567.49 1004.92L655.49 891.17L654.699 890.559ZM566.699 1004.31V1005.31H645.949V1004.31V1003.31H566.699V1004.31ZM645.949 1004.31H644.949V1056.81H645.949H646.949V1004.31H645.949ZM645.949 1056.81V1055.81H462.199V1056.81V1057.81H645.949V1056.81ZM462.199 1056.81L462.99 1057.42L550.99 943.67L550.199 943.059L549.408 942.447L461.408 1056.2L462.199 1056.81ZM550.199 943.059V942.059H470.949V943.059V944.059H550.199V943.059ZM470.949 855.637H469.949V856.637H470.949V855.637ZM470.949 798.387V797.387H469.949V798.387H470.949ZM645.949 798.387H646.949V797.387H645.949V798.387ZM645.949 855.637V856.637H646.949V855.637H645.949ZM645.949 817.637V818.637H646.949V817.637H645.949ZM598.449 817.637H597.449V818.637H598.449V817.637ZM579.949 750.887L579.502 751.781L579.513 751.787L579.525 751.792L579.949 750.887ZM536.949 750.887L537.373 751.792L537.385 751.787L537.396 751.781L536.949 750.887ZM524.949 760.887L524.107 760.348L524.949 760.887ZM519.699 774.637L520.685 774.801L519.699 774.637ZM518.449 817.637V818.637H519.449V817.637H518.449ZM470.949 817.637H469.949V818.637H470.949V817.637ZM481.449 734.637L482.35 735.071L482.351 735.067L481.449 734.637ZM511.449 701.137L511.957 701.998L511.965 701.993L511.449 701.137ZM605.449 701.137L604.938 701.996L604.941 701.998L605.449 701.137ZM635.449 734.637L634.547 735.067L634.548 735.071L635.449 734.637ZM470.949 855.637H471.949V798.387H470.949H469.949V855.637H470.949ZM470.949 798.387V799.387H645.949V798.387V797.387H470.949V798.387ZM645.949 798.387H644.949V855.637H645.949H646.949V798.387H645.949ZM645.949 855.637V854.637H470.949V855.637V856.637H645.949V855.637ZM645.949 786.887H644.949V817.637H645.949H646.949V786.887H645.949ZM645.949 817.637V816.637H598.449V817.637V818.637H645.949V817.637ZM598.449 817.637H599.449V789.387H598.449H597.449V817.637H598.449ZM598.449 789.387H599.449C599.449 784.496 599.027 779.524 598.185 774.472L597.199 774.637L596.213 774.801C597.037 779.749 597.449 784.611 597.449 789.387H598.449ZM597.199 774.637L598.185 774.472C597.33 769.342 595.533 764.631 592.791 760.348L591.949 760.887L591.107 761.426C593.699 765.476 595.401 769.931 596.213 774.801L597.199 774.637ZM591.949 760.887L592.791 760.348C590.005 755.994 585.845 752.546 580.373 749.981L579.949 750.887L579.525 751.792C584.72 754.227 588.56 757.446 591.107 761.426L591.949 760.887ZM579.949 750.887L580.396 749.992C574.871 747.23 567.532 745.887 558.449 745.887V746.887V747.887C567.366 747.887 574.36 749.21 579.502 751.781L579.949 750.887ZM558.449 746.887V745.887C549.366 745.887 542.027 747.23 536.502 749.992L536.949 750.887L537.396 751.781C542.538 749.21 549.532 747.887 558.449 747.887V746.887ZM536.949 750.887L536.525 749.981C531.053 752.546 526.893 755.994 524.107 760.348L524.949 760.887L525.791 761.426C528.338 757.446 532.178 754.227 537.373 751.792L536.949 750.887ZM524.949 760.887L524.107 760.348C521.365 764.631 519.568 769.342 518.713 774.472L519.699 774.637L520.685 774.801C521.497 769.931 523.199 765.476 525.791 761.426L524.949 760.887ZM519.699 774.637L518.713 774.472C517.871 779.524 517.449 784.496 517.449 789.387H518.449H519.449C519.449 784.611 519.861 779.749 520.685 774.801L519.699 774.637ZM518.449 789.387H517.449V817.637H518.449H519.449V789.387H518.449ZM518.449 817.637V816.637H470.949V817.637V818.637H518.449V817.637ZM470.949 817.637H471.949V786.887H470.949H469.949V817.637H470.949ZM470.949 786.887H471.949C471.949 766.665 475.43 749.405 482.35 735.071L481.449 734.637L480.548 734.202C473.468 748.868 469.949 766.441 469.949 786.887H470.949ZM481.449 734.637L482.351 735.067C489.273 720.566 499.142 709.556 511.957 701.998L511.449 701.137L510.941 700.275C497.756 708.051 487.625 719.374 480.546 734.206L481.449 734.637ZM511.449 701.137L511.965 701.993C524.78 694.272 540.26 690.387 558.449 690.387V689.387V688.387C539.972 688.387 524.118 692.335 510.933 700.28L511.449 701.137ZM558.449 689.387V690.387C576.469 690.387 591.952 694.271 604.938 701.996L605.449 701.137L605.96 700.277C592.612 692.336 576.762 688.387 558.449 688.387V689.387ZM605.449 701.137L604.941 701.998C617.756 709.556 627.625 720.566 634.547 735.067L635.449 734.637L636.351 734.206C629.273 719.374 619.142 708.051 605.957 700.275L605.449 701.137ZM635.449 734.637L634.548 735.071C641.468 749.405 644.949 766.665 644.949 786.887H645.949H646.949C646.949 766.441 643.43 748.868 636.35 734.202L635.449 734.637Z" fill="white" fill-opacity="0.1" mask="url(#path-5-outside-3_142_6238)"/>
</svg>
