<svg width="736" height="736" viewBox="0 0 736 736" fill="none" xmlns="http://www.w3.org/2000/svg">
<path d="M81.4999 508V227C81.4999 213.8 92.5 209.166 98 208.5H628.5C646 206.5 655 218.5 655 226.5V455.5H591L561 504H512.5L540.5 455.5H492L462.5 504H413.5L442.5 455.5H394L365 504H316L344 455.5H320C312.8 455.1 306.333 463 304 467L273 520C266.5 528.5 251.167 529.166 242.5 528.5H97.4999C83.5 528.5 81.5 516.5 81.4999 508Z" fill="white"/>
<path d="M641.5 252H655.5V301.5H611.5L641.5 252Z" fill="#0E1520"/>
<path d="M405.5 291V258.55H416.95C420.6 258.55 423.442 259.45 425.475 261.25C427.525 263.05 428.55 265.6 428.55 268.9C428.55 272.167 427.525 274.7 425.475 276.5C423.442 278.3 420.6 279.2 416.95 279.2H411.45V291H405.5ZM411.45 274.05H416.95C418.783 274.05 420.167 273.567 421.1 272.6C422.033 271.633 422.5 270.4 422.5 268.9C422.5 267.367 422.033 266.108 421.1 265.125C420.167 264.142 418.783 263.65 416.95 263.65H411.45V274.05ZM434.654 291V258.55H446.654C450.537 258.55 453.512 259.458 455.579 261.275C457.662 263.092 458.704 265.5 458.704 268.5C458.704 271.45 457.662 273.833 455.579 275.65C453.512 277.45 450.537 278.35 446.654 278.35H440.554V291H434.654ZM452.204 291L443.604 275.8H449.904L459.904 291H452.204ZM440.554 274.4H446.054C448.221 274.4 449.862 273.908 450.979 272.925C452.096 271.925 452.654 270.633 452.654 269.05C452.654 267.433 452.146 266.133 451.129 265.15C450.112 264.15 448.621 263.65 446.654 263.65H440.554V274.4ZM479.232 291.7C476.348 291.7 473.798 291.067 471.582 289.8C469.382 288.533 467.657 286.642 466.407 284.125C465.157 281.608 464.532 278.483 464.532 274.75C464.532 270.95 465.157 267.808 466.407 265.325C467.657 262.825 469.382 260.967 471.582 259.75C473.798 258.517 476.348 257.9 479.232 257.9C482.132 257.9 484.69 258.533 486.907 259.8C489.123 261.05 490.857 262.925 492.107 265.425C493.357 267.925 493.982 271.033 493.982 274.75C493.982 278.533 493.357 281.683 492.107 284.2C490.857 286.717 489.123 288.6 486.907 289.85C484.69 291.083 482.132 291.7 479.232 291.7ZM479.232 286.35C481.882 286.35 483.982 285.35 485.532 283.35C487.098 281.35 487.882 278.467 487.882 274.7C487.882 271.067 487.098 268.242 485.532 266.225C483.982 264.208 481.882 263.2 479.232 263.2C476.632 263.2 474.548 264.217 472.982 266.25C471.415 268.267 470.632 271.1 470.632 274.75C470.632 278.5 471.415 281.375 472.982 283.375C474.548 285.358 476.632 286.35 479.232 286.35ZM497.113 289.65V283.75C498.446 284.517 499.746 285.075 501.013 285.425C502.296 285.775 503.479 285.95 504.563 285.95C505.996 285.95 507.038 285.533 507.688 284.7C508.338 283.867 508.663 282.6 508.663 280.9V258.55H514.613V280.9C514.613 283.517 514.204 285.617 513.388 287.2C512.571 288.783 511.446 289.933 510.013 290.65C508.579 291.35 506.929 291.7 505.063 291.7C503.596 291.7 502.196 291.5 500.863 291.1C499.529 290.717 498.279 290.233 497.113 289.65ZM523.08 291V258.55H543.93V263.65H528.98V272.2H543.03V277.3H528.98V285.85H543.93V291H523.08ZM564.276 291.7C561.426 291.7 558.943 291.025 556.826 289.675C554.726 288.308 553.093 286.358 551.926 283.825C550.76 281.292 550.176 278.25 550.176 274.7C550.176 271.033 550.776 267.958 551.976 265.475C553.193 262.975 554.86 261.092 556.976 259.825C559.11 258.542 561.543 257.9 564.276 257.9C568.06 257.9 571.01 258.817 573.126 260.65C575.26 262.483 576.626 264.867 577.226 267.8L570.926 268.95C570.41 267.25 569.585 265.875 568.451 264.825C567.318 263.775 565.926 263.25 564.276 263.25C562.826 263.25 561.518 263.675 560.351 264.525C559.185 265.358 558.251 266.625 557.551 268.325C556.868 270.025 556.526 272.15 556.526 274.7C556.526 277.1 556.826 279.167 557.426 280.9C558.043 282.633 558.926 283.967 560.076 284.9C561.226 285.833 562.626 286.3 564.276 286.3C566.393 286.3 568.026 285.742 569.176 284.625C570.343 283.492 570.926 282.05 570.926 280.3H577.226C577.226 282.717 576.701 284.775 575.651 286.475C574.618 288.158 573.135 289.45 571.201 290.35C569.268 291.25 566.96 291.7 564.276 291.7ZM579.816 263.65V258.55H605.816V263.65H594.441L595.766 262.3V291H589.866V262.3L591.191 263.65H579.816Z" fill="#0E1520"/>
<path d="M518.925 350.5H523V368.875L510.9 358.15V368H506.85V349.625L518.925 360.35V350.5ZM529.924 359.25C529.924 360.067 529.999 360.817 530.149 361.5C530.299 362.167 530.515 362.742 530.799 363.225C531.082 363.692 531.415 364.058 531.799 364.325C532.199 364.575 532.64 364.7 533.124 364.7C533.607 364.7 534.04 364.575 534.424 364.325C534.824 364.058 535.165 363.692 535.449 363.225C535.732 362.742 535.949 362.167 536.099 361.5C536.249 360.817 536.324 360.067 536.324 359.25C536.324 358.433 536.249 357.692 536.099 357.025C535.949 356.342 535.732 355.767 535.449 355.3C535.165 354.817 534.824 354.45 534.424 354.2C534.04 353.933 533.607 353.8 533.124 353.8C532.64 353.8 532.199 353.933 531.799 354.2C531.415 354.45 531.082 354.817 530.799 355.3C530.515 355.767 530.299 356.342 530.149 357.025C529.999 357.692 529.924 358.433 529.924 359.25ZM525.849 359.25C525.849 357.35 526.149 355.725 526.749 354.375C527.365 353.025 528.224 351.992 529.324 351.275C530.424 350.542 531.69 350.175 533.124 350.175C534.624 350.175 535.915 350.542 536.999 351.275C538.082 351.992 538.915 353.025 539.499 354.375C540.099 355.725 540.399 357.35 540.399 359.25C540.399 361.15 540.099 362.775 539.499 364.125C538.915 365.475 538.082 366.517 536.999 367.25C535.915 367.967 534.624 368.325 533.124 368.325C531.69 368.325 530.424 367.967 529.324 367.25C528.224 366.517 527.365 365.475 526.749 364.125C526.149 362.775 525.849 361.15 525.849 359.25Z" fill="#0E1520"/>
<path d="M510.325 387.25C510.325 388.383 510.558 389.367 511.025 390.2C511.508 391.033 512.15 391.683 512.95 392.15C513.767 392.6 514.667 392.825 515.65 392.825C516.65 392.825 517.525 392.617 518.275 392.2C519.025 391.783 519.608 391.192 520.025 390.425C520.458 389.642 520.675 388.742 520.675 387.725C520.675 386.675 520.458 385.717 520.025 384.85C519.608 383.983 519 383.292 518.2 382.775C517.417 382.242 516.467 381.975 515.35 381.975C514.35 381.975 513.475 382.2 512.725 382.65C511.975 383.1 511.383 383.725 510.95 384.525C510.533 385.308 510.325 386.217 510.325 387.25ZM505.85 387.25C505.85 385.9 506.092 384.667 506.575 383.55C507.058 382.433 507.733 381.467 508.6 380.65C509.467 379.833 510.475 379.208 511.625 378.775C512.775 378.325 514.017 378.1 515.35 378.1C516.7 378.1 517.942 378.325 519.075 378.775C520.208 379.208 521.192 379.833 522.025 380.65C522.875 381.467 523.525 382.433 523.975 383.55C524.442 384.667 524.675 385.9 524.675 387.25C524.675 388.6 524.45 389.842 524 390.975C523.55 392.108 522.908 393.092 522.075 393.925C521.242 394.758 520.25 395.408 519.1 395.875C517.967 396.325 516.717 396.55 515.35 396.55C513.967 396.55 512.7 396.325 511.55 395.875C510.4 395.408 509.392 394.758 508.525 393.925C507.675 393.092 507.017 392.108 506.55 390.975C506.083 389.842 505.85 388.6 505.85 387.25ZM513.925 388.5H518.3L526.725 396.3H522.2L513.925 388.5ZM532.807 388.075H537.182L542.657 396H537.707L532.807 388.075ZM528.432 378.5H532.657V396H528.432V378.5ZM531.082 382.075V378.5H534.807C536.307 378.5 537.557 378.742 538.557 379.225C539.557 379.708 540.315 380.383 540.832 381.25C541.349 382.1 541.607 383.092 541.607 384.225C541.607 385.342 541.349 386.333 540.832 387.2C540.315 388.05 539.557 388.717 538.557 389.2C537.557 389.683 536.307 389.925 534.807 389.925H531.082V386.65H534.507C535.074 386.65 535.557 386.567 535.957 386.4C536.374 386.217 536.69 385.958 536.907 385.625C537.124 385.275 537.232 384.858 537.232 384.375C537.232 383.892 537.124 383.483 536.907 383.15C536.69 382.8 536.374 382.533 535.957 382.35C535.557 382.167 535.074 382.075 534.507 382.075H531.082Z" fill="#0E1520"/>
<path d="M553.66 367.08C553.807 367.307 554.02 367.48 554.3 367.6C554.567 367.733 554.88 367.8 555.24 367.8C555.547 367.8 555.847 367.66 556.14 367.38C556.447 367.113 556.6 366.653 556.6 366V351H558.2V366.2C558.2 366.747 558.127 367.22 557.98 367.62C557.847 368.02 557.647 368.353 557.38 368.62C557.113 368.887 556.787 369.08 556.4 369.2C556.027 369.333 555.607 369.4 555.14 369.4C554.793 369.4 554.46 369.34 554.14 369.22C553.807 369.113 553.527 368.98 553.3 368.82C553.06 368.673 552.887 368.533 552.78 368.4L553.66 367.08ZM562.745 360.8L563.345 359.2H569.545L570.145 360.8H562.745ZM566.405 354.16L564.045 359.72L563.885 360.08L561.805 365H559.905L566.405 350.3L572.905 365H571.005L568.965 360.2L568.805 359.8L566.405 354.16ZM575.508 358C575.508 358.813 575.588 359.567 575.748 360.26C575.908 360.94 576.141 361.533 576.448 362.04C576.754 362.533 577.121 362.92 577.548 363.2C577.988 363.467 578.474 363.6 579.008 363.6C579.554 363.6 580.041 363.467 580.468 363.2C580.894 362.92 581.261 362.533 581.568 362.04C581.874 361.533 582.108 360.94 582.268 360.26C582.428 359.567 582.508 358.813 582.508 358C582.508 357.187 582.428 356.44 582.268 355.76C582.108 355.067 581.874 354.473 581.568 353.98C581.261 353.473 580.894 353.087 580.468 352.82C580.041 352.54 579.554 352.4 579.008 352.4C578.474 352.4 577.988 352.54 577.548 352.82C577.121 353.087 576.754 353.473 576.448 353.98C576.141 354.473 575.908 355.067 575.748 355.76C575.588 356.44 575.508 357.187 575.508 358ZM573.808 358C573.808 356.6 574.028 355.36 574.468 354.28C574.908 353.2 575.514 352.353 576.288 351.74C577.074 351.113 577.981 350.8 579.008 350.8C580.034 350.8 580.934 351.113 581.708 351.74C582.494 352.353 583.108 353.2 583.548 354.28C583.988 355.36 584.208 356.6 584.208 358C584.208 359.4 583.988 360.64 583.548 361.72C583.108 362.8 582.494 363.653 581.708 364.28C580.934 364.893 580.034 365.2 579.008 365.2C577.981 365.2 577.074 364.893 576.288 364.28C575.514 363.653 574.908 362.8 574.468 361.72C574.028 360.64 573.808 359.4 573.808 358ZM585.6 352.6V351H595.4L588.7 365H586.92L592.86 352.6H585.6ZM598.008 358C598.008 358.813 598.088 359.567 598.248 360.26C598.408 360.94 598.641 361.533 598.948 362.04C599.254 362.533 599.621 362.92 600.048 363.2C600.488 363.467 600.974 363.6 601.508 363.6C602.054 363.6 602.541 363.467 602.968 363.2C603.394 362.92 603.761 362.533 604.068 362.04C604.374 361.533 604.608 360.94 604.768 360.26C604.928 359.567 605.008 358.813 605.008 358C605.008 357.187 604.928 356.44 604.768 355.76C604.608 355.067 604.374 354.473 604.068 353.98C603.761 353.473 603.394 353.087 602.968 352.82C602.541 352.54 602.054 352.4 601.508 352.4C600.974 352.4 600.488 352.54 600.048 352.82C599.621 353.087 599.254 353.473 598.948 353.98C598.641 354.473 598.408 355.067 598.248 355.76C598.088 356.44 598.008 357.187 598.008 358ZM596.308 358C596.308 356.6 596.528 355.36 596.968 354.28C597.408 353.2 598.014 352.353 598.788 351.74C599.574 351.113 600.481 350.8 601.508 350.8C602.534 350.8 603.434 351.113 604.208 351.74C604.994 352.353 605.608 353.2 606.048 354.28C606.488 355.36 606.708 356.6 606.708 358C606.708 359.4 606.488 360.64 606.048 361.72C605.608 362.8 604.994 363.653 604.208 364.28C603.434 364.893 602.534 365.2 601.508 365.2C600.481 365.2 599.574 364.893 598.788 364.28C598.014 363.653 597.408 362.8 596.968 361.72C596.528 360.64 596.308 359.4 596.308 358ZM616.4 355.6C616.4 354.96 616.26 354.4 615.98 353.92C615.713 353.427 615.34 353.04 614.86 352.76C614.393 352.48 613.86 352.34 613.26 352.34C612.66 352.34 612.12 352.48 611.64 352.76C611.173 353.04 610.8 353.427 610.52 353.92C610.253 354.4 610.12 354.96 610.12 355.6C610.12 356.24 610.253 356.807 610.52 357.3C610.8 357.793 611.173 358.187 611.64 358.48C612.12 358.76 612.66 358.9 613.26 358.9C613.86 358.9 614.393 358.76 614.86 358.48C615.34 358.187 615.713 357.793 615.98 357.3C616.26 356.807 616.4 356.24 616.4 355.6ZM612.42 365H610.28L614.66 359.22L614.78 359.32C614.513 359.653 614.2 359.873 613.84 359.98C613.493 360.087 613.093 360.14 612.64 360.14C612.067 360.14 611.527 360.027 611.02 359.8C610.527 359.573 610.087 359.253 609.7 358.84C609.327 358.427 609.033 357.947 608.82 357.4C608.607 356.84 608.5 356.24 608.5 355.6C608.5 354.64 608.707 353.8 609.12 353.08C609.547 352.36 610.12 351.8 610.84 351.4C611.56 351 612.367 350.8 613.26 350.8C614.167 350.8 614.973 351 615.68 351.4C616.4 351.8 616.967 352.36 617.38 353.08C617.807 353.8 618.02 354.64 618.02 355.6C618.02 356.173 617.94 356.707 617.78 357.2C617.62 357.693 617.407 358.127 617.14 358.5L612.42 365Z" fill="#0E1520"/>
<path d="M116.11 508.5H118.72V519H116.11V508.5ZM119.86 519H117.79V516.75H119.77C120.17 516.75 120.555 516.7 120.925 516.6C121.305 516.5 121.635 516.335 121.915 516.105C122.205 515.875 122.435 515.57 122.605 515.19C122.775 514.8 122.86 514.32 122.86 513.75C122.86 513.18 122.775 512.705 122.605 512.325C122.435 511.935 122.205 511.625 121.915 511.395C121.635 511.165 121.305 511 120.925 510.9C120.555 510.8 120.17 510.75 119.77 510.75H117.79V508.5H119.86C121.01 508.5 122.005 508.715 122.845 509.145C123.685 509.575 124.335 510.18 124.795 510.96C125.255 511.74 125.485 512.67 125.485 513.75C125.485 514.82 125.255 515.75 124.795 516.54C124.335 517.32 123.685 517.925 122.845 518.355C122.005 518.785 121.01 519 119.86 519ZM128.791 519V516.915H134.086V519H128.791ZM128.791 510.585V508.5H134.086V510.585H128.791ZM128.791 514.5V512.46H133.786V514.5H128.791ZM127.111 508.5H129.541V519H127.111V508.5ZM137.304 515.31C137.514 515.69 137.749 516.02 138.009 516.3C138.279 516.58 138.569 516.795 138.879 516.945C139.199 517.095 139.534 517.17 139.884 517.17C140.254 517.17 140.559 517.08 140.799 516.9C141.039 516.71 141.159 516.455 141.159 516.135C141.159 515.865 141.089 515.65 140.949 515.49C140.809 515.32 140.584 515.16 140.274 515.01C139.964 514.86 139.554 514.69 139.044 514.5C138.794 514.41 138.504 514.285 138.174 514.125C137.854 513.965 137.549 513.76 137.259 513.51C136.969 513.25 136.729 512.94 136.539 512.58C136.349 512.21 136.254 511.765 136.254 511.245C136.254 510.625 136.414 510.09 136.734 509.64C137.064 509.19 137.504 508.85 138.054 508.62C138.614 508.38 139.234 508.26 139.914 508.26C140.614 508.26 141.219 508.375 141.729 508.605C142.249 508.835 142.679 509.125 143.019 509.475C143.359 509.825 143.619 510.18 143.799 510.54L141.864 511.62C141.714 511.37 141.539 511.155 141.339 510.975C141.149 510.785 140.934 510.64 140.694 510.54C140.464 510.43 140.214 510.375 139.944 510.375C139.584 510.375 139.309 510.455 139.119 510.615C138.929 510.765 138.834 510.955 138.834 511.185C138.834 511.425 138.924 511.635 139.104 511.815C139.294 511.995 139.559 512.16 139.899 512.31C140.249 512.46 140.669 512.62 141.159 512.79C141.529 512.93 141.874 513.095 142.194 513.285C142.514 513.465 142.794 513.685 143.034 513.945C143.284 514.205 143.479 514.505 143.619 514.845C143.759 515.185 143.829 515.575 143.829 516.015C143.829 516.545 143.719 517.02 143.499 517.44C143.289 517.85 142.999 518.195 142.629 518.475C142.269 518.755 141.854 518.965 141.384 519.105C140.924 519.255 140.449 519.33 139.959 519.33C139.279 519.33 138.644 519.21 138.054 518.97C137.474 518.72 136.969 518.385 136.539 517.965C136.109 517.545 135.774 517.085 135.534 516.585L137.304 515.31ZM145.524 508.5H148.104V519H145.524V508.5ZM155.534 515.205V513.255H160.844C160.894 514.095 160.809 514.88 160.589 515.61C160.369 516.34 160.029 516.985 159.569 517.545C159.109 518.105 158.534 518.545 157.844 518.865C157.154 519.175 156.364 519.33 155.474 519.33C154.634 519.33 153.864 519.2 153.164 518.94C152.464 518.67 151.859 518.29 151.349 517.8C150.839 517.3 150.439 516.71 150.149 516.03C149.869 515.34 149.729 514.58 149.729 513.75C149.729 512.92 149.874 512.17 150.164 511.5C150.454 510.82 150.864 510.24 151.394 509.76C151.924 509.28 152.544 508.91 153.254 508.65C153.964 508.39 154.734 508.26 155.564 508.26C156.304 508.26 156.969 508.365 157.559 508.575C158.149 508.785 158.669 509.08 159.119 509.46C159.579 509.83 159.974 510.26 160.304 510.75L158.054 511.92C157.814 511.5 157.489 511.155 157.079 510.885C156.679 510.605 156.174 510.465 155.564 510.465C154.984 510.465 154.449 510.595 153.959 510.855C153.479 511.115 153.094 511.49 152.804 511.98C152.524 512.46 152.384 513.05 152.384 513.75C152.384 514.44 152.519 515.04 152.789 515.55C153.069 516.05 153.444 516.44 153.914 516.72C154.394 516.99 154.944 517.125 155.564 517.125C155.944 517.125 156.289 517.08 156.599 516.99C156.909 516.89 157.174 516.755 157.394 516.585C157.614 516.405 157.799 516.2 157.949 515.97C158.109 515.73 158.234 515.475 158.324 515.205H155.534ZM169.791 508.5H172.236V519.525L164.976 513.09V519H162.546V507.975L169.791 514.41V508.5ZM180.842 513.78V512.67H182.537C182.827 512.67 183.072 512.625 183.272 512.535C183.482 512.445 183.642 512.32 183.752 512.16C183.862 511.99 183.917 511.785 183.917 511.545C183.917 511.185 183.797 510.915 183.557 510.735C183.317 510.555 182.977 510.465 182.537 510.465H181.487V517.035H182.777C183.107 517.035 183.402 516.995 183.662 516.915C183.922 516.825 184.127 516.685 184.277 516.495C184.437 516.295 184.517 516.025 184.517 515.685C184.517 515.465 184.472 515.275 184.382 515.115C184.292 514.955 184.167 514.825 184.007 514.725C183.847 514.625 183.662 514.555 183.452 514.515C183.252 514.465 183.027 514.44 182.777 514.44H180.842V513.06H183.062C183.572 513.06 184.067 513.115 184.547 513.225C185.027 513.335 185.462 513.515 185.852 513.765C186.242 514.005 186.552 514.315 186.782 514.695C187.022 515.065 187.142 515.515 187.142 516.045C187.142 516.745 186.972 517.31 186.632 517.74C186.302 518.17 185.832 518.49 185.222 518.7C184.612 518.9 183.892 519 183.062 519H178.952V508.5H182.807C183.537 508.5 184.177 508.6 184.727 508.8C185.287 508.99 185.727 509.285 186.047 509.685C186.377 510.075 186.542 510.57 186.542 511.17C186.542 511.72 186.377 512.19 186.047 512.58C185.727 512.97 185.287 513.27 184.727 513.48C184.177 513.68 183.537 513.78 182.807 513.78H180.842ZM194.354 508.5H197.264L193.589 514.725V519H191.009V514.74L187.334 508.5H190.244L192.299 512.445L194.354 508.5ZM205.558 513.645L204.928 519H202.258L203.953 507.975L208.423 514.38L212.908 507.975L214.603 519H211.933L211.303 513.645L208.423 518.025L205.558 513.645ZM217.867 516.975L218.047 515.04H223.252L223.417 516.975H217.867ZM220.612 512.355L219.142 515.745L219.262 516.3L217.957 519H215.092L220.612 507.84L226.147 519H223.267L222.007 516.405L222.097 515.76L220.612 512.355ZM229.873 514.245H232.498L235.783 519H232.813L229.873 514.245ZM227.248 508.5H229.783V519H227.248V508.5ZM228.838 510.645V508.5H231.073C231.973 508.5 232.723 508.645 233.323 508.935C233.923 509.225 234.378 509.63 234.688 510.15C234.998 510.66 235.153 511.255 235.153 511.935C235.153 512.605 234.998 513.2 234.688 513.72C234.378 514.23 233.923 514.63 233.323 514.92C232.723 515.21 231.973 515.355 231.073 515.355H228.838V513.39H230.893C231.233 513.39 231.523 513.34 231.763 513.24C232.013 513.13 232.203 512.975 232.333 512.775C232.463 512.565 232.528 512.315 232.528 512.025C232.528 511.735 232.463 511.49 232.333 511.29C232.203 511.08 232.013 510.92 231.763 510.81C231.523 510.7 231.233 510.645 230.893 510.645H228.838ZM238.115 515.31C238.325 515.69 238.56 516.02 238.82 516.3C239.09 516.58 239.38 516.795 239.69 516.945C240.01 517.095 240.345 517.17 240.695 517.17C241.065 517.17 241.37 517.08 241.61 516.9C241.85 516.71 241.97 516.455 241.97 516.135C241.97 515.865 241.9 515.65 241.76 515.49C241.62 515.32 241.395 515.16 241.085 515.01C240.775 514.86 240.365 514.69 239.855 514.5C239.605 514.41 239.315 514.285 238.985 514.125C238.665 513.965 238.36 513.76 238.07 513.51C237.78 513.25 237.54 512.94 237.35 512.58C237.16 512.21 237.065 511.765 237.065 511.245C237.065 510.625 237.225 510.09 237.545 509.64C237.875 509.19 238.315 508.85 238.865 508.62C239.425 508.38 240.045 508.26 240.725 508.26C241.425 508.26 242.03 508.375 242.54 508.605C243.06 508.835 243.49 509.125 243.83 509.475C244.17 509.825 244.43 510.18 244.61 510.54L242.675 511.62C242.525 511.37 242.35 511.155 242.15 510.975C241.96 510.785 241.745 510.64 241.505 510.54C241.275 510.43 241.025 510.375 240.755 510.375C240.395 510.375 240.12 510.455 239.93 510.615C239.74 510.765 239.645 510.955 239.645 511.185C239.645 511.425 239.735 511.635 239.915 511.815C240.105 511.995 240.37 512.16 240.71 512.31C241.06 512.46 241.48 512.62 241.97 512.79C242.34 512.93 242.685 513.095 243.005 513.285C243.325 513.465 243.605 513.685 243.845 513.945C244.095 514.205 244.29 514.505 244.43 514.845C244.57 515.185 244.64 515.575 244.64 516.015C244.64 516.545 244.53 517.02 244.31 517.44C244.1 517.85 243.81 518.195 243.44 518.475C243.08 518.755 242.665 518.965 242.195 519.105C241.735 519.255 241.26 519.33 240.77 519.33C240.09 519.33 239.455 519.21 238.865 518.97C238.285 518.72 237.78 518.385 237.35 517.965C236.92 517.545 236.585 517.085 236.345 516.585L238.115 515.31Z" fill="#0E1520"/>
<path d="M555.4 394L562.02 386.94C562.327 386.607 562.587 386.28 562.8 385.96C563.027 385.627 563.193 385.293 563.3 384.96C563.42 384.613 563.48 384.253 563.48 383.88C563.48 383.573 563.42 383.273 563.3 382.98C563.18 382.687 563 382.42 562.76 382.18C562.533 381.94 562.253 381.747 561.92 381.6C561.587 381.453 561.207 381.38 560.78 381.38C560.18 381.38 559.66 381.52 559.22 381.8C558.793 382.067 558.467 382.46 558.24 382.98C558.013 383.487 557.9 384.093 557.9 384.8H556.2C556.2 383.8 556.38 382.927 556.74 382.18C557.1 381.42 557.62 380.833 558.3 380.42C558.993 379.993 559.82 379.78 560.78 379.78C561.553 379.78 562.22 379.913 562.78 380.18C563.34 380.433 563.8 380.767 564.16 381.18C564.52 381.58 564.787 382.013 564.96 382.48C565.133 382.947 565.22 383.393 565.22 383.82C565.22 384.54 565.047 385.253 564.7 385.96C564.353 386.667 563.907 387.3 563.36 387.86L558.9 392.4H565.28V394H555.4ZM568.887 387C568.887 387.813 568.967 388.567 569.127 389.26C569.287 389.94 569.52 390.533 569.827 391.04C570.133 391.533 570.5 391.92 570.927 392.2C571.367 392.467 571.853 392.6 572.387 392.6C572.933 392.6 573.42 392.467 573.847 392.2C574.273 391.92 574.64 391.533 574.947 391.04C575.253 390.533 575.487 389.94 575.647 389.26C575.807 388.567 575.887 387.813 575.887 387C575.887 386.187 575.807 385.44 575.647 384.76C575.487 384.067 575.253 383.473 574.947 382.98C574.64 382.473 574.273 382.087 573.847 381.82C573.42 381.54 572.933 381.4 572.387 381.4C571.853 381.4 571.367 381.54 570.927 381.82C570.5 382.087 570.133 382.473 569.827 382.98C569.52 383.473 569.287 384.067 569.127 384.76C568.967 385.44 568.887 386.187 568.887 387ZM567.187 387C567.187 385.6 567.407 384.36 567.847 383.28C568.287 382.2 568.893 381.353 569.667 380.74C570.453 380.113 571.36 379.8 572.387 379.8C573.413 379.8 574.313 380.113 575.087 380.74C575.873 381.353 576.487 382.2 576.927 383.28C577.367 384.36 577.587 385.6 577.587 387C577.587 388.4 577.367 389.64 576.927 390.72C576.487 391.8 575.873 392.653 575.087 393.28C574.313 393.893 573.413 394.2 572.387 394.2C571.36 394.2 570.453 393.893 569.667 393.28C568.893 392.653 568.287 391.8 567.847 390.72C567.407 389.64 567.187 388.4 567.187 387ZM580.879 387C580.879 387.813 580.959 388.567 581.119 389.26C581.279 389.94 581.512 390.533 581.819 391.04C582.126 391.533 582.492 391.92 582.919 392.2C583.359 392.467 583.846 392.6 584.379 392.6C584.926 392.6 585.412 392.467 585.839 392.2C586.266 391.92 586.632 391.533 586.939 391.04C587.246 390.533 587.479 389.94 587.639 389.26C587.799 388.567 587.879 387.813 587.879 387C587.879 386.187 587.799 385.44 587.639 384.76C587.479 384.067 587.246 383.473 586.939 382.98C586.632 382.473 586.266 382.087 585.839 381.82C585.412 381.54 584.926 381.4 584.379 381.4C583.846 381.4 583.359 381.54 582.919 381.82C582.492 382.087 582.126 382.473 581.819 382.98C581.512 383.473 581.279 384.067 581.119 384.76C580.959 385.44 580.879 386.187 580.879 387ZM579.179 387C579.179 385.6 579.399 384.36 579.839 383.28C580.279 382.2 580.886 381.353 581.659 380.74C582.446 380.113 583.352 379.8 584.379 379.8C585.406 379.8 586.306 380.113 587.079 380.74C587.866 381.353 588.479 382.2 588.919 383.28C589.359 384.36 589.579 385.6 589.579 387C589.579 388.4 589.359 389.64 588.919 390.72C588.479 391.8 587.866 392.653 587.079 393.28C586.306 393.893 585.406 394.2 584.379 394.2C583.352 394.2 582.446 393.893 581.659 393.28C580.886 392.653 580.279 391.8 579.839 390.72C579.399 389.64 579.179 388.4 579.179 387ZM592.871 387C592.871 387.813 592.951 388.567 593.111 389.26C593.271 389.94 593.504 390.533 593.811 391.04C594.118 391.533 594.484 391.92 594.911 392.2C595.351 392.467 595.838 392.6 596.371 392.6C596.918 392.6 597.404 392.467 597.831 392.2C598.258 391.92 598.624 391.533 598.931 391.04C599.238 390.533 599.471 389.94 599.631 389.26C599.791 388.567 599.871 387.813 599.871 387C599.871 386.187 599.791 385.44 599.631 384.76C599.471 384.067 599.238 383.473 598.931 382.98C598.624 382.473 598.258 382.087 597.831 381.82C597.404 381.54 596.918 381.4 596.371 381.4C595.838 381.4 595.351 381.54 594.911 381.82C594.484 382.087 594.118 382.473 593.811 382.98C593.504 383.473 593.271 384.067 593.111 384.76C592.951 385.44 592.871 386.187 592.871 387ZM591.171 387C591.171 385.6 591.391 384.36 591.831 383.28C592.271 382.2 592.878 381.353 593.651 380.74C594.438 380.113 595.344 379.8 596.371 379.8C597.398 379.8 598.298 380.113 599.071 380.74C599.858 381.353 600.471 382.2 600.911 383.28C601.351 384.36 601.571 385.6 601.571 387C601.571 388.4 601.351 389.64 600.911 390.72C600.471 391.8 599.858 392.653 599.071 393.28C598.298 393.893 597.398 394.2 596.371 394.2C595.344 394.2 594.438 393.893 593.651 393.28C592.878 392.653 592.271 391.8 591.831 390.72C591.391 389.64 591.171 388.4 591.171 387ZM602.763 394L609.383 386.94C609.69 386.607 609.95 386.28 610.163 385.96C610.39 385.627 610.557 385.293 610.663 384.96C610.783 384.613 610.843 384.253 610.843 383.88C610.843 383.573 610.783 383.273 610.663 382.98C610.543 382.687 610.363 382.42 610.123 382.18C609.897 381.94 609.617 381.747 609.283 381.6C608.95 381.453 608.57 381.38 608.143 381.38C607.543 381.38 607.023 381.52 606.583 381.8C606.157 382.067 605.83 382.46 605.603 382.98C605.377 383.487 605.263 384.093 605.263 384.8H603.563C603.563 383.8 603.743 382.927 604.103 382.18C604.463 381.42 604.983 380.833 605.663 380.42C606.357 379.993 607.183 379.78 608.143 379.78C608.917 379.78 609.583 379.913 610.143 380.18C610.703 380.433 611.163 380.767 611.523 381.18C611.883 381.58 612.15 382.013 612.323 382.48C612.497 382.947 612.583 383.393 612.583 383.82C612.583 384.54 612.41 385.253 612.063 385.96C611.717 386.667 611.27 387.3 610.723 387.86L606.263 392.4H612.643V394H602.763ZM624.23 389.4C624.23 390.2 624.103 390.9 623.85 391.5C623.597 392.1 623.243 392.6 622.79 393C622.337 393.4 621.817 393.7 621.23 393.9C620.643 394.1 620.01 394.2 619.33 394.2C618.477 394.2 617.73 394.067 617.09 393.8C616.463 393.533 615.923 393.18 615.47 392.74C615.03 392.287 614.657 391.793 614.35 391.26L615.79 390.28C616.003 390.68 616.283 391.06 616.63 391.42C616.99 391.767 617.403 392.053 617.87 392.28C618.337 392.493 618.823 392.6 619.33 392.6C619.997 392.6 620.563 392.467 621.03 392.2C621.497 391.933 621.85 391.56 622.09 391.08C622.343 390.6 622.47 390.04 622.47 389.4C622.47 388.76 622.33 388.2 622.05 387.72C621.783 387.24 621.41 386.867 620.93 386.6C620.463 386.333 619.93 386.2 619.33 386.2C618.89 386.2 618.483 386.24 618.11 386.32C617.75 386.387 617.383 386.513 617.01 386.7C616.65 386.873 616.23 387.127 615.75 387.46L617.59 380H624.19V381.5H618.91L617.97 385.2C618.303 385.027 618.643 384.9 618.99 384.82C619.35 384.727 619.703 384.68 620.05 384.68C620.85 384.68 621.563 384.88 622.19 385.28C622.83 385.68 623.33 386.233 623.69 386.94C624.05 387.647 624.23 388.467 624.23 389.4Z" fill="#0E1520"/>
<path d="M128 251.5H81V303H98L128 251.5Z" fill="#0E1520"/>
<path d="M143 252H179.5L151 301.5H117L143 252Z" fill="#0E1520"/>
<path d="M196 252H232.5L204 301.5H170L196 252Z" fill="#0E1520"/>
<path d="M247 252H283.5L255 301.5H221L247 252Z" fill="#0E1520"/>
<path d="M299 252H335.5L307 301.5H273L299 252Z" fill="#0E1520"/>
<path d="M353 252H389.5L361 301.5H327L353 252Z" fill="#0E1520"/>
<rect x="113" y="455" width="2" height="48" fill="#0E1520"/>
<rect x="118" y="455" width="3" height="48" fill="#0E1520"/>
<rect x="130" y="455" width="2" height="48" fill="#0E1520"/>
<rect x="135" y="455" width="2" height="48" fill="#0E1520"/>
<rect x="139" y="455" width="2" height="48" fill="#0E1520"/>
<rect x="152" y="455" width="1" height="48" fill="#0E1520"/>
<rect x="156" y="455" width="2" height="48" fill="#0E1520"/>
<rect x="161" y="455" width="2" height="48" fill="#0E1520"/>
<rect x="179" y="455" width="2" height="48" fill="#0E1520"/>
<rect x="184" y="455" width="2" height="48" fill="#0E1520"/>
<rect x="196" y="455" width="2" height="48" fill="#0E1520"/>
<rect x="200" y="455" width="1" height="48" fill="#0E1520"/>
<rect x="218" y="455" width="1" height="48" fill="#0E1520"/>
<rect x="222" y="455" width="1" height="48" fill="#0E1520"/>
<rect x="225" y="455" width="3" height="48" fill="#0E1520"/>
<rect x="232" y="455" width="10" height="48" fill="#0E1520"/>
<rect x="244" y="455" width="4" height="48" fill="#0E1520"/>
<rect x="205" y="455" width="2" height="48" fill="#0E1520"/>
<rect x="210" y="455" width="4" height="48" fill="#0E1520"/>
<rect x="188" y="455" width="5" height="48" fill="#0E1520"/>
<rect x="166" y="455" width="10" height="48" fill="#0E1520"/>
<rect x="144" y="455" width="5" height="48" fill="#0E1520"/>
<rect x="123" y="455" width="5" height="48" fill="#0E1520"/>
</svg>
