<svg width="49" height="49" viewBox="0 0 49 49" fill="none" xmlns="http://www.w3.org/2000/svg">
<g clip-path="url(#clip0_12_29)">
<path d="M24.2902 0.0136719C11.8821 0.0136719 12.6568 5.41616 12.6568 5.41616L12.6706 11.0133H24.5114V12.6937H7.96764C7.96764 12.6937 0.02771 11.7896 0.02771 24.3596C0.02771 36.9299 6.95788 36.4841 6.95788 36.4841H11.0938V30.651C11.0938 30.651 10.8708 23.693 17.9133 23.693H29.6573C29.6573 23.693 36.2554 23.8 36.2554 17.2905V6.52741C36.2554 6.52741 37.2575 0.0136719 24.2902 0.0136719ZM17.7612 3.77764C18.041 3.77739 18.3181 3.83253 18.5766 3.93992C18.8352 4.04732 19.0701 4.20484 19.268 4.40349C19.4658 4.60214 19.6227 4.83801 19.7297 5.0976C19.8366 5.35719 19.8916 5.63542 19.8913 5.91635C19.8916 6.19728 19.8366 6.4755 19.7297 6.73509C19.6227 6.99469 19.4658 7.23056 19.268 7.4292C19.0701 7.62785 18.8352 7.78538 18.5766 7.89277C18.3181 8.00016 18.041 8.0553 17.7612 8.05505C17.4814 8.0553 17.2043 8.00016 16.9457 7.89277C16.6871 7.78538 16.4522 7.62785 16.2544 7.4292C16.0565 7.23056 15.8996 6.99469 15.7927 6.73509C15.6857 6.4755 15.6308 6.19728 15.631 5.91635C15.6308 5.63542 15.6857 5.35719 15.7927 5.0976C15.8996 4.83801 16.0565 4.60214 16.2544 4.40349C16.4522 4.20484 16.6871 4.04732 16.9457 3.93992C17.2043 3.83253 17.4814 3.77739 17.7612 3.77764Z" fill="url(#paint0_linear_12_29)"/>
<path d="M24.6425 48.8322C37.0506 48.8322 36.2759 43.4297 36.2759 43.4297L36.2621 37.8328H24.4211V36.1524H40.9649C40.9649 36.1524 48.9048 37.0565 48.9048 24.4861C48.9048 11.916 41.9747 12.3618 41.9747 12.3618H37.8388V18.1947C37.8388 18.1947 38.0617 25.1527 31.0192 25.1527H19.2752C19.2752 25.1527 12.6771 25.0457 12.6771 31.5554V42.3187C12.6771 42.3187 11.6752 48.8322 24.6423 48.8322H24.6425ZM31.1716 45.0686C30.8917 45.0689 30.6146 45.0138 30.3561 44.9064C30.0975 44.799 29.8626 44.6414 29.6647 44.4428C29.4669 44.2441 29.31 44.0083 29.203 43.7487C29.0961 43.4891 29.0411 43.2109 29.0414 42.9299C29.0411 42.649 29.096 42.3707 29.203 42.1111C29.3099 41.8515 29.4668 41.6156 29.6647 41.417C29.8625 41.2183 30.0975 41.0607 30.356 40.9533C30.6146 40.8459 30.8917 40.7908 31.1716 40.791C31.4514 40.7908 31.7285 40.8459 31.987 40.9533C32.2456 41.0607 32.4805 41.2182 32.6784 41.4169C32.8762 41.6155 33.0331 41.8514 33.1401 42.111C33.247 42.3706 33.302 42.6488 33.3017 42.9297C33.302 43.2107 33.247 43.4889 33.1401 43.7485C33.0331 44.0081 32.8762 44.244 32.6784 44.4426C32.4805 44.6412 32.2456 44.7988 31.987 44.9062C31.7285 45.0136 31.4514 45.0689 31.1716 45.0686Z" fill="url(#paint1_linear_12_29)"/>
</g>
<defs>
<linearGradient id="paint0_linear_12_29" x1="469.735" y1="439.104" x2="2901.55" y2="2837.03" gradientUnits="userSpaceOnUse">
<stop stop-color="#387EB8"/>
<stop offset="1" stop-color="#366994"/>
</linearGradient>
<linearGradient id="paint1_linear_12_29" x1="705.966" y1="762.925" x2="3316.97" y2="3221.32" gradientUnits="userSpaceOnUse">
<stop stop-color="#FFE052"/>
<stop offset="1" stop-color="#FFC331"/>
</linearGradient>
<clipPath id="clip0_12_29">
<rect width="49" height="49" fill="white"/>
</clipPath>
</defs>
</svg>
