<svg width="62" height="73" viewBox="0 0 62 73" fill="none" xmlns="http://www.w3.org/2000/svg">
<path d="M62 36.5064C62 32.2624 56.8565 28.2404 48.9706 25.7462C50.7905 17.441 49.9817 10.8334 46.4179 8.71796C45.5964 8.22174 44.636 7.98669 43.587 7.98669V10.8987C44.1684 10.8987 44.636 11.0163 45.0277 11.2382C46.7464 12.2568 47.4921 16.1352 46.9107 21.1235C46.7717 22.351 46.5442 23.6438 46.2662 24.9627C43.7892 24.3359 41.0848 23.8527 38.2413 23.5393C36.5353 21.1235 34.766 18.9297 32.9841 17.0101C37.104 13.0534 40.9711 10.8857 43.5997 10.8857V7.97363C40.1243 7.97363 35.5748 10.5331 30.9747 14.973C26.3746 10.5592 21.8251 8.02587 18.3498 8.02587V10.9379C20.9658 10.9379 24.8455 13.0925 28.9653 17.0231C27.1961 18.9427 25.4268 21.1235 23.746 23.5393C20.8899 23.8527 18.1855 24.3359 15.7085 24.9757C15.4179 23.6699 15.203 22.4032 15.0514 21.1888C14.4574 16.2005 15.1904 12.3221 16.8965 11.2905C17.2756 11.0554 17.7684 10.951 18.3498 10.951V8.03893C17.2882 8.03893 16.3278 8.27398 15.4937 8.7702C11.9425 10.8857 11.1464 17.4802 12.9788 25.7593C5.11822 28.2665 0 32.2754 0 36.5064C0 40.7504 5.1435 44.7724 13.0294 47.2665C11.2095 55.5717 12.0183 62.1793 15.5821 64.2948C16.4036 64.791 17.364 65.026 18.4256 65.026C21.9009 65.026 26.4505 62.4666 31.0506 58.0267C35.6506 62.4405 40.2002 64.9738 43.6755 64.9738C44.7371 64.9738 45.6975 64.7388 46.5316 64.2425C50.0828 62.1271 50.8789 55.5325 49.0465 47.2535C56.8818 44.7593 62 40.7373 62 36.5064ZM45.5459 27.7964C45.0783 29.4809 44.4969 31.2177 43.8398 32.9545C43.3216 31.9098 42.7782 30.8651 42.1843 29.8204C41.6029 28.7758 40.9837 27.7572 40.3645 26.7648C42.159 27.039 43.8903 27.3785 45.5459 27.7964ZM39.7578 41.7036C38.7721 43.4665 37.7611 45.138 36.7122 46.692C34.8292 46.8617 32.9209 46.9531 31 46.9531C29.0917 46.9531 27.1835 46.8617 25.3131 46.705C24.2642 45.1511 23.2405 43.4926 22.2548 41.7428C21.2943 40.0322 20.4223 38.2954 19.6262 36.5455C20.4097 34.7957 21.2943 33.0459 22.2422 31.3352C23.2279 29.5723 24.2389 27.9008 25.2878 26.3469C27.1708 26.1771 29.0791 26.0857 31 26.0857C32.9083 26.0857 34.8166 26.1771 36.6869 26.3338C37.7358 27.8878 38.7595 29.5462 39.7452 31.296C40.7057 33.0067 41.5777 34.7435 42.3738 36.4933C41.5777 38.2431 40.7057 39.993 39.7578 41.7036ZM43.8398 40.006C44.5222 41.7559 45.1035 43.5057 45.5838 45.2033C43.9283 45.6212 42.1843 45.9737 40.3771 46.248C40.9963 45.2425 41.6156 44.2109 42.1969 43.1531C42.7782 42.1084 43.3216 41.0507 43.8398 40.006ZM31.0253 53.9394C29.85 52.6858 28.6747 51.2885 27.512 49.7607C28.6494 49.8129 29.8121 49.8521 30.9874 49.8521C32.1753 49.8521 33.3506 49.826 34.5006 49.7607C33.3632 51.2885 32.1879 52.6858 31.0253 53.9394ZM21.6229 46.248C19.8284 45.9737 18.097 45.6342 16.4415 45.2164C16.9091 43.5318 17.4904 41.795 18.1476 40.0583C18.6657 41.1029 19.2091 42.1476 19.8031 43.1923C20.3971 44.237 21.0037 45.2555 21.6229 46.248ZM30.9621 19.0733C32.1374 20.3269 33.3127 21.7242 34.4753 23.252C33.338 23.1998 32.1753 23.1606 31 23.1606C29.8121 23.1606 28.6368 23.1867 27.4868 23.252C28.6241 21.7242 29.7994 20.3269 30.9621 19.0733ZM21.6103 26.7648C20.991 27.7703 20.3718 28.8019 19.7905 29.8596C19.2091 30.9043 18.6657 31.949 18.1476 32.9936C17.4651 31.2438 16.8838 29.494 16.4036 27.7964C18.0591 27.3916 19.8031 27.039 21.6103 26.7648ZM10.1733 43.1139C5.69955 41.1421 2.80554 38.5565 2.80554 36.5064C2.80554 34.4562 5.69955 31.8576 10.1733 29.8988C11.2601 29.4156 12.448 28.9847 13.6739 28.5799C14.3942 31.1393 15.342 33.8033 16.5173 36.5325C15.3547 39.2486 14.4195 41.8995 13.7118 44.4459C12.4607 44.0411 11.2727 43.5971 10.1733 43.1139ZM16.9723 61.7745C15.2536 60.7559 14.508 56.8776 15.0893 51.8892C15.2283 50.6617 15.4558 49.3689 15.7338 48.05C18.2108 48.6768 20.9152 49.16 23.7587 49.4734C25.4647 51.8892 27.234 54.083 29.0159 56.0026C24.896 59.9594 21.0289 62.1271 18.4003 62.1271C17.8316 62.114 17.3514 61.9965 16.9723 61.7745ZM46.9486 51.8239C47.5426 56.8123 46.8096 60.6906 45.1035 61.7222C44.7244 61.9573 44.2315 62.0618 43.6502 62.0618C41.0342 62.0618 37.1545 59.9071 33.0347 55.9765C34.8039 54.0569 36.5732 51.8762 38.254 49.4604C41.1101 49.147 43.8145 48.6638 46.2915 48.0239C46.5821 49.3428 46.8096 50.6095 46.9486 51.8239ZM51.8141 43.1139C50.7273 43.5971 49.5393 44.028 48.3135 44.4328C47.5932 41.8734 46.6453 39.2095 45.47 36.4802C46.6327 33.7641 47.5679 31.1132 48.2756 28.5668C49.5267 28.9716 50.7146 29.4156 51.8267 29.8988C56.3004 31.8706 59.1945 34.4562 59.1945 36.5064C59.1818 38.5565 56.2878 41.1552 51.8141 43.1139Z" fill="#61DAFB"/>
<path d="M30.9873 42.474C34.177 42.474 36.7627 39.8022 36.7627 36.5063C36.7627 33.2104 34.177 30.5386 30.9873 30.5386C27.7977 30.5386 25.212 33.2104 25.212 36.5063C25.212 39.8022 27.7977 42.474 30.9873 42.474Z" fill="#61DAFB"/>
</svg>
