<svg width="147" height="144" viewBox="0 0 147 144" fill="none" xmlns="http://www.w3.org/2000/svg">
<path d="M61.2983 51.4226C57.8015 45.7029 47.1948 35.5851 32.7422 40.8717C32.0638 47.4821 34.5712 61.8572 50.0283 66.4747" stroke="#FF0000" stroke-width="4"/>
<path d="M102.162 61.4262C99.9311 50.7562 89.0519 29.9198 63.3828 31.9334C67.6176 34.2906 76.206 41.0464 76.6816 49.2122" stroke="#FF0000" stroke-width="4"/>
<path d="M71.2789 102.673C60.1113 103.464 37.1815 94.8375 32.3041 73.034C36.5645 76.7831 46.5744 83.7185 52.5311 81.467" stroke="#FF0000" stroke-width="4"/>
<path d="M82.4195 78.219L87.7221 82.3418" stroke="#FF0000" stroke-width="4"/>
<path d="M134.619 94.2698L112.201 124.008" stroke="#FF0000" stroke-width="4"/>
<path d="M144.314 124.104C139.741 74.7975 87.646 49.0323 64.9573 46.5355L46.6127 70.629C65.4265 112.934 119.071 134.185 144.314 124.104Z" stroke="#FF0000" stroke-width="4"/>
<circle cx="103.19" cy="94.0755" r="10.0875" transform="rotate(81.8233 103.19 94.0755)" stroke="#FF0000" stroke-width="4"/>
<path d="M76.5103 49.2367L52.5312 81.4668" stroke="#FF0000" stroke-width="4"/>
<path d="M47.5482 20.0779L57.8843 27.6643" stroke="#FF0000" stroke-width="4"/>
<path d="M15.6156 61.3012L25.9517 68.8875" stroke="#FF0000" stroke-width="4"/>
<path d="M2.99662 39.0401L25.6235 55.6764" stroke="#FF0000" stroke-width="4"/>
<path d="M3.10233 19.1372L25.7292 35.7736" stroke="#FF0000" stroke-width="4"/>
<path d="M22.7332 14.9209L45.3601 31.5573" stroke="#FF0000" stroke-width="4"/>
</svg>
