<svg width="76" height="60" viewBox="0 0 76 60" fill="none" xmlns="http://www.w3.org/2000/svg">
<path d="M38 0C27.8664 0 21.5332 6.66681 18.9995 19.9992C22.8 13.3324 27.2334 10.8332 32.2998 12.4993C35.1907 13.4499 37.2568 16.2105 39.5443 19.2649C43.2697 24.2407 47.5815 29.9994 57.0005 29.9994C67.1332 29.9994 73.4673 23.3326 76 9.99896C72.2005 16.6658 67.7671 19.1661 62.6998 17.5C59.8097 16.5494 57.7437 13.7889 55.4561 10.7344C51.7307 5.75872 47.418 0 38 0ZM18.9995 29.9994C8.86683 29.9994 2.5327 36.6662 0 49.9998C3.79953 43.333 8.23294 40.8326 13.3002 42.4999C16.1903 43.4518 18.2563 46.2111 20.5439 49.2643C24.2693 54.24 28.582 60 38 60C48.1337 60 54.4668 53.3332 57.0005 39.9996C53.2 46.6664 48.7666 49.1668 43.7002 47.4994C40.8093 46.5501 38.7432 43.7883 36.4557 40.7351C32.7303 35.7593 28.4185 29.9994 18.9995 29.9994Z" fill="#06B6D4"/>
</svg>
