<svg width="14" height="449" viewBox="0 0 14 449" fill="none" xmlns="http://www.w3.org/2000/svg">
<path d="M10.4876 264.972L9.85761 264.971C9.69155 264.744 9.48557 264.483 9.23969 264.19C8.99382 263.889 8.72462 263.589 8.43208 263.288C8.1329 262.981 7.82365 262.701 7.50432 262.447C7.17835 262.186 6.85558 261.976 6.536 261.815C6.21643 261.655 5.90998 261.574 5.61664 261.574C5.43664 261.574 5.25987 261.613 5.08632 261.693C4.90611 261.773 4.7557 261.926 4.6351 262.152C4.5145 262.379 4.45362 262.709 4.45246 263.142C4.4514 263.542 4.51713 263.892 4.64967 264.192C4.78222 264.486 4.90826 264.719 5.0278 264.893L4.2378 264.892C4.10504 264.678 3.98905 264.421 3.88985 264.121C3.784 263.814 3.73159 263.468 3.73262 263.081C3.73408 262.534 3.82858 262.098 4.01611 261.771C4.20365 261.445 4.44094 261.212 4.72798 261.072C5.01503 260.926 5.3119 260.853 5.61856 260.854C5.91856 260.854 6.23169 260.932 6.55795 261.085C6.88422 261.233 7.21037 261.43 7.53638 261.677C7.8624 261.917 8.17836 262.185 8.48424 262.478C8.79013 262.772 9.07601 263.066 9.3419 263.36C9.60112 263.654 9.82707 263.921 10.0198 264.161L9.76921 264.371L9.77882 260.761L10.4988 260.762L10.4876 264.972ZM10.6196 256.701C10.6173 257.568 10.3289 258.224 9.75439 258.67C9.17989 259.109 8.32597 259.328 7.19264 259.326C6.0593 259.324 5.20656 259.103 4.6344 258.662C4.06226 258.214 3.77734 257.557 3.77965 256.69C3.78197 255.817 4.07039 255.161 4.64489 254.722C5.2194 254.283 6.07332 254.064 7.20665 254.066C8.33998 254.068 9.19273 254.289 9.76489 254.73C10.337 255.171 10.622 255.828 10.6196 256.701ZM9.95964 256.7C9.96023 256.48 9.93082 256.257 9.87142 256.03C9.81203 255.803 9.68925 255.597 9.50308 255.41C9.31691 255.223 9.04064 255.072 8.67428 254.958C8.30791 254.844 7.81806 254.787 7.20473 254.786C6.5914 254.785 6.10125 254.841 5.73428 254.954C5.36731 255.066 5.09358 255.216 4.91308 255.402C4.72592 255.589 4.60204 255.795 4.54143 256.022C4.47416 256.248 4.44023 256.471 4.43965 256.691C4.43906 256.911 4.4718 257.135 4.53786 257.362C4.59726 257.588 4.72004 257.795 4.90621 257.982C5.08571 258.169 5.35865 258.32 5.72501 258.433C6.09137 258.547 6.58122 258.605 7.19455 258.606C7.80789 258.607 8.29804 258.551 8.66501 258.438C9.03197 258.325 9.30904 258.176 9.4962 257.99C9.68337 257.803 9.80725 257.597 9.86785 257.37C9.92846 257.144 9.95905 256.92 9.95964 256.7ZM10.5203 252.696L9.89031 252.695C9.72425 252.468 9.51827 252.208 9.27239 251.914C9.02652 251.614 8.75732 251.314 8.46479 251.013C8.1656 250.706 7.85635 250.425 7.53702 250.172C7.21105 249.911 6.88828 249.701 6.5687 249.54C6.24913 249.379 5.94268 249.299 5.64934 249.299C5.46934 249.298 5.29257 249.338 5.11903 249.418C4.93881 249.497 4.7884 249.65 4.6678 249.877C4.5472 250.103 4.48632 250.433 4.48516 250.867C4.4841 251.267 4.54983 251.617 4.68237 251.917C4.81492 252.211 4.94096 252.444 5.0605 252.618L4.2705 252.616C4.13774 252.403 4.02175 252.146 3.92255 251.846C3.8167 251.539 3.76429 251.192 3.76532 250.805C3.76678 250.259 3.86128 249.822 4.04881 249.496C4.23635 249.17 4.47364 248.937 4.76068 248.797C5.04773 248.651 5.3446 248.578 5.65126 248.579C5.95126 248.579 6.26439 248.656 6.59065 248.81C6.91692 248.957 7.24307 249.154 7.56908 249.402C7.8951 249.642 8.21106 249.909 8.51694 250.203C8.82283 250.497 9.10871 250.791 9.3746 251.085C9.63382 251.378 9.85977 251.645 10.0525 251.886L9.80191 252.095L9.81152 248.485L10.5315 248.486L10.5203 252.696ZM10.6216 244.716C10.6204 245.163 10.5794 245.543 10.4985 245.856C10.411 246.162 10.3137 246.419 10.2065 246.625L9.45648 246.624C9.51006 246.531 9.57373 246.404 9.64749 246.244C9.72127 246.078 9.78515 245.871 9.83914 245.625C9.89313 245.378 9.92056 245.092 9.92143 244.765C9.92234 244.425 9.87972 244.158 9.79357 243.965C9.70076 243.764 9.58449 243.618 9.44474 243.524C9.29832 243.431 9.14515 243.37 8.98522 243.343C8.81862 243.316 8.65866 243.303 8.50532 243.303C8.08533 243.302 7.77846 243.375 7.58474 243.521C7.38437 243.661 7.25388 243.844 7.19328 244.07C7.13269 244.29 7.10208 244.52 7.10144 244.76C7.1005 245.114 7.12638 245.407 7.17909 245.64C7.22514 245.874 7.27468 246.047 7.32771 246.161C7.38074 246.274 7.40725 246.331 7.40725 246.331L6.94606 246.78L3.86697 246.435L3.8761 243.005L4.5861 243.006L4.57862 245.816L6.72811 246.01L6.84622 246.72C6.69356 246.466 6.57771 246.159 6.49867 245.799C6.41963 245.439 6.38059 245.076 6.38157 244.709C6.38221 244.469 6.41286 244.226 6.47352 243.979C6.53419 243.726 6.64147 243.496 6.79535 243.29C6.94259 243.077 7.15637 242.907 7.43671 242.781C7.71038 242.655 8.06722 242.592 8.50722 242.593C8.94722 242.593 9.30705 242.657 9.58671 242.784C9.8597 242.911 10.0726 243.082 10.2253 243.295C10.3715 243.502 10.4742 243.732 10.5335 243.986C10.5929 244.233 10.6222 244.476 10.6216 244.716ZM10.5588 238.241L3.88882 238.231L3.8909 237.451L7.68747 234.987L7.79617 235.477L3.90313 232.861L3.9052 232.081L10.5752 232.091L10.5733 232.811L4.62329 232.802L4.62414 232.482L8.47681 235.238L4.69005 237.772L4.32074 237.511L10.5607 237.521L10.5588 238.241ZM10.578 231.04L3.91509 228.369L3.91701 227.649L10.5941 225.01L10.592 225.78L4.58586 228.08L4.56626 227.93L10.5801 230.26L10.578 231.04ZM8.50112 229.867L7.81194 229.555L7.82065 226.285L8.51079 226.237L8.50112 229.867ZM10.5968 223.964L3.92685 223.953L3.93415 221.213C3.93589 220.56 4.10053 220.07 4.42807 219.744C4.75562 219.411 5.2394 219.245 5.8794 219.247C6.26607 219.247 6.60919 219.328 6.90876 219.488C7.20833 219.649 7.4444 219.872 7.61697 220.159C7.78954 220.446 7.87531 220.783 7.87428 221.17L7.67508 220.869L10.6102 218.954L10.6079 219.804L7.54266 221.779L7.91362 221.42L7.90877 223.24L10.5988 223.244L10.5968 223.964ZM7.22877 223.239L7.23327 221.549C7.23474 220.995 7.12581 220.595 6.90647 220.348C6.68048 220.094 6.35415 219.967 5.92748 219.967C5.52748 219.966 5.21057 220.059 4.97674 220.245C4.73624 220.431 4.61531 220.781 4.61394 221.294L4.60877 223.234L7.22877 223.239ZM10.7187 215.766C10.7178 216.099 10.6937 216.382 10.6464 216.616C10.5991 216.849 10.5319 217.059 10.4447 217.245C10.3576 217.432 10.257 217.635 10.1431 217.855L9.36312 217.854C9.54369 217.64 9.70445 217.354 9.84541 216.994C9.98637 216.635 10.0575 216.215 10.0588 215.735C10.0601 215.228 9.95443 214.861 9.7417 214.634C9.52232 214.4 9.24596 214.283 8.91263 214.283C8.63263 214.282 8.40909 214.359 8.24202 214.512C8.06828 214.665 7.92775 214.861 7.82045 215.101C7.70648 215.341 7.59913 215.594 7.49842 215.861C7.41782 216.087 7.33388 216.314 7.24661 216.54C7.15269 216.76 7.03883 216.96 6.90501 217.14C6.76454 217.319 6.58749 217.462 6.37387 217.569C6.15359 217.675 5.88011 217.728 5.55344 217.727C5.37345 217.727 5.18353 217.693 4.98371 217.626C4.78391 217.553 4.59754 217.439 4.42462 217.286C4.25171 217.125 4.11227 216.915 4.0063 216.655C3.90034 216.388 3.84787 216.065 3.84888 215.685C3.84957 215.425 3.87016 215.205 3.91064 215.025C3.94447 214.838 3.99827 214.662 4.07205 214.495C4.13916 214.328 4.22299 214.142 4.32354 213.935L5.06354 213.937C4.96308 214.11 4.87264 214.276 4.79221 214.436C4.70514 214.589 4.63801 214.763 4.59083 214.956C4.53699 215.142 4.50972 215.372 4.50899 215.646C4.50812 215.972 4.55408 216.236 4.64688 216.436C4.7397 216.629 4.86265 216.773 5.01574 216.867C5.16884 216.953 5.33206 216.997 5.50539 216.997C5.77872 216.998 5.99555 216.938 6.15587 216.818C6.31621 216.692 6.45 216.519 6.55725 216.299C6.65786 216.073 6.75855 215.813 6.85933 215.52C6.93995 215.286 7.03057 215.053 7.13119 214.82C7.22515 214.587 7.34571 214.377 7.49287 214.191C7.63339 213.997 7.8138 213.844 8.0341 213.731C8.24775 213.612 8.51458 213.552 8.83458 213.553C9.13458 213.553 9.43106 213.62 9.72404 213.754C10.0104 213.888 10.2497 214.115 10.4422 214.435C10.628 214.756 10.7202 215.199 10.7187 215.766ZM10.7898 207.849C10.7888 208.209 10.7513 208.512 10.6774 208.758C10.6034 208.998 10.4994 209.248 10.3654 209.508L9.60536 209.507C9.71924 209.3 9.81639 209.117 9.89682 208.957C9.97725 208.797 10.0377 208.634 10.0781 208.467C10.1119 208.301 10.1291 208.111 10.1296 207.897C10.1305 207.564 10.0579 207.294 9.9118 207.087C9.7657 206.874 9.57599 206.767 9.34266 206.766C9.15599 206.766 9.01251 206.819 8.91223 206.926C8.81196 207.025 8.72828 207.155 8.66119 207.315C8.5941 207.475 8.52365 207.642 8.44986 207.815C8.39601 208.008 8.33882 208.205 8.27829 208.405C8.21111 208.598 8.12729 208.778 8.02685 208.944C7.91976 209.104 7.78608 209.234 7.62581 209.333C7.45888 209.433 7.24541 209.483 6.98541 209.482C6.73208 209.482 6.51555 209.432 6.33581 209.331C6.1561 209.224 6.0098 209.088 5.89691 208.921C5.77735 208.754 5.69118 208.567 5.6384 208.36C5.58562 208.154 5.5595 207.947 5.56005 207.74C5.56085 207.44 5.60153 207.184 5.6821 206.97C5.76267 206.757 5.85326 206.537 5.95386 206.311L6.67386 206.312C6.53985 206.565 6.43258 206.792 6.35205 206.991C6.26485 207.191 6.22088 207.428 6.22016 207.701C6.21943 207.975 6.27544 208.221 6.38818 208.441C6.49428 208.655 6.66066 208.762 6.88733 208.762C7.074 208.763 7.22414 208.709 7.33776 208.603C7.44473 208.49 7.53178 208.343 7.59893 208.163C7.65941 207.984 7.71992 207.79 7.78047 207.584C7.83425 207.417 7.89471 207.244 7.96186 207.064C8.02234 206.884 8.10611 206.718 8.21319 206.564C8.3136 206.411 8.44726 206.288 8.61417 206.195C8.78111 206.095 8.99457 206.046 9.25457 206.046C9.60791 206.047 9.901 206.137 10.1339 206.318C10.36 206.498 10.5261 206.728 10.632 207.008C10.738 207.282 10.7905 207.562 10.7898 207.849ZM10.7324 203.128C10.7314 203.481 10.624 203.778 10.41 204.017C10.1893 204.257 9.86569 204.377 9.43902 204.376L6.31903 204.371L6.31671 205.241L5.65671 205.24L5.65903 204.37L4.24903 204.367L4.25095 203.647L5.66095 203.65L5.66438 202.36L6.32438 202.361L6.32095 203.651L9.21094 203.655C9.49094 203.656 9.70106 203.613 9.84129 203.526C9.98152 203.44 10.052 203.263 10.0527 202.997C10.053 202.877 10.0433 202.76 10.0236 202.647C9.99727 202.533 9.96752 202.44 9.93438 202.367L10.6144 202.368C10.6475 202.461 10.6738 202.581 10.6934 202.728C10.7197 202.868 10.7327 203.001 10.7324 203.128ZM10.8134 198.975C10.8122 199.415 10.7346 199.792 10.5804 200.105C10.4262 200.418 10.2023 200.658 9.90849 200.824C9.61473 200.983 9.25452 201.063 8.82785 201.062L5.66785 201.057L5.66977 200.337L8.66977 200.342C9.17643 200.343 9.55006 200.233 9.79065 200.014C10.0246 199.787 10.1422 199.441 10.1434 198.974C10.1447 198.507 10.0289 198.164 9.79616 197.944C9.55676 197.717 9.18373 197.603 8.67707 197.602L5.67707 197.597L5.67899 196.877L8.83898 196.882C9.47232 196.883 9.96183 197.067 10.3075 197.434C10.6466 197.795 10.8152 198.309 10.8134 198.975ZM10.8288 193.214C10.8281 193.454 10.7908 193.707 10.7167 193.974C10.6494 194.24 10.522 194.494 10.3347 194.733C10.1408 194.966 9.86691 195.159 9.51317 195.312C9.15278 195.458 8.68592 195.531 8.11258 195.53C7.33925 195.528 6.72975 195.341 6.28408 194.967C5.83176 194.586 5.60662 194.012 5.60866 193.246C5.60905 193.099 5.62951 192.926 5.67005 192.726C5.71058 192.526 5.7611 192.329 5.82162 192.136C5.88213 191.943 5.94589 191.783 6.0129 191.656L6.26223 191.907L3.58223 191.902L3.58415 191.182L9.82414 191.192C10.0108 191.193 10.1706 191.26 10.3036 191.393C10.4299 191.52 10.5328 191.687 10.6123 191.894C10.6851 192.1 10.7378 192.321 10.7705 192.554C10.8099 192.787 10.8293 193.007 10.8288 193.214ZM10.1688 193.203C10.1697 192.856 10.1305 192.556 10.0512 192.303C9.97188 192.043 9.87223 191.912 9.75223 191.912L6.62223 191.907C6.50168 192.114 6.41442 192.337 6.36045 192.577C6.29982 192.81 6.26923 193.033 6.26866 193.247C6.2677 193.607 6.34692 193.9 6.50632 194.127C6.65906 194.347 6.87529 194.511 7.15501 194.618C7.42808 194.719 7.74794 194.769 8.11461 194.77C8.47461 194.77 8.81138 194.731 9.12493 194.651C9.43181 194.572 9.68222 194.419 9.87615 194.192C10.0701 193.966 10.1676 193.636 10.1688 193.203ZM10.6885 189.55L5.69853 189.542L5.70044 188.822L10.6904 188.83L10.6885 189.55ZM4.80842 189.581L4.01842 189.58L4.02055 188.78L4.81055 188.781L4.80842 189.581ZM10.8503 185.138C10.8482 185.918 10.6167 186.498 10.1556 186.877C9.68798 187.25 9.04082 187.435 8.21415 187.434C7.34748 187.433 6.69801 187.235 6.26572 186.841C5.83346 186.44 5.61829 185.877 5.62023 185.15C5.62167 184.61 5.73284 184.17 5.95374 183.83C6.16798 183.491 6.47198 183.241 6.86574 183.082C7.25283 182.923 7.70638 182.843 8.22638 182.844C9.04638 182.845 9.68918 183.046 10.1548 183.447C10.6204 183.841 10.8522 184.405 10.8503 185.138ZM10.1902 185.147C10.1913 184.741 10.1055 184.424 9.93278 184.197C9.75338 183.97 9.51714 183.81 9.22406 183.716C8.92433 183.615 8.59113 183.565 8.22446 183.564C7.83113 183.563 7.49099 183.613 7.20406 183.712C6.91046 183.812 6.68335 183.978 6.52273 184.211C6.36213 184.438 6.2813 184.748 6.28025 185.141C6.27919 185.541 6.36502 185.854 6.53775 186.081C6.71048 186.308 6.94338 186.472 7.23644 186.573C7.52286 186.666 7.8494 186.714 8.21607 186.714C8.80273 186.715 9.27971 186.599 9.647 186.366C10.0076 186.134 10.1887 185.727 10.1902 185.147Z" fill="white" fill-opacity="0.51"/>
<line x1="8.49731" y1="179" x2="8.49731" y2="110" stroke="white" stroke-dasharray="2 2"/>
</svg>
