<svg width="65" height="66" viewBox="0 0 65 66" fill="none" xmlns="http://www.w3.org/2000/svg">
<path d="M28.2617 60.2959L30.6678 54.3326L32.4309 54.823L28.0891 65.0589L25.8509 57.0408L19.7795 62.7475L21.3467 51.7399L23.1098 52.2303L22.1055 58.5835L26.6347 54.2228L28.2617 60.2959ZM17.366 51.759L16.0553 52.5596L12.6795 49.0426L13.5228 47.755L17.366 51.759ZM11.9805 53.1233L15.9043 51.6442L16.2064 51.3958L19.5839 50.1707L20.9654 51.61L9.41579 55.585L13.8607 44.2079L15.2422 45.6472L13.9239 48.8877L13.6412 49.2214L11.9805 53.1233ZM8.09813 42.648L7.4984 40.824L11.1473 35.882L11.8126 37.9054L8.09813 42.648ZM3.55753 46.4147L3.00466 44.7333L12.9793 41.4535L13.5322 43.1349L3.55753 46.4147ZM4.683 44.9394L3.22956 45.4173L2.54548 43.3369C2.30809 42.6149 2.23018 41.9457 2.31175 41.3294C2.39019 40.7036 2.61374 40.1669 2.98239 39.7194C3.34154 39.275 3.8346 38.9497 4.46158 38.7435C5.08855 38.5373 5.6832 38.505 6.24551 38.6464C6.80783 38.7878 7.30625 39.0871 7.74079 39.5443C8.1722 39.9919 8.5066 40.5767 8.744 41.2987L9.42807 43.3791L8.04587 43.8336L7.38523 41.8244C7.26028 41.4444 7.08446 41.1338 6.85776 40.8926C6.62793 40.6418 6.36297 40.4763 6.06288 40.396C5.75329 40.3189 5.42275 40.3381 5.07126 40.4536C4.71027 40.5723 4.43284 40.753 4.23895 40.9957C4.04506 41.2384 3.93003 41.5289 3.89387 41.8671C3.85458 42.1959 3.89741 42.5502 4.02236 42.9302L4.683 44.9394ZM7.94522 33.6684C8.36494 33.4767 8.74125 33.2659 9.07417 33.036C9.39805 32.7952 9.65956 32.5234 9.85868 32.2206C10.0478 31.917 10.1611 31.566 10.1984 31.1678C10.2432 30.6899 10.1502 30.2894 9.91931 29.9665C9.68845 29.6435 9.36891 29.4629 8.9607 29.4246C8.5724 29.3882 8.25489 29.4539 8.00816 29.6216C7.75147 29.7884 7.52762 30.0336 7.33658 30.3571C7.13653 30.6698 6.93632 31.0378 6.73595 31.4609C6.62208 31.7114 6.47554 31.9889 6.29633 32.2935C6.10717 32.5972 5.88456 32.8827 5.6285 33.1499C5.36248 33.4163 5.05135 33.6281 4.6951 33.7856C4.3289 33.9421 3.90186 33.9975 3.414 33.9518C2.85644 33.8995 2.38212 33.7094 1.99101 33.3815C1.58995 33.0526 1.29779 32.6335 1.11452 32.1242C0.922231 31.604 0.855483 31.0302 0.914277 30.403C0.972138 29.7857 1.13205 29.2583 1.39402 28.8209C1.65599 28.3834 1.9707 28.0262 2.33814 27.7493C2.70652 27.4624 3.08331 27.2466 3.46849 27.1019L4.14057 28.6113C3.86957 28.7164 3.61522 28.8583 3.37751 29.0369C3.12985 29.2146 2.92871 29.4317 2.77408 29.6884C2.61042 29.9342 2.51227 30.2314 2.4796 30.5798C2.43387 31.0677 2.51478 31.4369 2.72231 31.6873C2.91988 31.9369 3.16802 32.0756 3.46671 32.1036C3.73553 32.1288 3.98693 32.072 4.2209 31.9333C4.44585 31.7836 4.66924 31.5434 4.89107 31.2127C5.11291 30.8819 5.34952 30.4471 5.60091 29.9082C5.73936 29.6098 5.90768 29.3142 6.10586 29.0215C6.30499 28.7187 6.54611 28.45 6.82924 28.2154C7.10241 27.9799 7.41526 27.8033 7.76777 27.6857C8.12122 27.5582 8.52694 27.5158 8.98493 27.5588C9.47279 27.6045 9.90201 27.7401 10.2726 27.9657C10.6431 28.1913 10.9474 28.4809 11.1855 28.8347C11.4135 29.1875 11.5777 29.5795 11.6779 30.0108C11.7889 30.433 11.8235 30.8681 11.7815 31.3161C11.7236 31.9334 11.5505 32.4947 11.2621 33C10.9646 33.4944 10.5936 33.9166 10.149 34.2667C9.7044 34.6167 9.23241 34.8838 8.73304 35.068L7.94522 33.6684ZM11.4595 16.3659L15.4102 21.4396L14.1012 22.7185L7.42645 13.8263L15.485 15.9141L13.5957 7.79877L22.3304 14.6783L21.0215 15.9572L16.0301 11.9003L17.5291 18.0063L11.4595 16.3659ZM24.319 11.2242L24.2861 9.68863L29.0237 8.53946L29.7126 9.91586L24.319 11.2242ZM25.8481 5.88319L25.1533 10.0185L25.2161 10.4046L24.5765 13.94L22.6377 14.4103L25.0101 2.42838L32.6085 11.9917L30.6698 12.462L28.5318 9.69293L28.3855 9.2808L25.8481 5.88319ZM36.8676 7.80231L38.7449 8.20472L41.1709 13.8485L39.0883 13.4021L36.8676 7.80231ZM35.9062 1.98153L37.6369 2.35251L35.4362 12.6193L33.7055 12.2483L35.9062 1.98153ZM36.6122 3.69762L36.9329 2.2016L39.0742 2.6606C39.8174 2.81989 40.4344 3.09022 40.9254 3.47159C41.4261 3.85506 41.7767 4.31884 41.9771 4.86293C42.1796 5.39724 42.2117 5.98707 42.0734 6.63241C41.9351 7.27775 41.663 7.80749 41.2572 8.22164C40.8514 8.63578 40.3415 8.91512 39.7276 9.05966C39.1234 9.20629 38.4498 9.19997 37.7067 9.04068L35.5653 8.58168L35.8703 7.159L37.9383 7.60228C38.3294 7.68611 38.6863 7.69102 39.009 7.61701C39.3414 7.54509 39.618 7.39983 39.8387 7.18124C40.0616 6.95287 40.2117 6.65779 40.2893 6.29601C40.3689 5.92445 40.3529 5.59374 40.2412 5.30388C40.1294 5.01403 39.9367 4.76817 39.6629 4.56631C39.3989 4.36654 39.0714 4.22474 38.6802 4.1409L36.6122 3.69762ZM44.6982 12.1981C44.6524 12.6573 44.6449 13.0885 44.6758 13.4919C44.7206 13.8931 44.8237 14.2559 44.9849 14.5804C45.1519 14.8968 45.398 15.1714 45.7232 15.4043C46.1135 15.6838 46.5063 15.8051 46.9016 15.7684C47.2968 15.7316 47.6138 15.5466 47.8525 15.2133C48.0796 14.8962 48.1828 14.5888 48.1623 14.2912C48.1475 13.9854 48.0485 13.6686 47.8652 13.3405C47.6959 13.0102 47.4789 12.6519 47.2143 12.2656C47.0553 12.0411 46.8894 11.7747 46.7166 11.4664C46.5496 11.15 46.4151 10.8139 46.3132 10.4581C46.2172 10.0941 46.1909 9.71859 46.2343 9.33154C46.2836 8.93635 46.4509 8.53957 46.7362 8.14117C47.0622 7.68587 47.4654 7.37189 47.9457 7.19925C48.4318 7.01848 48.9411 6.97723 49.4733 7.07551C50.0196 7.17148 50.5488 7.40285 51.0611 7.76964C51.5651 8.1306 51.9401 8.53442 52.1861 8.98111C52.432 9.42779 52.582 9.87959 52.6361 10.3365C52.6983 10.7992 52.6949 11.2334 52.6258 11.639L50.9835 11.4592C51.0291 11.1722 51.0347 10.881 51.0002 10.5857C50.9715 10.2822 50.8852 9.99906 50.7414 9.73617C50.6115 9.47097 50.4043 9.23649 50.1197 9.03272C49.7213 8.74744 49.3617 8.63135 49.0408 8.68445C48.7257 8.72941 48.4808 8.87385 48.3061 9.11776C48.1489 9.33729 48.0713 9.58306 48.0733 9.85508C48.0893 10.1248 48.1843 10.4388 48.3582 10.797C48.5322 11.1553 48.7886 11.5787 49.1274 12.0674C49.3154 12.3373 49.486 12.6316 49.639 12.9503C49.8002 13.2748 49.9109 13.6184 49.9709 13.9812C50.0367 14.3358 50.0316 14.695 49.9556 15.0588C49.8878 15.4284 49.72 15.8002 49.4521 16.1742C49.1669 16.5726 48.8335 16.875 48.4519 17.0815C48.0704 17.288 47.6669 17.4049 47.2414 17.4323C46.8217 17.4516 46.4004 17.3958 45.9774 17.2651C45.5567 17.1484 45.1634 16.959 44.7975 16.697C44.2935 16.3361 43.8958 15.9037 43.6046 15.4001C43.3274 14.894 43.1496 14.3608 43.0712 13.8004C42.9928 13.24 42.9998 12.6977 43.0923 12.1736L44.6982 12.1981ZM57.8841 23.9403L51.5105 24.794L51.066 23.0188L62.1106 21.7377L56.2447 27.6444L64.2057 30.1044L53.8606 34.1792L53.4161 32.404L59.4362 30.1389L53.4073 28.3549L57.8841 23.9403ZM55.8466 37.6253L57.191 38.3678L55.8062 43.042L54.27 42.9467L55.8466 37.6253ZM59.6978 41.6293L56.4704 38.9522L56.1049 38.8126L53.3686 36.4844L53.9353 34.5716L63.1064 42.6391L51.0208 44.409L51.5875 42.4961L55.0557 42.0374L55.4855 42.1178L59.6978 41.6293ZM52.5065 50.1873L51.2155 51.6085L45.1168 50.8713L46.549 49.2947L52.5065 50.1873ZM58.0226 52.2799L56.8324 53.5901L49.0603 46.53L50.2504 45.2199L58.0226 52.2799ZM56.184 52.0284L57.3165 53.0571L55.844 54.6782C55.333 55.2407 54.7893 55.6385 54.2129 55.8714C53.6298 56.1118 53.0527 56.182 52.4815 56.082C51.9178 55.9887 51.3917 55.7202 50.9031 55.2764C50.4146 54.8326 50.0932 54.3313 49.9389 53.7723C49.7847 53.2134 49.7993 52.6322 49.9827 52.0288C50.1593 51.4327 50.5032 50.8534 51.0142 50.2908L52.4867 48.6698L53.5637 49.6481L52.1416 51.2136C51.8727 51.5097 51.6892 51.8159 51.5911 52.1321C51.4863 52.4557 51.4729 52.7678 51.5511 53.0684C51.6366 53.3758 51.8163 53.6539 52.0902 53.9027C52.3715 54.1582 52.6655 54.3104 52.9723 54.3594C53.279 54.4084 53.5884 54.3652 53.9005 54.2299C54.2058 54.102 54.493 53.89 54.7619 53.5939L56.184 52.0284ZM44.7819 54.7479C44.4074 54.4783 44.0379 54.2559 43.6732 54.0807C43.3035 53.9187 42.9379 53.8262 42.5762 53.8033C42.2187 53.7894 41.8578 53.865 41.4934 54.0299C41.056 54.2278 40.7543 54.507 40.5882 54.8676C40.4221 55.2281 40.4235 55.5952 40.5926 55.9687C40.7534 56.324 40.9677 56.5673 41.2357 56.6985C41.5077 56.8388 41.8316 56.9118 42.2073 56.9174C42.5781 56.9362 42.9968 56.9278 43.4637 56.8921C43.7377 56.8669 44.0513 56.8567 44.4047 56.8614C44.7622 56.8753 45.1205 56.9272 45.4795 57.0172C45.8427 57.1163 46.1809 57.2815 46.4942 57.5129C46.8116 57.7535 47.0713 58.0969 47.2733 58.5434C47.5042 59.0536 47.5741 59.5598 47.483 60.062C47.3961 60.5733 47.1769 61.0347 46.8253 61.4463C46.4687 61.8711 46.0034 62.2133 45.4295 62.4731C44.8646 62.7287 44.3273 62.8511 43.8175 62.8403C43.3077 62.8296 42.8415 62.7332 42.4189 62.5512C41.9872 62.3734 41.6131 62.1531 41.2965 61.8902L42.2745 60.5585C42.5001 60.7418 42.7494 60.8924 43.0223 61.0104C43.2994 61.1375 43.5877 61.2046 43.8872 61.2117C44.1818 61.2321 44.4886 61.1701 44.8074 61.0258C45.2539 60.8238 45.5344 60.5706 45.6491 60.2662C45.768 59.971 45.7656 59.6867 45.6419 59.4134C45.5306 59.1674 45.3567 58.9771 45.1202 58.8427C44.8787 58.7214 44.5594 58.6464 44.1622 58.6176C43.765 58.5888 43.2701 58.5988 42.6774 58.6474C42.3496 58.675 42.0095 58.6753 41.657 58.6482C41.2954 58.6253 40.9425 58.549 40.5984 58.4193C40.2585 58.2987 39.9501 58.1145 39.6733 57.8666C39.3873 57.6228 39.1495 57.2913 38.9599 56.8722C38.7578 56.4258 38.663 55.9858 38.6753 55.5521C38.6876 55.1185 38.7884 54.7107 38.9778 54.3286C39.1712 53.9557 39.4304 53.6189 39.7553 53.3182C40.067 53.0125 40.4278 52.7669 40.8378 52.5813C41.4027 52.3257 41.976 52.198 42.5578 52.1981C43.1346 52.2115 43.6852 52.3245 44.2096 52.5373C44.7339 52.75 45.1998 53.0276 45.6072 53.3701L44.7819 54.7479Z" fill="#00FF9A"/>
</svg>
