<svg width="13" height="107" viewBox="0 0 13 107" fill="none" xmlns="http://www.w3.org/2000/svg">
<path d="M7.01904 76.4088L2.35004 76.4061L2.3719 73.5432L2.8479 73.5435L2.82989 75.9024L4.43989 75.9033L4.45571 73.8314L4.94571 73.8317L4.92989 75.9036L7.02289 75.9048L7.01904 76.4088ZM7.17071 70.2976C7.16836 70.6055 7.11268 70.8692 7.00367 71.0884C6.89466 71.3077 6.73704 71.4756 6.53082 71.5922C6.32463 71.704 6.0722 71.7599 5.77354 71.7597L3.56154 71.7585L3.56539 71.2545L5.66539 71.2557C6.02005 71.2559 6.28197 71.179 6.45115 71.0251C6.61569 70.8666 6.69921 70.6239 6.70171 70.2973C6.7042 69.9706 6.62437 69.7303 6.46221 69.5762C6.29543 69.4174 6.0347 69.3379 5.68003 69.3377L3.58003 69.3366L3.58388 68.8326L5.79588 68.8338C6.23921 68.8341 6.58123 68.9626 6.82194 69.2194C7.05802 69.4715 7.17427 69.8309 7.17071 70.2976ZM7.09624 66.2997L7.09239 66.8037L2.26939 66.801L2.27324 66.297L7.09624 66.2997ZM7.11561 63.7629L7.11176 64.2668L2.28876 64.2641L2.29261 63.7601L7.11561 63.7629ZM5.29008 61.7359L4.80008 61.7357L4.81638 59.6007L5.30638 59.601L5.29008 61.7359ZM7.27541 56.5861C7.27349 56.8381 7.2462 57.0504 7.19355 57.223C7.14093 57.391 7.06726 57.566 6.97254 57.7479L6.44054 57.7476C6.52098 57.603 6.58963 57.4747 6.64648 57.3627C6.70334 57.2508 6.74621 57.1365 6.7751 57.0198C6.79932 56.9032 6.81201 56.7702 6.81315 56.6208C6.81493 56.3875 6.76504 56.1985 6.66348 56.0538C6.56195 55.9044 6.42952 55.8296 6.26619 55.8296C6.13552 55.8295 6.0349 55.8668 5.96433 55.9414C5.8938 56.0113 5.83477 56.1023 5.78725 56.2143C5.73973 56.3262 5.68983 56.4429 5.63758 56.5642C5.59921 56.6995 5.55849 56.8371 5.51542 56.9771C5.46772 57.1124 5.40843 57.2384 5.33753 57.355C5.26201 57.4669 5.16798 57.5579 5.05545 57.6278C4.93825 57.6978 4.78865 57.7327 4.60665 57.7326C4.42932 57.7325 4.27792 57.6974 4.15245 57.6273C4.02702 57.5526 3.92508 57.4569 3.84664 57.3402C3.76353 57.2234 3.70386 57.0927 3.66764 56.9481C3.63141 56.8034 3.61384 56.6587 3.61495 56.514C3.61655 56.3041 3.64593 56.1244 3.70307 55.9751C3.76021 55.8258 3.82438 55.6719 3.89559 55.5132L4.39959 55.5135C4.30491 55.6908 4.22903 55.8494 4.17196 55.9894C4.11022 56.1293 4.07862 56.295 4.07716 56.4863C4.0757 56.6776 4.11405 56.8503 4.19221 57.0044C4.26573 57.1537 4.38183 57.2285 4.5405 57.2285C4.67116 57.2286 4.77645 57.1913 4.85635 57.1167C4.93162 57.0374 4.99308 56.9348 5.0407 56.8088C5.08367 56.6829 5.1267 56.5476 5.1698 56.4029C5.20803 56.2863 5.25096 56.165 5.29858 56.039C5.34155 55.913 5.40077 55.7964 5.47626 55.6891C5.54708 55.5818 5.64107 55.4955 5.75823 55.4303C5.87544 55.3603 6.02504 55.3254 6.20704 55.3255C6.45437 55.3257 6.65922 55.3888 6.82159 55.5149C6.9793 55.641 7.09473 55.802 7.1679 55.9981C7.24111 56.1894 7.27695 56.3854 7.27541 56.5861ZM7.31022 52.0288C7.30769 52.3602 7.23783 52.6471 7.10064 52.8897C6.95879 53.1323 6.7497 53.3188 6.47336 53.4493C6.19703 53.5799 5.85353 53.645 5.44287 53.6448C4.84087 53.6444 4.39157 53.5088 4.09497 53.238C3.79374 52.9625 3.64494 52.5868 3.64857 52.1108C3.65143 51.7375 3.73771 51.4389 3.90742 51.215C4.07716 50.9864 4.30474 50.8232 4.59016 50.7254C4.87557 50.6275 5.19793 50.581 5.55723 50.5859L5.53579 53.3928L5.07406 53.3576L5.09271 50.9146L5.16122 51.1107C4.81111 51.1245 4.5491 51.213 4.37519 51.3762C4.20131 51.5348 4.1131 51.7797 4.11057 52.111C4.10883 52.3397 4.14937 52.5311 4.23219 52.6851C4.31505 52.8345 4.4612 52.9466 4.67063 53.0213C4.87539 53.0961 5.16444 53.1336 5.53777 53.1338C5.96244 53.1341 6.28752 53.0362 6.51301 52.8404C6.73388 52.6398 6.84569 52.3599 6.84843 52.0006C6.84975 51.8279 6.83929 51.6693 6.81706 51.5246C6.79017 51.3799 6.75385 51.2469 6.70811 51.1255C6.66237 51.0042 6.61186 50.8968 6.55657 50.8035L7.07457 50.8037C7.15262 50.9718 7.21186 51.1585 7.25229 51.3638C7.29276 51.5645 7.31207 51.7862 7.31022 52.0288ZM7.23039 48.7328L4.01739 48.731C3.99448 48.6749 3.95563 48.5676 3.90084 48.4089C3.84609 48.2455 3.79624 48.0518 3.75128 47.8278C3.70636 47.5991 3.68483 47.3635 3.68668 47.1208C3.68696 47.0835 3.69192 47.0461 3.70153 47.0088C3.71115 46.9715 3.72077 46.9342 3.73039 46.8968L4.17839 46.8971C4.16346 47.0184 4.15556 47.1374 4.15466 47.2541C4.15381 47.3661 4.15997 47.4757 4.17315 47.5831C4.18167 47.6904 4.19485 47.7977 4.21269 47.9051C4.23054 48.0124 4.24839 48.1198 4.26623 48.2271L7.23423 48.2288L7.23039 48.7328ZM7.26636 44.0222L3.76208 45.4972L3.76619 44.9582L6.83503 43.672L6.86217 43.784L3.78474 42.5293L3.78859 42.0253L7.27026 43.5112L7.26636 44.0222ZM7.29492 40.2815L3.80192 40.2795L3.80577 39.7755L7.29877 39.7775L7.29492 40.2815ZM3.17871 40.3072L2.62571 40.3069L2.62999 39.7469L3.18299 39.7472L3.17871 40.3072ZM7.38167 36.255C7.38024 36.4417 7.35545 36.633 7.30729 36.8289C7.25449 37.0202 7.16447 37.1975 7.03722 37.3608C6.90535 37.5194 6.72003 37.6476 6.48128 37.7455C6.24254 37.8433 5.9365 37.8921 5.56316 37.8919C5.18983 37.8917 4.88687 37.8426 4.65428 37.7444C4.41703 37.6463 4.23368 37.5179 4.10423 37.3591C3.97481 37.1957 3.88749 37.0184 3.84229 36.827C3.79245 36.631 3.76825 36.4396 3.76967 36.253C3.77102 36.0756 3.78869 35.9007 3.82268 35.728C3.8567 35.5507 3.907 35.3804 3.97358 35.2171L4.45658 35.2174C4.39007 35.3713 4.33986 35.53 4.30595 35.6933C4.27203 35.8566 4.25442 36.0246 4.2531 36.1972C4.24993 36.6126 4.35261 36.916 4.56115 37.1074C4.76972 37.2942 5.10501 37.3877 5.56701 37.388C6.03368 37.3882 6.37272 37.2951 6.58415 37.1085C6.79094 36.9173 6.89593 36.6141 6.8991 36.1987C6.90042 36.0261 6.88537 35.8581 6.85395 35.6947C6.82253 35.5314 6.77474 35.3727 6.71058 35.2187L7.20058 35.2189C7.26 35.3823 7.30537 35.5526 7.33668 35.73C7.36803 35.9027 7.38302 36.0777 7.38167 36.255ZM7.46377 31.9208C7.46124 32.2522 7.39138 32.5391 7.25419 32.7817C7.11234 33.0243 6.90325 33.2108 6.62692 33.3413C6.35059 33.4718 6.00709 33.537 5.59642 33.5368C4.99442 33.5364 4.54512 33.4008 4.24852 33.13C3.94729 32.8545 3.79849 32.4788 3.80213 32.0028C3.80498 31.6295 3.89126 31.3308 4.06097 31.1069C4.23071 30.8784 4.4583 30.7152 4.74371 30.6173C5.02913 30.5195 5.35148 30.473 5.71078 30.4779L5.68934 33.2848L5.22761 33.2496L5.24627 30.8066L5.31477 31.0027C4.96466 31.0165 4.70265 31.105 4.52874 31.2682C4.35486 31.4268 4.26666 31.6717 4.26413 32.003C4.26238 32.2317 4.30292 32.4231 4.38574 32.5771C4.4686 32.7265 4.61475 32.8385 4.82418 32.9133C5.02894 32.9881 5.31799 33.0256 5.69132 33.0258C6.11599 33.0261 6.44107 32.9282 6.66657 32.7324C6.88743 32.5318 6.99924 32.2519 7.00198 31.8926C7.0033 31.7199 6.99284 31.5612 6.97062 31.4166C6.94372 31.2719 6.9074 31.1389 6.86166 31.0175C6.81592 30.8962 6.76541 30.7888 6.71012 30.6954L7.22812 30.6957C7.30617 30.8638 7.36541 31.0505 7.40585 31.2558C7.44631 31.4565 7.46562 31.6782 7.46377 31.9208ZM7.51893 24.6977C7.517 24.9496 7.48971 25.162 7.43706 25.3346C7.38445 25.5026 7.31078 25.6775 7.21605 25.8595L6.68405 25.8592C6.76449 25.7145 6.83314 25.5862 6.88999 25.4743C6.94685 25.3623 6.98972 25.248 7.01861 25.1314C7.04284 25.0147 7.05552 24.8817 7.05666 24.7324C7.05844 24.4991 7.00855 24.31 6.90699 24.1653C6.80546 24.0159 6.67303 23.9412 6.5097 23.9411C6.37903 23.941 6.27841 23.9783 6.20784 24.0529C6.13731 24.1229 6.07828 24.2139 6.03076 24.3258C5.98324 24.4378 5.93335 24.5544 5.88109 24.6757C5.84272 24.811 5.802 24.9487 5.75893 25.0887C5.71123 25.224 5.65194 25.3499 5.58105 25.4665C5.50553 25.5785 5.4115 25.6694 5.29896 25.7394C5.18176 25.8093 5.03216 25.8442 4.85016 25.8441C4.67283 25.844 4.52143 25.8089 4.39596 25.7389C4.27053 25.6641 4.1686 25.5684 4.09015 25.4517C4.00705 25.335 3.94738 25.2043 3.91115 25.0596C3.87492 24.9149 3.85736 24.7703 3.85846 24.6256C3.86007 24.4156 3.88944 24.236 3.94658 24.0867C4.00372 23.9374 4.06789 23.7834 4.13911 23.6248L4.64311 23.6251C4.54842 23.8023 4.47254 23.961 4.41547 24.1009C4.35373 24.2409 4.32214 24.4065 4.32068 24.5979C4.31921 24.7892 4.35756 24.9619 4.43572 25.1159C4.50925 25.2653 4.62534 25.34 4.78401 25.3401C4.91468 25.3402 5.01996 25.3029 5.09986 25.2283C5.17514 25.149 5.23659 25.0464 5.28422 24.9204C5.32718 24.7944 5.37021 24.6591 5.41332 24.5145C5.45154 24.3978 5.49447 24.2765 5.5421 24.1506C5.58506 24.0246 5.64428 23.908 5.71977 23.8007C5.79059 23.6934 5.88458 23.6071 6.00175 23.5418C6.11895 23.4719 6.26855 23.437 6.45055 23.4371C6.69788 23.4372 6.90273 23.5003 7.0651 23.6264C7.22281 23.7525 7.33825 23.9136 7.41142 24.1096C7.48462 24.301 7.52046 24.497 7.51893 24.6977ZM7.50211 20.4834C7.50022 20.7307 7.42397 20.9383 7.27335 21.1062C7.11807 21.2741 6.89109 21.358 6.59243 21.3578L4.40843 21.3566L4.40378 21.9656L3.94178 21.9653L3.94643 21.3563L2.95943 21.3558L2.96328 20.8518L3.95028 20.8524L3.95717 19.9494L4.41917 19.9496L4.41228 20.8526L6.43528 20.8538C6.63128 20.8539 6.77851 20.8236 6.87697 20.763C6.97543 20.7024 7.02538 20.5788 7.0268 20.3921C7.02744 20.3081 7.02107 20.2264 7.00767 20.1471C6.98961 20.0678 6.96911 20.0024 6.94617 19.9511L7.42217 19.9513C7.44501 20.0167 7.46303 20.1007 7.47625 20.2034C7.49416 20.3014 7.50279 20.3947 7.50211 20.4834ZM7.58026 16.6665C7.5779 16.9745 7.52222 17.2382 7.41322 17.4574C7.30421 17.6767 7.14659 17.8446 6.94037 17.9611C6.73418 18.073 6.48175 18.1289 6.18308 18.1287L3.97108 18.1275L3.97493 17.6235L6.07493 17.6247C6.4296 17.6249 6.69152 17.548 6.8607 17.3941C7.02524 17.2355 7.10876 16.9929 7.11126 16.6663C7.11375 16.3396 7.03392 16.0992 6.87176 15.9452C6.70497 15.7864 6.44425 15.7069 6.08958 15.7067L3.98958 15.7055L3.99343 15.2016L6.20543 15.2028C6.64876 15.203 6.99078 15.3316 7.23149 15.5884C7.46756 15.8405 7.58382 16.1999 7.58026 16.6665ZM7.618 11.7238C7.61672 11.8918 7.5897 12.0691 7.53694 12.2557C7.48885 12.4424 7.39882 12.6197 7.26687 12.7876C7.13029 12.9508 6.93793 13.0861 6.68977 13.1932C6.43699 13.2958 6.10993 13.3469 5.7086 13.3467C5.16727 13.3464 4.74126 13.2155 4.43059 12.954C4.11529 12.6878 3.95969 12.2864 3.96379 11.7497C3.96457 11.6471 3.9795 11.5258 4.00857 11.3858C4.03763 11.2458 4.07369 11.1082 4.11672 10.9729C4.15975 10.8375 4.20494 10.7256 4.25229 10.6369L4.42595 10.812L2.54995 10.811L2.5538 10.307L6.9218 10.3094C7.05246 10.3095 7.16411 10.3562 7.25673 10.4496C7.34472 10.5383 7.41616 10.655 7.47106 10.7997C7.52128 10.9444 7.55744 11.0984 7.57953 11.2618C7.60628 11.4251 7.6191 11.5791 7.618 11.7238ZM7.15605 11.7165C7.15791 11.4739 7.13151 11.2639 7.07686 11.0865C7.02225 10.9045 6.95295 10.8134 6.86895 10.8134L4.67795 10.8122C4.59284 10.9568 4.53098 11.1131 4.49237 11.2811C4.44912 11.4444 4.42693 11.6007 4.42579 11.75C4.42386 12.002 4.47829 12.2074 4.58908 12.3661C4.69524 12.5201 4.84603 12.6346 5.04146 12.7093C5.23226 12.7794 5.45599 12.8146 5.71266 12.8147C5.96466 12.8148 6.20054 12.787 6.4203 12.7311C6.6354 12.6752 6.81122 12.568 6.94776 12.4094C7.08431 12.2508 7.15374 12.0199 7.15605 11.7165ZM7.53953 8.24949L4.04653 8.24753L4.05038 7.74355L7.54338 7.74551L7.53953 8.24949ZM3.42332 8.27518L2.87032 8.27487L2.87459 7.71489L3.42759 7.7152L3.42332 8.27518ZM7.67506 4.25103C7.6709 4.79702 7.50679 5.20291 7.18276 5.46873C6.8541 5.72987 6.40044 5.86028 5.82177 5.85995C5.2151 5.85961 4.76116 5.72169 4.45992 5.4462C4.15873 5.16604 4.01007 4.77163 4.01396 4.26298C4.01684 3.88499 4.0962 3.57704 4.25201 3.33913C4.40316 3.10122 4.61683 2.92635 4.89302 2.81451C5.16454 2.70266 5.48231 2.64684 5.84631 2.64705C6.42031 2.64737 6.86957 2.78762 7.1941 3.06779C7.51866 3.3433 7.67898 3.73771 7.67506 4.25103ZM7.21301 4.25777C7.21518 3.97311 7.15621 3.75142 7.03609 3.59269C6.9113 3.43396 6.74649 3.32187 6.54166 3.25642C6.33219 3.18631 6.09912 3.15118 5.84246 3.15103C5.56712 3.15088 5.32886 3.18574 5.12766 3.25563C4.92179 3.32551 4.76223 3.44208 4.64898 3.60535C4.53577 3.76395 4.47811 3.98091 4.47601 4.25624C4.47387 4.53623 4.53287 4.75559 4.65299 4.91432C4.77311 5.07305 4.93557 5.18747 5.14037 5.25758C5.34054 5.32303 5.56895 5.35582 5.82562 5.35597C6.23629 5.3562 6.57058 5.27472 6.82849 5.11154C7.08174 4.94835 7.20991 4.66376 7.21301 4.25777Z" fill="#FF0000"/>
<line x1="5.5" y1="106.403" x2="5.5" y2="82.0002" stroke="#FF0000"/>
</svg>
